<svg xml:space="preserve" style="enable-background:new 0 0 1024 1024;" viewBox="0 0 1024 1024" y="0px" x="0px" xmlns:xlink="http://www.w3.org/1999/xlink" xmlns="http://www.w3.org/2000/svg" id="图层_1" version="1.1">
<style type="text/css">
	.st0{fill:#FFFFFF;}
	.st1{fill:#ADABB4;}
	.st2{fill:#C6A355;}
	.st3{fill:#EFC4AD;}
	.st4{fill:#FFFDFE;}
	.st5{fill:#384F8D;}
	.st6{fill:#AEDBEB;}
	.st7{fill:#280F12;}
	.st8{fill:#574840;}
	.st9{fill:#C34531;}
	.st10{fill:#E9715A;}
	.st11{fill:#E69F7D;}
	.st12{fill:#F2B3CE;}
	.st13{fill:#203F7D;}
	.st14{fill:#D2AC9D;}
	.st15{fill:#EDE6E9;}
	.st16{fill:#EDC968;}
	.st17{opacity:0.8;}
	.st18{fill:#E3805A;}
	.st19{fill:#FFFFFF;stroke:#000000;stroke-width:0.5;stroke-miterlimit:10;}
	.st20{fill:#4070AF;}
	.st21{fill:#E37B6F;}
	.st22{fill:#F3A596;}
	.st23{fill:#EEC4AE;}
	.st24{fill:#CAAB9E;}
	.st25{fill:#F2E7D8;}
	.st26{fill:#ACA18C;}
	.st27{clip-path:url(#SVGID_4_);}
	.st28{fill:#F2E8D7;}
	.st29{fill:#C5603F;}
	.st30{fill:#D6AA98;}
	.st31{opacity:0.31;}
	.st32{fill:#B45D42;}
	.st33{stroke:#000000;stroke-width:0.25;stroke-miterlimit:10;}
	.st34{stroke:#000000;stroke-width:0.5;stroke-miterlimit:10;}
	.st35{fill:url(#SVGID_7_);}
	.st36{opacity:0.97;fill:#FFFFFF;}
	.st37{fill:url(#SVGID_8_);}
	.st38{stroke:#000000;stroke-miterlimit:10;}
	.st39{opacity:0.67;}
	.st40{fill:#E9CA48;}
</style>
<g>
	<g>
		<path d="M397.15,125.53c-10.63-7.55-21.96-11.49-33.96-11.49c-14.07,0-25.21,5.83-33.79,17.15
			c-5.66,9.09-8.41,19.22-8.41,30.36c0,11.84,3.09,22.3,9.26,31.22c7.2,8.92,16.81,13.55,28.65,13.55c8.75,0,18.01-3.26,27.78-9.95
			c2.58,2.74,4.29,6.01,4.98,9.44c-9.78,8.06-20.41,12.01-32.08,12.35c-17.15-0.17-30.53-6.17-39.96-18.18
			c-7.89-10.81-11.66-23.67-11.66-38.42c0-13.89,3.77-26.41,11.49-37.73c10.29-13.72,25.04-20.76,44.08-21.27
			c15.78,0.17,28.47,4.8,38.42,13.89C401.44,120.55,399.9,123.47,397.15,125.53z M407.79,216.61c-0.69,0.34-2.4,0.34-5.32,0.34
			c-1.89,0-3.43-0.17-4.8-0.86c0-7.89,0.17-22.47,0.86-44.08c-4.8,0-10.81-0.17-17.84-0.86c-8.75-0.34-16.12-1.2-22.3-2.57
			c0-4.8,0.17-8.23,0.69-10.64c18.87,1.2,36.02,2.4,51.46,3.77C410.53,188.14,409.5,206.49,407.79,216.61z" class="st38"></path>
		<path d="M475.71,155.55c-0.86,1.71-1.54,2.92-2.23,3.6c-4.46-2.23-8.75-3.43-13.04-3.43
			c-7.55,0.17-13.72,3.26-18.7,9.43c-3.94,5.15-5.83,10.98-5.83,17.67c0,6.52,2.06,12.52,6.52,17.67c4.46,4.8,9.78,7.2,16.29,7.2
			c3.08,0,6.17-0.52,9.26-1.54c1.71,2.57,2.57,5.49,2.91,8.92c-3.26,2.23-7.37,3.26-12.18,3.26c-10.46,0-18.87-3.26-25.39-10.12
			c-6.69-7.2-9.95-15.78-9.95-25.56c0-9.78,3.09-18.35,9.26-25.73c7.04-7.72,16.29-11.66,27.62-12c6.86,0,12.69,1.71,17.5,5.14
			C477.6,152.12,476.92,153.83,475.71,155.55z M492.52,200.49c-3.95,5.49-8.58,9.09-13.72,10.81c-1.37-2.06-2.23-3.43-2.57-4.29
			c-0.34-0.69-1.2-2.06-2.4-4.12c3.09-2.06,6.01-4.97,8.75-8.75c2.4-3.6,3.6-7.38,3.6-11.49c0-7.38-2.57-14.23-7.72-20.41
			c1.89-3.26,4.29-5.49,7.38-6.69c8.06,7.2,12.18,16.29,12.18,27.62C498.01,189.34,496.13,195.17,492.52,200.49z" class="st38"></path>
		<path d="M560.62,155.55c-0.86,1.71-1.54,2.92-2.23,3.6c-4.46-2.23-8.75-3.43-13.04-3.43
			c-7.55,0.17-13.72,3.26-18.7,9.43c-3.94,5.15-5.83,10.98-5.83,17.67c0,6.52,2.06,12.52,6.52,17.67c4.46,4.8,9.78,7.2,16.29,7.2
			c3.08,0,6.17-0.52,9.26-1.54c1.71,2.57,2.57,5.49,2.91,8.92c-3.26,2.23-7.38,3.26-12.18,3.26c-10.46,0-18.87-3.26-25.39-10.12
			c-6.69-7.2-9.95-15.78-9.95-25.56c0-9.78,3.09-18.35,9.26-25.73c7.04-7.72,16.29-11.66,27.62-12c6.86,0,12.69,1.71,17.5,5.14
			C562.51,152.12,561.82,153.83,560.62,155.55z M577.43,200.49c-3.95,5.49-8.58,9.09-13.72,10.81c-1.37-2.06-2.23-3.43-2.57-4.29
			c-0.34-0.69-1.2-2.06-2.4-4.12c3.09-2.06,6.01-4.97,8.75-8.75c2.4-3.6,3.6-7.38,3.6-11.49c0-7.38-2.57-14.23-7.72-20.41
			c1.89-3.26,4.29-5.49,7.38-6.69c8.06,7.2,12.18,16.29,12.18,27.62C582.92,189.34,581.03,195.17,577.43,200.49z" class="st38"></path>
		<path d="M627.51,145.25c8.92,0.17,16.64,2.74,22.81,7.72c0,2.74-1.2,5.83-3.26,8.92c-7.2-3.09-13.55-4.63-19.04-4.98
			c-14.06,0.52-21.61,8.75-22.3,24.7c0.17,16.13,7.89,24.19,23.15,24.36c3.77,0,9.61-1.71,17.16-5.15c1.03,1.37,1.89,2.58,2.23,3.77
			c0.34,1.03,0.86,2.92,1.55,5.66c-6.52,5.14-13.55,7.55-20.93,7.55c-22.98-0.52-34.82-12.35-35.68-35.51
			C594.06,158.63,605.56,146.28,627.51,145.25z M669.02,216.78c-1.2,0.69-2.91,1.03-4.97,1.03c-2.57,0-4.46-0.17-5.49-0.69
			c-1.2-2.23-1.71-19.9-1.71-53.01c0-38.42,0.34-58.66,1.2-60.72c2.23-0.34,3.95-0.69,5.32-0.69c1.2,0,2.92,0.17,5.32,0.51
			c0.69,5.14,1.2,26.41,1.2,63.81C669.88,194.48,669.54,211.12,669.02,216.78z" class="st38"></path>
	</g>
	<g>
		<g>
			<g>
				<path d="M234.15,653.95c0,0-34.42,13-61,9.71c0,0-21.25,56.31,8.43,89.81c0,0,22.34,9.84,37.97-2.49L234.15,653.95
					z" class="st21"></path>
			</g>
			<g>
				<path d="M233.27,650.77c-18.67,7.02-40.17,11.91-60.12,9.59c-1.51-0.18-2.71,1.17-3.18,2.42c-5.07,13.49-7.44,28.65-7.48,42.99
					c-0.03,12.06,1.97,24.19,7.04,35.2c1.23,2.66,2.64,5.23,4.25,7.68c1.55,2.37,3.7,6.16,6.15,7.67c2.25,1.39,5.44,2.02,7.96,2.62
					c5.3,1.28,10.87,1.9,16.31,1.33c3.29-0.34,6.49-1.02,9.57-2.25c2.59-1.03,7.15-2.82,8.63-5.39c0.5-0.87,0.52-2,0.66-2.97
					c0.34-2.26,0.68-4.51,1.02-6.77c2.49-16.52,4.97-33.04,7.46-49.57c1.93-12.84,3.86-25.67,5.8-38.51
					c0.63-4.15-5.73-5.94-6.36-1.75c-4.27,28.38-8.54,56.76-12.81,85.13c-0.6,3.97-1.19,7.93-1.79,11.9
					c0.51-0.66,1.01-1.31,1.52-1.97c-8.72,6.63-19.8,6.83-30.01,4c-1.33-0.37-2.66-0.79-3.96-1.27c-0.35-0.13-0.84-0.24-1.16-0.45
					c1.14,0.75-0.14-0.78-0.62-1.39c-3.47-4.37-6.27-9.38-8.25-14.59c-6.89-18.11-5.66-38.55-1.27-57.11
					c1.02-4.31,2.16-8.64,3.72-12.79c-1.06,0.81-2.12,1.61-3.18,2.42c13.64,1.59,27.63-0.51,40.91-3.64
					c7.07-1.67,14.15-3.63,20.96-6.19C238.96,655.65,237.26,649.27,233.27,650.77z"></path>
			</g>
		</g>
		<g>
			<g>
				<path d="M472.27,882.82c0,0,3.58-133.42-67.54-244.07c0,0-54.08,59.12-160.84,9.29c0,0-43.22,94.23-49.61,231.28" class="st22"></path>
			</g>
			<g>
				<path d="M475.57,882.82c0.46-17.38-1.1-34.96-3.08-52.2c-4.64-40.47-13.64-80.56-27.9-118.74
					c-9.75-26.11-21.97-51.31-37.01-74.79c-1.1-1.71-3.69-2.29-5.18-0.67c-6.42,7-14.74,11.95-23.51,16.29
					c-22.04,10.91-47.19,13.78-71.44,10.99c-21.48-2.48-42.34-9.43-61.89-18.49c-1.49-0.69-3.72-0.55-4.51,1.18
					c-6.03,13.16-10.8,26.99-15.3,40.72c-11.56,35.25-20.11,71.51-26,108.13c-4.49,27.84-7.42,55.93-8.75,84.1
					c-0.2,4.24,6.4,4.23,6.6,0c2.2-46.25,8.71-92.27,19.51-137.29c6.49-27.04,14.41-53.83,24.48-79.77
					c0.72-1.87,1.46-3.73,2.21-5.58c0.31-0.77,0.63-1.54,0.94-2.3c0.14-0.33,0.28-0.67,0.42-1c0.29-0.7-0.21,0.49,0.13-0.3
					c0.48-1.12,0.96-2.25,1.46-3.36c-1.5,0.39-3.01,0.79-4.51,1.18c31.95,14.82,67.34,24.01,102.68,18.98
					c19.12-2.72,38.05-9.76,53.56-21.41c2.99-2.25,6.05-4.61,8.59-7.38c-1.73-0.22-3.45-0.45-5.18-0.67
					c25.47,39.77,42.69,84.26,53.51,130.11c7.34,31.1,11.92,62.95,13.28,94.89c0.25,5.79,0.45,11.61,0.3,17.41
					C468.86,887.06,475.45,887.06,475.57,882.82L475.57,882.82z"></path>
			</g>
		</g>
		<g class="st39">
			<path d="M258.33,667.47c0,0-18.81-12.23-24.99,212.91l30.12,0.61l8.68-206.36L258.33,667.47z" class="st0"></path>
		</g>
		<g class="st39">
			<polyline points="338.79,882.82 315.65,678.66 298.59,678 309.79,882.81" class="st0"></polyline>
		</g>
		<g class="st39">
			<polyline points="427.15,882.02 368.31,678.68 351.76,680.18 397.5,881.85" class="st0"></polyline>
		</g>
		<g>
			<g>
				<g>
					<path d="M230.36,431.21c-30.01,17.79-48.81,49.52-51.27,84.32c-0.42,5.88,0.25,11.25-0.85,15.01
						c-3.63,12.48-35.17,88.47,53.85,128.44c0,0,101.74,58.94,185.59-60.99c0,0,0.19-0.34,0.54-0.99
						c25.87-48.02,19.95-107.51-16.15-148.4c-26.76-30.32-68.66-53.74-131.55-34.48C270.51,414.12,251.64,418.59,230.36,431.21z" class="st3"></path>
				</g>
			</g>
			<g>
				<g>
					<g>
						<path d="M227.09,426.85c-30.49,18.24-50.41,51.31-53.29,86.63c-0.4,4.9,0.24,9.99-0.62,14.83c-0.06,0.33-0.14,1.17-0.32,1.39
							c-0.1,0.13,0.51-1.59,0.28-0.97c-0.07,0.19-0.12,0.38-0.18,0.57c-0.14,0.44-0.28,0.89-0.43,1.33
							c-0.97,2.99-1.92,5.98-2.8,8.99c-2.34,8.03-4.06,16.24-4.81,24.58c-2.22,24.69,4.24,49.34,20.67,68.29
							c13.75,15.86,32.25,26.56,51.31,34.88c15.98,6.98,33.54,10.9,50.96,11.41c28.57,0.84,56.16-7.39,80.05-23.02
							c16.12-10.55,30.21-24.12,42.39-38.98c3.62-4.42,7.09-8.98,10.4-13.64c2.6-3.65,4.55-7.72,6.4-11.79
							c3.95-8.66,6.97-17.76,9.09-27.04c8.37-36.74,0.89-76.36-20.62-107.33c-17.17-24.72-42.55-44.04-71.83-51.66
							c-16.4-4.27-33.77-4.58-50.48-2.02c-4.75,0.73-9.47,1.69-14.13,2.85c-2.63,0.65-5.25,1.33-7.85,2.09
							c-0.08,0.02-2.68,0.86-1.43,0.49c-0.57,0.17-1.15,0.29-1.72,0.43c-4.77,1.24-9.46,2.83-14.07,4.59
							C244.69,417.33,235.72,421.77,227.09,426.85c-2.54,1.49-2.72,5.46-1.09,7.63c1.93,2.57,5.08,2.59,7.63,1.09
							c8.12-4.78,16.7-8.79,25.52-12.1c2.85-1.07,5.72-2.06,8.63-2.95c0.96-0.29,1.92-0.58,2.88-0.84c0.94-0.26,2.25-0.6,0.3-0.1
							c8.27-2.14,16.36-4.42,24.84-5.64c8.18-1.18,16.5-1.71,24.76-1.22c28.2,1.68,53.19,14.32,72.75,34.36
							c23.37,23.96,36.83,57.91,35.31,92.02c-0.8,17.87-5.25,35.37-13.16,51.42c-4.18,8.47-10.74,16.18-17.17,23.66
							c-6.14,7.13-12.71,13.86-19.85,20c-21.73,18.7-47.77,31.13-76.01,33.44c-2.92,0.24-5.85,0.38-8.78,0.42
							c-1.06,0.01-3.12,0.01-3.52,0c-0.45-0.01-2.55-0.08-3.67-0.14c-5.08-0.27-10.15-0.83-15.17-1.67
							c-4.42-0.74-8.8-1.7-13.12-2.86c-0.5-0.14-1-0.28-1.5-0.41c-0.53-0.15-1.34-0.39-0.29-0.08c-0.93-0.28-1.87-0.56-2.8-0.86
							c-1.71-0.54-3.41-1.12-5.09-1.74c-4.35-1.58-8.65-3.37-12.75-5.5c-9.29-4.84-18.54-9.21-26.97-15.55
							c-5.7-4.29-10.96-9.06-15.51-14.51c-4.2-5.03-7.64-10.26-10.26-15.71c-1.26-2.63-2.38-5.33-3.35-8.08
							c-0.45-1.29-0.87-2.59-1.26-3.9c-0.2-0.69-0.39-1.38-0.58-2.08c-0.04-0.16-0.26-1.05-0.04-0.14
							c-0.08-0.34-0.17-0.69-0.25-1.03c-1.16-5.24-1.9-10.54-2.13-15.91c-0.05-1.21-0.08-2.43-0.09-3.65c0-0.64,0-1.28,0.01-1.91
							c-0.02,1.23,0.03-0.83,0.04-1.14c0.09-2.36,0.27-4.72,0.52-7.06c0.46-4.34,1.18-8.65,2.11-12.92c0.4-1.84,0.84-3.67,1.32-5.49
							c0.22-0.86,0.46-1.72,0.7-2.58c0.1-0.36,0.2-0.71,0.3-1.07c0.32-1.14-0.34,1.1,0.07-0.25c0.74-2.42,1.52-4.82,2.29-7.22
							c2.02-6.28,1.38-12.53,1.88-19.03c0.62-8.17,2.13-16.35,4.68-24.13c5.06-15.5,13.63-29.7,25.23-41.18
							c5.73-5.67,12.28-10.54,19.19-14.68c2.52-1.51,2.73-5.45,1.09-7.63C232.8,425.39,229.62,425.33,227.09,426.85z"></path>
					</g>
				</g>
			</g>
		</g>
		<g>
			<g>
				<g>
					<g>
						
							<ellipse ry="27.2" rx="23.25" cy="536.21" cx="335.48" class="st0" transform="matrix(0.1547 -0.988 0.988 0.1547 -246.1838 784.6657)"></ellipse>
					</g>
				</g>
			</g>
			<g>
				<g>
					<g>
						<path d="M313.07,533.39c-1.16,10.13,7.37,19.54,19.04,21c11.67,1.47,22.08-5.56,23.23-15.7
							c1.16-10.13-7.37-19.54-19.04-21C324.63,516.23,314.23,523.26,313.07,533.39z" class="st7"></path>
					</g>
				</g>
			</g>
			<g>
				<g>
					<g>
						<path d="M302.28,526.8c2.12-2.91,4.8-5.43,7.69-7.68c2.93-2.22,6.16-4.12,9.66-5.51
							c3.49-1.42,7.26-2.27,11.09-2.54c3.84-0.23,7.74,0.18,11.47,1.16c7.48,2.02,14.13,6.17,19.63,11.19
							c1.39,1.25,2.72,2.55,3.98,3.91c1.27,1.38,2.44,2.72,3.73,3.97c1.27,1.25,2.72,2.36,4.21,3.41c0.75,0.52,1.52,1,2.32,1.44
							c0.8,0.4,1.65,0.85,2.58,0.77c-0.91,0.23-1.88-0.1-2.75-0.39c-0.89-0.32-1.73-0.73-2.56-1.16c-1.66-0.86-3.24-1.88-4.75-3.02
							c-1.52-1.12-2.86-2.46-4.2-3.64c-1.37-1.19-2.74-2.38-4.16-3.49c-5.67-4.45-11.96-8.16-18.82-9.94
							c-6.82-1.87-14.11-1.56-20.82,0.66c-3.36,1.11-6.6,2.62-9.65,4.47C307.85,522.23,304.95,524.37,302.28,526.8z" class="st7"></path>
					</g>
				</g>
			</g>
			<g>
				<g>
					<g>
						<path d="M361.67,545.95c-1.38,2.7-3.37,5.11-5.65,7.21c-2.28,2.12-4.96,3.86-7.87,5.18l-1.09,0.49
							c-0.37,0.15-0.76,0.27-1.14,0.4c-0.76,0.25-1.51,0.55-2.3,0.75c-1.57,0.38-3.16,0.74-4.78,0.84
							c-1.61,0.23-3.24,0.19-4.87,0.15c-0.82,0.02-1.62-0.15-2.42-0.23l-2.41-0.32l0.15,0.02c-1.31-0.15-2.37-0.41-3.5-0.75
							c-1.1-0.34-2.19-0.71-3.23-1.16c-2.11-0.86-4.08-2-5.96-3.23c-0.91-0.66-1.83-1.3-2.68-2.03c-0.43-0.36-0.86-0.71-1.28-1.07
							l-1.19-1.16c-0.82-0.75-1.51-1.61-2.24-2.42c-0.71-0.83-1.34-1.74-1.99-2.6l2.52,2.08c0.89,0.63,1.69,1.35,2.59,1.94
							c1.74,1.26,3.58,2.36,5.44,3.38c1.87,1.01,3.82,1.82,5.79,2.53c0.98,0.36,1.99,0.64,2.99,0.89c0.98,0.22,2.07,0.45,2.93,0.53
							l0.15,0.02c2.94,0.36,5.9,0.63,8.82,0.33c2.93-0.21,5.81-0.86,8.55-1.89c2.76-0.99,5.4-2.36,7.85-4.04
							C357.32,550.13,359.6,548.18,361.67,545.95z" class="st7"></path>
					</g>
				</g>
			</g>
			<g>
				<g>
					<g>
						<path d="M376.3,517.74c-2.19,0.99-4.57,1.57-6.97,1.93c-2.4,0.38-4.85,0.45-7.29,0.34
							c-1.22-0.06-2.44-0.22-3.65-0.36c-1.2-0.26-2.42-0.4-3.59-0.78c-2.37-0.6-4.65-1.58-6.74-2.8c2.42,0.4,4.72,0.91,7.06,1.18
							c2.33,0.32,4.66,0.56,7,0.65c2.34,0.15,4.68,0.16,7.04,0.13C371.52,517.98,373.88,517.88,376.3,517.74z" class="st7"></path>
					</g>
				</g>
			</g>
			<g>
				<g>
					<g>
						<path d="M381.76,524.01c-1.96,0.87-4.09,1.34-6.23,1.61c-2.14,0.27-4.32,0.32-6.49,0.14
							c-2.17-0.16-4.32-0.56-6.41-1.19c-2.09-0.59-4.09-1.5-5.93-2.63c2.16,0.32,4.2,0.76,6.28,1.03c2.06,0.32,4.13,0.53,6.19,0.7
							C373.33,524.01,377.46,524.04,381.76,524.01z" class="st7"></path>
					</g>
				</g>
			</g>
			<g>
				<g>
					<g>
						
							<ellipse ry="5.47" rx="5.27" cy="533.93" cx="342.15" class="st0" transform="matrix(0.2725 -0.9621 0.9621 0.2725 -264.8158 717.6106)"></ellipse>
					</g>
				</g>
			</g>
			<g>
				<g>
					<g>
						<path d="M330.05,543.58c-0.17,1.45,2.13,2.93,5.12,3.3c2.99,0.38,5.55-0.49,5.72-1.94
							c0.17-1.45-2.13-2.93-5.12-3.3C332.78,541.26,330.22,542.13,330.05,543.58z" class="st0"></path>
					</g>
				</g>
			</g>
			<g>
				<g>
					<g>
						<path d="M303.91,512.53c3.88-3.19,8.51-5.52,13.41-7.04c4.91-1.51,10.12-2.1,15.3-1.91
							c5.17,0.32,10.32,1.18,15.24,2.8c2.46,0.82,4.86,1.81,7.15,2.98c2.28,1.2,4.48,2.55,6.51,4.12
							c-4.31-2.77-9.01-4.89-13.91-6.34c-4.89-1.44-9.96-2.29-15.03-2.52c-5.07-0.27-10.15,0.32-15.02,1.63
							c-2.44,0.65-4.81,1.51-7.09,2.57C308.18,509.88,305.97,511.09,303.91,512.53z" class="st7"></path>
					</g>
				</g>
			</g>
		</g>
		<g>
			<g>
				<g>
					<g>
						
							<ellipse ry="22.28" rx="20.6" cy="526.34" cx="214.55" class="st0" transform="matrix(0.1408 -0.99 0.99 0.1408 -336.7439 664.6619)"></ellipse>
					</g>
				</g>
			</g>
			<g>
				<g>
					<g>
						
							<ellipse ry="17.45" rx="16.35" cy="526.4" cx="214.99" class="st7" transform="matrix(0.1408 -0.99 0.99 0.1408 -336.4333 665.1428)"></ellipse>
					</g>
				</g>
			</g>
			<g>
				<g>
					<g>
						<path d="M242.22,525.62c-1.59-2.68-3.42-5.16-5.45-7.41c-2.01-2.27-4.25-4.29-6.67-5.99
							c-4.83-3.4-10.52-5.3-16.31-5.23c-5.8-0.01-11.58,1.77-17.02,4.31c-1.37,0.63-2.7,1.34-4.04,2.06
							c-1.32,0.71-2.67,1.56-4.11,2.18c-1.44,0.64-2.9,1.16-4.4,1.52c-0.75,0.18-1.51,0.35-2.28,0.42
							c-0.75,0.05-1.59,0.12-2.26-0.28c0.72,0.28,1.49,0.08,2.2-0.08c0.73-0.19,1.44-0.43,2.14-0.71c1.4-0.57,2.78-1.19,4.06-1.98
							c1.29-0.79,2.5-1.67,3.8-2.57c1.29-0.88,2.62-1.7,3.99-2.46c5.43-3.07,11.58-5.14,17.92-5.2c3.16,0,6.33,0.52,9.32,1.58
							c2.97,1.09,5.77,2.66,8.22,4.66c2.47,1.97,4.61,4.33,6.44,6.88C239.59,519.89,241.17,522.65,242.22,525.62z" class="st7"></path>
					</g>
				</g>
			</g>
			<g>
				<g>
					<g>
						<path d="M191.15,528.74c1.15,2.37,2.53,4.56,4.11,6.55c1.57,1.99,3.36,3.75,5.33,5.22
							c1.94,1.5,4.08,2.7,6.35,3.53c2.24,0.91,4.64,1.34,7.05,1.69l0.13,0.02c0.7,0.12,1.6,0.17,2.43,0.2c0.85,0.01,1.7,0,2.56-0.09
							c1.71-0.17,3.43-0.43,5.12-0.87c1.69-0.45,3.38-0.99,5.03-1.68c0.84-0.3,1.63-0.74,2.47-1.08l2.44-1.22
							c-0.7,0.59-1.39,1.23-2.13,1.78c-0.75,0.53-1.49,1.12-2.29,1.57l-1.19,0.72c-0.41,0.22-0.83,0.42-1.24,0.63
							c-0.82,0.44-1.69,0.78-2.55,1.14c-1.75,0.63-3.55,1.17-5.41,1.43c-0.92,0.15-1.86,0.23-2.81,0.27
							c-0.96,0.03-1.86,0.02-2.93-0.14l0.13,0.02l-1.97-0.27c-0.66-0.1-1.32-0.14-1.96-0.34c-1.29-0.33-2.59-0.66-3.81-1.22
							c-1.26-0.46-2.44-1.12-3.6-1.79c-0.58-0.34-1.1-0.77-1.65-1.15c-0.27-0.2-0.55-0.39-0.81-0.6l-0.76-0.67
							c-2.01-1.79-3.76-3.87-5.1-6.2C192.71,533.87,191.66,531.36,191.15,528.74z" class="st7"></path>
					</g>
				</g>
			</g>
			<g>
				<g>
					<g>
						<path d="M185.67,501.29c1.88,0.66,3.73,1.28,5.58,1.85c1.86,0.56,3.71,1.06,5.59,1.46
							c1.87,0.45,3.76,0.76,5.67,1.01c1.91,0.29,3.84,0.36,5.84,0.57c-1.92,0.57-3.93,0.91-5.93,0.89c-1.01,0.06-2-0.08-3.01-0.13
							c-0.99-0.15-1.99-0.28-2.97-0.51c-1.95-0.45-3.87-1.06-5.69-1.92C188.95,503.66,187.19,502.63,185.67,501.29z" class="st7"></path>
					</g>
				</g>
			</g>
			<g>
				<g>
					<g>
						<path d="M180,505.44c3.4,0.99,6.67,1.89,10.02,2.51c1.67,0.32,3.34,0.6,5.04,0.79c1.7,0.23,3.41,0.31,5.18,0.53
							c-1.7,0.56-3.47,0.89-5.25,0.93c-1.78,0.08-3.57-0.07-5.32-0.41c-1.75-0.33-3.46-0.86-5.1-1.57
							C182.94,507.51,181.37,506.63,180,505.44z" class="st7"></path>
					</g>
				</g>
			</g>
			<g>
				<g>
					<g>
						<path d="M222.56,523.44c-0.36,2.55-2.64,4.34-5.09,4c-2.45-0.35-4.14-2.7-3.77-5.26s2.64-4.34,5.09-4
							C221.23,518.53,222.92,520.88,222.56,523.44z" class="st0"></path>
					</g>
				</g>
			</g>
			<g>
				<g>
					<g>
						<path d="M220.47,534.25c-0.18,1.28-2.31,2.03-4.76,1.68c-2.45-0.35-4.28-1.67-4.1-2.94
							c0.18-1.28,2.31-2.03,4.76-1.68C218.81,531.65,220.65,532.97,220.47,534.25z" class="st0"></path>
					</g>
				</g>
			</g>
			<g>
				<g>
					<g>
						<path d="M244.01,513.03c-1.32-1.69-2.81-3.23-4.39-4.63c-1.58-1.41-3.27-2.68-5.05-3.79
							c-3.56-2.22-7.45-3.86-11.52-4.76c-4.06-0.93-8.25-1.34-12.42-1.2c-4.18,0.14-8.35,0.91-12.35,2.32
							c1.94-0.89,3.97-1.56,6.03-2.08c2.07-0.49,4.18-0.8,6.3-0.96c4.24-0.29,8.5,0.13,12.65,1.01c4.13,1,8.13,2.67,11.68,5.06
							C238.47,506.39,241.63,509.42,244.01,513.03z" class="st7"></path>
					</g>
				</g>
			</g>
		</g>
		<g>
			<g>
				<g>
					<path d="M282.2,559.16c-0.58,4.73-4.81,6.06-9.75,5.46c-4.94-0.6-8.72-2.91-8.14-7.65
						c0.58-4.73,5.3-10.09,10.24-9.49C279.49,548.09,282.78,554.43,282.2,559.16z" class="st10"></path>
				</g>
			</g>
		</g>
		<g>
			<g>
				<path d="M425.33,514.05c0,0,47.06-26.23,49.66,8.49s6.4,57.64-45.95,59.17
					C429.04,581.71,441.69,536.5,425.33,514.05z" class="st3"></path>
			</g>
		</g>
		<g>
			<g>
				<g>
					<path d="M155.4,473.09c0,0,9.36,36.57-10.15,77.02c-4.71,9.77-11.82,18.23-15.04,28.59
						c-7.76,24.99-9.52,64.72,42.62,89.42c0,0,26.08,11.41,46.39-15.63c0,0-68.63-33.39-41.7-119.54c1.01-3.24,1.56-6.62,1.65-10.01
						c0.26-9.48,1.72-30.08,9.08-44.22l21.12,2.77l7.62-41.07c5.78,43.46,12.74,43.56,12.74,43.56l78.42,9.59
						c-2.87-30.36,19.57-67.04,19.57-67.04c-2.59,24.01-4.29,68.9-4.29,68.9l48.51,4.09c-6.55-16.89,7.86-64.29,7.86-64.29
						c3.2,29.7,15.57,49.63,27.05,62.1c-1.16-0.97-2.03-1.9-2.45-2.76c0,0,1.68,36.17-19.88,53.47s-70.96,118.93,14.41,125.55
						c0,0,4.31,2.11,50.72-5.57c15.79,0.89,31.67-1.58,46.41-7.68c87.46-36.15,41.11-153.79,41.11-153.79
						c-8.48-26.65-25.17-53.3-33.12-73.8C438.4,263.31,314.18,313.4,314.18,313.4S191.59,290.35,155.3,438.56
						C152.53,449.9,152.6,461.76,155.4,473.09L155.4,473.09z M475.8,537.97c-0.11,1.73,0.24,3.51-0.13,5.2
						c-6.25,29.18-22.3,36.01-35.66,37.19c-3.32,0.29-5.89-2.91-4.91-6.09c4.91-15.96,6.47-34.9,0.03-55.76
						c-0.93-3.01,0.68-6.22,3.68-7.2l0,0C477.69,503.04,476.36,529.35,475.8,537.97z" class="st18"></path>
				</g>
			</g>
			<g>
				<g>
					<g>
						<path d="M152.87,474.11c-0.38-1.51-0.02-0.05,0.05,0.29c0.18,0.85,0.34,1.71,0.49,2.57c0.51,2.91,0.86,5.84,1.11,8.79
							c0.84,10.03,0.37,20.13-1.27,30.06c-2.23,13.52-6.63,26.88-13.48,38.78c-3.21,5.58-6.86,10.92-9.6,16.76
							c-1.92,4.09-3.22,8.42-4.29,12.8c-3.67,15.07-3.51,31.28,2.6,45.7c3.73,8.79,9.47,16.51,16.39,23.04
							c7.7,7.26,17.26,13.75,27.06,17.81c5.71,2.36,12.42,2.94,18.51,2.31c12.71-1.33,23.29-8.86,30.9-18.83
							c1.1-1.43,0.55-3.41-1.04-4.19c-0.93-0.46-1.83-0.98-2.73-1.5c-0.65-0.38-0.02,0-0.87-0.53c-0.58-0.36-1.15-0.73-1.72-1.1
							c-1.34-0.88-2.66-1.8-3.96-2.75c-7.43-5.46-14.05-11.97-19.59-19.35c-7.63-10.17-13.04-21.97-15.58-34.44
							c-3.5-17.17-1.83-34.85,2.77-51.65c1.5-5.48,3.03-10.53,3.24-16.26c0.15-4.07,0.43-8.14,0.87-12.19
							c1.15-10.41,3.19-21,7.98-30.4c-0.97,0.53-1.94,1.06-2.91,1.59c7.04,0.92,14.08,1.85,21.12,2.77c1.49,0.2,2.84-0.79,3.11-2.27
							c2.54-13.69,5.08-27.38,7.62-41.07c-1.8-0.04-3.6-0.07-5.4-0.11c1.22,9.07,2.65,18.14,4.89,27.01c1.11,4.41,2.34,8.92,4.41,13
							c1.29,2.53,2.95,5.41,5.96,5.96c6.89,1.26,14.03,1.72,20.98,2.57c11.75,1.44,23.5,2.87,35.25,4.31
							c7.32,0.89,14.63,1.79,21.95,2.68c1.79,0.22,3.28-1.2,3.13-3c-1.31-14.97,3.03-30.08,8.63-43.82
							c2.15-5.28,4.56-10.46,7.22-15.5c0.78-1.49,1.58-2.96,2.41-4.42c0.21-0.37,1.44-2.43,0.74-1.29c-1.61-0.7-3.22-1.41-4.82-2.11
							c-2.44,22.86-3.42,45.93-4.29,68.9c-0.05,1.39,0.67,2.98,2.27,3.11c14.13,1.19,28.26,2.38,42.39,3.58
							c2.04,0.17,4.08,0.34,6.12,0.52c2.07,0.17,3.71-1.67,2.95-3.71c-3.2-8.55-1.33-19.25,0.02-27.98
							c1.5-9.67,3.7-19.24,6.25-28.68c0.4-1.46,0.8-2.92,1.22-4.37c0.31-1.08,0.02-0.11,0.33-1.14c-1.73-0.26-3.47-0.52-5.2-0.79
							c2.62,23.43,11.56,45.92,27.58,63.43c1.29-1.26,2.58-2.51,3.87-3.77c-0.79-0.69-1.43-1.35-1.96-2.26
							c-1.48-2.54-4.99-0.46-4.89,1.94c0.26,5.91-0.48,12.47-1.67,18.67c-2.26,11.7-7.03,23.75-16.33,31.64
							c-11.49,9.75-19.23,23.85-25.19,37.48c-7.33,16.76-12.83,36.21-9.81,54.61c1.38,8.41,4.76,16.56,10.61,22.85
							c6.97,7.5,16.32,11.86,26.18,14.18c4.96,1.17,9.98,1.94,14.96,2.2c6.4,0.33,12.93-0.58,19.27-1.34
							c7.25-0.87,14.48-1.93,21.69-3.07c2.15-0.34,4.3-0.71,6.46-1.04c2.6-0.39,5.16-0.19,7.78-0.18c4.97,0.02,9.95-0.28,14.88-0.94
							c15.3-2.04,30.29-7.34,43.2-15.86c17.34-11.45,29.01-28.87,34.44-48.79c4.89-17.93,4.87-37.03,2.44-55.35
							c-1.74-13.13-4.74-26.15-8.89-38.73c-6.55-19.85-15.6-38.49-24.9-57.18c-3.59-7.22-7.15-14.47-10.09-21.97
							c-3-7.64-6.17-15.21-9.68-22.64c-6.07-12.83-13.01-25.28-21.07-36.97c-12.6-18.26-28.14-34.8-46.8-46.95
							c-14.36-9.35-30.34-16-47.17-19.3c-12.95-2.54-26.33-3.09-39.46-1.79c-8.41,0.83-16.78,2.42-24.86,4.9
							c-1.15,0.35-3.45,0.66-4.38,1.48c-0.03,0.03,1.97,0.21,0.87-0.19c-0.72-0.26-1.67-0.25-2.42-0.35
							c-8.92-1.13-18.03-1.15-26.97-0.45c-15.03,1.18-29.96,4.68-43.85,10.56c-18.01,7.63-34.06,19.3-47.12,33.84
							c-17.63,19.64-29.45,43.94-37.09,69.04c-2.36,7.73-4.74,15.64-5.66,23.69c-1.01,8.81-0.47,17.82,1.66,26.43
							c0.83,3.36,6.25,2.78,5.41-0.62c-2.17-8.8-2.72-17.97-1.43-26.95c1.16-8.11,3.63-16.14,6.13-23.93
							c4.24-13.18,9.62-26.03,16.46-38.07c10.65-18.74,25.13-35.3,43.1-47.31c13.59-9.08,29.02-15.39,45.01-18.72
							c6.47-1.34,13.03-2.23,19.62-2.68c5.25-0.35,10.31-0.41,15.02-0.2c3.15,0.14,6.31,0.39,9.44,0.81
							c1.38,0.18,2.51,0.5,3.88,0.13c1.45-0.39,2.86-1.01,4.29-1.46c1.4-0.43,2.82-0.82,4.23-1.2c0.86-0.23,0.04-0.02,0.64-0.16
							c0.48-0.12,0.96-0.23,1.44-0.35c0.93-0.22,1.86-0.43,2.8-0.62c10.33-2.18,21.18-3.17,31.58-2.82
							c14.51,0.49,28.91,3.36,42.42,8.68c17.5,6.9,33.14,17.7,46.51,30.87c18.31,18.04,32.21,40.28,43.09,63.44
							c6.74,14.36,12.15,29.23,19.22,43.45c8.06,16.23,16.56,32.37,22.34,49.59c2.45,7.3,4.99,14.69,6.83,22.05
							c3.92,15.64,6.26,31.85,6,48c-0.3,18.46-4.27,37.47-14.64,53.01c-14.5,21.73-39.72,33.9-65.26,36.57
							c-4.87,0.51-9.79,0.7-14.69,0.52c-4.59-0.17-9.15,0.93-13.69,1.64c-6.73,1.04-13.47,2.01-20.24,2.81
							c-4.02,0.47-8.05,0.9-12.09,1.14c-1.18,0.07-2.35,0.12-3.53,0.14c-0.39,0-0.79,0.01-1.18,0c0.84,0.01-0.12,0-0.43-0.02
							c-0.42-0.04-2.36-0.25-0.91-0.01c-4.88-0.82-9.82-1.18-14.66-2.39c-8.95-2.23-17.66-6.58-23.51-13.88
							c-10.9-13.57-9.67-32.7-5.76-48.62c4.05-16.53,11.53-32.89,21.62-46.62c1.82-2.48,3.76-4.87,5.89-7.08
							c2.55-2.64,6.41-5.55,9.07-8.8c7.43-9.05,11.34-20.64,13.19-32.07c0.92-5.7,1.47-11.61,1.22-17.39
							c-1.63,0.65-3.26,1.3-4.89,1.94c0.75,1.28,1.82,2.29,2.93,3.25c2.29,2,5.98-1.46,3.87-3.77c-15.41-16.84-24-38.21-26.52-60.78
							c-0.28-2.5-4.38-3.48-5.2-0.79c-4.96,16.35-9.24,33.75-9.74,50.88c-0.15,5.21,0,10.59,1.84,15.53
							c0.98-1.24,1.96-2.47,2.95-3.71c-14.13-1.19-28.26-2.38-42.39-3.58c-2.04-0.17-4.08-0.34-6.12-0.52
							c0.76,1.04,1.51,2.07,2.27,3.11c0.87-22.97,1.85-46.04,4.29-68.9c0.26-2.44-3.3-4.62-4.82-2.11
							c-4.46,7.3-8.16,15.13-11.35,23.06c-5.82,14.46-10.16,30.27-8.79,45.98c1.04-1,2.08-2,3.13-3
							c-16.97-2.08-33.94-4.15-50.92-6.23c-8.45-1.03-16.91-2.07-25.36-3.1c-0.67-0.08-1.34-0.19-2.02-0.25
							c-0.51-0.04,0.29,0.09,0.35,0.13c-0.04-0.03-0.27-0.15-0.31-0.15c0.77-0.04,0.38,0.49-0.01-0.09c-0.4-0.6,0.37,0.53-0.19-0.21
							c-0.27-0.37-0.54-0.72-0.8-1.1c-0.54-0.8-0.27-0.34-0.73-1.3c-0.41-0.84-0.79-1.69-1.14-2.56c-0.99-2.44-1.77-4.96-2.47-7.49
							c-2.56-9.29-4-18.9-5.27-28.43c-0.41-3.06-4.83-3.14-5.4-0.11c-2.54,13.69-5.08,27.38-7.62,41.07
							c1.04-0.76,2.07-1.51,3.11-2.27c-7.04-0.92-14.08-1.85-21.12-2.77c-1.26-0.17-2.35,0.49-2.91,1.59
							c-4.36,8.56-6.55,18.17-7.87,27.64c-0.57,4.14-0.97,8.31-1.21,12.48c-0.25,4.38-0.24,8.73-1.35,13.01
							c-2.59,10.01-5.37,19.67-6.31,30.03c-0.77,8.45-0.66,17.03,0.61,25.43c3.6,23.94,16.64,45.42,35.6,60.33
							c4,3.14,8.3,6.21,12.89,8.45c-0.35-1.4-0.69-2.79-1.04-4.19c-6.63,8.68-15.59,15.41-26.67,16.74
							c-5.23,0.63-11.29,0.09-15.82-1.64c-8.9-3.42-17.54-9.41-24.64-15.72c-6.89-6.13-12.63-13.58-16.29-22.07
							c-5.91-13.74-5.87-28.99-2.34-43.33c2.59-10.52,8.35-19.08,13.66-28.36c6.52-11.41,10.79-24.26,13.2-37.15
							c2.83-15.17,3.58-32.05-0.26-47.17C157.07,468.69,152.02,470.75,152.87,474.11z"></path>
					</g>
				</g>
				<g>
					<g>
						<path d="M473.11,537.55c-0.06,2.09,0.11,4.1-0.34,6.16c-0.49,2.29-1.12,4.57-1.86,6.79c-1.18,3.56-2.63,7.05-4.5,10.31
							c-2.81,4.9-6.66,9.17-11.47,12.15c-3.8,2.36-8.16,3.74-12.57,4.39c-0.93,0.14-2.39,0.54-3.31,0.25
							c-2-0.63-1.33-2.66-0.91-4.12c1.08-3.72,1.97-7.48,2.62-11.3c1.44-8.51,1.72-17.26,0.81-25.85
							c-0.48-4.55-1.32-9.04-2.44-13.47c-0.9-3.57-3.33-8.15,1.72-9.19c9.19-1.89,22.29-2.93,28.62,5.68
							C473.38,524.63,473.49,531.75,473.11,537.55c-0.22,3.48,5.16,4.34,5.38,0.84c0.47-7.3,0.11-14.9-3.92-21.26
							c-6.78-10.7-21.03-11.1-32.21-9.25c-3.94,0.65-7.73,1.44-9.5,5.48c-1.98,4.52,0.95,9.95,1.88,14.42
							c2.1,10.06,2.51,20.41,1.11,30.59c-0.65,4.74-1.66,9.43-3,14.03c-1.09,3.75-0.57,7.69,3.18,9.75
							c4.56,2.51,12.37-0.19,16.83-2.05c6.49-2.7,12.01-7.32,16.03-13.07c2.66-3.81,4.74-8,6.33-12.35
							c0.88-2.41,1.63-4.89,2.27-7.37c0.8-3.09,0.92-5.76,1.01-8.92C478.59,534.93,473.2,534.05,473.11,537.55z"></path>
					</g>
				</g>
			</g>
		</g>
		<g>
			<g>
				<g>
					<g>
						<g>
							<path d="M204.83,637.84c0,0-9.39,22.58,16.01,27.35c0,0,0.83,41.03,58.41,25.89c0,0,27.01,18.93,39.77-3.55
								c0,0,26.38,17.57,43.12-3.46c0,0,21.61-3.41,13.41-17.72c0,0,1.77-8.55-11.9-11.14c0,0-57.24,26.58-108.63,10.54
								C255.01,665.75,223.13,655.85,204.83,637.84z" class="st28"></path>
						</g>
					</g>
					<g>
						<g>
							<g>
								<path d="M202.33,636.74c-1.75,4.26-2.4,9.39-1.64,13.92c1.7,10.13,10.26,15.34,19.73,17.22c-0.76-0.79-1.52-1.59-2.29-2.38
									c0.11,4.84,1.83,9.93,4.13,14.13c5.45,9.96,15.42,15.59,26.51,17.05c10.57,1.39,21.27-0.43,31.49-3.08
									c-0.9-0.13-1.81-0.26-2.71-0.39c5.09,3.55,11.14,6.16,17.21,7.4c4.66,0.95,9.58,0.92,14.11-0.66
									c5.64-1.96,9.69-6.29,12.64-11.33c-1.4,0.35-2.79,0.69-4.19,1.04c5.11,3.38,11.15,5.71,17.15,6.83
									c11.51,2.15,22.35-1.63,29.8-10.73c-0.61,0.34-1.21,0.67-1.82,1.01c4-0.64,8.04-2.06,11.46-4.24
									c2.36-1.51,4.47-3.64,5.5-6.29c1.04-2.67,1.2-7.41-0.73-9.79c-0.97-1.19-0.32,0.63-0.4,0.1c-0.06-0.37,0.06-0.97,0.06-1.29
									c-0.01-1.01-0.16-1.97-0.45-2.94c-0.94-3.11-3.23-5.49-6-7.1c-2.47-1.43-6.64-3.38-9.48-2.45
									c-1.12,0.37-2.22,0.96-3.31,1.41c-14.17,5.79-29.13,9.84-44.25,12.11c-19.73,2.97-40.69,2.95-59.8-3.4
									c-17.41-5.79-35.26-14.31-48.51-27.2c-2.51-2.45-5.88,1.84-3.39,4.27c13.58,13.2,32.02,22.1,49.88,27.98
									c22.48,7.4,47.06,6.89,70.08,2.46c9.72-1.87,19.32-4.44,28.68-7.66c2.96-1.02,5.89-2.1,8.79-3.27
									c1.19-0.48,2.68-1.47,3.95-1.68c0.04-0.01,0.08-0.05,0.12-0.05c-1.68,0.19,0.59,0.68,0.35,0.54
									c1.12,0.67,2.67,0.83,3.86,1.48c1.46,0.8,2.72,1.85,3.5,3.34c0.37,0.71,0.56,2.11,0.56,2.42c0-0.46-0.06,0.24-0.05,0.35
									c0.04,1.07,0.3,1.68,0.76,2.63c3.29,6.85-3.02,10.41-8.78,12.14c-1.1,0.33-1.39,0.38-2.61,0.64
									c-2.17,0.47-3.04,2.23-4.56,3.72c-4.53,4.44-10.52,6.76-16.84,6.69c-4.92-0.05-9.8-1.39-14.3-3.33
									c-1.55-0.67-3.08-1.41-4.55-2.23c-0.23-0.13-1.46-0.85-0.78-0.44c-0.16-0.1-0.32-0.2-0.48-0.31
									c-1.59-1.05-3.25-0.56-4.19,1.04c-3.12,5.32-7.96,8.89-14.18,9.34c-4.96,0.36-9.95-1.1-14.44-3.07
									c-2.59-1.13-4.83-2.52-6.89-3.7c-2.48-1.43-6.11,0.41-8.77,0.95c-3.46,0.7-6.95,1.24-10.46,1.53
									c-8.83,0.74-18.62,0.02-26.2-5.06c-4.86-3.26-8.22-7.78-10.2-13.04c-0.93-2.48-1.17-3.36-1.55-5.86
									c-0.14-0.87-0.26-1.76-0.28-2.64c-0.03-1.22-1.19-2.16-2.29-2.38c-7.53-1.49-14.49-5.45-15.32-13.71
									c-0.24-2.38,0.01-4.75,0.54-7.08c0.32-1.4,0.29-1.44,0.84-2.78C208.65,635.69,203.67,633.5,202.33,636.74z"></path>
							</g>
						</g>
					</g>
				</g>
			</g>
		</g>
		<g>
			<g>
				<g>
					<g>
						
							<ellipse ry="27.16" rx="17.07" cy="563.32" cx="194.62" class="st11" transform="matrix(0.1214 -0.9926 0.9926 0.1214 -388.1657 688.1251)"></ellipse>
					</g>
				</g>
			</g>
			<g>
				<g>
					<g>
						<g>
							<g>
								<path d="M187.67,554.2c0.9,3.46,1.79,6.92,2.69,10.37c0.13,0.5,0.26,0.99,0.39,1.49
									c0.22,0.85,1.17,1.51,2.23,1.4c1-0.1,1.81-0.93,1.58-1.79c-0.9-3.46-1.79-6.92-2.69-10.37c-0.13-0.5-0.26-0.99-0.39-1.49
									c-0.22-0.85-1.17-1.51-2.23-1.4C188.26,552.52,187.45,553.35,187.67,554.2L187.67,554.2z" class="st12"></path>
							</g>
						</g>
					</g>
				</g>
				<g>
					<g>
						<g>
							<g>
								<path d="M197.82,556.52c0.9,3.46,1.79,6.92,2.69,10.37c0.13,0.5,0.26,0.99,0.39,1.49
									c0.22,0.86,1.17,1.51,2.23,1.4c1-0.1,1.81-0.93,1.58-1.79c-0.9-3.46-1.79-6.92-2.69-10.37c-0.13-0.5-0.26-0.99-0.39-1.49
									c-0.22-0.86-1.17-1.51-2.23-1.4C198.4,554.83,197.59,555.66,197.82,556.52L197.82,556.52z" class="st12"></path>
							</g>
						</g>
					</g>
				</g>
			</g>
		</g>
		<g>
			<g>
				<g>
					<path d="M447.15,548.82l-1.88-1.1c0,0,0.46-0.79,1.33-2c2.9-4.03,10.83-13.29,21.81-12.18l-0.22,2.17
						c-9.84-1-17.14,7.56-19.82,11.28C447.59,548.09,447.17,548.8,447.15,548.82z" class="st18"></path>
				</g>
			</g>
			<g>
				<g>
					<path d="M460.68,551.44c-0.57-2.47-1.71-4.11-3.42-4.87c-3.95-1.77-9.8,1.38-9.86,1.41l-1.05-1.91
						c0.28-0.15,6.84-3.71,11.79-1.49c2.36,1.06,3.93,3.2,4.66,6.37L460.68,551.44z" class="st18"></path>
				</g>
			</g>
		</g>
		<g>
			<g>
				<g>
					<path d="M406.01,673.74c-7.24-4.26-14.25-9.16-19.83-15.64c-5.59-6.44-9.49-14.44-11-22.94
						c-1.55-8.51-0.79-17.33,1.41-25.62c2.21-8.32,5.69-16.21,9.81-23.68l6.33-10.94c1.99-3.66,4-7.3,5.75-11.08
						c3.63-7.49,6.81-15.19,9.4-23.08c2.59-7.89,4.83-15.89,6.47-24.02c1.61-8.13,2.71-16.36,3.28-24.62
						c0.57-8.26,0.44-16.55-0.08-24.8c-0.18-2.06-0.28-4.12-0.51-6.19l-0.75-6.19c-0.42-4.14-1.18-8.22-1.86-12.31l-0.52-3.07
						l-0.67-3.03l-1.33-6.07c-0.48-2.01-1.08-3.99-1.62-5.98c-0.56-1.99-1.06-4-1.77-5.93c-2.46-7.88-5.69-15.46-9.51-22.69
						c-7.62-14.44-18.89-26.99-33.14-34.71c-3.49-2.04-7.25-3.56-11.03-5.01c-3.83-1.3-7.74-2.4-11.73-3.15
						c-3.99-0.72-8.04-1.17-12.1-1.3c-4.01-0.13-8.23,0.03-11.97,0.63l0.45-5.31c1.12,0.48,1.85,0.9,2.69,1.4
						c0.8,0.5,1.57,1.01,2.3,1.57c1.48,1.09,2.87,2.26,4.16,3.52c2.61,2.48,4.91,5.23,6.95,8.13c4.09,5.79,7.2,12.12,9.69,18.62
						c4.83,13.05,7.5,26.75,8.08,40.54c0.31,6.89,0.1,13.79-0.59,20.62c-0.32,3.41-0.81,6.85-1.23,10.17
						c-0.39,3.35-0.63,6.72-0.74,10.09c-0.18,6.74,0.28,13.53,1.98,20.06c0.92,3.23,2.06,6.42,3.74,9.36
						c1.72,2.9,3.91,5.53,6.56,7.69c-2.76-2.01-5.13-4.54-7.04-7.4c-1.86-2.9-3.25-6.08-4.32-9.35c-2.02-6.6-2.77-13.51-2.87-20.38
						c-0.03-3.44,0.07-6.88,0.32-10.31c0.28-3.45,0.63-6.78,0.8-10.16c0.38-6.74,0.32-13.5-0.11-20.21
						c-0.9-13.41-3.86-26.7-8.81-39.08c-2.53-6.15-5.64-12.05-9.55-17.3c-1.94-2.63-4.11-5.07-6.49-7.22
						c-1.17-1.09-2.42-2.09-3.7-2.99c-0.64-0.47-1.29-0.87-1.95-1.26c-0.62-0.37-1.4-0.77-1.84-0.95l-8.79-3.71l9.24-1.6
						c4.56-0.79,8.79-0.96,13.19-0.9c4.36,0.08,8.7,0.51,13,1.23c4.3,0.75,8.52,1.87,12.68,3.23c4.1,1.51,8.19,3.12,12,5.27
						c15.54,8.25,27.72,21.87,35.84,37.08c8.25,15.24,13.17,31.93,16.04,48.73c0.68,4.21,1.44,8.41,1.85,12.65l0.74,6.35
						c0.23,2.12,0.33,4.27,0.5,6.4c0.53,8.54,0.5,17.12-0.18,25.65c-1.4,17.04-4.92,33.92-10.81,49.94
						c-5.67,16.05-13.96,31.27-22.98,45.34c-4.18,7.15-7.73,14.7-10.05,22.61c-2.34,7.88-3.47,16.2-2.31,24.36
						c1.11,8.14,4.51,15.97,9.7,22.48C392.41,663.77,398.98,669.1,406.01,673.74z" class="st29"></path>
				</g>
			</g>
		</g>
		<g>
			<g>
				<g>
					<path d="M281.47,490.29c-1.6-2.69-3.43-5.29-4.7-8.19c-0.67-1.43-1.45-2.82-2.03-4.29l-1.75-4.43
						c-2.03-6.01-3.54-12.25-4.19-18.6c-0.68-6.35-0.62-12.76-0.12-19.13c0.63-6.35,1.81-12.63,3.34-18.81
						c3.24-12.32,8.14-24.11,14.2-35.21c6.06-11.09,13.25-21.56,21.65-30.92c-3.51,5.21-6.86,10.49-9.9,15.95
						c-3.12,5.4-6.02,10.92-8.73,16.52c-2.66,5.62-5.19,11.29-7.34,17.1c-2.19,5.79-4.19,11.65-5.66,17.65
						c-1.57,5.97-2.71,12.03-3.47,18.14c-0.71,6.12-0.85,12.27-0.6,18.42c0.34,6.15,1.35,12.25,2.84,18.26
						C276.47,478.81,278.9,484.55,281.47,490.29z" class="st29"></path>
				</g>
			</g>
		</g>
		<g>
			<g>
				<g>
					<path d="M270.78,373.24c-2.49,4.7-4.78,9.42-6.88,14.2c-2.67,4.44-5.06,9.04-7.21,13.74
						c-4.27,9.41-7.5,19.3-8.98,29.45c-1.41,10.12-1.04,20.54,2.05,30.22c1.43,4.87,3.66,9.47,6.31,13.79
						c2,4.75,4.93,9.05,7.86,13.51c-4.17-3.25-8.25-6.87-11.56-11.22c-2.83-4.62-5.22-9.56-6.76-14.78
						c-3.31-10.39-3.69-21.5-2.2-32.13c1.55-10.66,4.93-20.93,9.33-30.64c2.2-4.86,4.71-9.57,7.4-14.17
						C263.39,380.95,266.84,376.85,270.78,373.24z" class="st29"></path>
				</g>
			</g>
		</g>
		<g>
			<g>
				<g>
					<path d="M294.3,344.07c-15.5,3.13-30.44,8.26-44.22,15.33c-13.71,7.13-26.22,16.53-35.59,28.54
						c-4.7,5.98-8.5,12.62-11.47,19.62c-0.7,1.77-1.52,3.5-2.12,5.31l-1.73,5.47c-0.61,1.82-0.88,3.73-1.36,5.59
						c-0.46,1.87-0.92,3.73-1.15,5.65c-2.51,15.23-2.08,31.01-0.2,46.73c-4.54-15.17-6.51-31.32-4.85-47.43
						c0.86-8.03,2.64-16.06,5.68-23.65c3.01-7.59,7.08-14.8,12.05-21.31c5.13-6.39,11.05-12.11,17.57-16.97
						c6.56-4.8,13.58-8.92,20.97-12.13C262.62,348.35,278.44,344.52,294.3,344.07z" class="st29"></path>
				</g>
			</g>
		</g>
		<g>
			<g>
				<g>
					<path d="M424.82,507.3c-0.75-0.18-0.54-0.25,0,0.04c0.22,0.12,0.46,0.22,0.69,0.33c0.87,0.39-0.33-0.32,0.47,0.28
						c0.35,0.26,0.71,0.51,1.04,0.79c0.19,0.16,0.37,0.33,0.56,0.49c0.54,0.47,0.34,0.33,0.33,0.31c0.96,1.05,1.8,2.19,2.53,3.4
						c0.54,0.9,1.57,3.17,2.14,4.8c0.8,2.29,1.33,4.59,1.72,6.99c1.21,7.38,1.08,14.94,0.42,22.37c-1.2,13.65-4.16,27.12-7.68,40.35
						c-0.9,3.39,4.49,4.19,5.38,0.84c3.37-12.67,6.21-25.56,7.51-38.63c0.81-8.18,1.11-16.57-0.1-24.72
						c-1.12-7.48-3.64-16.25-10.07-20.97c-1.24-0.91-2.61-1.7-4.12-2.05C422.24,501.12,421.43,506.51,424.82,507.3L424.82,507.3z"></path>
				</g>
			</g>
		</g>
		<g>
			<g>
				<g>
					<path d="M312.68,338.47c7.72-3.37,15.92-5.63,24.25-7.08c8.34-1.46,16.86-2.09,25.38-1.69
						c8.52,0.42,17.02,1.96,25.22,4.57c8.16,2.7,16.02,6.47,23.14,11.36c14.43,9.58,25.76,23.58,32.95,39.32
						c3.62,7.84,6.09,16.34,7.63,24.71c1.63,8.21,3.38,16.39,5.27,24.55c3.7,16.32,7.87,32.54,12.68,48.56
						c4.7,16.05,10.18,31.86,16.44,47.33c6.35,15.42,13.6,30.53,22.8,44.41c4.55,6.97,9.7,13.57,15.63,19.41
						c5.95,5.8,12.7,10.91,20.41,14.33c-7.97-2.76-15.23-7.46-21.58-13.06c-6.39-5.59-12.03-12.02-17.08-18.84
						c-10.02-13.72-18.03-28.78-24.87-44.25c-13.68-31-23.15-63.58-30.79-96.43c-1.86-8.23-3.58-16.49-5.17-24.78
						c-1.43-8.17-3.74-15.92-7-23.41c-6.46-14.95-16.93-28.15-30.22-37.67c-6.59-4.85-13.96-8.57-21.62-11.49
						c-7.71-2.82-15.82-4.63-24.06-5.42C345.59,331.17,328.64,333.27,312.68,338.47z" class="st29"></path>
				</g>
			</g>
		</g>
		<g>
			<g class="st17">
				<g>
					<g>
						<g>
							<path d="M458.12,373.09c-5.43-10.41-25.13-41.63-65.82-40.29c0,0,33.12,9.31,46.77,32.2
								c1.39,2.33,2.48,4.81,3.41,7.35c1.65,4.46,7.71,14.53,12.75,13.34c2.35-0.55,2.38-0.98,3.23-2.78
								C459.93,379.81,459.71,376.15,458.12,373.09z" class="st0"></path>
						</g>
					</g>
				</g>
			</g>
			<g class="st17">
				<g>
					<g>
						<g>
							<path d="M454.03,401.72c1.81,4.79,6.48,7.46,10.43,5.96c3.95-1.49,5.69-6.58,3.89-11.37
								c-1.81-4.79-6.48-7.46-10.43-5.96C453.96,391.85,452.22,396.94,454.03,401.72z" class="st0"></path>
						</g>
					</g>
				</g>
			</g>
		</g>
		<g>
			<g>
				<g>
					<path d="M486.08,410.97c2.44,13.27,5.28,26.36,8.55,39.3c1.71,6.45,3.4,12.89,5.4,19.24
						c1.93,6.36,3.99,12.68,6.39,18.86c2.28,6.22,4.79,12.36,7.64,18.32c2.77,6,5.84,11.86,9.25,17.52
						c3.46,5.61,7.1,11.16,11.32,16.28c4.17,5.16,8.8,9.96,13.81,14.51c-5.86-3.37-11.22-7.64-16.18-12.34
						c-4.91-4.76-9.26-10.08-13.23-15.66c-7.91-11.2-13.93-23.6-18.74-36.34c-4.74-12.78-8.23-25.96-10.64-39.3
						C487.29,438.01,485.83,424.49,486.08,410.97z" class="st29"></path>
				</g>
			</g>
		</g>
		<g>
			<g>
				<path d="M379.2,447.55c4.71,27.47,22.57,47.52,22.57,47.52c1.7,13.14-5.3,31.82-5.3,31.82
					c0.35,8.13-23.25,30.89-23.25,30.89c-47.83,75.03-14.87,97.44-14.87,97.44l-12.37,2.02c-18.22-38.32-5.39-70.6,6.53-89.17
					c5.33-8.31,12.54-15.15,20.61-20.83c17.53-12.35,25.4-39.77,25.4-39.77c-19.78-3.7-23.46-41.72-23.46-41.72L379.2,447.55z" class="st30"></path>
			</g>
		</g>
		<g>
			<g>
				<g>
					<g>
						
							<ellipse ry="30.27" rx="19.03" cy="581.68" cx="354.85" class="st11" transform="matrix(0.0795 -0.9968 0.9968 0.0795 -253.2126 889.1339)"></ellipse>
					</g>
				</g>
			</g>
			<g>
				<g>
					<g>
						<g>
							<g>
								<path d="M346.69,571.85c1.16,3.81,2.32,7.62,3.48,11.43c0.17,0.55,0.33,1.09,0.5,1.64
									c0.29,0.94,1.37,1.62,2.55,1.45c1.11-0.16,1.97-1.12,1.68-2.07c-1.16-3.81-2.32-7.62-3.48-11.43
									c-0.17-0.55-0.33-1.09-0.5-1.64c-0.29-0.94-1.37-1.62-2.55-1.45C347.26,569.94,346.4,570.9,346.69,571.85L346.69,571.85z" class="st12"></path>
							</g>
						</g>
					</g>
				</g>
				<g>
					<g>
						<g>
							<g>
								<path d="M358.09,573.95c1.16,3.81,2.32,7.62,3.48,11.43c0.17,0.55,0.33,1.09,0.5,1.64
									c0.29,0.94,1.37,1.62,2.55,1.45c1.11-0.16,1.97-1.12,1.68-2.07c-1.16-3.81-2.32-7.62-3.48-11.43
									c-0.17-0.55-0.33-1.09-0.5-1.64c-0.29-0.94-1.37-1.62-2.55-1.45C358.66,572.04,357.8,573.01,358.09,573.95L358.09,573.95z" class="st12"></path>
							</g>
						</g>
					</g>
				</g>
			</g>
		</g>
		<g class="st31">
			<g>
				<path d="M202.51,663.35c-20.07-2.18-33.65-9.69-40.38-22.32c-13.31-24.98,5.07-60.55,5.86-62.05l3.86,2.02
					c-0.18,0.35-18.09,35.05-5.86,57.98c6.01,11.27,18.46,18.01,37,20.02L202.51,663.35z" class="st0"></path>
			</g>
		</g>
		<g>
			<g>
				<path d="M169.78,580.25c0,0-37.33,70.12,30.12,80.57c0,0-6.11-14.13-0.35-22.98
					C199.55,637.84,175.56,620.16,169.78,580.25z" class="st32"></path>
			</g>
		</g>
		<g>
			<path d="M270.78,617.81c-14.55,0-26.39-11.84-26.39-26.39h7.92c0,10.19,8.29,18.47,18.47,18.47s18.47-8.29,18.47-18.47h7.92
				C297.17,605.98,285.33,617.81,270.78,617.81z"></path>
		</g>
		<g>
			<g>
				<g>
					<path d="M75.33,735.54c-11.34-6.26-18.37-11.67-19.37-10.6c-2.51,2.69-9.5,2.82-9.5,2.82
						c-17.4-2.2-11.96-14.43-11.96-14.43c9.76,3.5,15.47,2.41,18.81,0.04l-0.36-0.45c-7.39,5.48-18.55-1.38-18.55-1.38
						c-11.29-10.17-0.13-19.57-0.13-19.57c9.44,11.74,21.15,9.69,21.15,9.69c-3.93,0.3-18.07-4.15-21.95-13.4
						c-3.88-9.25,4.92-11.89,4.92-11.89c5.63,8.54,16.38,8.24,16.38,8.24c-13.39-1.4-16.71-10.34-16.71-10.34
						c-5.67-8.21,6.87-9.02,18.08-8.31l0,0c1.16-1.7,1.48-3.84,0.89-5.81c-9.34-30.86-7.4-38.77-7.05-44.53
						c0.48-7.94,3.77-15.51,9.48-21.05c12.47-12.09,21.25-1.18,24.19,5.76c1.97,4.64,1.33,9.89-1.07,14.32
						c-4.87,8.99-5.35,30.8-5.06,45.44c0.17,8.53,7.08,15.36,15.62,15.42c22.24,0.17,76.36-4.07,76.36-4.07
						c-12.26,67.59,5.52,74.22,5.52,74.22c-21.22,3.99-65.75-0.19-81.28-6.25" class="st3"></path>
				</g>
				<g>
					<path d="M77,732.69c-5.92-3.29-11.54-7.56-17.71-10.36c-1.7-0.77-3.26-1.12-4.99-0.23c-2.26,1.15-4,2.16-6.7,2.3
						c-3.54,0.19-8.87-1.28-10.29-4.94c-0.39-1-0.34-2.59-0.25-3.09c0.1-0.56,1-3.02,0.29-1.38c-1.24,0.51-2.48,1.01-3.73,1.52
						c6.72,2.32,15.01,3.98,21.35-0.29c1.9-1.28,2.06-3.46,0.67-5.18c-0.12-0.15-0.24-0.3-0.36-0.45c-0.86-1.06-2.88-1.27-4-0.52
						c-4.45,3.01-12.83,1.7-16.28-2.6c-3.55-4.41-2.56-9.6,1.6-13.17c-1.55,0-3.11,0-4.66,0c5.82,6.97,15.04,12.07,24.36,10.53
						c3.67-0.61,2.81-6.64-0.88-6.48c-5.75,0.24-12.93-3.79-16.66-7.92c-1.93-2.14-4.11-5.88-2.39-8.7c0.47-0.77,1.16-1.22,1.88-1.7
						c0.26-0.17,1.09-0.88,0.59-0.34c0.07-0.07,0.31-0.12,0.42-0.15c-1.24-0.51-2.48-1.01-3.73-1.52
						c4.31,6.17,11.63,10.02,19.23,9.88c4.36-0.08,4.11-6.1,0-6.6c-4.74-0.58-9.68-2.47-12.58-6.45c-0.32-0.43-1.7-2.83-0.94-1.45
						c-0.31-0.55-1.31-1.9-1.27-2.55c0.02-0.39-0.3,0.13,0.43-0.42c1.76-1.3,5.08-1.24,7.15-1.33c1.57-0.07,3.14-0.07,4.71-0.03
						c1.66,0.04,4.03,0.6,5.53-0.28c2.35-1.37,2.96-5.24,2.74-7.66c-0.33-3.69-2.02-7.52-2.99-11.1
						c-4.19-15.55-9.41-37.53,2.46-51.26c3.81-4.4,9.72-8.71,15.22-4.53c4.1,3.12,6.9,8.8,6.12,13.92c-0.44,2.88-2,5.27-3.02,7.94
						c-1.04,2.71-1.68,5.56-2.18,8.41c-1.15,6.52-1.62,13.17-1.84,19.78c-0.21,6.23-0.91,13.18,0.31,19.33
						c1.15,5.77,5.15,10.79,10.44,13.3c4.65,2.21,9.67,1.91,14.68,1.81c5.04-0.1,10.07-0.3,15.1-0.53
						c18.23-0.84,36.45-2.06,54.65-3.49c-1.06-1.39-2.12-2.78-3.18-4.18c-3.31,18.42-6.12,37.8-3.44,56.5
						c0.96,6.7,2.78,14.48,7.78,19.44c1.02,1.01,2.14,1.83,3.48,2.34c0-2.12,0-4.24,0-6.36c-13.65,2.49-28.15,1.67-41.9,0.53
						c-12.48-1.04-25.84-2.27-37.63-6.78c-3.97-1.52-5.69,4.86-1.75,6.36c12.31,4.71,26.36,5.94,39.39,7.02
						c14.4,1.19,29.37,1.84,43.65-0.76c3.52-0.64,2.71-5.33,0-6.36c0.74,0.28,0.93,0.23,0.3,0.08c-0.15-0.04-0.36-0.23-0.48-0.32
						c0.47,0.37,0.35,0.37-0.13-0.15c-0.23-0.26-0.49-0.5-0.73-0.75c-0.14-0.14-0.26-0.31-0.39-0.46c-0.44-0.52,0.39,0.57-0.13-0.18
						c-0.68-0.98-1.26-2-1.79-3.07c-1.32-2.66-2.45-7.14-3.05-10.77c-1.04-6.27-1.12-12.73-0.92-19.06
						c0.37-11.92,2.02-23.75,4.12-35.47c0.35-1.93-0.87-4.36-3.18-4.18c-12.49,0.98-24.99,1.83-37.49,2.57
						c-9.37,0.56-18.75,1.06-28.14,1.34c-8.51,0.25-19.61,1.53-22.57-8.89c-1.41-4.98-0.58-11.21-0.46-16.34
						c0.14-5.96,0.43-11.96,1.26-17.87c0.67-4.78,1.76-9.25,3.83-13.6c2.61-5.52,2.92-11.63,0.35-17.22
						c-3.47-7.56-11.02-14.25-19.85-11.72c-11.7,3.35-18.6,16.91-19.66,28.17c-0.47,5.01-0.63,9.96-0.07,14.97
						c0.53,4.72,1.4,9.39,2.46,14.02c0.75,3.3,1.6,6.58,2.5,9.84c0.81,2.92,3.55,8.1,1.65,10.88c0.95-0.54,1.9-1.09,2.85-1.63
						c-7.53-0.44-28.35-0.61-21.37,12.59c4,7.55,11.29,11.59,20,12.66c0-2.2,0-4.4,0-6.6c-5.17,0.1-10.56-2.36-13.53-6.61
						c-0.82-1.17-2.26-1.98-3.73-1.52c-8.35,2.62-10.21,11.76-5.82,18.78c2.73,4.37,7.15,7.59,11.77,9.75
						c3.6,1.69,7.9,3.41,11.97,3.24c-0.29-2.16-0.58-4.32-0.88-6.48c1.04-0.17-0.45,0.01-1.1,0.02c-1.41,0.01-2.8-0.14-4.18-0.46
						c-5.19-1.21-9.29-4.36-12.66-8.4c-1.2-1.44-3.41-1.08-4.66,0c-6.5,5.58-7.69,14.9-2.3,21.64c5.46,6.84,17.61,9.47,24.98,4.49
						c-1.33-0.17-2.66-0.34-4-0.52c0.12,0.15,0.24,0.3,0.36,0.45c0.22-1.73,0.45-3.45,0.67-5.18c-4.84,3.26-11.21,1.37-16.26-0.37
						c-1.23-0.43-3.18,0.25-3.73,1.52c-3.61,8.33,1.32,16.01,9.71,18.43c2.55,0.74,4.99,1.07,7.61,0.76
						c1.57-0.18,3.14-0.43,4.65-0.92c0.58-0.19,4.14-1.33,4.23-2.24c-2.07,0.05-2.7,0.17-1.9,0.36c0.15,0.04,0.31,0.09,0.45,0.15
						c0.04,0.04,0.64,0.35,0.85,0.46c1.46,0.76,2.85,1.66,4.25,2.52c4.02,2.46,8.05,4.91,12.18,7.2
						C77.38,740.45,80.71,734.75,77,732.69L77,732.69z"></path>
				</g>
			</g>
			<g>
				<g>
					<path d="M60.34,677.79c0,0,13.64,28.19,0,44.1" class="st3"></path>
				</g>
				<g>
					<path d="M57.49,679.45c0.19,0.39,0.36,0.78,0.53,1.18c0.07,0.15,0.34,0.83,0.01,0.01c0.1,0.24,0.2,0.48,0.29,0.72
						c0.25,0.63,0.49,1.25,0.73,1.88c1.29,3.5,2.34,7.1,3.08,10.75c1.71,8.51,1.74,18.54-4.12,25.56c-2.7,3.24,1.94,7.93,4.66,4.66
						c11.12-13.3,7.49-33.6,0.52-48.09C61.34,672.3,55.65,675.64,57.49,679.45L57.49,679.45z"></path>
				</g>
			</g>
		</g>
	</g>
	<g>
		<g>
			<g>
				<path d="M755.16,741.07c0,0-136.48,44.2-184.22-7.89c0,0,1.02,28.36-103.07,29.43c0,0-31.37,78.06,8.63,123.66
					c0,0,37.53,2.64,49.47-3.45L510.7,1030.2h163.66h183.59C857.95,1030.2,857.95,772.17,755.16,741.07" class="st6"></path>
			</g>
			<g>
				<g>
					<path d="M513.87,1030.2c1.72-16.63,3.45-33.26,5.17-49.9c2.74-26.4,5.47-52.8,8.21-79.2c0.63-6.1,1.26-12.19,1.9-18.29
						c0.27-2.58-2.83-3.68-4.76-2.73c-3.65,1.79-8.04,2.34-12.03,2.78c-5.41,0.59-10.86,0.78-16.3,0.81
						c-6.51,0.04-13.05-0.11-19.54-0.56c0.75,0.31,1.49,0.62,2.24,0.93c-26.07-30.07-22.06-75.31-11.16-110.83
						c1.01-3.28,2.06-6.57,3.34-9.75c-1.02,0.77-2.03,1.55-3.05,2.32c16.91-0.19,33.84-1.05,50.59-3.45
						c10.45-1.5,20.95-3.58,30.88-7.26c8.62-3.19,19.16-8.04,23.39-16.86c0.72-1.5,1.42-3.32,1.37-5.03c-1.8,0.75-3.6,1.49-5.4,2.24
						c20.96,22.63,55.08,26.75,84.27,26.28c28.75-0.46,57.51-5.45,85.32-12.59c5.93-1.52,11.87-3.11,17.7-4.99
						c3.86-1.25,2.21-7.35-1.68-6.1l0,0c-15.67,5.07-31.91,8.71-48.09,11.68c-29.82,5.47-61.74,8.81-91.69,2.48
						c-15.41-3.26-30.48-9.5-41.36-21.24c-1.85-1.99-5.48-0.47-5.4,2.24c0.03,0.9,0.06-0.11,0.03-0.02
						c-0.18,0.68-0.35,1.34-0.59,2.01c0.45-1.22-0.2,0.38-0.4,0.74c-0.31,0.55-0.65,1.06-1.01,1.58c-0.58,0.84,0.26-0.27-0.27,0.36
						c-0.25,0.3-0.51,0.6-0.78,0.89c-0.66,0.72-1.36,1.39-2.09,2.03c-1.34,1.18-3.11,2.41-5.23,3.66c-2.57,1.5-5.28,2.79-8.05,3.89
						c-8.98,3.55-18.52,5.66-28.02,7.21c-17.65,2.89-35.63,3.72-53.49,3.92c-1.52,0.02-2.52,1-3.05,2.32
						c-7.12,17.78-10.86,37.69-11.68,56.74c-0.68,15.97,1.1,32.4,7.19,47.28c3.18,7.76,7.42,14.95,12.8,21.39
						c1.43,1.71,2.59,2.2,4.64,2.32c1.97,0.12,3.94,0.21,5.91,0.28c7.64,0.29,15.3,0.34,22.94-0.13c6.99-0.43,14.56-0.98,20.94-4.11
						c-1.59-0.91-3.17-1.82-4.76-2.73c-1.72,16.63-3.45,33.26-5.17,49.9c-2.74,26.4-5.47,52.8-8.21,79.2
						c-0.63,6.1-1.26,12.19-1.9,18.29"></path>
				</g>
				<g>
					<path d="M861.11,1030.2c0-8.8-0.37-17.61-0.79-26.4c-1.03-21.3-2.82-42.57-5.45-63.73c-3.34-26.95-7.95-53.79-14.85-80.07
						c-6.66-25.39-15.4-50.75-28.83-73.42c-11.32-19.1-26.75-36.91-47.58-45.77c-2.49-1.06-5.03-2-7.62-2.79
						c-3.9-1.19-5.57,4.91-1.68,6.1c20.75,6.36,36.51,22.36,48.03,40.18c13.85,21.45,22.78,45.83,29.65,70.3
						c7.21,25.68,12.1,52,15.64,78.42c2.91,21.73,4.89,43.59,6.09,65.48c0.39,7.09,0.69,14.19,0.88,21.28
						c0.09,3.16-0.39,6.85,0.18,9.97c0.03,0.14,0,0.31,0,0.45"></path>
				</g>
			</g>
		</g>
		<g>
			<g>
				<path d="M315.14,862.91c-17.82-9.84-28.86-18.34-30.44-16.65c-3.94,4.23-14.93,4.43-14.93,4.43
					c-27.34-3.45-18.8-22.68-18.8-22.68c15.34,5.49,24.31,3.79,29.55,0.06l-0.57-0.7c-11.62,8.61-29.15-2.17-29.15-2.17
					c-17.74-15.98-0.2-30.75-0.2-30.75c14.83,18.44,33.24,15.22,33.24,15.22c-6.18,0.47-28.4-6.53-34.49-21.06
					s7.73-18.68,7.73-18.68c8.84,13.42,25.74,12.95,25.74,12.95c-21.04-2.2-26.25-16.24-26.25-16.24
					c-8.91-12.9,10.8-14.17,28.4-13.06l0,0c1.82-2.67,2.33-6.03,1.4-9.12c-14.68-48.5-11.63-60.92-11.08-69.96
					c0.75-12.47,5.93-24.38,14.9-33.07c19.6-19,33.38-1.85,38,9.05c3.09,7.3,2.1,15.53-1.68,22.5c-7.65,14.12-8.4,48.4-7.95,71.39
					c0.27,13.41,11.13,24.13,24.54,24.24c34.94,0.27,119.98-6.4,119.98-6.4c-19.26,106.2,8.67,116.62,8.67,116.62
					c-33.34,6.28-103.3-0.29-127.72-9.83" class="st3"></path>
			</g>
			<g>
				<path d="M316.8,860.06c-8.17-4.53-15.99-9.62-24.07-14.29c-1.88-1.09-3.95-2.39-6.1-2.86c-2.89-0.64-4.05,1.36-6.4,2.46
					c-8.5,3.98-25.77,2.02-27.18-9.42c-0.2-1.63-0.03-3.1,0.31-4.57c0.14-0.6,1.14-3.27,0.45-1.71c-1.24,0.51-2.48,1.01-3.73,1.52
					c9.98,3.49,22.67,6.21,32.09-0.27c1.88-1.29,2.07-3.45,0.67-5.18c-0.19-0.23-0.38-0.47-0.57-0.7c-0.85-1.05-2.9-1.28-4-0.52
					c-5.51,3.85-12.08,3.27-18.2,1.26c-3.95-1.3-7.24-2.75-9.92-5.95c-6.22-7.43-4.32-17.01,2.77-23.05c-1.55,0-3.11,0-4.66,0
					c8.56,10.39,22.54,18.41,36.45,16.07c3.66-0.62,2.82-6.68-0.88-6.48c-4.21,0.23-8.77-1.49-12.59-3.07
					c-5.73-2.37-11.33-5.76-15.42-10.48c-3.42-3.95-6.75-10.76-3.38-15.67c0.91-1.33,2.17-2.34,3.56-3.13
					c1.28-0.73,0.85-0.56,1.93-0.9c-1.24-0.51-2.48-1.01-3.73-1.52c6.27,9.16,17.42,14.84,28.59,14.59c4.35-0.1,4.12-6.12,0-6.6
					c-7.88-0.91-15.94-4.02-20.95-10.45c-0.92-1.18-1.65-2.47-2.31-3.8c0.8,1.62-1.04-1.76-1.2-2.07c-0.5-1.01-1.05-2.17-0.41-3.21
					c1.47-2.38,6.6-2.77,8.99-3.06c4.99-0.59,10.07-0.51,15.08-0.28c2.28,0.11,4.26,0.52,5.8-1.47c1.68-2.18,2.4-5.47,2.28-8.17
					c-0.13-2.89-1.2-5.64-2.01-8.38c-0.93-3.18-1.83-6.37-2.7-9.57c-3.81-14.11-7.46-28.79-7.45-43.5
					c0.01-13.44,2.2-27.23,10.95-37.95c5.68-6.96,15.2-14.78,24.54-9.93c6.49,3.37,11.75,11.27,12.99,18.41
					c1.07,6.18-1.07,11.37-3.61,16.83c-1.68,3.62-2.81,7.47-3.68,11.35c-2.2,9.84-3.04,20-3.54,30.05
					c-0.51,10.34-1.04,21.01-0.28,31.34c0.7,9.4,6.03,18.07,14.34,22.66c7.2,3.98,15.08,3.6,23.02,3.45
					c7.97-0.15,15.93-0.46,23.9-0.82c28.3-1.29,56.58-3.21,84.83-5.38c0.55-0.04,1.11-0.09,1.66-0.13
					c-1.06-1.39-2.12-2.78-3.18-4.18c-5.14,28.55-9.51,58.65-5.42,87.63c1.44,10.22,4.12,22.32,11.79,29.88
					c1.34,1.32,2.84,2.5,4.61,3.17c0-2.12,0-4.24,0-6.36c-16.41,3.03-33.56,2.7-50.16,1.94c-18.17-0.83-36.4-2.63-54.27-6.07
					c-7.27-1.4-14.61-3.03-21.54-5.7c-3.96-1.53-5.68,4.85-1.75,6.36c14.24,5.49,30.04,7.48,45.1,9.3
					c19.01,2.3,38.26,3.51,57.41,3.02c9.02-0.23,18.08-0.85,26.97-2.49c3.52-0.65,2.73-5.33,0-6.36c1.47,0.56,0.42,0.23,0.03-0.07
					c-0.26-0.2-0.56-0.38-0.83-0.56c0.76,0.52,0.01,0.02-0.49-0.46c-0.39-0.38-0.78-0.76-1.15-1.17c-0.23-0.26-0.45-0.52-0.67-0.79
					c-0.4-0.47,0.24,0.39-0.42-0.56c-1.07-1.54-2.02-3.14-2.84-4.83c-2.35-4.83-4.03-11.46-5.02-17.43
					c-1.65-10.04-1.83-20.34-1.51-30.49c0.59-18.88,3.19-37.65,6.54-56.22c0.35-1.93-0.87-4.36-3.18-4.18
					c-19.25,1.51-38.52,2.82-57.79,3.97c-14.77,0.89-29.54,1.69-44.33,2.15c-5.85,0.18-11.73,0.38-17.58,0.28
					c-8.21-0.14-15.67-4.58-19.35-12.01c-3.61-7.3-2.33-16.91-2.23-24.81c0.11-9.19,0.47-18.4,1.41-27.55
					c0.8-7.8,1.9-15.9,4.76-23.26c1.46-3.77,3.59-7.14,4.53-11.13c1.14-4.85,1.14-10.06-0.35-14.84
					c-3.81-12.2-15.29-24.45-29.08-21.64c-9.16,1.87-16.79,9.56-21.88,16.99c-5.45,7.96-8.43,17.33-9.15,26.91
					c-0.49,6.41-0.88,12.73-0.35,19.16c1.23,14.87,4.97,29.52,9.04,43.82c1.33,4.66,4.48,10.46,1.41,14.97
					c0.95-0.54,1.9-1.09,2.85-1.63c-8.66-0.52-18.65-1.23-26.9,2.06c-2.98,1.19-5.83,3.2-6.72,6.45c-0.92,3.31,0.62,6.16,2.04,8.74
					c1.86,3.39,3.57,6.43,6.5,9.13c6.33,5.85,14.5,8.54,22.93,9.52c0-2.2,0-4.4,0-6.6c-8.76,0.2-17.94-4.08-22.89-11.32
					c-0.81-1.19-2.27-1.97-3.73-1.52c-3.75,1.16-7.32,3.75-9.44,7.06c-4.07,6.38-2.06,14.65,1.97,20.53
					c4.35,6.35,10.96,10.95,17.9,14.09c5.16,2.34,11.4,4.84,17.2,4.53c-0.29-2.16-0.58-4.32-0.88-6.48
					c-0.14,0.02,0.91-0.06-0.05-0.01c-0.73,0.04-1.45,0.1-2.18,0.1c-2.39,0.02-4.75-0.25-7.07-0.79
					c-8.43-1.96-15.29-7.07-20.73-13.68c-1.19-1.45-3.42-1.06-4.66,0c-9.53,8.12-11.38,21.66-3.47,31.53
					c7.96,9.94,26.13,14.04,36.82,6.57c-1.33-0.17-2.66-0.34-4-0.52c0.19,0.23,0.38,0.47,0.57,0.7c0.22-1.73,0.45-3.45,0.67-5.18
					c-7.95,5.46-18.68,2.52-27.01-0.39c-1.23-0.43-3.18,0.26-3.73,1.52c-3.18,7.27-1.89,16.1,4.38,21.31
					c4.96,4.13,12.73,6.74,19.17,6.22c3.68-0.3,7.42-0.88,10.83-2.34c1.15-0.49,3.74-1.49,4.3-2.72c0.27-0.59-1.78,0.36-1.65,0.52
					c0.17,0.2,0.89,0.33,1.11,0.42c3.59,1.61,6.93,3.97,10.27,6.03c5.59,3.43,11.21,6.8,16.95,9.98
					C317.19,867.82,320.52,862.12,316.8,860.06L316.8,860.06z"></path>
			</g>
		</g>
		<g>
			<g>
				<path d="M928.03,615.28c-6.64,19.47-9.41,42.16-82.16,42.16l9.41-77.67c0,0,45.43-31.49,67.41-2.71
					C930.98,587.9,932.43,602.37,928.03,615.28z" class="st2"></path>
			</g>
			<g>
				<path d="M462.15,581.14c0,0,45.54,41.94,49.66,66.74l-4.59-59.05c0,0-3.7-41.45,3.14-50.91
					C517.2,528.46,456.95,536.92,462.15,581.14z" class="st2"></path>
			</g>
			<g>
				<g>
					<path d="M570.35,453.37c-39.86,27.88-62.69,73.96-62.47,122.61c0.04,8.22,1.52,15.62,0.39,20.97
						c-3.74,17.73-39.65,126.69,88.3,172.96c0,0,147.63,71.31,251.68-104.21c0,0,0.23-0.5,0.64-1.43
						c30.95-69.48,16.5-151.57-37.97-204.66c-40.38-39.36-101.08-67.54-186.53-34.19C624.39,425.41,598.62,433.6,570.35,453.37z" class="st3"></path>
				</g>
				<g>
					<path d="M568.68,450.52c-21.49,15.14-38.82,35.7-49.82,59.61c-5.4,11.73-9.37,24.09-11.69,36.8c-1.2,6.57-2,13.22-2.36,19.89
						c-0.41,7.51,0.14,14.87,0.5,22.36c0.41,8.49-2.77,16.88-4.37,25.16c-2.26,11.73-3.56,23.69-3.4,35.64
						c0.45,32.6,12.56,63.63,36.18,86.44c19.81,19.14,45.13,30.96,70.77,40.2c20.01,7.21,41.53,10.77,62.78,10.89
						c33.98,0.2,67.45-9.2,96.48-26.83c19.29-11.72,36.48-26.73,51.44-43.59c8.83-9.95,16.93-20.54,24.39-31.55
						c4.01-5.92,8.34-11.99,11.6-18.36c2.91-5.69,5.09-11.95,7.14-18c16.5-48.66,12.14-103.36-12.32-148.6
						c-21.84-40.4-60.27-73.74-104.57-86.89c-45.58-13.53-93.94-3.5-136.27,15.95C592.41,435.51,580.2,442.51,568.68,450.52
						c-3.46,2.41-0.17,8.13,3.33,5.7c16.47-11.45,34.32-20.9,53.23-27.61c13.87-4.93,27.62-9.49,42.15-12.05
						c12.81-2.26,25.88-3.11,38.87-2.35c44.88,2.63,85.7,26.6,114.31,60.62c32.27,38.38,46.45,90.32,39.26,139.85
						c-1.83,12.62-4.99,25.04-9.37,37.02c-2.15,5.87-4.49,11.48-7.75,16.81c-3.69,6.03-7.55,11.96-11.6,17.75
						c-13.91,19.9-30.18,38.28-49.09,53.57c-27.46,22.19-60.77,36.85-96.03,40.26c-23.49,2.28-47.39-0.03-70.04-6.66
						c-3.45-1.01-6.87-2.12-10.25-3.35c-1.22-0.44-2.43-0.9-3.64-1.38c-0.48-0.19-0.96-0.39-1.44-0.58
						c-1.12-0.45,0.54,0.25-0.5-0.21c-1.87-0.82-3.72-1.55-5.64-2.27c-11.34-4.27-22.35-9.49-32.68-15.85
						c-16.03-9.88-30.32-22.77-40.42-38.76c-8.16-12.92-13.34-27.41-15.73-42.48c-3.43-21.68-0.77-43.57,4.37-64.71
						c1.02-4.18,2.03-8.16,1.97-12.54c-0.11-7.34-0.98-14.58-0.7-21.94c0.25-6.43,0.89-12.84,1.98-19.19
						c4.32-25.09,15.02-49.1,31.35-68.68c7.99-9.58,17.2-18.09,27.39-25.27C575.46,453.79,572.16,448.07,568.68,450.52z"></path>
				</g>
			</g>
			<g>
				<g>
					<g>
						
							<ellipse ry="37.93" rx="32.42" cy="585.82" cx="728.06" class="st0" transform="matrix(0.0802 -0.9968 0.9968 0.0802 85.7221 1264.5393)"></ellipse>
					</g>
				</g>
				<g>
					<g>
						<path d="M696.62,584.25c-0.55,14.21,12.29,26.39,28.68,27.21c16.39,0.82,30.12-10.04,30.66-24.25
							c0.55-14.21-12.29-26.39-28.68-27.21S697.16,570.04,696.62,584.25z" class="st7"></path>
					</g>
				</g>
				<g>
					<g>
						<path d="M680.92,576.21c2.65-4.27,6.1-8.05,9.89-11.49c3.84-3.39,8.13-6.37,12.85-8.67
							c4.7-2.34,9.85-3.91,15.16-4.69c5.32-0.72,10.78-0.56,16.08,0.41c10.61,2.02,20.29,7.1,28.46,13.51
							c2.06,1.59,4.05,3.26,5.95,5.02c1.91,1.79,3.68,3.52,5.6,5.13c1.9,1.61,4.03,3,6.21,4.31c1.09,0.65,2.22,1.24,3.38,1.75
							c1.15,0.48,2.39,1.01,3.67,0.8c-1.25,0.41-2.62,0.06-3.87-0.25c-1.27-0.35-2.49-0.83-3.69-1.34c-2.4-1.03-4.7-2.28-6.92-3.7
							c-2.22-1.4-4.23-3.12-6.22-4.63c-2.03-1.52-4.05-3.02-6.15-4.41c-8.34-5.59-17.49-10.1-27.21-11.86
							c-9.68-1.88-19.78-0.69-28.89,3.1c-4.55,1.89-8.9,4.33-12.96,7.22C688.19,569.28,684.38,572.55,680.92,576.21z" class="st7"></path>
					</g>
				</g>
				<g>
					<g>
						<path d="M765.5,596.63c-1.64,3.9-4.15,7.45-7.1,10.62c-2.95,3.18-6.49,5.88-10.4,8.03l-1.47,0.8
							c-0.5,0.24-1.03,0.45-1.54,0.67c-1.04,0.42-2.05,0.92-3.12,1.28c-2.14,0.69-4.31,1.35-6.56,1.67
							c-2.22,0.49-4.49,0.6-6.75,0.72c-1.13,0.11-2.26-0.03-3.39-0.07l-3.39-0.19l0.22,0.01c-1.84-0.07-3.34-0.33-4.94-0.68
							c-1.57-0.36-3.12-0.76-4.62-1.28c-3.03-0.98-5.89-2.36-8.63-3.86c-1.34-0.82-2.68-1.61-3.93-2.54
							c-0.63-0.45-1.27-0.89-1.89-1.36l-1.78-1.48c-1.21-0.95-2.27-2.08-3.37-3.13c-1.07-1.09-2.04-2.27-3.03-3.41l3.73,2.63
							c1.3,0.79,2.49,1.7,3.81,2.43c2.56,1.57,5.22,2.91,7.92,4.13c2.7,1.21,5.51,2.13,8.32,2.92c1.4,0.4,2.83,0.68,4.25,0.93
							c1.39,0.21,2.92,0.4,4.13,0.44l0.22,0.01c4.13,0.2,8.27,0.26,12.31-0.46c4.05-0.6,7.98-1.8,11.69-3.52
							c3.74-1.66,7.26-3.84,10.49-6.44C759.9,602.9,762.86,599.94,765.5,596.63z" class="st7"></path>
					</g>
				</g>
				<g>
					<g>
						<path d="M782.9,555.87c-2.95,1.61-6.19,2.66-9.48,3.41c-3.3,0.77-6.7,1.13-10.1,1.24
							c-1.7,0.05-3.41-0.05-5.12-0.12c-1.7-0.23-3.41-0.31-5.08-0.71c-3.36-0.58-6.63-1.72-9.67-3.19c3.4,0.3,6.65,0.77,9.95,0.91
							c3.28,0.2,6.54,0.29,9.8,0.17c3.26-0.04,6.53-0.26,9.8-0.55C776.27,556.71,779.55,556.32,782.9,555.87z" class="st7"></path>
					</g>
				</g>
				<g>
					<g>
						<path d="M791.15,564.02c-2.64,1.42-5.55,2.29-8.49,2.89c-2.95,0.6-5.98,0.9-9.01,0.87
							c-3.03,0-6.07-0.32-9.03-0.99c-2.97-0.6-5.85-1.66-8.52-3.04c3.03,0.21,5.92,0.61,8.84,0.77c2.9,0.23,5.79,0.3,8.68,0.32
							C779.42,564.91,785.17,564.51,791.15,564.02z" class="st7"></path>
					</g>
				</g>
				<g>
					<g>
						
							<ellipse ry="7.62" rx="7.35" cy="581.96" cx="737.1" class="st0" transform="matrix(0.1996 -0.9799 0.9799 0.1996 19.7195 1188.0537)"></ellipse>
					</g>
				</g>
				<g>
					<g>
						<path d="M721.29,596.64c-0.08,2.03,3.26,3.85,7.47,4.06c4.2,0.21,7.67-1.27,7.75-3.3
							c0.08-2.03-3.26-3.85-7.47-4.06C724.84,593.13,721.37,594.61,721.29,596.64z" class="st0"></path>
					</g>
				</g>
				<g>
					<g>
						<path d="M681.69,556.2c5.06-4.85,11.26-8.57,17.91-11.19c6.67-2.61,13.85-3.98,21.08-4.26
							c7.22-0.09,14.47,0.56,21.49,2.31c3.5,0.89,6.94,2.01,10.26,3.4c3.3,1.43,6.5,3.08,9.48,5.05c-6.29-3.4-13.05-5.86-20-7.36
							c-6.95-1.49-14.09-2.14-21.16-1.94c-7.08,0.16-14.09,1.5-20.71,3.84c-3.32,1.16-6.53,2.61-9.59,4.31
							C687.36,552.06,684.41,553.99,681.69,556.2z" class="st7"></path>
					</g>
				</g>
			</g>
			<g>
				<g>
					<g>
						
							<ellipse ry="31.07" rx="28.72" cy="574.84" cx="562.18" class="st0" transform="matrix(0.0661 -0.9978 0.9978 0.0661 -48.5817 1097.7626)"></ellipse>
					</g>
				</g>
				<g>
					<g>
						
							<ellipse ry="24.33" rx="22.81" cy="574.88" cx="562.78" class="st7" transform="matrix(0.0661 -0.9978 0.9978 0.0661 -48.0545 1098.4065)"></ellipse>
					</g>
				</g>
				<g>
					<g>
						<path d="M600.56,570.94c-2.49-3.56-5.29-6.81-8.35-9.74c-3.04-2.94-6.36-5.52-9.89-7.63
							c-7.07-4.23-15.18-6.27-23.23-5.56c-8.07,0.59-15.92,3.67-23.21,7.77c-1.83,1.02-3.62,2.15-5.4,3.28
							c-1.76,1.13-3.54,2.44-5.48,3.46c-1.94,1.03-3.92,1.91-5.96,2.58c-1.02,0.33-2.06,0.64-3.12,0.82
							c-1.04,0.15-2.19,0.33-3.17-0.16c1.02,0.31,2.07-0.04,3.06-0.35c0.99-0.34,1.96-0.75,2.91-1.21c1.89-0.94,3.74-1.95,5.44-3.18
							c1.71-1.23,3.3-2.58,5.02-3.97c1.7-1.36,3.47-2.64,5.29-3.83c7.23-4.84,15.56-8.36,24.38-9.1c4.39-0.33,8.86,0.06,13.12,1.22
							c4.25,1.21,8.3,3.1,11.92,5.62c3.64,2.49,6.86,5.53,9.68,8.89C596.32,563.25,598.79,566.92,600.56,570.94z" class="st7"></path>
					</g>
				</g>
				<g>
					<g>
						<path d="M529.89,580.62c1.85,3.18,4,6.07,6.4,8.67c2.39,2.6,5.06,4.87,7.96,6.7c2.86,1.88,5.95,3.32,9.19,4.25
							c3.22,1.03,6.59,1.38,9.97,1.61l0.18,0.01c0.99,0.09,2.25,0.07,3.4,0.02c1.18-0.07,2.37-0.18,3.55-0.4
							c2.36-0.42,4.72-0.95,7.03-1.75c2.3-0.8,4.59-1.73,6.81-2.86c1.14-0.51,2.19-1.2,3.32-1.76l3.27-1.95
							c-0.91,0.9-1.8,1.85-2.78,2.7c-0.99,0.82-1.95,1.71-3.03,2.43l-1.58,1.13c-0.54,0.35-1.1,0.67-1.66,1.01
							c-1.1,0.7-2.27,1.26-3.43,1.85c-2.37,1.06-4.82,2-7.37,2.56c-1.27,0.31-2.57,0.51-3.87,0.67c-1.34,0.15-2.58,0.23-4.08,0.11
							l0.18,0.01l-2.77-0.17c-0.92-0.08-1.85-0.06-2.77-0.27c-1.83-0.33-3.67-0.65-5.43-1.3c-1.8-0.5-3.51-1.3-5.19-2.12
							c-0.84-0.42-1.61-0.96-2.42-1.43c-0.4-0.25-0.8-0.48-1.19-0.74l-1.12-0.85c-2.98-2.27-5.63-4.99-7.74-8.09
							C532.59,587.59,530.87,584.22,529.89,580.62z" class="st7"></path>
					</g>
				</g>
				<g>
					<g>
						<path d="M519.4,543.03c2.69,0.72,5.32,1.39,7.95,1.98c2.64,0.58,5.27,1.09,7.93,1.45
							c2.65,0.42,5.31,0.66,7.99,0.81c2.69,0.2,5.38,0.1,8.18,0.18c-2.61,1-5.37,1.68-8.16,1.86c-1.4,0.19-2.79,0.09-4.2,0.13
							c-1.39-0.1-2.79-0.18-4.18-0.39c-2.76-0.43-5.5-1.08-8.11-2.08C524.2,545.98,521.65,544.74,519.4,543.03z" class="st7"></path>
					</g>
				</g>
				<g>
					<g>
						<path d="M511.95,549.4c4.83,1.02,9.47,1.93,14.19,2.44c2.35,0.27,4.71,0.49,7.1,0.57
							c2.39,0.15,4.78,0.08,7.26,0.19c-2.3,0.96-4.74,1.61-7.21,1.84c-2.47,0.3-4.97,0.28-7.44-0.01c-2.47-0.27-4.91-0.83-7.25-1.65
							C516.25,551.96,513.97,550.91,511.95,549.4z" class="st7"></path>
					</g>
				</g>
				<g>
					<g>
						<path d="M572.1,570.68c-0.24,3.59-3.22,6.32-6.66,6.09s-6.03-3.32-5.79-6.91c0.24-3.59,3.22-6.32,6.66-6.09
							S572.33,567.09,572.1,570.68z" class="st0"></path>
					</g>
				</g>
				<g>
					<g>
						<path d="M574.63,585.3c-0.12,1.8-3,3.07-6.44,2.84c-3.44-0.23-6.13-1.87-6.01-3.66c0.12-1.8,3-3.07,6.44-2.84
							C572.06,581.87,574.75,583.51,574.63,585.3z" class="st0"></path>
					</g>
				</g>
				<g>
					<g>
						<path d="M601.74,553.25c-2.01-2.22-4.24-4.2-6.6-5.98c-2.34-1.8-4.82-3.39-7.42-4.74
							c-5.18-2.71-10.77-4.58-16.51-5.42c-5.74-0.88-11.61-1-17.4-0.37c-5.79,0.63-11.51,2.14-16.94,4.51
							c2.6-1.44,5.36-2.58,8.17-3.52c2.83-0.9,5.73-1.55,8.66-1.99c5.87-0.85,11.83-0.71,17.7,0.08c5.85,0.96,11.58,2.86,16.77,5.82
							C593.34,544.6,598.05,548.49,601.74,553.25z" class="st7"></path>
					</g>
				</g>
			</g>
			<g>
				<g>
					<g>
						<g>
							<path d="M612.94,662.55l59.75,2.31c0,0,18.71-1.03,12.69,25.01c-3.19,13.81-11.89,24.33-21.35,31.26
								c-12.71,9.3-29.2,10.56-42.77,2.82c-11.26-6.42-23.44-18.52-24.05-40.94c-0.03-0.94-0.06-1.88-0.11-2.82
								C596.87,676.22,597.15,661.94,612.94,662.55z" class="st8"></path>
						</g>
					</g>
					<g>
						<g>
							<path d="M676.5,708.27c-35.09-36.73-73.25-2.83-73.25-2.83l-0.31,0.27c0,0,11.9,23.91,37.1,23.32
								c0,0,19.03,1.32,33.92-17.04l2.76-3.45L676.5,708.27z" class="st9"></path>
						</g>
					</g>
					<g>
						<g>
							<path d="M624.72,663l35.49,1.37c0,0,6.62,15.13-18.35,15.09C641.85,679.46,618.96,679.31,624.72,663z" class="st0"></path>
						</g>
					</g>
				</g>
				<g>
					<g>
						<path d="M633.97,727.16c-1.24-0.84-1.8-2.91-1.91-4.88l0,0c-0.22-3.75,1.9-6.93,4.72-7.09l12.26-0.71
							c2.82-0.16,5.29,2.75,5.5,6.5l0,0c0.13,2.21-0.45,4.11-1.6,5.41c-0.09,0.1-0.19,0.17-0.3,0.23c-0.65,0.32-3.16,1.48-5.25,1.66
							C647.4,728.29,638.87,730.5,633.97,727.16z" class="st0"></path>
					</g>
				</g>
			</g>
			<g>
				<g>
					<path d="M655.81,625.87c-0.31,6.64-6.05,8.93-12.98,8.61c-6.93-0.32-12.43-3.14-12.12-9.78
						c0.31-6.64,6.31-14.59,13.25-14.27C650.88,610.75,656.12,619.23,655.81,625.87z" class="st10"></path>
				</g>
			</g>
			<g>
				<g>
					<g>
						
							<ellipse ry="41.45" rx="26.05" cy="645.09" cx="524.56" class="st11" transform="matrix(0.0466 -0.9989 0.9989 0.0466 -144.2735 1139.0167)"></ellipse>
					</g>
				</g>
				<g>
					<g>
						<g>
							<g>
								<path d="M512.96,632.01c1.76,5.16,3.52,10.32,5.28,15.48c0.25,0.74,0.51,1.48,0.76,2.22
									c0.44,1.28,1.95,2.16,3.56,1.87c1.51-0.27,2.64-1.62,2.21-2.9c-1.76-5.16-3.52-10.32-5.28-15.48
									c-0.25-0.74-0.51-1.48-0.76-2.22c-0.44-1.28-1.95-2.16-3.56-1.87C513.66,629.37,512.52,630.73,512.96,632.01L512.96,632.01z" class="st12"></path>
							</g>
						</g>
					</g>
					<g>
						<g>
							<g>
								<path d="M528.65,634.37c1.76,5.16,3.52,10.32,5.28,15.48c0.25,0.74,0.51,1.48,0.76,2.22
									c0.44,1.28,1.95,2.16,3.56,1.87c1.51-0.27,2.64-1.62,2.21-2.9c-1.76-5.16-3.52-10.32-5.28-15.48
									c-0.25-0.74-0.51-1.48-0.76-2.22c-0.44-1.28-1.95-2.16-3.56-1.87C529.35,631.73,528.22,633.09,528.65,634.37L528.65,634.37z" class="st12"></path>
							</g>
						</g>
					</g>
				</g>
			</g>
			<g>
				<g>
					<g>
						
							<ellipse ry="46.19" rx="29.03" cy="665.56" cx="749.93" class="st11" transform="matrix(4.567757e-03 -1 1 4.567757e-03 80.9479 1412.447)"></ellipse>
					</g>
				</g>
				<g>
					<g>
						<g>
							<g>
								<path d="M736.39,651.54c2.2,5.66,4.4,11.32,6.6,16.99c0.32,0.81,0.63,1.62,0.95,2.44
									c0.54,1.4,2.27,2.31,4.05,1.92c1.66-0.37,2.87-1.93,2.32-3.34c-2.2-5.66-4.4-11.32-6.6-16.98
									c-0.32-0.81-0.63-1.62-0.95-2.44c-0.54-1.4-2.27-2.31-4.05-1.92C737.05,648.57,735.85,650.14,736.39,651.54L736.39,651.54z" class="st12"></path>
							</g>
						</g>
					</g>
					<g>
						<g>
							<g>
								<path d="M753.98,653.44c2.2,5.66,4.4,11.32,6.6,16.99c0.32,0.81,0.63,1.62,0.95,2.44
									c0.54,1.4,2.27,2.31,4.05,1.92c1.66-0.37,2.87-1.93,2.32-3.34c-2.2-5.66-4.4-11.32-6.6-16.98
									c-0.32-0.81-0.63-1.62-0.95-2.44c-0.54-1.4-2.27-2.31-4.05-1.92C754.64,650.47,753.43,652.03,753.98,653.44L753.98,653.44z" class="st12"></path>
							</g>
						</g>
					</g>
				</g>
			</g>
			<g>
				<path d="M661.95,596.62c-0.59-0.59-14.41-14.42-30.98-3.68l-4.3-6.64c17.68-11.46,34.53-1.86,40.97,4.82L661.95,596.62z"></path>
			</g>
			<g>
				<g>
					<g>
						<g>
							<path d="M480.42,591.81l-0.18-37.91c8.83-15.69,24.65-14.06,24.65-14.06c127.54-16.43,124.64-81.38,139.32-90.09
								c14.68-8.71,21.37,11.58,21.37,11.58s47.27,110.64,239.4,117.6c0,0,66.96,31.31,111.72-56.71c0,0-75.36,2.14-101.84-69.74
								c-6.46-17.54-14.37-26.98-26.67-49.7c-32.92-60.81-88.07-152.19-193.28-85.35c0,0-163.12-96.79-219.69,157.58
								c-7.84,35.25-35.48,44.25-72.41,51.35C402.81,526.36,421.16,582.77,480.42,591.81z" class="st2"></path>
						</g>
					</g>
				</g>
				<g>
					<g>
						<g>
							<g>
								<path d="M516.8,334.59c-19.26,28.01-36.37,67.89-48.8,123.98c-8.21,37.02-36.35,46.64-73.93,54.34
									c0,0,19.33,51.23,68.08,68.23l10.41-39.88c9.08-16.51,25.15-14.91,25.15-14.91c129.71-18.11,127.21-86.19,142.19-95.42
									c14.98-9.23,21.64,12,21.64,12s47.27,115.68,242.45,121.66c0,0,59.43,28.74,107.96-48.07c0,0-52.29-11.79-90.01-82.97
									c-9.94-18.76-20.82-30.46-33.16-54.19c-33.03-63.53-89.08-158.32-196.45-87.51c0,0-86.67-52.69-156.94,19.89" class="st16"></path>
							</g>
							<g>
								<path d="M513.95,332.92c-17.12,25-28.93,53.39-37.91,82.22c-2.76,8.86-5.25,17.8-7.51,26.8
									c-2.18,8.67-3.58,17.69-6.77,26.06c-4.51,11.86-13.02,21.21-23.99,27.44c-13.62,7.74-29.39,11.17-44.59,14.29
									c-1.63,0.34-2.91,2.47-2.3,4.06c8.08,21.31,23.58,41.12,41.53,54.88c8.76,6.71,18.45,11.97,28.85,15.65
									c1.67,0.59,3.63-0.67,4.06-2.3c2.56-9.82,5.13-19.63,7.69-29.45c0.87-3.34,1.37-7.38,2.82-10.49
									c3.12-6.7,10.93-11.44,18.09-12.33c1.25-0.16,2.49-0.04,3.74-0.11c5.12-0.25,10.43-1.53,15.47-2.45
									c10.17-1.86,20.27-4.19,30.17-7.17c15.4-4.64,30.51-10.87,44.12-19.51c17.69-11.24,31.82-26.5,41.63-44.98
									c2.92-5.5,5.34-11.28,8.44-16.67c0.56-0.98,1.16-1.92,1.81-2.84c0.45-0.65-0.28,0.22,0.5-0.62
									c0.32-0.35,0.65-0.69,0.99-1.03c0.82-0.84-0.25,0.07,0.43-0.37c1.28-0.83,2.62-1.53,4.12-1.87
									c2.69-0.61,5.12,0.28,7.14,2.09c3.69,3.33,4.8,7.34,6.69,11.47c1.36,2.97,2.94,5.85,4.6,8.66
									c7.53,12.81,17.04,24.51,27.5,35.03c17.09,17.17,37.16,31.33,58.66,42.44c30.48,15.76,63.79,25.56,97.61,30.88
									c10.36,1.63,20.77,2.88,31.22,3.75c5.78,0.49,11.57,0.86,17.36,1.13c1.3,0.06,2.61,0.12,3.91,0.17
									c0.69,0.03,1.59,0.26,2.25,0.08c-0.56,0.15,2.32-0.03,0.04-0.39c0.11,0.02,0.21,0.12,0.32,0.14
									c1.92,0.45,3.86,1.57,5.76,2.17c3.52,1.11,7.13,1.91,10.77,2.46c28.47,4.26,55.42-7.77,75.25-27.93
									c7.76-7.89,14.43-16.78,20.36-26.1c1.11-1.74,0.06-4.38-1.97-4.85c-3.79-0.86-7.76-2.47-11.04-3.92
									c-9.9-4.39-19.24-10.16-27.76-16.83c-13.31-10.42-24.89-23.02-34.62-36.81c-6.21-8.8-11.32-18.13-16.59-27.5
									c-4.51-8.02-9.71-15.6-14.8-23.25c-17.48-26.26-29.9-55.41-48.3-81.14c-16.25-22.73-36.55-43.99-63.06-54.35
									c-30.81-12.04-63.86-4.46-91.98,10.98c-4.79,2.63-9.45,5.49-14.03,8.48c1.11,0,2.22,0,3.33,0
									c-10.59-6.42-22.86-10.79-34.76-13.96c-25.43-6.77-52.81-6.98-77.71,2.14c-18.5,6.78-34.76,18.16-48.48,32.22
									c-2.97,3.04,1.69,7.71,4.66,4.66c22-22.55,50.59-36.73,82.34-37.37c20.33-0.41,40.85,4.16,59.42,12.37
									c3.8,1.68,7.63,3.47,11.2,5.63c0.97,0.59,2.37,0.63,3.33,0c27.78-18.21,61.37-31.17,94.54-21.02
									c26.64,8.15,47.41,28.89,63.52,50.81c8.32,11.32,15.7,23.3,22.58,35.54c8.13,14.45,15.34,29.37,24.38,43.3
									c5.02,7.73,10.34,15.26,15.11,23.14c5.39,8.9,9.98,18.21,15.7,26.92c9.61,14.63,21.02,28.18,34.33,39.58
									c9.14,7.83,19.13,14.76,29.93,20.09c4.92,2.43,10.73,5.57,16.25,6.44c0.25,0.04,0.49,0.13,0.74,0.19
									c-0.66-1.62-1.31-3.23-1.97-4.85c-17.63,27.7-44.6,52.3-79.29,51.69c-7.52-0.13-15.03-1.39-22.13-3.99
									c-0.42-0.16-0.84-0.32-1.27-0.48c-0.95-0.36-0.12-0.04-0.25-0.1c-1.26-0.54-2.47-0.69-3.88-0.74
									c-11.34-0.39-22.68-1.16-33.96-2.38c-35.78-3.87-71.48-12.34-104.25-27.45c-22.94-10.58-44.48-24.35-62.94-41.65
									c-11.63-10.89-21.79-22.71-30.1-36.13c-2.04-3.3-3.97-6.68-5.66-10.18c-0.32-0.67-0.64-1.34-0.93-2.02
									c0.22,0.52,0.4,1.03,0.1,0.13c-0.65-1.87-1.49-3.72-2.44-5.45c-2.91-5.29-7.58-10.2-13.91-10.74
									c-4.51-0.38-9.47,1.61-12.61,4.89c-3.58,3.75-5.7,8.85-7.93,13.45c-7.92,16.28-17.54,30.86-31.63,42.52
									c-26.37,21.82-61.41,31.23-94.58,36.28c-4.72,0.72-9.47,0.49-14.07,2.03c-7.28,2.44-15.28,8.42-17.99,15.87
									c-1.28,3.51-1.93,7.39-2.87,10.99c-1.65,6.33-3.31,12.67-4.96,19c-0.86,3.29-1.72,6.58-2.58,9.87
									c1.35-0.77,2.71-1.54,4.06-2.3c-28.3-10.03-50.08-33.45-63.1-59.99c-0.78-1.59-1.53-3.2-2.23-4.83
									c-0.31-0.7,0.31,0.49-0.03-0.08c-0.07-0.12-0.12-0.49-0.23-0.57c-0.08-0.06-0.14-0.36-0.18-0.47
									c-0.77,1.35-1.54,2.71-2.3,4.06c25.97-5.35,55.39-12.75,69.25-37.76c3.6-6.5,5.78-13.53,7.4-20.75
									c2.26-10.03,4.77-20,7.59-29.88c4.78-16.76,10.42-33.32,17.41-49.29c6.43-14.69,13.99-28.91,23.06-42.16
									C522.05,332.74,516.34,329.44,513.95,332.92L513.95,332.92z"></path>
							</g>
						</g>
						<g>
							<g>
								<g>
									<path d="M516.8,339.84c6.76,0,6.77-10.5,0-10.5C510.04,329.34,510.03,339.84,516.8,339.84L516.8,339.84z"></path>
								</g>
							</g>
						</g>
					</g>
				</g>
			</g>
			<g>
				<path d="M552.71,640.27c-14.67,0-29.04-4.55-41.48-13.28c-16.22-11.39-27.24-28.55-31.03-48.31l0,0
					c-7.82-40.84,18.03-80.25,57.64-87.84c39.61-7.59,78.2,19.46,86.03,60.31c3.79,19.76-0.11,39.78-10.97,56.36
					c-10.89,16.62-27.46,27.8-46.67,31.48C561.72,639.84,557.2,640.27,552.71,640.27z M487.97,577.18
					c3.4,17.73,13.27,33.12,27.8,43.32c14.49,10.18,31.87,13.98,48.97,10.7c17.09-3.27,31.84-13.23,41.54-28.04
					c9.73-14.85,13.21-32.8,9.81-50.53c-7-36.56-41.46-60.79-76.77-54.02C504.01,505.38,480.97,540.63,487.97,577.18L487.97,577.18z"></path>
			</g>
			<g>
				<path d="M733.56,652c-14.67,0-29.04-4.55-41.48-13.28c-16.22-11.39-27.24-28.55-31.03-48.31l0,0
					c-7.82-40.84,18.03-80.25,57.64-87.84c39.61-7.59,78.2,19.46,86.03,60.31c3.79,19.76-0.11,39.77-10.97,56.35
					c-10.89,16.62-27.46,27.8-46.67,31.48C742.58,651.58,738.06,652,733.56,652z M668.83,588.92c3.4,17.73,13.27,33.12,27.8,43.32
					c14.49,10.17,31.87,13.98,48.97,10.7c17.09-3.27,31.84-13.23,41.54-28.04c9.73-14.85,13.21-32.8,9.81-50.53
					c-7-36.56-41.46-60.78-76.77-54.02C684.86,517.11,661.82,552.36,668.83,588.92L668.83,588.92z"></path>
			</g>
			<g>
				<g class="st17">
					<g>
						<g>
							<path d="M857.91,385.36c-8.63-13.91-39.3-55.27-95.74-49.14c0,0,47.03,9.49,68.39,39.89
								c2.17,3.09,3.95,6.43,5.51,9.87c2.76,6.04,12.24,19.39,19.13,17.22c3.21-1.01,3.21-1.62,4.2-4.2
								C861.13,394.51,860.44,389.45,857.91,385.36z" class="st0"></path>
						</g>
					</g>
				</g>
				<g class="st17">
					<g>
						<g>
							<path d="M855.21,425.6c3.01,6.47,9.79,9.69,15.13,7.2c5.34-2.49,7.23-9.75,4.21-16.22
								c-3.02-6.47-9.79-9.69-15.13-7.2C854.08,411.87,852.2,419.14,855.21,425.6z" class="st0"></path>
						</g>
					</g>
				</g>
			</g>
			<g>
				<g>
					<path d="M859.56,575.11c0,0,38.89-16.74,51.89,15.42c14.46,35.77-8.96,63.64-65.58,50.9" class="st3"></path>
				</g>
				<g>
					<path d="M861.22,577.96c-1.63,0.7,0.21-0.06,0.61-0.21c1.26-0.47,2.53-0.88,3.82-1.26c3.84-1.13,7.78-1.96,11.77-2.27
						c10.33-0.81,20.94,1.82,27.24,10.66c6.1,8.56,9.2,21.39,7.05,31.78c-1.95,9.44-8.37,16.55-17.08,20.43
						c-14.8,6.59-32.58,4.55-47.88,1.17c-4.14-0.92-5.9,5.44-1.75,6.36c24.36,5.39,62.39,6.79,72.12-22.61
						c3.86-11.66,1.27-25.16-4.07-35.93c-5.92-11.93-17.56-18.28-30.62-18.6c-8.27-0.2-16.91,1.53-24.52,4.79
						C854,573.92,857.36,579.61,861.22,577.96L861.22,577.96z"></path>
				</g>
			</g>
			<g>
				<g>
					<path d="M874.44,611.18l-1.88-1.85c0,0,0.71-0.73,1.98-1.79c4.24-3.54,15.34-11.32,26.87-7.1l-0.91,2.48
						c-10.24-3.74-20.38,3.4-24.27,6.65C875.1,610.5,874.46,611.15,874.44,611.18z" class="st18"></path>
				</g>
				<g>
					<path d="M890.68,617.68l-2.64-0.07c0.07-2.8-0.68-4.79-2.29-6.07c-3.72-2.96-10.8-1.19-10.87-1.17l-0.66-2.56
						c0.34-0.09,8.42-2.12,13.17,1.66C889.67,611.27,890.78,614.04,890.68,617.68z" class="st18"></path>
				</g>
			</g>
		</g>
		<g>
			<g>
				<g>
					<path d="M678.22,784.83l64.01-35.27c9.29-5.12,20.8,1.35,21.91,12.3l4.47,44.27
						c1.05,10.39-7.97,18.61-17.82,16.23l-73.62-17.74L678.22,784.83z" class="st20"></path>
				</g>
				<g>
					<path d="M679.88,787.68c13.23-7.29,26.47-14.58,39.7-21.88c7.18-3.95,14.35-7.91,21.53-11.86c1.63-0.9,3.27-1.95,5.07-2.46
						c6.29-1.79,12.69,2.57,14.31,8.68c0.6,2.25,0.65,4.68,0.88,6.98c0.48,4.75,0.96,9.5,1.44,14.25
						c0.81,8.05,1.69,16.09,2.44,24.14c0.48,5.16-1.28,10.31-6.15,12.77c-3.03,1.53-6.07,1.2-9.2,0.45c-7-1.69-14-3.37-21-5.06
						c-16.95-4.08-33.9-8.17-50.85-12.25c0.81,1.06,1.61,2.12,2.42,3.18c0.35-6.6,0.7-13.2,1.05-19.79c0.23-4.24-6.37-4.23-6.6,0
						c-0.35,6.6-0.7,13.2-1.05,19.79c-0.07,1.4,1.07,2.86,2.42,3.18c15.74,3.79,31.48,7.58,47.22,11.38
						c8.02,1.93,16.04,3.86,24.06,5.8c2.8,0.67,5.54,1.29,8.46,0.98c7.25-0.78,13.33-6.14,15.28-13.13
						c0.99-3.55,0.58-6.97,0.22-10.54c-0.46-4.59-0.93-9.18-1.39-13.76c-0.88-8.71-1.69-17.44-2.64-26.15
						c-1.43-13.15-14.51-22.09-26.92-15.66c-4.9,2.54-9.68,5.33-14.51,7.99c-16.12,8.89-32.43,17.5-48.4,26.67
						c-0.36,0.21-0.74,0.41-1.1,0.61C672.83,784.03,676.16,789.73,679.88,787.68z"></path>
				</g>
			</g>
			<g>
				<g>
					<path d="M643.96,780.59L575,753.93c-10.01-3.87-20.37,4.01-19.72,14.99l2.63,44.39
						c0.62,10.42,10.85,17.39,20.22,13.77l70.04-27.05L643.96,780.59z" class="st20"></path>
				</g>
				<g>
					<path d="M644.84,777.41c-15.11-5.84-30.22-11.68-45.33-17.52c-7.33-2.83-14.66-5.67-22-8.5c-3.43-1.32-6.86-2.09-10.58-1.49
						c-7.02,1.14-12.9,6.72-14.47,13.66c-0.73,3.21-0.42,6.38-0.23,9.62c0.28,4.68,0.55,9.37,0.83,14.05
						c0.51,8.57,0.89,17.16,1.52,25.72c0.9,12.22,12.35,21.69,24.56,17.27c5.87-2.12,11.65-4.5,17.47-6.75
						c17.09-6.6,34.2-13.14,51.27-19.8c0.38-0.15,0.77-0.3,1.15-0.45c1.74-0.67,2.71-2.16,2.3-4.06c-1.4-6.48-2.8-12.97-4.19-19.45
						c-0.89-4.15-7.26-2.39-6.36,1.75c1.4,6.48,2.8,12.97,4.19,19.45c0.77-1.35,1.54-2.71,2.3-4.06
						c-14.01,5.41-28.03,10.82-42.04,16.24c-7.98,3.08-15.96,6.16-23.94,9.25c-1.35,0.52-2.69,1.08-4.05,1.56
						c-6.26,2.23-12.97-0.79-15.3-7.11c-0.92-2.5-0.85-5.3-1.01-7.92c-0.27-4.62-0.55-9.23-0.82-13.85
						c-0.5-8.37-1.04-16.74-1.49-25.12c-0.52-9.75,7.2-15.94,16.48-12.4c6.32,2.4,12.61,4.87,18.91,7.31
						c16.35,6.32,32.71,12.64,49.06,18.96C647.05,785.3,648.76,778.92,644.84,777.41z"></path>
				</g>
			</g>
			<g>
				<g>
					
						<ellipse ry="19.61" rx="16.85" cy="790.76" cx="660.3" class="st20" transform="matrix(0.103 -0.9947 0.9947 0.103 -194.2364 1366.1331)"></ellipse>
				</g>
				<g>
					<path d="M637.42,789.98c-0.01,19.82,27.18,27.26,40.17,14.42c6.26-6.2,7.39-16.06,2.44-23.42
						c-5.09-7.56-14.51-11.31-23.45-10.19C646.55,772.05,637.78,779.45,637.42,789.98c-0.15,4.25,6.45,4.24,6.6,0
						c0.21-6.23,5.23-10.73,10.99-12.22c6.37-1.65,13.6,0.18,18.12,5.04c4.06,4.37,4.69,10.97,0.91,15.74
						c-3.96,4.99-11.11,6.71-17.15,5.38c-6.71-1.48-12.86-6.66-12.86-13.95C644.02,785.73,637.42,785.72,637.42,789.98z"></path>
				</g>
			</g>
		</g>
		<g>
			<defs>
				
					<rect height="215.99" width="84.92" transform="matrix(4.567815e-03 -1 1 4.567815e-03 -217.5468 1561.6361)" y="782.09" x="633.16" id="SVGID_9_"></rect>
			</defs>
			<clipPath id="SVGID_2_">
				<use style="overflow:visible;" xlink:href="#SVGID_9_"></use>
			</clipPath>
		</g>
		<g>
			<g>
				<path d="M291.58,772.17c0,0,21.43,44.3,0,69.29" class="st3"></path>
			</g>
			<g>
				<path d="M288.73,773.83c3.26,6.77,5.89,15.41,7.48,23.35c2.83,14.09,2.72,30.36-6.97,41.94c-2.71,3.24,1.94,7.93,4.66,4.66
					c16.86-20.16,11.06-51.37,0.52-73.28C292.59,766.68,286.89,770.02,288.73,773.83L288.73,773.83z"></path>
			</g>
		</g>
		<g>
			<path d="M71.65,487.74c0,0-10.23,37.55-29.42,44.79c0,0,32.26,12.23,32.77,38.31c0,0,4.66-32.47,27.87-41.93
				C102.88,528.91,80.15,521.01,71.65,487.74z" class="st40"></path>
		</g>
	</g>
</g>
</svg>
