<?xml version="1.0" standalone="no"?><!DOCTYPE svg PUBLIC "-//W3C//DTD SVG 1.1//EN" "http://www.w3.org/Graphics/SVG/1.1/DTD/svg11.dtd"><svg t="1649754248732" class="icon" viewBox="0 0 1024 1024" version="1.1" xmlns="http://www.w3.org/2000/svg" p-id="16882" xmlns:xlink="http://www.w3.org/1999/xlink" width="200" height="200"><defs><style type="text/css">@font-face { font-family: feedback-iconfont; src: url("//at.alicdn.com/t/font_1031158_u69w8yhxdu.woff2?t=1630033759944") format("woff2"), url("//at.alicdn.com/t/font_1031158_u69w8yhxdu.woff?t=1630033759944") format("woff"), url("//at.alicdn.com/t/font_1031158_u69w8yhxdu.ttf?t=1630033759944") format("truetype"); }
</style></defs><path d="M156.56636 293.182342l263.340687 0 0 201.25056-263.340687 0 0-201.25056Z" p-id="16883"></path><path d="M460.834178 318.424236l367.707686 0 0 27.629267-367.707686 0 0-27.629267Z" p-id="16884"></path><path d="M460.834178 448.384124l367.707686 0 0 31.722492-367.707686 0 0-31.722492Z" p-id="16885"></path><path d="M127.91788 589.088726l704.375425 0 0 31.722492-704.375425 0 0-31.722492Z" p-id="16886"></path><path d="M127.91788 720.071919 832.293305 721.095225 832.293305 752.817718 127.91788 751.794411Z" p-id="16887"></path><path d="M939.765015 233.44582l-24.993231-3.133364-2.545986 20.307512 24.993231 3.133364c9.654894 1.210571 16.523325 10.048867 15.314801 19.702738l-58.500369 466.689025L894.033461 223.25676c0-16.954137-13.745049-30.699186-30.699186-30.699186l-767.479649 0c-16.954137 0-30.699186 13.745049-30.699186 30.699186l0 576.12139c0 16.954137 13.745049 30.699186 30.699186 30.699186l767.479649 0c3.601015 0 7.054673-0.62524 10.264784-1.76418 17.359366-1.666966 31.91078-15.187911 34.169217-33.1981l65.073064-519.115048C975.453842 255.150144 960.615902 236.059344 939.765015 233.44582zM95.854627 809.611212c-5.64251 0-10.233062-4.590552-10.233062-10.233062l0-576.12139c0-5.64251 4.590552-10.233062 10.233062-10.233062l767.479649 0c5.64251 0 10.233062 4.590552 10.233062 10.233062l0 576.12139c0 3.597945-1.871627 6.762007-4.686742 8.587586-0.373507-0.022513-0.74599-0.035816-1.122567-0.081864l-0.094144 0.754177c-1.316995 0.618077-2.780323 0.974188-4.328585 0.974188L95.854627 809.612235z" p-id="16888"></path></svg>