<?xml version="1.0" standalone="no"?><!DOCTYPE svg PUBLIC "-//W3C//DTD SVG 1.1//EN" "http://www.w3.org/Graphics/SVG/1.1/DTD/svg11.dtd"><svg t="1650112212687" class="icon" viewBox="0 0 1024 1024" version="1.1" xmlns="http://www.w3.org/2000/svg" p-id="1348" xmlns:xlink="http://www.w3.org/1999/xlink" width="48" height="48"><defs><style type="text/css">@font-face { font-family: feedback-iconfont; src: url("//at.alicdn.com/t/font_1031158_u69w8yhxdu.woff2?t=1630033759944") format("woff2"), url("//at.alicdn.com/t/font_1031158_u69w8yhxdu.woff?t=1630033759944") format("woff"), url("//at.alicdn.com/t/font_1031158_u69w8yhxdu.ttf?t=1630033759944") format("truetype"); }
</style></defs><path d="M102.4 102.4m307.2 0l204.8 0q307.2 0 307.2 307.2l0 204.8q0 307.2-307.2 307.2l-204.8 0q-307.2 0-307.2-307.2l0-204.8q0-307.2 307.2-307.2Z" fill="#9864FF" p-id="1349"></path><path d="M578.44224 322.64704A92.16 92.16 0 0 1 593.92 373.77024V646.144c0 50.89792-41.26208 92.16-92.16 92.16a92.16 92.16 0 0 1-50.2272-14.88896l-122.88-79.872A92.16 92.16 0 0 1 286.72 566.272V455.69024a92.16 92.16 0 0 1 41.0368-76.68224l122.88-81.92c42.35264-28.23168 99.57376-16.7936 127.80544 25.55904z m97.4592 281.30816l48.11264 17.5104a25.6 25.6 0 1 1-17.5104 48.11264l-48.11776-17.5104a25.6 25.6 0 0 1 17.5104-48.11264zM716.8 483.16928a25.6 25.6 0 1 1 0 51.2h-51.2a25.6 25.6 0 1 1 0-51.2h51.2z m22.51264-119.9104a25.6 25.6 0 0 1-15.29856 32.80896l-48.11264 17.5104a25.6 25.6 0 1 1-17.5104-48.11264l48.10752-17.5104a25.6 25.6 0 0 1 32.81408 15.29856z" fill="#FFFFFF" fill-opacity=".8" p-id="1350"></path></svg>