<?xml version="1.0" standalone="no"?><!DOCTYPE svg PUBLIC "-//W3C//DTD SVG 1.1//EN" "http://www.w3.org/Graphics/SVG/1.1/DTD/svg11.dtd"><svg t="1649754226040" class="icon" viewBox="0 0 1024 1024" version="1.1" xmlns="http://www.w3.org/2000/svg" p-id="15968" xmlns:xlink="http://www.w3.org/1999/xlink" width="200" height="200"><defs><style type="text/css">@font-face { font-family: feedback-iconfont; src: url("//at.alicdn.com/t/font_1031158_u69w8yhxdu.woff2?t=1630033759944") format("woff2"), url("//at.alicdn.com/t/font_1031158_u69w8yhxdu.woff?t=1630033759944") format("woff"), url("//at.alicdn.com/t/font_1031158_u69w8yhxdu.ttf?t=1630033759944") format("truetype"); }
</style></defs><path d="M735.1 173c56.4 0 102.1 47.8 102.1 106.7 0 58.9-45.7 106.7-102.1 106.7-56.4 0-102.1-47.8-102.1-106.7 0-58.9 45.7-106.7 102.1-106.7zM83 477c48-1.5 95.9-3.1 143.9-4.6 7 7.7 13.9 15.5 20.9 23.2L438 649.2c5.4 4.3-0.1 23.7-5.6 27.3-22.4 14.9-44.9 29.9-67.3 44.9-10.1 6.7-33.4 1.2-42.2-6.1-77.2-64.5-154.4-128.9-231.6-193.4-8.4-7.1-7.1-33.7-8.3-44.9z m215.7-234.6c-25.2 0.3-13.3 22.6-0.9 33 60.7 51 121.4 101.9 182.1 152.9-31.5 23.1-63.1 46.3-94.6 69.4-16.4 12-2.4 45.9 9.9 56 121.1 99 242.1 198 363.2 297h143.9c-4.2-17.7-2.2-40.7-16.7-52.4C782.7 715.1 680 632 577.3 548.9c33.7-27.1 67.4-54.2 101.1-81.4 10.9-8.8 6.3-32.1-3.8-40.7-73.4-62.2-146.9-124.4-220.3-186.6-51.9 0.7-103.8 1.5-155.6 2.2z m0 0" p-id="15969"></path></svg>