<?xml version="1.0" standalone="no"?><!DOCTYPE svg PUBLIC "-//W3C//DTD SVG 1.1//EN" "http://www.w3.org/Graphics/SVG/1.1/DTD/svg11.dtd"><svg t="1649754012709" class="icon" viewBox="0 0 1024 1024" version="1.1" xmlns="http://www.w3.org/2000/svg" p-id="9501" xmlns:xlink="http://www.w3.org/1999/xlink" width="200" height="200"><defs><style type="text/css">@font-face { font-family: feedback-iconfont; src: url("//at.alicdn.com/t/font_1031158_u69w8yhxdu.woff2?t=1630033759944") format("woff2"), url("//at.alicdn.com/t/font_1031158_u69w8yhxdu.woff?t=1630033759944") format("woff"), url("//at.alicdn.com/t/font_1031158_u69w8yhxdu.ttf?t=1630033759944") format("truetype"); }
</style></defs><path d="M111.999903 16.00087h728.000403v990.399823H111.999903z" fill="#FDBF5E" p-id="9502"></path><path d="M840.000306 1024H111.999903c-9.600935 0-16.00087-6.399936-16.00087-16.00087V16.00087C95.999033 6.399936 102.398969 0 111.999903 0h728.000403c9.600935 0 16.00087 6.399936 16.00087 16.00087v992.000322c-0.002062 7.998373-8.000435 15.998808-16.00087 15.998808zM128.000773 992.000322h696.000726V31.999678H128.000773V992.000322z" fill="#193651" p-id="9503"></path><path d="M174.895822 81.103663h599.999629v862.399049H174.895822z" fill="#FFFFFF" p-id="9504"></path><path d="M164.799887 134.400709h-105.599968c-23.999243 0-43.199049 19.199807-43.199049 43.199049s19.199807 43.199049 43.199049 43.19905h103.999469a43.019612 43.019612 0 0 0 43.199049-43.19905c1.6005-23.999243-17.599307-43.199049-41.59855-43.199049z" fill="#FFFFFF" p-id="9505"></path><path d="M164.799887 236.799678h-105.599968C25.599742 236.799678 0 209.599436 0 177.599758s27.200242-59.199919 59.199919-59.199919h103.999469c33.600177 0 59.199919 27.200242 59.199919 59.199919s-25.599742 59.199919-57.59942 59.19992z m-105.599968-86.400161c-16.00087 0-27.200242 12.799871-27.200241 27.200241 0 16.00087 12.799871 27.200242 27.200241 27.200242h103.999469c16.00087 0 27.200242-12.799871 27.200241-27.200242 0-16.00087-12.799871-27.200242-27.200241-27.200241H59.199919z" fill="#193651" p-id="9506"></path><path d="M164.799887 356.800016h-105.599968a43.019612 43.019612 0 0 0-43.199049 43.199049 43.019612 43.019612 0 0 0 43.199049 43.19905h103.999469a43.019612 43.019612 0 0 0 43.199049-43.19905c1.6005-23.999243-17.599307-43.199049-41.59855-43.199049z" fill="#FFFFFF" p-id="9507"></path><path d="M164.799887 460.799484h-105.599968C27.200242 460.799484 0 433.599243 0 399.999065s27.200242-59.199919 59.199919-59.199919h103.999469c33.600177 0 59.199919 27.200242 59.199919 59.199919s-25.599742 60.800419-57.59942 60.800419z m-105.599968-87.998598c-16.00087 0-27.200242 12.799871-27.200241 27.200242 0 16.00087 12.799871 27.200242 27.200241 27.200242h103.999469c16.00087 0 27.200242-12.799871 27.200241-27.200242 0-16.00087-12.799871-27.200242-27.200241-27.200242H59.199919z" fill="#193651" p-id="9508"></path><path d="M164.799887 579.199323h-105.599968c-23.999243 0-43.199049 20.800306-43.199049 44.799549a43.019612 43.019612 0 0 0 43.199049 43.199049h103.999469a43.019612 43.019612 0 0 0 43.199049-43.199049c1.6005-23.999243-17.599307-44.799549-41.59855-44.799549z" fill="#FFFFFF" p-id="9509"></path><path d="M164.799887 683.200854h-105.599968C27.200242 683.200854 0 656.000612 0 623.998872c0-31.999678 27.200242-59.199919 59.199919-59.199919h103.999469c33.600177 0 59.199919 27.200242 59.199919 59.199919 0 32.00174-25.599742 59.201982-57.59942 59.201982z m-105.599968-88.000661c-14.400371 0-27.200242 12.799871-27.200241 28.800742s12.799871 27.200242 27.200241 27.200241h103.999469c16.00087 0 27.200242-12.799871 27.200241-27.200241 0-16.00087-12.799871-27.200242-27.200241-27.200242H59.199919v-1.6005z" fill="#193651" p-id="9510"></path><path d="M164.799887 803.19913h-105.599968a43.019612 43.019612 0 0 0-43.199049 43.199049 43.019612 43.019612 0 0 0 43.199049 43.19905h103.999469a43.019612 43.019612 0 0 0 43.199049-43.19905c1.6005-23.999243-17.599307-43.199049-41.59855-43.199049z" fill="#FFFFFF" p-id="9511"></path><path d="M164.799887 905.600161h-105.599968C27.200242 905.600161 0 880.000419 0 846.400242s27.200242-59.199919 59.199919-59.19992h103.999469c33.600177 0 59.199919 27.200242 59.199919 59.19992 0 31.999678-25.599742 59.199919-57.59942 59.199919z m-105.599968-86.400161c-16.00087 0-27.200242 12.799871-27.200241 27.200242 0 16.00087 12.799871 27.200242 27.200241 27.200241h103.999469c16.00087 0 27.200242-12.799871 27.200241-27.200241 0-16.00087-12.799871-27.200242-27.200241-27.200242H59.199919z" fill="#193651" p-id="9512"></path><path d="M942.399275 758.399581h-103.999468v131.19971h103.999468c36.799114 0 65.599855-28.800741 65.599855-65.599855 0-35.200677-28.798679-65.599855-65.599855-65.599855z" fill="#4FBF9F" p-id="9513"></path><path d="M942.399275 905.600161h-103.999468c-9.600935 0-16.00087-6.399936-16.00087-16.00087v-131.19971c0-9.600935 6.399936-16.00087 16.00087-16.00087h103.999468c44.799549 0 81.600725 36.799114 81.600725 81.600725s-36.801176 81.600725-81.600725 81.600725z m-87.998598-31.999678h88.00066c27.200242 0 49.598985-22.400806 49.598985-49.598984 0-27.200242-22.400806-49.598985-49.598985-49.598985h-88.00066v99.197969z" fill="#193651" p-id="9514"></path><path d="M838.399807 758.399581H596.800693c-83.199162 0-163.199388 22.400806-233.600741 65.599855 70.399291 43.199049 152.000016 65.599855 233.600741 65.599855h241.599114v-131.19971z" fill="#FFFFFF" p-id="9515"></path><path d="M838.399807 905.600161H596.800693c-84.799662 0-169.599323-23.999243-241.599114-68.800854-4.799436-3.200999-8.000435-8.000435-8.000435-14.40037s3.200999-11.199372 8.000435-14.400371c73.60029-44.799549 156.799452-68.800854 241.599114-68.800854h241.599114c9.600935 0 16.00087 6.399936 16.00087 16.00087v131.19971c0 12.801934-8.000435 19.201869-16.00087 19.201869z m-443.200178-81.600725c62.400918 31.999678 131.19971 49.598985 201.599001 49.598985h225.600307v-99.200032H596.800693c-70.401354 0.002062-140.800645 17.60137-201.601064 49.601047z" fill="#193651" p-id="9516"></path><path d="M361.599452 840.000306h-30.399178c-9.600935 0-16.00087-6.399936-16.00087-16.00087s6.399936-16.00087 16.00087-16.00087h30.399178c9.600935 0 16.00087 6.399936 16.00087 16.00087s-6.399936 16.00087-16.00087 16.00087zM529.600338 808.000628h31.999678v31.999678h-31.999678zM616.0005 808.000628h31.999677v31.999678h-31.999677zM702.400661 808.000628h31.999677v31.999678h-31.999677z" fill="#193651" p-id="9517"></path><path d="M287.999162 143.999581h86.400161v86.400161h-86.400161zM287.999162 295.999597h86.400161v86.400161h-86.400161zM287.999162 446.399114h86.400161v86.400161h-86.400161zM287.999162 596.800693h86.400161v86.400161h-86.400161z" fill="#F16051" p-id="9518"></path><path d="M715.200532 204.8H475.199855c-9.600935 0-16.00087-6.399936-16.00087-16.00087s6.399936-16.00087 16.00087-16.00087h238.400177c9.600935 0 16.00087 6.399936 16.00087 16.00087 1.598437 8.000435-6.401998 16.00087-14.40037 16.00087zM715.200532 355.199517H475.199855c-9.600935 0-16.00087-6.399936-16.00087-16.000871 0-9.600935 6.399936-16.00087 16.00087-16.00087h238.400177c9.600935 0 16.00087 6.399936 16.00087 16.00087 1.598437 8.000435-6.401998 16.00087-14.40037 16.000871zM715.200532 505.599033H475.199855c-9.600935 0-16.00087-6.399936-16.00087-16.00087 0-9.600935 6.399936-16.00087 16.00087-16.00087h238.400177c9.600935 0 16.00087 6.399936 16.00087 16.00087 1.598437 9.600935-6.401998 16.00087-14.40037 16.00087zM715.200532 656.000612H475.199855c-9.600935 0-16.00087-6.399936-16.00087-16.00087s6.399936-16.00087 16.00087-16.00087h238.400177c9.600935 0 16.00087 6.399936 16.00087 16.00087 1.598437 9.600935-6.401998 16.00087-14.40037 16.00087z" fill="#193651" p-id="9519"></path></svg>