<?xml version="1.0" standalone="no"?><!DOCTYPE svg PUBLIC "-//W3C//DTD SVG 1.1//EN" "http://www.w3.org/Graphics/SVG/1.1/DTD/svg11.dtd"><svg t="1649575950565" class="icon" viewBox="0 0 1024 1024" version="1.1" xmlns="http://www.w3.org/2000/svg" p-id="2093" xmlns:xlink="http://www.w3.org/1999/xlink" width="256" height="256"><defs><style type="text/css">@font-face { font-family: feedback-iconfont; src: url("//at.alicdn.com/t/font_1031158_u69w8yhxdu.woff2?t=1630033759944") format("woff2"), url("//at.alicdn.com/t/font_1031158_u69w8yhxdu.woff?t=1630033759944") format("woff"), url("//at.alicdn.com/t/font_1031158_u69w8yhxdu.ttf?t=1630033759944") format("truetype"); }
</style></defs><path d="M889.1 222.9c-25-24.9-58.8-38.9-94-38.8H230.9c-35.4 0.1-69.4 14.3-94.3 39.5-24.9 25.2-38.7 59.3-38.4 94.8L148 706.7c0.1 73.3 59.5 132.7 132.7 132.8h465c72.7 0.1 132-58.5 132.7-131.2l49.8-391.4c-0.1-35.3-14.2-69.1-39.1-94zM747.4 379l-67.3 134.8c-11.1 22.4-36 34.4-60.4 28.8-35-8.3-70.7-12.4-106.4-12.4l-53.4-146.7c-4.1-11.3-16.6-17.2-28-13-11.3 4.1-17.2 16.7-13.1 28l48.8 134.2c-20.6 2-41.2 5.3-61.5 10-24.4 5.4-49.3-6.5-60.4-28.8L278.4 379c-7.2-14.4-7.7-31.3-1.3-46 6.4-14.8 19.1-25.9 34.5-30.5a689.05 689.05 0 0 1 402.7 0c15.4 4.6 28 15.8 34.4 30.5 6.4 14.8 5.9 31.7-1.3 46z" p-id="2094" fill="#1296db"></path></svg>