<?xml version="1.0" standalone="no"?><!DOCTYPE svg PUBLIC "-//W3C//DTD SVG 1.1//EN" "http://www.w3.org/Graphics/SVG/1.1/DTD/svg11.dtd"><svg t="1649576149907" class="icon" viewBox="0 0 1024 1024" version="1.1" xmlns="http://www.w3.org/2000/svg" p-id="1193" xmlns:xlink="http://www.w3.org/1999/xlink" width="256" height="256"><defs><style type="text/css">@font-face { font-family: feedback-iconfont; src: url("//at.alicdn.com/t/font_1031158_u69w8yhxdu.woff2?t=1630033759944") format("woff2"), url("//at.alicdn.com/t/font_1031158_u69w8yhxdu.woff?t=1630033759944") format("woff"), url("//at.alicdn.com/t/font_1031158_u69w8yhxdu.ttf?t=1630033759944") format("truetype"); }
</style></defs><path d="M 501.76 0 C 225.28 0 0 225.28 0 501.76 S 225.28 1003.52 501.76 1003.52 S 1003.52 778.24 1003.52 501.76 S 778.24 0 501.76 0 Z M 204.8 808.96 l 53.248 -182.272 l 135.168 133.12 l -188.416 49.152 Z m 221.184 -69.632 L 288.768 593.92 l 335.872 -309.248 l 137.216 137.216 l -335.872 317.44 Z m 376.832 -337.92 l -141.312 -145.408 s 51.2 -61.44 73.728 -59.392 c 47.104 4.096 137.216 86.016 133.12 133.12 c -2.048 24.576 -65.536 71.68 -65.536 71.68 Z" fill="#2b5deb" p-id="1194"></path></svg>