<?xml version="1.0" standalone="no"?><!DOCTYPE svg PUBLIC "-//W3C//DTD SVG 1.1//EN" "http://www.w3.org/Graphics/SVG/1.1/DTD/svg11.dtd"><svg t="1649754077677" class="icon" viewBox="0 0 1024 1024" version="1.1" xmlns="http://www.w3.org/2000/svg" p-id="10976" xmlns:xlink="http://www.w3.org/1999/xlink" width="200" height="200"><defs><style type="text/css">@font-face { font-family: feedback-iconfont; src: url("//at.alicdn.com/t/font_1031158_u69w8yhxdu.woff2?t=1630033759944") format("woff2"), url("//at.alicdn.com/t/font_1031158_u69w8yhxdu.woff?t=1630033759944") format("woff"), url("//at.alicdn.com/t/font_1031158_u69w8yhxdu.ttf?t=1630033759944") format("truetype"); }
</style></defs><path d="M738.043756 523.772988m-190.462905 0a190.462905 190.462905 0 1 0 380.92581 0 190.462905 190.462905 0 1 0-380.92581 0Z" fill="#AC7DF2" p-id="10977"></path><path d="M525.082421 989.073865c-22.61747 0-45.23494-8.594639-62.471833-25.831532L60.49578 561.103718a88.470019 88.470019 0 0 1-0.023808-124.991282l4.142568-4.142568c16.665504-16.665504 38.87824-25.855339 62.495641-25.855339 23.593592 0 45.782521 9.189835 62.471833 25.879147l402.138616 402.138616a87.755783 87.755783 0 0 1 25.879147 62.49564 87.851015 87.851015 0 0 1-25.85534 62.471833l-4.11876 4.142568a88.231941 88.231941 0 0 1-62.543256 25.831532zM127.086373 466.348422c-7.523285 0-14.570412 2.904559-19.903373 8.237521l-4.142568 4.142568c-10.951617 10.951617-10.951617 28.807514 0 39.78294L505.202855 920.650066c10.975425 10.975425 28.85513 10.975425 39.830555 0l4.094953-4.11876h0.023807c5.309153-5.332961 8.237521-12.380089 8.237521-19.903374 0-7.523285-2.928367-14.59422-8.237521-19.903373L147.013555 474.585943a27.998047 27.998047 0 0 0-19.927182-8.237521z" fill="#333333" p-id="10978"></path><path d="M386.663505 1023.738114a87.779591 87.779591 0 0 1-62.471833-25.879148l-298.312525-298.312524a88.470019 88.470019 0 0 1 0-124.991282l4.094953-4.094952a88.493827 88.493827 0 0 1 124.991281 0l298.312525 298.312525a88.470019 88.470019 0 0 1 0 124.967473l-4.142569 4.142568c-16.665504 16.665504-38.854433 25.855339-62.471832 25.85534z m45.877752-50.686941h0.309502-0.309502zM92.46974 604.791146c-7.189975 0-14.403757 2.737904-19.903373 8.237521l-4.094953 4.11876a28.18851 28.18851 0 0 0 0 39.830555l298.312525 298.312525c10.951617 10.975425 28.807514 10.975425 39.806747 0l4.11876-4.11876c10.975425-10.999233 10.951617-28.85513 0-39.830555L112.373114 613.052475a28.069471 28.069471 0 0 0-19.927182-8.237521z m804.134385 12.856247a87.779591 87.779591 0 0 1-62.495641-25.902956L431.993676 189.605822a87.779591 87.779591 0 0 1-25.902955-62.495641c0-23.593592 9.189835-45.782521 25.879147-62.495641l4.11876-4.094952a88.470019 88.470019 0 0 1 124.991282 0l402.114808 402.114808a88.470019 88.470019 0 0 1 0 124.991281l-4.118761 4.11876a87.708168 87.708168 0 0 1-62.471832 25.879148zM498.584269 94.802911c-7.499477 0-14.570412 2.928367-19.903373 8.237521l-4.094953 4.11876c-5.356769 5.332961-8.261328 12.380089-8.261328 19.927181 0 7.523285 2.904559 14.570412 8.23752 19.903374l402.138616 402.162423a28.85513 28.85513 0 0 0 39.830555 0l4.11876-4.142568c5.309153-5.309153 8.237521-12.380089 8.237521-19.903373 0-7.523285-2.928367-14.59422-8.237521-19.903374L518.535258 103.064239a27.998047 27.998047 0 0 0-19.927181-8.23752z" fill="#333333" p-id="10979"></path><path d="M931.220757 479.180861a87.779591 87.779591 0 0 1-62.49564-25.879147L570.4364 154.989189a87.755783 87.755783 0 0 1-25.879147-62.495641c0-23.593592 9.189835-45.782521 25.879147-62.471833l4.142568-4.142568A87.755783 87.755783 0 0 1 637.026993 0c23.6174 0 45.806329 9.189835 62.495641 25.879147l298.312524 298.312525a87.755783 87.755783 0 0 1 25.879148 62.495641c0 23.593592-9.189835 45.782521-25.879148 62.471832l-4.142568 4.142569a87.755783 87.755783 0 0 1-62.471833 25.879147zM637.026993 60.233894c-7.189975 0-14.403757 2.737904-19.903373 8.23752l-4.118761 4.118761a28.18851 28.18851 0 0 0 0 39.830555l298.312525 298.312524c10.951617 10.951617 28.807514 10.951617 39.806747 0l4.142568-4.142568a28.18851 28.18851 0 0 0 0-39.830555l-298.312524-298.312525a28.093278 28.093278 0 0 0-19.927182-8.213712z m-237.840552 654.097231a29.997908 29.997908 0 0 1-21.260422-8.832718l-59.710121-59.686312a30.093139 30.093139 0 0 1 0-42.56846l284.980122-284.980121c11.308735-11.308735 31.283532-11.308735 42.592267 0l59.686313 59.662505a30.116947 30.116947 0 0 1 0 42.592267l-284.980122 284.980121a29.997908 29.997908 0 0 1-21.284229 8.80891z m-17.094046-89.80326l17.117854 17.094046L641.598103 399.257864l-17.094046-17.094045-242.411662 242.364046zM156.917626 944.077004a60.019623 60.019623 0 0 1-42.56846-17.594011l-17.117853-17.117854a60.305317 60.305317 0 0 1 0-85.160726l47.925228-47.925229c11.284927-11.308735 31.283532-11.308735 42.592267 0l59.686313 59.686313a30.093139 30.093139 0 0 1 0 42.568459L199.509893 926.459185c-11.737277 11.761084-27.164772 17.617819-42.592267 17.617819z m9.523145-103.921323l-26.593383 26.617191 17.094046 17.141661 26.664806-26.664806-17.141661-17.094046z" fill="#333333" p-id="10980"></path><path d="M857.225919 256.267838a29.997908 29.997908 0 0 1-21.28423-8.808909l-59.686312-59.686313a30.093139 30.093139 0 0 1 0-42.568459l47.925228-47.949036a60.281509 60.281509 0 0 1 85.184534 0l17.094046 17.117853c11.380159 11.356351 17.617819 26.474344 17.617819 42.56846a59.757736 59.757736 0 0 1-17.617819 42.568459L878.510149 247.458929c-5.856734 5.90435-13.570482 8.832717-21.28423 8.832717z m-17.094046-89.779451l17.094046 17.094045 26.664807-26.617191V156.893818l-17.117854-17.070238-26.664807 26.640999z" fill="#333333" p-id="10981"></path></svg>