<?xml version="1.0" standalone="no"?><!DOCTYPE svg PUBLIC "-//W3C//DTD SVG 1.1//EN" "http://www.w3.org/Graphics/SVG/1.1/DTD/svg11.dtd"><svg t="1649554575272" class="icon" viewBox="0 0 1024 1024" version="1.1" xmlns="http://www.w3.org/2000/svg" p-id="1477" xmlns:xlink="http://www.w3.org/1999/xlink" width="256" height="256"><defs><style type="text/css">@font-face { font-family: feedback-iconfont; src: url("//at.alicdn.com/t/font_1031158_u69w8yhxdu.woff2?t=1630033759944") format("woff2"), url("//at.alicdn.com/t/font_1031158_u69w8yhxdu.woff?t=1630033759944") format("woff"), url("//at.alicdn.com/t/font_1031158_u69w8yhxdu.ttf?t=1630033759944") format("truetype"); }
</style></defs><path d="M954.285714 0v1024H69.714286V0h884.571428z m-90.285714 90.285714H160v843.428572h704V90.285714z m-69.714286 622.857143v91.428572H230.857143v-91.428572h563.428571z m0-219.428571v91.428571H230.857143v-91.428571h563.428571zM402.4 167.771429L481.6 422.857143H417.142857l-14.742857-58.628572h-75.428571L312.228571 422.857143h-62.4l79.2-255.085714h73.371429zM794.285714 274.285714v91.428572H585.142857v-91.428572h209.142857z m-429.257143-60.914285h-1.371428c-6.171429 26.742857-13.028571 56.571429-19.542857 81.942857l-5.485715 21.6h52.114286l-5.485714-21.6c-6.857143-25.371429-13.371429-55.885714-20.228572-81.942857z" fill="#1296db" p-id="1478"></path></svg>