<?xml version="1.0" standalone="no"?><!DOCTYPE svg PUBLIC "-//W3C//DTD SVG 1.1//EN" "http://www.w3.org/Graphics/SVG/1.1/DTD/svg11.dtd"><svg t="1649927312466" class="icon" viewBox="0 0 1024 1024" version="1.1" xmlns="http://www.w3.org/2000/svg" p-id="3559" xmlns:xlink="http://www.w3.org/1999/xlink" width="48" height="48"><defs><style type="text/css">@font-face { font-family: feedback-iconfont; src: url("//at.alicdn.com/t/font_1031158_u69w8yhxdu.woff2?t=1630033759944") format("woff2"), url("//at.alicdn.com/t/font_1031158_u69w8yhxdu.woff?t=1630033759944") format("woff"), url("//at.alicdn.com/t/font_1031158_u69w8yhxdu.ttf?t=1630033759944") format("truetype"); }
</style></defs><path d="M303.764367 1005.801351c-74.89226-1.842542-142.726165-33.165762-192.304728-82.744325s-80.901783-117.412468-82.744325-192.304728c-0.680323-27.921603 3.741778-54.057358 13.237958-78.208837 9.49618-24.179825 24.038091-46.347027 43.512346-66.331524 19.474255-19.956151 41.301296-35.036652 65.282693-45.128115 24.009744-10.148156 50.032112-15.222235 77.868675-15.222234h214.55697c18.056915 0 34.413022 7.341823 46.290334 19.190787 11.848965 11.877311 19.190787 28.233418 19.190787 46.290333v214.556971c0 27.836563-5.074078 53.85893-15.222235 77.868674-10.091463 23.981397-25.171963 45.808438-45.128114 65.282693-19.984498 19.474255-42.1517 34.016167-66.331525 43.512347-24.151478 9.49618-50.287233 13.918281-78.208836 13.237958z m-175.77854-99.270513c45.52497 45.52497 107.746208 74.296977 176.317129 75.997786 24.746761 0.595283 47.849408-3.316576 69.166206-11.678884 21.288451-8.362308 40.876093-21.20341 58.592847-38.494962 17.7451-17.319898 31.068099-36.567379 39.940649-57.600709 8.844203-21.004983 13.294652-43.994242 13.294651-68.85439v-214.556971c0-11.593843-4.733917-22.138855-12.359207-29.764145s-18.170302-12.359207-29.764146-12.359207H228.616986c-24.860148 0-47.849408 4.450448-68.85439 13.294651-21.03333 8.87255-40.280811 22.195549-57.600709 39.940649-17.291551 17.716753-30.132654 37.304396-38.494962 58.592847-8.362308 21.316798-12.274167 44.419444-11.678884 69.166205 1.700808 68.570922 30.472816 130.79216 75.997786 176.31713z m878.38246-175.77854c-1.842542 74.89226-33.165762 142.726165-82.744325 192.304728-49.550216 49.578563-117.412468 80.901783-192.304728 82.744325-27.921603 0.680323-54.029011-3.741778-78.18049-13.237958-24.208172-9.49618-46.375374-24.009744-66.359871-43.512347-19.956151-19.474255-35.036652-41.301296-45.128115-65.282693-10.11981-24.009744-15.222235-50.032112-15.222234-77.868674v-214.556971c0-18.056915 7.341823-34.413022 19.190787-46.290333 11.877311-11.848965 28.233418-19.190787 46.290334-19.190787h214.585317c27.808216 0 53.830584 5.074078 77.868674 15.222234 23.981397 10.091463 45.780091 25.171963 65.254347 45.128115 19.502602 19.984498 34.016167 42.1517 43.512346 66.331524 9.49618 24.151478 13.918281 50.287233 13.237958 78.208837z m-99.270513 175.77854c45.52497-45.52497 74.325324-107.746208 75.997786-176.31713 0.62363-24.746761-3.288229-47.849408-11.678884-69.166205-8.362308-21.288451-21.20341-40.876093-38.494962-58.592847-17.291551-17.7451-36.539032-31.068099-57.600709-39.940649-21.004983-8.844203-43.994242-13.294652-68.826043-13.294651h-214.585317c-11.593843 0-22.138855 4.733917-29.764146 12.359207s-12.359207 18.170302-12.359207 29.764145v214.556971c0 24.860148 4.450448 47.849408 13.294651 68.85439 8.87255 21.03333 22.223895 40.280811 39.940649 57.600709 17.716753 17.291551 37.304396 30.132654 58.592847 38.494962 21.316798 8.362308 44.419444 12.274167 69.166205 11.678884 68.570922-1.700808 130.79216-30.472816 176.31713-75.997786zM731.319234 28.913742c74.89226 1.842542 142.754512 33.194109 192.304728 82.744325 49.578563 49.578563 80.901783 117.440815 82.744325 192.304728 0.680323 27.94995-3.741778 54.057358-13.209611 78.208836-9.524527 24.208172-24.038091 46.375374-43.540693 66.331525-19.474255 19.984498-41.272949 35.036652-65.254347 45.156461-24.038091 10.11981-50.060458 15.222235-77.868674 15.222234h-214.585317c-18.056915 0-34.413022-7.341823-46.290334-19.219134-11.848965-11.848965-19.190787-28.233418-19.190787-46.261986V228.815414c0-27.836563 5.102425-53.830584 15.222234-77.868675 10.091463-23.981397 25.171963-45.780091 45.128115-65.254346 19.984498-19.502602 42.1517-34.044513 66.359871-43.540693 24.151478-9.467833 50.258886-13.918281 78.18049-13.237958z m175.77854 99.270512c-45.52497-45.52497-107.746208-74.296977-176.31713-75.997785-24.746761-0.595283-47.849408 3.316576-69.166205 11.678884-21.288451 8.362308-40.876093 21.231757-58.592847 38.523308s-31.068099 36.539032-39.940649 57.600709c-8.844203 21.004983-13.294652 43.994242-13.294651 68.826044v214.585317c0 11.593843 4.733917 22.110508 12.359207 29.735799 7.625291 7.653637 18.170302 12.387554 29.764146 12.387554h214.585317c24.831802 0 47.821061-4.450448 68.826043-13.322999 21.061676-8.87255 40.309157-22.195549 57.600709-39.940649 17.291551-17.716753 30.132654-37.276049 38.494962-58.5645 8.390654-21.345145 12.302514-44.447791 11.678884-69.166205-1.672462-68.599269-30.472816-130.820507-75.997786-176.345477zM304.302956 52.186469c-68.570922 1.700808-130.79216 30.472816-176.317129 75.997785s-74.296977 107.746208-75.997786 176.345477c-0.595283 24.718414 3.316576 47.821061 11.678884 69.166205 8.362308 21.288451 21.20341 40.847747 38.494962 58.5645 17.319898 17.7451 36.567379 31.068099 57.600709 39.940649 21.004983 8.87255 43.994242 13.322999 68.85439 13.322999h214.55697c11.593843 0 22.138855-4.733917 29.764146-12.387554 7.625291-7.625291 12.359207-18.141955 12.359207-29.735799V228.815414c0-24.831802-4.450448-47.821061-13.294651-68.826044-8.87255-21.061676-22.195549-40.309157-39.940649-57.600709-17.716753-17.291551-37.304396-30.161001-58.592847-38.523308-21.316798-8.362308-44.419444-12.274167-69.166206-11.678884zM111.459639 111.658067c49.578563-49.550216 117.412468-80.901783 192.304728-82.744325 27.921603-0.680323 54.057358 3.770125 78.208836 13.237958 24.179825 9.49618 46.347027 24.038091 66.331525 43.540693 19.956151 19.474255 35.036652 41.272949 45.128114 65.254346 10.148156 24.038091 15.222235 50.032112 15.222235 77.868675v214.585317c0 18.028568-7.341823 34.413022-19.190787 46.261986-11.877311 11.877311-28.233418 19.219134-46.290334 19.219134H228.616986c-27.836563 0-53.85893-5.102425-77.868675-15.222234-23.981397-10.11981-45.808438-25.171963-65.282693-45.156461-19.502602-19.956151-34.016167-42.123353-43.512346-66.331525-9.49618-24.151478-13.918281-50.258886-13.237958-78.208836 1.842542-74.863913 33.165762-142.726165 82.744325-192.304728z" fill="" p-id="3560"></path></svg>