<?xml version="1.0" encoding="utf-8"?>
<!-- Generator: Adobe Illustrator 23.0.0, SVG Export Plug-In . SVG Version: 6.00 Build 0)  -->
<svg version="1.0" id="图层_1" xmlns="http://www.w3.org/2000/svg" xmlns:xlink="http://www.w3.org/1999/xlink" x="0px" y="0px"
	 viewBox="0 0 400 400" style="enable-background:new 0 0 400 400;" xml:space="preserve">
<style type="text/css">
	.st0{fill:#302C91;}
	.st1{fill:#6995ED;}
	.st2{fill:#C1D4F4;}
	.st3{fill:#56BCEF;}
	.st4{fill:#B0E3F7;}
	.st5{fill:url(#SVGID_1_);}
	.st6{fill:#C6D7E5;}
	.st7{clip-path:url(#SVGID_3_);fill:#148AE2;}
	.st8{clip-path:url(#SVGID_5_);fill:#F22727;}
	.st9{fill:#FFFFFF;}
	.st10{font-family:'Impact';}
	.st11{font-size:15.1707px;}
	.st12{fill:none;stroke:#BAC4D3;stroke-width:7;stroke-linecap:round;stroke-miterlimit:10;}
	.st13{fill:none;stroke:#D6DFED;stroke-width:7;stroke-linecap:round;stroke-miterlimit:10;}
	.st14{fill:#F7931E;}
	.st15{font-family:'FZCHAOZYTS--GB1-0';}
	.st16{font-size:16.4988px;}
	.st17{fill:#EF6FAF;}
	.st18{font-size:16.4695px;}
	.st19{fill:none;stroke:#7FB8EF;stroke-width:3;stroke-miterlimit:10;}
	.st20{fill:#7FB8EF;}
	.st21{fill:none;stroke:#80EDAC;stroke-width:3;stroke-miterlimit:10;}
	.st22{fill:#EF2934;}
	.st23{fill:none;stroke:#56CC8B;stroke-width:3;stroke-miterlimit:10;}
	.st24{fill:#FCE22B;}
</style>
<g>
	<path class="st0" d="M62.74,299.76h-7.75c-2.19,0-3.99-1.79-3.99-3.99l0,0c0-2.19,1.79-3.99,3.99-3.99h7.75
		c2.19,0,3.99,1.79,3.99,3.99l0,0C66.72,297.96,64.93,299.76,62.74,299.76z"/>
	<path class="st1" d="M114.9,321.52h-44.2c-2.19,0-3.99-1.79-3.99-3.99v0c0-2.19,1.79-3.99,3.99-3.99h44.2
		c2.19,0,3.99,1.79,3.99,3.99v0C118.89,319.72,117.1,321.52,114.9,321.52z"/>
	<path class="st1" d="M279.98,321.52H127.16c-2.19,0-3.99-1.79-3.99-3.99v0c0-2.19,1.79-3.99,3.99-3.99h152.82
		c2.19,0,3.99,1.79,3.99,3.99v0C283.97,319.72,282.17,321.52,279.98,321.52z"/>
	<path class="st1" d="M326.43,321.52h-32.76c-2.19,0-3.99-1.79-3.99-3.99v0c0-2.19,1.79-3.99,3.99-3.99h32.76
		c2.19,0,3.99,1.79,3.99,3.99v0C330.42,319.72,328.62,321.52,326.43,321.52z"/>
	<g>
		<path class="st2" d="M113.47,342h-12.03c-2.19,0-3.99-1.79-3.99-3.99l0,0c0-2.19,1.79-3.99,3.99-3.99h12.03
			c2.19,0,3.99,1.79,3.99,3.99l0,0C117.45,340.21,115.66,342,113.47,342z"/>
		<path class="st2" d="M214.8,342h-89.02c-2.19,0-3.99-1.79-3.99-3.99l0,0c0-2.19,1.79-3.99,3.99-3.99h89.02
			c2.19,0,3.99,1.79,3.99,3.99l0,0C218.78,340.21,216.99,342,214.8,342z"/>
		<path class="st2" d="M272.8,342h-44.87c-2.19,0-3.99-1.79-3.99-3.99l0,0c0-2.19,1.79-3.99,3.99-3.99h44.87
			c2.19,0,3.99,1.79,3.99,3.99l0,0C276.78,340.21,274.99,342,272.8,342z"/>
		<path class="st2" d="M292.13,342h-4.88c-2.19,0-3.99-1.79-3.99-3.99l0,0c0-2.19,1.79-3.99,3.99-3.99h4.88
			c2.19,0,3.99,1.79,3.99,3.99l0,0C296.12,340.21,294.32,342,292.13,342z"/>
	</g>
	<path class="st0" d="M125.62,299.76H75.71c-2.19,0-3.99-1.79-3.99-3.99l0,0c0-2.19,1.79-3.99,3.99-3.99h49.91
		c2.19,0,3.99,1.79,3.99,3.99l0,0C129.61,297.96,127.82,299.76,125.62,299.76z"/>
	<path class="st0" d="M350.01,299.76h-48.48c-2.19,0-3.99-1.79-3.99-3.99l0,0c0-2.19,1.79-3.99,3.99-3.99h48.48
		c2.19,0,3.99,1.79,3.99,3.99l0,0C354,297.96,352.21,299.76,350.01,299.76z"/>
	<path class="st0" d="M287.13,299.76H137.88c-2.19,0-3.99-1.79-3.99-3.99l0,0c0-2.19,1.79-3.99,3.99-3.99h149.25
		c2.19,0,3.99,1.79,3.99,3.99l0,0C291.11,297.96,289.32,299.76,287.13,299.76z"/>
	<path class="st3" d="M216.08,78.02h-26.09c-2.73,0-5.36,1.4-7.29,3.88L87.75,203.87c-2.17,2.79-0.64,7.57,2.43,7.57h125.9V78.02z"
		/>
	<path class="st4" d="M216.08,78.02h13.83c2.78,0,5.4,2.1,7.07,5.67l56.44,120.66c1.37,2.92,0.07,7.09-2.21,7.09h-75.13V78.02z"/>
	<linearGradient id="SVGID_1_" gradientUnits="userSpaceOnUse" x1="210.3609" y1="152.981" x2="218.9363" y2="152.981">
		<stop  offset="0.06" style="stop-color:#D6DFED"/>
		<stop  offset="0.8452" style="stop-color:#C9D8E6"/>
		<stop  offset="1" style="stop-color:#C6D7E5"/>
	</linearGradient>
	<path class="st5" d="M214.65,240.14L214.65,240.14c-2.36,0-4.29-1.93-4.29-4.29V70.11c0-2.36,1.93-4.29,4.29-4.29h0
		c2.36,0,4.29,1.93,4.29,4.29v165.74C218.94,238.21,217.01,240.14,214.65,240.14z"/>
	<path class="st6" d="M283.47,278.16H107.46c-1.66,0-3.04-0.94-3.17-2.16l-4.69-43.67c-0.09-0.82,0.79-1.52,1.9-1.52h205.57
		c1.33,0,2.25,0.98,1.78,1.9l-22.41,43.92C285.98,277.55,284.8,278.16,283.47,278.16z"/>
	<g>
		<defs>
			<path id="SVGID_2_" d="M301.01,290.35H109.58c-1.8,0-3.3-0.94-3.45-2.16l-5.1-43.67c-0.1-0.82,0.86-1.52,2.07-1.52h223.58
				c1.45,0,2.45,0.98,1.94,1.9l-24.37,43.92C303.74,289.75,302.45,290.35,301.01,290.35z"/>
		</defs>
		<clipPath id="SVGID_3_">
			<use xlink:href="#SVGID_2_"  style="overflow:visible;"/>
		</clipPath>
		<polygon class="st7" points="204.65,266.68 99.72,266.68 99.72,254.48 210.01,254.48 		"/>
	</g>
	<g>
		<defs>
			<path id="SVGID_4_" d="M293.15,278.16h-185c-1.8,0-3.3-0.94-3.45-2.16l-5.1-43.67c-0.1-0.82,0.86-1.52,2.07-1.52h223.58
				c1.45,0,2.45,0.98,1.94,1.9l-24.37,43.92C302.31,277.55,294.59,278.16,293.15,278.16z"/>
		</defs>
		<clipPath id="SVGID_5_">
			<use xlink:href="#SVGID_4_"  style="overflow:visible;"/>
		</clipPath>
		<polygon class="st8" points="232.14,254.48 95.31,254.48 95.31,242.29 239.13,242.29 		"/>
	</g>
	<text transform="matrix(0.9726 0 -0.2547 0.967 111.2661 258.7772)" class="st9 st10 st11">SUMMER.30</text>
	<g>
		<path class="st12" d="M66.72,166.09c0,0,0.49-14.9,12.86-14.9"/>
		<path class="st12" d="M66.72,166.58c0,0-0.49-14.9-12.86-14.9"/>
	</g>
	<g>
		<path class="st13" d="M106.19,84.82c0,0,0.32-9.67,8.35-9.67"/>
		<path class="st13" d="M104.9,85.19c0,0-0.37-11.11-9.59-11.11"/>
	</g>
	<g>
		<path class="st13" d="M322.14,174.49c0,0,0.37-11.11,9.59-11.11"/>
		<path class="st13" d="M322.14,174.86c0,0-0.37-11.11-9.59-11.11"/>
	</g>
	<text transform="matrix(0.9962 0 0 1 312.5928 116.3257)" class="st14 st15 st16">+</text>
	<text transform="matrix(0.7274 -0.6859 0.6833 0.7302 148.1319 65.4946)" class="st17 st15 st18">+</text>
	<ellipse class="st19" cx="277.54" cy="100.26" rx="3.93" ry="3.95"/>
	<ellipse class="st20" cx="107.1" cy="119.98" rx="3.93" ry="3.95"/>
	<ellipse class="st21" cx="129.61" cy="100.26" rx="7.5" ry="7.53"/>
	<ellipse class="st22" cx="287.18" cy="142.94" rx="1.79" ry="1.79"/>
	<ellipse class="st23" cx="328.81" cy="137.38" rx="4.11" ry="4.12"/>
	<g>
		<path class="st24" d="M262.9,52.52L262.9,52.52c-0.67,0-1.21-0.55-1.21-1.21v-10.1c0-0.67,0.55-1.21,1.21-1.21l0,0
			c0.67,0,1.21,0.55,1.21,1.21v10.1C264.11,51.98,263.56,52.52,262.9,52.52z"/>
		<path class="st24" d="M262.9,68.69L262.9,68.69c-0.67,0-1.21-0.55-1.21-1.21v-10.1c0-0.67,0.55-1.21,1.21-1.21l0,0
			c0.67,0,1.21,0.55,1.21,1.21v10.1C264.11,68.15,263.56,68.69,262.9,68.69z"/>
	</g>
	<g>
		<path class="st24" d="M261.42,54.35L261.42,54.35c0,0.67-0.55,1.22-1.22,1.22h-10.04c-0.67,0-1.22-0.55-1.22-1.22v0
			c0-0.67,0.55-1.22,1.22-1.22h10.04C260.88,53.13,261.42,53.68,261.42,54.35z"/>
		<path class="st24" d="M277.54,54.35L277.54,54.35c0,0.67-0.55,1.22-1.22,1.22h-10.04c-0.67,0-1.22-0.55-1.22-1.22v0
			c0-0.67,0.55-1.22,1.22-1.22h10.04C276.99,53.13,277.54,53.68,277.54,54.35z"/>
	</g>
	<g>
		<path class="st24" d="M261.39,53.24L261.39,53.24c-0.49,0.45-1.26,0.43-1.71-0.07l-6.83-7.4c-0.45-0.49-0.42-1.27,0.07-1.72l0,0
			c0.49-0.45,1.26-0.43,1.71,0.07l6.83,7.4C261.91,52.01,261.88,52.79,261.39,53.24z"/>
		<path class="st24" d="M272.34,65.11L272.34,65.11c-0.49,0.45-1.26,0.43-1.71-0.07l-6.83-7.4c-0.45-0.49-0.42-1.27,0.07-1.72l0,0
			c0.49-0.45,1.26-0.43,1.71,0.07l6.83,7.4C272.86,63.88,272.83,64.66,272.34,65.11z"/>
	</g>
	<g>
		<path class="st24" d="M261.55,55.59L261.55,55.59c0.45,0.49,0.42,1.27-0.07,1.72l-7.37,6.85c-0.49,0.45-1.26,0.43-1.71-0.07h0
			c-0.45-0.49-0.42-1.27,0.07-1.72l7.37-6.85C260.33,55.07,261.1,55.1,261.55,55.59z"/>
		<path class="st24" d="M273.37,44.6L273.37,44.6c0.45,0.49,0.42,1.27-0.07,1.72l-7.37,6.85c-0.49,0.45-1.26,0.43-1.71-0.07l0,0
			c-0.45-0.49-0.42-1.27,0.07-1.72l7.37-6.85C272.15,44.08,272.92,44.11,273.37,44.6z"/>
	</g>
</g>
</svg>
