<svg xml:space="preserve" viewBox="0 0 1200 1200" y="0px" x="0px" xmlns:xlink="http://www.w3.org/1999/xlink" xmlns="http://www.w3.org/2000/svg" id="图层_1" version="1.1">
<path d="M570,1094.4c-3.7-2.1-7.9-1.4-11.9-1.8c-96.2-8.6-182.7-42-259.3-100.7c-60.5-46.4-107.7-103.9-141.7-172.1
	c-26.4-52.8-42.5-108.8-48.6-167.6c-0.7-6.6-1.2-13.2-1.8-19.9c-0.1-0.9,0.3-2.1-1-2.5c0-2.3,0-4.7,0-7c0.7-1,0.7-2,0-3
	c0-1.7,0-3.3,0-5c0.8-2,0.8-4,0-6c0-6,0-12,0-18c0.8-2,0.8-4,0-6c0-1.7,0-3.3,0-5c0.7-1,0.7-2,0-3c0-2.3,0-4.7,0-7
	c2.2-3.9,1.4-8.3,1.8-12.4c7.7-86.3,35.6-165.3,84.6-236.8c51.8-75.5,119.6-132.4,202.8-170.7c43.5-20,89-33,136.4-39.7
	c38.6-5.5,77.3-6.5,116-2.6c81.7,8.1,157.3,34.2,225.6,80c99.2,66.5,166.4,157,201,271.3c18,59.3,24.1,120.2,18.7,182
	c-8.4,97.9-42.6,185.8-103,263.1c-56.6,72.5-128.1,125.1-214,157.9c-46.9,17.9-95.5,28.3-145.7,31.2c-0.8,0-1.7-0.1-2,1
	c-1,0-2,0-3,0c-1-0.7-2-0.7-3,0c-2.3,0-4.7,0-7,0c-2.3-0.8-4.7-0.8-7,0c-5.3,0-10.7,0-16,0c-2.7-0.8-5.3-0.8-8,0c-2,0-4,0-6,0
	c-1-0.7-2-0.7-3,0C573.3,1094.4,571.7,1094.4,570,1094.4z" fill="#4D1000"></path>
<path d="M584,1094.4c2.7-1.6,5.3-1.5,8,0C589.3,1094.4,586.6,1094.4,584,1094.4z" fill="#673426"></path>
<path d="M607.9,1094.4c2.3-1.5,4.7-1.6,7,0C612.6,1094.4,610.3,1094.4,607.9,1094.4z" fill="#673326"></path>
<path d="M105.6,609c1.5,2,1.6,4,0,6C105.6,613,105.6,611,105.6,609z" fill="#663124"></path>
<path d="M105.6,585.1c1.6,2,1.5,4,0,6C105.6,589.1,105.6,587.1,105.6,585.1z" fill="#663124"></path>
<path d="M105.6,577.1c1.5,1,1.3,2,0,3C105.6,579.1,105.6,578.1,105.6,577.1z" fill="#A4857D"></path>
<path d="M575,1094.4c1-1.7,2-1.4,3,0C577,1094.4,576,1094.4,575,1094.4z" fill="#AF948D"></path>
<path d="M105.6,620c1.3,1,1.5,2,0,3C105.6,622,105.6,621,105.6,620z" fill="#A4857D"></path>
<path d="M621.9,1094.4c1-1.4,2-1.7,3,0C623.9,1094.4,622.9,1094.4,621.9,1094.4z" fill="#AF948D"></path>
<path d="M1090.4,599.6c0.5,270.5-218.7,490.2-489.8,490.8c-270.2,0.6-490.6-219-491-489.2
	c-0.3-270.9,218.8-491.3,488.6-491.6C870.3,109.4,1089.8,327.9,1090.4,599.6z" fill="#FEFEFE"></path>
<path d="M600,1080.5c-265.3,0.1-480.5-215-480.5-480.4c0-265.8,215.2-480.6,481.3-480.5
	c264.5,0.1,479.4,215.4,479.5,480.4C1080.4,865.3,865.4,1080.4,600,1080.5z" fill="#4D1000"></path>
<path d="M969.5,300.1c-42,3.2-74.5,19.3-88,62.7c-7.9-12-16.4-22.6-26.2-32.1c-32.3-31.6-71-51.4-115-60.3
	c-75.9-15.4-145.2,2.7-209.3,43.7c-46.7,29.9-84.9,69-117,113.9c-20,27.9-31.8,59.7-38.5,93.3c-6.8,33.9-7.5,68-2.7,102.3
	c0.2,1.7,1.9,4.4-2.2,4.6c-24.7,1.2-39.2,15.8-48,37.4c-0.9,2.1-1.8,4.3-2.2,6.6c-0.6,3.7-1.8,4.2-5.2,2.2
	c-18.1-10.9-36.3-21.7-54.4-32.5c-14.4-8.6-28.7-17.4-43.4-25.6c-4.3-2.4-4.5-4.6-3.3-8.9c7.4-27.2,8.6-54.5-1.7-81.4
	c-5.6-14.6-14.4-26.9-26.1-37.2c-1.8-1.6-3.4-2.6-2-5.7c18-40.5,39.4-78.8,69-112.1c4.5-5.1,9.4-9.9,14.4-14.5
	c3.3-3,3.5-5.6,0.4-8.8c-12.5-13.6-26.6-25.1-42.3-34.7c-3.6-2.2-3.4-3.7-1.1-6.6c47.8-60.1,106.2-106.9,176-139.1
	c46.9-21.6,95.9-35.4,147.3-40.7c97.5-10.1,189.7,7.2,276.4,53.2c53.8,28.6,100.2,66.4,139.5,112.9
	C965.7,294.8,968.1,296.8,969.5,300.1z" fill="#FEFEFE"></path>
<path d="M550,467.2c-0.2-6.4-0.6-7-6.8-6.9c-7.8,0.1-15.5-0.6-23.3-1.1c-3.6-0.2-4.9,1.1-5.1,4.8
	c-1,15-1.8,30-1.9,45.1c-3,2.7-3-0.6-3.1-1.8c-0.5-4.1-1.3-8.2-1.3-12.4c0.1-9.6,0-19.2,0-28.9c0-1.6,0.4-3.3-0.4-4.9
	c-2-3.6-5.9-2.5-8.8-2.7c-7.3-0.6-14.6-0.2-21.9-0.4c-3.2-0.1-4.4,1.4-4.4,4.5c-0.1,17.9-2.2,35.7-2,53.6c0,4.9-0.7,9.9-0.8,14.9
	c-0.1,3.5-2.2,3.2-4.4,2.9c-5.2-0.8-10.4-1.7-15.6-2.7c-6.1-1.1-7.1-0.3-8.2,5.8c-1.1,6.3-2.6,12.6-3.9,18.9
	c-5,24.3-12,47.8-23.1,70.1c-1.9,3.7-4,7.3-6.6,10.5c-1.6,2-3.3,3.9-6.3,2.3c-4.9-3.5-10.5-5.7-16-8c-3.3-9.9-4-20.2-5.4-30.4
	c-1.3-9.9-1-19.9-1-29.9c0-33,6.4-64.8,17.9-95.6c4-10.8,8.3-21.4,14-31.4c3-4.5,5-9.6,8.6-13.7c3.5-5.8,7.8-10.9,12.2-16.1
	c3.5-4.6,7.1-9.1,11.2-13.1c2.5-4.2,6.5-7,9.5-10.8c14-14.7,28.7-28.6,44.9-41c2.2-1.7,4.5-3.5,6.8-5.1c6.3-4.4,6.7-4.3,9,2.9
	c1.6,4.9,5.6,6,9.9,6c9.7,0,18.1-3.7,25.4-10c2.5-2.2,4.8-4.7,6.3-7.7c2.9-5.7,1.1-10.7-4.6-13c-1.4-0.6-3.8-0.4-3.7-2.6
	c0.1-2,1.9-3,3.6-3.8c10.7-5.7,21.9-10.5,33.2-14.8c25.4-9.5,51.5-15.8,78.4-18.5c19.7-1.9,39.4-2,59.2-0.4
	c23.1,1.8,45.8,6.1,68,12.6c0.6,0.2,1.3,0.4,1.9,0.7c3.5,1.7,7.4,2.6,10.9,4.4c1.4,0.8,3,1.1,4.4,2.1c1.7,0.5,3.1,1.6,4.9,1.9
	c27.7,16.7,50.8,38.2,67.7,66.1c0.9,1.4,1.5,3.3,3.4,3.1c2.1-0.2,2.6-2.1,3-4c3.2-14,9.1-26.7,19.1-37.2
	c13.1-13.8,29.9-20.6,48.2-24.1c15-2.9,15.6-2.4,16.5,12.9c0,0.7,0.1,1.3,0.1,2c0.8,3.2-1.8,3.5-3.7,4.1c-9.1,3.2-18.3,6-27.3,9.7
	c-12.9,5.3-25.7,11-36.8,19.7c-4.1,3.2-7.5,7-10.3,11.3c-7,10.8-6.9,10.5,5.2,14.1c13.6,4,26,10.6,36.8,19.9
	c10,8.1,17.2,18.5,24.1,29.1c13.6,20.5,23.4,42.5,28.2,66.7c7.7,38.7-0.5,74.3-20.6,107.6c-10.2,16.9-22.8,31.9-36.9,45.8
	c-4.6,4.5-9.5,8.8-14.6,12.9c-1.4,1.1-2.9,3.1-5.2,1.6c1.5-7.6,2.9-15.1,4.4-22.7c1.1-5.6,2.2-11.3,3.3-16.9
	c0.6-2.8-0.7-4.4-3.1-5.3c-3.2-1.3-6.4-2.7-9.6-4c-17.8-8.2-33.5-19.5-48.8-31.6c-24.9-19.7-43.9-44.2-58.8-72
	c-1.5-2.8-3.2-5.5-4.7-8.2c-1.7-3-1.3-5.6,0.8-8.3c14.8-18.7,24.2-40,30.3-62.8c0.8-3,2.3-5.8,3.2-8.8c0.7-2,1.4-4,2.2-6
	c0.7-1.8,1.5-3.7-0.9-4.6c-2.2-0.9-3.4,0.9-4.1,2.6c-1.8,5-4.6,9.5-7.2,14c-8.7,12-20.1,21.2-31.5,30.3
	c-41.3,32.7-87.9,54.7-138.7,67.8c-25.8,6.6-52,10.9-78.7,11.8c-6.3,0.2-7-0.4-8-6.8c-2.8-19.2-6.1-38.4-8.1-57.7
	C550.3,472.8,551.1,469.9,550,467.2z" fill="#732E59"></path>
<path d="M434.1,625c2.2-15.8,4.4-31.5,6.8-47.3c1.9-12.5,4.1-24.9,6-37.4c0.5-3.1,1.5-3.8,4.5-3.1
	c4.5,1,9.2,1.6,13.8,2.2c3.5,0.4,5.6,1.5,4.7,5.6c-0.7,3.3,1,5,4.3,5.2c3.5,1.2,7.2,0.2,10.7,0.6c1.5,0.2,3.3-0.9,4.5,1
	c-1.4,1.9-3.5,0.3-5.1,1.2c6.2-1.5,12.5-0.2,18.7-1.1c0.7-0.5,1.3-1.1,1.8-1.7c2.9-4.1,2.9-4.1,7.3-0.8c0.5,0.6,1,1.3,1.7,1.7
	c10.2,1.4,20.4,1.5,30.6,1.7c5.8,0.1,11.5,0.1,16.9,2.4c14.6,7.2,26.7,17.8,38.1,29.2c1.6,1.6,3.1,3.4,4.8,5.1
	c1.1,1.1,2.3,2.7,4.2,1.7c2.1-1.1,1.5-3,0.9-4.8c-2.8-8.5-6.2-16.8-10.5-24.7c-0.6-1.2-1.1-2.4-1.7-3.6c0.3-3.8,3.4-3.1,5.6-3.2
	c8.8-0.3,17.6-0.2,26.4-0.9c29.7-2.5,58.4-8.6,85.9-20.3c16.6-7.1,32-16.2,46.2-27.4c4.9-3.9,6.8-3.3,8.7,2.7
	c5.4,16.7,13.6,32.1,22.8,47c1.3,2.2,3.5,4.2,2,7.2c-1.7,2.3-4.4,2.8-6.9,3.8c-20.6,8.1-39.5,18.9-55.2,34.8c-1.2,1.2-2.9,2.2-3,4.5
	c2,1.3,3.5-0.1,5-0.9c13-6.9,26.8-11.6,41-15.2c5.8-1.4,11.7-2.3,17.7-2.4c6.5,0,13,0.1,19.5,0c3.9-0.1,7.1,1.2,9.9,3.9
	c19.6,18.4,42.4,30.8,68.6,36.9c1,0.2,1.9,0.5,2.9,0.7c5,1.5,5.7,2.5,4.7,7.5c-2.2,11.4-4.6,22.8-6.9,34.2
	c-5.1,24.8-10,49.6-14.9,74.4c-3,15.3-10.8,21.1-26.3,19.4c-0.5-0.1-1,0-1.5,0c-4.9-1.8-8.1-5.3-10.3-9.9c-0.1-2.4,1.8-3.8,3.1-5.5
	c7.7-9.9,13.8-20.5,16.5-32.9c2.2-6.3,5.2-12.2,7-18.6c12-41.1-15.7-87.1-57.6-95.7c-27.8-5.7-52.2,1.1-72.5,20.8
	c-9.8,9.5-16.4,21.3-19.8,34.7c-3.6,12-3,24.1-1,36.2c3.1,14.5,9.4,27.3,20.1,37.6c0.8,0.8,1.7,1.6,2.4,2.5c3,3.4,2.9,4.4-0.8,7.1
	c-1.6,1.2-3.9,1.8-4.2,4.4c2.5,1.1,3.8-0.9,5.5-1.7c5.5-2.5,10.2-7,16.8-6.7c3.5,0.7,6.9,0.4,10.4,0.3c19.4-0.6,37.7,4.3,55.4,11.8
	c1.7,0.7,3.2,1.7,5.1,1.7c5.5,1.7,9.4,5.6,12.6,10.1c2.2,4.1,5.1,7.8,6.8,12.2c3.1,7.6-0.4,13.4-8.7,14c-2.7,0.2-5.3,0.1-8,0.1
	c-3.2-0.1-3.9,1-2.4,3.8c4.1,7.3,6.8,15.2,8.1,23.5c3.5,21.9-0.6,42.4-12.3,61.2c-13.5,21.6-33.7,35-56.6,44.9
	c-22.7,9.7-46.6,14.4-71,17.4c-25.5,3.1-51.1,1.8-76.7,1.9c-5,0-9.8-2-14.8-1.9c-14.1-2.2-27.8-6.6-41.4-10.6
	c-17-5.1-33.7-11.1-49.9-18.5c-22.9-10.4-44.8-22.6-62.8-40.6c-1.5-1.5-3.2-3-3.8-5.1c-0.2-1.6-1.1-2.7-2-3.9
	c-14.7-20.2-23-42.9-25.5-67.7c-0.2-2.1-1-3.8-1.6-5.7c-1.1-10.8,0.6-21.4,1.6-32.1c0.9-10.2,1.8-20.4,3.2-30.5
	c2-11.2,2.9-22.5,3.8-33.8c0.1-1.2,0.4-2.4,1.5-3.1c2-19.5,5.3-38.8,8.1-58.2c0.1-0.8,0.4-1.6,0.6-2.4c1.2,1.3,0.5,2.9,0.5,4.4
	C434.5,628.4,435.2,626.6,434.1,625z" fill="#FEE3C8"></path>
<path d="M835.7,1014.1c-44.6,25.6-92.2,43.4-142.6,53.4c-41.5,8.2-83.4,10.8-125.5,7.9
	c-59.1-4-115.6-18.2-169.2-43.8c3.9-10.2,8.9-19.9,13.9-29.7c7.7-14.9,15.5-29.7,23-44.7c0.5-1,1.2-2,1.9-2.9c2-2.8,3.7-5.8,5.4-8.9
	c1.4-1.8,2.5-3.8,2.6-6.2c2.4-6.7,7.4-11.6,11.5-17.2c2.2-2.9,3.6-6.8,7.7-8c1.7,0.2,3.1,1.2,4.4,2.1c17,11.5,35.5,20,54.1,28.6
	c3.9,1.8,8.8,2.5,11.1,7c2.2,10.7,3.1,21.6,6.6,32.2c6.6,20,18.2,35.9,37.8,44.6c11.3,5,23.5,7.5,35.8,8.4
	c18.5,1.4,36.4-0.9,53.3-9.5c18.7-9.5,32.2-24.2,43-41.8c1.2-2,2.1-4.2,4.5-5.1c15.3-0.7,30.5-2.6,45.5-5.5
	c15.5-3,31.1-5.9,44.7-14.7c3.3-2.1,5.2-0.5,7.1,2c8.3,11.1,14.7,23.3,19.9,36.2c1.3,3.2,2.7,6.5,3.9,9.7
	C836.5,1010.3,837.2,1012.2,835.7,1014.1z" fill="#FEDA84"></path>
<path d="M974.4,305.5c48.2,61.6,79.7,130.7,94.1,207.7c7.5,40.1,9.6,80.6,6.7,121.3c-2.9,41-10.9,81-24.2,119.9
	c-1.1,3.3-2.9,5.2-6.1,6.5c-6.6,2.7-13.1,5.7-19.6,8.7c-2.3,1.1-4.3,1.6-5.8-1.2c-1.3-2.4-3.5-2.6-6.1-2.1
	c-6.5,1.3-13.1,2.3-19.6,3.6c-2.9,0.6-4.3,0.1-4-3.3c0.8-10.4-0.4-20.6-4.3-30.4c-0.7-1.7-0.1-2.7,0.9-4
	c17.7-21.6,27-47.1,33.2-73.9c6.9-30,9.6-60.5,6.8-91.2c-6.4-68.9-33.5-127.1-89-170.2c-12.2-9.4-25.6-16.8-40.5-21
	c-3.7-1-2.8-2.3-1.2-4.4c5.8-7.6,13.9-11.8,22.6-14.8c17.7-6,36-6.1,54.3-5.1c6.2,0.3,6.5-0.1,5.7-6.4c-1.6-12.2-3.1-24.4-4.7-36.6
	C973.2,307.2,972,305.8,974.4,305.5z" fill="#FEFEFE"></path>
<path d="M143.6,694c-0.6,0.7-1.2,1.3-1.8,2c-1.4,1.1-2.3,2.7-3.7,3.8c-1.8,1.3-3.2,1.4-4.3-0.9
	c-3.2-15.5-6.1-31.1-7.2-46.9c3.9-6.9,10.5-11.5,15.4-17.6c12.5-15.6,21.9-32.5,25.3-52.3c4.2-24.4-0.3-47.1-14-67.9
	c-1-1.5-1.3-3.4-2.5-4.8c-1.8-1.5-2.3-6.1-4.4-5c-2.6,1.3,0.6,4.2,1.2,6.4c1.1,4.3,2.8,8.5,3.3,13c2.1,24.6-4.5,46.3-21.8,64.4
	c-1.8,0.6-3.7,1.2-5.4-0.5c1.2-38.5,6.4-76.4,16.7-113.6c0.6-2.3,0.7-4.9,4.3-3.5c28.5,11.2,51.6,28.3,62.9,57.9
	c6.1,16,8.4,32.7,6.1,49.9c-0.7-2.5-0.7-2.5-0.4-6c-0.9,13.6-5,26.4-10,38.9c-1.3,3.2-0.4,5.2,2.4,7.1c5.2,3.6,11,6.2,16.5,9.3
	c7.4,4.1,14.4,8.9,22.1,12.5c8.1,4.3,15.7,9.3,24,13.2c6.4,2,11.5,6.3,17.1,9.5c9.5,5.5,18.7,11.3,28.2,16.6
	c3.4,1.9,4.7,4.1,3.9,7.9c-0.9,3.8,0.1,8-2.1,11.6c-2.9,5.5-7.9,9.3-12,13.8c-14.3,15.8-26.7,32.9-38.3,50.7c-1,1.5-1.6,3.4-3.5,4
	c-2.2,0.1-3.7-1.2-5.3-2.5c-32.9-26.6-66-53-98.8-79.7c-3.9-3.2-3.9-3.2-6.3,1.6C149.5,690.1,147.3,692.9,143.6,694z" fill="#FEE3C8"></path>
<path d="M406.8,944.9c7,3.6,13.2,6.9,19.5,10.2c1.9,1,1.6,2.1,0.6,3.6c-13.2,21.4-25,43.5-36.3,65.9
	c-1.8,3.6-3.7,1.7-5.5,0.7c-23.5-11.8-45.9-25.4-67-41.2C234.5,921.9,176.7,841.3,145,742c-3-9.3-5.1-18.9-7.9-28.3
	c-1-3.2-0.2-5.1,2.4-7.1c6.9-5.5,6.7-5.6,13.6,0.5c30.6,27.2,61.2,54.4,91.9,81.5c3.1,2.7,3.8,4.8,2.1,8.7
	c-7.1,16.7-11.1,34.1-11.7,52.2c-0.1,4.2,0.9,6.7,5,8.6c6.5,2.9,12.7,6.6,19.1,9.8c2.6,1.3,3.9,2.6,1.4,5
	c-8.7,8.5-6.3,17.5-2.1,27.2c19.8,46.8,59.6,72.3,111.9,71.2c12.7-0.3,25.2-1.8,37.6-4.3c4-0.8,5.1-2.4,3.3-6.2
	C409.3,956.1,407.7,951.1,406.8,944.9z" fill="#FEFEFE"></path>
<path d="M908.6,665c7-3.1,11.7-9,17.2-14c10.6-9.6,19.7-20.5,28.3-32c14.9-20.1,25.6-42.1,30.6-66.7
	c5.7-28.3,2.1-55.7-8-82.4c-9.6-25.3-24.1-47.5-42.4-67.4c-0.3-0.4-0.5-0.8-0.8-1.3c5.2,2.4,9.3,6.4,13.3,10.1
	c28.6,26.2,49,57.7,61.3,94.5c1.6,4.7,3.7,9.2,4.2,14.2c1.5,4.3,1.5,8.8,2.5,13.2c4.1,23.4,3.4,46.9,2,70.4
	c-1.5,24.9-6.9,48.9-15.9,72.2c-5.8,15-13.7,28.7-23.1,41.7c-0.7,1-1.5,1.7-2.6,2.3c-11.6-12.6-25.8-17.2-42.8-15.3
	c-12.6,1.5-23.5,6.9-35.2,13.7c1.2-5.9,2.1-10.8,3.1-15.7C903.2,690.1,905.9,677.5,908.6,665z" fill="#471330"></path>
<path d="M976.5,731c5.7,7.4,7.1,16.2,7.9,25c1.1,12.3-1.6,24.1-4.9,35.8c-1.8,11.4-7.8,20.9-13.8,30.4
	c-0.4,0.6-1.1,0.8-1.7,0.9c-0.7-0.1-1.2,0.2-1.7,0.7c-12.2,13.5-27.5,21-45.5,23.4c-8.5,1.1-16.9,1-25.3-0.5
	c-5.7-1-10.3,0.5-13.1,5.7c-2.9,5.5-4.2,11.2,0,16.8c0.3,0.4,0.4,0.9,0.5,1.4c-0.7,0.9-1.7,1-2.8,0.9c-2-0.4-3.8-1.2-5.8-1.6
	c-2.4-1.2-4.9-2.2-5.6-5.2c-1.1-4.6,1.7-8.3,2.6-12.5c1-4.5,2.3-9,3.4-13.5c0.2-5.3,1.5-10.4,2.7-15.6c2.1-9.4,4-18.9,6.1-28.3
	c2.5-11.2,9.7-19.6,18.7-26.3c13.4-10,28.9-14.7,45.5-16.1c3-0.3,5.9-0.5,9.1-1.8c-1.7-1.9-3.6-1.6-5.2-1.5
	c-22.2,2-42.8,7.9-59,24.5c-1,1.1-2.1,2.7-3.7,1.9c-1.6-0.7-1.2-2.6-0.8-4.1c1.9-7.8,1.9-16.1,5.7-23.5c1.3-4.8,2.8-9.5,3.9-14.3
	c0.8-3.6,2.8-6.2,5.9-8.1c1.9,1.9,1.4,4.7,2.2,7c2,5.3,4.8,6.4,9.4,3.4c8.4-5.4,17.5-9.5,27.2-12c10.1-2.6,20.2-2.8,30.2,1.4
	C971.7,726.9,973.5,729.7,976.5,731z" fill="#FEC6AD"></path>
<path d="M848.5,763.9c4.5-1,9.1,0.6,13.6-1c6.7-2.4,11.2-6,12.7-13.6c6.6-33.7,13.6-67.4,20.5-101.1
	c0.9-4.2,1.3-8.5,2.4-12.7c0.7-2.9,0.4-4.1-2.8-4.8c-10.9-2.4-21.4-5.7-31.6-10.4c-14.9-6.8-28.5-15.5-40.3-26.8
	c-3.4-3.2-6.8-4.9-11.5-4.7c-6.3,0.3-12.6,0-19,0c0.5-2.2,2.3-2.2,3.9-2.3c11.6-0.4,23.2-0.4,34.6,2.2c1.6,0.4,3.3,0.8,4.3,2.2
	c18.9,5.3,34.5,17.6,52.5,24.8c6.3,2.5,12.5,5.4,19,7.5c3.4,1.1,3.9,2.8,3.3,5.8c-3.4,16.6-6.6,33.2-10.1,49.8
	c-3.1,15.1-6.4,30.2-9.6,45.3c-0.8,3.9-1.9,7.7-2.8,11.5c1.3,3.8-1,7.1-1.6,10.5c-5.3,27-10,54.2-16.2,81.1
	c-0.3,1.3-0.6,2.6-1.3,3.7c-1.5,3.6-1.5,7.6-2.9,11.2c-0.2,0.5-0.6,0.9-1.1,1.1c-0.7,2-1.6,4-2,6.1c-2.6,12.1-9.1,22.2-16.2,32
	c-0.7,3.7-3.5,6-5.8,8.5c-19.6,21.2-43,36.6-70.1,46.3c-20.8,7.5-42.3,11.2-64.4,12.7c-34.1,2.3-67.3-2.6-100.4-10
	c-1.5-0.3-3.5-0.2-3.7-2.5c16.6,2.7,33.4,1.8,50.1,2c17.9,0.2,35.7-1.3,53.4-3.8c16.5-2.3,32.5-6,48.2-11.4
	c20.8-7.2,39.8-17.5,55.1-33.5c18.7-19.5,26.8-43.2,24.7-70c-0.8-10.8-4.3-21.2-10.1-30.5c-2.2-3.5-0.9-3.8,2.2-3.7
	c2.8,0.1,5.7,0,8.5,0c10.1,0,13.1-5,8.5-14.1c-1.9-3.7-3.9-7.2-5.9-10.8c2.3-0.7,3.3,1.2,4.5,2.4c5.3,4.8,9.8,10.4,14.3,16
	c1.1,1.4,1.8,3.3,4.1,3.6c1-2-0.4-3.4-1.4-4.8c-2.2-3.2-4.7-6-7.3-8.9C849.7,767.7,848.1,766.2,848.5,763.9z" fill="#FEC6AD"></path>
<path d="M276.3,920.7c-5.6-7-9.5-14.8-12.9-23c2.9-3.3,3.5-7.8,5.2-11.7c6.6-15.7,16.4-29.2,27.3-42
	c7.9-9.2,16.1-18.1,25.6-25.7c2.2-2,4.9-3.3,6.8-5.6c1.2-1.3,2.5-2.2,4.3-1c1.1,0.8,1.1,1.8,0.9,3.1c-1.5,11.2,2.1,20.8,9.7,29
	c2.2,3,4.3,5.9,6.6,8.8c6.7,8.6,15.4,13.3,26.7,13c10-0.3,10.5,0,9.9,9.9c-1.5,25-10,47.1-29.5,63.8c-11.1,9.5-24.5,11.4-38.1,8
	C302,942.9,287.7,934,276.3,920.7z" fill="#732E59"></path>
<path d="M388.3,637.8c4.1,1.1,7.7,3.2,10.9,6c1.3,1.1,2.1,2.5,2.5,4.2c1.8,8.8,3.4,17.6,2.8,26.6
	c-0.4,5.3-1.8,10.2-7.1,12.8c-2.6,0.9-4.4-0.7-6.3-2c-7.2-5.3-15-9.6-23.2-13.2c-2.6-1.1-5.3-2.5-8.9-2.2c2.2,4.3,7.4,3.2,9.3,6.8
	c1.6,3-0.2,5.5-1.2,8.1c-3.9,9.1-6.8,18.3-7.9,28.2c-1.5,13,1,25.1,6.4,36.8c5.4,11.6,13.9,20.6,23.3,29c2.5,2.2,5.4,3.8,8.4,5.3
	c8.9,4.3,11,15.3,4.4,23.1c-2.7,0.2-5.5-0.5-8.2,0.4c-0.7,0.2-1.5,0.3-2.2,0.4c-6.9-0.4-12.6-3.8-18.4-7.1
	c-8-4.6-14.8-10.6-21.1-17.3c-1.3-1.4-2.3-2.8-2.4-4.8c0-2-1.3-3.4-2.3-4.9c-15.9-24.6-23.4-51.3-22.2-80.7
	c1-24.5,18.2-47.5,36.9-53.4C370.6,636.9,379.4,637.2,388.3,637.8z" fill="#FEE3C8"></path>
<path d="M319.4,799.8c0.6,1,1,2.1,1.7,3c4,5.4,4,5.3-2,9.2c-12.6,8.2-23.5,18.4-33.5,29.5c-1.7,1.8-3.4,3.6-5.2,5.3
	c-1.7,1.1-3.2,0.1-4.6-0.7c-9.3-5.2-18.5-10.6-27.2-16.8c-2-1.4-4.5-2.5-4.3-5.6c2-12,6.9-23.1,11.8-34.2c0.5-1.2,1-2.4,1.5-3.7
	c0-3.7,2.1-6.6,3.8-9.6c13.4-23.9,29.7-45.6,48.2-65.8c1.9-2.1,3.9-5.8,7-4.7c3.5,1.2,1.7,5.2,2.1,8c2.1,15.1,5.7,29.7,12.3,43.5
	c2.5,5.3,2.5,5.8-2,9.1c-9.7,7.1-14.3,14.8-9.7,31.1C319.4,798.2,319.7,799,319.4,799.8z" fill="#FEDA84"></path>
<path d="M601.9,936.7c17.5,4.8,35.3,7.8,53.3,9.8c20.9,2.3,41.8,2.7,62.7,0.4c50.1-5.5,93.6-24.2,126.7-63.6
	c0.5-0.6,1.2-1.1,1.8-1.7c2.3-0.9,3.1,1,4.3,2.2c0.7,1.9-0.6,3.2-1.5,4.6c-8.7,10.1-18.2,19.3-28.9,27.2c-2.7,2-2.8,3.4-0.2,5.7
	c10,9,19.7,18.3,26.8,29.9c4.9,8,8.5,16.5,12.7,24.8c0.5,1,1,2.2,0.2,3.3c-0.8,0.2,1.3,2.4-1.3,1.5c-2.4-0.8,0.3,2.8-1.9,2.8
	c-2,0.2-2.5-1.4-3-2.7c-2.8-6.5-6.5-12.5-9.6-18.8c-2.1-6.6-7.9-10.7-11.1-16.5c-1.1-2-2.9-3.4-4.2-5.3c-0.9-1.4-2.1-2.5-3.2-3.6
	c-3.4-3.7-7.4-6.7-11.1-10.1c-3-2.8-5.6-3.2-9.3-1c-20,12.1-41.5,20.5-64.6,24.3c-8.9,1.5-14.3,4.2-16.7,13.5
	c-1.6,6.4-4.3,13-9.3,18c-6.6,10.2-13.1,20.4-21.8,29c-25.5,25-56.2,32.1-90.6,26.1c-12.2-2.1-24.1-5-34.6-12.1
	c-16.3-11-25-27.1-30.2-45.5c-2.5-9-3.6-18.2-4.6-27.5c-2.3-7.3-1.1-14.8-1-22.2c0-4.4-1.3-6.5-5.4-8.1
	c-14.3-5.7-28.5-11.8-41.8-19.7c-3.2-1.9-5.5-1.6-8.4,1c-4.2,3.9-7.2,9.1-12.3,12.1c-6.7,7.7-13.2,15.6-18.1,24.7
	c-1,2-2,3.9-3.3,5.7c-1.8,3.4-4.1,6.4-6,9.7c-1.1,1.1-1.4,3-3.4,2.9c-2.2-2.7,2.2-5.7-0.4-8.4c-1-2.1,0.5-3.5,1.4-4.9
	c10.3-16.3,21.7-31.8,34.7-46c3.7-4.1,3.8-4-0.9-7.2c-9.4-6.3-18.1-13.5-26.2-21.3c-2.4-2.3-4.2-5.1-6.5-7.5
	c-1.6-2.7-5.1-4.4-4.6-8.3c2.1-0.2,0-4.4,3.3-3.4c1.9-0.3,2.7,1.2,3.4,2.3c2.2,3.5,5.6,6,7.3,9.8c9.4,11,21,19.3,33.1,27
	c30.6,19.2,64.2,31,98.7,40.7C585.1,932.8,593.4,935.3,601.9,936.7z" fill="#4B0E00"></path>
<path d="M714.6,981.5c4.1-9.2,8.7-18.2,11.7-27.9c0.7-2.1,2.1-2.7,4-3c27.2-4.1,52.8-12.8,76.3-27.4
	c1.8-1.1,3.3-1.9,5.3-0.2c5,4.3,10.3,8.3,14.6,13.5c0.8,1.3,1.8,2.5,2.5,3.9c1.4,1.8,2.9,3.4,4.1,5.4c3.9,5.9,8.1,11.5,11.3,17.8
	c5.3,9.2,9.8,18.9,14.4,28.4c1,2,2.3,4.1,1.7,6.6c-7.9,5.8-16.4,10.8-25,15.5c-1.4-8.8-5.6-16.6-9.2-24.5
	c-4.4-9.8-9.8-19.1-16.5-27.6c-1.1-1.4-1.6-2.2-3.4-0.9c-13,9-28.2,12.1-43.3,15C747.3,979.1,731.1,982,714.6,981.5z" fill="#FEBB45"></path>
<path d="M276.3,920.7c8.4,7.3,17.2,14.1,27,19.3c17.4,9.2,37.2,10.4,52-1.2c11.2-8.8,18.8-20.4,23.7-33.9
	c3.9-10.8,6.3-21.9,6.3-33.5c0-3.7-1.1-5.1-4.8-4.7c-11.8,1.2-22.1-2.1-29.9-11.3c-3-3.5-6-7.1-7.3-11.7c5.3,3.6,10.6,7.3,17.3,8.1
	c10.5,1.3,19.6-1,27.4-8.3c1.5-1.4,2.6-4.9,5.4-2.9c3.2,2.2,8.6,2.3,7.9,8.7c-1.3,12.8-2.4,25.7-3,38.6c-0.5,10-0.4,20,0,30
	c0.4,13.4,1.6,26.8,6.1,39.6c1.2,3.6,0.7,4.4-3.3,5.4c-15.3,3.5-30.8,3.6-46.1,2.5c-22.8-1.6-43.5-9.5-61.2-24.6
	C287,934.8,280.9,928.5,276.3,920.7z" fill="#471330"></path>
<path d="M401.1,806.6c6-10.1,3.6-17.4-6.6-22.4c-8.3-4.1-14.4-11.2-20.2-18.2c-11.3-13.8-17.5-29.8-17-48
	c0.4-12.7,4.2-24.7,9.5-36.2c0.8-1.7,1.7-3.3,0.5-5.1c1.3-0.9,2.6-0.4,3.8,0.2c17.5,8.3,32.4,19.5,40.8,37.7
	c2.9,6.2,4.7,12.8,4.4,19.7c0,1.2-0.2,2.3-1.4,3c-2.4,16.3-3.9,32.8-3.9,49.3c0.9,1.1,0.5,2.2,0.3,3.4c-0.5,3.6-0.1,7.3-0.2,10.9
	c0,1.3,0.1,2.6-0.6,3.9c-2.6,4.7-15.4,5.9-19.5,1.9c0.8-0.1,1.5-0.2,2.3-0.3C395.9,806.1,398.5,806.1,401.1,806.6z" fill="#FEC6AD"></path>
<path d="M985.6,788.1c0.4-1.1,1.2-2.1,1.3-3.2c0.2-7.5,4.1-10.9,11.4-10.8c1.3,0,2.8,0,3.9-0.5
	c10.3-4.4,16,0.5,21.6,8.9c9.9,14.9,10.3,14.6,2.4,30.5c-12.4,24.9-26.9,48.4-43.4,70.7c-2.3,3.1-3.6,3.3-6.2,0.4
	c-3.9-4.5-8.4-8.5-13.2-12.1c-1.7-1.3-2.8-2.4-0.8-4.2c3.2-4.6,7.3-8.5,8.6-14.3c1.7-7.1,0.7-13.6-3.4-19.4
	c-2.7-3.8-2.4-6.7,0.2-10.3c5.9-7.9,9-17.3,13.7-25.8c1.2-2.9,1.6-6,2.8-8.9C984.9,788.7,985.2,788.4,985.6,788.1z" fill="#FEDA84"></path>
<path d="M791.7,296.4c-20.6-6-41.5-10.4-62.9-12.6c-19.2-1.9-38.4-2-57.7-0.7c-25,1.7-49.3,6.7-73.1,14.2
	c-16.7,5.3-32.7,12.1-48.2,20.2c-0.8,0.4-1.8,0.9-1.9,2.1c11.3,3.1,13.9,10.6,6.4,19.8c-7.3,8.9-16.9,14-28.4,14.8
	c-9.9,0.7-13.3-2.6-14.2-12.8c-6.7,3.3-12,8.3-17.7,12.6c-14.7,11.2-27.6,24.4-40.8,37.3c-2.4-1-0.3-1.9,0-2.9
	c20.9-23.5,44-44.4,69.7-62.4c33.9-23.7,70.6-41.2,111.2-49.8c55.1-11.7,108.4-6.4,159.6,17.8c0.7,0.3,1.4,0.9,2.1,1.3
	C795.1,298.2,793.3,296.8,791.7,296.4z" fill="#B896AB"></path>
<path d="M436.3,861.7c10.6,11.8,22.5,22.1,35.9,30.7c3.1,1.9,2.2,3,0.2,5.1c-15.4,15.5-28.1,33.1-39.2,51.9
	c-1.3,1.5-2.6,2-4.7,0.9c-6.8-3.8-13.8-7.4-20.7-11c-1.6-0.8-2.4-2-2.6-3.9c-2.5-22.2-2.2-44.4,0.2-66.6c4.5-2,9.3-2.4,14-3.3
	C425,864.5,430.5,862.5,436.3,861.7z" fill="#FEBB45"></path>
<path d="M239,353.4c-10,10.6-19.2,21.7-27.7,33.4c-17.8,24.4-32.7,50.5-45.2,77.9c-0.3,0.6-0.6,1.2-0.9,1.8
	c-2.8,6-2.8,6-8.9,3.1c-3.2-1.5-6.4-2.7-9.7-3.9c-2.7-1-3.4-2.2-2.5-5.2c9.3-30,21.3-58.7,36.1-86.4c0.8-1.5,1.6-2.9,2.4-4.4
	c7-12.9,7-12.9,21.4-13.3C215.8,356.2,227.3,354.8,239,353.4z" fill="#DB2345"></path>
<path d="M550,467.2c1.3,8.1,2.7,16.2,3.9,24.3c2.1,14.6,4.2,29.1,6.2,43.7c0.4,2.9,1.9,4,5.1,4
	c11.6-0.2,23.1-1.9,34.6-3.4c19.8-2.7,39.4-6.8,58.7-12.6c17.5-5.3,34.6-11.5,51.3-19.1c26.6-12,51.3-27.2,74.2-45.2
	c6.2-4.9,12.1-10.3,18-15.6c4.7-4.2,9.1-8.7,13.6-13.1c-4.4,9.9-10.9,18.6-17.6,26.9c-18.4,22.9-41.5,39.9-68,52.4
	c-18.5,8.7-37.8,15-57.7,19.9c-18.5,4.6-37.4,6.7-56.1,9.6c-5.7,0.9-11.6,0.8-17.3,1.2c-15.6,1.1-31.2,1-46.8,1.1
	c-3.8,0-5.4-0.8-5.1-5c1.4-19.3,1.2-38.7,2.9-58C550.2,474.5,550,470.9,550,467.2z" fill="#471330"></path>
<path d="M793.7,563.1c0.9-1.6,0.1-2.8-0.7-4.1c-10.3-15.9-19.3-32.5-24.8-50.7c-0.9-2.9-1.7-4.9-5.6-1.7
	c-15.2,12.5-32.2,22.1-50.3,29.6c-22.1,9.2-45.3,14.5-68.9,17.7c-13.4,1.8-27,2.7-40.6,2.2c-2.1-0.1-4.4-0.7-5.7,1.9
	c-2.7-3.7-5.3-7.5-8.4-11.8c64.8-3.9,126.7-15.2,181-53.8c1.2,3.9,2.3,7.5,3.5,11.1c6.6,19.7,17.1,37.1,30.7,52.7
	c1.5,1.7,4,3.4-0.3,4.8C800.5,563,797.5,564.8,793.7,563.1z" fill="#FEC6AD"></path>
<path d="M859.8,979.3c-9.4-22.6-22.1-42.7-41.5-58.1c-1.7-1.3-4.5-2.6-0.9-5.1c11.6-8.1,21.6-18.1,31.1-28.6
	c3.8,2.9,5.7,7.1,8.1,11c3.2,5.1,7.1,8.9,12.7,11.2c2.1,0.8,4.3,1.8,5.4,4c-0.1,16.9-1.9,33.7-4.3,50.5c-1.2,8.1-2.7,16.2-5.2,24.9
	C863,985.2,861.4,982.3,859.8,979.3z" fill="#FEBB45"></path>
<path d="M961.7,909.7c-19.6,23.9-42.1,44.7-66.1,63.9c-4.9,3.9-10,7.7-15,11.5c-0.9,0.7-1.8,1.6-3.1,1.3
	c-1.2-1.5-1-3.1-0.6-4.7c4.6-17.5,4.3-35.4,4.3-53.2c0-4.8-0.6-9.6,0.4-14.3c-0.1-0.2-0.2-0.4-0.2-0.7c0-0.1,0.1-0.2,0.2-0.3
	c-1.1-2.1,0.2-4.5-0.9-6.5c0-1.3,0-2.7,0-4c4.5,0.2,6.4,4.4,9.6,6.5c12.1,8.1,25.4,12.5,39.8,11.9c9.5-0.5,17.3-5.3,23.1-13.1
	c1.1-1.5,2.1-3.9,4.5-3.2C959.9,905.3,961.8,906.8,961.7,909.7z" fill="#732E59"></path>
<path d="M825.7,424.2c-1.9,11.3-5.5,22.2-9.9,32.7c-5.9,14.1-12.7,27.8-22.7,39.6c-1.6,1.9-2.5,3.8-0.9,6.6
	c11,19.5,22.3,38.7,37.4,55.5c19.3,21.5,42.3,38.1,66.9,52.7c2.4,1.4,4.7,3,7.1,4.5c-10.6-3.1-20.3-8.1-30-13.1
	c-15.9-8.2-31-17.9-44.7-29.5c-25.8-21.8-45-48.1-53.6-81.3c-0.4-1.7-0.7-3.2,0.8-4.5c20.5-17.6,37.4-38.1,48.9-62.7
	C825.1,424.6,825.4,424.5,825.7,424.2z" fill="#471330"></path>
<path d="M143.6,694c3.8-3.1,7-6.6,7.8-11.6c0.5-2.9,1.5-2.3,3.2-0.9c8.2,6.7,16.5,13.2,24.8,19.8
	c12.9,10.3,25.9,20.6,38.7,31c13,10.5,25.9,21.1,38.8,31.7c1.4,1.2,2.9,2.2,4.6,3c-0.5,5.8-3.6,10.4-7.2,14.6
	c-0.5,0.7-1.1,1.3-1.4,2.1c-1.1,3.4-2.6,2.9-4.8,0.8c-12.1-10.9-24.4-21.7-36.5-32.5c-20.6-18.4-41.3-36.7-61.9-55.1
	C147.9,695.2,146.3,693.4,143.6,694z" fill="#FEC6AD"></path>
<path d="M151.2,508.3c9.1,11.9,14.5,25.5,17.2,40.1c5.6,30.4-3.3,57.2-21.3,81.4c-6,8.1-12.8,15.6-20.6,22.2
	c-2.6-19.4-3.4-38.9-2.9-58.5c0.4-1.1,1.3-1.4,2.4-1.5c26.5-2,34-22.5,32.8-42.4c-0.7-12.2-3.6-23.9-7.4-35.5
	C150.8,512.2,150,510.2,151.2,508.3z" fill="#FEC6AD"></path>
<path d="M261.2,355.3c-12.7,11.2-23,24.4-32.8,38.1c-18.6,25.9-33.9,53.7-46.9,82.7c-2.8,6.2-2.5,5.7-8.3,2.8
	c-5.3-2.6-5.6-5.1-3.2-10.3c18-38,38.8-74.2,67.7-105.3c1.4-1.5,2.5-3.1,3.9-4.5c4.3-4.4,8.5-9,15.7-6.4
	C258.2,353.9,262.4,350.9,261.2,355.3z" fill="#C41939"></path>
<path d="M366.3,846.6c-17.9,0.8-31-15.8-26.8-34.1c0.2-1,0.5-1.9,0.7-2.9c-1.3-2,0.1-3.7,0.7-5.7
	c-3.6-0.3-7.2,1.7-10.7-0.2c-4-1.9-5.7-5.7-7.9-9.1c-3.4-4.3-3.4-10.1-0.2-14.9c2-0.6,2,1.2,2.5,2.2c0.7,1.5,1.6,2.6,3.4,1.9
	c1.6-0.7,2-2.1,1.8-3.7c-0.2-1.7-1.1-2.7-3-2.5c-0.9,0.1-1.9,0.6-2.8-0.1c0.4-4.6,6.1-10.3,10.2-10.2c1.5,0,2.4,0.9,3.1,2.1
	c1.4,2.2,2.9,4.4,3.9,6.8c7.4,15.4,17.3,28.9,31.6,38.4c6.3,4.2,9.6,9.6,8.1,16.7C379.4,839.3,374.5,844.9,366.3,846.6z" fill="#F36170"></path>
<path d="M323.2,779.5c-3.1,4.9-1.8,10.1-0.8,15.2c0.1,0.9,0.2,1.9,0.4,2.8c1,4-1,3.3-3.4,2.2
	c-7.2-11.9-3.3-27.3,9.1-34.6c3.1-1.9,3.6-3,1.9-6.3c-7.6-15-11.8-31-13.1-47.8c-0.1-1.3-0.2-2.7-0.4-4c0-0.3-0.3-0.5-0.6-0.9
	c-2.1,0.1-2.9,2-4.1,3.3c-21,22.5-39.4,46.8-53.4,74.3c-0.4,0.7-0.9,1.4-1.3,2.1c-1.3-1.3-3-2.3-3.2-4.3c1.6-5.3,5.2-9.5,7.2-14.6
	c13.3-21.5,28.3-41.7,45.7-60c2.6-2.8,5.4-5.3,8.2-7.9c3-0.3,2.9-2.5,3-4.7c0.1-3.3,0.2-6.5,0.4-9.8c0-0.5,0.1-1.9,1.4-1.2
	c0.4,0.2,0.4,1.1,1,3.2c0.2-3,0.3-4.7,0.4-6.3c0.3,0,0.7,0,1,0c0,2.7,0,5.3,0,8c0.1,0.3,0.1,0.6,0.2,0.8c0,12.2,0,24.5,2.1,36.6
	c0.2,1.1,0.1,2.3,0.9,3.3c1.1,1.5,2,3.1,2.4,4.9c3.8,16,11.6,30,21.2,43.1c0.5,0.7,0.9,1.4,0.8,2.3c10.9,13.4,23.7,24,41.1,27.9
	c2.6,1.4,5.4,1.1,8.2,1c9.6-0.2,11.2-2,11.3-11.5c0-2.3,0.3-4.6,0.4-6.9c1.7,5-0.3,10.3,1.1,15.3c-1,2.1-0.4,4.9-3,6.2
	c-1.2,3.2-4.1,2.8-6.6,3.1c-13.1,1.6-24.6-3.1-35.2-10c-10.9-7.2-20.7-15.7-27-27.4c-0.2-0.4-0.5-0.9-0.7-1.3
	c-5.1-8.2-8.5-8.2-14.3-0.1c-0.6,0.8-0.9,1.7-1.3,2.6C324.1,778.5,323.9,779.1,323.2,779.5z" fill="#4B0F01"></path>
<path d="M961.7,909.7c-0.9-1-1.7-2-2.6-3c-1.3-1.5-2.2-2-3.7,0.2c-10.3,15.6-26.9,18.3-43.8,13.4
	c-11.8-3.4-22.3-8.7-30.9-17.6c0.2-1.9-1-4.5,0.9-5.6c2.7-1.7,5.9-2.9,9-4c1.3-0.4,1.8,1.2,2.4,2.1c9.6,13.4,23.5,15.6,35.1,12.6
	c14.1-3.6,23.8-16.3,24.6-30.5c0.1-1.5-0.8-3.5,1.3-4.4c1.9-0.8,3.2,0.7,4.4,1.7c5.9,4.6,11.5,9.5,16.6,15c1.1,1.2,1.9,2.2,0.5,3.8
	C970.7,898.8,966.2,904.2,961.7,909.7z" fill="#471330"></path>
<path d="M975.5,719.8c0.7-3.2,3-5.5,4.8-8c13.5-19.2,22.1-40.6,28.2-63.2c8.3-31.2,8.7-62.9,7.9-94.8
	c-0.2-6.9-1.3-13.8-2-20.7c-0.2-1.4-1.4-3.1,1-3.8c2,11.9,4.3,23.8,5.4,35.8c1.4,15.6,1.3,31.2,0.3,46.7c-1,15-3.1,30-6.6,44.7
	c-5.5,23.1-13.2,45.2-26.7,65c-0.6,0.8-1.1,1.6-1.7,2.4c-3.7,4.7-3.7,4.7-7.3-0.2C977.7,722.3,976.6,721.1,975.5,719.8z" fill="#70405C"></path>
<path d="M946.6,868.8c-0.1,1.7-0.1,3.3-0.2,5c-0.5,0.1-1,0-1.4-0.3c-2-1.6-4-3.7-6.6-1.5c-2.3,1.9-2.1,4.9-1.2,7.4
	c1.1,2.8,3.2,4.2,6.4,3.1c0.6-0.2,1.3-0.2,1.9,0.2c-2,15.1-19.8,24.8-34.9,19.1c-0.6-0.5-1.4-0.9-2.1-1.3c-4.4-2.4-6.4-6.2-6.1-11.1
	c0.2-4.8,3.3-7.5,7.4-9c10.4-4,19.4-9.9,27-18.1c3-3.2,5.3-6.8,7.7-10.3c4.5-5.8,10.3-10.3,15-16c2.3-2.8,4.5-2.5,6.5,0.4
	c6,8.5,3.6,21.4-5.1,27.3c-3.2,0.6-6.4,2-9.8,1.4C947.8,864.3,946.8,865.9,946.6,868.8z" fill="#F36170"></path>
<path d="M340.3,776.6c7.4,8.7,14.8,17.5,24.3,24.1c11.2,7.6,22.9,13.5,37,12.3c2.7-0.2,5.3-0.5,7.6-2
	c2.2-0.6,3.5,0.2,3.8,2.5c1.1,7.1,3.2,13.9,6.2,20.4c1.4,2.9-0.1,4-2.3,4.8c-7.8,2.7-15.2,2-21.4-3.6c-3.5-3.2-5.4-2.3-7.9,1
	c-5.3,7-12.4,10.8-21.3,10.6c2.8-2,5.8-3.7,8.4-5.9c7.5-6.3,6.9-19.4-1.9-24.5c-14.5-8.5-23.7-22.4-31.7-36.8
	C340.6,778.6,340.6,777.5,340.3,776.6z" fill="#E11D50"></path>
<path d="M793.7,563.1c3.2-0.7,6.4-1.4,9.6-2.2c3.6,0.2,6.9,1,9.9,3.1c1.4,0.9,1.4,2,1.3,3.3
	c-10.4-2-19.5,2.8-28.6,6.2c-12,4.5-23.1,10.6-32.9,17.8c15.5-6.2,32.4-9.2,49.7-10.5c8-0.6,15.9,0.8,23.8,1.9
	c2,0.3,4.1,1.7,6.2,0.3c2.8,0.1,4.7,0.8,3.1,4.2c-1.5,3.4,3.1,0.7,2.7,3.5c-0.7,0.8-2.1,0.2-3.2,0.4c-11.8-2.2-23.5-4.2-35.6-3.3
	c-2.5,0.2-5,0-7.3,1.1c-16.7,0.9-32.2,6.3-47.4,12.7c-3.8,1.6-7.5,3.6-11.3,5.3c-2,0.9-4.2,3.3-6.2,0.7c-2.3-3,1.1-4.4,2.7-5.9
	c17-16.6,36.9-28.8,59.2-36.9C791,564.3,792.4,563.7,793.7,563.1z" fill="#4C0F01"></path>
<path d="M960.6,862.8c8-6.6,9.9-17.5,4.6-25.9c-1.3-2.1-2.5-3.2-4.4-0.7c-4.4,6.1-10.2,10.8-15.3,16.3
	c-13.4,14.2-30.5,21.4-49.2,24.9c-7.4,1.4-15.2,1.8-22.5-1.3c-2-1.7-3.8-3.7-6.7-4c-0.2-0.1-0.3-0.3-0.5-0.4
	c-0.8-2.3-2.6-4.3-1.9-7.1c1.7,1.7,3.6,3.2,5.9,4.1c1.5,1.4,3.4,1.3,5.2,1.8c0.9,0,1.8,0,2.8,0c0.4-0.4,0.8-0.6,1.4-0.7
	c0.5,0,1,0,1.5,0.1c4,0.4,8,0.6,11.9-0.2c16.3-2.5,30.7-9.2,43.4-19.7c7.9-5.2,14.1-12.3,20.1-19.5c2.2-2.6,3.9-5.7,6.8-7.7
	c6.2-8.1,10.1-17.3,14-26.6c0.6-1.5,1.3-3,1.9-4.6c2.4,1.9-0.4,4.2,0.2,6.3c2.7-0.6,1-3.5,2.8-4.3c0.2,0.2,0.3,0.4,0.5,0.6
	c0,1.2,0.3,2.4-0.4,3.5c-3.2,9.9-8,18.9-13.8,27.5c-1.9,2.7-2,4.5,0,7.4c8.3,11.8,5.4,27.7-6,35.1c-1.7-0.6-4.3-0.2-3.3-3.3
	C959.1,863.4,960,863.2,960.6,862.8z" fill="#4C0F01"></path>
<path d="M867.6,831.6c6.2-30.2,12.3-60.3,18.5-90.5c0.4-1.8,1.1-3.5,1.6-5.2c2.8-0.2,1.3-3,2.4-4.2
	c3.1,3,0.3,6.2,0.5,9.3c-1.5,0-3.9-0.2-2.8,2.2c0.8,1.6,2.1,3,1.9,5c-1.6,8.9-3.3,17.8-5.2,28c8.3-9.6,17.5-15.9,28.1-20.3
	c12-4.9,24.4-7.5,37.3-8c2-0.1,4.9-0.8,5.1,2.3c0.2,3.1-2.6,2.8-4.7,3c-15.9,0.9-31.3,4.2-45.2,12.5c-14.1,8.4-23.5,19.9-26,36.8
	c-1.8,12.3-4.7,24.4-8.4,36.3c-2.4-1.8-0.2-4.3-0.9-7.1c-3.2,5.4,0.2,11.3-2.7,16.1c-1.8-0.9-2.7-2.3-2.6-4.3
	c-0.2-0.3-0.1-0.5,0.1-0.7C866.7,839.3,866.6,835.3,867.6,831.6z" fill="#4C0F01"></path>
<path d="M873.6,874.8c7.7,3.1,15.7,2.5,23.5,1.1c17.2-3,32.3-10.8,45.8-21.9c0.8-0.6,1.7-1,2.5-1.5
	c-7.4,13-18.3,22.8-32.2,27.5c-11.8,3.9-12.8,14-3.1,20.9c0.2,0.2,0.4,0.6,0.5,0.8c-7.1-1.7-11.9-6.3-15.2-12.5
	c-1.9-3.5-3.4-3.9-6.9-1.7c-10.6,6.8-22.5,4.3-29.1-5.6c-2.9-4.3-2.6-8.1,0.9-11.7c3-3,3.8,2.3,6.2,1.6c0,0,0,0,0,0
	C868.9,872.8,871.4,873.4,873.6,874.8z" fill="#E11D50"></path>
<path d="M524,465.3c0.4,0,0.8,0,1.1-0.1c2.2,0.9,4.6,0.6,6.9,0.4c3.9-0.4,5.5,1.3,5.5,5c0,5.8,0.5,11.6-0.2,17.4
	c-0.6,5.5-0.9,10.9-0.7,16.4c0.5,11.6-1.4,23.2-1.1,34.8c0.2,7.4-0.5,7.8-7.9,7.8c-0.7,0-1.3,0-2,0c-1.6-0.1-3.2,0.2-4.7-0.6
	c-1.2-1.2-1.3-2.8-1.3-4.4c-0.1-3.1-0.2-6.2,0.4-9.3c0.2-1.1,0.6-2.2,0.6-3.4c-0.5-12.6,1.6-25.1,1-37.7c-0.4-7.6,1.5-15.1,1.1-22.8
	C522.6,467.6,523,466.3,524,465.3z" fill="#F36170"></path>
<path d="M413.2,443.2c-13,25.5-22.4,52.2-27.5,80.3c-4.3,23.6-5.8,47.4-3.7,71.5c0.9,10.6,2.3,21.1,4.2,31.6
	c0.3,1.4,0.9,2.9,0,4.4c-6-0.2-7.6-3.6-8.3-9.3c-5-37.7-3.5-74.9,5.7-111.8c6-24.3,15.2-47.4,28.4-68.7
	C413.9,441.1,413.9,442,413.2,443.2z" fill="#B897AC"></path>
<path d="M415,737.5c0.9-17.4-6.6-31-18.9-42.5c-8.4-7.9-18-14-28.8-18.2c-2.3-1-4.5-2-6.8-3c-1.7-0.7-3.8-1.4-3-3.8
	c0.8-2.7,3.1-2,5-1.3c10.7,3.9,20.6,9.1,29.7,15.9c1.2,0.9,2.5,1.6,3.7,2.5c6.4,3,10.3,8.7,14.4,14c2.6,3.3,4.6,6.9,5.9,10.7
	c1.5-3.4-0.6-7.9,2.9-10.9c3.1-0.6,2-3,2-4.8c0-9.4,1.9-18.7,1.9-28.1c0,2.6,0,5.2,0,8.2c1.9-1.3,0.2-3.3,2.3-4.5
	c0,5.1,0,9.8,0,14.6c0,0.9-0.1,1.8-0.1,2.6c-1.9,3.1-1.2,6.7-1.5,10.1c-0.7,8.1-1.7,16.2-2.5,24.4c-0.9,9.7-1.9,19.5-2.7,29.2
	c-1,11.4-2.4,22.8-2.2,34.2c0.5,7.2,3.3,14.4,1,21.7c0.2,2.7-0.4,5.2-2.9,7.3c-1-4.4,0.1-8.8,0-12.9c-0.1-12.3-2-24.5-1.2-36.8
	C413.8,756.6,415.1,747.1,415,737.5z" fill="#4B0F01"></path>
<path d="M482.3,463.4c0.7,0,1.3,0.1,2,0.1c2.5,0.5,5,0.3,7.4,0.2c3.2,0,4.8,1.6,4.5,4.6c-1.4,11.7,0.3,23.5-1.2,35.3
	c-0.9,6.8-0.4,13.6-0.3,20.4c0.1,5.7-1,11.2-1.2,16.9c-0.1,2.8-1.5,4.1-4.5,3.9c-3-0.3-6,0.3-8.9-0.3c-1.1-1.2-1-2.7-1-4.2
	c0.3-17.9,1.2-35.7,1.6-53.6C480.9,478.8,480.9,471,482.3,463.4z" fill="#F36170"></path>
<path d="M419.1,700.9c-0.6,4.4-1.3,8.8-1.9,13.2c-5.2-10.6-12.8-19.1-21.3-27c5.2-2.6,7-7.2,7.2-12.6
	c0.4-10.4-1.3-20.6-3.9-30.7c9.8,5.6,16.3,14.2,21.3,24.1c0.9,1.7,0.7,3.6,0.6,5.3C420.5,682.5,419.8,691.7,419.1,700.9z" fill="#FEC6AD"></path>
<path d="M976.5,731c-0.7,0.8-1.4,0.8-2.1,0.1c-10.5-9.3-22.9-8.6-35.2-5.8c-9.9,2.2-19.1,6.5-27.6,12.2
	c-4.9,3.3-8.5,2.1-10.7-3.5c-1.1-2.7-1.3-5.5-1.2-8.3c1.2-1.9,3-3.1,4.9-4.2c3.2,0,5.2-2.8,8-3.7c13.2-5.7,26.7-8.5,41.1-4.4
	c3.7,1.1,6.8,3.4,10.5,4.5c2.4,0.6,3.4,3.1,5.7,3.9C972.9,724.1,974.9,727.4,976.5,731z" fill="#FEE3C8"></path>
<path d="M402.2,639c3.2,0.2,4.6-2.1,6.1-4.3c9.5-13.9,14.9-29.6,19.8-45.4c3.4-11,6.7-22.1,10-33.2
	c-0.9,12.7-3.4,25.2-5.2,37.7c-2.1,15.3-4.6,30.6-6.8,46c-0.8,5.2-1.4,10.5-2,15.7c-0.1,1.2-0.2,2.5-1.4,3c-1.5,0.6-1.9-1-2.5-1.9
	C415.2,649.8,409.3,643.8,402.2,639z" fill="#471330"></path>
<path d="M252,346.2c-13.1,0.4-25.9,3.6-39,4.6c-6.1,0.4-12.2,0.6-19.8,0.7c7.2-11.1,13.6-21.5,21.3-31.1
	c1.6-0.5,2.9,0.3,4.1,1.2c7.1,5.1,14.4,10,20.5,16.4c3.1,3.2,6.3,6.3,11.3,6.5C251.3,344.4,252.6,344.7,252,346.2z" fill="#F18424"></path>
<path d="M244.3,823.7c6,6.6,14,10.4,21.4,15c4.7,3,9.4,6.2,14.7,8c-4.1,5.4-8.3,10.7-12.4,16.1
	c-1.3,1.8-2.5,2.2-4.6,1.1c-6.7-3.6-13.5-7.1-20.2-10.5c-1.8-0.9-2.6-2.2-2.5-4.4C241.2,840.6,241.6,832,244.3,823.7z" fill="#FEBB45"></path>
<path d="M891.5,367.3c2-7.1,7.5-11.1,13.1-15c16.1-11.1,34.2-17.9,52.5-24.2c4.3-1.5,9.5-1.4,12.5-5.8
	c0.9,6.6,2,13.3,2.8,19.9c0.3,2.3-0.3,3.4-3.3,3.3c-17.5-0.6-35,0.2-51.9,5.6C907.3,354.4,898.8,359.9,891.5,367.3z" fill="#47132F"></path>
<path d="M832.8,583c1,3.7-2,1.9-2.9,1.7c-3.9-0.7-7.8-1.4-11.8-1.8c-22.6-2.3-44.2,2-65.3,9.9
	c-1.1,0.4-2.2,0.8-3.3,1.1c-0.3,0.1-0.6-0.2-1.4-0.4c9.9-8,20.8-14,32.1-19.1c8.3-3.7,17-6.5,25.9-8.9c3.5-1,6-0.4,8.6,1.7
	C820.1,573.3,826.1,578.5,832.8,583z" fill="#9E4A73"></path>
<path d="M350,779c-11.2-12.6-18.2-27.4-22.9-43.4c-0.6-1.9-1.2-3.8-1.7-5.7c-2.2-2.7-1.5-6-1.9-9.1
	c-1.7-10.9-2.4-21.9-1-32.9c0,0,0,0.1,0,0.1c1.7-9.8,3.7-19.5,8.6-28.4c8.4-15.2,20.5-25.1,38.5-26.1c6.6-0.3,12.8,1.2,18.7,4.2
	c-1.4,1.8-3.4,1.3-5.1,1.1c-25.7-2.8-43.4,12.7-52.4,33.8c-5.8,13.5-4.8,27.5-3.9,41.5c1,15.2,5.8,29.5,12.4,43.1
	c3,6.1,6.2,12,10,17.7C350,776.1,352.4,777.2,350,779z" fill="#FDF6EE"></path>
<path d="M525.1,546.2c8.9-0.3,8.8-0.3,9-9.6c0.3-14.4,0.9-28.9,1.3-43.3c0.2-7.4,0.4-14.9,0.8-22.4
	c0.2-3.7-1-5.1-4.8-4.8c-2,0.1-4.3,0.9-6.2-0.8c5.7-0.6,11.2,0.4,16.8,0.7c1.9,0.1,2.5,1,2.4,2.9c-0.7,17-1.4,34.1-2.1,51.1
	c-0.3,7-0.3,13.9-0.4,20.9c-0.9,6.7-0.9,6.7-8.1,6.7c-1.6,0-3.3,0-4.9,0c-1.1,0-2.3,0-3.4-0.1C524.9,547.2,524.7,546.8,525.1,546.2z" fill="#E52A55"></path>
<path d="M480.1,544c3.5,0,7.4,1,10.3-0.3c3.8-1.7,0.8-6.3,1.9-9.4c1-2.7,0.8-5.6,0.8-8.4c-0.4-17.2,1.8-34.4,1-51.6
	c-0.1-3.1,2.7-6.4,0.1-9.1c-2.4-2.4-6.1-0.5-9.1-1.3c-0.3-0.1-0.5-0.4-0.8-0.5c5.3-0.6,10.6,0.3,15.9,0.6c3,0.2,2.9,2,2.8,4.1
	c-0.4,9.4-0.7,18.9-1.1,28.3c-0.6,14.6-1.4,29.1-1.8,43.7c-0.1,4.1-1.2,5.6-5.4,5.2c-5.1-0.5-10.3-0.4-15.4-0.5
	C479.2,544.1,479.3,543.8,480.1,544z" fill="#E52A56"></path>
<path d="M151.2,508.3c2.8,9.9,6.3,19.6,7.7,29.9c1.5,10.3,2.3,20.5-0.6,30.7c-3.9,13.6-14.6,22.6-28.7,24.1
	c-2,0.2-4,0.3-6,0.5c-0.2-7,5-0.3,6.5-2.8c-1.6-2-5.1-0.5-6.5-3.1c1.7,0.5,3.4,0.3,5-0.4c1.1-1.1,2.6-1.6,4-1.8
	c13.4-2.6,19.8-14,20.5-27.1c0.6-12-1.2-23.8-3.5-35.5c-1-5.6-3.1-10.8-5.2-16c-0.8-2-1.6-4,0.9-5.1c2.7-1.2,3.2,1.3,4.1,3
	C150.1,505.9,150.6,507.1,151.2,508.3z" fill="#4C0F02"></path>
<path d="M322.3,818.8c-17.7,16.2-33.8,33.7-46,54.5c-4.1,7-7.5,14.4-10,22.2c-0.5,1.5-0.2,3.8-2.9,2.2
	c-4.5-12.7-4.6-12.7,3.4-24.1c13.9-19.6,29.3-37.8,48.5-52.5c1.6-1.2,3.3-2.2,4.9-3.4C321.5,817,322.3,817.1,322.3,818.8z" fill="#B896AB"></path>
<path d="M436.3,861.7c-6.4,4.4-14.2,4.1-21.3,5.9c-3.1,0.8-6.3,2.1-9.7,1.2c-0.5-6.9,1.1-13.6,1.5-20.4
	c0.1-2.1,1.1-2.9,3.2-2.8c3.6,0.1,7-0.8,10-2.6c2.4-1.3,3.4-0.4,4.6,1.7c1.9,3.3,3.6,6.8,6.4,9.4
	C432.8,856.6,434.5,859.2,436.3,861.7z" fill="#FEDA84"></path>
<path d="M480.1,544c-0.3,0.3-0.5,0.5-0.8,0.8c-3.8,1.2-4.2-1-4-3.9c0.8-18.7,1.5-37.4,2.3-56.1
	c0.2-6,0.7-11.9,0.6-17.9c0-3.3,1.3-4.1,4.2-3.5c1.8,4.7,0.7,9.5,0.6,14.2c-0.5,17.5-1.3,35-1.9,52.6
	C480.9,534.8,480.8,539.4,480.1,544z" fill="#FBCFD3"></path>
<path d="M433.4,957.7c0.8-1.1,1.7-2.1,2.5-3.2c0.8-0.2,1.7-2.4,2.3,0.1c-7.1,13.7-14.2,27.3-21.2,41
	c-5.6,11.1-11.1,22.2-16.6,33.3c-0.5,1.1-1.1,2.1-2.1,2.7c-3.7-0.7-4.3-2.3-2.5-5.8c11.4-21.8,22.9-43.6,35.8-64.7
	C432.3,960.1,432.9,958.9,433.4,957.7z" fill="#FCFBFA"></path>
<path d="M252,346.2c-10.3-0.4-14.6-9.7-21.8-14.7c-5.3-3.6-10.2-7.8-15.7-11.2c1.7-4.4,3.9-5.5,8.4-2.5
	c12.9,8.6,25.3,17.6,37,29.1C256.6,347.6,254.3,346.8,252,346.2z" fill="#F7C091"></path>
<path d="M881.6,914.2c2.3,24.3,1.8,48.4-4.2,72.3c-1.8,2.6-4.2,4.4-7.5,5.8c6.4-23.6,8.7-47.2,10-71.1
	C880,918.8,879.4,916,881.6,914.2z" fill="#B895AA"></path>
<path d="M874.6,913.6c-13.4-4.1-20.3-14.6-26.2-26.2c0.8-1.2,1.5-2.5,2.3-3.7c1.1-0.1,1.9-3,2.9-1
	c4.6,8.7,12.6,12.2,21.2,14.9c-0.2,0.3-0.5,0.4-0.8,0.5c-0.2,0.1-0.9-0.1-0.6,0.3c2.1,2.3,1.1,5,1,7.6c-0.1,1.9-0.8,3.9,0.3,5.7
	C874.7,912.3,874.7,913,874.6,913.6z" fill="#FEDA84"></path>
<path d="M596.9,574.3c-11.2-10.3-23.4-19.4-36.8-27.3c6.7,0,13.4-0.1,20,0.1c2.7,0.1,4.1,2.7,5.6,4.6
	c5.1,6.2,8.9,13.2,12.3,20.4C598.7,573.4,598.5,574.2,596.9,574.3z" fill="#9E4973"></path>
<path d="M244.4,641c-14-7.2-27.8-14.5-41.2-22.8c-2.4-1.5-2.9-3.1-1.8-5.7c5.3-13,9.2-26.5,11.8-40.4
	c0.2,2.1,0.3,4.1,0.5,6.1c-0.2,11.2-2.9,22-6.3,32.6c-1,3.2-0.6,5.1,2.5,7c11.6,6.9,23,14.1,34.5,21.1c0.6,0.4,1.3,0.9,1,1.7
	C245.3,641.3,244.8,641.2,244.4,641z" fill="#FCFAFA"></path>
<path d="M508.1,461.2c1.5,1.5,0.9,3.5,0.9,5.2c-0.4,13.8,1.1,27.5,2,41.2c0.1,1.5,0.3,2.3,2,1.6
	c0.5,8.8-1.7,17.5-1,26.3c0.2,2.5-1.1,3.7-3.6,3.6c-2.7-0.1-3.6-1.6-3.3-3.9c2-16.3,1.2-32.7,2.7-49
	C508.7,477.9,508.1,469.5,508.1,461.2z" fill="#481431"></path>
<path d="M417.3,808.5c-0.1-7.3-2-14.4-1-21.7c3.7,3.1,2,7.6,2.6,11.4c3.7,22.6,11.6,43.3,25.6,61.5
	c0.8,1,2.2,1.9,0.4,3.2c-4.3-3.4-6.9-8.3-10.7-12.2C425.8,837.8,420.1,823.7,417.3,808.5z" fill="#FBF9F8"></path>
<path d="M1046.6,765.9c-3,9-6.4,17-10.3,25.5c-3.6-5.1-6.8-9.6-10-14.1c-1.2-1.6-0.4-2.4,1-3
	C1033.5,771.6,1039.6,768.9,1046.6,765.9z" fill="#FCE1C6"></path>
<path d="M521.1,533.3c0,2.9-0.1,5.9-0.1,8.8c-1.2,0.8,0.1,3.5-2.2,3.2c-1.9-0.2-1.9-2-1.8-3.6
	c0.3-13.4,1.8-26.7,1.9-40.1c-0.6-2.5-0.3-5,0.1-7.5c1.4-1.7,1.1-3.8,1-5.7c-0.3-6.6,0.7-13.2,0.6-19.8c0-1.1-0.3-2.6,1.4-2.7
	c1.7-0.1,1.6,1.4,1.5,2.5C522.3,490.1,522.3,511.7,521.1,533.3z" fill="#FCD2D7"></path>
<path d="M945.6,882.7c-3,2-5.9,2.8-8.5-0.8c-2.5-3.5-2.3-7.2-0.2-10.6c2-3.2,6-2,9.5,2.5
	C946.7,876.8,947.2,879.8,945.6,882.7z" fill="#F79DA6"></path>
<path d="M964.5,718.9c-9-3.8-18.2-6.6-28.1-6c-8.6,0.6-16.7,3.5-24.8,6c-1.1,0.1-1.5-0.3-1.1-1.3
	c2.9-1.3,5.9-2.5,8.8-3.8c2.2-0.4,4.4-0.8,6.3-1.8c0.2-0.3,0.5-0.3,0.8-0.1c1.6-1.1,3.7,0.4,5.1-1.1c7.4-1.3,14.8-1.7,22,1.1
	c1.5,0.9,3.3,1.1,4.9,2c1.7,1,3.4,2,5.1,3C964.1,717.5,965.1,717.8,964.5,718.9z" fill="#F2EBE2"></path>
<path d="M521.1,533.3c-0.6-19.7,1.7-39.4,0.9-59.2c-0.1-2.4,2.1-4.9-0.2-8.2c-1.3,5.3-0.5,9.9-0.7,14.4
	c-0.1,3.3,0,6.6,0,10c0,1.6,0.5,3.5-2,3.9c-0.5-8.9,0.8-17.8,0.9-26.7c0-3.3,2.1-2.7,4.1-2.2c-0.7,21.9-1.4,43.8-2.2,65.7
	C521.8,531.8,521.4,532.6,521.1,533.3z" fill="#F8CDD1"></path>
<path d="M860.7,998.6c-5-12-11.3-23.3-17.1-34.9c0.1-1,0.2-1.9,1.2-2.4c3.9,7.5,7.8,14.9,11.8,22.4
	c1.5,3.5,3.2,6.9,4.6,10.4C861.8,995.5,863.5,997.4,860.7,998.6z" fill="#F3DDB3"></path>
<path d="M561.1,555c-13.7-1.9-27.4-1.9-41.2-1.9c-2.8,0-5.6,0.1-7.8-2.1c8.4-1,16.6,0.7,24.9,1.1
	c3.6-0.2,8.1,2.6,10.1-3.1c0.3-0.9,1.4-0.4,2.2,0C553.3,550.9,557.6,552.1,561.1,555z" fill="#F3C2A9"></path>
<path d="M511.3,550c-3.8-4-5.6-1.2-7.2,2.1c-5,0.8-10,0.8-15,0c-3-1.8-6.3-0.5-9.5-1c-1.9-0.3-3.9,0.7-5.5-1.1
	c8.1-0.5,16.1,0.5,24.1,0.8c6.4,0.2,6.7,0,6.9-6.4c1.9-1.5,4-1.3,5.6,0.2C512.5,546.1,512.3,548.1,511.3,550z" fill="#FECFB5"></path>
<path d="M244.4,641c1.1-0.7,0.1-1.3,0-2c8.4,4,16.4,8.6,23.8,14.3c-7.2-1.2-12.7-6-18.9-9
	C247.5,643.4,246,642.1,244.4,641z" fill="#F5F0EC"></path>
<path d="M519,501.6c1.1,14.3-1.8,28.6-0.7,43c2.1-0.2,0.7-3,2.8-2.5c0,1.3,0,2.5,0,3.8c-2.6,1.5-4.9,1.1-4.7-2.1
	c0.3-3.9-0.4-7.9,0.7-11.7C517.9,522,517.5,511.7,519,501.6z" fill="#F8CDD1"></path>
<path d="M511.3,550c0.5-4.7-1.3-6.7-6.1-5.5c4.1-2.3,7.1-1.6,7.7,2.4c0.5,3,1.9,3.3,4.3,3.3
	c6.7-0.1,13.4,0.2,19.9,1.9c-8.3,0.3-16.6-0.5-24.9-1.1C511.8,550.7,511.6,550.3,511.3,550z" fill="#4C1105"></path>
<path d="M960.6,862.8c-0.4,0.6-0.7,1.1-1.1,1.7c-4,2.3-8.6,2.7-12.8,4.3c-0.6-1.7-1.2-3.3-2-5.5
	C950.2,863.8,955.4,864.3,960.6,862.8z" fill="#D9234E"></path>
<path d="M330.2,803.8c4.2-0.4,8.3-0.9,12.6-1.4c0,2.9-3.1,4.4-2.7,7.2C337.8,806.1,332.8,807,330.2,803.8z" fill="#D71D4B"></path>
<path d="M433.2,414.3c-4,5.3-8,10.6-12,15.9c-0.8-0.4-0.4-1.3-0.9-1.9c3.5-5.4,7.3-10.5,11.8-15.2
	C432.7,413.2,433.1,413.6,433.2,414.3z" fill="#996A7F"></path>
<path d="M420.3,428.3c0.8,0.4,0.9,1.1,0.9,1.9c-2.6,4.4-5.3,8.7-7.9,13.1c-0.1-0.9-0.2-1.7-1.1-2.1
	C414.2,436.5,417,432.2,420.3,428.3z" fill="#A98195"></path>
<path d="M433.2,414.3c-0.4-0.4-0.7-0.8-1.1-1.2c3.2-4.8,6.9-9.1,10.9-13.1c0.7,0.2,1.1,0.6,1.2,1.4
	C440.5,405.6,436.8,409.9,433.2,414.3z" fill="#A2778C"></path>
<path d="M444.2,401.3c-0.4-0.5-0.8-0.9-1.2-1.4c3-4.2,6.5-8,10.3-11.5c0.3,1-1.3,1.9,0,2.9
	C450.2,394.7,447.2,398,444.2,401.3z" fill="#A88094"></path>
<path d="M517.1,532.1c0,3.5,0.1,6.9-0.1,10.4c-0.2,3.4,1.2,4.1,4.1,3.4c1.3,0.1,2.7,0.2,4,0.2c0,0.3,0.1,0.6,0.1,0.8
	c-2.3,1.1-4.7,0.6-7.1,0.2c-1.6-0.2-3.3-1.1-2.9-2.7C516.5,540.5,515,536,517.1,532.1z" fill="#5E1D10"></path>
<path d="M874.7,911.7c-2.2-2.8-0.8-6-1-8.9c-0.2-2.3,0.1-4.4-3.1-4.8c1.4-0.1,2.8-0.2,4.2-0.3
	C875.7,902.3,875.1,907,874.7,911.7z" fill="#FAE48B"></path>
<path d="M791.7,296.4c1.4-0.2,3.1,0.5,4.1-1.1c3,0.7,5.5,2.3,7.8,4.2c0.2,0.9,0.1,1.3-0.9,0.9
	C798.7,299.9,795.2,298.1,791.7,296.4z" fill="#A88194"></path>
<path d="M545.3,491.9c0-6.9,0-13.7,0-20.6c0.2,0,0.3,0,0.5,0c0,6.9,0,13.8,0,20.7C545.6,492,545.5,491.9,545.3,491.9
	z" fill="#400E00"></path>
<path d="M985.6,788.1c0.2,0.3,0.1,0.5-0.1,0.7c-2,1-0.1,4.5-3,5c-1.6-3.4-0.3-6.7,0.3-10.1
	C983.9,785.1,986,785.8,985.6,788.1z" fill="#4C0F01"></path>
<path d="M528,547.1c1.9,0,3.9-0.3,5.8-0.1c4.9,0.8,8-0.6,8-6.1c0.3,7.2,0.3,7.2-6.9,7.2c-2.3,0-4.6,0-6.9,0
	c-0.3-0.2-0.5-0.4-0.4-0.7C527.8,547.2,527.9,547.1,528,547.1z" fill="#5E1D10"></path>
<path d="M1015.4,529.2c-1.4,1-0.8,2.5-1,3.8c-1.2-4.2-2-8.5-1.9-13C1015.1,522.6,1014.3,526.2,1015.4,529.2z" fill="#582027"></path>
<path d="M322.3,818.8c-0.4-0.8-1.2-0.9-2-1c2.4-2.1,4.6-4.5,8-5.2C327.9,816.2,324.6,817,322.3,818.8z" fill="#A17688"></path>
<path d="M412.2,804.8c-2.1-5-0.2-10.2-1.1-15.3c0-0.9,0-1.8,0.1-2.7C413.5,792.7,411.6,798.8,412.2,804.8z" fill="#3D0100"></path>
<path d="M133.8,698.9c4.1,3,5.1-2.6,8-2.9c-1.4,3.1-3.9,5.1-6.6,7C134.2,701.7,133.8,700.4,133.8,698.9z" fill="#EDBCA3"></path>
<path d="M403,870.8c0,4.6,0,9.1,0,13.7c-0.2,0-0.3,0-0.5,0c0-4.5,0-9,0-13.5C402.6,871,402.8,870.9,403,870.8z" fill="#410400"></path>
<path d="M910.4,717.6c0.4,0.4,0.8,0.9,1.1,1.3c-2.3,1.1-3.6,4.8-7.1,2.7C905.8,719.3,908.6,719.1,910.4,717.6z" fill="#F2E5D9"></path>
<path d="M402.5,932.6c0-3.2,0-6.5,0-9.7C403.4,926.1,403.3,929.3,402.5,932.6z" fill="#3F0300"></path>
<path d="M528,547.1c0,0.3,0,0.7,0,1c-3.3-0.4-6.7,0.9-9.9-0.8c2.4-0.1,4.7-0.2,7.1-0.2
	C526.2,547,527.1,547.1,528,547.1z" fill="#4C1105"></path>
<path d="M964.5,718.9c-0.3-0.6-0.7-1.3-1-1.9c2.9,0.6,4.5,2.7,6.2,4.9C967.2,722.1,966.4,719.6,964.5,718.9z" fill="#F0E1D2"></path>
<path d="M596.9,574.3c0.9-0.5,1-1.3,1.1-2.2c0.4,0.5,0.9,1,1.2,1.5c0.4,0.9,1.6,2.3,0,2.9
	C597.8,576.9,597.6,575.1,596.9,574.3z" fill="#792F3F"></path>
<path d="M802.7,300.4c0.3-0.3,0.6-0.6,0.9-0.9c1.6,0.7,3.3,1.4,4.9,2.1c0.1,1.7-0.8,1.4-1.8,0.9
	C805.4,301.8,804,301.1,802.7,300.4z" fill="#915E76"></path>
<path d="M925.6,711.9c-1.7,2-4,2.1-6.3,1.8C921.2,712.8,923.2,711.9,925.6,711.9z" fill="#F2E5D9"></path>
<path d="M434.1,625c2,1.8,0.6,3.9,0.3,6c-0.1-1.7-0.3-3.5-0.4-5.2C433.8,625.4,433.8,625.2,434.1,625z" fill="#FEF2D6"></path>
<path d="M261.2,355.3c0.1-2.9-3-1.4-3.9-2.9C258.7,353.2,263,350.2,261.2,355.3z" fill="#67120D"></path>
<path d="M806.7,302.4c0.6-0.3,1.2-0.6,1.8-0.9c1,0.7,2,1.4,3,2.1C809.6,304.7,808.2,303.4,806.7,302.4z" fill="#793F55"></path>
<path d="M880.6,906.7c1.8,2,0.8,4.3,0.9,6.5C879.4,911.3,880.8,908.9,880.6,906.7z" fill="#986783"></path>
<path d="M958.4,713.9c-1.9,0.1-3.6-0.5-4.9-2C955.5,711.8,957.1,712.5,958.4,713.9z" fill="#F0E1D2"></path>
<path d="M974.4,305.5c-1.3,0.7-0.3,2.1-1,2.9c-1.1-1.3-1.7-2.9-0.5-4.3C973.4,303.6,974.2,304.6,974.4,305.5z" fill="#99776E"></path>
<path d="M931.5,710.7c-1.4,1.9-3.4,1-5.1,1.1C928,711,929.6,710.4,931.5,710.7z" fill="#F2E5D9"></path>
<path d="M612.6,924.8c-28.8-4.9-55.3-15.4-79.5-31.9c-1.2-0.8-2.5-1.6-3.8-2.4c-18.9-11.9-32.5-28.7-44-47.5
	c-9.3-15.2-14.9-31.9-18.9-49.2c-8.3-35.9,18.7-63.8,49-67.5c6.5-0.8,12.4,0.5,18.5,1.6c30.1,12.1,60.6,22.7,92.2,30.4
	c18.7,4.6,37.6,4.7,56.4,5.5c19.3,0.8,38.6,0.4,57.8-1.9c33.8-4.1,57.9,18.8,63.8,42.6c2.8,11.2,2.1,22.2-2.9,32.6
	c-20,41.6-52.8,68.4-96.4,82.5c-7.4,2.4-14.9,4.4-22.7,5.2c-7.7,1.2-15.4,1.6-23.1,2.9c-6.8-1.1-13.6-1.1-20.3,0
	c-6.9,0.1-13.5-2-20.3-2.1C616.6,925.6,614.5,925.4,612.6,924.8z" fill="#4C1000"></path>
<path d="M534,728c-13.2-1.7-25.8-0.5-37.8,5.7c-22.9,11.7-33.5,34.5-28.2,60.1c8,38.7,28,70,58.9,94.4
	c0.9,0.7,1.7,1.6,2.5,2.3c-8.7-3.9-16.7-9.2-24.5-14.7c-10.2-7.1-20-14.9-28.6-23.7c-16.3-16.6-29.6-35.3-33.8-58.9
	c-4.6-25.8,6.2-55,29.8-69.8c8.7-5.5,18.5-5,28.1-4.3C512,719.9,523,724.1,534,728z" fill="#FEC6AD"></path>
<path d="M848.5,763.9c3.7,4.7,7.5,9.3,11.1,14c1.4,1.9,4,4.3,1.1,6.4c-2.7,2-3.9-1.2-5.3-3
	c-5.8-7.3-11.5-14.6-18.8-20.4c-3.1-3.6-6.7-6.8-10.8-9.2c-5-1.2-8.9-4.3-13.1-6.9c-10.3-6.3-21.7-9.1-33.5-10.3
	c-6.3-0.7-12.5,1.5-18.7,2.5c-2.3,0.3-4.5,1.2-6.9,0.8c-6.6,1.8-12.4,5.4-18.1,8.9c-1.7,1-3.6,2.5-5.1,0c-1.6-2.5,0.7-3.5,2.3-4.6
	c5.9-4.3,5.9-4.2,0.8-9.6c-10-10.6-17-22.7-19.7-37.2c-2-12.9-2.2-25.8,1-38.6c6.9-25.4,22.9-42.9,47-52.4
	c53.6-21.2,111,20.8,107.7,78.4c-0.7,12.1-4.6,23.4-9.8,34.2c-4.8,11.4-13.3,19.7-23.2,26.7c-4.9,3.4-4.9,3.4-0.4,7.5
	c1.3,1.2,3,2.2,3.5,4.1C842.5,758,845.5,761,848.5,763.9z" fill="#4C0E01"></path>
<path d="M561.7,721.8c-2.5,1.2-3.9-0.3-5.4-2c-2.3-2.7-4.1-5.9-7.4-7.7c-1.4,0.3-2-0.9-2.9-1.6
	c-1.3-2-3.2-3.3-5.3-4.5c-11-8.9-24-12.7-37.7-14.5c-7.4-1-14.5,1.1-21.7,2.1c-1.4,0.2-2.8,1.2-4.3,0.3c-12,0.8-22,6.7-32.3,12
	c-4.9,2.5-9.3,5.7-14,8.7c-1.7,1.1-3.6,2.7-5.2,0.4c-1.5-2.2,0.4-3.6,2.1-4.8c11.1-7.7,22.8-14.3,35.7-18.6c4-1.3,3.9-2.3,1.5-5.5
	c-34.7-44.5-14.6-109.1,39-125c0.6-0.2,1.3-0.2,1.9-0.2c13.8-3.2,27.7-3.2,41.6,0c27,6,51.2,31.8,56.5,59.8
	c4.1,21.5-0.1,41.2-11,59.8c-6.4,12.6-17,20.9-29.2,27.3c-5.3,2.8-5.3,2.7-2.2,7.7C562.6,717.5,564,719.6,561.7,721.8z" fill="#4B0E01"></path>
<path d="M625.9,681.9c-3.3,4.8-4.5,10.3-5.9,15.7c-0.5,1.8-1.2,3.3-3.3,2.9c-1.8-0.3-2.4-1.9-2-3.4
	c2.8-13.4,7.6-25.7,20.9-32.2c17.3-8.5,39.5,2.3,46.3,22.2c1.6,4.6,2.2,9.4,2.7,14.2c0.2,2.1-0.1,4-1.6,5.5c-5.3,1.9-5-2.5-5.2-5.2
	c-0.6-9.1-3.9-17.3-8.7-24.9c-1.3-1.8-2.5-3.6-5-3.8c-3.3,0-5.8-2.1-8.7-3c-9.5-3-18.4-0.5-25,7.3
	C628.9,678.9,627.7,680.7,625.9,681.9z" fill="#4D1003"></path>
<path d="M669,676.8c7.6,6.7,9.2,15.7,10,25.1c0.2,2.7,0.3,5.1,3.9,5c-0.2,0.5-0.4,0.9-0.6,1.4
	c-3.6,14.7-13.2,20.4-29.6,16.8c2.2-1.7,3.9-3.1,5.7-4.3c12.6-8.6,17.2-21.6,12.8-36.3C670.4,681.8,669.7,679.3,669,676.8z" fill="#FEC6AD"></path>
<path d="M546.8,710c0.7,0.7,1.4,1.4,2.2,2.1c-0.1,1.1-0.5,1.4-1.6,0.7c-15.6-9.6-32.9-14.2-50.8-16.7
	c-4.9-0.7-9.9-0.7-14.8-1.1c-1.6-0.1-3.4,0.5-4.7-1c23.7-7.6,45.4-3.7,65,11.7C543.6,707.2,545.2,708.6,546.8,710z" fill="#FDFCFC"></path>
<path d="M753.6,737.7c17.3-6.8,34.4-5.4,51.3,1.6c7.5,3.1,14.3,7.7,20.9,12.4c-3,2.2-4.8-0.9-7-1.7
	c-19.1-7.7-38.8-12.2-59.6-11.1C757.4,738.9,755.2,739.6,753.6,737.7z" fill="#FCFBFA"></path>
<path d="M561.7,721.8c1.6-4.3-2.1-6.2-4.1-8.8c-1.3-1.7-1.8-2.8,0.5-3.7c14.5-6,25.4-16.2,34.6-28.6
	C587,697.7,576.6,711.5,561.7,721.8z" fill="#FDC6AD"></path>
<path d="M839.5,755.1c-2.7-2.1-5.4-4.4-8.2-6.4c-2.1-1.5-1.6-2.4,0.3-3.5c11.8-7,20.6-17,27.9-28.4
	c-2.4,12.6-8.9,23.2-16.5,33.2C841.9,751.6,840,752.9,839.5,755.1z" fill="#FDC5AD"></path>
<path d="M625.9,681.9c4.8-11.3,19.5-19.7,34.2-11c1.3,0.7,2.6,1.4,3.9,2c-4.6,0.9-8.8-1.7-13.4-1.2
	c-2,0.2-3.4-0.2-3.6,2.5c-0.3,4.3-3.2,6.7-7,8.2c-4.5,1.7-7,0.6-8.7-3.7C629.2,679.3,628.4,682.1,625.9,681.9z" fill="#FDFCFC"></path>
<path d="M612.6,924.8c8.8,0.6,17.6,1.2,26.3,1.8c6.6-0.7,13.2-0.7,19.9,0c7.8-0.6,15.6-1.2,23.3-1.8
	c-5.6,2.2-11.7,1.1-17.3,2.8c-1.5,1.4-3.4,1.1-5.2,1.1c-7.7,0-15.5-0.1-23.2,0.1c-3.4,0.1-6.2-1.9-9.5-1.9
	C622.1,926.3,617.2,926.8,612.6,924.8z" fill="#622917"></path>
<path d="M547.3,561c-3.2,0.8-6.3-0.4-9.2-1c-10.9-2.2-21.6,0.5-32.3,1C519.6,556.7,533.5,556.7,547.3,561z" fill="#4E1107"></path>
<path d="M421.3,723.4c-0.2-10.8,2.5-21.3,1.9-32.1c-0.1-1.4,0.6-2.2,2-2.3C424.6,700.5,423.4,712,421.3,723.4z" fill="#4D1000"></path>
<path d="M714.7,656.6c-0.5,8.3-2.4,16.5-2,24.9c0.2,4.6,1.8,9,1,13.7C710.5,682.2,710.6,669.4,714.7,656.6z" fill="#4E1207"></path>
<path d="M626.9,926.8c12.6,1.4,25.3,0.8,37.9,0.8c0,0.3,0,0.7-0.1,1c-11.3,0.9-22.5,0.9-33.8,0
	C629.7,928,628.3,927.4,626.9,926.8z" fill="#D6B39B"></path>
<path d="M631,928.6c11.3,0,22.5,0,33.8,0c0.6,0.1,1.3,0.1,2,0.2c0,0.3,0,0.6,0,0.8c-3.1,0-6.2,0-9.3,0
	c-8.9,0-17.8,0-26.7,0c-0.3,0-0.5-0.2-0.8-0.4C630.3,929,630.7,928.8,631,928.6z" fill="#FAEACF"></path>
<path d="M489.1,552.1c5,0,10,0,15,0c-6.9,2.3-13.9,0.3-20.8,0.8C485.1,551.7,487.2,552.3,489.1,552.1z" fill="#FEEDD2"></path>
<path d="M870.9,686.6c0-6.2,0-12.4,0-18.6c0.2,0,0.3,0,0.5,0c0,6.2,0,12.5,0,18.7
	C871.2,686.7,871.1,686.7,870.9,686.6z" fill="#FEEFD3"></path>
<path d="M652.7,660.7c-3.6,0-7.1,0-10.7,0c0-0.2,0-0.3,0-0.5c3.6,0,7.1,0,10.7,0
	C652.6,660.4,652.7,660.6,652.7,660.7z" fill="#FEEED2"></path>
<path d="M606.5,630.1c-0.6-2.9-0.7-4.5-0.1-6.6C607.2,625.7,607,627.3,606.5,630.1z" fill="#FEF0D5"></path>
<path d="M464.2,914.6c3.8-5.7,8.7-10.4,13.6-15.2c1.5-1.5,2.9-1.7,4.8-0.6c15.4,9,31.6,16.3,48.3,22.7
	c2,0.7,2.9,1.7,2.6,4.1c-1,8.6-0.6,17.3-0.5,25.9c-5.9-4.4-13-6.4-19.5-9.5C496.5,933.7,479.5,925.6,464.2,914.6z" fill="#FEBB45"></path>
<path d="M438.2,954.6c-0.7-1.1-1.5,0-2.3-0.1c2.1-3.3,4.2-6.6,6.3-9.9c0.8-0.2,1.2,0.1,1.1,1
	C442.3,949,440.2,951.8,438.2,954.6z" fill="#EFE9DD"></path>
<path d="M443.3,945.6c-0.4-0.3-0.7-0.7-1.1-1c1-2,1.8-4.1,3.9-5.3C446.3,941.9,445.4,944.1,443.3,945.6z" fill="#E4D4B7"></path>
<path d="M149.7,522.8c4.8,14.9,7.3,30.1,3.1,45.5c-3.1,11.3-12.1,18.1-24.1,18.9c7.3-8.3,13.1-17.5,16.8-27.9
	c2.3-6.6,3.4-13.4,4.2-20.3C150.2,533.6,150.1,528.2,149.7,522.8z" fill="#FDC6AD"></path>
<path d="M963.6,823c-7,10.8-15.1,20.7-26.1,27.8c-3.2,0.5-5,3.3-7.6,4.8c-13.4,7.9-27.5,13.6-43.1,15.1
	c-2.4,0.2-4.8-0.5-7.2,0.1c-0.3,0-0.7,0-1-0.1c-5.4-2.7-4.1-7.8-3.9-12.1c0.4-9.1,7.8-14.4,16.7-13.1c27.2,4.2,50.9-2.5,70.4-22.6
	C962.5,822.2,963.1,820.3,963.6,823z" fill="#FEE3C8"></path>
<path d="M983.3,755.9c0.1,0.8,0.2,1.6,0.2,2.4c0,2.8,0,5.6-0.7,8.4c0-3.6,0-7.2,0-10.7
	C983,755.9,983.1,755.9,983.3,755.9z" fill="#FED2B8"></path>
<path d="M875.8,870.6c-2,0.1-4,0.5-5.2-1.8C872.5,868.9,874.3,869.6,875.8,870.6z" fill="#4D1000"></path>
<path d="M867.6,831.6c-0.3,3.9,0.4,8.1-2.9,11.2C865.2,838.9,866.2,835.2,867.6,831.6z" fill="#4D1000"></path>
<path d="M401.1,806.6c-2.6,0-5.1,0-7.7,0C395.9,805.3,398.5,805.3,401.1,806.6z" fill="#FEF1D5"></path>
<path d="M688,980.8c-12.6,17.1-28.6,29.1-50,32.8c-10.4,2.3-20.8,2.4-31.1-0.3c-2.9-0.8-5.7-1.5-8.7-2
	c-13.1-6-23.4-15.2-30.5-27.7c-3.5-6.1-5-12.7-3.2-19.7c1.3-4.8,3.1-6.1,8-5c18.3,4.2,36.7,8.1,55.3,11.2c15.3,2.5,30.5,5.4,46,6.2
	c3.8,0.2,7.6,0.9,11.4,1.2C687,977.5,689.1,978,688,980.8z" fill="#FEC6AD"></path>
<path d="M688,980.8c-0.2-1.6-1.2-2.1-2.7-2.2c-7.6-0.6-15.1-1.1-22.7-2c-11.4-1.4-22.9-3-34.2-4.9
	c-19.2-3.3-38.3-7-57.2-11.8c-2.8-0.7-4.3,0.3-5.1,3.1c-2.7,9.5,0.6,17.7,6,25.1c6.2,8.5,13.6,15.8,23.4,20.3c1.1,0.5,2,1.1,2.6,2.2
	c-2.9,1.5-5.5-0.8-8.2-0.9c-16.4-5-25-17.4-30.2-32.6c-4.9-14.1-5.9-28.9-5.6-43.8c0.1-4.3,2.4-3,4.5-2.3
	c19.2,6,38.7,10.7,58.4,14.9c27.1,5.7,54.5,8.7,82.2,7.8c4-0.1,5.7,0.2,3.2,4.6C697.9,965.9,694,974,688,980.8z" fill="#FEB198"></path>
<path d="M550.1,962.5c2.2,8.5,3.9,17.1,7.9,25.1c7.8,15.4,19.4,25.9,36.8,29c17.5,4.1,35,4.5,52.5,0.1
	c17.7-4.7,31.2-15.6,42.8-29.3c0.8-1,1.8-2,2.6-3c2.9-4,7.1-3.7,11.2-2.9c1.5,0.3,2.9,1,2,3.1c-19.4,35.3-56.1,53.5-96,47.7
	c-6.2-0.9-12.5-2.2-18.6-3.6c-24.6-5.7-39.1-22.2-46.8-45.3c-3.3-9.9-5.5-20.2-5.6-30.8c0.2-3.1,2.4-2.5,4.3-2.2
	c3.1,0.5,5.7,1.6,6.3,5.3C549.8,958,548.9,960.4,550.1,962.5z" fill="#FEE6AB"></path>
<path d="M705.9,984.6c-2.7-2.8-8.5-2.9-13.2-0.1c6.4-9.3,12.4-18.9,16.9-29.3c0.9-2,8.7-3.9,10.3-2.7
	c1.5,1,0.3,2.1-0.1,3.1C716.2,965.7,711.9,975.6,705.9,984.6z" fill="#FDBF77"></path>
<path d="M550.1,962.5c-1.9-1.7-0.8-4-1.2-6c-0.8-4.1-6.3-6.2-10.1-3.8c-1.4-8.4-1-16.8-0.2-25.2
	c0.2-2.1,0.7-2.8,3.1-2.1c7,2.1,7.2,2,6.9,9.4C548.2,944.1,549.7,953.3,550.1,962.5z" fill="#FBBE76"></path>
<path d="M647.3,1016.7c-10.9,4-22.2,4.7-33.6,3.6c-6.4-0.6-12.8-1.1-18.9-3.6c7.1,0.1,14.1,1.6,21.1,2.3
	c9.2,0.8,18-0.7,27-1.9C644.4,1016.8,645.8,1016.5,647.3,1016.7z" fill="#501407"></path>
<path d="M589.8,1009.6c2.7,0.3,5.5,0.6,8.2,0.9c13.1,4.3,26.6,3.1,40,3.1c-0.4,0.3-0.7,0.6-1.1,0.9
	c-9.7,2.2-19.3,2.1-29,0C601.9,1012.6,595.5,1012.5,589.8,1009.6z" fill="#F2AD94"></path>
<path d="M844.8,961.2c-0.2,0.9-0.3,1.9-1.2,2.4c-3.7-6-7.3-12-11-17.9c-0.4-1,0.2-1.2,1-1.1
	C837.5,950.1,842.4,954.8,844.8,961.2z" fill="#F4DFB7"></path>
<path d="M607.9,1014.5c9.7,0.8,19.3,1.2,29,0C627.3,1017.7,617.6,1017.7,607.9,1014.5z" fill="#501407"></path>
<path d="M676.3,951.8c8.8,0,17.5,0,26.3,0c0,0.2,0,0.3,0,0.5c-8.9,0-17.8,0-26.7,0
	C676.1,952.1,676.2,952,676.3,951.8z" fill="#410500"></path>
<ellipse ry="14.6" rx="0.3" cy="941.2" cx="552.5" fill="#3F0300"></ellipse>
<path d="M630.6,1037.4c-4.1,0-8.2,0-12.3,0c0-0.2,0-0.3,0-0.5c4.2,0,8.3,0,12.5,0
	C630.7,1037,630.6,1037.2,630.6,1037.4z" fill="#410200"></path>
<path d="M833.5,944.6c-0.3,0.4-0.6,0.7-1,1.1c-1.8-1.4-2.7-3.4-3.9-5.2c-0.1-0.6,0.1-0.9,0.8-0.8
	C830.5,941.6,833.2,942.1,833.5,944.6z" fill="#EDD3A7"></path>
<path d="M829.5,939.7c-0.3,0.3-0.5,0.5-0.8,0.8c-1.4-1-1.9-2.4-2-4C827.9,937.3,829.1,938.1,829.5,939.7z" fill="#DEBA82"></path>
<path d="M982.5,793.8c2-1-0.3-4.8,3-5c-0.4,3.2-1.5,6.2-3,9C982.5,796.5,982.5,795.2,982.5,793.8z" fill="#4D1000"></path>
<path d="M975.2,842.8c0,3.2,0,6.4,0,9.7c-0.1,0-0.3,0-0.4,0c0-3.2,0-6.4,0-9.7C975,842.8,975.1,842.8,975.2,842.8z" fill="#FEE78D"></path>
<path d="M354.3,812c0,5-2.3,8-6.2,7.8c-4.4-0.2-4.8-3.3-4.8-6.6c-0.1-4.3,3.1-8.6,6.3-8.1
	C353.3,805.6,354.5,808.4,354.3,812z" fill="#F79EA7"></path>
<path d="M323.2,779.5c0.3-0.6,0.6-1.2,0.8-1.8c4.8-2.7,7.3-1.6,7.3,3c0,2.7-1,4.6-3.8,5c-3.1,0.4-4-1.7-4.2-4.3
	C323.3,780.9,323.2,780.2,323.2,779.5z" fill="#F598A1"></path>
<path d="M322.4,688c-1.1,14.1,0.3,28.1,2.9,41.9c-4.1-2.1-2.1-6.2-2.6-9.2c-1.9-10.1-1.6-20.4-1.4-30.6
	C321.3,689.2,321.7,688.5,322.4,688z" fill="#4D1000"></path>
<path d="M319.1,706.1c0,2.9,0,5.8,0,8.7c-0.2,0-0.3,0-0.5,0c0-2.9,0-5.8,0-8.6C318.8,706.2,318.9,706.1,319.1,706.1z" fill="#400300"></path>
<path d="M966.5,845.7c0,2.5-0.9,5-3.7,4.8c-2.6-0.2-4.2-2.3-4.3-5.2c-0.1-2.6,1.3-4.9,3.8-4.8
	C965,840.6,966.6,842.8,966.5,845.7z" fill="#F69AA3"></path>
<path d="M879.6,870.8c5.2-2.1,10.9-1.7,16.4-2.8c14.5-3,27.5-9.2,39.6-17.7c1.5-1,1.4-1.1,2,0.5
	c-5.5,5.9-12.6,9.4-19.7,12.8c-7.6,3.7-15.4,6.7-24,7.2c-4.5,0.6-9.1,0.6-13.6,0l-0.4,0.2L879.6,870.8z" fill="#F6ECE1"></path>
<path d="M880.3,870.8c4.5,0,9,0,13.6,0C889.4,871.8,884.8,872,880.3,870.8z" fill="#FEE3C8"></path>
<path d="M873.6,874.8c-2.7-0.3-5.1-1.2-7-3.1C870,870.4,871.7,872.7,873.6,874.8z" fill="#4D1000"></path>
<ellipse ry="26.5" rx="0.3" cy="574.2" cx="379.7" fill="#BE9FB2"></ellipse>
<path d="M498.3,543.1c0-7.2,0-14.5,0-21.7c0.1,0,0.3,0,0.4,0c0,7.2,0,14.5,0,21.7
	C498.6,543.1,498.5,543.1,498.3,543.1z" fill="#EF2C5B"></path>
<path d="M718.8,881.7c-16.4-12.2-33.9-22.6-53.6-28.8c-11.1-3.5-22.2-6.1-33.8-7.3c-6.6-0.7-13.2-0.9-19.8-0.9
	c-24.1,0.2-47.2,5.4-69.6,14c-2.6,1-5.3,2-7.9,3c-2.2,1.2-3.8,0-5.2-1.5c-10.9-11.3-20.7-23.4-27.9-37.5
	c-6.1-11.8-4.6-23.4,1.4-34.4c13-24.2,43.9-37.1,70.6-30.3c4,1,4.7,3.5,5.1,6.7c2.6,14.8,13.3,25.5,29.1,28.8
	c15.2,3.2,30.6,5,46,6.2c10.4,0.8,20.7,2.5,31,2.7c11.6,0.3,21.6-4,28.7-13.8c2.7-2.8,3.8,0.1,4.9,1.6c5.2,7.3,10.1,14.9,13.2,23.4
	c5,13.4,8.4,27,5,41.5c-2.1,9.1-6.2,17.2-12.6,24C722.2,880.6,721,882.2,718.8,881.7z" fill="#750727"></path>
<path d="M556.9,899.8c-11.7-4.8-21.8-12.3-31.5-20.2c-5.7-4.7-5.6-4.9,1-8c4.5-2.1,8.7-4.8,13.6-5.8
	c3.6-1.8,7.5-2.2,11.2-3.6c0.7-0.3,1.4-0.5,2-0.8c1.4-0.5,2.9-0.5,4.2-1.2c2.8-0.8,5.8-1.3,8.6-2.2c2,0,4-0.6,5.9-1.3
	c1.9-0.4,4,0,5.9-0.7c2.2-0.6,4.4-0.2,6.6-0.9c0.5-0.2,1-0.3,1.5-0.4c2.6-0.4,5.2,0,7.7-1c1.7-0.4,3.4-0.4,5.1-0.4
	c12.6-0.1,25.2-0.1,37.7,0c1.4,0,2.9,0,4.3,0.5c4.1,1.3,8.4,1.6,12.7,2c2.5,0.6,5,1.2,7.6,1.3c12.6,4.2,24.9,9.1,35.9,16.7
	c5.8,5.6,5.7,12.2-0.3,18.2c-4.3,4.2-9,7.9-14.4,10.6c-14.3,7.4-29.4,11-45.5,11.6c-22.7,0.8-44.6-3.4-66.4-9.2
	C565.7,903.7,561.5,901.2,556.9,899.8z" fill="#C50A2D"></path>
<path d="M718.8,881.7c10.5-8.9,16-20.5,16.9-34c1.4-22-7.9-40.6-20-58.2c-0.9-1.3-1.8-1.2-2.9-0.7
	c2.9-5.8,5.8-11.5,7-17.9c0.3-1.4,1-2.1,2.4-2c9.3,0.6,18.4-2.2,27.7-2.1c23.9,0.2,46.6,20.1,49.9,43.9c1.6,11-1.4,20.7-6.5,30.3
	c-8.3,16-19.7,29.4-32.8,41.5c-6.5,6-13.7,10.9-21,15.8c-1.7,1.2-2.9,0.7-4.3-0.7C729.8,892.2,724.3,887,718.8,881.7z" fill="#6C0622"></path>
<path d="M578,764.8c-2.1-8-9.5-6.4-14.6-6.7c-25.8-1.7-46.3,8.1-59.6,30.6c-6.7,11.3-7.4,23.1-0.7,35.3
	c7.4,13.3,16.9,24.9,27.2,35.9c1.1,1.1,2.1,2.1,3.8,1.8c-5,2.5-10,5-15,7.5c-2.6,1.3-4.4,0.7-6.5-1.4c-21.2-22-33.8-48.1-39.7-78.1
	c-6.3-32.3,21.7-57.3,49.6-57c9.5,0.1,17.9,2.9,26.3,6.6c8.4,3.7,16.8,7,25.6,9.7c2.9,0.9,4,2.3,3.7,5.3
	C577.8,757.8,578,761.3,578,764.8z" fill="#6C0622"></path>
<path d="M556.9,899.8c9.3,2.4,18.5,4.9,27.8,7.2c18.7,4.6,37.8,7,57,5.5c20-1.6,38.6-7.4,53.9-21.3
	c5.2-4.7,5.5-9.1,1.3-17.5c8.1,3.7,14.6,9.6,21.5,15.1c3.9,3.1,7.4,6.7,11.1,10c2,1.9,1.7,3.3-0.8,4.5
	c-15.8,8.1-32.3,13.8-49.9,16.4c-10.7,1.5-21.4,3.1-32.1,2.7c-30.1-1.1-59.2-6.9-86.3-20.6C559.1,901.2,558,900.5,556.9,899.8z" fill="#AE051A"></path>
<path d="M586.9,772.9c-1.6-2.3-2.8-4.8-3-7.6c-0.6-3.4-0.4-6.8-0.1-10.4c2.2,0.1,2.2,1.8,2.7,3
	c0,2.2,1.7,2.7,3.3,3.1c14,3.4,27.8,7.8,41.9,10.8c23.4,5,47,6.7,70.8,5.2c2.3-0.1,4,0.1,4.5,2.7c-0.7,6.8-5.5,10.2-10.9,13.1
	c-2.6,0.9-5.3,1.6-8.1,2.2c-10.1,0.4-20.2,0-30.2-1.3c-1.4,0-2.8,0-4.2-0.1c-2.5-0.8-5-1.3-7.5-0.7c-1.1,0.1-2-0.3-3-0.6
	c-6.1-1.5-12.5-1.4-18.7-2.6c-10.6-1.3-20.5-4.7-29.8-9.9c-1.2-0.7-2.2-1.7-3.5-2.2c-0.6-0.3-1.1-0.8-1.4-1.4
	C589,774.9,587.7,774.1,586.9,772.9z" fill="#FEFEFE"></path>
<path d="M585,758.8c0-0.9-0.1-1.9-0.1-2.8c-0.3,0-0.7,0-1,0c0,3.1,0,6.2,0,9.2c-0.1-0.1-0.2-0.3-0.2-0.4
	c-2.4-10.7-1.4-11.7,8.7-9c10.9,2.9,21.8,5.9,32.7,8.8c7.3,2.6,15.2,2.9,22.7,4.7c0.5,0,1,0.1,1.5,0.2c2.1,0.5,4.2,0,6.3,0.5
	c2.7,0.7,5.5,0.1,8.2,0.4c2,0.6,4,0.3,6,0.4c11.2,0.9,22.3,0.5,33.4,0c2.3,0.3,4.9-0.8,6.9,1.2c0,2.8,0.4,5.9-3.4,6.7
	c-0.8-2-2.3-1.9-4.1-1.7c-21.7,1.9-43,0-64.4-4c-16.3-3.1-32.2-7.9-48.2-11.9C588.2,760.7,586.3,760.2,585,758.8z" fill="#F7EDED"></path>
<path d="M706.8,778.8c1-2,2-4,3-6c-1.5-3.2-3.9-1-6-1c-11.6,0-23.3,0-34.9,0c-1.5-1.1-3.4,0-5-0.8
	c-3-0.1-6-0.1-9-0.2c-1.9-1.2-4.2,0.3-6.1-1l0,0c-0.3-0.2-0.4-0.4-0.3-0.7c0.1-0.2,0.2-0.3,0.3-0.3c20.5,1.7,41.1,2.1,61.6,1
	c2.9-0.2,3.8,0.7,2.9,3.8c-2.9,9.5-7.1,17.9-17.3,21.4c-0.2-0.1-0.5-0.2-0.7-0.3c-1.2-1.2-0.8-2.1,0.5-2.9c4.4-2.7,8.3-5.7,10-10.9
	C706.5,780.3,706.1,779.3,706.8,778.8z" fill="#E2C0C0"></path>
<path d="M640.7,854.8c-1.3,0-2.5-0.1-3.8-0.1c-13-1.5-26-1.3-38.9,0c-1.6,0-3.2,0.1-4.7,0.1c-2.6,1.1-5.6-0.6-8.2,1
	l0.1,0c-2.1,0.8-4.2,0.3-6.3,0.4c-0.8,0-1.8,0-1.7-1.1c0.1-0.9,1.3-0.8,2-1.3c2.2-0.4,4.2-1.8,6.6-1.2c8.1-1.3,16.4-1.3,24.5-2.3
	c10.6-0.5,21.1,1.2,31.6,2.4c1.7,2,4.9-0.8,6.4,1.9C645.7,855.6,643.2,855.3,640.7,854.8z" fill="#E9B0BA"></path>
<path d="M594,778.8c7.6,3.6,15.4,6.8,23.6,8.8c2.1,0.5,4.2,0.8,6.3,1.3c2.6,1.1,5.4,1.5,8.3,1.5
	c1.6,0,3.5-0.4,3.7,2.1c-12.3-1-24.5-2.9-36.3-6.7c-3.2-1-5.8-3-7.6-5.9c0.1-0.2,0.2-0.4,0.3-0.6C592.7,778.7,593.3,778.4,594,778.8
	z" fill="#E1BFBF"></path>
<path d="M644,791.7c0.6,0.3,1.2,0.6,1.8,0.9c1.9-0.6,3.9-0.3,5.9-0.2c1.7,1.4,3.8,0.8,5.7,0.9
	c8.6,1.3,17.3,0.9,25.9,1.5c2.8-0.2,5.8,0.6,8.5-1.1c1.6-1,2.7,0.3,4,0.9c0.1,0.1,0.3,0.2,0.4,0.4c-2.6,1.8-5.6,2-8.6,1.9
	c-16.9-0.4-33.8-1.9-50.5-4.4C639,790.1,641.6,791.5,644,791.7z" fill="#E2C0C0"></path>
<path d="M641.7,852.8c-10.6-0.2-21.1-2.5-31.8-1.9c-2.4,0.4-4.8,0.8-7.2-0.2C615.9,848.9,628.9,849.9,641.7,852.8z" fill="#DD98A3"></path>
<path d="M579,853.8c-0.3,0.4-0.7,0.7-0.9,1.1c-0.3,0.6,0,0.8,0.6,0.8c2.1,0,4.2,0,6.4,0.1c-2.2,1.1-4.6,0.9-6.9,1
	c-1.9,1.1-4.2-0.3-6.1,0.9c-1.9,0.7-3.7,1.5-5.8,1.1c-1.3,0.2-2.9,1.4-3.2-1.1c2.1-2.4,5.5,0,7.6-2.1c1.6-1,3.8,0.6,5.3-1.1
	C576.8,853.7,577.9,853.6,579,853.8z" fill="#E6A3AF"></path>
<path d="M648.9,768.9c0,0.3,0,0.7,0,1c-7.2-1.1-14.5-2.2-21.7-3.5c-0.8-0.1-1.5-1.1-2.3-1.7
	C633,766.1,640.9,767.5,648.9,768.9z" fill="#F2E4E4"></path>
<path d="M644,791.7c-2.3,0.5-4.8-0.7-7,0.8c-0.4,0-0.7,0-1.1-0.1c-1.3-2-3.3-1.7-5.2-1.7c-2.4,0-4.9,0.2-6.7-1.9
	C630.6,789.7,637.5,789.6,644,791.7z" fill="#E9D3D3"></path>
<path d="M602.8,850.6c2.4,0.1,4.8,0.2,7.2,0.2c-0.9,0.9-2.1,1-3.2,0.8c-7.1-0.9-14,1.7-21.1,0.9
	C591.2,851,597,850.6,602.8,850.6z" fill="#E6A3AF"></path>
<path d="M658.8,926.6c-6.6,0-13.2,0-19.9,0C645.6,925,652.2,925.1,658.8,926.6z" fill="#440600"></path>
<path d="M514.2,729.1c5.9,0,11.8,0,17.7,0c0,0.2,0,0.3,0,0.5c-5.9,0-11.7,0-17.6,0
	C514.3,729.4,514.3,729.3,514.2,729.1z" fill="#490C04"></path>
<path d="M640.7,854.8c2.5-0.1,4.9-0.1,7.4-0.2c1.9-0.2,3.9-0.4,5.8,0.3c0.5,0.6,0.5,1.1-0.1,1.6
	C649.4,856.3,645,856.1,640.7,854.8z" fill="#DD98A3"></path>
<path d="M552,862.7c-3.7,2-8,2.2-12,3c2.2-2.2,5.2-2.8,8-3.8C549.2,862.7,550.9,861.3,552,862.7z" fill="#BE3147"></path>
<path d="M563,857.7c0.8,1.2,2.1,0.9,3.2,1.1c-2.9,1.2-6,1.9-9.1,2.1c-1,0.3-1.3-0.2-1.1-1.1
	C558.2,858.5,560.5,857.7,563,857.7z" fill="#DE9CA6"></path>
<path d="M653.8,856.6c0-0.5,0.1-1.1,0.1-1.6c2.4,0.3,4.8,0.8,7,2C658.5,858.4,656.1,857.9,653.8,856.6z" fill="#D35F73"></path>
<path d="M742.8,763.1c3.9,0,7.8,0,11.7,0c0,0.1,0,0.3,0,0.4c-3.9,0-7.8,0-11.7,0
	C742.9,763.4,742.9,763.2,742.8,763.1z" fill="#420400"></path>
<path d="M552,862.7c-1.4-0.1-2.9,0.5-4-0.8c1.4-0.3,2.7-0.7,4.1-1c0.4,0.3,1,0.3,1.1,1
	C552.8,862.2,552.4,862.4,552,862.7z" fill="#BF6871"></path>
<path d="M553.2,861.9c-0.4-0.3-0.7-0.6-1.1-1c1.4,0.1,2.4-1.7,3.9-1.2c0.4,0.4,0.7,0.7,1.1,1.1
	C556,862.1,554.5,861.8,553.2,861.9z" fill="#C47981"></path>
<path d="M590,775.8c0.3,0.3,0.7,0.7,1,1c0.9,0.7,2,1.3,1.2,2.8l-0.2,0.2c-1.5-0.9-2.6-2.2-3.2-3.9
	C589.1,775.4,589.5,775.4,590,775.8z" fill="#E1BFBF"></path>
<path d="M575.9,854.5c-1.4,2.1-3.5,1-5.3,1.1C572.2,854.6,574.1,854.6,575.9,854.5z" fill="#DE9CA6"></path>
<path d="M590,775.8c-0.4,0-0.8,0.1-1.2,0.1c-1.1-0.7-1.7-1.7-1.9-3C588.4,773.3,589.2,774.5,590,775.8z" fill="#E0C5C3"></path>
<path d="M721.7,651.8c10.7-29.6,40.7-49.4,72.3-47.7c32.3,1.7,60.3,24.6,67.7,55.4c7.8,32.4-5.5,64.7-33.6,81.6
	c-2.8,1.7-4.8,1.9-7.6,0c-4.9-3.5-10.3-6-15.8-8.3c-0.3-2.8,2.1-3.6,3.7-4.8c14.6-11.1,22.3-26.1,22.8-44.1
	c0.7-23.9-13.5-46.2-36.7-54.7c-25.8-9.5-51.9-1.1-67.7,21.4c-1.2,1.7-1.8,4-4.2,4.7C720.8,654.4,721.2,653.1,721.7,651.8z" fill="#FEFEFE"></path>
<path d="M722.6,654.8c21.2-38.5,72.7-41,98.1-7.6c19.2,25.4,14.2,62.1-11.2,81.4c-1.7,1.3-3.8,2.1-4.9,4.1
	c-2.3-0.7-4.6-1.4-6.9-2.1c-1.3-2.4,0.9-3.3,2.1-4.3c10.9-9.2,16.8-21,18.2-35.1c0.3-2.5,0.3-4.9-0.7-7.3c0.1-2.2,2.2-2.8,3.5-3.8
	c3.5-2.7,5.2-6,4.2-10.4c-0.9-4.3-4.2-6-8-7.3c-3-1.1-6.3,0.1-9.3-1.1c-0.3-0.4-0.5-0.8-0.5-1.3c0.8-2.8-1.3-4.4-2.9-5.9
	c-18.8-18.7-48.2-20.3-67.8-2.7c-7.5,6.7-12.6,14.9-15,24.8c-1.2,4.5-1.7,9.1-1.5,13.8c0.1,2.2,0.4,4.3,2.1,5.9
	c0.9,3.5,3.7,6.5,3.2,10.5c-3.7,3.3-4.2-0.4-5.5-2.5c-1-3.7-2.1-7.3-3.1-11c-2-7.7-2.6-15.3,0-23c0-3.4,0.6-6.8,1.9-10
	c0.4,0.2,0.5,0.7,0.7,1c0.1-0.8,0.4-1.6,0.8-2.3C721,657.4,721,655.6,722.6,654.8z" fill="#9E4A74"></path>
<path d="M817.6,683.8c3.4,1,2.1,3.8,2,5.8c-1.3,15.5-7.5,28.6-19.7,38.5c-0.9,0.7-2.1,1.1-2,2.6
	c-6.3-1-12.5-2.7-18.9-2.9c-10.8-0.4-20.9,2.2-30.8,6c-1.4,0.5-2.7,1.2-4.3,1c-6.9-4.5-12.8-9.9-16.8-17.2c-1.2-1.4-1.8-3.1-2.5-4.8
	c-2.2-4.9-1.7-5.7,4-5.7c1.5,0.7,2.8,1.8,2.8,3.8c-0.1-3.8,1.5-4.2,4.4-2.4c8.6,5.3,16.8,5.1,24.7-1.4c1-0.8,2-1.8,3.5-1.2
	c0.9,1.6,0.2,2.9-0.7,4.2c-7.7,6.5-16.3,7.7-25.3,4.1c1.4,1,2.9,2.5,4.5,3.9c10.6,7.8,22.4,8.7,33.8,3.3
	c11.1-5.2,18.4-14.3,19.2-27.4c0.5-0.6,1.2-0.9,2-1c4.9,0,8.8-1.9,11.8-5.9c0.9-1.2,2-2.1,3.3-2.8
	C814.2,683.4,815.8,682.5,817.6,683.8z" fill="#672A55"></path>
<path d="M727.8,717.9c4,6.9,10.7,11.2,15.9,16.9c-8.1-2.7-12.7-9.1-16.9-15.9C727.1,718.5,727.2,717.9,727.8,717.9z" fill="#7B3454"></path>
<path d="M727.8,717.9c-0.3,0.3-0.7,0.7-1,1c-3.1-4.6-5.8-9.4-6.9-15c1.8,0.7,1.8,4.3,4.9,3c1.5-1.2,3.2-1.9,5.1-1
	c0.4,1.1,0.6,2.1-1.2,2.1c-3.4-0.1-6.8-0.3-3.3,4.7C726.6,714.1,727.1,716.1,727.8,717.9z" fill="#873C63"></path>
<path d="M716.8,670c-1.7,7.7-0.9,15.3,0,23c-1.3-0.6-2-1.7-2-3.1c0-5.6,0-11.1,0-16.7
	C714.8,671.6,715.5,670.6,716.8,670z" fill="#4E1207"></path>
<path d="M722.6,654.8c-0.4,1.5-0.7,3-1.8,4.1c-1,0.2-1.6,0-1.1-1.2c0.1-2.2,0.8-4.1,2-5.9
	C722.1,652.8,721.5,654.1,722.6,654.8z" fill="#DAC7CA"></path>
<path d="M719.7,657.8c0.4,0.4,0.7,0.8,1.1,1.2c-0.4,1.1-0.8,2.1-1.2,3.2c-1.2-0.4-0.4-1.6-0.9-2.2
	C719,659.3,719.4,658.5,719.7,657.8z" fill="#D3B4BF"></path>
<path d="M540,564.2c18.2,4.3,33.6,12.9,45,28.1c7.5,10,12.5,21,14,33.5c0.6,3.4,0.7,6.8-0.1,10.1
	c-3.5-0.3-3.1-3.4-3.7-5.5c-6-18.9-18.2-31.9-37.1-38.1c-31.7-10.4-64.7,8.1-73,40.4c-4.1,16.1-0.8,30.9,7.6,44.9
	c1.3,2.1,3.9,4,2.2,7c-5.9-0.1-11.6,0.9-17.1,2.5c-2.8,0.8-4.8,0.3-6.9-2.1c-35.7-40-15.5-106.3,36.5-119.4c1.9-0.5,3.8-1.1,5.7-1.6
	C522.1,561.7,531,561.9,540,564.2z" fill="#FEFEFE"></path>
<path d="M495,684.7c0.5-2-1.1-3-2-4.3c-24-34.5-6.4-80.8,34.5-90.7c30.4-7.4,62.2,12.1,69.6,42.4
	c0.3,1.3,0.7,2.6,1,3.9c0.3,0.4,0.2,0.8-0.1,1.2c-1.4,0.3-2-1.5-3.3-1.3c-3.4-5.5-8.3-8.2-14.9-7.6c-1.6,0.2-3.3,0.1-4.7-0.9
	c-0.3-0.4-0.4-0.9-0.2-1.4c2.8-2.1,6.1-0.6,9.1-1.3c-9.9-12.3-22.9-19.1-38.3-19c-18.5,0.1-33.2,8.3-42.7,24.7
	c-1,1.7-1.9,3.5-2.9,5.3c-2.2,3.8-2,8.2-3.5,12.2c-0.4,0.4-0.8,0.5-1.3,0.5c-0.4-0.3-0.6-0.7-0.6-1.3c-0.2,0-0.1,0.2-0.1,0.3
	c0,2.7-1.3,5.1-1.8,7.7c-1.3,6.8,0.5,12.8,4.3,18.4c0.7,1.1,1.5,1.7,2.9,1.3c0.4,0.2,0.8,0.4,1.1,0.8c1.1,1.8,1.9,3.8,2.8,5.6
	c0.7,1.3,1.2,2.8-0.7,3.7C500.4,684.8,497.7,684.8,495,684.7z" fill="#9E4A74"></path>
<path d="M595.8,665c-7.1,19.2-18.6,34.2-38.8,41.1c-2.6,0.9-4.6,0.8-6.8-1.2c-3.6-3.2-7.5-6-11.3-8.9
	c-0.7-0.7-1.9-1.3-0.7-2.5c1.5-0.8,2.9-0.4,4.4,0c18,4.4,35.6-8.3,40-24.7c1.1-4.1,1.1-8.2,0.8-12.4c0.8-3.2,3-5.4,4.6-8.2
	c2-1.6,3.1-4.5,6.3-4.3c2.9,4.3,2.9,9.1,2.1,14C596.1,660.2,594.8,662.5,595.8,665z" fill="#672A55"></path>
<path d="M503.1,684.8c1.3-3.7-2.7-5.6-3-8.8c1.4-1.3,2.7-0.6,4.1-0.1c11.3,4.6,17,3.5,25.5-5
	c7.6-7.5,5.9-20.8-3.2-26.2c-1.6-0.9-3.3-1.5-4.5-3c-0.3-0.5-0.4-0.9-0.3-1.5c0.3-0.4,0.7-0.7,1.3-0.8c0.5-0.1,1,0,1.5,0.1
	c8.1,3.1,13,8.8,13.7,17.6c0.8,9.6-3.5,16.5-11.8,21.1c-1.4,0.8-3.2,1.1-3.4,3.2c0.2,1.9,1.8,3,2.8,4.5c0.4,0.7,0.6,1.3,0.2,2.1
	c-2.9,1-5.3-0.7-8-1.3c-4.3-0.9-8.5-2.1-13-1.7C504.4,684.9,503.8,684.9,503.1,684.8z" fill="#6C3059"></path>
<path d="M595.8,665c-2.2,0.9-1.5-0.3-1.2-1.5c1.2-6.6,1.8-13.2-0.7-19.6c-0.5-2.8,0.4-5.3,1.9-7.6
	c1.4-1.5,1.1,0.8,1.9,0.8c1.2,0.7,1.1,1.8,1.2,2.9c0,2.4,0,4.8,0,7.3c0,1.3,0,2.6,0.1,3.9c-0.3,0.7-0.6,1.4-0.9,2.2
	c-1.4,1.2-0.6,2.5-0.2,3.8C597.2,659.6,596.5,662.3,595.8,665z" fill="#9E4A73"></path>
<path d="M505.1,684.9c4.3-2.1,8.2,0.5,12.2,0.9c2.9,0.3,5.6,3,8.7,1.1c4.9,0.8,9.2,2.6,12,7c0.3,0.7,0.7,1.4,1,2.1
	C528.5,690,517.1,686.4,505.1,684.9z" fill="#64284C"></path>
<path d="M540,564.2c-9-1.2-17.9-1.3-26.9,0c0.3-0.4,0.6-1,1-1.1C522.8,561.8,531.5,560.4,540,564.2z" fill="#4E1107"></path>
<path d="M598.2,639.9c-0.1-1-0.3-2-0.4-2.9c0.1-0.4,0.2-0.7,0.3-1.1c2-3.2,0.1-6.8,1-10.1c1.4,5,1.3,10.1,0.8,15.1
	C598.8,641.5,598.5,640.7,598.2,639.9z" fill="#E4D6D9"></path>
<path d="M598.2,639.9c0.6,0.3,1.1,0.7,1.7,1c0,1.3,0,2.7-0.1,4c-1.1,0.6,0.9,3.1-1.8,2.8
	C598.1,645.1,598.1,642.5,598.2,639.9z" fill="#D1A8BC"></path>
<path d="M598,647.7c0.6-0.9,1.2-1.8,1.8-2.8c0.2,2.1,0.6,4.2-0.7,6.1C597.8,650.2,598,649,598,647.7z" fill="#A15377"></path>
<path d="M546.8,710c-2.3-0.6-3.8-2.1-4.7-4.3C544.2,706.6,545.8,707.9,546.8,710z" fill="#FEE3C8"></path>
<path d="M597.9,657c-0.9-1.3-2.2-2.6,0.2-3.8C598.1,654.5,598,655.7,597.9,657z" fill="#A15377"></path>
<path d="M619.2,1031.7c3.6,0,7.1,0,10.7,0c0,0.2,0,0.3,0,0.5c-3.6,0-7.1,0-10.7,0
	C619.2,1032.1,619.2,1031.9,619.2,1031.7z" fill="#FEF2B5"></path>
<path d="M598,854.7c8.7-1.5,17.6-2.9,26.4-1.5c4.2,0.7,8.6-0.8,12.6,1.5C623.9,854.7,610.9,854.7,598,854.7z" fill="#DD98A3"></path>
<path d="M585,855.8c2.5-2.2,5.5-0.8,8.2-1C590.6,856.1,587.8,855.8,585,855.8z" fill="#E6A3AF"></path>
<path d="M572,857.7c1.8-1.8,4.1-0.8,6.1-0.9C576.2,858,574.1,857.7,572,857.7z" fill="#DE9CA6"></path>
<path d="M706.8,778.8c-0.3,0.7-0.7,1.4-1,2c-0.1-1.8-0.2-2.9-2.8-2.8c-21.5,1.6-42.8,0.7-64.1-3.6
	c-10.2-2-20.2-4.4-30.3-6.9c-7.3-1.8-14.4-4.5-21.9-5.9c-1.8-0.3-1.8-1.6-1.8-3c10.1,2.5,20.2,5,30.2,7.6
	c14.5,3.8,29.2,6.8,44.1,8.4c9.7,1.1,19.4,2,29.1,1.9c5.1-0.1,10.2-1.1,15.3-1.2C706.8,775.6,707,776.6,706.8,778.8z" fill="#FBF7F7"></path>
<path d="M683.8,795.7c-8.9-1.2-18-0.4-26.9-2.1c-0.4-0.2-0.5-0.3-0.4-0.5c0.1-0.2,0.2-0.3,0.3-0.3
	c10.6,1.1,21.3,1.1,32,1C688.2,797,685.2,794.2,683.8,795.7z" fill="#E9D3D3"></path>
<path d="M683.8,795.7c1.2-1.8,3.8-0.1,5-1.9c2.3-0.7,4.7-1.3,7-2c-0.6,0.9-0.6,1.9-0.2,2.9
	C691.6,794.2,687.9,796.8,683.8,795.7z" fill="#E5C9C8"></path>
<path d="M651.9,792.9c-2-0.1-4.1-0.2-6.1-0.2c2.4-1.3,4.8-1.3,7.2,0.1C652.6,793.2,652.3,793.2,651.9,792.9z" fill="#E9D3D3"></path>
<path d="M651.9,792.9c0.4,0,0.7-0.1,1.1-0.1c1.3,0,2.6,0,3.9,0.1c0,0.3,0,0.6,0.1,0.8
	C655.2,793.6,653.4,794.4,651.9,792.9z" fill="#E5C9C8"></path>
<path d="M592.1,779.6c-0.4-0.9-0.8-1.8-1.2-2.8c1.4,0,2.4,0.7,3.1,1.9C593.4,779,592.8,779.3,592.1,779.6z" fill="#E0C5C3"></path>
<path d="M703.8,771.8c2-1.6,4.5-1.2,6.5-0.7c1.8,0.4,0.1,1.2-0.5,1.7C708,771,705.8,772.2,703.8,771.8z" fill="#F2E4E4"></path>
<path d="M648.9,769.8c2,0.3,4.2-0.5,6.1,1C652.9,770.5,650.7,771.6,648.9,769.8z" fill="#F2E4E4"></path>
<path d="M663.9,771c1.7,0.1,3.5-0.6,5,0.8C667.2,771.6,665.4,772.4,663.9,771z" fill="#F2E4E4"></path>
<path d="M720.8,675.9c1.8-11.3,8.2-19.8,16.6-26.9c19.8-16.5,50.5-14.4,68.2,4.4c1.5,1.6,3,3.2,4,5.1
	c1,2-1.1,1.2-1.8,1.5c-1.7,1.3-3.2,0.3-4.6-0.5c-7.4-4-13.6-2.1-19.1,3.6c-0.5,0.2-0.9,0.3-1.5,0.2c-10.9-7.3-22.3-9.4-34.6-3.5
	c-5.2,2.5-9.2,6.4-13.1,10.4c-1.9,1.5-2.4,3.9-3.8,5.8c-0.4,0.3-0.9,0.4-1.3,0.5c-3.8,2.9-6,6.8-6.6,11.5c-0.3,2,0.4,4.4-2.1,6
	C717.7,688,720.4,681.9,720.8,675.9z" fill="#672A55"></path>
<path d="M817.6,683.8c-1.6,0.4-3.3,0.8-4.9,1.2c-7.5,2-15.5-3-16.8-10.4c-1.1-6.3,4.7-13,11.9-13.7
	c3.3-0.2,6.6-0.9,9.9,0.2c4.6,1.6,8.4,4.1,9.2,9.5c0.7,5.5-2,9.2-6.6,11.8C819.3,682.9,818.4,683.3,817.6,683.8z" fill="#FEFDFE"></path>
<path d="M807.7,660.9c-0.3,0.2-0.6,0.4-0.9,0.5c-7.2,3.2-10.7,8-9.7,13.2c1.1,5.9,6.3,9.6,14.1,10.2
	c0.5,0,1,0.1,1.5,0.2c-4,4.6-7.6,9.9-15,9c-1.7-1.9-1.4-4.4-1.7-6.6c-1.1-8.2-4.1-15.3-10.2-21c-1-0.9-1.9-1.9-2-3.3
	c2.4-5.1,9.1-8.2,14.8-6.5c3.1,0.9,6.1,2.3,9.2,3.5C807.7,660.3,807.7,660.6,807.7,660.9z" fill="#833A65"></path>
<path d="M720.8,675.9c-0.1,3,0.6,6-0.5,8.9c-1.1,2.9,0.2,5.4,1.2,8.1c-1.1-6,1.9-10.7,4.6-15.3
	c0.5-0.9,1-4.4,3.6-1.6c1.5,1.9-0.1,4.1,0.7,6c0.1,0.7,0,1.4-0.4,2.1c-0.6,0.8-1.3,1.4-2.4,1c-0.7-1-1.3-1.3-1.8,0.2
	c-0.9,2.8-1.6,5.7-2.1,8.6c-0.3,1-0.9,1.7-1.9,2c-3,1.2-2.5-1.8-2.6-2.7C718.5,687.3,718.3,681.5,720.8,675.9z" fill="#6C2F59"></path>
<path d="M721.8,695.9c0.3-0.6,0.7-1.3,1-1.9c0.3-0.4,0.7-0.6,1.2-0.9c1.5-0.3,2.9-0.4,3.9,1.1
	c-0.8,3.9,1.4,6.9,3.2,9.9c0.1,1,0.1,1.9-1.3,1.8c-1.6,0.8-3.2,1.1-5,0.9C725,702.9,721,700,721.8,695.9z" fill="#A3537B"></path>
<path d="M733.8,669.9c11.2-14.1,26-18.2,42.2-11.7c2.6,1,5.4,1.9,6.7,4.7c0.6,1.2,0.1,2.2-0.3,3.3
	c-4,12.2,0,21.5,11.6,26.5c0.6,0.3,1.2,0.6,1.6,1.1c2.7,7-1.5,12.5-5,17.2c-10.5,13.8-24.6,17.8-41.4,12.4c-2.8-0.9-5.3-2.5-7.5-4.6
	c0.8-3.4,3.7-2.2,5.6-2.3c11.2-0.5,18.7-5.7,23.3-16.2c5.5-12.4-5.1-29.8-19.5-30.1c-4.9-0.1-9.9-0.8-14.7,1.5
	C735.1,672.5,733,673,733.8,669.9z" fill="#471330"></path>
<path d="M795.7,693.9c-8.5-0.7-15.5-8.3-16-17.3c-0.3-4.9,0.2-9.6,3.1-13.7c0.3,0,0.7,0,1,0c10.5,7.7,14,18.6,14,31
	C797,693.9,796.4,693.9,795.7,693.9z" fill="#722F52"></path>
<path d="M733.8,669.9c0.2,2.1,1.4,1.2,2.4,0.8c11.5-3.7,22.1-3,31.1,6.2c7.6,7.8,8.2,22.5,1.1,30.9
	c-5.7,6.8-12.7,10.7-21.9,10.1c-1.6-0.1-3.4-0.6-4.7,1c-2.5-1.6-4.4-3.9-7.1-7.1c2.6,0.9,4.1,1.5,5.6,2c8.2,2.8,15.4,0.1,22.5-4
	c4.5-5.4,7.2-11.3,6.8-18.6c-0.6-10.2-9.2-18.7-19.4-19c-6-0.2-11.6,0.4-16.6,4.1c-0.9,0.6-1,0.5-2.8-0.4
	C730.8,673.5,731.5,671.3,733.8,669.9z" fill="#4E1D39"></path>
<path d="M729.8,706c0.7-0.5,1-1.2,1-2.1c0.2-0.1,0.4-0.3,0.6-0.4c0.8-0.2,1.7-0.1,2.3,0.5c6.5,5.7,13.9,6.6,21.9,4.2
	c8.1-3.9,11.6-11.2,9.6-19.7c-1.5-6.6-9-12-16.4-12.3c-6.3-0.2-11.8,1.4-15.9,6.5c-0.6,0.8-1.5,1.4-2.5,1.5
	c-0.2-0.1-0.5-0.2-0.7-0.2c0-0.7,0-1.3,0-2c1.2-5.8,6-7.5,10.7-9c12.6-4.3,25.9,2.8,28.8,15.2c1.2,5,0.8,9.9-1.7,14.5
	c-0.8,1.6-1.5,3.4-3.8,3.3c-3.9,3.3-7.6,6.4-13.1,7.2c-5.9,0.8-11-0.4-15.8-3.6c-0.8-0.5-1.4-1.8-2.4-0.9c-0.5,0.4-0.1,1.7-0.1,2.8
	c-1.8-0.7-2.7-2-3.6-3.4C729.6,707.5,729.8,706.8,729.8,706z" fill="#6C435A"></path>
<path d="M763.8,705.9c8.1-8.1,6.1-21.7-2.4-28.5c-9.6-7.8-23.5-5.6-31.6,4.6c-2.3-2,0-4,0-6c0.3,0,0.7,0,1,0
	c1.6,1.2,1.9-0.6,2.7-1.2c7.2-5.2,21.9-5.9,30.1,1.4c7.4,6.7,9.7,18.1,5,27.8c-1.2,2.6-3.4,4.4-5.8,5.9
	C763.1,708.6,763.4,707.3,763.8,705.9z" fill="#562641"></path>
<path d="M523.1,639.9c-0.3,0-0.7,0-1,0.1c-3.4-4.4-8.1-2.6-12.3-2.1c-2.9,0.3-5.7,1.7-8,3.7c-1,0.8-2.3,2.1-3.5,1.3
	c-1.4-0.9-0.9-2.8-0.3-4.1c0.6-1.2,0.2-2.7,1-3.8c6.7-15.2,18-25.1,34.2-29.2c19.9-5,40.5,2.6,53.3,20.1c-4.1,0-7.8,0-11.6,0
	c-4.1-0.9-8.2-1.1-12.1,1.1c-1,0.6-2,1.5-3.3,1.2c-12.3-4.6-22.8-1-32.4,6.9C525.6,636.6,524.7,638.5,523.1,639.9z" fill="#672A55"></path>
<path d="M595.9,636.2c0,2.7-1,5.1-1.9,7.6c-1.7,1.6-3.4,3.3-5.1,4.9c-6.1,4.8-13.8,4.5-19.9-0.6
	c-4.9-4.1-5.7-9.5-2.3-16c2.3-2.4,4.5-5.1,8.3-5c3.6-0.4,7.2-0.8,10.7-0.1C591,628.2,594,631.6,595.9,636.2z" fill="#FDFDFD"></path>
<path d="M522.1,641c4.9,2.1,9.5,4.7,11.9,9.9c4.6,10.1,1,20.1-9.3,25.3c-1.9,0.9-3.8,1.4-5.1,3.5
	c-1.3,2.1-3.8,1.2-5.9,1c-4.8-0.5-8.7-3.7-13.4-4.6c0-0.3,0-0.7,0-1c0.8-1.1,2-1.4,3.2-1.7c2.1-0.3,3.8,0.9,5.7,1.5
	c8.3,2.8,19.5-2.8,22.5-11c1.6-4.4,1-8.5-1.4-12.4c-4.2-6.8-13.9-10.2-21.6-7.7c-0.5,0.2-0.9,0.3-1.4,0.5c-4.7,1.2-6.5,5.1-8.6,8.8
	c-1,1.7-1.9,3.8-4.2,1.4c-0.7-2.2-0.6-4.3,0.8-6.3c0.3,0,0.6,0,1,0c4.8-5.5,10.2-9.9,17.8-10.6C517.2,637,520.6,637,522.1,641z" fill="#825372"></path>
<path d="M495.1,648c0,2.3,0,4.6,0,7c1.6,1.8,1.2,4.2,1.7,6.3c-0.7,5.3,2.4,8.8,6,12.1c0.1,0.2,0.2,0.4,0.3,0.6
	c-0.7,1.1-1.9,0.9-3,1c-1,0.2-0.8,3.6-3,0.7c-5.3-7-7.6-14.5-5-23.1c0.8-2.5,1.6-5,2.4-7.5C495.6,645.8,494.8,647,495.1,648z" fill="#A4567D"></path>
<path d="M522.1,641c-4.4-5.3-15.4-1.5-20,2.6c-1.7,1.5-3.2,3.3-4.7,5c-1.2,1.4-1,0-1.3-0.6c0-4.6,0.6-9,3-12.9
	c0.6,2.4-1.6,4.7-0.5,7.7c5.3-6.2,12.2-7,19.5-6.8c3.1,0.1,4.3,1.1,3.9,4.1C522.1,640.3,522.1,640.6,522.1,641z" fill="#723A62"></path>
<path d="M575.1,627.2c-2.4,1.6-4.7,3.3-7.1,4.9c-1.8-2.2-5.9-2.2-6-6.1c4.3-1.4,8.6-4.3,13,0
	C575,626.4,575,626.8,575.1,627.2z" fill="#813A64"></path>
<path d="M483.4,650.9c0-2.9,0-5.8,0-8.7c0.1,0,0.3,0,0.4,0c0,2.9,0,5.8,0,8.7C483.6,650.9,483.5,650.9,483.4,650.9z" fill="#963A68"></path>
<path d="M526,635c8.3-8.6,18.4-11.2,29.9-9.4c1.6,0.2,3.4,0.5,4.1,2.4c-0.1,1.4-1.1,2.3-1.9,3.4
	c-6.5,9.6-3.4,22.7,7,27.9c4.7,2.4,9.6,2,14.2-0.6c1.6-0.9,2.7-2.5,4.6-2.7c3,9.3-0.5,17.3-5.5,24.6c-7.9,11.8-24.9,18.6-38,13.6
	c-0.8-0.3-1.6-0.2-2.5-0.3c-4-2.3-8-4.6-12-7c-0.3-0.3-0.7-0.7-1-1c-1.8-3.3,0.6-4.6,2.9-5.6c7.4-3.4,11.3-9.2,12.9-17.2
	c1.5-7.6-3.4-22.1-11.8-24.8C527.6,637.8,525.7,637.2,526,635z" fill="#471330"></path>
<path d="M584,656c-6.5,9.8-23,8.1-28.9-5.2c-3.9-8.8-2-17.2,4.8-22.8c0.7-0.7,1.4-1.3,2-2c1.1,3,5.9,2.1,6,6.1
	c-2.5,4.3-3.5,8.7-0.3,12.9c3.5,4.6,8.5,6.2,14,5.6c2.4-0.2,4.7-1.2,7.1-1.9C587.5,651.3,586.2,654,584,656z" fill="#732F52"></path>
<path d="M526,635c4.6,3.2,9.7,5.4,12.8,10.9c6.5,11.6,4.1,29.6-9.7,35.2c-2.3,0.9-4.4,1.8-4,4.9c-1.6-0.8-2.9-2-3-4
	c-0.6-4,3.3-3.4,5.1-4.5c6.2-3.8,10-9,10.8-16.2c1.1-9.7-4.3-18.1-13.9-21.2c-0.3,0-0.6,0-0.9,0C523.4,637.9,524.1,636.1,526,635z" fill="#4C1935"></path>
<path d="M524,639.9c4.8-0.3,10.6,4.4,13,10.6c4.3,10.8,0.6,21.3-9.4,27.2c-2,1.2-4.9,1.3-5.7,4.2
	c-2.3-2.5,0.3-3,1.7-3.8c2.4-1.4,5-2.5,7.1-4.4c9.9-8.9,8-26.7-4.5-32.1C525.5,641.3,524.8,640.5,524,639.9z" fill="#672A55"></path>
<path d="M723.8,693.9c-0.3,0-0.7,0-1,0.1c0.3-4.5,1-8.9,4.1-12.7c1.3,1.3,0.8,2.5,0.9,3.6c1.1,1.2,0.3,2.3-0.3,3.3
	C725.7,689.8,726.2,692.8,723.8,693.9z" fill="#703B5F"></path>
<path d="M726.8,687.9c0.3-1,0.7-2,1-3c0.7-0.3,1.3-0.7,2-1c0,0,0,0,0,0c1.4,2.3,0.2,4.2-1.5,5.4
	C726.5,690.8,726.3,689.6,726.8,687.9z" fill="#6C435A"></path>
<path d="M726.8,687.9c0.2,0.4,0.2,1.8,0.9,0.9c1-1.4,1.5-3.2,2.1-4.9c2.8-1.5,4-4.7,6.8-6.4
	c10.3-6.3,24.9-1.9,29.5,9.2c3.5,8.5-1,18.6-10.5,23c-1.1-2.9,1.8-3.6,3.1-5c4.1-4.5,6.7-9.3,4.8-15.7c-2-6.8-8.9-11.9-16.1-11.7
	c-8,0.2-15,6.1-16.4,13.5c-0.3,1.8,0.4,4.3-2.7,4.5c-0.2-0.1-0.4-0.3-0.6-0.4c-1.1-1.4-2.6-0.8-4-0.9
	C725.7,692.3,723.3,688.7,726.8,687.9z" fill="#794969"></path>
<path d="M730.8,703.9c-3.9-2.7-4.9-6-2.9-9c0,0,0,0.1,0,0.1c0.9,0.8,2.2,1,2.9,2c0.9,1.2,1.3,2.7,1.2,4.2
	C731.9,702.2,731.5,703.1,730.8,703.9L730.8,703.9z" fill="#B77D9A"></path>
<path d="M730.8,703.8c0-1,0-1.9,0.1-2.9c0.7-1.1,1.5-1.6,2.8-0.8c0.4,0.3,0.7,0.6,0.9,0.9c1.1,1.8,2.5,3.4,4.5,4.3
	c0.8,0.4,1.6,0.7,2.4,1c5.1,2.2,9.9,1.8,14.2-2c1.7-1.5,3.3-3.1,4.3-5.1c2.9-6.4,2.1-11.3-2.7-16.1c-0.4-0.2-0.7-0.5-1.1-0.8
	c-1.5-1.3-3.2-2.2-5.1-2.8c-2.7-0.6-5.4-1-7.9,0.6c-0.6,0.3-1.2,0.6-1.8,0.8c-0.8,0.3-1.6,0.5-2.4,0.9c-2.2,0.7-3.5,2.3-4.5,4.2
	c-0.2,0.4-0.5,0.8-0.7,1.2c-1.1,1.9-1.6,3.9-1.9,6.1c-0.2,1.4,0.4,3.6-2.2,3.6c-1-0.4-1.6-1.1-2-2c2.2-0.3,1.8-1.9,2-3.4
	c0.8-8.7,9.2-15.8,18.3-15.6c9.5,0.2,17.9,8.3,17.6,17.4c-0.1,4.2-2.1,7.9-4.9,11.2c-1.6,1.8-4.2,2.7-5.1,5.2
	c-4.8-0.1-9.4,2-14.4,0.2C737.3,708.5,734.7,705,730.8,703.8z" fill="#957788"></path>
<path d="M508.1,643.1c7.7-4.2,20.2,0.7,24.2,9.5c3.8,8.4-1.4,18.1-9.9,22.4c-7.2,3.6-13,1.3-19.3-1c0,0,0-0.1,0-0.1
	c-0.2-2.2,1.2-2.6,2.9-2.7c7.4,3.4,14,2.6,19.9-3.3c6.1-6.1,5.1-14.7-2.1-19.5c-1.7-1.1-3.5-1.8-5.2-2.9c-2-1.6-4.3-1.1-6.6-0.9
	C510.5,644.6,508.5,645.7,508.1,643.1z" fill="#98788B"></path>
<path d="M508.1,643.1c1.3,1.5,2.6,0.1,3.9,0.1c2.4,0.1,5.5-1.8,7,1.7c-3.4,0.6-6.8,0.7-9.9,2.4
	c-4.1,2.3-6.9,5.5-7.8,10.1c-0.4,2.1-0.4,4.4-3.1,5c-0.5,0-1-0.1-1.4-0.5c-0.7-8.6,3.4-14.5,10.2-19
	C507.5,643,507.8,643,508.1,643.1z" fill="#A7819B"></path>
<path d="M507.1,643c0,1.6-1.4,2.2-2.5,2.9c-5.7,3.9-6.3,10.1-7.6,16.1c-0.3,0.3-0.7,0.3-1,0c-1.4-2.2-0.9-4.6-1-7
	c3.1-1.3,3-4.8,4.9-7C502,645.6,503.9,643.4,507.1,643z" fill="#8F6080"></path>
<path d="M496.1,662c0.3,0,0.7,0,1,0c0.3,0,0.7,0,1,0c2.1,3.8,4.7,7.1,7.9,10c-1.4,0-2.4,0.7-3,1.9
	C497.7,671.6,495.1,667.1,496.1,662z" fill="#B67696"></path>
<path d="M733.8,700.9c-1-0.6-2-0.6-3,0c0.1-1.4-0.3-2.7-1-4c2-1.9,0.4-4.5,1.3-6.5c0.7-1.6,0.6-3.7,2.7-4.5
	c0.1,0.1,0.3,0.3,0.3,0.4C733.2,691.2,734.1,696.1,733.8,700.9z" fill="#9D8190"></path>
<path d="M740.8,706.9c-0.8,0-1.6-0.2-2-1c-1.1-0.9-2.6-1.5-2.5-3.3c0.1-0.5,0.5-0.8,1-1c2.1-0.1,3.8,1.1,5.6,1.8
	c5.1,1.9,10,0.6,13.9-3.7c2.9-3.3,3.4-7.1,1.5-11c-2.3-4.7-6.6-6.8-12.4-6.4c-1.8,0.1-3.6,1.1-5.3-0.3c-0.4-0.8-0.3-1.4,0.2-2.1
	c0.7,0,1.3,0,2-0.1c1.4-1.2,3.1-0.9,4.8-1c3.5-0.3,6.4,1.2,9.2,3l0,0c5.8,4.9,7,10,4,18c-0.7,2.2-2.3,3.6-4,5
	C751.8,708.3,746.5,709.5,740.8,706.9z" fill="#B19BA7"></path>
<path d="M740.8,680c0,0.7,0,1.3,0,2c-5.1,5.9-7.1,12.4-4,19.9c0,0.3,0,0.7,0,1c-1.9,0.6-2.1-1.2-3-2c0,0,0,0,0,0
	c-2.2-5-2.2-10,0-15c0,0,0,0,0,0c1.4-2,3-3.6,5-5C739.4,680.6,740.1,680.3,740.8,680z" fill="#AD96A3"></path>
<path d="M760.8,699.9c2-6.7,1.1-12.8-4-18C763.1,684.9,765,693.5,760.8,699.9z" fill="#A9919F"></path>
<path d="M740.8,706.9c5.6,1.8,10.9,0.2,16-2C752,709.5,747.1,710.1,740.8,706.9z" fill="#9D8190"></path>
<path d="M747.8,679.9c-1.7,0-3.3,0-5,0c2.6-3.6,5.9-2,9-1C750.6,680,748.9,678.8,747.8,679.9z" fill="#9D8190"></path>
<path d="M747.8,679.9c1.1-1.4,2.6-0.8,4-1c2,0.4,3.9,1,5,3C753.8,681.3,751.1,679.3,747.8,679.9z" fill="#A9919F"></path>
<path d="M738.8,680.9c-1.3,2.1-2.9,3.7-5,5C734.3,683.2,736,681.5,738.8,680.9z" fill="#9D8190"></path>
<path d="M733.8,700.9c1,0.7,2,1.3,3,2c0.7,1,1.3,2,2,3C736,705.3,734.3,703.7,733.8,700.9z" fill="#9D8190"></path>
<path d="M506.1,671.9c-5.4-1.2-7.1-5.2-7.9-10c2.1-1,1.8-2.8,2-4.6c1.1-8.4,11.1-14.9,18.9-12.4
	c13.4,3.8,14.1,15.5,9.9,21.4C524.6,672.5,514.7,678.1,506.1,671.9z" fill="#BA99AE"></path>
<path d="M736.8,701.9c-5.2-8-3.7-14.1,4-19.9c4.5-0.7,8.9-2.1,13.4,0.6c5.5,3.3,7.8,9,5.6,14.7
	c-2.2,5.6-9.8,9.7-15.3,7.9C741.8,704.4,739.4,703,736.8,701.9z" fill="#C4B4BD"></path>
<path d="M529.1,660.5c-0.2,3.5-2.4,6.9-6.9,9.6c-7,4.1-12.8,1.1-18.8-1.7c-1.6-0.8-3-3.3-2.5-4.6
	c1.6-3.6,0.7-7.5,2.4-11c2.2-4.4,8.8-7.7,13.4-6.5C524.7,648.3,529,652.7,529.1,660.5z" fill="#C7ABBC"></path>
<path d="M747,702.9c-6.5,0-10.3-3.7-10.3-10c0-5,5.1-9.8,10.4-9.9c6.3-0.1,10.6,3.9,10.6,9.9
	C757.8,699.3,753.9,703,747,702.9z" fill="#D3C7CE"></path>
<path d="M514.3,648c5,0.6,12.4,4.2,12.7,10.5c0.3,5.2-6.2,11.6-12.4,12.1c-4.9,0.4-10.5-5-10.6-10.3
	C503.9,653.6,508.4,648.2,514.3,648z" fill="#D5C8D0"></path>
<path d="M755.8,692.9c0,3.4-4.6,7.9-8.1,8c-4.2,0.1-7.9-3.3-7.9-7.1c0.1-4.4,3.4-7.7,7.9-7.8
	C752,685.9,755.7,689.1,755.8,692.9z" fill="#D8CED4"></path>
<path d="M513.6,651c3.1,1.2,3.7,5,5.7,7.3c1.6,1.8-1.1,2.4-2.6,2.8c-0.9,0.2-1.4,0.8-1.5,1.7
	c-0.3,1.6,0.7,4.1-2.2,4.1c-2.4,0-3.8-2-4.9-3.7c-1.6-2.5-1.4-5.5-0.2-8C508.8,653,510.9,651.8,513.6,651z" fill="#DFD2DB"></path>
</svg>
