<?xml version="1.0" standalone="no"?><!DOCTYPE svg PUBLIC "-//W3C//DTD SVG 1.1//EN" "http://www.w3.org/Graphics/SVG/1.1/DTD/svg11.dtd"><svg t="1651368808839" class="icon" viewBox="0 0 1024 1024" version="1.1" xmlns="http://www.w3.org/2000/svg" p-id="5429" xmlns:xlink="http://www.w3.org/1999/xlink" width="48" height="48"><defs><style type="text/css">@font-face { font-family: feedback-iconfont; src: url("//at.alicdn.com/t/font_1031158_u69w8yhxdu.woff2?t=1630033759944") format("woff2"), url("//at.alicdn.com/t/font_1031158_u69w8yhxdu.woff?t=1630033759944") format("woff"), url("//at.alicdn.com/t/font_1031158_u69w8yhxdu.ttf?t=1630033759944") format("truetype"); }
</style></defs><path d="M694.851515 660.911518c-0.119727-1.88493-0.119727-1.88493-0.119727-1.88493-0.459464-2.02103-3.911076-14.234189-7.66968-27.139104l-127.403668-437.412235c-3.758604-12.903891-7.767917-27.232225-8.91095-31.840172 0 0 0 0-1.671059-3.722788-9.188266-20.930705-29.880541-34.462906-52.720735-34.462906-11.097756 0-21.908986 3.222391-31.407314 9.331529-3.364631 2.219551-3.364631 2.219551-3.364631 2.219551-3.38612 3.084245-14.558577 12.707416-24.826432 21.38096L286.913569 283.997146c-10.268878 8.67559-29.567409 17.245779-42.887786 19.047822 0 0-3.490497 0.471744-16.473183 4.266164-54.677297 15.918551-99.856265 52.17122-127.254266 102.074793C72.900334 459.314057 66.576301 516.90266 82.494852 571.556421c15.918551 54.677297 52.17122 99.856265 102.075817 127.254266 8.239662 4.526083 16.700357 8.42488 25.307386 11.795651 0.268106 0.12689 0.432859 0.369414 0.707105 0.488117 114.00859 48.925293 181.549869 228.589209 182.218088 230.40353 3.651157 9.856485 13.007245 15.966647 22.935362 15.966647 2.816139 0 5.680373-0.50142 8.472975-1.527796 12.649088-4.653997 19.116383-18.711154 14.462387-31.360242-2.333138-6.304589-45.965891-122.040521-126.758985-201.140043 11.664667-1.394766 23.299659-3.470031 34.802644-6.821359 13.865799-4.009314 19.098987-6.497994 19.098987-6.497994 12.138458-5.77247 33.025161-9.534144 46.414099-8.362458l202.670909 17.762549c13.388938 1.172709 26.083052 2.186805 28.209482 2.252297 0 0 0 0 1.88493-0.286526 28.973892-4.367471 49.999764-28.734438 49.999764-57.970296C694.993754 663.082974 694.875051 661.340283 694.851515 660.911518zM343.757205 666.595984c0 0 0 0-10.667967 3.098571-42.147936 12.267395-86.514399 7.374968-124.986619-13.722536-38.47222-21.12104-66.419735-55.942103-78.686107-98.06548-12.267395-42.147936-7.398504-86.538959 13.722536-124.986619 21.12104-38.47222 55.942103-66.419735 98.06548-78.686107 9.925047-2.8847 9.925047-2.8847 9.925047-2.8847 11.831466-1.451048 24.662703 7.897877 28.511357 20.777209l77.935 260.835633C361.423563 645.838218 355.206978 660.97394 343.757205 666.595984zM642.488937 670.684092c-1.521656 1.069355-13.722536 0.984421-27.111474-0.189312L412.723949 652.729162c-13.388938-1.173732-27.494191-12.671601-31.341822-25.549909l-78.650291-263.22096c-3.848655-12.878309 1.401929-30.513968 11.670807-39.189557l154.840554-130.847094c10.265808-8.67559 19.346627-16.381086 20.181645-17.121959 0.835018-0.740874 3.555989-2.671852 5.262864-3.472078 0 0 0 0 1.671059 0 4.200672 0 6.921643 2.839675 8.018627 5.298679 0.119727 0.286526 0.334621 0.906649 0.524956 1.981121 0.143263 0.954745 0.143263 0.954745 0.143263 0.954745 0.274246 1.036609 3.576455 12.444427 7.333012 25.348318l126.71703 435.072957C642.850164 654.886291 644.010593 669.614737 642.488937 670.684092z" p-id="5430"></path><path d="M741.821269 66.535369 765.152651 78.656431 671.827125 199.858864Z" p-id="5431"></path><path d="M740.714052 346.491479 948.738899 241.054101 942.933683 273.043676Z" p-id="5432"></path><path d="M933.573501 590.880535 769.880325 503.498372 936.224888 552.143279Z" p-id="5433"></path></svg>