<?xml version="1.0" standalone="no"?><!DOCTYPE svg PUBLIC "-//W3C//DTD SVG 1.1//EN" "http://www.w3.org/Graphics/SVG/1.1/DTD/svg11.dtd"><svg t="1649576643993" class="icon" viewBox="0 0 1024 1024" version="1.1" xmlns="http://www.w3.org/2000/svg" p-id="17178" xmlns:xlink="http://www.w3.org/1999/xlink" width="256" height="256"><defs><style type="text/css">@font-face { font-family: feedback-iconfont; src: url("//at.alicdn.com/t/font_1031158_u69w8yhxdu.woff2?t=1630033759944") format("woff2"), url("//at.alicdn.com/t/font_1031158_u69w8yhxdu.woff?t=1630033759944") format("woff"), url("//at.alicdn.com/t/font_1031158_u69w8yhxdu.ttf?t=1630033759944") format("truetype"); }
</style></defs><path d="M512 0C228.205714 0 0 228.205714 0 512S228.205714 1024 512 1024 1024 795.794286 1024 512 795.794286 0 512 0z m234.057143 687.542857c0 32.182857-26.331429 58.514286-58.514286 58.514286s-58.514286-26.331429-58.514286-58.514286v-87.771428c0-32.182857 26.331429-58.514286 58.514286-58.514286v-29.257143c0-96.548571-78.994286-175.542857-175.542857-175.542857s-175.542857 78.994286-175.542857 175.542857v29.257143c32.182857 0 58.514286 26.331429 58.514286 58.514286v87.771428c0 32.182857-26.331429 58.514286-58.514286 58.514286s-58.514286-26.331429-58.514286-58.514286v-175.542857c0-128.731429 105.325714-234.057143 234.057143-234.057143s234.057143 105.325714 234.057143 234.057143v175.542857z" fill="#8a8a8a" p-id="17179"></path></svg>