<?xml version="1.0" standalone="no"?><!DOCTYPE svg PUBLIC "-//W3C//DTD SVG 1.1//EN" "http://www.w3.org/Graphics/SVG/1.1/DTD/svg11.dtd"><svg t="1649575921013" class="icon" viewBox="0 0 1024 1024" version="1.1" xmlns="http://www.w3.org/2000/svg" p-id="1348" xmlns:xlink="http://www.w3.org/1999/xlink" width="256" height="256"><defs><style type="text/css">@font-face { font-family: feedback-iconfont; src: url("//at.alicdn.com/t/font_1031158_u69w8yhxdu.woff2?t=1630033759944") format("woff2"), url("//at.alicdn.com/t/font_1031158_u69w8yhxdu.woff?t=1630033759944") format("woff"), url("//at.alicdn.com/t/font_1031158_u69w8yhxdu.ttf?t=1630033759944") format("truetype"); }
</style></defs><path d="M545.18272 342.68672a234.21952 234.21952 0 1 0-275.79904 231.37792v300.0832a35.13344 35.13344 0 1 0 70.26688 0V576a235.13088 235.13088 0 0 0 205.53216-233.31328zM310.9632 507.29984a164.61824 164.61824 0 1 1 163.95264-164.61312 164.46976 164.46976 0 0 1-163.95264 164.61312z m434.47808-59.08992V165.14048a35.13344 35.13344 0 1 0-70.26688 0v284.48256a234.24512 234.24512 0 1 0 70.26688-1.41312z m-30.44864 397.72672a164.61312 164.61312 0 1 1 163.95776-164.61824 164.46464 164.46464 0 0 1-163.95776 164.61312z" fill="#1296db" p-id="1349"></path><path d="M502.2464 724.51072h-395.4176a35.28704 35.28704 0 0 1 0-70.56896h395.4176a35.28704 35.28704 0 0 1 0 70.56896z m420.01408-328.13568a34.95424 34.95424 0 0 1-24.42752-9.92256L710.10816 204.2368l-172.3904 174.08a35.21536 35.21536 0 1 1-49.85344-49.75104l187.008-188.84096a49.3312 49.3312 0 0 1 69.21728-0.67584l202.5984 196.67456a35.38432 35.38432 0 0 1 0.83968 49.88928 34.98496 34.98496 0 0 1-25.2672 10.76224z" fill="#1296db" p-id="1350"></path></svg>