<svg viewBox="0 0 500 500" xmlns:xlink="http://www.w3.org/1999/xlink" xmlns="http://www.w3.org/2000/svg"><defs><style>.cls-1{fill:none;}.cls-2,.cls-9{fill:#372732;}.cls-3{fill:url(#未命名的渐变_275);}.cls-4{fill:url(#未命名的渐变_275-2);}.cls-5{fill:url(#未命名的渐变_275-3);}.cls-6{fill:url(#未命名的渐变_257);}.cls-7{fill-opacity:0.09;}.cls-8{fill:url(#未命名的渐变_269);}.cls-9{fill-opacity:0.3;}.cls-10{fill:url(#未命名的渐变_271);}.cls-11{fill:#ffdc78;}.cls-12{fill:url(#未命名的渐变_269-2);}.cls-13{fill:url(#未命名的渐变_271-2);}.cls-14{fill:url(#未命名的渐变_269-3);}.cls-15{fill:url(#未命名的渐变_263);}.cls-16{fill:url(#未命名的渐变_269-4);}.cls-17{fill:url(#未命名的渐变_269-5);}.cls-18{fill:url(#未命名的渐变_271-3);}.cls-19{fill:url(#未命名的渐变_271-4);}.cls-20{fill:#f3f3f3;}.cls-21{fill:url(#未命名的渐变_268);}.cls-22{fill:url(#未命名的渐变_269-6);}.cls-23{fill:url(#未命名的渐变_271-5);}.cls-24{fill:url(#未命名的渐变_271-6);}.cls-25{fill:url(#未命名的渐变_273);}.cls-26{fill:url(#未命名的渐变_273-2);}.cls-27{fill:url(#未命名的渐变_275-4);}.cls-28{fill:url(#未命名的渐变_275-5);}</style><linearGradient gradientUnits="userSpaceOnUse" gradientTransform="translate(-635934 5956) scale(464 9)" y2="-636.72" x2="1370.47" y1="-636.72" x1="1371.39" id="未命名的渐变_275"><stop stop-color="#b7e0fe" offset="0"></stop><stop stop-color="#d0f1ff" offset="1"></stop></linearGradient><linearGradient xlink:href="#未命名的渐变_275" gradientTransform="translate(-635934 5996) scale(464 9)" y2="-636.72" x2="1370.47" y1="-636.72" x1="1371.39" id="未命名的渐变_275-2"></linearGradient><linearGradient xlink:href="#未命名的渐变_275" gradientTransform="translate(-635934 6036) scale(464 9)" y2="-636.72" x2="1370.47" y1="-636.72" x1="1371.39" id="未命名的渐变_275-3"></linearGradient><linearGradient gradientUnits="userSpaceOnUse" gradientTransform="matrix(1, 0, 0, -1, 110, 1464)" y2="1046.02" x2="164.83" y1="1053.41" x1="-126.08" id="未命名的渐变_257"><stop stop-color="#c3e8ff" offset="0"></stop><stop stop-color="#5cb3fc" offset="1"></stop></linearGradient><linearGradient gradientUnits="userSpaceOnUse" gradientTransform="translate(-84766.88 49337.49) scale(68.42 101.38)" y2="-484.09" x2="1242.17" y1="-482.17" x1="1242.64" id="未命名的渐变_269"><stop stop-color="#fb8460" offset="0"></stop><stop stop-color="#ffc4a7" offset="1"></stop></linearGradient><linearGradient gradientUnits="userSpaceOnUse" gradientTransform="translate(-50822.17 17103.45) scale(41.57 32.47)" y2="-515.26" x2="1226.89" y1="-514.98" x1="1227.74" id="未命名的渐变_271"><stop stop-color="#327aff" offset="0"></stop><stop stop-color="#5f86f9" offset="1"></stop></linearGradient><linearGradient xlink:href="#未命名的渐变_269" gradientTransform="translate(-103233.6 42528.37) scale(83.09 86.85)" y2="-486.53" x2="1246.11" y1="-484.61" x1="1247.05" id="未命名的渐变_269-2"></linearGradient><linearGradient xlink:href="#未命名的渐变_271" gradientTransform="translate(-38217.04 20877.41) scale(31.75 40.53)" y2="-505.98" x2="1215.19" y1="-505.53" x1="1215.71" id="未命名的渐变_271-2"></linearGradient><linearGradient xlink:href="#未命名的渐变_269" gradientTransform="translate(-45126.02 20709.32) scale(37.11 40.6)" y2="-505.83" x2="1222.76" y1="-502.96" x1="1223.69" id="未命名的渐变_269-3"></linearGradient><linearGradient gradientUnits="userSpaceOnUse" gradientTransform="translate(-31112.25 12844.35) scale(26.03 23.84)" y2="-531.9" x2="1204.65" y1="-532.78" x1="1204.65" id="未命名的渐变_263"><stop stop-color="#ffcb00" offset="0"></stop><stop stop-color="#fe9c00" offset="1"></stop></linearGradient><linearGradient xlink:href="#未命名的渐变_269" gradientTransform="translate(-169165.34 14949.26) scale(135.08 28.25)" y2="-522.1" x2="1253.81" y1="-521.95" x1="1253.67" id="未命名的渐变_269-4"></linearGradient><linearGradient xlink:href="#未命名的渐变_269" gradientTransform="translate(-90899.42 33024.6) scale(73.29 66.79)" y2="-491.7" x2="1243.67" y1="-490.11" x1="1244.7" id="未命名的渐变_269-5"></linearGradient><linearGradient xlink:href="#未命名的渐变_271" gradientTransform="translate(-60837.27 31146.62) scale(49.56 62.67)" y2="-492.86" x2="1233.19" y1="-492.41" x1="1233.72" id="未命名的渐变_271-3"></linearGradient><linearGradient xlink:href="#未命名的渐变_271" gradientTransform="translate(-93221.33 30410.36) scale(75.13 61.09)" y2="-493.51" x2="1243.94" y1="-493.21" x1="1244.79" id="未命名的渐变_271-4"></linearGradient><linearGradient gradientUnits="userSpaceOnUse" gradientTransform="translate(-45821.74 10967.83) scale(37.69 19.66)" y2="-545.39" x2="1223.52" y1="-545.61" x1="1223.38" id="未命名的渐变_268"><stop stop-color="#fff9b0" offset="0"></stop><stop stop-color="#ffdc78" offset="1"></stop></linearGradient><linearGradient xlink:href="#未命名的渐变_269" gradientTransform="translate(-67748.9 29165.42) scale(55.02 58.56)" y2="-494.94" x2="1236.37" y1="-493.03" x1="1237.27" id="未命名的渐变_269-6"></linearGradient><linearGradient xlink:href="#未命名的渐变_271" gradientTransform="translate(-27318.15 10768.92) scale(23.05 19.3)" y2="-547.14" x2="1196.28" y1="-546.82" x1="1197.13" id="未命名的渐变_271-5"></linearGradient><linearGradient xlink:href="#未命名的渐变_271" gradientTransform="translate(-31253.87 7200.81) scale(26.06 12.71)" y2="-551.55" x2="1203.71" y1="-551.44" x1="1204.56" id="未命名的渐变_271-6"></linearGradient><linearGradient gradientUnits="userSpaceOnUse" gradientTransform="translate(-46496 80960) scale(35 169)" y2="-478" x2="1329.19" y1="-475.98" x1="1329.4" id="未命名的渐变_273"><stop stop-color="#ffd7fd" offset="0"></stop><stop stop-color="#f35f83" offset="1"></stop></linearGradient><linearGradient xlink:href="#未命名的渐变_273" gradientTransform="translate(-46053 80960) scale(35 169)" y2="-478" x2="1329.19" y1="-475.98" x1="1329.4" id="未命名的渐变_273-2"></linearGradient><linearGradient xlink:href="#未命名的渐变_275" gradientTransform="translate(-5139 39727) scale(5 81)" y2="-486.69" x2="1057.7" y1="-487.83" x1="1057.7" id="未命名的渐变_275-4"></linearGradient><linearGradient xlink:href="#未命名的渐变_275" gradientTransform="translate(-4929 39727) scale(5 81)" y2="-486.69" x2="1057.7" y1="-487.83" x1="1057.7" id="未命名的渐变_275-5"></linearGradient></defs><g id="图层_2"><g id="Layer_1"><g id="Boxing"><rect height="500" width="500" class="cls-1" id="Rectangle"></rect><g id="Group-2"><rect height="96" width="13" y="285" x="21" class="cls-2" id="Rectangle-2"></rect><rect height="96" width="13" y="282" x="464" class="cls-2" id="Rectangle-3"></rect><rect height="9" width="464" y="221" x="18" class="cls-3" id="Rectangle-4"></rect><rect height="9" width="464" y="261" x="18" class="cls-4" id="Rectangle-5"></rect><rect height="9" width="464" y="301" x="18" class="cls-5" id="Rectangle-6"></rect><path d="M28.7,374,215,457.7l-34.6,6.7a13.71,13.71,0,0,1-7.5-.6L20.1,407.4A13.94,13.94,0,0,1,11,394.3V388a14,14,0,0,1,14-14Zm427.2,0L280.2,445.1,227,455.4,45.7,374Zm23.1,0a14,14,0,0,1,14,14v4.4a13.94,13.94,0,0,1-11.3,13.7L315.9,438.2,474.5,374Z" class="cls-6" id="Combined-Shape"></path><ellipse ry="8" rx="115.5" cy="388" cx="275.5" class="cls-7" id="Oval"></ellipse><g id="IMG_0035"><path d="M250.9,275s-25.5,19.7-26.2,24.1.1,7.1.3,11.3-20.7,64.8-20.7,64.8,2.1,2.4,4,.2,31.2-42.6,32.4-51a35.33,35.33,0,0,0-1.4-15.5l33.4-16.5Z" class="cls-8" id="Path"></path><path d="M239.8,284,266,295.6v.2l-16.9,8.4c-3.5-3.7-7.2-9.9-11-18.7A12.17,12.17,0,0,1,239.8,284Z" class="cls-9" id="Combined-Shape-2"></path><path d="M208.5,358.9c4.5.8,7.2,2.9,10.4,6.2,0,0-9.9,11.4-9.2,12.1s2,10.7.6,12.7-11.4,1.5-18,1.5c-4.5,0-12.1-.1-14.4-.7-.9-.2-.6-1.4-.1-2.6,1.2-3.2,6.3-3.2,11.1-5.6,4.5-2.3,13.4-7.2,13.4-7.2Z" class="cls-10" id="Path-2"></path><path d="M210.8,387.9a5.61,5.61,0,0,1-.5,1.9c-1.4,2-11.4,1.5-18,1.5-4.5,0-12.1-.1-14.4-.7-.6-.2-.7-.7-.5-1.5,2.5.1,7.1.2,14.8.1A178.44,178.44,0,0,0,210.8,387.9Z" class="cls-11" id="Path-3"></path><path d="M292.4,297.1s21.3,36.4,23.3,39.9,5,3.6,10.6,4.6c6,1.1,46.7,26.5,46.7,26.5l2.5-3.7s-28.8-32.3-36.8-37.2a52.89,52.89,0,0,0-13.7-5.6l-10.7-40.4Z" class="cls-12" id="Path-4"></path><path d="M317.6,293.6l2.1,7.9-13.4-1.8Z" class="cls-9" id="Combined-Shape-3"></path><path d="M361.8,363.7a22,22,0,0,1,7.8-8.6s9.1,12.6,10.4,13.5,2.3.5,3,1.2,6.7,10.1,7,11.5-6.1,2.9-9.5,6.4-9.5,7.9-13.7,7.9-11.1-3.6-7.6-5.4,8.3-4.8,9.9-7.1,6.6-10.2,6.6-10.2Z" class="cls-13" id="Path-5"></path><path d="M389.3,379.6a8.51,8.51,0,0,1,.7,1.6c.2,1.4-6.1,2.9-9.5,6.4s-9.5,7.9-13.7,7.9c-2.8,0-6.7-1.6-8.1-3.2,2.8.6,6.5,1.2,8.6.9,6.3-.9,10.4-6.5,14.7-9.6A45.24,45.24,0,0,1,389.3,379.6Z" class="cls-11" id="Path-6"></path><path d="M250.6,193.3c-1,2.4,18,.8,21.1-4,1.4-2.2-6.7-2.7-13.8-12.1-3.7-5-1.2-4.8.2-8.7s3.2-8.5,2-10.5c-1.7-2.8-17.2-6.9-19.8-2-2.4,4.5-4,12-4,12s-1.6.9-1.6,2.3c0,1.2,1.5,1.9,1.5,1.9s-.2,6.8,2.5,8.4,9.2-.8,9.2-.8S252.9,187.9,250.6,193.3Z" class="cls-14" id="Path-7"></path><path d="M252,178.3l-1.2,8.3a25.11,25.11,0,0,0-2.6-6.5Z" class="cls-9" id="Combined-Shape-4"></path><path d="M235.6,160.3c.3,2.4,3.4,2.1,3.4,2.1s7.6-1.2,9.4-.5a4.51,4.51,0,0,1,2.8,5.3c-.5,2.9-.7,5.1-.1,5.1s.6-3,2.3-3.9,3.6.1,3.2,1.5-1.2,2.3-.8,3.5.6,1.7.6,1.7,7.1-12.5,4.8-17.4c-1.7-3.5-14-8.6-20-5.5C238.4,153.8,235.3,157.4,235.6,160.3Z" class="cls-15" id="Path-8"></path><path d="M123.9,190.6s28.4-2.1,40.4-3.7,11.4,2.9,17.8,2.9,25.2,2.4,28.7.4,13.1-3,18.4-2.1,19.2,2.2,19.2,2.2c7.8.7,10.9,10.2,10.5,13.9-.4,4.3-7.8,13.4-13.6,9.7,0,0-12.4-9.1-19.9-10.2s-38-2.7-41.4-1.4-4.9,1.1-10.7.3-27.8-7.7-33-7.4a71.8,71.8,0,0,1-12.3-.8Z" class="cls-16" id="Path-9"></path><path d="M232,204.1c4.4,7.1,8.4,15,14.2,18.4s6.4,4,8.1,6.1,1.9,5.3,5.5,9.3,9,6,9.5,8.5,1.3,6.9,1.3,6.9l33.8-7.5s-5.1-15.8-5.9-24.7-2.7-27.6-8-30.9-9.6-3.7-17.2-3.7-17.2,4.3-30.6,2.6C237.2,188.6,228.5,198.4,232,204.1Z" class="cls-17" id="Path-10"></path><path d="M231.8,202c3.2,2,6.3,7.3,9.4,16.2-2.8-3.3-5.2-7.5-7.7-11.6a26.94,26.94,0,0,0-7.9-2.8c-4.2-.6-15.3-1.3-25-1.7C217.3,199.5,227.7,199.5,231.8,202Z" class="cls-9" id="Combined-Shape-5"></path><path d="M271.5,246.6l15.7-7.9c-7.7-6.8-16.6-16.3-26.9-28.3l-.7-.8,27.3,7.3-7.2-14.6,16.1-1a163.24,163.24,0,0,1,2.8,19.3v.5a29.38,29.38,0,0,0,1.5,8.6c1.8,7.8,4.3,15.8,4.4,16.1h0l-6.3,1.5a72.48,72.48,0,0,1-7.5-5.6Z" class="cls-9" id="Combined-Shape-6"></path><path d="M273.8,252.2s2.9,13.9,4.3,20.8c1.9,8.7,6.9,31.5,6.9,31.5,16.1-1.6,29.2-5.8,38.3-10.9l-10.9-25c-.6-10.1-5.6-18.6-11.7-26.8Z" class="cls-18" id="Path-11"></path><path d="M307.7,252.6a40.11,40.11,0,0,1,4.7,16h0l7,16.1,3.1,9.3a79.76,79.76,0,0,1-14,5.8l-25.4-3.7c-.3-1.3-.6-2.8-.9-4.3Z" class="cls-9" id="Combined-Shape-7"></path><path d="M272,253.2l-37,28s8.3,14.3,18,19.2a43.21,43.21,0,0,0,18.8,4.6,32.21,32.21,0,0,1,7-7.9c4.1-3.1,26.6-22.3,30.4-30.1s-5.6-23-5.6-23Z" class="cls-19" id="Path-12"></path><path d="M291.1,247.7c1.7,3.6,4,10,1.8,13.6-2.6,4.1-33.8,24.9-45,35.7a75.41,75.41,0,0,1-8.6-9.3c11.1-8.7,37-28.9,39.5-30.8,1.6-1.2,1.5-3.7,1-5.9Z" class="cls-20" id="Path-13"></path><path d="M302.2,235.2a261.26,261.26,0,0,1-33.6,11.5l1,8a61,61,0,0,0,18.2-1.9,104.3,104.3,0,0,0,18.5-6.1Z" class="cls-21" id="Path-14"></path><path d="M301.7,235.4l.5.6c.6,1.6,1.5,3.6,2.3,5.2.5,1.2,1.3,3.1,2.2,5.7h0l-1.1.4c1,2.3,1.6,3.7,1.7,4.1H307c-4.1-.9-9.6-4.1-16.3-9.7a14.15,14.15,0,0,1-1.6-1.4h0Z" class="cls-9" id="Combined-Shape-8"></path><path d="M265.9,215.9s22.9,20.7,31.2,25.1c9.4,5,10.6,4.4,15.9,5.6,4.5,1,7.9,0,7.9-3.1,0-6.2-2.3-11.1-4.3-17.7-1.6-5.2-10.4-16.3-12.5-20.8s-10.7-14.3-16.9-16.3-8.7,5.6-8.8,9.3c-.2,6.4,7.3,15.7,12.6,17.4,3.6,1.1,3.4,4.1,6.6,7.4,2.9,3,6.9,7,6.9,7s-19.6-11.1-26.5-13.6a58.7,58.7,0,0,1-10.1-4.5Z" class="cls-22" id="Path-15"></path><path d="M273.1,214s-5.6-2.3-7-3.4-3.8-8.2-7.1-9c-3.1-.7-5-.6-7.3,3s-2.2,8.8-.1,9.4a5.05,5.05,0,0,0,2.9.2c1.3-.1,5.9,1.8,7.8,1.4s6.6,4.9,6.6,4.9A17.41,17.41,0,0,1,273.1,214Z" class="cls-23" id="Path-16"></path><g id="Group-3"><path d="M145.62,192.65c.1,2.2-.2,3.3-.6,3.8s-6.9-1.7-8.6-1.5-3.1,3.5-5.6,4.6c-1.8.8-4.3.1-3.5-.7a2.42,2.42,0,0,0,.9-2s-.9,1.5-3.8,1.5-4.9-2-4.8-4.4,4.8-6.8,7.5-6.6,6,1.9,7.9,2.3,10-1.1,10-1.1A22,22,0,0,1,145.62,192.65Z" class="cls-24" id="Path-17"></path></g><path d="M250.6,193.8c3,2.1,5.9,2.6,8.6,1.5s4.7-2.4,5.7-3.9a45.17,45.17,0,0,1-8.7,2.4A13.16,13.16,0,0,1,250.6,193.8Z" class="cls-9" id="Path-132"></path></g><path d="M14,185H41a4,4,0,0,1,4,4V350a4,4,0,0,1-4,4H14a4,4,0,0,1-4-4V189A4,4,0,0,1,14,185Z" class="cls-25" id="Rectangle-7"></path><path d="M457,185h27a4,4,0,0,1,4,4V350a4,4,0,0,1-4,4H457a4,4,0,0,1-4-4V189A4,4,0,0,1,457,185Z" class="cls-26" id="Rectangle-8"></path><rect height="81" width="5" y="224" x="147" class="cls-27" id="Rectangle-9"></rect><rect height="81" width="5" y="224" x="357" class="cls-28" id="Rectangle-10"></rect></g></g></g></g></svg>