<?xml version="1.0" standalone="no"?><!DOCTYPE svg PUBLIC "-//W3C//DTD SVG 1.1//EN" "http://www.w3.org/Graphics/SVG/1.1/DTD/svg11.dtd"><svg t="1649926388535" class="icon" viewBox="0 0 1024 1024" version="1.1" xmlns="http://www.w3.org/2000/svg" p-id="2515" xmlns:xlink="http://www.w3.org/1999/xlink" width="48" height="48"><defs><style type="text/css">@font-face { font-family: feedback-iconfont; src: url("//at.alicdn.com/t/font_1031158_u69w8yhxdu.woff2?t=1630033759944") format("woff2"), url("//at.alicdn.com/t/font_1031158_u69w8yhxdu.woff?t=1630033759944") format("woff"), url("//at.alicdn.com/t/font_1031158_u69w8yhxdu.ttf?t=1630033759944") format("truetype"); }
</style></defs><path d="M583.7 259v1.2c27.4-17.1 48.2-43.8 57.9-75.3-9.9 31-30.7 57.2-57.9 74.1zM376.5 143.5c0-3.4 0.2-6.9 0.5-10.2 3.3 44.1 27.6 82.3 62.9 104.6v-66.5c0-39.6 32.4-71.9 71.9-71.9 39.6 0 71.9 32.4 71.9 71.9v66.9c35-21.8 59.3-59 63.6-102.2-4.5-70.9-63.4-127-135.5-127C436.8 9.3 376 70 376 145c0 48.6 25.5 91.2 63.9 115.2v-1.8c-38.1-24-63.4-66.5-63.4-114.9zM583.7 763.8c38.3 24.1 63.7 66.7 63.7 115.2 0 3.4-0.2 6.9-0.5 10.2-3.3-44.2-27.7-82.6-63.2-104.9v65c0 39.6-32.4 71.9-71.9 71.9-39.6 0-71.9-32.4-71.9-71.9v-65c-35.6 22.3-60.1 60.7-63.5 104.9-0.1-1.2-0.1-2.3-0.2-3.5 3.5 71.9 62.9 129 135.6 129 75 0 135.8-60.8 135.8-135.8 0-48.5-25.5-91.1-63.9-115.1z" fill="#A8B7BD" p-id="2516"></path><path d="M439.9 784.3v-20.6c-38.4 24-64 66.6-64 115.2 0 2.3 0.1 4.5 0.3 6.7 0.1 1.2 0.2 2.3 0.2 3.5 3.4-44.1 27.9-82.5 63.5-104.8zM647 889.2c0.3-3.3 0.5-6.8 0.5-10.2 0-48.5-25.5-91.1-63.7-115.1v20.4c35.5 22.3 59.9 60.7 63.2 104.9zM583.7 238.4V259c27.2-16.9 48-43.1 57.9-74.1 4.2-13 6.4-26.9 6.4-41.3 0-3.4-0.3-6.8-0.5-10.2l-0.3 3c-4.2 43-28.5 80.2-63.5 102zM377 133.3c-0.3 3.3-0.5 6.8-0.5 10.2 0 48.4 25.3 90.8 63.4 114.9V238c-35.3-22.4-59.6-60.6-62.9-104.7z" fill="#63777C" p-id="2517"></path><path d="M439.9 784.3v65c0 39.6 32.4 71.9 71.9 71.9 39.6 0 71.9-32.4 71.9-71.9V171.5c0-39.6-32.4-71.9-71.9-71.9-39.6 0-71.9 32.4-71.9 71.9V784.3z" fill="#D3DCE0" p-id="2518"></path></svg>