<?xml version="1.0" standalone="no"?><!DOCTYPE svg PUBLIC "-//W3C//DTD SVG 1.1//EN" "http://www.w3.org/Graphics/SVG/1.1/DTD/svg11.dtd"><svg t="1649576717631" class="icon" viewBox="0 0 1024 1024" version="1.1" xmlns="http://www.w3.org/2000/svg" p-id="25884" xmlns:xlink="http://www.w3.org/1999/xlink" width="256" height="256"><defs><style type="text/css">@font-face { font-family: feedback-iconfont; src: url("//at.alicdn.com/t/font_1031158_u69w8yhxdu.woff2?t=1630033759944") format("woff2"), url("//at.alicdn.com/t/font_1031158_u69w8yhxdu.woff?t=1630033759944") format("woff"), url("//at.alicdn.com/t/font_1031158_u69w8yhxdu.ttf?t=1630033759944") format("truetype"); }
</style></defs><path d="M512 0A512 512 0 1 1 0 512 512 512 0 0 1 512 0z m330.752 795.136l-140.544-142.08a300.544 300.544 0 0 0-235.264-481.792 299.776 299.776 0 0 0 0 599.296 293.12 293.12 0 0 0 184.832-65.536l140.032 141.824a36.096 36.096 0 0 0 51.2 0 36.864 36.864 0 0 0 0-51.2z m-534.272-163.84a229.12 229.12 0 0 1 0-320.768 222.464 222.464 0 0 1 316.928 0 229.12 229.12 0 0 1 0 320.768 222.464 222.464 0 0 1-316.928 0z m0 0" p-id="25885" fill="#8a8a8a"></path></svg>