<?xml version="1.0" standalone="no"?><!DOCTYPE svg PUBLIC "-//W3C//DTD SVG 1.1//EN" "http://www.w3.org/Graphics/SVG/1.1/DTD/svg11.dtd"><svg t="1649926644455" class="icon" viewBox="0 0 1024 1024" version="1.1" xmlns="http://www.w3.org/2000/svg" p-id="2679" xmlns:xlink="http://www.w3.org/1999/xlink" width="48" height="48"><defs><style type="text/css">@font-face { font-family: feedback-iconfont; src: url("//at.alicdn.com/t/font_1031158_u69w8yhxdu.woff2?t=1630033759944") format("woff2"), url("//at.alicdn.com/t/font_1031158_u69w8yhxdu.woff?t=1630033759944") format("woff"), url("//at.alicdn.com/t/font_1031158_u69w8yhxdu.ttf?t=1630033759944") format("truetype"); }
</style></defs><path d="M396.7 374.1l13.2 46.3c20.8 63.6 44.1 118.4 69.9 164.3l26.4 42.5c39 57.3 81.8 100.4 128.4 129.4 46.6 29 77.7 43.4 93.5 43.4 9.4 0 17.3-5.3 23.6-16.1 6.3-10.7 13.8-34.9 22.7-72.7 8.8-37.8 14.8-56.7 17.9-56.7 3.1 0 4.7 7.2 4.7 21.7v17.9c0 50.4 6.6 106.1 19.8 167.1 0.6 4.4 0.9 8.2 0.9 11.3 0 14.5-8.7 21.7-26 21.7s-45.8-9.4-85.5-28.3-81.1-46.6-124.2-83.1c-43.1-36.5-79.2-77.1-108.1-121.8l-23.6-43.4c-25.2-44.1-51.6-104.2-79.3-180.4L356.1 394c-31.5-95.7-52.1-156.1-61.9-181.3-9.8-25.2-19.7-42.2-29.7-51-10.1-8.8-15.1-16.1-15.1-21.7 0-6.9 6-10.4 17.9-10.4 12 0 27.4 2.4 46.3 7.1 18.9 4.7 32.4 9.9 40.6 15.6 8.2 5.7 12.3 12.1 12.3 19.4 0 7.2-0.5 13.5-1.4 18.9-0.9 5.4-1.4 11.2-1.4 17.5 0 30.7 11 86.1 33 166" p-id="2680"></path></svg>