<?xml version="1.0" standalone="no"?><!DOCTYPE svg PUBLIC "-//W3C//DTD SVG 1.1//EN" "http://www.w3.org/Graphics/SVG/1.1/DTD/svg11.dtd"><svg t="1649754351458" class="icon" viewBox="0 0 1024 1024" version="1.1" xmlns="http://www.w3.org/2000/svg" p-id="19840" xmlns:xlink="http://www.w3.org/1999/xlink" width="200" height="200"><defs><style type="text/css">@font-face { font-family: feedback-iconfont; src: url("//at.alicdn.com/t/font_1031158_u69w8yhxdu.woff2?t=1630033759944") format("woff2"), url("//at.alicdn.com/t/font_1031158_u69w8yhxdu.woff?t=1630033759944") format("woff"), url("//at.alicdn.com/t/font_1031158_u69w8yhxdu.ttf?t=1630033759944") format("truetype"); }
</style></defs><path d="M240.512 184.704l-46.592-53.76a486.72 486.72 0 0 1 70.72-51.264l36.544 60.928a421.44 421.44 0 0 0-60.672 44.096zM125.504 342.848L60.032 315.2a513.6 513.6 0 0 1 37.824-72.512l60.096 37.952a455.808 455.808 0 0 0-32.448 62.208zM22.72 554.368a511.744 511.744 0 0 1-0.512-82.304l70.848 5.312a462.08 462.08 0 0 0 0.448 70.784l-70.784 6.208zM355.584 290.816h336.896v56.192c-93.568 104.448-155.968 246.592-187.136 425.792H421.12a1000.96 1000.96 0 0 1 170.88-411.776H355.584V290.816z" fill="#E6AE3B" p-id="19841"></path><path d="M522.304 8.512v0.064H521.6a35.584 35.584 0 0 0 0 71.104l1.216-0.064a430.976 430.976 0 0 1 429.952 430.464c0 237.312-193.152 430.528-430.464 430.528a428.8 428.8 0 0 1-363.456-199.808l26.304 4.608a40.64 40.64 0 1 0 13.952-80.064L94.08 647.04a39.68 39.68 0 0 0-9.472-0.576 40.448 40.448 0 0 0-38.08 25.6l-39.616 98.816a40.704 40.704 0 0 0 75.456 30.208l11.904-29.696a499.2 499.2 0 0 0 428.032 240.064c276.48 0 501.504-225.024 501.504-501.44 0-276.544-225.024-501.504-501.504-501.504z" fill="#E6AE3B" p-id="19842"></path></svg>