<?xml version="1.0" standalone="no"?><!DOCTYPE svg PUBLIC "-//W3C//DTD SVG 1.1//EN" "http://www.w3.org/Graphics/SVG/1.1/DTD/svg11.dtd"><svg t="1649763985612" class="icon" viewBox="0 0 1024 1024" version="1.1" xmlns="http://www.w3.org/2000/svg" p-id="20141" xmlns:xlink="http://www.w3.org/1999/xlink" width="200" height="200"><defs><style type="text/css">@font-face { font-family: feedback-iconfont; src: url("//at.alicdn.com/t/font_1031158_u69w8yhxdu.woff2?t=1630033759944") format("woff2"), url("//at.alicdn.com/t/font_1031158_u69w8yhxdu.woff?t=1630033759944") format("woff"), url("//at.alicdn.com/t/font_1031158_u69w8yhxdu.ttf?t=1630033759944") format("truetype"); }
</style></defs><path d="M567.91 595.81c28.06 39.34 19.56 84.22 1.11 94.72-25.37 14.45-71.05-2.11-78.96-46.38-15.95-89.33-44.22-93.74-43.92-112.42 0.47-29.19 93.71 24.73 121.77 64.08zM484.68 397.38c18.2 16.72 24.57 39.4 14.23 50.64-10.34 11.25-40.93 13.93-53.71-7.28-24-39.81-52.07-57.46-56.43-66.67-6.41-13.53 77.71 6.58 95.91 23.31zM666.79 496.91c19.67 21.09 25.05 48.04 12.01 60.2-13.03 12.16-48.86 12.53-61.83-13.29-24.35-48.48-55.42-71.52-59.67-82.63-6.24-16.32 89.82 14.63 109.49 35.72z" fill="#ff792a" p-id="20142"></path></svg>