<?xml version="1.0" standalone="no"?><!DOCTYPE svg PUBLIC "-//W3C//DTD SVG 1.1//EN" "http://www.w3.org/Graphics/SVG/1.1/DTD/svg11.dtd"><svg t="1649554585121" class="icon" viewBox="0 0 1024 1024" version="1.1" xmlns="http://www.w3.org/2000/svg" p-id="1671" xmlns:xlink="http://www.w3.org/1999/xlink" width="256" height="256"><defs><style type="text/css">@font-face { font-family: feedback-iconfont; src: url("//at.alicdn.com/t/font_1031158_u69w8yhxdu.woff2?t=1630033759944") format("woff2"), url("//at.alicdn.com/t/font_1031158_u69w8yhxdu.woff?t=1630033759944") format("woff"), url("//at.alicdn.com/t/font_1031158_u69w8yhxdu.ttf?t=1630033759944") format("truetype"); }
</style></defs><path d="M409.673179 21.296579L158.373547 613.341475c-4.259316 8.518632 0 21.296579 8.518631 25.555895h225.743738c8.518632 0 17.037263 8.518632 17.037263 17.037263v8.518631l-132.03879 336.485948c-4.259316 8.518632 0 21.296579 8.518632 21.296579 8.518632 4.259316 17.037263 0 21.296579-4.259315l553.711053-617.600791c8.518632-8.518632 4.259316-17.037263 0-25.555895-4.259316-4.259316-8.518632-4.259316-12.777947-4.259316h-200.187843c-8.518632 0-17.037263-8.518632-17.037263-17.037263-4.259316-8.518632-4.259316-12.777947 0-12.777947l212.96579-281.114843c12.777947-17.037263 8.518632-38.333842-4.259316-51.111789-8.518632-4.259316-17.037263-8.518632-25.555895-8.518632H443.747705c-17.037263 0-29.815211 8.518632-34.074526 21.296579z" fill="#1296db" p-id="1672"></path></svg>