<?xml version="1.0" standalone="no"?><!DOCTYPE svg PUBLIC "-//W3C//DTD SVG 1.1//EN" "http://www.w3.org/Graphics/SVG/1.1/DTD/svg11.dtd"><svg t="1651368763139" class="icon" viewBox="0 0 1024 1024" version="1.1" xmlns="http://www.w3.org/2000/svg" p-id="4577" xmlns:xlink="http://www.w3.org/1999/xlink" width="48" height="48"><defs><style type="text/css">@font-face { font-family: feedback-iconfont; src: url("//at.alicdn.com/t/font_1031158_u69w8yhxdu.woff2?t=1630033759944") format("woff2"), url("//at.alicdn.com/t/font_1031158_u69w8yhxdu.woff?t=1630033759944") format("woff"), url("//at.alicdn.com/t/font_1031158_u69w8yhxdu.ttf?t=1630033759944") format("truetype"); }
</style></defs><path d="M924.122245 100.582813c-0.025583-0.025583-0.050142-0.051165-0.075725-0.075725-23.274076-23.239284-54.210669-36.036751-87.11201-36.036751l-243.062851 0.051165c-42.652426-0.004093-92.449575 6.180769-138.456399 52.095495-4.713348 4.717442-18.057261 18.052145-33.633005 33.614585l-0.030699-0.030699-69.053726 69.053726c-0.168846 0.167822-0.255827 0.255827-0.255827 0.255827l-0.01228 0.01228c-12.190647 12.190647-12.190647 31.945573 0 44.135196 12.187577 12.187577 31.934317 12.189623 44.124963 0.00921l0.001023 0.001023c0 0 0.00921-0.00921 0.00921-0.00921 0.00614-0.00614 0.084934-0.083911 0.246617-0.246617 5.238304-5.233188 89.261976-89.176019 102.723569-102.644775 28.231995-28.17469 57.026808-33.831526 94.338598-33.831526l243.063875-0.050142c16.246009 0.00307 31.514761 6.321986 43.007513 17.793248 0.014326 0.014326 0.025583 0.024559 0.035816 0.035816 11.468193 11.469216 17.775852 26.705222 17.761526 42.904159l0.456395-0.00307c-0.297782 2.690272-0.459464 5.602601-0.456395 8.752338l-0.061398 228.125651c-0.035816 34.44551-4.155646 70.423933-33.784454 100.095719-7.477298 7.442506-103.278201 103.084797-103.278201 103.084797l0.097214 0.097214-0.019443 0.019443c-12.190647 12.190647-12.190647 31.945573 0 44.13622 12.190647 12.190647 31.945573 12.190647 44.135196 0l69.320808-69.321832-0.036839-0.035816c16.998139-16.966417 31.16479-31.103392 33.879622-33.806967 46.100968-46.171576 52.05968-101.323687 52.095495-144.238079l0.068562-236.853429C960.190719 154.776086 947.393251 123.853819 924.122245 100.582813z" p-id="4578"></path><path d="M805.190529 219.169675c-36.503379-36.503379-95.904257-36.503379-132.407636 0-36.503379 36.503379-36.503379 95.904257 0 132.407636 36.503379 36.503379 95.904257 36.503379 132.407636 0C841.693908 315.073932 841.693908 255.673054 805.190529 219.169675zM761.054309 307.441091c-12.169157 12.169157-31.967062 12.169157-44.13622 0-12.169157-12.169157-12.169157-31.967062 0-44.135196 12.169157-12.169157 31.967062-12.169157 44.13622 0C773.223466 275.474029 773.223466 295.272957 761.054309 307.441091z" p-id="4579"></path><path d="M503.405251 407.562393l21.529339-21.529339c12.186554-12.187577 12.186554-31.948643 0-44.13622-12.187577-12.186554-31.948643-12.186554-44.13622 0l-21.529339 21.529339c-12.187577 12.187577-12.187577 31.948643 0 44.13622C471.455585 419.74997 491.217674 419.74997 503.405251 407.562393z" p-id="4580"></path><path d="M660.929938 565.088102l21.529339-21.529339c12.187577-12.186554 12.187577-31.948643 0-44.135196-12.186554-12.187577-31.948643-12.187577-44.135196 0l-21.529339 21.529339c-12.187577 12.187577-12.187577 31.948643 0 44.13622C628.981295 577.274656 648.743384 577.274656 660.929938 565.088102z" p-id="4581"></path><path d="M408.786267 485.537302c-4.831029 20.670785-4.673439 63.987337 26.543539 95.203292 31.058366 31.058366 74.479295 31.643698 95.240131 27.096125 16.838503-3.692089 27.495214-20.333094 23.806195-37.167504-3.700275-16.85283-20.336164-27.491121-37.167504-23.806195-0.226151 0.054235-23.195282 4.288676-37.742603-10.258645-14.137998-14.137998-10.114358-35.731806-9.82374-37.20025 3.710508-16.676821-6.702656-33.267685-23.36515-37.157271C429.488775 458.32452 412.70553 468.75201 408.786267 485.537302z" p-id="4582"></path><path d="M680.247912 708.2425l-0.016373-0.016373c0 0-169.230286 169.036881-170.968883 170.775478-11.489682 11.482519-26.765597 17.808598-43.018769 17.811668-16.238846-0.004093-31.500435-6.321986-42.99421-17.815761-0.00307-0.004093-0.011256-0.011256-0.017396-0.01842L145.027048 601.041966c-11.490705-11.015891-17.818831-26.733874-17.811668-42.939975 0.007163-16.191774 6.332219-31.417547 17.83725-42.901089 1.684362-1.684362 171.130565-170.980139 171.130565-170.980139l-0.089028-0.089028 0.00921-0.00921c12.190647-12.190647 12.190647-31.945573 0-44.135196-12.190647-12.190647-31.945573-12.190647-44.135196 0l-69.321832 69.321832 0.059352 0.059352c-47.028083 46.986127-100.8325 100.743472-101.766778 101.676727-23.296589 23.246447-36.129872 54.160527-36.141128 87.036285-0.014326 32.878828 12.794397 63.797002 36.065404 87.069031 0.017396 0.017396 0.035816 0.035816 0.054235 0.054235L379.097084 923.117358c0.014326 0.014326 0.024559 0.024559 0.038886 0.038886 23.260773 23.260773 54.196343 36.072567 87.107917 36.068474 32.918737 0.004093 63.868633-12.8077 87.150896-36.0828 0.977257-0.977257 54.656831-54.594409 101.598956-101.484346l0.054235 0.054235 69.321832-69.321832c12.190647-12.190647 12.190647-31.945573 0-44.13622C712.183252 696.067202 692.438559 696.065156 680.247912 708.2425z" p-id="4583"></path></svg>