<svg xmlns="http://www.w3.org/2000/svg" xmlns:xlink="http://www.w3.org/1999/xlink" viewBox="0 0 750 1125"><defs><style>.cls-1,.cls-22,.cls-28,.cls-29,.cls-32,.cls-35,.cls-46,.cls-53,.cls-58,.cls-64,.cls-65{fill:none;}.cls-2{fill:#7dc4c0;}.cls-3{fill:#f0c77a;}.cls-4,.cls-49{fill:#ede3d6;}.cls-4,.cls-53{stroke:#b09d87;}.cls-22,.cls-28,.cls-29,.cls-32,.cls-4,.cls-53,.cls-58,.cls-6,.cls-64,.cls-66{stroke-linecap:round;stroke-linejoin:round;}.cls-14,.cls-35,.cls-4,.cls-53{stroke-width:15px;}.cls-5{fill:#b2c8d4;}.cls-6,.cls-61{fill:#437da3;}.cls-6,.cls-60,.cls-64,.cls-65,.cls-66,.cls-67,.cls-68,.cls-7{stroke:#493437;}.cls-28,.cls-29,.cls-32,.cls-58,.cls-6,.cls-60,.cls-64,.cls-65,.cls-66,.cls-67,.cls-68,.cls-7{stroke-width:2px;}.cls-7,.cls-70{fill:#243b4a;}.cls-14,.cls-35,.cls-46,.cls-60,.cls-65,.cls-67,.cls-68,.cls-7{stroke-miterlimit:10;}.cls-8{fill:#40a199;}.cls-9{fill:#d1b07f;}.cls-10{fill:#e3e1db;}.cls-11{fill:#f2ddb4;}.cls-12{fill:#f1f7ff;}.cls-13{fill:#e0dedc;}.cls-14{fill:#c4e8ff;}.cls-14,.cls-35{stroke:#755a5e;}.cls-15{clip-path:url(#clip-path);}.cls-16{fill:#2fa891;}.cls-17{fill:#71c6bd;}.cls-18{fill:#52b5a9;}.cls-19{fill:#755a5e;}.cls-20{fill:#a9a3c2;}.cls-21{fill:#8f8aa8;}.cls-22{stroke:#817c9c;stroke-width:10px;}.cls-23{fill:#bdb7b2;}.cls-24{clip-path:url(#clip-path-2);}.cls-25{fill:#4fa69f;}.cls-26{clip-path:url(#clip-path-3);}.cls-27{fill:#8fd1cd;}.cls-28{stroke:#267a73;}.cls-29{stroke:#bfa174;}.cls-30{fill:#d1bd8e;}.cls-31{clip-path:url(#clip-path-4);}.cls-32{stroke:#2a8780;}.cls-33{clip-path:url(#clip-path-5);}.cls-34{fill:#b39162;}.cls-36{fill:#b8b6b2;}.cls-37{fill:#e8e6e1;}.cls-38{clip-path:url(#clip-path-6);}.cls-39{fill:#c4c3bf;}.cls-40{clip-path:url(#clip-path-7);}.cls-41{fill:#bdb397;}.cls-42{clip-path:url(#clip-path-8);}.cls-43{fill:#e3cda3;}.cls-44{clip-path:url(#clip-path-9);}.cls-45{fill:#deb362;}.cls-46{stroke:#f0d9ad;stroke-width:3px;}.cls-47{clip-path:url(#clip-path-10);}.cls-48{clip-path:url(#clip-path-11);}.cls-50{clip-path:url(#clip-path-12);}.cls-51{fill:#dec395;}.cls-52{fill:#95bade;}.cls-54{fill:#b39c88;}.cls-55{fill:#918c84;}.cls-56{clip-path:url(#clip-path-13);}.cls-57{fill:#93b6c9;}.cls-58{stroke:#7ba2b8;}.cls-59{clip-path:url(#clip-path-14);}.cls-60,.cls-66{fill:#ffdbd1;}.cls-62{clip-path:url(#clip-path-15);}.cls-63{fill:#356280;}.cls-67{fill:#291e1e;}.cls-68{fill:#9c280e;}.cls-69{clip-path:url(#clip-path-16);}.cls-71{clip-path:url(#clip-path-17);}.cls-72{fill:#1e2b33;}</style><clipPath id="clip-path"><rect class="cls-1" x="-35.91" y="-25.6" width="487.15" height="353.36"/></clipPath><clipPath id="clip-path-2"><path class="cls-2" d="M142.3,527.68s12.76,3.58,13.79-24c.38-10.34,3.44-15.75,7.73-17.34,3.5-1.3,16,1.26,18.05,2.53,3.32,2,10,8.17,13.79,41.36s-12.26,17.62-12.26,17.62l-10.21-7.15s2.55-18.13-5.1-31.91C168.09,508.79,166.55,537.64,142.3,527.68Z"/></clipPath><clipPath id="clip-path-3"><path class="cls-8" d="M206.64,383.77s-7.15,59.23-12.09,73-4.59,18.55-4.42,20.93,1.7,39.66,1.7,39.66l.34,19.58,23.66-22.3,2.72-41s-4.25-35.75-6.64-41.53C211.91,432.11,223,401.13,206.64,383.77Z"/></clipPath><clipPath id="clip-path-4"><path class="cls-2" d="M190.81,551.68s.25-54.38,37-88.34c0,0,5.11-1.53,5.11,4.85s-5.62,18.64-12,23c0,0,1,23.74-1.28,32.68s-16.34,27.83-16.34,27.83Z"/></clipPath><clipPath id="clip-path-5"><polygon class="cls-9" points="215.13 609.3 162.75 609.3 155.75 545.3 222.13 545.3 215.13 609.3"/></clipPath><clipPath id="clip-path-6"><path class="cls-10" d="M357.15,310.15H554.77a35.62,35.62,0,0,1,35.62,35.62V546.83a0,0,0,0,1,0,0H321.53a0,0,0,0,1,0,0V345.77A35.62,35.62,0,0,1,357.15,310.15Z"/></clipPath><clipPath id="clip-path-7"><path class="cls-10" d="M625.53,310.15H823.15a35.62,35.62,0,0,1,35.62,35.62V546.83a0,0,0,0,1,0,0H589.91a0,0,0,0,1,0,0V345.77A35.62,35.62,0,0,1,625.53,310.15Z"/></clipPath><clipPath id="clip-path-8"><rect class="cls-11" x="389.96" y="287.43" width="144.77" height="108" transform="translate(924.68 682.85) rotate(-180)"/></clipPath><clipPath id="clip-path-9"><rect class="cls-3" x="409.7" y="287.43" width="104.11" height="88.6" transform="translate(923.51 663.45) rotate(-180)"/></clipPath><clipPath id="clip-path-10"><rect class="cls-11" x="657.02" y="287.43" width="144.77" height="108" transform="translate(1458.81 682.85) rotate(-180)"/></clipPath><clipPath id="clip-path-11"><rect class="cls-3" x="676.77" y="287.43" width="104.11" height="88.6" transform="translate(1457.64 663.45) rotate(-180)"/></clipPath><clipPath id="clip-path-12"><rect class="cls-4" x="309.28" y="663.26" width="461.11" height="189.19"/></clipPath><clipPath id="clip-path-13"><path class="cls-5" d="M817.87,530.36c0,9.52-40.47,17.82-90.38,17.24-87.32-1-90.38-7.72-90.38-17.24s14.8-16.72,90.38-17.23C777.41,512.79,817.87,520.84,817.87,530.36Z"/></clipPath><clipPath id="clip-path-14"><path class="cls-5" d="M359.45,530.36c0,9.52,40.47,17.82,90.38,17.24,87.32-1,90.38-7.72,90.38-17.24s-14.81-16.72-90.38-17.23C399.91,512.79,359.45,520.84,359.45,530.36Z"/></clipPath><clipPath id="clip-path-15"><path class="cls-6" d="M397.45,618.83s-8,10.13-55,10c-36.26-.42-51.86-13.39-52.69-14.51s-2.72-.13-2.72-.13c-2.8,3.58-12.25,20.94-12.25,20.94-34.47,11-112.85,60.26-113.62,62s-4.85,20.94.77,28.85,24,11.75,24,11.75c19.64,10.07,105.11,19.52,111.35,19.41l6.92-22.5.27.1c0-.14,0-.23,0-.23-20.94-8-52.91-17.72-52.91-17.72,41.62-8.17,69.71-13.53,74.56-13s10.21,5.36,10.21,5.36l.47,29.81a8.34,8.34,0,0,1,1.83.58c4.36,2,4.34,23.61,2.55,25.66s-4.34,10.21-3.32,14.55,7.32,16.89,4,34.34c-.63,3.31-2.72,6.45-3.32,8.59,0,7.92-2.41,11.86-3.23,12.47-.48.36-2.21.66-4.12-1.26.44,2.86,1.26,8,1.74,9.9.68,2.72-6.47,26.55-9.54,63.83s-2,47.83-2,47.83S334,961,345.19,960.62c.94-.85,19.24-53.53,23.83-80.09s2-53.62,2-53.62,37.28-86.29,41.37-120S409.79,641.3,397.45,618.83Z"/></clipPath><clipPath id="clip-path-16"><path class="cls-6" d="M380.09,261S407,321,413.79,406.4s-.68,103.83-.68,103.83-11.58,79-14.64,96.68c0,0-59.24,17.37-105.87-5.78,0,0,2-27.92-6.47-91.58S268.77,463.26,288.85,356c0,0,22.13-75.23,31-91.91l16.34,3.74c-3.74,5.11-15.32,64.68-22.47,111.66s1.7,70.47,6.13,79.32S333.11,469,335.49,468s16,11.58,33-3.74c0,0,8.17,3.4,11.58-6.81s4.76-63.66,2-82.38-3.75-49.37-15.32-106.9Z"/></clipPath><clipPath id="clip-path-17"><path class="cls-7" d="M373.62,454.74s11.91,42.22,42.55,58.9S438,586.49,438,586.49l2.38,62s-196.77-16-198.47-16,40.85-122.56,40.85-122.56,33.71-7.83,40.51-47.66S373.62,454.74,373.62,454.74Z"/></clipPath></defs><title>我想要的2021</title><g id="图层_25" data-name="图层 25"><rect class="cls-12" x="-15.49" y="-21.51" width="872.17" height="545.36"/><rect class="cls-13" x="-15.49" y="521.81" width="872.17" height="545.36"/><rect class="cls-14" x="-35.91" y="-25.6" width="487.15" height="353.36"/><g class="cls-15"><circle class="cls-16" cx="67.68" cy="93.83" r="38.87"/><circle class="cls-17" cx="11.7" cy="208.15" r="127.4"/><circle class="cls-18" cx="125.57" cy="194.62" r="80.3"/><circle class="cls-17" cx="294.34" cy="199.34" r="167.23"/><circle class="cls-16" cx="400.17" cy="280.28" r="130.85"/><circle class="cls-18" cx="361.74" cy="34.79" r="37.91"/><circle class="cls-16" cx="131.06" cy="305.3" r="96.13"/></g><rect class="cls-19" x="198.98" y="-8.23" width="14.3" height="340.09"/><rect class="cls-20" x="-41.02" y="921.13" width="848.68" height="218.55"/><ellipse class="cls-21" cx="311.57" cy="1035.51" rx="80.43" ry="33.7"/><line class="cls-22" x1="77.04" y1="988.02" x2="672.96" y2="988.02"/><line class="cls-22" x1="77.04" y1="1061.89" x2="672.96" y2="1061.89"/><ellipse class="cls-23" cx="188.51" cy="609.04" rx="34.98" ry="12.51"/><path class="cls-2" d="M142.3,527.68s12.76,3.58,13.79-24c.38-10.34,3.44-15.75,7.73-17.34,3.5-1.3,16,1.26,18.05,2.53,3.32,2,10,8.17,13.79,41.36s-12.26,17.62-12.26,17.62l-10.21-7.15s2.55-18.13-5.1-31.91C168.09,508.79,166.55,537.64,142.3,527.68Z"/><g class="cls-24"><path class="cls-25" d="M168.09,508.79s.76-23.62,16.08-17.36,16.21,8,16.21,8l9.71,51.7L179.19,565,158.13,545,169,522.19l-.89-13.4h0"/></g><path class="cls-8" d="M206.64,383.77s-7.15,59.23-12.09,73-4.59,18.55-4.42,20.93,1.7,39.66,1.7,39.66l.34,19.58,23.66-22.3,2.72-41s-4.25-35.75-6.64-41.53C211.91,432.11,223,401.13,206.64,383.77Z"/><g class="cls-26"><path class="cls-27" d="M211.91,432.11s-17.36,29.78-24.68,35.23,7.32-97.87,7.32-97.87l35.92,27.23-18.56,35.41"/></g><path class="cls-28" d="M204.34,445.47s-1.79,37,.77,63.06"/><path class="cls-29" d="M182.32,477.89s17.2,27.83,13.38,60"/><ellipse class="cls-30" cx="176.89" cy="468.19" rx="3.7" ry="15.06" transform="translate(-210.4 151.17) rotate(-30)"/><path class="cls-2" d="M190.81,551.68s.25-54.38,37-88.34c0,0,5.11-1.53,5.11,4.85s-5.62,18.64-12,23c0,0,1,23.74-1.28,32.68s-16.34,27.83-16.34,27.83Z"/><g class="cls-31"><path class="cls-25" d="M220.94,491.17s.76-19.66,12.51-30.38,12,27.57,12,27.57l-14,8.17-10.46-5.36"/></g><path class="cls-29" d="M188.51,431.94s-3.57,30.63.51,44.93,4.09,51.32-.76,67.66"/><ellipse class="cls-30" cx="188.64" cy="419.94" rx="15.06" ry="3.7" transform="translate(-241.88 582.98) rotate(-86.55)"/><path class="cls-32" d="M171.91,496s16.09,18.89,13,47.75"/><polygon class="cls-9" points="215.13 609.3 162.75 609.3 155.75 545.3 222.13 545.3 215.13 609.3"/><g class="cls-33"><rect class="cls-34" x="150.64" y="535.43" width="87.15" height="17.36"/><polygon class="cls-34" points="162.21 529.98 174.81 635.17 138.04 609.98 117.96 544.96 162.21 529.98"/></g><rect class="cls-9" x="146.89" y="540.7" width="82.72" height="7.66" rx="3.83"/><rect class="cls-35" x="-35.91" y="-25.6" width="487.15" height="353.36"/></g><g id="图层_27" data-name="图层 27"><rect class="cls-36" x="261.28" y="420.7" width="61.28" height="255.32" rx="30.64"/><path class="cls-37" d="M357.15,291.77H554.77a35.62,35.62,0,0,1,35.62,35.62v195.7a0,0,0,0,1,0,0H321.53a0,0,0,0,1,0,0V327.38A35.62,35.62,0,0,1,357.15,291.77Z"/><path class="cls-10" d="M357.15,310.15H554.77a35.62,35.62,0,0,1,35.62,35.62V546.83a0,0,0,0,1,0,0H321.53a0,0,0,0,1,0,0V345.77A35.62,35.62,0,0,1,357.15,310.15Z"/><g class="cls-38"><rect class="cls-39" x="294.72" y="286.64" width="56.68" height="300.16"/></g><path class="cls-37" d="M625.53,291.77H823.15a35.62,35.62,0,0,1,35.62,35.62v195.7a0,0,0,0,1,0,0H589.91a0,0,0,0,1,0,0V327.38A35.62,35.62,0,0,1,625.53,291.77Z"/><path class="cls-10" d="M625.53,310.15H823.15a35.62,35.62,0,0,1,35.62,35.62V546.83a0,0,0,0,1,0,0H589.91a0,0,0,0,1,0,0V345.77A35.62,35.62,0,0,1,625.53,310.15Z"/><g class="cls-40"><rect class="cls-39" x="565.87" y="299.96" width="49.79" height="271.16"/></g><rect class="cls-41" x="381.7" y="291.68" width="145.36" height="111.15"/><rect class="cls-41" x="648.77" y="291.68" width="145.36" height="111.15"/><rect class="cls-11" x="389.96" y="287.43" width="144.77" height="108" transform="translate(924.68 682.85) rotate(-180)"/><g class="cls-42"><rect class="cls-43" x="382.81" y="310.4" width="161.36" height="96"/></g><rect class="cls-3" x="409.7" y="287.43" width="104.11" height="88.6" transform="translate(923.51 663.45) rotate(-180)"/><g class="cls-44"><rect class="cls-45" x="385.36" y="310.91" width="130.21" height="77.62"/></g><circle class="cls-46" cx="495.79" cy="358.28" r="10.6"/><circle class="cls-46" cx="464.64" cy="358.02" r="10.6"/><circle class="cls-46" cx="433.49" cy="357.77" r="10.6"/><rect class="cls-11" x="657.02" y="287.43" width="144.77" height="108" transform="translate(1458.81 682.85) rotate(-180)"/><g class="cls-47"><rect class="cls-43" x="649.87" y="310.4" width="161.36" height="96"/></g><rect class="cls-3" x="676.77" y="287.43" width="104.11" height="88.6" transform="translate(1457.64 663.45) rotate(-180)"/><g class="cls-48"><rect class="cls-45" x="652.43" y="310.91" width="160.85" height="77.62"/></g><circle class="cls-46" cx="731.7" cy="358.02" r="10.6"/><circle class="cls-46" cx="700.55" cy="357.77" r="10.6"/><rect class="cls-49" x="309.28" y="663.26" width="461.11" height="189.19"/><g class="cls-50"><circle class="cls-51" cx="356.26" cy="834.83" r="80.17"/><circle class="cls-52" cx="490.3" cy="661.47" r="105.96"/><circle class="cls-51" cx="733.36" cy="802.91" r="76.34"/><circle class="cls-52" cx="566.38" cy="843.77" r="76.34"/></g><rect class="cls-53" x="309.28" y="663.26" width="461.11" height="189.19"/><path class="cls-54" d="M659.9,855.72c.78,3.06,2.61,5.6,4.15,8.3a11.79,11.79,0,0,1,1.47,3.62,5.06,5.06,0,0,1-.23,3.17,2.56,2.56,0,0,0,.89,3.42,2.52,2.52,0,0,0,3.42-.9c1.76-3.45,1-7.21-.57-10.58-.69-1.43-1.57-2.76-2.39-4.12a15.31,15.31,0,0,1-1.92-4.24,2.5,2.5,0,0,0-4.82,1.33Z"/><path class="cls-54" d="M642.05,855.5c-1.83,3.14-5.27,5.22-7.14,8.49-2.11,3.69-2.24,8.07-1.95,12.2a2.55,2.55,0,0,0,2.5,2.5,2.53,2.53,0,0,0,2.5-2.5c-.24-3.48-.37-7.19,1.59-10.2,1.85-2.85,5-4.9,6.82-8,1.62-2.79-2.7-5.31-4.32-2.53Z"/><path class="cls-54" d="M610.82,857.1c.53,6.28,1.19,13.2-2,18.95-1.54,2.82,2.78,5.35,4.32,2.52,3.61-6.6,3.25-14.21,2.64-21.47a2.57,2.57,0,0,0-2.5-2.5,2.51,2.51,0,0,0-2.5,2.5Z"/><path class="cls-54" d="M588.48,856.46c1.2,3.71-2.1,6.95-4.91,9.12-3.45,2.65-7.34,5.14-9.11,9.31a2.59,2.59,0,0,0,.9,3.42,2.51,2.51,0,0,0,3.42-.9c1.79-4.22,6.13-6.38,9.47-9.22,3.71-3.15,6.66-8.07,5-13.06-1-3-5.82-1.74-4.82,1.33Z"/><path class="cls-54" d="M562.64,857.22a20.43,20.43,0,0,0-5.43,11.19,22.17,22.17,0,0,0,.1,6.3c.23,1.62.6,3.31-.34,4.65a2.52,2.52,0,0,0,.9,3.42,2.55,2.55,0,0,0,3.42-.9c2.45-3.47.52-7.74.73-11.59a15.25,15.25,0,0,1,4.16-9.54c2.21-2.33-1.32-5.87-3.54-3.53Z"/><path class="cls-54" d="M536.64,855.76a84.11,84.11,0,0,1-2.3,23.87c-.76,3.12,4.06,4.46,4.82,1.33a88.7,88.7,0,0,0,2.48-25.2c-.15-3.2-5.15-3.22-5,0Z"/><path class="cls-54" d="M516.05,856.22c-3.4,1.5-5.53,5.09-6.2,8.63-.84,4.4.29,8.71.75,13.07a2.57,2.57,0,0,0,2.5,2.5,2.51,2.51,0,0,0,2.5-2.5c-.21-2-.56-3.94-.82-5.92a29.29,29.29,0,0,1-.25-3c0-.49,0-1,0-1.48,0-.22,0-.44,0-.65s0-.37,0-.17a9.44,9.44,0,0,1,1.3-3.88,5.21,5.21,0,0,1,1.15-1.4,2.61,2.61,0,0,1,.57-.42,8.89,8.89,0,0,1,1-.5,2.51,2.51,0,0,0,.9-3.42,2.57,2.57,0,0,0-3.42-.9Z"/><path class="cls-54" d="M494,856.88c-3,2.55-4.29,6.41-5.44,10-.26.82-.53,1.65-.83,2.46a14.21,14.21,0,0,1-.9,2c-.18.35-.38.7-.6,1a5.5,5.5,0,0,1-.55.77c-.29.33-.59.63-.91.93a4.54,4.54,0,0,1-.77.54A2.5,2.5,0,1,0,486.5,879c3.44-2.11,5.2-5.75,6.44-9.45.58-1.74,1.06-3.53,1.79-5.21a10.58,10.58,0,0,1,2.79-3.92,2.54,2.54,0,0,0,0-3.54,2.56,2.56,0,0,0-3.54,0Z"/><path class="cls-54" d="M468.36,856.32c-6.92,4.63-9,12.79-10.07,20.57A2.58,2.58,0,0,0,460,880a2.51,2.51,0,0,0,3.07-1.74c.9-6.39,2.19-13.85,7.77-17.58a2.58,2.58,0,0,0,.9-3.43,2.52,2.52,0,0,0-3.42-.89Z"/><path class="cls-54" d="M434,859.82a26.29,26.29,0,0,1,1.37,19.38c-1,3.08,3.86,4.4,4.82,1.33a31.43,31.43,0,0,0-1.87-23.24,2.5,2.5,0,1,0-4.32,2.53Z"/><path class="cls-54" d="M414.43,857.47a96.2,96.2,0,0,1-1.82,16,2.55,2.55,0,0,0,1.75,3.07,2.52,2.52,0,0,0,3.07-1.74,104,104,0,0,0,2-17.32,2.52,2.52,0,0,0-2.5-2.5,2.55,2.55,0,0,0-2.5,2.5Z"/><path class="cls-54" d="M391.09,856a24,24,0,0,0-11.48,19.15,2.52,2.52,0,0,0,2.5,2.5,2.55,2.55,0,0,0,2.5-2.5c0-.43.05-.85.1-1.27,0-.15.06-.37,0-.09,0-.21.07-.42.11-.63a20.67,20.67,0,0,1,.58-2.35,17.64,17.64,0,0,1,.75-2c.34-.73.72-1.45,1.13-2.14a16.41,16.41,0,0,1,2.73-3.51,19.64,19.64,0,0,1,1.8-1.62c-.25.2.11-.09.2-.15l.52-.37c.35-.24.71-.47,1.08-.68a2.5,2.5,0,1,0-2.53-4.32Z"/><path class="cls-54" d="M365,854.08a33.71,33.71,0,0,1-1.75,12.36c-1.28,3.87-2.76,7.66-2.76,11.79,0,3.22,5,3.23,5,0,0-3.93,1.68-7.58,2.84-11.27A37,37,0,0,0,370,854.08c-.15-3.21-5.15-3.23-5,0Z"/><path class="cls-54" d="M335.31,856.26a21.84,21.84,0,0,0-7,15.17,2.51,2.51,0,0,0,2.5,2.5,2.55,2.55,0,0,0,2.5-2.5c0-.29,0-.57,0-.86s0-.35.05-.53c0-.38-.07.41,0,0,.1-.6.21-1.19.36-1.79s.32-1.16.52-1.74l.3-.8c.14-.35-.16.35,0,0,.08-.16.15-.33.23-.49a18.19,18.19,0,0,1,1.8-3c.06-.09.36-.48.06-.1l.26-.33c.19-.22.37-.44.56-.65.43-.47.89-.93,1.37-1.36a2.51,2.51,0,0,0,0-3.53,2.55,2.55,0,0,0-3.54,0Z"/><path class="cls-54" d="M315.74,854.84a32.58,32.58,0,0,0-11.81,17.66,2.5,2.5,0,1,0,4.82,1.32c.19-.74.41-1.48.66-2.21.13-.4.28-.8.44-1.2.06-.16.12-.32.19-.47-.13.3,0-.13.1-.23a28.91,28.91,0,0,1,2.27-4.16,21.45,21.45,0,0,1,2.59-3.33c.55-.6,1.12-1.18,1.71-1.73.29-.26.57-.51.87-.76l.39-.33s.6-.48.3-.25a2.58,2.58,0,0,0,.89-3.42,2.51,2.51,0,0,0-3.42-.89Z"/><path class="cls-54" d="M682.69,858.22a13.19,13.19,0,0,1,3.66,7.73,28.6,28.6,0,0,1-.24,5.06,11.81,11.81,0,0,0,.83,5.82,2.52,2.52,0,0,0,3.42.89,2.56,2.56,0,0,0,.9-3.42c-.57-1.34-.16-3.21,0-4.65a20.14,20.14,0,0,0-.15-5.59,17.94,17.94,0,0,0-4.88-9.38c-2.25-2.31-5.78,1.23-3.53,3.54Z"/><path class="cls-54" d="M705.46,856.52a14.16,14.16,0,0,1,2.8,7.49,95.42,95.42,0,0,1,.27,10.15c0,3.21,5,3.22,5,0,0-7.24.5-15.32-4.54-21.17a2.5,2.5,0,0,0-3.53,0,2.53,2.53,0,0,0,0,3.53Z"/><path class="cls-54" d="M722.35,854a52.32,52.32,0,0,1,5.4,12.89c1.28,4.26,2.94,8.22,6.56,11a2.51,2.51,0,0,0,3.42-.89,2.56,2.56,0,0,0-.9-3.42c-2.78-2.14-3.71-6.14-4.64-9.32a51.18,51.18,0,0,0-5.53-12.77c-1.69-2.73-6-.22-4.31,2.52Z"/><path class="cls-54" d="M739.89,859.16a12.12,12.12,0,0,1,2.78,3.58,30.68,30.68,0,0,1,2,4.34c1.27,3.31,2.42,6.72,4.41,9.68a2.57,2.57,0,0,0,3.42.9,2.52,2.52,0,0,0,.9-3.42c-2-3-2.87-5.86-4.2-9.24s-2.95-6.83-5.72-9.38a2.5,2.5,0,0,0-3.54,3.54Z"/><path class="cls-54" d="M287.88,696.85a36.07,36.07,0,0,1,4.16-.13l1,.08c-.25,0-.18,0,0,0l.46.08a8.64,8.64,0,0,1,1,.26l.43.14c.37.09-.46-.24.14.06a6.35,6.35,0,0,1,.81.44c.05,0,.55.38.31.2s.15.13.18.16c.49.42.93.89,1.37,1.35a13.86,13.86,0,0,0,3.39,2.86,2.5,2.5,0,0,0,2.52-4.32l-.48-.28-.2-.13c.25.18-.22-.18-.26-.22a3.26,3.26,0,0,1-.33-.31c-.52-.49-1-1-1.5-1.55a11.65,11.65,0,0,0-3.7-2.71c-3-1.27-6.2-1.23-9.38-1a2.55,2.55,0,0,0-2.5,2.5,2.53,2.53,0,0,0,2.5,2.5Z"/><path class="cls-54" d="M301.1,713.46l-5.84-.41c-1.93-.13-3.88-.37-5.81-.37-4.07,0-6.57,2.63-8.78,5.7a2.52,2.52,0,0,0,.89,3.42,2.55,2.55,0,0,0,3.42-.89,16.83,16.83,0,0,1,1.08-1.39,9.07,9.07,0,0,1,.67-.72c.13-.13.27-.25.41-.37s.28-.24.14-.11a5.16,5.16,0,0,1,3.55-.58c3.43.23,6.85.48,10.27.72a2.5,2.5,0,0,0,0-5Z"/><path class="cls-54" d="M277.29,745.36a19.84,19.84,0,0,1,7,0,15.78,15.78,0,0,1,5.49,3.21c3.65,2.79,7.62,5.14,12.34,5.3,3.22.1,3.21-4.9,0-5-4.39-.15-7.77-3.16-11.14-5.62a15.12,15.12,0,0,0-6.24-2.89,25.83,25.83,0,0,0-7.45,0,2.57,2.57,0,0,0-2.5,2.5,2.52,2.52,0,0,0,2.5,2.5Z"/><path class="cls-54" d="M302.81,761.38A77,77,0,0,0,281,764.79c-3.06,1-1.76,5.78,1.33,4.82a71.74,71.74,0,0,1,20.46-3.23c3.21,0,3.22-5,0-5Z"/><path class="cls-54" d="M284.1,732.88l16.7,3.68a2.5,2.5,0,0,0,1.33-4.83l-16.7-3.67a2.5,2.5,0,0,0-1.33,4.82Z"/><path class="cls-54" d="M305.53,780.12c-4.24-1.22-8.57-.53-12.81.26A54.87,54.87,0,0,1,280,781.45c-3.22-.14-3.21,4.86,0,5a55.58,55.58,0,0,0,12.68-1c3.8-.7,7.71-1.61,11.52-.52,3.1.89,4.42-3.93,1.33-4.82Z"/><path class="cls-54" d="M285.22,800.57a30.86,30.86,0,0,1,9.51-1.65,10.17,10.17,0,0,1,3.94.91,51.92,51.92,0,0,0,4.81,2.32,2.51,2.51,0,0,0,3.07-1.74,2.56,2.56,0,0,0-1.74-3.08c-1.69-.59-3.17-1.68-4.83-2.35a15.5,15.5,0,0,0-5.25-1.06c-3.68-.14-7.34.84-10.84,1.83-3.09.88-1.78,5.7,1.33,4.82Z"/><path class="cls-54" d="M302.07,809.79A32.89,32.89,0,0,1,280,814.71a2.51,2.51,0,0,0-2.5,2.5,2.56,2.56,0,0,0,2.5,2.5,37.16,37.16,0,0,0,24.58-5.61c2.7-1.73.19-6.06-2.52-4.31Z"/><path class="cls-54" d="M286.19,842.55a32.61,32.61,0,0,1,9.45-6.57c1.47-.67,3.18-1.45,4.83-1.25a17.82,17.82,0,0,1,2.87.84,12.17,12.17,0,0,0,3.21.57c3.22.1,3.22-4.9,0-5-2.1-.07-4-1.27-6.15-1.42-2.43-.16-4.77.83-6.94,1.79a36.28,36.28,0,0,0-10.8,7.51c-2.28,2.27,1.25,5.81,3.53,3.53Z"/><path class="cls-54" d="M303.77,843.39c-3.79,1.22-7.79,2.61-10.63,5.53-3.33,3.43-3.85,8.09-4,12.64a2.52,2.52,0,0,0,2.5,2.5,2.56,2.56,0,0,0,2.5-2.5,24.54,24.54,0,0,1,.58-5.31c.12-.47.26-.92.42-1.38l.1-.24c-.06.15-.06.15,0,0s.19-.39.3-.58a7.06,7.06,0,0,1,.4-.65s.38-.54.21-.32.21-.23.24-.28.31-.33.48-.49a10.24,10.24,0,0,1,.85-.76c-.38.3.2-.15.23-.17l.48-.32a19.77,19.77,0,0,1,2.17-1.18l.65-.29.17-.07,1.23-.47c.82-.29,1.65-.56,2.48-.83a2.5,2.5,0,1,0-1.33-4.82Z"/><rect class="cls-55" x="293.96" y="563.21" width="471.06" height="127.91"/><rect class="cls-36" x="293.96" y="546.83" width="471.06" height="127.91"/><path class="cls-5" d="M817.87,530.36c0,9.52-40.47,17.82-90.38,17.24-87.32-1-90.38-7.72-90.38-17.24s14.8-16.72,90.38-17.23C777.41,512.79,817.87,520.84,817.87,530.36Z"/><g class="cls-56"><path class="cls-57" d="M634,531.51s90.9,10.21,194.05,2.55-103.66,49-103.66,49L601.87,553.47l18.39-29.62Z"/></g><path class="cls-58" d="M644.26,547.85c-2-2-6.13-15.32-6.13-15.32s-.26,8.17-2.43,12.13"/><path class="cls-58" d="M637.36,531.13s-5.74,9.06-5.74,18.76"/><path class="cls-5" d="M359.45,530.36c0,9.52,40.47,17.82,90.38,17.24,87.32-1,90.38-7.72,90.38-17.24s-14.81-16.72-90.38-17.23C399.91,512.79,359.45,520.84,359.45,530.36Z"/><g class="cls-59"><path class="cls-57" d="M543.28,531.51s-90.9,10.21-194,2.55,103.66,49,103.66,49l122.56-29.62-18.39-29.62Z"/></g><path class="cls-58" d="M533.06,547.85c2.05-2,6.13-15.32,6.13-15.32s.26,8.17,2.43,12.13"/><path class="cls-58" d="M540,531.13s5.74,9.06,5.74,18.76"/></g><g id="图层_28" data-name="图层 28"><path class="cls-60" d="M321.28,956.66s-.85,35.74-.68,36.25-1,4.43-2.39,6.64-5.61,16.51-3.4,19.41,25.87,4.42,32.17,0-2.72-20.43-3.24-21.79,3.41-6.3,2.05-11.06-2.9-8.17-2.9-10.73,2.22-13.61,2.22-13.61Z"/><path class="cls-60" d="M304.23,734.72c4.44,1.7,8.39,2.93,11.43,4.37a50.63,50.63,0,0,0,7.91.51c4.34-.26,11.24-1.79,15.07,0,4.36,2,4.34,23.61,2.55,25.66s-4.34,10.21-3.32,14.55,7.32,16.89,4,34.34c-.63,3.31-2.72,6.45-3.32,8.59,0,7.92-2.41,11.86-3.23,12.47-1,.77-7.79,1.28-9.7-19.66,0,0-9.19-20.81-16.34-36.89s-12-21.32-12-21.32"/><path class="cls-61" d="M397.45,618.83s-8,10.13-55,10c-36.26-.42-51.86-13.39-52.69-14.51s-2.72-.13-2.72-.13c-2.8,3.58-12.25,20.94-12.25,20.94-34.47,11-112.85,60.26-113.62,62s-4.85,20.94.77,28.85,24,11.75,24,11.75c19.64,10.07,105.11,19.52,111.35,19.41l6.92-22.5.27.1c0-.14,0-.23,0-.23-20.94-8-52.91-17.72-52.91-17.72,41.62-8.17,69.71-13.53,74.56-13s10.21,5.36,10.21,5.36l.47,29.81a8.34,8.34,0,0,1,1.83.58c4.36,2,4.34,23.61,2.55,25.66s-4.34,10.21-3.32,14.55,7.32,16.89,4,34.34c-.63,3.31-2.72,6.45-3.32,8.59,0,7.92-2.41,11.86-3.23,12.47-.48.36-2.21.66-4.12-1.26.44,2.86,1.26,8,1.74,9.9.68,2.72-6.47,26.55-9.54,63.83s-2,47.83-2,47.83S334,961,345.19,960.62c.94-.85,19.24-53.53,23.83-80.09s2-53.62,2-53.62,37.28-86.29,41.37-120S409.79,641.3,397.45,618.83Z"/><g class="cls-62"><path class="cls-63" d="M339.4,793.47s10.22-56.68,8.17-75.07-13.17-25.74-16.34-26.55c-10.72-2.72-57.7,9-84.76,15.66a205.58,205.58,0,0,1-36.77,5.28s4.09,7.15,33.19,9.7a409.13,409.13,0,0,0,54.13,1l34.72,5.62Z"/><path class="cls-63" d="M336.34,816.45s1.53,22.46,4.09,28.59-11.75,47.49-13.79,110.81-57.19-56.17-57.19-56.17l29.1-56.17Z"/></g><path class="cls-64" d="M397.45,618.83s-8,10.13-55,10c-36.26-.42-51.86-13.39-52.69-14.51s-2.72-.13-2.72-.13c-2.8,3.58-12.25,20.94-12.25,20.94-34.47,11-112.85,60.26-113.62,62s-4.85,20.94.77,28.85,24,11.75,24,11.75c19.64,10.07,105.11,19.52,111.35,19.41l6.92-22.5.27.1c0-.14,0-.23,0-.23-20.94-8-52.91-17.72-52.91-17.72,41.62-8.17,69.71-13.53,74.56-13s10.21,5.36,10.21,5.36l.47,29.81a8.34,8.34,0,0,1,1.83.58c4.36,2,4.34,23.61,2.55,25.66s-4.34,10.21-3.32,14.55,7.32,16.89,4,34.34c-.63,3.31-2.72,6.45-3.32,8.59,0,7.92-2.41,11.86-3.23,12.47-.48.36-2.21.66-4.12-1.26.44,2.86,1.26,8,1.74,9.9.68,2.72-6.47,26.55-9.54,63.83s-2,47.83-2,47.83S334,961,345.19,960.62c.94-.85,19.24-53.53,23.83-80.09s2-53.62,2-53.62,37.28-86.29,41.37-120S409.79,641.3,397.45,618.83Z"/><path class="cls-6" d="M395.1,614.55l-.39-.69Z"/><path class="cls-6" d="M396.4,616.92l-.18-.32Z"/><path class="cls-6" d="M396.22,616.6c-.3-.56-.59-1.08-.86-1.57Z"/><path class="cls-6" d="M395.3,614.91l-.2-.36C395.16,614.67,395.23,614.79,395.3,614.91Z"/><path class="cls-6" d="M395.36,615l-.06-.12Z"/><path class="cls-6" d="M396.64,617.35c-.08-.14-.17-.29-.24-.43Z"/><path class="cls-6" d="M397.41,618.77l-.33-.62Z"/><path class="cls-6" d="M397.45,618.83l0-.06Z"/><path class="cls-6" d="M397.08,618.15l-.05-.08Z"/><path class="cls-6" d="M397,618.07c-.11-.2-.25-.45-.39-.72Z"/><path class="cls-6" d="M392.74,610.25l-.15-.26Z"/><path class="cls-6" d="M392.59,610l-.2-.36Z"/><path class="cls-6" d="M394.71,613.86l-.3-.55Z"/><path class="cls-6" d="M392,609Z"/><path class="cls-6" d="M392.23,609.33c-.09-.16-.15-.28-.2-.35Z"/><path class="cls-6" d="M392.39,609.63l-.16-.3Z"/><path class="cls-6" d="M394.41,613.31l-.21-.4Z"/><path class="cls-6" d="M394.2,612.91c-.39-.69-.71-1.28-1-1.79C393.52,611.67,393.85,612.28,394.2,612.91Z"/><path class="cls-6" d="M393.06,610.85l-.32-.6Z"/><path class="cls-6" d="M393.21,611.12l-.15-.27C393.11,610.93,393.16,611,393.21,611.12Z"/><path class="cls-65" d="M210,713.81s13.78,1.79,16.85,2.81,15.06,3.83,24.76.25"/><path class="cls-6" d="M277.62,634.66s11.23,8.17,18.12,8.43"/><path class="cls-6" d="M371.06,826.91s-.85-3.82-.85-4.34"/><line class="cls-6" x1="332.94" y1="843.85" x2="333.96" y2="850.15"/></g><g id="图层_26" data-name="图层 26"><path class="cls-66" d="M361.53,452.36s2.38,7.32,7,11.92-25,17.36-25,17.36l-8-13.62a29.53,29.53,0,0,0,4.6-15.49C339.91,444,361.53,452.36,361.53,452.36Z"/><path class="cls-66" d="M385.81,419.53c-1.92-3.13-4.78-2.53-6.59-1.7A171.56,171.56,0,0,0,376.34,385s-8.17-16.34-21.11-18-26.21.35-33,10.9-6.47,33.7-6.47,33.7.17,2.4.66,6.05a4.55,4.55,0,0,0-5.93,2c-3,4.89,2.53,13.14,5.18,14.19s3.45-.47,3.45-.47l-.05-2.14c2,7.67,5.27,15.5,10.31,19.21,11.58,8.51,27.92,14.21,42.21-3.32,2.85-3.49,4.72-8.17,5.91-13.4.42.37,1.37.82,3.15.12C383.28,432.67,388.8,424.42,385.81,419.53Z"/><path class="cls-64" d="M358,414.32a42.22,42.22,0,0,1,14.3,1.79"/><path class="cls-64" d="M338.89,413.3s-11.23.25-15.32,4.34"/><path class="cls-64" d="M356.77,422.49s4.08,5.87,14.8,1"/><path class="cls-64" d="M340.43,423s-3.32,6.13-14.05,2.3"/><path class="cls-64" d="M346.3,430.4s-2.3,9.2,3.57,8.43"/><path class="cls-64" d="M341.7,446.49s6.64,4.08,16.09,0"/><path class="cls-67" d="M343.73,346s-13.43-2.72-13.13,7.49,1.53,12.59,6.87,15.49,17.41,2.72,17.41,2.72l2.29-7s9-10.55,4.58-17-11.6-8.85-16.19-5.62S343.73,346,343.73,346Z"/><path class="cls-68" d="M332,359.17s1.28,8.43,2.3,9.45,26.81-2.56,26.81-2.56-.51-8.42-2.81-9.7S339.15,351.77,332,359.17Z"/><path class="cls-67" d="M347.06,385s5.88,22,31.41,29.87a3.27,3.27,0,0,0,5.1.51c3.07-2.55,7.92-41.87-28.34-53.11,0,0-5.36-.51-7.14,0a6.21,6.21,0,0,0-2.56,1.28,44.52,44.52,0,0,0-8.42-1.28c-3.32,0-19.92,3.07-24.51,22.22s-2.05,29.36,0,30.89S336.34,414.32,347.06,385Z"/><path class="cls-66" d="M345,367.09s0,11.23,1.79,14"/><path class="cls-66" d="M292.6,601.13s-.34,9.7-2.56,12.76,17.19,16.17,52.43,15,48.17-4.93,55-10l1-11.92Z"/><path class="cls-66" d="M319.83,262.74c8.85-16.68,16.34-34.38,17.7-39.48s2.73-23.83,2.73-23.83,4.42-8.17,8.51,1.7v47.32s-8.86,12.93-12.6,18Z"/><path class="cls-61" d="M380.09,261S407,321,413.79,406.4s-.68,103.83-.68,103.83-11.58,79-14.64,96.68c0,0-59.24,17.37-105.87-5.78,0,0,2-27.92-6.47-91.58S268.77,463.26,288.85,356c0,0,22.13-75.23,31-91.91l16.34,3.74c-3.74,5.11-15.32,64.68-22.47,111.66s1.7,70.47,6.13,79.32S333.11,469,335.49,468s16,11.58,33-3.74c0,0,8.17,3.4,11.58-6.81s4.76-63.66,2-82.38-3.75-49.37-15.32-106.9Z"/><g class="cls-69"><path class="cls-70" d="M373.62,454.74s11.91,42.22,42.55,58.9S438,586.49,438,586.49l2.38,62s-196.77-16-198.47-16,40.85-122.56,40.85-122.56,33.71-7.83,40.51-47.66S373.62,454.74,373.62,454.74Z"/><g class="cls-71"><path class="cls-72" d="M297.64,484.53s10.72,123.58,5.62,136.85-70.47-28.08-70.47-28.08l15.32-101.11Z"/></g><path class="cls-65" d="M373.62,454.74s11.91,42.22,42.55,58.9S438,586.49,438,586.49l2.38,62s-196.77-16-198.47-16,40.85-122.56,40.85-122.56,33.71-7.83,40.51-47.66S373.62,454.74,373.62,454.74Z"/></g><path class="cls-64" d="M380.09,261S407,321,413.79,406.4s-.68,103.83-.68,103.83-11.58,79-14.64,96.68c0,0-59.24,17.37-105.87-5.78,0,0,2-27.92-6.47-91.58S268.77,463.26,288.85,356c0,0,22.13-75.23,31-91.91l16.34,3.74c-3.74,5.11-15.32,64.68-22.47,111.66s1.7,70.47,6.13,79.32S333.11,469,335.49,468s16,11.58,33-3.74c0,0,8.17,3.4,11.58-6.81s4.76-63.66,2-82.38-3.75-49.37-15.32-106.9Z"/><path class="cls-66" d="M366.3,267.34l-16.68-18-.34-50.73s5.61-11.57,12.59,19.92c6.95,31.33,17.7,41.7,17.7,41.7Z"/></g></svg>