<?xml version="1.0" standalone="no"?><!DOCTYPE svg PUBLIC "-//W3C//DTD SVG 1.1//EN" "http://www.w3.org/Graphics/SVG/1.1/DTD/svg11.dtd"><svg t="1649575945217" class="icon" viewBox="0 0 1024 1024" version="1.1" xmlns="http://www.w3.org/2000/svg" p-id="1899" xmlns:xlink="http://www.w3.org/1999/xlink" width="256" height="256"><defs><style type="text/css">@font-face { font-family: feedback-iconfont; src: url("//at.alicdn.com/t/font_1031158_u69w8yhxdu.woff2?t=1630033759944") format("woff2"), url("//at.alicdn.com/t/font_1031158_u69w8yhxdu.woff?t=1630033759944") format("woff"), url("//at.alicdn.com/t/font_1031158_u69w8yhxdu.ttf?t=1630033759944") format("truetype"); }
</style></defs><path d="M94.72 486.912l73.216 304.128h690.176l73.216-304.128c53.248-15.36 92.672-64.512 92.672-122.88 0-34.304-13.312-66.56-37.376-90.624C962.56 248.832 929.792 235.52 896 235.52s-66.56 13.312-90.624 37.376c-24.064 24.064-37.888 56.832-37.376 90.624 0 34.304 13.312 66.56 37.376 90.624 5.12 5.12 10.24 9.216 15.872 13.312-43.008 43.008-111.616 55.296-167.424 25.088-42.496-23.04-75.776-62.464-88.576-105.472-5.632-26.112 8.192-90.112 9.216-92.16 39.936-22.016 67.072-64 67.072-112.64 0-34.304-13.312-66.56-37.376-90.624-24.064-24.064-56.832-37.888-90.624-37.376-33.792 0-66.56 13.312-90.624 37.376-24.064 24.064-37.888 56.832-37.376 90.624 0 33.792 13.312 66.56 37.376 90.624 10.24 9.728 21.504 18.432 34.304 24.576 0.512 0.512 0.512 1.024 1.024 1.536 2.56 5.12 13.824 62.464 6.656 88.064-13.312 43.52-46.592 83.968-89.6 107.008-57.344 31.232-126.464 18.944-170.496-25.6 32.768-23.04 54.784-61.44 54.784-104.96 0-34.304-13.312-66.56-37.376-90.624-24.064-24.064-56.32-37.376-90.624-37.376-34.304 0-66.56 13.312-90.624 37.376C15.36 296.96 2.048 329.728 2.048 364.032c0 33.792 13.312 66.56 37.376 90.624 15.36 15.36 34.304 26.624 55.296 32.256zM187.904 872.448l14.336 58.88c5.12 22.016 25.088 37.888 47.616 37.888h526.848c22.528 0 42.496-15.36 47.616-37.888l14.336-58.88H187.904z" fill="#1296db" p-id="1900"></path></svg>