<?xml version="1.0" standalone="no"?><!DOCTYPE svg PUBLIC "-//W3C//DTD SVG 1.1//EN" "http://www.w3.org/Graphics/SVG/1.1/DTD/svg11.dtd"><svg t="1649933697953" class="icon" viewBox="0 0 1024 1024" version="1.1" xmlns="http://www.w3.org/2000/svg" p-id="11724" xmlns:xlink="http://www.w3.org/1999/xlink" width="48" height="48"><defs><style type="text/css">@font-face { font-family: feedback-iconfont; src: url("//at.alicdn.com/t/font_1031158_u69w8yhxdu.woff2?t=1630033759944") format("woff2"), url("//at.alicdn.com/t/font_1031158_u69w8yhxdu.woff?t=1630033759944") format("woff"), url("//at.alicdn.com/t/font_1031158_u69w8yhxdu.ttf?t=1630033759944") format("truetype"); }
</style></defs><path d="M451.769037 230.15229c95.078615-26.954501 178.803212-64.510103 272.737391-43.127203 94.747331 21.533484 164.738684 103.87271 176.243286 197.987589 6.294403 51.650246 3.07191 100.469516-21.985235 146.487927-23.792241 43.669304-94.807564 55.565425-128.719038 19.15426-20.479398-21.985236-14.937914-54.330637-16.112467-83.062027-3.222493-76.707391-27.888121-142.632981-107.065087-175.550602-33.068204-13.733243-68.485515-22.40687-103.180024-32.224935-21.593718-6.053469-43.006735-11.896121-71.918826-29.665009" fill="#fc5d05" p-id="11725"></path><path d="M958.965414 469.821476c0 6.023352 1.20467 12.317755-0.180701 17.979706-22.075586 89.717832 4.216347 175.159084 24.695745 260.750919 10.420399 43.60907-1.02397 92.307873 32.044234 130.977795 7.318373 8.55316-4.517514 14.395812-10.330049 19.877063-7.228023 6.776271-13.432076 2.921326-18.702509-2.891209-15.961883-17.618305-25.56913-38.188053-27.135202-61.739361-5.059616-74.689568-22.40687-146.969795-42.886268-218.738037-3.463428-12.197288-8.282109-23.792241-4.005529-38.308521 16.985853-57.613364 12.859857-116.853034 8.974794-175.610834-9.426546-143.144966-163.534014-261.323138-270.719567-252.589277-100.589983 8.161642-174.466398-52.704332-246.053939-112.124703C396.655364 30.719096 384.036441 19.877062 397.378167 7.228023c12.73939-12.046705 20.599865-4.216347 32.526102 6.143819C499.684805 73.936649 573.741921 120.165877 674.813771 117.937237c119.86471-2.680392 257.95006 129.080439 276.652569 251.294256 5.119849 33.429605 8.131526 66.85921 7.529191 100.589983" fill="#fc5d05" p-id="11726"></path><path d="M690.233553 799.449428c-11.53472 43.368136-23.972942 85.501485-33.700656 128.176936-6.475104 28.430223-23.521191 54.180054-22.677921 84.326931 0.271051 8.854328-5.059616 12.046705-13.85371 12.016588-9.426546-0.060234-18.070057-1.746772-17.618305-12.679156 0.511985-13.94406 0.180701-28.610923 4.637981-41.561131 24.575277-71.015323 39.754125-144.199053 57.432664-216.780447 2.650275-10.842034-1.02397-27.406253 18.250757-29.845711 19.485545-2.469574 24.063292 11.052851 29.815594 24.394577 28.430223 65.74489 57.342313 131.309079 85.983353 196.963618 3.734478 8.583277 7.378607 17.317138 10.149349 26.2317 3.614011 11.71542 11.53472 24.153643-9.366313 30.327578-20.027646 5.933002-19.636128-9.336196-23.039323-18.853092-19.365077-54.180054-43.819888-106.312167-68.214464-158.474398-3.764595-8.071292-5.059616-17.829123-17.768889-24.243993" fill="#fc5d05" p-id="11727"></path></svg>