<?xml version="1.0" standalone="no"?><!DOCTYPE svg PUBLIC "-//W3C//DTD SVG 1.1//EN" "http://www.w3.org/Graphics/SVG/1.1/DTD/svg11.dtd"><svg t="1649922385414" class="icon" viewBox="0 0 1057 1024" version="1.1" xmlns="http://www.w3.org/2000/svg" p-id="35109" xmlns:xlink="http://www.w3.org/1999/xlink" width="49.546875" height="48"><defs><style type="text/css">@font-face { font-family: feedback-iconfont; src: url("//at.alicdn.com/t/font_1031158_u69w8yhxdu.woff2?t=1630033759944") format("woff2"), url("//at.alicdn.com/t/font_1031158_u69w8yhxdu.woff?t=1630033759944") format("woff"), url("//at.alicdn.com/t/font_1031158_u69w8yhxdu.ttf?t=1630033759944") format("truetype"); }
</style></defs><path d="M375.411613 250.714839l105.273806 10.999742a16.516129 16.516129 0 0 1 14.798452 16.417032v222.967742a16.516129 16.516129 0 0 1-31.578839 6.788129l-105.290322-233.967484a16.516129 16.516129 0 0 1 16.780387-23.205161zM325.912774 297.290323c-20.248774 15.244387-35.509677 31.909161-45.799226 49.994322-10.306065 18.085161-15.591226 50.968774-15.855483 98.650839l99.096774-34.023226L325.912774 297.290323zM264.258065 490.79329c52.95071-30.604387 93.448258-36.418065 121.509161-17.457548 28.077419 18.960516 53.627871 69.400774 76.684387 151.353806l-95.215484 188.696775a16.516129 16.516129 0 0 1-31.248516-7.432258v-68.541936L264.258065 490.776774z" p-id="35110" fill="#7c7676"></path><path d="M665.104516 250.714839l-105.273806 10.999742a16.516129 16.516129 0 0 0-14.798452 16.417032v222.967742a16.516129 16.516129 0 0 0 31.578839 6.788129l105.290322-233.967484a16.516129 16.516129 0 0 0-16.780387-23.205161zM714.603355 297.290323c20.248774 15.244387 35.509677 31.909161 45.799226 49.994322 10.306065 18.085161 15.591226 50.968774 15.855484 98.650839l-99.096775-34.023226L714.603355 297.290323zM776.258065 490.79329c-52.95071-30.604387-93.448258-36.418065-121.509162-17.457548-28.077419 18.960516-53.627871 69.400774-76.684387 151.353806l95.215484 188.696775a16.516129 16.516129 0 0 0 31.248516-7.432258v-68.541936L776.258065 490.776774z" p-id="35111" fill="#7c7676"></path><path d="M388.294194 119.692387V16.516129a16.516129 16.516129 0 0 1 33.032258 0v112.772129a16.516129 16.516129 0 0 1-8.340646 14.369032l-104.282838 59.325936a16.516129 16.516129 0 0 1-8.158968 2.163613c-89.021935 0-151.006968 19.984516-186.863484 58.797419C77.873548 302.740645 63.091613 367.384774 70.639484 458.652903a16.516129 16.516129 0 0 1-0.148645 3.897807l-37.656774 242.308129a16.516129 16.516129 0 0 1-32.635871-5.070452l37.359483-240.392258c-7.861677-98.60129 9.017806-171.453935 51.860646-217.847742 42.429935-45.964387 111.616-68.740129 206.732387-69.41729l92.16-52.43871zM660.711226 119.692387V16.516129a16.516129 16.516129 0 0 0-33.032258 0v112.772129a16.516129 16.516129 0 0 0 8.357161 14.369032l104.282839 59.325936a16.516129 16.516129 0 0 0 8.158967 2.163613c89.021935 0 151.006968 19.984516 186.863484 58.797419 35.806968 38.779871 50.588903 103.440516 43.057549 194.708645a16.516129 16.516129 0 0 0 0.132129 3.897807l37.656774 242.308129a16.516129 16.516129 0 1 0 32.635871-5.070452l-37.359484-240.392258c7.861677-98.60129-9.017806-171.453935-51.860645-217.847742-42.429935-45.964387-111.616-68.740129-206.715871-69.41729l-92.16-52.43871zM159.413677 899.418839a16.516129 16.516129 0 0 1-31.215483-10.752l99.889548-290.138839c5.219097-15.194839 26.855226-14.732387 31.44671 0.660645l57.542193 193.222194a16.516129 16.516129 0 0 1 0.693678 4.707096v201.661936a16.516129 16.516129 0 0 1-33.032258 0V799.545806l-42.182194-141.592774-83.142194 241.482323zM797.134452 657.936516l83.142193 241.482323a16.516129 16.516129 0 1 0 31.232-10.752l-99.889548-290.138839c-5.235613-15.194839-26.871742-14.732387-31.44671 0.660645l-57.542193 193.222194a16.516129 16.516129 0 0 0-0.693678 4.707096v201.661936a16.516129 16.516129 0 0 0 33.032258 0V799.545806l42.165678-141.592774z" p-id="35112" fill="#7c7676"></path></svg>