<svg xmlns="http://www.w3.org/2000/svg" viewBox="0 0 605.78 782.25"><defs><style>.cls-1{fill:#fff;}.cls-2{fill:#1a1b23;}.cls-3{fill:#efefef;}.cls-4{opacity:0.5;}.cls-5{fill:#c9cff7;}.cls-6{fill:#3ec65e;}</style></defs><g id="图层_2" data-name="图层 2"><g id="图层_3" data-name="图层 3"><path class="cls-1" d="M33.27,770.41a17.23,17.23,0,0,1-2.8-34.24L43.8,734a82.9,82.9,0,0,0,26.76-9.3l57.84-32,93.82,77.79Z"/><path class="cls-2" d="M127.38,703.47l69.89,57.94h-164A8.24,8.24,0,0,1,25,753.18h0a8.24,8.24,0,0,1,6.9-8.13l13.32-2.2a91.92,91.92,0,0,0,29.66-10.31l52.46-29.07m2-21.7-10.75,6L66.2,716.8a73.88,73.88,0,0,1-23.86,8.29L29,727.29a26.23,26.23,0,0,0,4.26,52.12H247.18l-38.42-31.86-69.89-57.93-9.46-7.85Z"/><path class="cls-1" d="M73.62,770.41a17.23,17.23,0,0,1-2.8-34.24L84.15,734a82.84,82.84,0,0,0,26.75-9.3l57.84-32,93.83,77.79Z"/><path class="cls-2" d="M167.73,703.47l69.88,57.94h-164a8.23,8.23,0,0,1-1.34-16.36l13.33-2.2a92.08,92.08,0,0,0,29.66-10.31l52.46-29.07m2-21.7-10.75,6L106.54,716.8a73.8,73.8,0,0,1-23.86,8.29l-13.33,2.2a26.23,26.23,0,0,0,4.27,52.12H287.53L249.1,747.55l-69.88-57.93-9.47-7.85Z"/><path class="cls-1" d="M390.59,770.41l93.83-77.79,57.84,32A82.9,82.9,0,0,0,569,734l13.32,2.2a17.23,17.23,0,0,1-2.8,34.24Z"/><path class="cls-2" d="M485.44,703.47l52.46,29.07a91.94,91.94,0,0,0,29.65,10.31l13.33,2.2a8.24,8.24,0,0,1,6.9,8.13h0a8.24,8.24,0,0,1-8.24,8.23h-164l69.89-57.94m-2-21.7L474,689.62l-69.89,57.93-38.42,31.86h213.9a26.23,26.23,0,0,0,4.27-52.12l-13.33-2.2a73.88,73.88,0,0,1-23.86-8.29l-52.46-29.07-10.75-6Z"/><path class="cls-1" d="M350.25,770.41l93.83-77.79,57.83,32a83,83,0,0,0,26.76,9.3l13.33,2.2a17.23,17.23,0,0,1-2.8,34.24Z"/><path class="cls-2" d="M445.09,703.47l52.46,29.07a92,92,0,0,0,29.66,10.31l13.33,2.2a8.23,8.23,0,0,1,6.89,8.13h0a8.23,8.23,0,0,1-8.23,8.23h-164l69.88-57.94m-2-21.7-9.46,7.85-69.88,57.93-38.43,31.86H539.2a26.23,26.23,0,0,0,4.26-52.12l-13.33-2.2a73.74,73.74,0,0,1-23.85-8.29l-52.46-29.07-10.76-6Z"/><path class="cls-1" d="M264.24,82.64c17.9,40,5.72,84.33-27.22,99.08s-74.14-5.69-92-45.66S131.49,34.37,164.42,19.62,246.34,42.68,264.24,82.64Z"/><path class="cls-2" d="M214.53,195.48c-30.82,0-62.33-21.28-77.77-55.74-9.52-21.27-13.28-48.39-10-72.55,3.72-27.82,15.8-47.63,34-55.79s41-4,64.28,11.76C245.19,36.83,262.93,57.7,272.46,79s11.61,44.33,5.91,65.05c-5.86,21.36-19.24,37.66-37.67,45.91A63.72,63.72,0,0,1,214.53,195.48ZM180.29,25.39a29.59,29.59,0,0,0-12.19,2.44c-27.21,12.19-31,68.62-14.91,104.55,12.45,27.79,37.31,45.14,61.15,45.14a46.22,46.22,0,0,0,19-4c13.43-6,23.26-18.18,27.68-34.26,4.59-16.7,2.81-35.5-5-52.93h0C247.81,68,232.44,49.94,214.92,38.06,202.61,29.72,190.57,25.39,180.29,25.39Z"/><path class="cls-1" d="M335.27,82.64c-17.9,40-5.72,84.33,27.22,99.08s74.14-5.69,92-45.66S468,34.37,435.09,19.62,353.17,42.68,335.27,82.64Z"/><path class="cls-2" d="M385.17,195.55a64.11,64.11,0,0,1-26.36-5.62c-37.41-16.75-51.66-66.53-31.76-111h0c9.53-21.27,27.27-42.14,47.44-55.81C397.73,7.42,420.55,3.24,438.77,11.4s30.3,28,34,55.79c3.23,24.16-.53,51.28-10.05,72.55s-25.35,38.18-44.6,47.73A74.15,74.15,0,0,1,385.17,195.55ZM343.48,86.32c-15.84,35.38-5.66,74.49,22.69,87.19,13.42,6,29.05,5.24,44-2.16,15.52-7.7,28.36-21.54,36.17-39,8.21-18.34,11.44-41.82,8.63-62.8s-11.4-36.31-23.54-41.75-29.2-1.71-46.82,10.23S351.7,68,343.48,86.32Z"/><path class="cls-1" d="M433.33,760.14C394.09,769,349.82,773.25,303,773.25c-43.59,0-84.94-3.7-122.08-11.32-51.56-10.58-107.74-30.27-142-72.48C-1.73,639.54,4.15,568,26.42,511.52c25.09-63.59,86.86-104.89,108.16-169.44"/><path class="cls-2" d="M303,782.25c-45,0-86.68-3.87-123.89-11.5-69.26-14.21-117.41-39-147.22-75.63C11.71,670.34,1,639.41.07,603.17c-.8-30.3,5.42-63.13,18-94.95s33.78-58.11,54.31-83.55c22.17-27.46,43.11-53.4,53.67-85.41l17.09,5.64C131.54,380,108.58,408.47,86.37,436c-19.68,24.38-40,49.6-51.58,78.85C9,580.32,13.07,643.48,45.82,683.77c27.08,33.32,71.85,56,136.87,69.34,36,7.39,76.48,11.14,120.27,11.14,47.18,0,90.38-4.34,128.39-12.89l4,17.56C396,777.77,351.47,782.25,303,782.25Z"/><path class="cls-1" d="M171.55,760.14c39.24,8.83,83.51,13.11,130.37,13.11,43.59,0,84.94-3.7,122.08-11.32,51.55-10.58,107.73-30.27,142-72.48C606.6,639.54,600.73,568,578.46,511.52c-25.1-63.59-86.87-104.89-108.16-169.44"/><path class="cls-2" d="M301.92,782.25c-48.52,0-93-4.48-132.35-13.33l4-17.56c38,8.55,81.21,12.89,128.4,12.89,43.79,0,84.25-3.75,120.27-11.14,65-13.34,109.79-36,136.87-69.34,32.75-40.29,36.87-103.45,11-168.94-11.54-29.25-31.9-54.47-51.58-78.85-22.21-27.51-45.17-56-56.76-91.08l17.1-5.64c10.56,32,31.49,57.95,53.66,85.41,20.54,25.44,41.77,51.75,54.32,83.55s18.77,64.65,18,94.95c-.95,36.24-11.64,67.17-31.78,92-29.81,36.68-78,61.42-147.23,75.63C388.6,778.38,346.92,782.25,301.92,782.25Z"/><path class="cls-3" d="M433.33,760.14c-37.29,8.39-79.12,12.67-123.39,13.07,40.64-.43,79.2-4.13,114.06-11.28q4.58-.95,9.2-2Z"/><path class="cls-3" d="M595,615.92c-2.65,26.57-11.51,52.06-29,73.53-32.28,39.71-83.91,59.49-132.84,70.5q-4.62,1-9.2,2c-34.86,7.15-73.42,10.85-114.06,11.28l-3.94,0h-7.12c-1.32,0-2.63,0-3.94,0-40.64-.43-79.2-4.13-114.06-11.28-3-.63-6.12-1.28-9.2-2-48.93-11-100.57-30.8-132.85-70.51C20.89,667.38,12,641.07,9.67,613.7c40.27,46.47,111.07,82.13,196.71,97.7a552.7,552.7,0,0,0,192.32.28C483.67,696.51,554.18,661.58,595,615.92Z"/><path class="cls-3" d="M294.94,773.21c-44.27-.4-86.1-4.68-123.39-13.07l.13-.18c3.08.69,6.15,1.34,9.2,2C215.74,769.08,254.3,772.78,294.94,773.21Z"/><path class="cls-2" d="M303,782.25c-45,0-86.68-3.87-123.89-11.5-69.26-14.21-117.41-39-147.22-75.63C11.71,670.34,1,639.41.07,603.17c-.8-30.3,5.42-63.13,18-94.95s33.78-58.11,54.31-83.55c22.17-27.46,43.11-53.4,53.67-85.41l17.09,5.64C131.54,380,108.58,408.47,86.37,436c-19.68,24.38-40,49.6-51.58,78.85C9,580.32,13.07,643.48,45.82,683.77c27.08,33.32,71.85,56,136.87,69.34,36,7.39,76.48,11.14,120.27,11.14,47.18,0,90.38-4.34,128.39-12.89l4,17.56C396,777.77,351.47,782.25,303,782.25Z"/><path class="cls-2" d="M301.92,782.25c-48.52,0-93-4.48-132.35-13.33l4-17.56c38,8.55,81.21,12.89,128.4,12.89,43.79,0,84.25-3.75,120.27-11.14,65-13.34,109.79-36,136.87-69.34,32.75-40.29,36.87-103.45,11-168.94-11.54-29.25-31.9-54.47-51.58-78.85-22.21-27.51-45.17-56-56.76-91.08l17.1-5.64c10.56,32,31.49,57.95,53.66,85.41,20.54,25.44,41.77,51.75,54.32,83.55s18.77,64.65,18,94.95c-.95,36.24-11.64,67.17-31.78,92-29.81,36.68-78,61.42-147.23,75.63C388.6,778.38,346.92,782.25,301.92,782.25Z"/><path class="cls-1" d="M145.64,217.76a157.32,157.32,0,0,1,314.64,0"/><path class="cls-2" d="M469.28,217.76h-18C451.28,136,384.74,69.44,303,69.44S154.64,136,154.64,217.76h-18c0-91.71,74.61-166.32,166.32-166.32S469.28,126.05,469.28,217.76Z"/><path class="cls-1" d="M180.46,354.36a91.77,91.77,0,0,1,0-183.54"/><path class="cls-2" d="M180.46,354.36a80.54,80.54,0,0,1-36.81-2.91,89.85,89.85,0,0,1-33.07-19A93.45,93.45,0,0,1,87.8,301a95.32,95.32,0,0,1-6.06-18.76,95.24,95.24,0,0,1,0-39.26,96.63,96.63,0,0,1,6-18.76,93.42,93.42,0,0,1,22.79-31.51,89.73,89.73,0,0,1,33.08-19,80.52,80.52,0,0,1,36.81-2.89A117.77,117.77,0,0,0,163,175a100.78,100.78,0,0,0-16,6.84,95.51,95.51,0,0,0-26.46,20.82l-2.69,3.18-2.52,3.29L113,212.55c-.74,1.16-1.5,2.3-2.22,3.47a90.7,90.7,0,0,0-7.2,14.72,86.64,86.64,0,0,0-4.38,15.67,89.54,89.54,0,0,0,0,32.37,87.66,87.66,0,0,0,4.37,15.67,91.63,91.63,0,0,0,7.2,14.73A93.91,93.91,0,0,0,147,343.32a100.39,100.39,0,0,0,16,6.84A116.49,116.49,0,0,0,180.46,354.36Z"/><path class="cls-1" d="M425.32,170.82a91.77,91.77,0,1,1,0,183.54"/><path class="cls-2" d="M425.32,170.82a80.81,80.81,0,0,1,36.81,2.91,90,90,0,0,1,33.07,19A93.26,93.26,0,0,1,518,224.21,95.23,95.23,0,0,1,524,243a95.24,95.24,0,0,1,0,39.26A95.29,95.29,0,0,1,518,301a93.3,93.3,0,0,1-22.78,31.51,89.89,89.89,0,0,1-33.08,19,80.58,80.58,0,0,1-36.82,2.89,115.94,115.94,0,0,0,17.42-4.22,98.6,98.6,0,0,0,16-6.84,95.18,95.18,0,0,0,26.46-20.82l2.69-3.17,2.53-3.3,2.38-3.37c.74-1.17,1.51-2.31,2.23-3.48a91.38,91.38,0,0,0,7.19-14.71,89.55,89.55,0,0,0,0-63.72A91.48,91.48,0,0,0,495.06,216a93.36,93.36,0,0,0-9.83-13.32,95.07,95.07,0,0,0-26.47-20.83,99.56,99.56,0,0,0-16-6.83A117.15,117.15,0,0,0,425.32,170.82Z"/><circle cx="259.78" cy="220.07" r="16.5"/><circle cx="343.51" cy="220.07" r="16.5"/><path d="M318.82,280.56c0,8.76-8.61,15.85-15.86,15.85-7,0-15.86-7.09-15.86-15.85s7.1-10.67,15.86-10.67S318.82,271.8,318.82,280.56Z"/><path d="M269.63,317.24c-8.83,0-14.62-2.36-17.24-7-4.57-8.18,2.87-19.34,3.74-20.59a3,3,0,1,1,4.93,3.42c-1.63,2.37-5.77,10.08-3.43,14.25,1.67,3,6.75,4.32,14.7,3.88,27.68-1.52,27.65-19,27.63-19.78a3,3,0,0,1,2.94-3.06H303a3,3,0,0,1,3,2.94c0,.24.1,24.06-33.3,25.89Q271.09,317.24,269.63,317.24Z"/><path d="M335.83,317.24q-1.45,0-3-.09c-33.4-1.83-33.3-25.65-33.3-25.89a3,3,0,0,1,3-2.94h.06a3,3,0,0,1,2.94,3c0,.8.24,18.3,27.63,19.8,7.95.44,13-.91,14.7-3.88,2.34-4.17-1.8-11.88-3.43-14.26a3,3,0,1,1,4.93-3.41c.87,1.25,8.31,12.41,3.74,20.59C350.45,314.88,344.66,317.24,335.83,317.24Z"/><path class="cls-1" d="M348,360.92S328,380,303.32,380s-44.73-19.1-44.73-19.1"/><path class="cls-2" d="M348.28,361.17a47.56,47.56,0,0,1-8.31,10A59.77,59.77,0,0,1,329.39,379,54.78,54.78,0,0,1,317,384.31a47.51,47.51,0,0,1-27.38,0A55.5,55.5,0,0,1,277.25,379a60.26,60.26,0,0,1-10.58-7.81,47.3,47.3,0,0,1-8.32-10l0-.07a.34.34,0,0,1,.12-.47.34.34,0,0,1,.4,0,77.38,77.38,0,0,0,9.9,7.35,82.7,82.7,0,0,0,10.83,5.88,64.93,64.93,0,0,0,11.61,4l3,.64c1,.18,2,.28,3,.42l1.52.2,1.53.07,3.06.13,3.05-.13,1.53-.07,1.52-.2c1-.14,2-.24,3-.42l3-.64a64.66,64.66,0,0,0,11.61-4A83.9,83.9,0,0,0,337.9,368a77.38,77.38,0,0,0,9.9-7.35.34.34,0,0,1,.52.44Z"/><g class="cls-4"><path class="cls-2" d="M219.68,87.33a2.51,2.51,0,0,1-2.36-1.66,4.37,4.37,0,0,0-.18-.46l-.08-.2c-9.87-25.09-28.86-34.41-39.3-37.74a41.3,41.3,0,0,0-5.7-1.43,2.5,2.5,0,1,1,.69-5,43.53,43.53,0,0,1,6.52,1.61c11.29,3.6,31.81,13.66,42.44,40.67l.07.17c.09.21.17.42.25.64a2.51,2.51,0,0,1-2.35,3.35Z"/></g><g class="cls-4"><path class="cls-2" d="M378.05,87.33a2.44,2.44,0,0,1-.84-.15A2.5,2.5,0,0,1,375.7,84c.08-.22.16-.43.25-.64l.07-.18c10.62-27,31.15-37.06,42.43-40.66A43.79,43.79,0,0,1,425,40.89a2.5,2.5,0,0,1,.69,5,39.79,39.79,0,0,0-5.7,1.43c-10.44,3.32-29.43,12.65-39.3,37.73l-.09.21-.18.46A2.49,2.49,0,0,1,378.05,87.33Z"/></g><g class="cls-4"><path class="cls-2" d="M292.74,62.94a2.52,2.52,0,0,1-2.42-1.87c-.19-.76-4.77-18.8,3.09-37.14a2.5,2.5,0,1,1,4.59,2c-7.16,16.72-2.88,33.74-2.84,33.91a2.5,2.5,0,0,1-1.79,3A2.72,2.72,0,0,1,292.74,62.94Z"/></g><g class="cls-4"><path class="cls-2" d="M299.09,60.82h0a2.49,2.49,0,0,1-2.49-2.5c0-1.42.25-35.11,22.28-57.57a2.5,2.5,0,1,1,3.57,3.5c-20.57,21-20.85,53.75-20.85,54.07A2.51,2.51,0,0,1,299.09,60.82Z"/></g><g class="cls-4"><path class="cls-2" d="M304.8,57.86a2.57,2.57,0,0,1-.55-.06,2.49,2.49,0,0,1-1.89-3c.15-.7,3.94-17.1,16.83-26.43a2.5,2.5,0,1,1,2.93,4c-11.37,8.23-14.85,23.32-14.89,23.47A2.5,2.5,0,0,1,304.8,57.86Z"/></g><ellipse class="cls-5" cx="259.78" cy="220.07" rx="3.39" ry="14.42"/><path d="M259.78,236c-4.66,0-4.89-13.27-4.89-15.93s.23-15.92,4.89-15.92,4.89,13.27,4.89,15.92S264.44,236,259.78,236Zm0-28.53c-.78,1.34-1.89,5.68-1.89,12.6s1.11,11.27,1.89,12.61c.78-1.34,1.89-5.68,1.89-12.61S260.56,208.81,259.78,207.46Z"/><ellipse class="cls-5" cx="343.51" cy="220.07" rx="3.39" ry="14.42"/><path d="M343.51,236c-4.65,0-4.89-13.27-4.89-15.93s.24-15.92,4.89-15.92,4.9,13.27,4.9,15.92S348.17,236,343.51,236Zm0-28.53c-.77,1.35-1.89,5.68-1.89,12.6s1.12,11.27,1.89,12.61c.78-1.34,1.9-5.68,1.9-12.61S344.29,208.8,343.51,207.46Z"/><path class="cls-6" d="M433.6,744c0,2.53-.09,5-.27,7.31-39.24,8.83-83.51,13.11-130.37,13.11-43.59,0-84.94-3.7-122.08-11.32q-.42-4.33-.42-9.1c0-63.77,56.67-144,126.57-144S433.6,680.22,433.6,744Z"/><path class="cls-2" d="M88.69,466.71a197.34,197.34,0,0,0,25.42,35.81c9.67,10.61,20.77,19.74,33.12,25.08a64.4,64.4,0,0,0,19.05,5,85.17,85.17,0,0,0,20.12-.53,93.67,93.67,0,0,0,9.84-2l2.4-.7,1.2-.35,1.18-.41,2.36-.82,2.3-.92c.78-.3,1.54-.63,2.29-1l2.25-1c1.46-.76,3-1.45,4.35-2.29s2.77-1.69,4.13-2.56,2.63-1.84,3.81-2.86a41,41,0,0,0,6.47-6.34,20.24,20.24,0,0,0,3.69-6.63,9.41,9.41,0,0,0,.41-2.68,5.56,5.56,0,0,0,0-.58,4.35,4.35,0,0,1-.1-.52l0-.27a2.56,2.56,0,0,1-.11-.24,3.8,3.8,0,0,1-.15-.51c-.07-.17-.2-.32-.28-.49s-.12-.36-.29-.53a5.12,5.12,0,0,1-.4-.52l-.19-.28c-.08-.09-.19-.17-.28-.26s-.37-.35-.55-.54a3.5,3.5,0,0,0-.27-.28l-.36-.26-.7-.55-.34-.28-.6-.4c-6.35-4.31-12.51-8.82-18.39-13.65q-4.42-3.62-8.71-7.37c-2.82-2.54-5.61-5.11-8.34-7.75a229.29,229.29,0,0,1-29.63-34.47A125.7,125.7,0,0,1,152,411.93a65.35,65.35,0,0,1-3.82-10.8,33.84,33.84,0,0,1-1.05-11.29,36.54,36.54,0,0,0,3.6,10.35,74,74,0,0,0,5.65,9.29c2.08,3,4.28,5.84,6.63,8.61s4.73,5.5,7.21,8.15a315.57,315.57,0,0,0,32.1,29.39,340.51,340.51,0,0,0,35.28,25l.57.35.78.53,1.56,1.08.77.56c.25.19.5.43.75.65l1.48,1.36c.24.23.49.45.72.7l.68.81c.45.54.9,1.09,1.33,1.64a17.9,17.9,0,0,1,1.18,1.83c.37.64.76,1.26,1.07,1.93s.57,1.39.83,2.09l.39,1.06c.1.36.18.72.27,1.09.17.73.32,1.46.46,2.2a20.22,20.22,0,0,1,.19,2.19,26.44,26.44,0,0,1-.88,8.3,37.36,37.36,0,0,1-6.72,12.87,57.74,57.74,0,0,1-9.25,9.3c-1.65,1.37-3.39,2.55-5.11,3.76s-3.53,2.26-5.35,3.23-3.67,1.92-5.51,2.85L215,542.24l-1.41.61-1.44.53a93.94,93.94,0,0,1-47.95,4.89,71.4,71.4,0,0,1-12-3l-2.9-1.05-2.83-1.23c-1.9-.77-3.67-1.78-5.49-2.7s-3.5-2-5.21-3.1l-2.48-1.72c-.83-.57-1.65-1.13-2.43-1.76-1.57-1.23-3.16-2.44-4.63-3.76-.74-.65-1.5-1.29-2.21-2l-2.13-2a113,113,0,0,1-14.72-18,139.86,139.86,0,0,1-11-20A125,125,0,0,1,88.69,466.71Z"/><path class="cls-2" d="M501.94,466.71A124.11,124.11,0,0,1,494.45,488a138.88,138.88,0,0,1-11,20,112.4,112.4,0,0,1-14.72,18l-2.12,2c-.71.68-1.48,1.32-2.22,2-1.47,1.32-3.05,2.53-4.63,3.76-.78.63-1.6,1.19-2.43,1.76l-2.47,1.72c-1.72,1.06-3.42,2.15-5.22,3.1s-3.59,1.93-5.49,2.7l-2.82,1.23-2.91,1.05a71.4,71.4,0,0,1-12,3,93.89,93.89,0,0,1-47.94-4.89l-1.44-.53-1.42-.61L372.79,541c-1.85-.93-3.72-1.79-5.51-2.85s-3.59-2.12-5.35-3.23-3.47-2.39-5.12-3.76a58.15,58.15,0,0,1-9.25-9.3A37.18,37.18,0,0,1,340.85,509a26.15,26.15,0,0,1-.89-8.3c.05-.73.07-1.46.19-2.19s.3-1.47.46-2.2c.09-.37.17-.73.27-1.09l.39-1.06c.26-.7.54-1.4.83-2.09s.71-1.29,1.07-1.93a17.9,17.9,0,0,1,1.18-1.83c.44-.55.88-1.1,1.33-1.64l.68-.81c.24-.25.48-.47.73-.7l1.47-1.36c.25-.22.5-.46.75-.65l.77-.56,1.56-1.08.78-.53.57-.35a341.71,341.71,0,0,0,35.29-25,316.52,316.52,0,0,0,32.09-29.39c2.49-2.65,4.91-5.36,7.22-8.15s4.54-5.65,6.63-8.61a75.12,75.12,0,0,0,5.64-9.29,36.55,36.55,0,0,0,3.61-10.35,34.1,34.1,0,0,1-1.05,11.29,64.49,64.49,0,0,1-3.83,10.8,126.43,126.43,0,0,1-11.31,19.83,229.36,229.36,0,0,1-29.64,34.47c-2.73,2.64-5.52,5.21-8.34,7.75s-5.75,5-8.7,7.37c-5.89,4.83-12.05,9.34-18.4,13.65l-.59.4-.35.28-.7.55-.35.26c-.11.09-.18.19-.28.28s-.36.37-.55.54-.2.17-.28.26l-.18.28c-.13.18-.27.36-.41.52s-.18.36-.29.53-.21.32-.27.49a2.76,2.76,0,0,1-.16.51,2.44,2.44,0,0,1-.1.24l0,.27a3,3,0,0,1-.1.52,3.74,3.74,0,0,0,0,.58,9,9,0,0,0,.4,2.68,20.43,20.43,0,0,0,3.69,6.63,41,41,0,0,0,6.47,6.34c1.19,1,2.52,1.92,3.81,2.86s2.7,1.78,4.14,2.56,2.88,1.53,4.34,2.29l2.26,1c.74.34,1.5.67,2.28,1l2.31.92,2.35.82,1.18.41,1.2.35,2.41.7a93.49,93.49,0,0,0,9.83,2,85.17,85.17,0,0,0,20.12.53,64.54,64.54,0,0,0,19.06-5c12.34-5.34,23.45-14.47,33.11-25.08A196.86,196.86,0,0,0,501.94,466.71Z"/><path class="cls-2" d="M231,512.71a49.7,49.7,0,0,1-22,7.21,52.34,52.34,0,0,1-12.11-.31,54,54,0,0,1-11.95-3.21,96.46,96.46,0,0,1-11.45-5.24,29.12,29.12,0,0,1-9.15-8.36,39.31,39.31,0,0,1-5.46-11,43.87,43.87,0,0,1-1.31-6c-.1-1.06-.19-2.1-.19-3.18V481c0-.55,0-1.09.13-1.65l1.57-.88c.54.22,1,.47,1.51.7l1.38.75c.92.49,1.76,1,2.59,1.53,1.71,1,3.25,2,4.73,3.08s2.89,2.06,4.29,3.05,2.65,2.05,4,3c.64.5,1.26,1,1.85,1.54a21.93,21.93,0,0,1,1.77,1.56c.29.26.55.56.83.84s.55.54.83.81c.55.56,1.07,1.16,1.59,1.75a38.94,38.94,0,0,0,7,6.46A52.19,52.19,0,0,0,219.63,512a52.49,52.49,0,0,0,5.3-.2,46.58,46.58,0,0,0,5.3-.72Z"/><path d="M302.71,329.58c-9.4,0-16.48-11.5-16.48-19a3,3,0,0,1,6,0c0,4.88,5.08,13,10.48,13s10.48-8.08,10.48-13a3,3,0,0,1,6,0C319.19,318.08,312.11,329.58,302.71,329.58Z"/></g></g></svg>