<?xml version="1.0" standalone="no"?><!DOCTYPE svg PUBLIC "-//W3C//DTD SVG 1.1//EN" "http://www.w3.org/Graphics/SVG/1.1/DTD/svg11.dtd"><svg t="1649922730441" class="icon" viewBox="0 0 1024 1024" version="1.1" xmlns="http://www.w3.org/2000/svg" p-id="44060" xmlns:xlink="http://www.w3.org/1999/xlink" width="48" height="48"><defs><style type="text/css">@font-face { font-family: feedback-iconfont; src: url("//at.alicdn.com/t/font_1031158_u69w8yhxdu.woff2?t=1630033759944") format("woff2"), url("//at.alicdn.com/t/font_1031158_u69w8yhxdu.woff?t=1630033759944") format("woff"), url("//at.alicdn.com/t/font_1031158_u69w8yhxdu.ttf?t=1630033759944") format("truetype"); }
</style></defs><path d="M787.857995 591.371596c-6.262677 7.045511-12.495244 14.331894-19.570864 18.246068-18.035304 9.966086-36.070608 20.715007-59.525536 22.009695a446.516792 446.516792 0 0 1-130.914026-12.344699c-36.431916-8.791834-59.555645-30.801529-61.332077-70.154021-3.07112-67.986171-10.237067-136.363759 4.215263-203.717641 13.067315-61.000878 30.77142-73.134814 92.434696-74.339174 76.537133-1.475342 147.594424 12.344699 203.838077 70.966964 20.985988 21.829041 29.296078 46.247457 25.171143 78.494219-7.316492 56.966269-21.317187 107.970952-46.638875 158.433673-2.408722 4.727116-4.967989 9.363906-7.677801 12.404916" fill="#707070" p-id="44061"></path><path d="M227.589319 582.007691c-17.523451-42.754811-32.30698-86.412892-42.092412-131.72697-14.663094-67.805517 4.60668-111.222726 64.01178-143.318944 61.030987-33.029597 126.698763-40.496634 194.142972-33.661886 36.913661 3.70341 50.703593 33.722104 57.809322 65.216141 15.656691 69.371186 10.959684 140.067169 4.395917 209.769554-4.636789 49.168032-31.614473 71.057291-88.972159 77.380186-39.743909 4.335699-79.758799 10.77903-120.857613 2.950684-20.895661-3.974391-32.126326-25.773323-54.105912-23.183946-15.596473-0.963489-14.301785-12.61568-14.331895-23.39471" fill="#707070" p-id="44062"></path><path d="M12.219487 717.287525c-9.273579-9.454233-14.813639-20.082717-10.688703-31.825236 20.082717-57.086705 17.643887-118.780091 39.743909-175.324833 4.30559-11.019902-0.120436-20.534353-1.385015-30.921965-11.862955-95.897234-5.871259-186.585608 80.300761-254.601888C159.633257 193.450766 203.381666 173.488484 254.928311 175.234807c59.977171 2.107632 103.213726-29.506841 142.415673-65.186032 22.280676-20.263372 11.441428-51.064901 7.105729-77.590949-1.746323-10.809139-12.103827-23.364601 7.738019-28.151935 18.757921-4.546462 21.979586 7.828346 26.194848 21.377406 17.734214 57.387795 4.847552 92.856223-42.995683 129.920428C349.470639 191.192589 299.57999 209.559092 239.602819 209.860182c-76.055389 0.421526-156.837894 78.042584-165.810382 152.441977-5.118534 42.333285-8.761725 84.546133 4.666898 126.066474 3.311992 10.116631-0.541962 18.366503-3.161447 27.338992-14.181349 48.836833-24.870052 98.366174-30.229458 148.828894-2.378613 22.431221-12.525353 40.01489-32.848943 52.690788" fill="#707070" p-id="44063"></path><path d="M1013.284241 722.616822c-21.527951-15.054511-30.259567-34.203849-32.758616-58.260957-2.830248-27.188447-3.251774-56.303871-13.488841-80.692178-29.175642-69.55184-3.402319-140.910222-11.832846-211.004024-10.77903-89.57434-85.148313-164.66624-172.946221-164.696349-67.564645 0-116.732677-37.094315-162.377954-80.451306-21.196751-20.082717-22.401112-89.965757-7.948781-116.431587 5.720714-10.447831 12.976988-12.404917 23.06351-10.357503 11.110229 2.258177 11.893064 9.785432 9.092925 18.848247-9.273579 30.16924-18.757921 65.095705 4.064718 88.219434 34.354394 34.806029 73.977866 64.734397 127.782688 65.727994a216.122558 216.122558 0 0 1 208.474866 172.67524c8.852052 42.212848 8.882161 85.810712 2.017305 128.174105-3.402319 21.076315-2.679703 40.044999 3.763627 59.073901 17.643887 52.02839 13.669496 108.543023 32.758616 160.270322 3.37221 9.213361-3.311992 18.336394-9.664996 28.904661M192.933835 602.180735l12.31459 22.762421c6.443331 34.535048 9.032707 70.846528 20.142936 103.273944 25.080815 73.104705 13.338297 146.932026 9.634887 220.849674-0.873162 17.041706-1.806541 34.264067-4.757226 50.944465-1.505451 8.31009 6.925075 26.315285-10.086522 23.364601-10.989793-1.896868-22.069913-9.695105-20.052608-27.579864 2.16785-19.39021 4.395917-38.78042 5.509951-58.291066 2.499049-43.868845 8.821943-88.309761 5.118533-131.576425-3.552865-41.85154-17.704105-82.46861-28.121826-127.541816-45.795822 74.820919-51.155228 163.281225-69.642167 248.339211-16.469635-10.718812-23.725909-19.721409-22.371003-37.214751 7.527255-96.860723 44.200044-182.52089 76.446806-269.987597 5.329297-14.482439 16.379308-13.368406 25.893758-17.342797" fill="#707070" p-id="44064"></path><path d="M791.10977 628.465911L803.273814 606.094908c14.542657 2.16785 23.123729 10.14674 29.205752 27.278774 28.453026 80.210434 62.626765 157.982037 69.702385 246.502561 1.806541 22.340894 3.884064 22.100022-17.764323 48.957269-22.76242-83.974062-25.110924-172.825785-68.94966-244.003512-38.057803 93.337967-32.969379 190.981525-21.889258 289.197153 1.083925 9.574669 2.860357 19.360101 2.107631 28.784225-1.204361 14.753421-13.037206 20.353699-22.401112 20.92577-9.604778 0.541962-6.383113-12.946879-6.985293-20.504244-4.094827-52.991878-7.196056-106.043974-11.742519-158.975634-4.817443-55.069401 19.209556-103.273944 26.044304-155.573315 2.649594-20.203154 6.925075-40.135326 10.447831-60.187935" fill="#707070" p-id="44065"></path></svg>