<?xml version="1.0" standalone="no"?><!DOCTYPE svg PUBLIC "-//W3C//DTD SVG 1.1//EN" "http://www.w3.org/Graphics/SVG/1.1/DTD/svg11.dtd"><svg t="1650111481447" class="icon" viewBox="0 0 1024 1024" version="1.1" xmlns="http://www.w3.org/2000/svg" p-id="4623" xmlns:xlink="http://www.w3.org/1999/xlink" width="48" height="48"><defs><style type="text/css">@font-face { font-family: feedback-iconfont; src: url("//at.alicdn.com/t/font_1031158_u69w8yhxdu.woff2?t=1630033759944") format("woff2"), url("//at.alicdn.com/t/font_1031158_u69w8yhxdu.woff?t=1630033759944") format("woff"), url("//at.alicdn.com/t/font_1031158_u69w8yhxdu.ttf?t=1630033759944") format("truetype"); }
</style></defs><path d="M512 511.988916m-303.788366 0a303.788366 303.788366 0 1 0 607.576732 0 303.788366 303.788366 0 1 0-607.576732 0Z" fill="#FFD385" p-id="4624"></path><path d="M512 846.47977c-184.636114 0-334.823372-150.231594-334.823372-334.867708 0-184.613946 150.187258-334.801204 334.823372-334.801203 184.613946 0 334.823372 150.187258 334.823372 334.801203-0.022168 184.613946-150.209426 334.867707-334.823372 334.867708z m0-607.621068c-150.408936 0-272.753361 122.344424-272.753361 272.731193 0 150.408936 122.366592 272.797697 272.753361 272.797696 150.386769 0 272.731193-122.38876 272.731193-272.797696 0-150.386769-122.344424-272.731193-272.731193-272.731193zM480.964995 0h62.07001v122.277921h-62.07001zM480.964995 901.5004h62.07001v122.277921h-62.07001zM901.577988 480.554889h122.300089v62.070011h-122.300089zM0.121923 480.554889h122.277921v62.070011H0.121923zM167.31193 127.975061l86.454658 86.454658-43.892365 43.892364-86.454657-86.476825zM804.748771 765.411902l86.454658 86.454658-43.892365 43.892365-86.454657-86.454658zM847.155889 127.77555l43.892365 43.870197-86.454658 86.476826-43.892364-43.870197zM209.674713 765.234559l43.892364 43.892365-86.498993 86.454658-43.892365-43.892365z" fill="#292929" p-id="4625"></path></svg>