<?xml version="1.0" standalone="no"?><!DOCTYPE svg PUBLIC "-//W3C//DTD SVG 1.1//EN" "http://www.w3.org/Graphics/SVG/1.1/DTD/svg11.dtd"><svg t="1649933763564" class="icon" viewBox="0 0 1024 1024" version="1.1" xmlns="http://www.w3.org/2000/svg" p-id="12596" xmlns:xlink="http://www.w3.org/1999/xlink" width="48" height="48"><defs><style type="text/css">@font-face { font-family: feedback-iconfont; src: url("//at.alicdn.com/t/font_1031158_u69w8yhxdu.woff2?t=1630033759944") format("woff2"), url("//at.alicdn.com/t/font_1031158_u69w8yhxdu.woff?t=1630033759944") format("woff"), url("//at.alicdn.com/t/font_1031158_u69w8yhxdu.ttf?t=1630033759944") format("truetype"); }
</style></defs><path d="M950.291766 996.859873c-20.807908 0-39.813774-11.366885-52.141544-31.190373-50.846038-81.691557-84.445274-173.47189-102.738919-280.589536-11.919471-69.825298-15.915481-141.093459-11.865235-211.81722 8.654101-151.182234 46.273906-278.666744 115.012454-389.708769 16.164145-26.146497 38.556131-30.05348 50.462299-30.05348 3.001357 0 6.116301 0.240477 9.349949 0.73678 23.874757 3.666506 41.782615 20.013823 47.914266 43.711548 0.744967 2.929726 1.169639 5.780657 1.450025 8.054443l0.255827 2.1295 0.127913 3.298116c-0.127913 11.576663-3.241834 22.096251-9.534144 32.199353-51.694359 82.71691-82.652442 177.248913-94.652753 289.010323-12.386098 115.187439-2.281973 226.821959 30.021757 331.779406 15.563464 50.564629 36.899398 97.654111 63.407122 139.941216 9.598612 15.325034 12.872169 32.409131 9.205663 48.115857-3.418866 14.699794-12.70537 27.348881-26.13831 35.658128C971.203028 993.832933 960.772468 996.859873 950.291766 996.859873z" p-id="12597" fill="#fc5d05"></path><path d="M74.387709 996.876246c-10.510378 0-20.934798-2.929726-30.141484-8.454556-13.617136-8.18338-23.128767-21.039175-26.771737-36.204573-3.681856-15.352663-0.936325-31.428803 7.725962-45.263903 51.750641-82.699514 82.773192-177.249937 94.828762-289.058418 12.649088-117.28624 2.001587-230.712569-31.637558-337.157903-15.284101-48.338938-36.2189-94.005001-62.222133-135.698588-11.512195-18.494213-13.265118-40.414455-4.707209-58.683541 8.15882-17.389042 24.866341-29.41289 44.688805-32.151257 2.946099-0.400113 5.756097-0.592494 8.486278-0.592494 20.463054 0 38.260395 10.391674 50.109258 29.237905 30.302143 48.227398 55.160297 102.010325 73.909313 159.876244 29.229718 90.273003 42.959418 185.222515 43.191708 298.825876-1.264806 135.186935-32.151257 265.553075-89.329515 377.381-8.974395 17.563004-18.989493 34.217313-28.468378 49.603745C113.105522 986.275817 94.547865 996.876246 74.387709 996.876246z" p-id="12598" fill="#fc5d05"></path><path d="M465.737862 669.469428c-0.048095-25.330922 19.998473-45.313022 45.593408-45.426609 26.323529-0.143263 46.593178 19.48682 46.753837 45.263903 0.168846 26.261107-20.366863 46.787606-46.578852 46.580898C485.624794 715.663516 465.785957 695.552479 465.737862 669.469428z" p-id="12599" fill="#fc5d05"></path></svg>