<?xml version="1.0" standalone="no"?><!DOCTYPE svg PUBLIC "-//W3C//DTD SVG 1.1//EN" "http://www.w3.org/Graphics/SVG/1.1/DTD/svg11.dtd"><svg t="1649933524744" class="icon" viewBox="0 0 1024 1024" version="1.1" xmlns="http://www.w3.org/2000/svg" p-id="10068" xmlns:xlink="http://www.w3.org/1999/xlink" width="48" height="48"><defs><style type="text/css">@font-face { font-family: feedback-iconfont; src: url("//at.alicdn.com/t/font_1031158_u69w8yhxdu.woff2?t=1630033759944") format("woff2"), url("//at.alicdn.com/t/font_1031158_u69w8yhxdu.woff?t=1630033759944") format("woff"), url("//at.alicdn.com/t/font_1031158_u69w8yhxdu.ttf?t=1630033759944") format("truetype"); }
</style></defs><path d="M190.373647 873.411765c-23.883294-8.432941-29.906824-19.546353-27.678118-40.869647 13.974588-133.571765 25.961412-267.354353 39.30353-401.016471 6.686118-66.861176-5.150118-142.878118-40.357647-236.905412-26.563765 62.976-58.940235 119.115294-65.656471 184.19953-8.884706 86.799059-46.441412 161.520941-85.142588 242.386823-13.552941-25.840941-14.155294-44.393412-3.132235-67.282823 28.732235-59.632941 50.477176-120.982588 58.307764-188.928 7.770353-67.343059 42.194824-127.728941 69.601883-189.138824C143.781647 157.515294 139.986824 122.428235 171.971765 127.789176c26.895059 4.487529 17.769412 35.84 22.738823 54.693648 12.528941 47.525647 22.407529 95.774118 36.111059 143.088941 15.149176 52.314353 2.108235 105.502118-1.987765 157.635764-10.149647 129.204706-25.118118 258.048-38.460235 390.204236" fill="#eb8221" p-id="10069"></path><path d="M836.698353 873.110588c-13.583059-54.874353-14.848-110.320941-20.901647-164.924235-9.878588-89.178353-16.143059-178.778353-25.118118-268.077177C785.92 392.704 785.950118 346.804706 800.828235 300.272941c15.390118-48.158118 24.094118-98.424471 36.442353-147.57647 2.590118-10.24 0.572235-24.997647 17.92-26.051765 15.751529-0.993882 22.046118 7.619765 27.467294 21.232941 15.781647 39.454118 33.761882 77.974588 49.724236 117.338353 19.034353 46.923294 37.255529 93.635765 40.146823 145.829647 2.078118 37.556706 17.588706 73.547294 34.334118 107.369412 12.950588 26.202353 17.016471 51.049412 1.746823 81.468235-34.273882-67.885176-64.602353-134.204235-72.402823-209.317647-7.168-68.909176-43.068235-127.307294-68.758588-192.813176-50.356706 114.447059-51.049412 228.111059-36.050824 344.003764 12.559059 97.159529 21.022118 194.861176 32.105412 292.23153 2.349176 20.630588-8.161882 30.268235-26.804706 39.122823" fill="#eb8221" p-id="10070"></path><path d="M332.438588 542.117647c4.848941-41.472-1.325176-75.836235-1.14447-110.682353 0.421647-77.221647 33.731765-88.124235 100.713411-98.996706 10.390588-1.686588 21.413647 0.662588 31.924706-0.572235 31.472941-3.674353 45.266824 10.300235 39.755294 40.297412-4.577882 25.208471 21.413647 53.669647-0.813176 73.607529-17.257412 15.480471-44.935529 19.275294-67.222588 29.816471-18.070588 8.583529-35.418353 18.823529-52.254118 29.605647-15.600941 9.999059-30.087529 21.684706-50.959059 36.924235M720.414118 542.117647c-47.706353-39.664941-94.659765-66.891294-147.486118-83.184941-27.437176-8.432941-36.592941-23.491765-27.286588-49.784471 1.897412-5.421176 2.590118-11.324235 3.072-17.046588 5.330824-62.373647 5.571765-65.114353 71.28847-58.157176 75.565176 7.981176 104.327529 24.847059 102.761412 99.629176-0.722824 34.243765-2.108235 68.367059-2.349176 108.544M633.133176 813.146353c-89.750588 0-90.533647-0.752941-90.955294-85.654588v-3.46353c-0.331294-66.56-0.391529-66.048 71.439059-57.344 25.750588 3.132235 51.742118 1.746824 77.70353 7.168 24.696471 5.150118 33.099294 16.263529 31.262117 38.27953-1.325176 16.022588-0.090353 32.225882-0.210823 48.308706-0.240941 45.387294-7.408941 52.163765-55.597177 52.675764-11.233882 0.120471-22.437647 0-33.641412 0M419.026824 813.176471c-87.943529 0-87.943529 0-87.702589-80.926118 0.120471-51.892706 1.355294-54.211765 54.422589-61.500235 30.599529-4.216471 61.680941-5.360941 92.551529-7.890824 23.552-1.957647 34.846118 6.987294 33.611294 29.455059-1.114353 20.449882-0.240941 40.96-0.481882 61.470118-0.572235 49.001412-12.167529 59.331765-66.228706 59.392h-26.172235M722.823529 614.942118c-0.331294 51.501176-1.415529 51.712-50.29647 43.941647a819.260235 819.260235 0 0 0-85.202824-8.523294c-29.816471-1.566118-47.043765-11.745882-45.056-44.815059 1.897412-31.623529 0.512-63.488 0.361412-95.232-0.120471-25.298824 9.005176-35.358118 35.267765-23.43153 46.863059 21.293176 89.961412 48.188235 131.282823 78.546824 20.088471 14.757647 10.752 34.032941 13.643294 49.513412M511.939765 563.079529c0.060235 81.438118 0.060235 81.498353-93.846589 91.256471a205.613176 205.613176 0 0 1-24.786823 0.662588c-19.275294-0.361412-42.164706 20.961882-56.862118-6.354823-13.342118-24.847059 0.903529-74.902588 23.491765-92.672 36.141176-28.431059 76.348235-50.085647 118.121412-69.330824 23.070118-10.661647 33.641412-3.282824 33.852235 20.811294 0.180706 18.552471 0.030118 37.074824 0.030118 55.627294" fill="#eb8221" p-id="10071"></path></svg>