<?xml version="1.0" standalone="no"?><!DOCTYPE svg PUBLIC "-//W3C//DTD SVG 1.1//EN" "http://www.w3.org/Graphics/SVG/1.1/DTD/svg11.dtd"><svg t="1649922687656" class="icon" viewBox="0 0 1024 1024" version="1.1" xmlns="http://www.w3.org/2000/svg" p-id="43178" xmlns:xlink="http://www.w3.org/1999/xlink" width="48" height="48"><defs><style type="text/css">@font-face { font-family: feedback-iconfont; src: url("//at.alicdn.com/t/font_1031158_u69w8yhxdu.woff2?t=1630033759944") format("woff2"), url("//at.alicdn.com/t/font_1031158_u69w8yhxdu.woff?t=1630033759944") format("woff"), url("//at.alicdn.com/t/font_1031158_u69w8yhxdu.ttf?t=1630033759944") format("truetype"); }
</style></defs><path d="M772.4 167.3c26.7 0 48.3 21.7 48.1 48.4l-0.7 115.6c-0.1 17.4-9.9 32.7-24.7 41.8-5.3 5.3-40.2 8.2-80.7 8.2-38.2 0-81.3-2.6-108.9-8.2-31.2-6.3-61.6-19.8-82.7-30.8-2.3-1.2-4.8-1.8-7.1-1.8-8.8 0-16.7 7.8-15.3 17.6 0.6 4.2 1.1 8.6 1.6 13.3 2.7 26.9 4.4 78.4-7.1 117.8-8.2 28.2-38 62.5-54.3 79.9-6.9 7.3-10.3 17.3-9.4 27.4 3.5 37.1 11.8 126.6 12.7 146 1.1 24.7 8.8 65.8 4.4 80.6s-21.9 19.2-21.9 19.2-95 0.7-162.6 0.7c-33.8 0-60.7-0.2-65.4-0.7-2.8-0.3-5.2-1.2-7.3-2.4-11.2-6.6-11-22.8 0-29.8 6.7-4.2 17.2-8.8 33.8-13 41.9-10.7 48.2-18.4 55.9-24.7 13.2-10.7 42.8-47.7 42.8-47.7V270.8c0-57.2 46.4-103.5 103.5-103.5h345.3m0-40H426.9c-19.4 0-38.2 3.8-55.9 11.3-17.1 7.2-32.4 17.6-45.6 30.7-13.2 13.2-23.5 28.5-30.7 45.6-7.5 17.7-11.3 36.5-11.3 55.9v439.6c-11.3 13.6-23.4 27.1-28 30.9-0.9 0.7-1.7 1.4-2.6 2.2-3.7 3.1-8.7 7.3-37.9 14.8-18.9 4.8-33.7 10.7-45.2 17.9-8.7 5.5-15.8 13.1-20.5 22.2-4.4 8.5-6.7 18.1-6.6 27.7 0.3 20.1 10.8 38.1 28 48.3 7.1 4.1 14.8 6.7 22.9 7.7 3.4 0.4 8.6 1 70 1 66.9 0 161.9-0.7 162.9-0.7 3.2 0 6.3-0.4 9.4-1.2 18.3-4.6 42.5-19.5 50.6-46.6 4.8-16.3 3.1-36.2-0.3-66.9-1.1-10.1-2.2-19.6-2.5-26.8-0.9-19.3-8.2-98.6-12.6-145.8 23.3-24.9 52.3-60.9 62.1-94.4 10.4-35.8 11.4-76.7 10.4-104.7 16.5 6.6 35 12.7 54 16.5 27.8 5.6 71.4 9 116.9 9 21.9 0 41.7-0.8 57.4-2.3 20.7-2 35.5-4.9 46.7-13.3 25.8-16.8 41.2-44.3 41.4-74.1l0.7-115.6c0.1-23.6-9-45.9-25.6-62.6-16.8-17.1-39-26.3-62.6-26.3z" fill="#424242" p-id="43179"></path><path d="M568.1 895.9c-9.8 0-18.3-7.1-19.8-17.1-1.6-10.9 5.9-21.1 16.9-22.7 93.5-13.8 176.1-63.2 232.5-139 56.4-75.9 79.9-169.2 66.1-262.7-1.6-10.9 5.9-21.1 16.9-22.7 10.9-1.6 21.1 5.9 22.7 16.9 7.7 52.6 5 105.2-8.3 156.2-12.8 49.3-34.8 95.1-65.3 136.2-30.5 41.1-68.1 75.3-111.6 101.8-45.1 27.4-94.6 45.2-147.2 53-1 0.1-2 0.1-2.9 0.1z" fill="#89A978" p-id="43180"></path><path d="M598.7 753.1c-9.8 0-18.3-7.1-19.8-17.1-1.6-10.9 5.9-21.1 16.9-22.7 90.5-13.3 153.3-97.8 140-188.4-1.6-10.9 5.9-21.1 16.9-22.7 10.9-1.6 21.1 5.9 22.7 16.9C792 631.4 714 736.3 601.7 752.8c-1 0.2-2 0.3-3 0.3z" fill="#89A978" p-id="43181"></path></svg>