<?xml version="1.0" standalone="no"?><!DOCTYPE svg PUBLIC "-//W3C//DTD SVG 1.1//EN" "http://www.w3.org/Graphics/SVG/1.1/DTD/svg11.dtd"><svg t="1649933426158" class="icon" viewBox="0 0 1024 1024" version="1.1" xmlns="http://www.w3.org/2000/svg" p-id="9153" xmlns:xlink="http://www.w3.org/1999/xlink" width="48" height="48"><defs><style type="text/css">@font-face { font-family: feedback-iconfont; src: url("//at.alicdn.com/t/font_1031158_u69w8yhxdu.woff2?t=1630033759944") format("woff2"), url("//at.alicdn.com/t/font_1031158_u69w8yhxdu.woff?t=1630033759944") format("woff"), url("//at.alicdn.com/t/font_1031158_u69w8yhxdu.ttf?t=1630033759944") format("truetype"); }
</style></defs><path d="M211.237 668.379l0.021 0.088c-0.348-1.176-12.886-46.806-15.812-59.316-9.277-39.67-11.23-73.385-4.82-117.143 4.715-32.187 15.119-61.48 31.216-90.06 13.033-23.14 29.175-45.062 51.952-71.778l2.516-2.938c10.315-11.968 43.755-49.473 49.616-56.197 36.709-42.121 48.975-104 35.917-186.695-1.292-8.183 4.294-15.864 12.477-17.156 8.183-1.293 15.864 4.294 17.156 12.476 14.33 90.75 0.312 161.463-42.934 211.085l-2.994 3.406c-10.473 11.863-38.782 43.65-47.07 53.313l-1.795 2.099c-21.658 25.4-36.76 45.903-48.702 67.107-14.345 25.468-23.51 51.274-27.672 79.686-5.774 39.422-4.142 69.15 4.07 104.761l0.46 1.97c2.128 8.882 8.399 32.06 12.257 46.186l3.155 11.478 0.5 1.893c3.727 14.187 6.787 27.06 9.522 40.43l0.37 1.826c11.928 59.154 11.928 138.397 0.194 237.996-0.97 8.227-8.425 14.111-16.653 13.142-8.227-0.97-14.11-8.425-13.141-16.652 11.395-96.722 11.395-172.997 0.192-228.557-2.822-13.997-6.008-27.38-9.998-42.45zM841.996 816.679l-4.173-47.195-0.465-5.097-0.34-3.64c-1.808-19.263-3.571-36.114-5.55-52.6-5.24-43.64-11.794-82.608-20.668-119.993-9.357-39.424-20.283-77.465-32.966-115.894l-1.195-3.604c-10.848-32.608-17.91-51.866-36.784-101.261l-6.1-15.956c-14.36-37.675-20.457-55.308-24.532-72.386-9.437-39.552-9.437-105.417-0.338-198.512 0.806-8.245 8.143-14.276 16.388-13.47 8.245 0.806 14.275 8.143 13.47 16.388-8.708 89.1-8.795 151.918-0.59 187.56l0.251 1.072c3.71 15.546 9.675 32.729 23.887 69.98l6.714 17.563c17.416 45.61 24.66 65.34 34.726 95.432l1.374 4.12c13.46 40.458 25.02 80.483 34.884 122.04 8.998 37.909 15.658 77.224 20.976 120.955l0.289 2.39c2.013 16.767 3.802 33.864 5.632 53.361l0.732 7.932 4.276 48.328 0.156 1.757c5.999 66.91 11.012 97.923 20.785 118.843 3.507 7.506 0.265 16.433-7.241 19.939-7.506 3.506-16.433 0.264-19.94-7.241-6.455-13.82-11.156-31.449-14.928-54.374l-0.362-2.236c-2.763-17.316-4.897-36.153-7.547-65.102l-0.821-9.099zM461.204 686.653c7.425-3.676 16.423-0.636 20.098 6.788l2.489 5.004c15.613 31.245 28.404 53.971 38.207 67.988 12.503 17.878 24.631 34.558 38.026 52.441l5.407 7.19c8.14 10.768 26.92 35.419 31.31 41.255l2.9 3.872c21.624 28.996 32.482 46.312 39.47 64.594 2.958 7.739-0.918 16.41-8.656 19.367-7.636 2.919-16.181-0.817-19.247-8.352l-0.484-1.244c-5.913-15.052-15.98-30.854-36.53-58.3l-4.098-5.435c-7.5-9.897-24.713-32.498-30.52-40.215-15.008-19.946-28.355-38.237-42.162-57.979l-0.693-0.996c-11.253-16.295-25.295-41.518-42.305-75.88-3.675-7.425-0.636-16.423 6.788-20.098z" p-id="9154" fill="#ee5313"></path><path d="M527.424 787.072c7.5 3.25 11.001 11.89 7.93 19.422l-0.22 0.518-1.248 2.825c-0.428 0.963-0.9 2.014-1.412 3.15l-1.261 2.78a909.967 909.967 0 0 1-6.177 13.253c-7.888 16.586-16.344 33.18-25.054 48.72-9.24 16.487-18.245 30.842-26.9 42.51-6.288 8.477-12.352 15.483-18.26 20.913-6.098 5.606-15.587 5.207-21.194-0.892-5.525-6.01-5.217-15.314 0.63-20.948l0.262-0.246c4.346-3.995 9.221-9.627 14.468-16.7 7.794-10.508 16.157-23.84 24.824-39.304 8.349-14.896 16.51-30.914 24.132-46.939l0.99-2.085a855.321 855.321 0 0 0 5.798-12.524l1.744-3.882 1.222-2.77c3.293-7.601 12.125-11.094 19.726-7.8zM713.745 185.618l6.716 29.239c-114.619 26.326-226.564 26.59-335.66 0.751l-3.304-0.79 7.05-29.16c104.505 25.269 211.732 25.522 321.86 0.72l3.338-0.76z" p-id="9155" fill="#ee5313"></path><path d="M245.064 259.976c7.192-4.111 16.355-1.613 20.466 5.58 4.055 7.095 1.679 16.108-5.291 20.297l-0.29 0.169c-44.063 25.183-84.03 74.357-101.136 118.571-2.99 7.727-11.676 11.567-19.402 8.577-7.726-2.989-11.566-11.675-8.577-19.401 19.495-50.39 63.907-105.033 114.23-133.793z" p-id="9156" fill="#ee5313"></path></svg>