<?xml version="1.0" standalone="no"?><!DOCTYPE svg PUBLIC "-//W3C//DTD SVG 1.1//EN" "http://www.w3.org/Graphics/SVG/1.1/DTD/svg11.dtd"><svg t="1649554547626" class="icon" viewBox="0 0 1024 1024" version="1.1" xmlns="http://www.w3.org/2000/svg" p-id="797" xmlns:xlink="http://www.w3.org/1999/xlink" width="256" height="256"><defs><style type="text/css">@font-face { font-family: feedback-iconfont; src: url("//at.alicdn.com/t/font_1031158_u69w8yhxdu.woff2?t=1630033759944") format("woff2"), url("//at.alicdn.com/t/font_1031158_u69w8yhxdu.woff?t=1630033759944") format("woff"), url("//at.alicdn.com/t/font_1031158_u69w8yhxdu.ttf?t=1630033759944") format("truetype"); }
</style></defs><path d="M744.979692 19.416615H279.04C135.699692 19.416615 19.416615 135.699692 19.416615 279.04v465.959385c0 143.340308 116.283077 259.603692 259.603693 259.603692h465.959384c143.340308 0 259.603692-116.263385 259.603693-259.603692V279.04C1004.583385 135.699692 888.32 19.416615 744.96 19.416615z m-379.273846 704.886154a48.443077 48.443077 0 0 1-48.305231 48.718769 48.541538 48.541538 0 0 1-48.718769-48.718769v-133.986461c0-27.057231 21.661538-48.718769 48.718769-48.71877a48.443077 48.443077 0 0 1 48.305231 48.71877v133.986461z m195.032616 0c0 27.057231-21.661538 48.718769-48.738462 48.718769a48.541538 48.541538 0 0 1-48.738462-48.718769V299.697231c0-27.057231 21.661538-48.718769 48.738462-48.718769 27.057231 0 48.738462 21.661538 48.738462 48.718769v424.605538z m194.579692 0c0 27.057231-21.661538 48.718769-48.718769 48.718769a48.443077 48.443077 0 0 1-48.305231-48.718769V456.349538a48.443077 48.443077 0 0 1 48.305231-48.738461c27.057231 0 48.718769 21.661538 48.718769 48.738461V724.283077z" fill="#1296db" p-id="798"></path></svg>