<?xml version="1.0" standalone="no"?><!DOCTYPE svg PUBLIC "-//W3C//DTD SVG 1.1//EN" "http://www.w3.org/Graphics/SVG/1.1/DTD/svg11.dtd"><svg t="1649666407323" class="icon" viewBox="0 0 1024 1024" version="1.1" xmlns="http://www.w3.org/2000/svg" p-id="18293" xmlns:xlink="http://www.w3.org/1999/xlink" width="256" height="256"><defs><style type="text/css">@font-face { font-family: feedback-iconfont; src: url("//at.alicdn.com/t/font_1031158_u69w8yhxdu.woff2?t=1630033759944") format("woff2"), url("//at.alicdn.com/t/font_1031158_u69w8yhxdu.woff?t=1630033759944") format("woff"), url("//at.alicdn.com/t/font_1031158_u69w8yhxdu.ttf?t=1630033759944") format("truetype"); }
</style></defs><path d="M532.927868 516.369893m-441.890822 0a441.890822 441.890822 0 1 0 883.781643 0 441.890822 441.890822 0 1 0-883.781643 0Z" fill="#7BE37E" p-id="18294"></path><path d="M531.647073 521.546441m-339.262988 0a339.262988 339.262988 0 1 0 678.525975 0 339.262988 339.262988 0 1 0-678.525975 0Z" fill="#6DC970" opacity=".6" p-id="18295"></path><path d="M541.121674 502.281144m-213.260639 0a213.260639 213.260639 0 1 0 426.521278 0 213.260639 213.260639 0 1 0-426.521278 0Z" fill="#65BA68" opacity=".6" p-id="18296"></path><path d="M419.963359 412.247798c0-33.867185 21.89257-44.589741 48.649698-23.830183l177.106905 137.414564c26.765339 20.767768 26.289146 54.121814-1.034488 74.117822l-175.033823 128.124693c-27.32774 20.004217-49.688292 8.657684-49.688292-25.209501v-290.617395z" fill="#FFFFFF" opacity=".15" p-id="18297"></path><path d="M444.524252 758.481268c-22.442655 0-45.08646-17.19632-45.08646-55.616075v-290.617395c0-37.955878 22.040354-54.942837 43.883662-54.942837 12.389232 0 25.131504 5.012343 37.873775 14.893351l177.111011 137.414565c17.890084 13.883493 27.988663 33.514145 27.70541 53.850877-0.283253 20.340837-10.927812 39.671815-29.199671 53.046274l-175.033823 128.120588c-12.553437 9.191349-25.086348 13.850652-37.253904 13.850652z m-0.665029-41.108605c0.01642 0 0.225781 0.057472 0.665029 0.057472 1.153537 0 5.500852-0.426932 13.000894-5.915468l175.037928-128.124693c7.894133-5.775894 12.294814-13.058366 12.401547-20.496831s-4.092798-14.84409-11.826831-20.841661l-177.106905-137.414564c-5.97294-4.634673-10.578877-6.276718-12.709431-6.276718h-0.012316c-0.90723 1.116591-2.820213 5.24223-2.820213 13.891703v290.617395c0 10.090369 2.692954 14.055908 3.370298 14.503365z" fill="#666666" opacity=".15" p-id="18298"></path><path d="M537.156135 981.700912c-259.902937 0-471.34501-211.446179-471.34501-471.34501C65.811125 250.44886 277.253198 38.998577 537.156135 38.998577c141.642831 0 274.484299 62.853391 364.464278 172.443496a20.529672 20.529672 0 0 1-2.836633 28.887683 20.533777 20.533777 0 0 1-28.887683-2.836633C787.740464 137.43509 666.4631 80.04971 537.156135 80.04971 299.888793 80.04971 106.862258 273.08035 106.862258 510.351797c0 237.267341 193.026535 430.293876 430.293877 430.293876 149.023825 0 285.366955-75.464299 364.7229-201.860738a20.517357 20.517357 0 0 1 28.296547-6.469659 20.521462 20.521462 0 0 1 6.469658 28.296546c-86.917565 138.440843-236.253379 221.08909-399.489105 221.08909z" fill="#6E6E96" p-id="18299"></path><path d="M413.805689 365.038995c0-33.867185 21.89257-44.589741 48.649698-23.830183l177.106905 137.414564c26.765339 20.763663 26.289146 54.121814-1.034488 74.117821l-175.033823 128.124693c-27.32774 20.004217-49.688292 8.657684-49.688292-25.209501V365.038995z" fill="#FFFFFF" p-id="18300"></path><path d="M438.366582 711.272465c-22.442655 0-45.08646-17.19632-45.08646-55.616076V365.038995c0-37.955878 22.040354-54.942837 43.883662-54.942838 12.389232 0 25.131504 5.012343 37.873775 14.893352l177.111011 137.414564c17.890084 13.879388 27.988663 33.51004 27.70541 53.850877-0.283253 20.336732-10.927812 39.671815-29.199671 53.046275l-175.033824 128.120587c-12.553437 9.191349-25.086348 13.850652-37.253903 13.850653z m-0.665029-41.108605c0.01642 0 0.225781 0.057472 0.665029 0.057471 1.153537 0 5.500852-0.426932 13.000894-5.915468l175.037928-128.124693c7.894133-5.775894 12.294814-13.058366 12.401547-20.496831 0.102628-7.442571-4.092798-14.84409-11.822726-20.84166l-177.11101-137.414565c-5.97294-4.634673-10.578877-6.276718-12.709431-6.276718h-0.012316c-0.90723 1.116591-2.820213 5.24223-2.820213 13.891704v290.617394c0 10.090369 2.692954 14.055908 3.370298 14.503366z" fill="#666666" p-id="18301"></path><path d="M533.133124 1017.85054C273.234292 1017.85054 61.792219 806.404362 61.792219 546.50553c0-259.902937 211.442073-471.35322 471.340905-471.35322 141.638726 0 274.484299 62.853391 364.468383 172.443497 7.192159 8.760312 5.919573 21.695524-2.836633 28.887682s-21.699629 5.919573-28.887683-2.836633c-82.159739-100.058033-203.437102-157.443412-332.744067-157.443412C295.869887 116.203444 102.843352 309.238189 102.843352 546.50553c0 237.267341 193.026535 430.293876 430.289772 430.293877 149.023825 0 285.37106-75.460194 364.7229-201.856634a20.517357 20.517357 0 0 1 28.296547-6.469659 20.521462 20.521462 0 0 1 6.469658 28.296547c-86.909355 138.432632-236.249273 221.08088-399.489105 221.080879z" fill="#666666" opacity=".15" p-id="18302"></path><path d="M874.272148 538.837179a20.525567 20.525567 0 0 1-20.525567-20.525567c0-110.677961-55.345138-213.022542-148.050913-273.77001a20.521462 20.521462 0 0 1-5.915468-28.415594 20.517357 20.517357 0 0 1 28.415595-5.919574c104.323246 68.362453 166.606025 183.539618 166.606025 308.105178a20.529672 20.529672 0 0 1-20.529672 20.525567z" fill="#FFFFFF" opacity=".54" p-id="18303"></path></svg>