<?xml version="1.0" standalone="no"?><!DOCTYPE svg PUBLIC "-//W3C//DTD SVG 1.1//EN" "http://www.w3.org/Graphics/SVG/1.1/DTD/svg11.dtd"><svg t="1649923592145" class="icon" viewBox="0 0 1024 1024" version="1.1" xmlns="http://www.w3.org/2000/svg" p-id="51433" xmlns:xlink="http://www.w3.org/1999/xlink" width="48" height="48"><defs><style type="text/css">@font-face { font-family: feedback-iconfont; src: url("//at.alicdn.com/t/font_1031158_u69w8yhxdu.woff2?t=1630033759944") format("woff2"), url("//at.alicdn.com/t/font_1031158_u69w8yhxdu.woff?t=1630033759944") format("woff"), url("//at.alicdn.com/t/font_1031158_u69w8yhxdu.ttf?t=1630033759944") format("truetype"); }
</style></defs><path d="M888.089996 1005.408209l-31.470157-96.958349a183.910486 183.910486 0 0 1-34.234219 3.211871 184.373737 184.373737 0 0 1-107.813855-34.666587 183.75607 183.75607 0 0 1-68.314022-93.422203 185.516422 185.516422 0 0 1 118.900987-233.493742 185.68628 185.68628 0 0 1 57.304098-9.095153 184.543596 184.543596 0 0 1 107.875622 34.666586 183.75607 183.75607 0 0 1 68.344905 93.422203 185.145821 185.145821 0 0 1-5.172965 128.474832 185.300238 185.300238 0 0 1-86.010194 93.422204l31.763549 97.807642a26.575143 26.575143 0 0 1-1.65226 20.583768 26.544259 26.544259 0 0 1-15.626987 13.279851 26.636909 26.636909 0 0 1-8.369394 1.358868 26.899418 26.899418 0 0 1-25.525108-18.591791zM680.183129 725.774708a139.145037 139.145037 0 0 0 138.975178 138.975179 139.160479 139.160479 0 0 0 138.975179-138.975179 139.129596 139.129596 0 0 0-138.975179-138.975178 139.114154 139.114154 0 0 0-138.975178 138.975178zM77.957354 1014.395271a61.766746 61.766746 0 0 1-61.766746-61.766746V61.782188a61.766746 61.766746 0 0 1 61.766746-61.766746h675.666436a61.843955 61.843955 0 0 1 61.766746 61.766746v430.050969a229.108303 229.108303 0 0 0-162.940676 67.603704 228.953886 228.953886 0 0 0-67.603704 162.940676 230.791447 230.791447 0 0 0 230.559822 230.513497 61.905721 61.905721 0 0 1-61.766746 61.488795z m76.559882-691.602256a30.790723 30.790723 0 0 0 30.75984 30.728956h245.877974a30.790723 30.790723 0 0 0 30.75984-30.728956 30.790723 30.790723 0 0 0-30.75984-30.75984H185.277076a30.883373 30.883373 0 0 0-30.775282 30.713515z m0-153.706548a30.775281 30.775281 0 0 0 30.75984 30.728957h461.073318a30.744398 30.744398 0 0 0 30.728956-30.728957 30.775281 30.775281 0 0 0-30.728956-30.759839H185.277076a30.883373 30.883373 0 0 0-30.775282 30.759839z" p-id="51434"></path></svg>