<?xml version="1.0" standalone="no"?><!DOCTYPE svg PUBLIC "-//W3C//DTD SVG 1.1//EN" "http://www.w3.org/Graphics/SVG/1.1/DTD/svg11.dtd"><svg t="1649576214251" class="icon" viewBox="0 0 1024 1024" version="1.1" xmlns="http://www.w3.org/2000/svg" p-id="4251" xmlns:xlink="http://www.w3.org/1999/xlink" width="256" height="256"><defs><style type="text/css">@font-face { font-family: feedback-iconfont; src: url("//at.alicdn.com/t/font_1031158_u69w8yhxdu.woff2?t=1630033759944") format("woff2"), url("//at.alicdn.com/t/font_1031158_u69w8yhxdu.woff?t=1630033759944") format("woff"), url("//at.alicdn.com/t/font_1031158_u69w8yhxdu.ttf?t=1630033759944") format("truetype"); }
</style></defs><path d="M571.718809 639.092199a34.525504 34.525504 0 0 1-14.379575-58.535036 169.214184 169.214184 0 0 0 46.479433-118.086808c0-70.44539-44.431433-113.438865-99.248114-113.438866s-99.233589 42.993475-99.233588 113.438866a169.809702 169.809702 0 0 0 46.203461 117.796312h-0.174298a34.496454 34.496454 0 0 1-14.408624 58.825532c-92.261674 17.865532-138.537759 68.84766-138.537759 106.902695 0 47.060426 80.888738 56.792057 206.150808 56.792056s206.179858-9.731631 206.179858-56.792056c0-38.200284-46.537532-89.182411-139.031602-106.902695z m304.077163 384.762553h-727.693617a72.159319 72.159319 0 0 1-72.014071-72.043121V180.979291A72.159319 72.159319 0 0 1 148.102355 108.93617h77.983773l-15.004142 88.165674H164.137759v738.587234h695.680908V197.101844h-48.454809l-13.49356-88.165674h77.925674a72.144794 72.144794 0 0 1 71.999546 72.043121v770.83234a72.144794 72.144794 0 0 1-71.999546 72.043121zM456.362667 0.145248a40.451631 40.451631 0 0 0-37.28522 29.049646l-12.491348 30.211631a40.495206 40.495206 0 0 1-37.299744 29.049645h-39.623717a40.495206 40.495206 0 0 0-37.328794 29.194894l-15.439887 92.668369a22.310128 22.310128 0 0 0 22.731348 29.049645h420.348369a22.339177 22.339177 0 0 0 22.760397-29.049645L727.27966 117.651064a40.495206 40.495206 0 0 0-37.31427-29.194894h-39.667291a40.553305 40.553305 0 0 1-37.328794-29.049645l-12.462298-30.211631a40.50973 40.50973 0 0 0-37.314269-29.049646h-106.801022z" fill="#1296db" p-id="4252"></path></svg>