<?xml version="1.0" standalone="no"?><!DOCTYPE svg PUBLIC "-//W3C//DTD SVG 1.1//EN" "http://www.w3.org/Graphics/SVG/1.1/DTD/svg11.dtd"><svg t="1649576005547" class="icon" viewBox="0 0 1024 1024" version="1.1" xmlns="http://www.w3.org/2000/svg" p-id="4611" xmlns:xlink="http://www.w3.org/1999/xlink" width="256" height="256"><defs><style type="text/css">@font-face { font-family: feedback-iconfont; src: url("//at.alicdn.com/t/font_1031158_u69w8yhxdu.woff2?t=1630033759944") format("woff2"), url("//at.alicdn.com/t/font_1031158_u69w8yhxdu.woff?t=1630033759944") format("woff"), url("//at.alicdn.com/t/font_1031158_u69w8yhxdu.ttf?t=1630033759944") format("truetype"); }
</style></defs><path d="M400.26656 319.830837a106.911013 106.911013 0 1 0-106.459911-107.362115 106.911013 106.911013 0 0 0 106.459911 107.362115z m496.211454-319.379736h-97.888987a21.427313 21.427313 0 0 0 0 42.854626h76.687225v202.093392H822.948499a21.427313 21.427313 0 0 0 0 42.854625h51.876652v202.544494H822.948499a21.427313 21.427313 0 0 0 0 42.854625h51.876652v202.093393H822.948499a21.427313 21.427313 0 0 0 0 42.854625h51.876652v202.544493h-76.687225a21.427313 21.427313 0 0 0 0 42.854626h97.888987a21.201762 21.201762 0 0 0 21.201762-21.201762V21.652863a21.201762 21.201762 0 0 0-21.201762-21.201762z m-342.837004 396.969163a149.765639 149.765639 0 0 0-111.422027-49.621145H357.863036a149.765639 149.765639 0 0 0-111.422026 49.621145l-135.330397 151.570044a19.397357 19.397357 0 0 0 0 26.163877l45.110132 45.110132a18.044053 18.044053 0 0 0 13.984141 5.413216 18.946256 18.946256 0 0 0 13.53304-6.315418l97.437886-112.32423v496.211454a18.946256 18.946256 0 0 0 18.946255 18.946256H367.336164a18.946256 18.946256 0 0 0 18.946255-18.946256v-288.704846h27.517181v288.704846a18.946256 18.946256 0 0 0 18.946256 18.946256H498.155547a18.946256 18.946256 0 0 0 18.946256-18.946256v-496.211454l97.437885 112.32423a18.946256 18.946256 0 0 0 13.53304 6.315418 18.495154 18.495154 0 0 0 13.984141-5.413216l45.110132-45.110132a19.397357 19.397357 0 0 0 0-26.163877z" fill="#1296db" p-id="4612"></path></svg>