<svg width="1080" height="1080" viewBox="0 0 1080 1080" fill="none" xmlns="http://www.w3.org/2000/svg">
<rect width="1080" height="1080" fill="white"/>
<path d="M111 850L1007.5 859L1030 995H43L111 850Z" fill="#DADADA"/>
<path d="M438 124C438 118.8 441.333 117.833 443 118C444.5 128.167 448 150.7 450 159.5C452 168.3 442.5 384.167 437.5 491C419.333 483.5 382.9 468 382.5 466C382 463.5 395.5 432 398.5 424C401.5 416 440 184.5 440.5 177.5C441 170.5 438 130.5 438 124Z" fill="#FFF4EC" stroke="black"/>
<path d="M199.5 618.5C217 582.5 318.5 603 403.5 628C416.167 637.5 449.2 649.5 480 621.5C497.358 621.661 533.966 634.252 546.24 682.5C562.961 687.77 611.732 715.632 674.257 785C707.004 784.667 797.7 799.1 898.5 853.5C900 860 900.5 876.2 890.5 895C753.5 873.5 691.255 854.465 671 853.5C643.494 852.19 492.087 768.152 427.5 720.229C395.774 722.164 304.886 693.789 259 678.053C266 711.503 249.5 805.501 244 849.5C226.5 856.5 211.833 854 208 849.5C196 807.5 182 654.5 199.5 618.5Z" fill="#504D4D"/>
<path d="M259 678.051C266 711.5 249.5 805.5 244 849.5C226.5 856.5 211.833 854 208 849.5C196 807.5 182 654.5 199.5 618.5C217 582.5 318.5 603 403.5 628C416.167 637.5 449.2 649.5 480 621.5C497.358 621.661 533.966 634.252 546.24 682.5M254.5 676.5C298.667 691.833 394.7 722.229 427.5 720.229M548 690C547.615 688.117 546.694 684.284 546.24 682.5M546.24 682.5C562.961 687.77 611.732 715.632 674.257 785M676.5 787.5C675.75 786.661 675.002 785.828 674.257 785M674.257 785C707.004 784.667 797.7 799.1 898.5 853.5C900 860 900.5 876.2 890.5 895C753.5 873.5 691.255 854.465 671 853.5C639.5 852 445.5 742 405.5 702" stroke="black"/>
<path d="M377 337.5C374.6 335.1 380.667 326.5 384 322.5C384 328.1 385.333 336.5 386 340C384 340.167 379.4 339.9 377 337.5Z" stroke="black"/>
<path d="M381 302.5C384.2 274.9 414 267.333 428.5 267C426.5 275.8 425.333 298 425 308C412.6 315.2 390.5 307.333 381 302.5Z" fill="#ED4F39" stroke="#ED4F39"/>
<path d="M511 293C491.976 251.147 477.667 258.333 467 267L463 324.5C463 327 468.8 354 472 360C476 367.5 485.5 373 494 382.5C502.5 392 499.5 427.5 515.5 443.5C540.3 468.3 560 421.5 539.5 408.5C541 371.5 519 364 511 346C503 328 521 315 511 293Z" fill="#ED4F39" stroke="#ED4F39"/>
<path d="M412.5 367.628C382.098 361.185 382.084 323.774 386 305.5C395.243 308.833 415.907 313.9 424.615 307.5C424.892 303.68 425.187 299.844 425.5 296C429.859 242.5 442 201 444 174C444 161 440 113 444 112.5C447.2 112.1 447 126.5 448 133C449 123.667 450.3 103.6 453.5 104C456.7 104.4 455 122.5 455 131C458 124.5 457.9 102 461.5 102C466 102 462.5 131.5 464 131.5C465 131.5 468 107.5 471.5 108.5C475.608 109.674 469 150 471.5 151.5C474 153 476 131.5 484.5 133C486.509 133.354 479 145.5 479 154C479 170.444 471.833 177.5 469 179C470.2 209.8 465.833 289.167 463.5 325C477.5 382.5 495.5 457.5 495.5 474V526C437.5 553.2 421.333 502.667 420.5 474V451.5C420.5 451.5 420.49 450.997 420.476 450.03C389.998 487.489 386 466.998 384.5 461C383 455 416.5 424 416.5 406C416.5 391.6 413.833 374.419 412.5 367.628Z" fill="#FFF4EC"/>
<path d="M414.5 368C413.819 367.891 413.153 367.767 412.5 367.628M412.5 367.628C382.098 361.185 382.084 323.774 386 305.5C395.243 308.833 415.907 313.9 424.615 307.5M412.5 367.628C413.833 374.419 416.5 391.6 416.5 406C416.5 424 383 455 384.5 461C386 467 390 487.5 420.5 450V451.5M420.5 451.5V474C421.333 502.667 437.5 553.2 495.5 526C495.5 514.167 495.5 487.2 495.5 474C495.5 457.5 477.5 382.5 463.5 325C465.833 289.167 470.2 209.8 469 179C471.833 177.5 479 170.444 479 154C479 145.5 486.509 133.354 484.5 133C476 131.5 474 153 471.5 151.5C469 150 475.608 109.674 471.5 108.5C468 107.5 465 131.5 464 131.5C462.5 131.5 466 102 461.5 102C457.9 102 458 124.5 455 131C455 122.5 456.7 104.4 453.5 104C450.3 103.6 449 123.667 448 133C447 126.5 447.2 112.1 444 112.5C440 113 444 161 444 174C442 201 429.859 242.5 425.5 296C425.187 299.844 424.892 303.68 424.615 307.5M420.5 451.5C420.5 451.5 419.163 382.658 424.615 307.5" stroke="black"/>
<path d="M391 353C393.5 353.833 399.5 354.4 403.5 350" stroke="black"/>
<circle cx="393.5" cy="322.5" r="2" fill="black" stroke="black"/>
<path d="M388.934 539.5C357.924 508.839 376.89 467.554 390.5 450.5C374 480 406.5 469 420 450.5C413 543 468.5 538.833 496 525.5C494.4 553.5 484.667 601.167 480 621.5C452.4 649.1 416.833 637.333 402.5 628C388.9 607.2 387.789 560.333 388.934 539.5Z" fill="#ED4F39"/>
<path d="M394.5 544.5C393.964 544.003 389.442 540.003 388.934 539.5M388.934 539.5C357.924 508.839 376.89 467.554 390.5 450.5C374 480 406.5 469 420 450.5C413 543 468.5 538.833 496 525.5C494.4 553.5 484.667 601.167 480 621.5C452.4 649.1 416.833 637.333 402.5 628C388.9 607.2 387.789 560.333 388.934 539.5Z" stroke="black" stroke-linecap="round" stroke-linejoin="round"/>
<path d="M404 538.5C407.333 540 415.6 541.9 422 537.5" stroke="black" stroke-linecap="round"/>
<path d="M448.5 448C449.167 454.5 450.9 468.1 452.5 470.5" stroke="black" stroke-linecap="round"/>
<path d="M204 874C208.8 868 209 855.833 208.5 850.5C219.7 858.1 236.5 853.667 243.5 850.5C239.5 862.5 240.5 876.5 241.5 882C216.3 890.8 206 880.333 204 874Z" fill="#FFF4EC" stroke="black"/>
<path d="M945.5 866C922.7 867.6 904.667 858.333 898.5 853.5C902.9 863.5 895.333 884.667 891 894C904.6 895.2 920 901.5 926 904.5C944 902.1 946.5 877.833 945.5 866Z" fill="#FFF4EC" stroke="black"/>
<path d="M172 920.5C97.493 912.657 168 876.5 204.5 874C207.7 888.4 231.167 885.333 242.5 882C265.5 906 210 924.5 172 920.5Z" fill="#ED4F39" stroke="black"/>
<path d="M175.5 881C178 883.167 183.3 888.6 184.5 893" stroke="black" stroke-linecap="round"/>
<path d="M916.5 923C919.3 921.8 924 909.833 926 904C952.5 896 943.5 865.5 946 865.5C948 865.5 956.5 862 964 865.5C985 889.5 956.5 919.5 943.5 935.5C879.5 958 894 923 916.5 923Z" fill="#ED4F39" stroke="black"/>
<path d="M185 878C187.5 880.167 192.8 885.6 194 890" stroke="black" stroke-linecap="round"/>
<path d="M193 876C195.5 878.167 200.8 883.6 202 888" stroke="black" stroke-linecap="round"/>
<path d="M916.5 923C918 924.333 922.2 927.3 927 928.5" stroke="black" stroke-linecap="round"/>
<path d="M921 916.5C923.5 917.5 929.3 919.8 932.5 921" stroke="black" stroke-linecap="round"/>
<path d="M923.5 910C927.167 910.167 934.9 911.2 936.5 914" stroke="black" stroke-linecap="round"/>
</svg>
