<svg width="1080" height="1080" viewBox="0 0 1080 1080" fill="none" xmlns="http://www.w3.org/2000/svg">
<g clip-path="url(#clip0)">
<rect width="1080" height="1080" fill="white"/>
<path d="M353 705C342.6 666.6 359.5 637 378 593.5C387.167 608.5 415.1 637.5 453.5 633.5C445.692 642.833 429.668 662.2 428.038 665C447.314 694.759 483.018 851.448 484 876C484.8 896 496 938.667 501.5 957.5C481.9 984.7 463.667 978.167 457 971.5C456.667 967.5 455.4 954.9 453 936.5C450 913.5 366 753 353 705Z" fill="#FFF4EC"/>
<path d="M427 663.5C427.34 663.957 427.686 664.457 428.038 665M428.038 665C447.314 694.759 483.018 851.448 484 876C484.8 896 496 938.667 501.5 957.5C481.9 984.7 463.667 978.167 457 971.5C456.667 967.5 455.4 954.9 453 936.5C450 913.5 366 753 353 705C342.6 666.6 359.5 637 378 593.5C387.167 608.5 415.1 637.5 453.5 633.5C445.692 642.833 429.668 662.2 428.038 665Z" stroke="black"/>
<path d="M512 724C512 718 518 669.833 521 646.5C552.2 670.9 597 656.667 615.5 646.5C615 654.5 579.793 724 590 761C602 804.5 579 895 576.5 920C574.5 940 573 983.333 572.5 1002.5C544.9 1019.3 530 1006.83 526 998.5C523 976 512 731.5 512 724Z" fill="#FFF4EC" stroke="black"/>
<ellipse cx="241" cy="285.5" rx="28" ry="35.5" fill="#DADADA"/>
<path d="M272.5 285.5C272.5 302.735 261.429 316.5 248 316.5C234.571 316.5 223.5 302.735 223.5 285.5C223.5 268.265 234.571 254.5 248 254.5C261.429 254.5 272.5 268.265 272.5 285.5Z" fill="#DADADA" stroke="white"/>
<path d="M250.5 275H268.5L266 291.5H248C242.5 284.5 245 276 250.5 275Z" fill="#C4C4C4"/>
<path d="M457.5 457.5C460.3 455.5 472 433 477.5 422C501 441.5 559.2 468 604 418C606.833 423.833 614.9 438.7 624.5 451.5C636.5 467.5 645.269 495.925 632 560.5C624.5 597 621.5 637 616.5 646.5C597.5 656.833 551.6 671.3 520 646.5C518.086 626.725 516.742 588.355 516.954 556.722C502.554 588.722 467.833 622.5 453 633.5C414.2 635.5 386.5 607.333 377.5 593C400 522.5 454 460 457.5 457.5Z" fill="#504D4D"/>
<path d="M516.954 556.722C502.554 588.722 467.833 622.5 453 633.5C414.2 635.5 386.5 607.333 377.5 593C400 522.5 454 460 457.5 457.5C460.3 455.5 472 433 477.5 422C501 441.5 559.2 468 604 418C606.833 423.833 614.9 438.7 624.5 451.5C636.5 467.5 645.269 495.925 632 560.5C624.5 597 621.5 637 616.5 646.5C597.5 656.833 551.6 671.3 520 646.5C517 615.5 515.4 538.8 519 514" stroke="black"/>
<path d="M593.5 53.0002C565.5 32.0002 544.333 47.0001 528 77.0001C541.167 91.3334 566.6 128.3 563 161.5C559.4 194.7 586.167 210.333 600 214C602.5 224.5 606 231 623 231C662.006 231 657 204 636.5 194C639 182.5 648 144.5 614 120C606.917 94.1806 612.482 67.2367 593.5 53.0002Z" fill="#ED4F39" stroke="#ED4F39"/>
<path d="M480.5 132.5C474.9 116.9 486.833 100 493.5 93.5C561 33 594 157.5 556 165C553.518 165.49 551.167 156 550 150.5C572.507 135.5 546 121 540 142C539.6 138 536.833 132 535.5 129.5C513.1 141.5 489.5 136.5 480.5 132.5Z" fill="#ED4F39" stroke="#ED4F39"/>
<ellipse cx="689" cy="593.5" rx="25" ry="31.5" fill="#DADADA"/>
<ellipse cx="596" cy="631.5" rx="28" ry="35.5" fill="#DADADA"/>
<path d="M707.5 595.5C707.5 614.947 695.084 630.5 680 630.5C664.916 630.5 652.5 614.947 652.5 595.5C652.5 576.053 664.916 560.5 680 560.5C695.084 560.5 707.5 576.053 707.5 595.5Z" fill="#DADADA" stroke="white"/>
<path d="M613.5 633.5C613.5 650.735 602.429 664.5 589 664.5C575.571 664.5 564.5 650.735 564.5 633.5C564.5 616.265 575.571 602.5 589 602.5C602.429 602.5 613.5 616.265 613.5 633.5Z" fill="#DADADA" stroke="white"/>
<path d="M672 580.5L615 607C620.6 612.6 623 620.667 623.5 625.5L677.5 603C685 589 680 582.833 672 580.5Z" fill="#C4C4C4"/>
<path d="M510.5 189.001C487.448 188.426 481.783 155.48 482.5 133C492.5 138 514.5 140 536 129.5C537.333 132.333 540 137.4 540 141C548 121.5 571.5 135 550 151C550.5 155.833 552.2 165.4 555 165C557.8 164.6 559.833 164.167 560.5 164C557.167 180.833 559.9 217.5 597.5 229.5C644.5 244.5 644.5 276.5 644 303C645.8 323.545 651.178 385.889 650 417.5C655.982 429 664.3 461.9 659.5 569.5C664.667 582.833 671.9 611.6 659.5 620C644 630.5 624.5 635 623 608C625.51 606.745 630.558 603.689 631.811 601C631.26 601.4 622.707 604.167 618.5 605.5C618.5 584.5 628.593 582.5 632 569.5C626 531.1 617.946 460.5 614.946 430C611.346 418.402 601.003 334.856 597.501 303.013C597.884 306.533 596.002 319.53 597.5 343.5C599.125 369.495 599.5 403.5 603.5 417.5C563.1 469.1 502.667 441.667 477.5 421.5C481.5 408.833 487.1 381.3 477.5 372.5C467.9 363.7 462.167 350.167 460.5 344.5C437.667 401.667 393.752 507.779 367.5 476C329.5 430 314.5 394.5 299 347.5C289.436 318.5 261.5 311 265 292.137C267.375 279.338 268.764 272.92 269.898 269.5C261.5 257 269.898 235 279 261.84C286.308 258.346 297.862 254.029 301.409 259.35C307.877 256.411 314.325 255.502 316.893 261C320.263 259.947 323.581 259.5 325 259.5C328 259.5 334.5 263.5 331 262.5C327.5 261.5 323.808 264.923 323 266C321.5 268 322.5 277 322 292.137C321.5 307.274 333 314 334.5 318C335.7 321.2 335.634 336.333 335.451 343.5C348.353 362.076 364.674 386.403 375.71 403C380.71 382.5 411.5 294 422 267C432.5 240 453.5 237 482.5 231.5C505.7 227.1 510.833 201.334 510.5 189.001Z" fill="#FFF4EC"/>
<path d="M546.5 172C531.355 184.433 519.579 189.227 510.5 189.001M510.5 189.001C487.448 188.426 481.783 155.48 482.5 133C492.5 138 514.5 140 536 129.5C537.333 132.333 540 137.4 540 141C548 121.5 571.5 135 550 151C550.5 155.833 552.2 165.4 555 165C557.8 164.6 559.833 164.167 560.5 164C557.167 180.833 559.9 217.5 597.5 229.5C644.5 244.5 644.5 276.5 644 303C645.8 323.545 651.178 385.889 650 417.5M510.5 189.001C510.833 201.334 505.7 227.1 482.5 231.5C453.5 237 432.5 240 422 267C411.5 294 380.71 382.5 375.71 403M383 414C373.254 399.234 351.655 366.832 335.451 343.5M329.5 335C331.37 337.645 333.366 340.497 335.451 343.5M649.446 427.5C649.686 424.373 649.869 421.022 650 417.5M650 417.5C655.982 429 664.3 461.9 659.5 569.5C664.667 582.833 671.9 611.6 659.5 620C644 630.5 624.5 635 623 608C625.51 606.745 630.558 603.689 631.811 601M632 600.5C631.953 600.665 631.889 600.832 631.811 601M631.811 601C631.26 601.4 622.707 604.167 618.5 605.5C618.5 584.5 628.593 582.5 632 569.5C626 531.1 617.946 460.5 614.946 430C611.346 418.4 601 334.833 597.5 303C597.889 306.5 596 319.5 597.5 343.5C599.125 369.495 599.5 403.5 603.5 417.5C563.1 469.1 502.667 441.667 477.5 421.5C481.5 408.833 487.1 381.3 477.5 372.5C467.9 363.7 462.167 350.167 460.5 344.5C437.667 401.667 393.752 507.779 367.5 476C329.5 430 314.5 394.5 299 347.5C289.436 318.5 261.5 311 265 292.137C267.375 279.338 268.764 272.92 269.898 269.5M301.409 259.35C297.862 254.029 286.308 258.346 279 261.84M335.451 343.5C335.634 336.333 335.7 321.2 334.5 318C333 314 321.5 307.274 322 292.137C322.5 277 321.5 268 323 266C323.808 264.923 327.5 261.5 331 262.5C334.5 263.5 328 259.5 325 259.5C323.581 259.5 320.263 259.947 316.893 261M308 267C309.318 264.101 313.137 262.174 316.893 261M288.5 267.5C296.096 261.333 312.408 251.4 316.893 261M269.898 269.5C270.957 266.304 271.792 265.725 273 265C273.726 264.564 276.007 263.271 279 261.84M269.898 269.5C261.5 257 269.898 235 279 261.84" stroke="black"/>
<path d="M471 293C475.8 281 479.333 247.333 480.5 232C486.9 232 493.5 227 496 224.5C502 309 528 378 573.5 215.5C575.1 218.7 583.167 222.833 587 224.5C559 314 603.5 323 601 332C599 339.2 599.167 372 599.5 387.5C564.3 412.3 507.167 400.833 483 392C484.5 379.5 474 368.5 471 365C446.502 336.419 465 308 471 293Z" fill="#ED4F39" stroke="black"/>
<path d="M532 366C538 369.667 553.2 374.2 566 363" stroke="black" stroke-linecap="round"/>
<path d="M500.5 148C498.833 153.333 496.2 164.3 499 165.5C501.8 166.7 507.5 166.667 510 166.5" stroke="black" stroke-linecap="round"/>
<path d="M510.5 177C513.333 176.667 519.8 174 523 166" stroke="black" stroke-linecap="round"/>
<circle cx="519.5" cy="147.5" r="2" fill="black" stroke="black"/>
<circle cx="491.5" cy="149.5" r="2" fill="black" stroke="black"/>
<path d="M537 1049.5C403.4 1078.3 474.333 1027.5 526.5 998.5C535.7 1017.3 561 1009.33 572.5 1003C572 1001.5 571.7 998.9 574.5 1000.5C578 1002.5 577.5 1029 571 1037C565.8 1043.4 546.167 1048 537 1049.5Z" fill="#ED4F39" stroke="black"/>
<path d="M446 996C454.761 980.668 455 971.167 457 969.5C473.4 987.9 503 963.5 501 954.5C506.833 959.833 517.8 974.8 515 992C512.2 1009.2 479.5 1032.33 464 1040C363 1067 436 1013.5 446 996Z" fill="#ED4F39" stroke="black"/>
<path d="M494 1018.5C495 1023 498.1 1032.5 502.5 1034.5" stroke="black" stroke-linecap="round"/>
<path d="M503 1013C504 1017.5 507.1 1027 511.5 1029" stroke="black" stroke-linecap="round"/>
<path d="M512 1008C513 1012.5 516.1 1022 520.5 1024" stroke="black" stroke-linecap="round"/>
<path d="M436 1008.5C438.333 1012.17 444.2 1019.4 449 1019" stroke="black" stroke-linecap="round"/>
<path d="M444 999C446.333 1002.67 452.2 1009.9 457 1009.5" stroke="black" stroke-linecap="round"/>
<path d="M450 990C452.333 993.667 458.2 1000.9 463 1000.5" stroke="black" stroke-linecap="round"/>
<ellipse cx="350" cy="285.5" rx="28" ry="35.5" fill="#DADADA"/>
<path d="M384.5 285.5C384.5 302.735 373.429 316.5 360 316.5C346.571 316.5 335.5 302.735 335.5 285.5C335.5 268.265 346.571 254.5 360 254.5C373.429 254.5 384.5 268.265 384.5 285.5Z" fill="#DADADA" stroke="white"/>
<path d="M544 146.5C544.833 144.333 547.4 140.4 551 142" stroke="black" stroke-linecap="round"/>
</g>
<defs>
<clipPath id="clip0">
<rect width="1080" height="1080" fill="white"/>
</clipPath>
</defs>
</svg>
