<svg xmlns:xlink="http://www.w3.org/1999/xlink" xmlns="http://www.w3.org/2000/svg" version="1.1" viewBox="0 0 184 206" height="206px" width="184px">
    <title>15.博客是我家</title>
    <defs>
        <linearGradient id="linearGradient-1" y2="17.2876616%" x2="23.6365672%" y1="87.3144849%" x1="74.4510804%">
            <stop offset="0%" stop-color="#5C77FF"></stop>
            <stop offset="100%" stop-color="#89D1FF"></stop>
        </linearGradient>
        <path id="path-2" d="M96.9205726,1.29437161 L178.920573,47.6421977 C182.059262,49.4162396 184,52.7424694 184,56.3478261 L184,148.678531 C184,152.283887 182.059262,155.610117 178.920573,157.384159 L96.9205726,203.731985 C93.8671831,205.457814 90.1328169,205.457814 87.0794274,203.731985 L5.07942743,157.384159 C1.94073784,155.610117 0,152.283887 0,148.678531 L0,56.3478261 C0,52.7424694 1.94073784,49.4162396 5.07942743,47.6421977 L87.0794274,1.29437161 C90.1328169,-0.431457204 93.8671831,-0.431457204 96.9205726,1.29437161 Z"></path>
        <filter id="filter-4" filterUnits="objectBoundingBox" height="190.0%" width="181.4%" y="-45.0%" x="-40.7%">
            <feGaussianBlur in="SourceGraphic" stdDeviation="22"></feGaussianBlur>
        </filter>
        <linearGradient id="linearGradient-5" y2="15.8518925%" x2="23.5685826%" y1="88.1652425%" x1="73.592004%">
            <stop offset="0%" stop-color="#B8C9FF"></stop>
            <stop offset="39.8918969%" stop-color="#5EBBFC"></stop>
            <stop offset="100%" stop-color="#526EFC"></stop>
        </linearGradient>
        <linearGradient id="linearGradient-6" y2="0%" x2="50%" y1="103.15531%" x1="50%">
            <stop offset="0%" stop-color="#FF318C"></stop>
            <stop offset="54.178599%" stop-color="#6737E9"></stop>
            <stop offset="100%" stop-color="#213BD8"></stop>
        </linearGradient>
        <path id="path-7" d="M93.968229,18.6256557 L164.968229,58.7560905 C166.223705,59.4657073 167,60.7961991 167,62.2383418 L167,142.900289 C167,144.342211 166.22394,145.672536 164.968765,146.382237 L93.4797031,186.803632 C92.5617898,187.32264 91.4387876,187.32162 90.5218178,186.800948 L19.0249183,146.203701 C17.7732917,145.493004 17,144.164658 17,142.725332 L17,62.2383418 C17,60.7961991 17.7762951,59.4657073 19.031771,58.7560905 L90.031771,18.6256557 C91.2531268,17.9353242 92.7468732,17.9353242 93.968229,18.6256557 Z"></path>
        <filter id="filter-9" filterUnits="objectBoundingBox" height="183.3%" width="183.3%" y="-41.7%" x="-41.7%">
            <feGaussianBlur in="SourceGraphic" stdDeviation="20"></feGaussianBlur>
        </filter>
        <path id="path-10" d="M96.9205726,1.29437161 L178.920573,47.6421977 C182.059262,49.4162396 184,52.7424694 184,56.3478261 L184,148.678531 C184,152.283887 182.059262,155.610117 178.920573,157.384159 L96.9205726,203.731985 C93.8671831,205.457814 90.1328169,205.457814 87.0794274,203.731985 L5.07942743,157.384159 C1.94073784,155.610117 0,152.283887 0,148.678531 L0,56.3478261 C0,52.7424694 1.94073784,49.4162396 5.07942743,47.6421977 L87.0794274,1.29437161 C90.1328169,-0.431457204 93.8671831,-0.431457204 96.9205726,1.29437161 Z"></path>
        <linearGradient id="linearGradient-12" y2="56.4150119%" x2="35.5877628%" y1="2.06845194%" x1="40.1692165%">
            <stop offset="0%" stop-color="#FF928B"></stop>
            <stop offset="100%" stop-color="#B22DD7"></stop>
        </linearGradient>
        <path id="path-13" d="M13.5072544,2.31220628 C13.8823157,3.1179042 14.2554101,3.90958695 14.6265376,4.68725453 L15.3661701,6.22390282 L15.3661701,6.22390282 L16.1005575,7.72317734 C16.3444791,8.21670655 16.5875266,8.70400679 16.8296999,9.18507808 L17.5535972,10.6096051 C18.0344471,11.5468318 18.5118002,12.4591427 18.9856567,13.3465377 L19.6938188,14.6589434 C19.9289987,15.0901829 20.1633044,15.5151936 20.3967359,15.9339752 L21.094408,17.1716334 L21.094408,17.1716334 L21.786835,18.3719177 C23.741281,21.7197772 25.6325678,24.6175942 27.4606954,27.0653687 C32.4748281,33.7790499 37.4178153,39.3858164 42.2896571,43.8856681 L30.1811567,78.7686615 L29.0855255,77.6399113 L29.0855255,77.6399113 L27.4913363,75.9811614 L27.4913363,75.9811614 L25.956256,74.3636617 L25.956256,74.3636617 L24.9657075,73.3082455 L24.9657075,73.3082455 L24.0014296,72.2711627 L24.0014296,72.2711627 L23.0634223,71.2524134 L23.0634223,71.2524134 L22.1516857,70.2519976 L22.1516857,70.2519976 L21.2662197,69.2699152 L21.2662197,69.2699152 L20.4070244,68.3061664 L20.4070244,68.3061664 L19.5740997,67.360751 L19.5740997,67.360751 L18.7674457,66.433669 L18.7674457,66.433669 L17.9870623,65.5249206 L17.9870623,65.5249206 L17.2329496,64.6345056 L17.2329496,64.6345056 L16.5051075,63.7624241 L16.5051075,63.7624241 L15.8035361,62.9086761 C15.6887967,62.7679126 15.575152,62.6279129 15.4626019,62.4886772 L14.8004364,61.6624294 L14.8004364,61.6624294 L14.1645416,60.854515 L14.1645416,60.854515 L13.5549174,60.0649342 L13.5549174,60.0649342 L12.9715639,59.2936868 L12.9715639,59.2936868 L12.414481,58.5407729 L12.414481,58.5407729 L11.8836687,57.8061925 L11.8836687,57.8061925 L11.3791271,57.0899455 C11.2153251,56.8542521 11.0559014,56.6216143 10.9008562,56.392032 L10.4488559,55.712452 C10.3025676,55.4889809 10.1606577,55.2685654 10.0231263,55.0512055 L9.62366725,54.4082925 C9.4305054,54.0914193 9.24719506,53.7814212 9.0737362,53.4782981 L8.73995381,52.8812188 L8.73995381,52.8812188 C6.11065029,48.0603397 4.06765067,42.892388 2.62037795,38.0856883 L2.30857183,37.0237672 C2.10724365,36.320168 1.91900574,35.6256492 1.74388872,34.9425137 L1.4910577,33.926636 C1.32906924,33.2554598 1.180217,32.5968185 1.04453161,31.9530154 L0.850882504,30.9987273 C0.820254787,30.84163 0.790450956,30.6855321 0.761471489,30.5304695 L0.597490897,29.6128059 C0.135249232,26.8988151 -0.0595880296,24.543595 0.0157711149,22.7570196 C0.361229021,14.5670833 2.45865408,7.69018668 6.30804629,2.12632983 L6.63287672,1.66570898 C7.92224138,-0.128129676 10.4216715,-0.53708665 12.2155102,0.752278012 C12.703123,1.10276146 13.1046558,1.55786253 13.3914506,2.08297337 L13.5072544,2.31220628 Z"></path>
        <linearGradient id="linearGradient-15" y2="81.1936404%" x2="27.1270573%" y1="5.21663215%" x1="35.3973703%">
            <stop offset="0%" stop-color="#FFB1B7"></stop>
            <stop offset="100%" stop-color="#D03CE6"></stop>
        </linearGradient>
        <linearGradient id="linearGradient-16" y2="62.4228812%" x2="43.5085671%" y1="4.81320149%" x1="39.1069435%">
            <stop offset="0%" stop-color="#FFBDE5"></stop>
            <stop offset="100%" stop-color="#C641EF"></stop>
        </linearGradient>
        <path id="path-17" d="M13.5072544,2.31220628 C13.8823157,3.1179042 14.2554101,3.90958695 14.6265376,4.68725453 L15.3661701,6.22390282 L15.3661701,6.22390282 L16.1005575,7.72317734 C16.3444791,8.21670655 16.5875266,8.70400679 16.8296999,9.18507808 L17.5535972,10.6096051 C18.0344471,11.5468318 18.5118002,12.4591427 18.9856567,13.3465377 L19.6938188,14.6589434 C19.9289987,15.0901829 20.1633044,15.5151936 20.3967359,15.9339752 L21.094408,17.1716334 L21.094408,17.1716334 L21.786835,18.3719177 C23.741281,21.7197772 25.6325678,24.6175942 27.4606954,27.0653687 C32.4748281,33.7790499 37.4178153,39.3858164 42.2896571,43.8856681 L30.1811567,78.7686615 L29.0855255,77.6399113 L29.0855255,77.6399113 L27.4913363,75.9811614 L27.4913363,75.9811614 L25.956256,74.3636617 L25.956256,74.3636617 L24.9657075,73.3082455 L24.9657075,73.3082455 L24.0014296,72.2711627 L24.0014296,72.2711627 L23.0634223,71.2524134 L23.0634223,71.2524134 L22.1516857,70.2519976 L22.1516857,70.2519976 L21.2662197,69.2699152 L21.2662197,69.2699152 L20.4070244,68.3061664 L20.4070244,68.3061664 L19.5740997,67.360751 L19.5740997,67.360751 L18.7674457,66.433669 L18.7674457,66.433669 L17.9870623,65.5249206 L17.9870623,65.5249206 L17.2329496,64.6345056 L17.2329496,64.6345056 L16.5051075,63.7624241 L16.5051075,63.7624241 L15.8035361,62.9086761 C15.6887967,62.7679126 15.575152,62.6279129 15.4626019,62.4886772 L14.8004364,61.6624294 L14.8004364,61.6624294 L14.1645416,60.854515 L14.1645416,60.854515 L13.5549174,60.0649342 L13.5549174,60.0649342 L12.9715639,59.2936868 L12.9715639,59.2936868 L12.414481,58.5407729 L12.414481,58.5407729 L11.8836687,57.8061925 L11.8836687,57.8061925 L11.3791271,57.0899455 C11.2153251,56.8542521 11.0559014,56.6216143 10.9008562,56.392032 L10.4488559,55.712452 C10.3025676,55.4889809 10.1606577,55.2685654 10.0231263,55.0512055 L9.62366725,54.4082925 C9.4305054,54.0914193 9.24719506,53.7814212 9.0737362,53.4782981 L8.73995381,52.8812188 L8.73995381,52.8812188 C6.11065029,48.0603397 4.06765067,42.892388 2.62037795,38.0856883 L2.30857183,37.0237672 C2.10724365,36.320168 1.91900574,35.6256492 1.74388872,34.9425137 L1.4910577,33.926636 C1.32906924,33.2554598 1.180217,32.5968185 1.04453161,31.9530154 L0.850882504,30.9987273 C0.820254787,30.84163 0.790450956,30.6855321 0.761471489,30.5304695 L0.597490897,29.6128059 C0.135249232,26.8988151 -0.0595880296,24.543595 0.0157711149,22.7570196 C0.361229021,14.5670833 2.45865408,7.69018668 6.30804629,2.12632983 L6.63287672,1.66570898 C7.92224138,-0.128129676 10.4216715,-0.53708665 12.2155102,0.752278012 C12.703123,1.10276146 13.1046558,1.55786253 13.3914506,2.08297337 L13.5072544,2.31220628 Z"></path>
        <linearGradient id="linearGradient-19" y2="61.6943776%" x2="30.0316796%" y1="5.33848445%" x1="36.9577939%">
            <stop offset="0%" stop-color="#FFEFD2"></stop>
            <stop offset="100%" stop-color="#F55FAD"></stop>
        </linearGradient>
        <linearGradient id="linearGradient-20" y2="76.0932585%" x2="52.6362653%" y1="17.4343671%" x1="35.5877628%">
            <stop offset="0%" stop-color="#F8D3D5"></stop>
            <stop offset="100%" stop-color="#FF7E9A"></stop>
        </linearGradient>
        <path id="path-21" d="M13.5072544,5.54459927 C13.8823157,6.35029718 14.2554101,7.14197993 14.6265376,7.91964752 L15.3661701,9.4562958 L15.3661701,9.4562958 L16.1005575,10.9555703 C16.3444791,11.4490995 16.5875266,11.9363998 16.8296999,12.4174711 L17.5535972,13.841998 C18.0344471,14.7792248 18.5118002,15.6915356 18.9856567,16.5789307 L19.6938188,17.8913363 C19.9289987,18.3225759 20.1633044,18.7475866 20.3967359,19.1663682 L21.094408,20.4040263 L21.094408,20.4040263 L21.786835,21.6043107 C23.741281,24.9521702 25.6325678,27.8499872 27.4606954,30.2977617 C32.4748281,37.0114429 37.4178153,42.6182094 42.2896571,47.1180611 L30.1811567,82.0010545 L29.0855255,80.8723043 L29.0855255,80.8723043 L27.4913363,79.2135544 L27.4913363,79.2135544 L25.956256,77.5960547 L25.956256,77.5960547 L24.9657075,76.5406385 L24.9657075,76.5406385 L24.0014296,75.5035557 L24.0014296,75.5035557 L23.0634223,74.4848064 L23.0634223,74.4848064 L22.1516857,73.4843906 L22.1516857,73.4843906 L21.2662197,72.5023082 L21.2662197,72.5023082 L20.4070244,71.5385593 L20.4070244,71.5385593 L19.5740997,70.593144 L19.5740997,70.593144 L18.7674457,69.666062 L18.7674457,69.666062 L17.9870623,68.7573136 L17.9870623,68.7573136 L17.2329496,67.8668986 L17.2329496,67.8668986 L16.5051075,66.9948171 L16.5051075,66.9948171 L15.8035361,66.1410691 C15.6887967,66.0003056 15.575152,65.8603059 15.4626019,65.7210701 L14.8004364,64.8948223 L14.8004364,64.8948223 L14.1645416,64.086908 L14.1645416,64.086908 L13.5549174,63.2973272 L13.5549174,63.2973272 L12.9715639,62.5260798 L12.9715639,62.5260798 L12.414481,61.7731659 L12.414481,61.7731659 L11.8836687,61.0385854 L11.8836687,61.0385854 L11.3791271,60.3223385 C11.2153251,60.0866451 11.0559014,59.8540073 10.9008562,59.624425 L10.4488559,58.944845 C10.3025676,58.7213739 10.1606577,58.5009584 10.0231263,58.2835985 L9.62366725,57.6406854 C9.4305054,57.3238123 9.24719506,57.0138142 9.0737362,56.7106911 L8.73995381,56.1136118 L8.73995381,56.1136118 C6.11065029,51.2927327 4.06765067,46.124781 2.62037795,41.3180813 L2.30857183,40.2561602 C2.10724365,39.552561 1.91900574,38.8580421 1.74388872,38.1749067 L1.4910577,37.159029 C1.32906924,36.4878527 1.180217,35.8292115 1.04453161,35.1854084 L0.850882504,34.2311203 C0.820254787,34.074023 0.790450956,33.917925 0.761471489,33.7628625 L0.597490897,32.8451989 C0.135249232,30.1312081 -0.0595880296,27.775988 0.0157711149,25.9894126 C0.361229021,17.7994763 2.45865408,10.9225797 6.30804629,5.35872281 L6.63287672,4.89810196 C7.92224138,3.10426331 10.4216715,2.69530633 12.2155102,3.984671 C12.703123,4.33515444 13.1046558,4.79025552 13.3914506,5.31536635 L13.5072544,5.54459927 Z"></path>
        <linearGradient id="linearGradient-23" y2="52.3884364%" x2="32.6221683%" y1="1.42108547e-12%" x1="43.2876087%">
            <stop offset="0%" stop-color="#FFEADE"></stop>
            <stop offset="100%" stop-color="#FFD2D4"></stop>
        </linearGradient>
        <linearGradient id="linearGradient-24" y2="67.842374%" x2="50%" y1="7.5801073%" x1="42.3657072%">
            <stop offset="0%" stop-color="#FFE5D4"></stop>
            <stop offset="100%" stop-color="#FF7E9A"></stop>
        </linearGradient>
        <path id="path-25" d="M12.5073833,5.7054378 C12.756001,6.2386473 13.0037532,6.76568993 13.25064,7.28656569 L13.988704,8.83069236 C14.2338598,9.33923437 14.4781502,9.84160951 14.7215752,10.3378178 L15.4492536,11.807942 L15.4492536,11.807942 L16.1717393,13.241065 L16.1717393,13.241065 L16.8890322,14.6371867 C17.7228447,16.2444113 18.5460554,17.7760918 19.3586642,19.2322281 L20.0525896,20.4618443 C20.6286971,21.4711072 21.1993955,22.4418273 21.7646847,23.3740044 L22.4404355,24.4741162 C22.6648202,24.8346533 22.8883395,25.1890235 23.1109934,25.5372269 L23.7763586,26.5633363 C24.6600503,27.9068147 25.5298946,29.1516232 26.3858915,30.2977617 C31.4000242,37.0114429 36.3430114,42.6182094 41.2148532,47.1180611 L29.1063528,82.0010545 L27.5521021,80.1914104 L27.5521021,80.1914104 L26.5468083,79.0114398 L26.5468083,79.0114398 L25.0851775,77.2811721 L25.0851775,77.2811721 L24.1416303,76.1541191 L24.1416303,76.1541191 L23.2227816,75.0482331 L23.2227816,75.0482331 L21.8908186,73.4290923 L21.8908186,73.4290923 L21.0337165,72.3761239 L21.0337165,72.3761239 L19.7943733,70.8363594 L19.7943733,70.8363594 L18.6106019,69.3442208 L18.6106019,69.3442208 L17.4824025,67.899708 L17.4824025,67.899708 L16.7611428,66.9631583 L16.7611428,66.9631583 L16.0645818,66.0477756 L16.0645818,66.0477756 L15.3927193,65.1535599 L15.3927193,65.1535599 L14.7455555,64.2805112 L14.7455555,64.2805112 L14.1230903,63.4286296 L14.1230903,63.4286296 L13.5253237,62.597915 L13.5253237,62.597915 L12.9522558,61.7883675 C12.8588027,61.6552068 12.7663787,61.5229281 12.6749838,61.3915313 L12.1389637,60.6137343 L12.1389637,60.6137343 L11.6276423,59.8571043 L11.6276423,59.8571043 L11.1410195,59.1216414 C11.061974,59.0008282 10.9839575,58.8808969 10.9069701,58.7618476 L10.4573953,58.0581352 C10.3845243,57.9426137 10.3126825,57.8279742 10.2418698,57.7142166 L9.82934289,57.0422547 L9.82934289,57.0422547 L9.44151457,56.3914599 C9.37893474,56.284758 9.31738402,56.1789381 9.2568624,56.0740001 L8.90608202,55.4549559 C8.84967684,55.3535457 8.79430077,55.2530176 8.73995381,55.1533714 C5.91588707,49.9753902 3.76820109,44.3970137 2.30857183,39.2959198 L2.01640109,38.2476192 C1.82817084,37.5536761 1.65304616,36.8699648 1.4910577,36.1987886 L1.257931,35.2017134 C0.327652361,31.0888043 -0.0888943636,27.5105269 0.0157711149,25.0291722 C0.344593766,17.2336158 2.08259802,10.7868203 5.22978389,5.68878547 L5.51977633,5.22904502 C6.71643481,3.37208619 9.19188074,2.83680701 11.0488396,4.03346549 C11.6124991,4.39669809 12.0746423,4.89503251 12.3942794,5.48148103 L12.5073833,5.7054378 Z"></path>
        <linearGradient id="linearGradient-27" y2="66.3612464%" x2="30.7238401%" y1="18.0384184%" x1="30.7238401%">
            <stop offset="0%" stop-color="#EEF7FF"></stop>
            <stop offset="100%" stop-color="#FFBCBA"></stop>
        </linearGradient>
        <path id="path-28" d="M13.5072544,2.31220628 C13.8823157,3.1179042 14.2554101,3.90958695 14.6265376,4.68725453 L15.3661701,6.22390282 L15.3661701,6.22390282 L16.1005575,7.72317734 C16.3444791,8.21670655 16.5875266,8.70400679 16.8296999,9.18507808 L17.5535972,10.6096051 C18.0344471,11.5468318 18.5118002,12.4591427 18.9856567,13.3465377 L19.6938188,14.6589434 C19.9289987,15.0901829 20.1633044,15.5151936 20.3967359,15.9339752 L21.094408,17.1716334 L21.094408,17.1716334 L21.786835,18.3719177 C23.741281,21.7197772 25.6325678,24.6175942 27.4606954,27.0653687 C32.4748281,33.7790499 37.4178153,39.3858164 42.2896571,43.8856681 L30.1811567,78.7686615 L29.0855255,77.6399113 L29.0855255,77.6399113 L27.4913363,75.9811614 L27.4913363,75.9811614 L25.956256,74.3636617 L25.956256,74.3636617 L24.9657075,73.3082455 L24.9657075,73.3082455 L24.0014296,72.2711627 L24.0014296,72.2711627 L23.0634223,71.2524134 L23.0634223,71.2524134 L22.1516857,70.2519976 L22.1516857,70.2519976 L21.2662197,69.2699152 L21.2662197,69.2699152 L20.4070244,68.3061664 L20.4070244,68.3061664 L19.5740997,67.360751 L19.5740997,67.360751 L18.7674457,66.433669 L18.7674457,66.433669 L17.9870623,65.5249206 L17.9870623,65.5249206 L17.2329496,64.6345056 L17.2329496,64.6345056 L16.5051075,63.7624241 L16.5051075,63.7624241 L15.8035361,62.9086761 C15.6887967,62.7679126 15.575152,62.6279129 15.4626019,62.4886772 L14.8004364,61.6624294 L14.8004364,61.6624294 L14.1645416,60.854515 L14.1645416,60.854515 L13.5549174,60.0649342 L13.5549174,60.0649342 L12.9715639,59.2936868 L12.9715639,59.2936868 L12.414481,58.5407729 L12.414481,58.5407729 L11.8836687,57.8061925 L11.8836687,57.8061925 L11.3791271,57.0899455 C11.2153251,56.8542521 11.0559014,56.6216143 10.9008562,56.392032 L10.4488559,55.712452 C10.3025676,55.4889809 10.1606577,55.2685654 10.0231263,55.0512055 L9.62366725,54.4082925 C9.4305054,54.0914193 9.24719506,53.7814212 9.0737362,53.4782981 L8.73995381,52.8812188 L8.73995381,52.8812188 C6.11065029,48.0603397 4.06765067,42.892388 2.62037795,38.0856883 L2.30857183,37.0237672 C2.10724365,36.320168 1.91900574,35.6256492 1.74388872,34.9425137 L1.4910577,33.926636 C1.32906924,33.2554598 1.180217,32.5968185 1.04453161,31.9530154 L0.850882504,30.9987273 C0.820254787,30.84163 0.790450956,30.6855321 0.761471489,30.5304695 L0.597490897,29.6128059 C0.135249232,26.8988151 -0.0595880296,24.543595 0.0157711149,22.7570196 C0.361229021,14.5670833 2.45865408,7.69018668 6.30804629,2.12632983 L6.63287672,1.66570898 C7.92224138,-0.128129676 10.4216715,-0.53708665 12.2155102,0.752278012 C12.703123,1.10276146 13.1046558,1.55786253 13.3914506,2.08297337 L13.5072544,2.31220628 Z"></path>
        <linearGradient id="linearGradient-30" y2="76.3495641%" x2="21.586622%" y1="5.21663215%" x1="35.3973703%">
            <stop offset="0%" stop-color="#FFB1B7"></stop>
            <stop offset="100%" stop-color="#D03CE6"></stop>
        </linearGradient>
        <path id="path-31" d="M13.5072544,2.31220628 C13.8823157,3.1179042 14.2554101,3.90958695 14.6265376,4.68725453 L15.3661701,6.22390282 L15.3661701,6.22390282 L16.1005575,7.72317734 C16.3444791,8.21670655 16.5875266,8.70400679 16.8296999,9.18507808 L17.5535972,10.6096051 C18.0344471,11.5468318 18.5118002,12.4591427 18.9856567,13.3465377 L19.6938188,14.6589434 C19.9289987,15.0901829 20.1633044,15.5151936 20.3967359,15.9339752 L21.094408,17.1716334 L21.094408,17.1716334 L21.786835,18.3719177 C23.741281,21.7197772 25.6325678,24.6175942 27.4606954,27.0653687 C32.4748281,33.7790499 37.4178153,39.3858164 42.2896571,43.8856681 L30.1811567,78.7686615 L29.0855255,77.6399113 L29.0855255,77.6399113 L27.4913363,75.9811614 L27.4913363,75.9811614 L25.956256,74.3636617 L25.956256,74.3636617 L24.9657075,73.3082455 L24.9657075,73.3082455 L24.0014296,72.2711627 L24.0014296,72.2711627 L23.0634223,71.2524134 L23.0634223,71.2524134 L22.1516857,70.2519976 L22.1516857,70.2519976 L21.2662197,69.2699152 L21.2662197,69.2699152 L20.4070244,68.3061664 L20.4070244,68.3061664 L19.5740997,67.360751 L19.5740997,67.360751 L18.7674457,66.433669 L18.7674457,66.433669 L17.9870623,65.5249206 L17.9870623,65.5249206 L17.2329496,64.6345056 L17.2329496,64.6345056 L16.5051075,63.7624241 L16.5051075,63.7624241 L15.8035361,62.9086761 C15.6887967,62.7679126 15.575152,62.6279129 15.4626019,62.4886772 L14.8004364,61.6624294 L14.8004364,61.6624294 L14.1645416,60.854515 L14.1645416,60.854515 L13.5549174,60.0649342 L13.5549174,60.0649342 L12.9715639,59.2936868 L12.9715639,59.2936868 L12.414481,58.5407729 L12.414481,58.5407729 L11.8836687,57.8061925 L11.8836687,57.8061925 L11.3791271,57.0899455 C11.2153251,56.8542521 11.0559014,56.6216143 10.9008562,56.392032 L10.4488559,55.712452 C10.3025676,55.4889809 10.1606577,55.2685654 10.0231263,55.0512055 L9.62366725,54.4082925 C9.4305054,54.0914193 9.24719506,53.7814212 9.0737362,53.4782981 L8.73995381,52.8812188 L8.73995381,52.8812188 C6.11065029,48.0603397 4.06765067,42.892388 2.62037795,38.0856883 L2.30857183,37.0237672 C2.10724365,36.320168 1.91900574,35.6256492 1.74388872,34.9425137 L1.4910577,33.926636 C1.32906924,33.2554598 1.180217,32.5968185 1.04453161,31.9530154 L0.850882504,30.9987273 C0.820254787,30.84163 0.790450956,30.6855321 0.761471489,30.5304695 L0.597490897,29.6128059 C0.135249232,26.8988151 -0.0595880296,24.543595 0.0157711149,22.7570196 C0.361229021,14.5670833 2.45865408,7.69018668 6.30804629,2.12632983 L6.63287672,1.66570898 C7.92224138,-0.128129676 10.4216715,-0.53708665 12.2155102,0.752278012 C12.703123,1.10276146 13.1046558,1.55786253 13.3914506,2.08297337 L13.5072544,2.31220628 Z"></path>
        <linearGradient id="linearGradient-33" y2="61.5136193%" x2="27.0926334%" y1="5.33848445%" x1="36.9577939%">
            <stop offset="0%" stop-color="#FFEFD2"></stop>
            <stop offset="100%" stop-color="#F55FAD"></stop>
        </linearGradient>
        <path id="path-34" d="M13.5072544,5.54459927 C13.8823157,6.35029718 14.2554101,7.14197993 14.6265376,7.91964752 L15.3661701,9.4562958 L15.3661701,9.4562958 L16.1005575,10.9555703 C16.3444791,11.4490995 16.5875266,11.9363998 16.8296999,12.4174711 L17.5535972,13.841998 C18.0344471,14.7792248 18.5118002,15.6915356 18.9856567,16.5789307 L19.6938188,17.8913363 C19.9289987,18.3225759 20.1633044,18.7475866 20.3967359,19.1663682 L21.094408,20.4040263 L21.094408,20.4040263 L21.786835,21.6043107 C23.741281,24.9521702 25.6325678,27.8499872 27.4606954,30.2977617 C32.4748281,37.0114429 37.4178153,42.6182094 42.2896571,47.1180611 L30.1811567,82.0010545 L29.0855255,80.8723043 L29.0855255,80.8723043 L27.4913363,79.2135544 L27.4913363,79.2135544 L25.956256,77.5960547 L25.956256,77.5960547 L24.9657075,76.5406385 L24.9657075,76.5406385 L24.0014296,75.5035557 L24.0014296,75.5035557 L23.0634223,74.4848064 L23.0634223,74.4848064 L22.1516857,73.4843906 L22.1516857,73.4843906 L21.2662197,72.5023082 L21.2662197,72.5023082 L20.4070244,71.5385593 L20.4070244,71.5385593 L19.5740997,70.593144 L19.5740997,70.593144 L18.7674457,69.666062 L18.7674457,69.666062 L17.9870623,68.7573136 L17.9870623,68.7573136 L17.2329496,67.8668986 L17.2329496,67.8668986 L16.5051075,66.9948171 L16.5051075,66.9948171 L15.8035361,66.1410691 C15.6887967,66.0003056 15.575152,65.8603059 15.4626019,65.7210701 L14.8004364,64.8948223 L14.8004364,64.8948223 L14.1645416,64.086908 L14.1645416,64.086908 L13.5549174,63.2973272 L13.5549174,63.2973272 L12.9715639,62.5260798 L12.9715639,62.5260798 L12.414481,61.7731659 L12.414481,61.7731659 L11.8836687,61.0385854 L11.8836687,61.0385854 L11.3791271,60.3223385 C11.2153251,60.0866451 11.0559014,59.8540073 10.9008562,59.624425 L10.4488559,58.944845 C10.3025676,58.7213739 10.1606577,58.5009584 10.0231263,58.2835985 L9.62366725,57.6406854 C9.4305054,57.3238123 9.24719506,57.0138142 9.0737362,56.7106911 L8.73995381,56.1136118 L8.73995381,56.1136118 C6.11065029,51.2927327 4.06765067,46.124781 2.62037795,41.3180813 L2.30857183,40.2561602 C2.10724365,39.552561 1.91900574,38.8580421 1.74388872,38.1749067 L1.4910577,37.159029 C1.32906924,36.4878527 1.180217,35.8292115 1.04453161,35.1854084 L0.850882504,34.2311203 C0.820254787,34.074023 0.790450956,33.917925 0.761471489,33.7628625 L0.597490897,32.8451989 C0.135249232,30.1312081 -0.0595880296,27.775988 0.0157711149,25.9894126 C0.361229021,17.7994763 2.45865408,10.9225797 6.30804629,5.35872281 L6.63287672,4.89810196 C7.92224138,3.10426331 10.4216715,2.69530633 12.2155102,3.984671 C12.703123,4.33515444 13.1046558,4.79025552 13.3914506,5.31536635 L13.5072544,5.54459927 Z"></path>
        <path id="path-36" d="M12.5073833,5.7054378 C12.756001,6.2386473 13.0037532,6.76568993 13.25064,7.28656569 L13.988704,8.83069236 C14.2338598,9.33923437 14.4781502,9.84160951 14.7215752,10.3378178 L15.4492536,11.807942 L15.4492536,11.807942 L16.1717393,13.241065 L16.1717393,13.241065 L16.8890322,14.6371867 C17.7228447,16.2444113 18.5460554,17.7760918 19.3586642,19.2322281 L20.0525896,20.4618443 C20.6286971,21.4711072 21.1993955,22.4418273 21.7646847,23.3740044 L22.4404355,24.4741162 C22.6648202,24.8346533 22.8883395,25.1890235 23.1109934,25.5372269 L23.7763586,26.5633363 C24.6600503,27.9068147 25.5298946,29.1516232 26.3858915,30.2977617 C31.4000242,37.0114429 36.3430114,42.6182094 41.2148532,47.1180611 L29.1063528,82.0010545 L27.5521021,80.1914104 L27.5521021,80.1914104 L26.5468083,79.0114398 L26.5468083,79.0114398 L25.0851775,77.2811721 L25.0851775,77.2811721 L24.1416303,76.1541191 L24.1416303,76.1541191 L23.2227816,75.0482331 L23.2227816,75.0482331 L21.8908186,73.4290923 L21.8908186,73.4290923 L21.0337165,72.3761239 L21.0337165,72.3761239 L19.7943733,70.8363594 L19.7943733,70.8363594 L18.6106019,69.3442208 L18.6106019,69.3442208 L17.4824025,67.899708 L17.4824025,67.899708 L16.7611428,66.9631583 L16.7611428,66.9631583 L16.0645818,66.0477756 L16.0645818,66.0477756 L15.3927193,65.1535599 L15.3927193,65.1535599 L14.7455555,64.2805112 L14.7455555,64.2805112 L14.1230903,63.4286296 L14.1230903,63.4286296 L13.5253237,62.597915 L13.5253237,62.597915 L12.9522558,61.7883675 C12.8588027,61.6552068 12.7663787,61.5229281 12.6749838,61.3915313 L12.1389637,60.6137343 L12.1389637,60.6137343 L11.6276423,59.8571043 L11.6276423,59.8571043 L11.1410195,59.1216414 C11.061974,59.0008282 10.9839575,58.8808969 10.9069701,58.7618476 L10.4573953,58.0581352 C10.3845243,57.9426137 10.3126825,57.8279742 10.2418698,57.7142166 L9.82934289,57.0422547 L9.82934289,57.0422547 L9.44151457,56.3914599 C9.37893474,56.284758 9.31738402,56.1789381 9.2568624,56.0740001 L8.90608202,55.4549559 C8.84967684,55.3535457 8.79430077,55.2530176 8.73995381,55.1533714 C5.91588707,49.9753902 3.76820109,44.3970137 2.30857183,39.2959198 L2.01640109,38.2476192 C1.82817084,37.5536761 1.65304616,36.8699648 1.4910577,36.1987886 L1.257931,35.2017134 C0.327652361,31.0888043 -0.0888943636,27.5105269 0.0157711149,25.0291722 C0.344593766,17.2336158 2.08259802,10.7868203 5.22978389,5.68878547 L5.51977633,5.22904502 C6.71643481,3.37208619 9.19188074,2.83680701 11.0488396,4.03346549 C11.6124991,4.39669809 12.0746423,4.89503251 12.3942794,5.48148103 L12.5073833,5.7054378 Z"></path>
        <linearGradient id="linearGradient-38" y2="82.2768076%" x2="89.5806133%" y1="15.1488909%" x1="12.762843%">
            <stop offset="0%" stop-color="#F1E2FF"></stop>
            <stop offset="61.4504344%" stop-color="#743CF0"></stop>
            <stop offset="100%" stop-color="#596CFF"></stop>
        </linearGradient>
        <linearGradient id="linearGradient-39" y2="82.2768076%" x2="89.5806133%" y1="16.601209%" x1="14.8620937%">
            <stop offset="0%" stop-color="#5D58FF"></stop>
            <stop offset="100%" stop-color="#D3EDFF"></stop>
        </linearGradient>
        <circle r="48.5" cy="55.5" cx="54.5" id="path-40"></circle>
        <filter id="filter-41" filterUnits="objectBoundingBox" height="103.1%" width="103.1%" y="-1.5%" x="-1.5%">
            <feGaussianBlur result="shadowBlurInner1" in="SourceAlpha" stdDeviation="1"></feGaussianBlur>
            <feOffset result="shadowOffsetInner1" in="shadowBlurInner1" dy="-1" dx="1"></feOffset>
            <feComposite result="shadowInnerInner1" k3="1" k2="-1" operator="arithmetic" in2="SourceAlpha" in="shadowOffsetInner1"></feComposite>
            <feColorMatrix in="shadowInnerInner1" type="matrix" values="0 0 0 0 0.709803922   0 0 0 0 0.870588235   0 0 0 0 1  0 0 0 1 0"></feColorMatrix>
        </filter>
        <linearGradient id="linearGradient-42" y2="72.8265503%" x2="94.5462659%" y1="15.5455647%" x1="20.6922192%">
            <stop offset="0%" stop-color="#7D9BFF"></stop>
            <stop offset="48.4011663%" stop-color="#5040FA"></stop>
            <stop offset="100%" stop-color="#6919DE"></stop>
        </linearGradient>
        <circle r="41.5" cy="54.5" cx="54.5" id="path-43"></circle>
        <filter id="filter-44" filterUnits="objectBoundingBox" height="110.8%" width="110.8%" y="-5.4%" x="-5.4%">
            <feOffset result="shadowOffsetOuter1" in="SourceAlpha" dy="0" dx="0"></feOffset>
            <feGaussianBlur result="shadowBlurOuter1" in="shadowOffsetOuter1" stdDeviation="1.5"></feGaussianBlur>
            <feColorMatrix in="shadowBlurOuter1" type="matrix" values="0 0 0 0 0.180392157   0 0 0 0 0.239215686   0 0 0 0 0.898039216  0 0 0 1 0"></feColorMatrix>
        </filter>
        <linearGradient id="linearGradient-45" y2="39.3622438%" x2="56.0332741%" y1="66.9195084%" x1="59.7158432%">
            <stop offset="0%" stop-color="#8D0E97"></stop>
            <stop offset="100%" stop-color="#2E2ED9"></stop>
        </linearGradient>
        <path id="path-46" d="M34.386,77 L34.386,35.704 L26.614,35.704 L20.292,40.634 L20.292,49.334 L26.614,44.81 L26.614,77 L34.386,77 Z M52.888,77.464 C55.672,77.464 58.398,76.594 60.254,74.796 C62.98,72.128 63.212,69.054 63.212,65.168 C63.212,62.906 63.038,60.528 62.11,58.614 C61.53,57.454 60.718,56.526 59.616,55.656 C60.602,54.844 61.298,53.974 61.82,52.93 C62.748,50.958 62.922,48.928 62.922,46.782 C62.922,43.244 62.342,40.228 59.964,37.85 C58.166,36.052 55.614,35.24 52.83,35.24 C50.046,35.24 47.61,36.052 45.812,37.85 C43.434,40.228 42.854,43.244 42.854,46.782 C42.854,48.928 43.028,50.958 43.956,52.93 C44.478,53.974 45.174,54.844 46.16,55.656 C45.058,56.526 44.246,57.454 43.666,58.614 C42.738,60.528 42.564,62.906 42.564,65.168 C42.564,69.054 42.796,72.128 45.522,74.796 C47.378,76.594 50.104,77.464 52.888,77.464 Z M52.888,52.408 C52.308,52.408 51.844,52.234 51.438,51.886 C50.336,50.9 50.626,48.232 50.626,47.188 C50.626,46.202 50.452,43.882 51.264,42.896 C51.67,42.432 52.25,42.2 52.888,42.2 C53.526,42.2 54.106,42.432 54.512,42.896 C55.324,43.882 55.15,46.202 55.15,47.188 C55.15,48.232 55.382,50.842 54.338,51.886 C53.99,52.234 53.468,52.408 52.888,52.408 Z M52.888,70.504 C52.134,70.504 51.438,70.214 51.032,69.634 C50.22,68.474 50.336,65.864 50.336,64.762 C50.336,63.66 50.162,60.934 51.032,59.774 C51.438,59.194 52.134,58.904 52.888,58.904 C53.642,58.904 54.28,59.194 54.744,59.774 C55.614,60.934 55.44,63.66 55.44,64.762 C55.44,65.864 55.556,68.532 54.744,69.634 C54.338,70.156 53.642,70.504 52.888,70.504 Z M77.48,77.464 C80.264,77.464 82.99,76.594 84.846,74.796 C86.702,73.056 87.688,70.968 87.688,67.372 L87.688,45.332 C87.688,41.736 86.702,39.648 84.846,37.908 C82.99,36.11 80.264,35.24 77.48,35.24 C74.696,35.24 71.97,36.11 70.114,37.908 C68.258,39.648 67.272,41.736 67.272,45.332 L67.272,67.372 C67.272,70.968 68.258,73.056 70.114,74.796 C71.97,76.594 74.696,77.464 77.48,77.464 Z M77.48,70.504 C76.088,70.504 75.044,69.576 75.044,67.662 L75.044,45.042 C75.044,43.128 76.088,42.2 77.48,42.2 C78.872,42.2 79.916,43.128 79.916,45.042 L79.916,67.662 C79.916,69.576 78.872,70.504 77.48,70.504 Z"></path>
        <filter id="filter-47" filterUnits="objectBoundingBox" height="147.4%" width="129.7%" y="-18.9%" x="-14.8%">
            <feOffset result="shadowOffsetOuter1" in="SourceAlpha" dy="2" dx="0"></feOffset>
            <feGaussianBlur result="shadowBlurOuter1" in="shadowOffsetOuter1" stdDeviation="3"></feGaussianBlur>
            <feColorMatrix in="shadowBlurOuter1" type="matrix" values="0 0 0 0 0.134346316   0 0 0 0 0.0262128284   0 0 0 0 0.392349022  0 0 0 0.320454204 0"></feColorMatrix>
        </filter>
        <linearGradient id="linearGradient-48" y2="41.3810254%" x2="8.50248606%" y1="58.4066991%" x1="92.3139834%">
            <stop offset="0%" stop-color="#FFE0C9"></stop>
            <stop offset="46.2969761%" stop-color="#FFF3DF"></stop>
            <stop offset="100%" stop-color="#FFFFFF"></stop>
        </linearGradient>
        <path id="path-49" d="M34.386,73 L34.386,31.704 L26.614,31.704 L20.292,36.634 L20.292,45.334 L26.614,40.81 L26.614,73 L34.386,73 Z M52.888,73.464 C55.672,73.464 58.398,72.594 60.254,70.796 C62.98,68.128 63.212,65.054 63.212,61.168 C63.212,58.906 63.038,56.528 62.11,54.614 C61.53,53.454 60.718,52.526 59.616,51.656 C60.602,50.844 61.298,49.974 61.82,48.93 C62.748,46.958 62.922,44.928 62.922,42.782 C62.922,39.244 62.342,36.228 59.964,33.85 C58.166,32.052 55.614,31.24 52.83,31.24 C50.046,31.24 47.61,32.052 45.812,33.85 C43.434,36.228 42.854,39.244 42.854,42.782 C42.854,44.928 43.028,46.958 43.956,48.93 C44.478,49.974 45.174,50.844 46.16,51.656 C45.058,52.526 44.246,53.454 43.666,54.614 C42.738,56.528 42.564,58.906 42.564,61.168 C42.564,65.054 42.796,68.128 45.522,70.796 C47.378,72.594 50.104,73.464 52.888,73.464 Z M52.888,48.408 C52.308,48.408 51.844,48.234 51.438,47.886 C50.336,46.9 50.626,44.232 50.626,43.188 C50.626,42.202 50.452,39.882 51.264,38.896 C51.67,38.432 52.25,38.2 52.888,38.2 C53.526,38.2 54.106,38.432 54.512,38.896 C55.324,39.882 55.15,42.202 55.15,43.188 C55.15,44.232 55.382,46.842 54.338,47.886 C53.99,48.234 53.468,48.408 52.888,48.408 Z M52.888,66.504 C52.134,66.504 51.438,66.214 51.032,65.634 C50.22,64.474 50.336,61.864 50.336,60.762 C50.336,59.66 50.162,56.934 51.032,55.774 C51.438,55.194 52.134,54.904 52.888,54.904 C53.642,54.904 54.28,55.194 54.744,55.774 C55.614,56.934 55.44,59.66 55.44,60.762 C55.44,61.864 55.556,64.532 54.744,65.634 C54.338,66.156 53.642,66.504 52.888,66.504 Z M77.48,73.464 C80.264,73.464 82.99,72.594 84.846,70.796 C86.702,69.056 87.688,66.968 87.688,63.372 L87.688,41.332 C87.688,37.736 86.702,35.648 84.846,33.908 C82.99,32.11 80.264,31.24 77.48,31.24 C74.696,31.24 71.97,32.11 70.114,33.908 C68.258,35.648 67.272,37.736 67.272,41.332 L67.272,63.372 C67.272,66.968 68.258,69.056 70.114,70.796 C71.97,72.594 74.696,73.464 77.48,73.464 Z M77.48,66.504 C76.088,66.504 75.044,65.576 75.044,63.662 L75.044,41.042 C75.044,39.128 76.088,38.2 77.48,38.2 C78.872,38.2 79.916,39.128 79.916,41.042 L79.916,63.662 C79.916,65.576 78.872,66.504 77.48,66.504 Z"></path>
        <filter id="filter-50" filterUnits="objectBoundingBox" height="111.8%" width="107.4%" y="-5.9%" x="-3.7%">
            <feGaussianBlur result="shadowBlurInner1" in="SourceAlpha" stdDeviation="1"></feGaussianBlur>
            <feOffset result="shadowOffsetInner1" in="shadowBlurInner1" dy="-1" dx="3"></feOffset>
            <feComposite result="shadowInnerInner1" k3="1" k2="-1" operator="arithmetic" in2="SourceAlpha" in="shadowOffsetInner1"></feComposite>
            <feColorMatrix in="shadowInnerInner1" type="matrix" values="0 0 0 0 1   0 0 0 0 1   0 0 0 0 1  0 0 0 1 0"></feColorMatrix>
        </filter>
        <linearGradient id="linearGradient-51" y2="25.3095986%" x2="88.6267918%" y1="62.2416714%" x1="16.334238%">
            <stop offset="0%" stop-color="#9E67E9"></stop>
            <stop offset="100%" stop-color="#D2B2FF"></stop>
        </linearGradient>
        <linearGradient id="linearGradient-52" y2="25.3095986%" x2="88.6267918%" y1="62.2416714%" x1="16.334238%">
            <stop offset="0%" stop-color="#EB36CE"></stop>
            <stop offset="100%" stop-color="#FFBDC7"></stop>
        </linearGradient>
        <linearGradient id="linearGradient-53" y2="50%" x2="92.7537773%" y1="61.9353673%" x1="11.7212571%">
            <stop offset="0%" stop-color="#FFA080"></stop>
            <stop offset="100%" stop-color="#FF6AAA"></stop>
        </linearGradient>
        <path id="path-54" d="M96.7373945,30.687008 L106.832974,35.2918691 C106.964774,35.3519866 107.116169,35.3519866 107.247969,35.2918691 L117.312608,30.7011209 C117.563849,30.5865232 117.86042,30.6972945 117.975018,30.9485354 C118.035519,31.0811772 118.035115,31.2336188 117.973912,31.365938 L113.161675,41.7697814 C113.09837,41.9066435 113.100214,42.0647658 113.166692,42.2001148 L117.928459,51.8950108 C118.050199,52.14287 117.947958,52.4424887 117.700099,52.5642278 C117.566385,52.6299031 117.41035,52.6325341 117.274498,52.5714041 L107.245644,48.0586771 C107.115163,47.999964 106.96578,47.999964 106.835299,48.0586771 L96.7310073,52.6053494 C96.4791847,52.7186631 96.1831833,52.6063795 96.0698696,52.3545569 C96.0116131,52.2250907 96.0111401,52.0769632 96.0685687,51.9471276 L100.537659,41.8433165 C100.594637,41.7144981 100.594637,41.5676216 100.537659,41.4388032 L96.0726311,31.3441765 C95.9609278,31.0916355 96.0750994,30.7963571 96.3276405,30.6846538 C96.4582896,30.6268655 96.607418,30.6277222 96.7373945,30.687008 Z"></path>
        <filter id="filter-55" filterUnits="objectBoundingBox" height="104.4%" width="104.3%" y="-2.2%" x="-2.2%">
            <feGaussianBlur result="shadowBlurInner1" in="SourceAlpha" stdDeviation="0.5"></feGaussianBlur>
            <feOffset result="shadowOffsetInner1" in="shadowBlurInner1" dy="0" dx="-1"></feOffset>
            <feComposite result="shadowInnerInner1" k3="1" k2="-1" operator="arithmetic" in2="SourceAlpha" in="shadowOffsetInner1"></feComposite>
            <feColorMatrix in="shadowInnerInner1" type="matrix" values="0 0 0 0 1   0 0 0 0 0.866690156   0 0 0 0 0.789780631  0 0 0 1 0"></feColorMatrix>
        </filter>
    </defs>
    <g fill-rule="evenodd" fill="none" stroke-width="1" stroke="none" id="页面-1">
        <g transform="translate(-1675.000000, -1840.000000)" id="勋章">
            <g transform="translate(1675.000000, 1840.402908)" id="15.博客是我家">
                <g transform="translate(0.000000, -0.000000)" id="矩形-+-矩形-+-矩形-+-矩形蒙版">
                    <mask fill="white" id="mask-3">
                        <use xlink:href="#path-2"></use>
                    </mask>
                    <use xlink:href="#path-2" fill="url(#linearGradient-1)" id="蒙版"></use>
                    <polygon points="-21.275089 59.9826636 100.866578 -35.444865 140.884574 15.7758339 18.7429069 111.203363" mask="url(#mask-3)" filter="url(#filter-4)" opacity="0.5" fill="#FFFFFF" id="矩形"></polygon>
                    <path mask="url(#mask-3)" fill-rule="nonzero" fill="url(#linearGradient-5)" id="蒙版" d="M95.9364581,14.738133 L167.936458,55.4337851 C170.44741,56.8530187 172,59.5140025 172,62.3982879 L172,143.497634 C172,146.38192 170.44741,149.042903 167.936458,150.462137 L95.9364581,191.157789 C93.4937465,192.538452 90.5062535,192.538452 88.0635419,191.157789 L16.0635419,150.462137 C13.5525903,149.042903 12,146.38192 12,143.497634 L12,62.3982879 C12,59.5140025 13.5525903,56.8530187 16.0635419,55.4337851 L88.0635419,14.738133 C90.5062535,13.3574699 93.4937465,13.3574699 95.9364581,14.738133 Z M93.4761718,19.0909472 C92.6212227,18.6077151 91.5883117,18.5754996 90.7096344,18.9943008 L90.5238282,19.0909472 L18.5238282,59.7865993 C17.6410718,60.2855486 17.0741815,61.1937662 17.0067685,62.1965611 L17,62.3982879 L17,143.497634 C17,144.511641 17.511718,145.452049 18.3515429,146.004169 L18.5238282,146.109323 L90.5238282,186.804975 C91.3787773,187.288207 92.4116883,187.320422 93.2903656,186.901621 L93.4761718,186.804975 L165.476172,146.109323 C166.358928,145.610373 166.925818,144.702156 166.993231,143.699361 L167,143.497634 L167,62.3982879 C167,61.3842813 166.488282,60.4438726 165.648457,59.8917529 L165.476172,59.7865993 L93.4761718,19.0909472 Z"></path>
                    <mask fill="white" id="mask-8">
                        <use xlink:href="#path-7"></use>
                    </mask>
                    <use xlink:href="#path-7" fill="url(#linearGradient-6)" id="蒙版"></use>
                    <polygon points="115.550133 16.5131784 98.151 99.7841784 102.053 99.2061784 153.204581 30.2669664 177.246212 54.308597 120.384 96.4911784 181 87.5131784 181 121.513178 103.946 110.092178 100.798 114.318178 155.246212 154.71776 131.204581 178.75939 103.207 141.020178 112.031445 192.513178 69.5 192.513178 80.984 140.918178 52.7954185 178.75939 28.753788 154.71776 83.255 114.124178 80.544 110.470178 5 121.513178 5 87.5131784 62.647 95.9441784 6.75378798 54.308597 43.9539525 23.1948733 82.631 98.8671784 87.744 99.6151784 69.5 16.5131784" mask="url(#mask-8)" opacity="0.149999991" fill="#FFFFFF" id="路径"></polygon>
                    <circle r="72" cy="100.013178" cx="91.5" mask="url(#mask-8)" filter="url(#filter-9)" opacity="0.800000012" fill="#4615D9" id="椭圆形"></circle>
                    <mask fill="white" id="mask-11">
                        <use xlink:href="#path-10"></use>
                    </mask>
                    <g id="蒙版"></g>
                    <g mask="url(#mask-11)" id="编组-21">
                        <g id="椭圆形" transform="translate(0.101865, 26.880754)">
                            <g transform="translate(54.044332, 112.424077) rotate(-80.000000) translate(-54.044332, -112.424077) translate(32.899503, 73.039747)">
                                <mask fill="white" id="mask-14">
                                    <use xlink:href="#path-13"></use>
                                </mask>
                                <use xlink:href="#path-13" fill="url(#linearGradient-12)" id="蒙版"></use>
                                <path mask="url(#mask-14)" fill="url(#linearGradient-15)" d="M58.9972823,71.40971 C73.8314124,63.8245021 76.7145814,39.669101 65.4370738,17.4570606 C54.1594404,-4.75491566 32.991717,-16.6122956 18.1575676,-9.02712549 C3.32343756,-1.44191764 0.440268538,22.7134835 11.7177761,44.9255238 C22.9954095,67.1375001 44.163133,78.99488 58.9972823,71.40971 Z"></path>
                            </g>
                            <g transform="translate(45.191975, 94.739460) rotate(-56.000000) translate(-45.191975, -94.739460) translate(24.047146, 55.355129)">
                                <mask fill="white" id="mask-18">
                                    <use xlink:href="#path-17"></use>
                                </mask>
                                <use xlink:href="#path-17" fill="url(#linearGradient-16)" id="蒙版"></use>
                                <path mask="url(#mask-18)" fill="url(#linearGradient-19)" d="M58.9972823,71.40971 C73.8314124,63.8245021 76.7145814,39.669101 65.4370738,17.4570606 C54.1594404,-4.75491566 32.991717,-16.6122956 18.1575676,-9.02712549 C3.32343756,-1.44191764 0.440268538,22.7134835 11.7177761,44.9255238 C22.9954095,67.1375001 44.163133,78.99488 58.9972823,71.40971 Z"></path>
                            </g>
                            <g transform="translate(39.241488, 66.427286) rotate(-31.000000) translate(-39.241488, -66.427286) translate(18.096660, 25.426758)">
                                <mask fill="white" id="mask-22">
                                    <use xlink:href="#path-21"></use>
                                </mask>
                                <use xlink:href="#path-21" fill="url(#linearGradient-20)" id="蒙版"></use>
                                <path mask="url(#mask-22)" fill="url(#linearGradient-23)" d="M58.9972823,74.642103 C73.8314124,67.0568951 76.7145814,42.901494 65.4370738,20.6894536 C54.1594404,-1.52252267 32.991717,-13.3799026 18.1575676,-5.79473251 C3.32343756,1.79047535 0.440268538,25.9458764 11.7177761,48.1579168 C22.9954095,70.3698931 44.163133,82.227273 58.9972823,74.642103 Z"></path>
                            </g>
                            <g transform="translate(52.359796, 41.694740) rotate(-2.000000) translate(-52.359796, -41.694740) translate(31.752369, 0.694212)">
                                <mask fill="white" id="mask-26">
                                    <use xlink:href="#path-25"></use>
                                </mask>
                                <use xlink:href="#path-25" fill="url(#linearGradient-24)" id="蒙版"></use>
                                <path mask="url(#mask-26)" fill="url(#linearGradient-27)" d="M57.9224784,74.642103 C72.7566085,67.0568951 75.6397775,42.901494 64.3622699,20.6894536 C53.0846365,-1.52252267 31.9169131,-13.3799026 17.0827637,-5.79473251 C2.24863367,1.79047535 -0.634535357,25.9458764 10.6429722,48.1579168 C21.9206056,70.3698931 43.0883291,82.227273 57.9224784,74.642103 Z"></path>
                            </g>
                        </g>
                    </g>
                    <g mask="url(#mask-11)" id="编组-21">
                        <g id="椭圆形" transform="translate(136.314259, 96.924097) scale(-1, 1) translate(-136.314259, -96.924097) translate(88.063216, 26.880754)">
                            <g transform="translate(54.044332, 112.424077) rotate(-80.000000) translate(-54.044332, -112.424077) translate(32.899503, 73.039747)">
                                <mask fill="white" id="mask-29">
                                    <use xlink:href="#path-28"></use>
                                </mask>
                                <use xlink:href="#path-28" fill="url(#linearGradient-12)" id="蒙版"></use>
                                <path mask="url(#mask-29)" fill="url(#linearGradient-30)" d="M58.9972823,71.40971 C73.8314124,63.8245021 76.7145814,39.669101 65.4370738,17.4570606 C54.1594404,-4.75491566 32.991717,-16.6122956 18.1575676,-9.02712549 C3.32343756,-1.44191764 0.440268538,22.7134835 11.7177761,44.9255238 C22.9954095,67.1375001 44.163133,78.99488 58.9972823,71.40971 Z"></path>
                            </g>
                            <g transform="translate(45.191975, 94.739460) rotate(-56.000000) translate(-45.191975, -94.739460) translate(24.047146, 55.355129)">
                                <mask fill="white" id="mask-32">
                                    <use xlink:href="#path-31"></use>
                                </mask>
                                <use xlink:href="#path-31" fill="url(#linearGradient-16)" id="蒙版"></use>
                                <path mask="url(#mask-32)" fill="url(#linearGradient-33)" d="M58.9972823,71.40971 C73.8314124,63.8245021 76.7145814,39.669101 65.4370738,17.4570606 C54.1594404,-4.75491566 32.991717,-16.6122956 18.1575676,-9.02712549 C3.32343756,-1.44191764 0.440268538,22.7134835 11.7177761,44.9255238 C22.9954095,67.1375001 44.163133,78.99488 58.9972823,71.40971 Z"></path>
                            </g>
                            <g transform="translate(39.241488, 66.427286) rotate(-31.000000) translate(-39.241488, -66.427286) translate(18.096660, 25.426758)">
                                <mask fill="white" id="mask-35">
                                    <use xlink:href="#path-34"></use>
                                </mask>
                                <use xlink:href="#path-34" fill="url(#linearGradient-20)" id="蒙版"></use>
                                <path mask="url(#mask-35)" fill="url(#linearGradient-23)" d="M58.9972823,74.642103 C73.8314124,67.0568951 76.7145814,42.901494 65.4370738,20.6894536 C54.1594404,-1.52252267 32.991717,-13.3799026 18.1575676,-5.79473251 C3.32343756,1.79047535 0.440268538,25.9458764 11.7177761,48.1579168 C22.9954095,70.3698931 44.163133,82.227273 58.9972823,74.642103 Z"></path>
                            </g>
                            <g transform="translate(52.359796, 41.694740) rotate(-2.000000) translate(-52.359796, -41.694740) translate(31.752369, 0.694212)">
                                <mask fill="white" id="mask-37">
                                    <use xlink:href="#path-36"></use>
                                </mask>
                                <use xlink:href="#path-36" fill="url(#linearGradient-24)" id="蒙版"></use>
                                <path mask="url(#mask-37)" fill="url(#linearGradient-27)" d="M57.9224784,74.642103 C72.7566085,67.0568951 75.6397775,42.901494 64.3622699,20.6894536 C53.0846365,-1.52252267 31.9169131,-13.3799026 17.0827637,-5.79473251 C2.24863367,1.79047535 -0.634535357,25.9458764 10.6429722,48.1579168 C21.9206056,70.3698931 43.0883291,82.227273 57.9224784,74.642103 Z"></path>
                            </g>
                        </g>
                    </g>
                    <g transform="translate(38.000000, 61.513178)" id="编组-19">
                        <circle r="55" cy="55" cx="55" fill="url(#linearGradient-38)" id="椭圆形"></circle>
                        <g id="椭圆形">
                            <use xlink:href="#path-40" fill-rule="evenodd" fill="url(#linearGradient-39)"></use>
                            <use xlink:href="#path-40" filter="url(#filter-41)" fill-opacity="1" fill="black"></use>
                        </g>
                        <g id="椭圆形">
                            <use xlink:href="#path-43" filter="url(#filter-44)" fill-opacity="1" fill="black"></use>
                            <use xlink:href="#path-43" fill-rule="evenodd" fill="url(#linearGradient-42)"></use>
                        </g>
                        <g fill-rule="nonzero" id="180">
                            <use xlink:href="#path-46" filter="url(#filter-47)" fill-opacity="1" fill="black"></use>
                            <use xlink:href="#path-46" fill="#222222"></use>
                            <use xlink:href="#path-46" fill="url(#linearGradient-45)"></use>
                        </g>
                        <g fill-rule="nonzero" id="180">
                            <use xlink:href="#path-49" fill="#222222"></use>
                            <use xlink:href="#path-49" fill="url(#linearGradient-48)"></use>
                            <use xlink:href="#path-49" filter="url(#filter-50)" fill-opacity="1" fill="black"></use>
                        </g>
                    </g>
                    <circle r="6.5" cy="49.1295342" cx="69.5" fill="url(#linearGradient-51)" id="椭圆形"></circle>
                    <circle r="13" cy="168.513178" cx="57" fill="url(#linearGradient-52)" id="椭圆形备份-6"></circle>
                    <g transform="translate(107.040472, 41.641060) rotate(-12.000000) translate(-107.040472, -41.641060)" id="矩形">
                        <use xlink:href="#path-54" fill-rule="evenodd" fill="url(#linearGradient-53)"></use>
                        <use xlink:href="#path-54" filter="url(#filter-55)" fill-opacity="1" fill="black"></use>
                    </g>
                </g>
            </g>
        </g>
    </g>
</svg>