<svg width="1080" height="1080" viewBox="0 0 1080 1080" fill="none" xmlns="http://www.w3.org/2000/svg">
<g clip-path="url(#clip0)">
<rect width="1080" height="1080" fill="white"/>
<path d="M537.5 998.5C536.3 999.7 500.333 1026.67 482.5 1040L382 1035L466 974C468.4 966.4 510.667 681.167 531.5 539.5C535.1 551.9 555.667 565.333 565.5 570.5C554.5 601 539 997 537.5 998.5Z" fill="#DADADA" stroke="black"/>
<path d="M506.5 938.5C508.5 928.9 521 876.833 527 852C508 859 479 852 464 841.5V962C490.4 988.8 503.333 969.833 506.5 957C505.667 954.833 504.5 948.1 506.5 938.5Z" fill="#FFF4EC" stroke="black"/>
<path d="M570 449C553.6 440.6 545.833 415.167 544 403.5L516 436C519.167 442.833 525.9 460.2 527.5 475C533.333 486.833 547.5 509.6 557.5 506C570 501.5 586.142 506 583 480.5C599.5 506 600 490 597 480.5L596.932 480.285C593.946 470.827 590.346 459.421 570 449Z" fill="#FFF4EC"/>
<path d="M583 480.5C599.5 506 600 490 597 480.5C594 471 590.5 459.5 570 449C553.6 440.6 545.833 415.167 544 403.5L516 436C519.167 442.833 525.9 460.2 527.5 475C533.333 486.833 547.5 509.6 557.5 506C570 501.5 586.142 506 583 480.5ZM583 480.5C578.667 480.667 570 478.8 570 470M570 484.5C565.667 481.833 554.4 478.5 544 486.5" stroke="black"/>
<path d="M606.5 332C626.9 312.4 615 280.5 606.5 267C606.5 274.6 601.5 317.167 599 337.5L606.5 332Z" fill="#FFF4EC" stroke="black"/>
<path d="M606.5 256.5C605.944 250.526 599.333 244.333 595.5 243C576.167 233.667 536.4 215.5 532 217.5C526.5 220 496.5 232 478.5 249C460.5 266 414.5 312.5 398.5 347C385.7 374.6 341.833 418.833 321.5 437.5C348.833 465.167 417 515.3 471 494.5C484.289 474.688 519.794 426.259 555.5 391.033C558.888 390.788 562.14 390.443 565 390C600.5 384.5 601 354 601 319.5C601 306.483 608.5 278 606.5 256.5Z" fill="#504D4D"/>
<path d="M526.5 390C531.127 391.542 544.081 391.858 555.5 391.033M555.5 391.033C558.888 390.788 562.14 390.443 565 390C600.5 384.5 601 354 601 319.5C601 306.483 608.5 278 606.5 256.5C605.944 250.526 599.333 244.333 595.5 243C576.167 233.667 536.4 215.5 532 217.5C526.5 220 496.5 232 478.5 249C460.5 266 414.5 312.5 398.5 347C385.7 374.6 341.833 418.833 321.5 437.5C348.833 465.167 417 515.3 471 494.5C484.289 474.688 519.794 426.259 555.5 391.033Z" stroke="black"/>
<path d="M595 234.5C641 259.7 670.833 221.333 680 199C663.6 200.6 645.167 185 638 177C632.8 180.6 625.167 177.5 622 175.5C620.5 150 588.5 168.5 595 182C579 193.5 566 191 559 184C556.5 186.5 543.5 213 541 214.5C539 215.7 534.833 217 533 217.5C529.333 218.833 525.8 225.1 541 239.5C556.2 253.9 553 286.167 549.5 300.5C556.3 322.1 582.667 312.167 595 304.5C609.8 284.5 599.5 250.584 592.5 236.126C593.452 235.429 594.317 234.88 595 234.5Z" fill="#FFF4EC"/>
<path d="M583.5 247.5C585.044 242.558 589.272 238.49 592.5 236.126M592.5 236.126C593.452 235.429 594.317 234.88 595 234.5C641 259.7 670.833 221.333 680 199C663.6 200.6 645.167 185 638 177C632.8 180.6 625.167 177.5 622 175.5C620.5 150 588.5 168.5 595 182M592.5 236.126C599.5 250.584 609.8 284.5 595 304.5C582.667 312.167 556.3 322.1 549.5 300.5C553 286.167 556.2 253.9 541 239.5C525.8 225.1 529.333 218.833 533 217.5C534.833 217 539 215.7 541 214.5C543.5 213 556.5 186.5 559 184C566 191 579 193.5 595 182M595 182C595.833 184.333 599 188.4 605 186" stroke="black" stroke-linecap="round"/>
<path d="M534 243C509 214 451.834 266.818 427 303.651C402.321 318.603 371.04 340.46 341.5 370C289 422.5 433 469.5 528 524C536.5 567.5 569 573.5 578 571C582.309 569.803 575.667 563.5 575 562.5C568.2 535.3 579.833 528.833 585.5 530.5C587 530.833 588 532.4 588 524C588 514 566.5 504 547 493C496.5 443.5 451.5 408.5 426.5 391C508.5 334 572.033 287.119 534 243Z" fill="#FFF4EC"/>
<path d="M427 303.651C451.833 266.818 509 214 534 243C572.033 287.119 508.5 334 426.5 391C451.5 408.5 496.5 443.5 547 493C566.5 504 588 514 588 524C588 532.4 587 530.833 585.5 530.5C579.833 528.833 568.2 535.3 575 562.5C575.667 563.5 582.309 569.803 578 571C569 573.5 536.5 567.5 528 524C433 469.5 289 422.5 341.5 370C397.609 313.891 460 285.5 471.5 279.5" stroke="black"/>
<path d="M459 498C407.4 509.2 346.167 462.333 322 437.5C281.84 472.667 230.417 567.1 346 663.5C369.333 682.833 416.2 723.3 417 730.5C418 739.5 401 810 402 851.5C412 860.667 438.9 875.1 466.5 859.5L471.5 844C484.3 857.6 513.833 854.667 527 851.5C533.5 818 547.4 738.9 551 690.5C554.6 642.1 491.167 542 459 498Z" fill="#ED4F39"/>
<path d="M471.5 844C484.3 857.6 513.833 854.667 527 851.5C533.5 818 547.4 738.9 551 690.5C554.6 642.1 491.167 542 459 498C407.4 509.2 346.167 462.333 322 437.5C281.84 472.667 230.417 567.1 346 663.5C369.333 682.833 416.2 723.3 417 730.5C418 739.5 401 810 402 851.5C412 860.667 438.9 875.1 466.5 859.5L471.5 844ZM471.5 844C484.833 805.167 510.1 723.8 504.5 709C497.5 690.5 470.5 590.5 413.5 530.5" stroke="black"/>
<path d="M390 994C390.8 961.2 398.333 885.667 402 852C428 874 455.167 866.167 465.5 859.5C460.5 876.833 448.3 917.9 439.5 943.5C430.7 969.1 431.5 987.833 433 994C433 1017.5 390 1008.5 390 994Z" fill="#FFF4EC" stroke="black"/>
<path d="M478.5 999.5C429.154 977.353 443.49 953.35 460.781 945.601C463.472 962.344 494.526 963.652 506 962L515 970C573.5 1009 564.5 1038.1 478.5 999.5Z" fill="white" stroke="black"/>
<path d="M406.721 1043.31C357.374 1021.16 371.71 997.161 389.001 989.412C391.692 1006.15 425.5 1019 433 997L451.5 1010.5C510 1049.5 492.721 1081.91 406.721 1043.31Z" fill="white" stroke="black"/>
<path d="M512.908 973.02C509.299 972.84 500.865 974.138 496 980.775" stroke="black" stroke-linecap="round"/>
<path d="M441.128 1016.83C437.519 1016.65 429.085 1017.95 424.221 1024.58" stroke="black" stroke-linecap="round"/>
<path d="M522.099 977.973C518.49 977.792 510.056 979.09 505.191 985.727" stroke="black" stroke-linecap="round"/>
<path d="M450.319 1021.78C446.71 1021.6 438.276 1022.9 433.412 1029.54" stroke="black" stroke-linecap="round"/>
<path d="M529.13 983.501C525.521 983.321 517.087 984.619 512.222 991.256" stroke="black" stroke-linecap="round"/>
<path d="M457.35 1027.31C453.741 1027.13 445.307 1028.43 440.443 1035.07" stroke="black" stroke-linecap="round"/>
<path d="M702 151.5C674.5 59.5 552 127 559 184.5C570.2 195.3 587.667 187.333 595 182C589 160.5 625 154 622 175C628.8 180.6 635.491 178.333 637.987 176.5C657.132 198.505 680.078 200.757 689.5 199C699.9 187.4 702.167 162.5 702 151.5Z" fill="#ED4F39"/>
<path d="M635.5 173.5C636.321 174.539 637.15 175.538 637.987 176.5M637.987 176.5C657.132 198.505 680.078 200.757 689.5 199C699.9 187.4 702.167 162.5 702 151.5C674.5 59.5 552 127 559 184.5C570.2 195.3 587.667 187.333 595 182C589 160.5 625 154 622 175C628.8 180.6 635.491 178.333 637.987 176.5Z" stroke="#ED4F39"/>
<path d="M658 238.5C660.6 237.46 664.5 227.333 666 222C661.6 228 652.5 233.833 648.5 236C652.5 239 655.5 239.5 658 238.5Z" fill="#FFF4EC" stroke="black"/>
<circle cx="653.5" cy="210.5" r="2" fill="black" stroke="black"/>
<path d="M641.5 239.5C638 238.5 631.3 235.1 632.5 229.5" stroke="black" stroke-linecap="round"/>
<path d="M541.5 98.5001C590.5 53.5 642.5 70.5001 642.5 102C634 103 622 108.5 612.5 113C569.184 133.518 565 157 560 165C556.396 170.767 532.5 209.5 516.5 218C503.7 224.8 476.167 247.667 472 251.5C410 280 408.5 245 425.5 216.5C438.543 194.634 434 173 459.5 142.5C485 112 501.276 135.44 541.5 98.5001Z" fill="#ED4F39"/>
<path d="M615.5 176.5C612.833 175 607.1 173.6 605.5 180" stroke="black" stroke-linecap="round"/>
<path d="M421 771C435.4 698.6 483 567.167 505 510.5L528 523C526 531 533.833 544.333 538 550L535 556.5C483 693.3 455.667 948.833 448.5 1059.5C431.3 1063.1 396.333 1045.67 381 1036.5C388.333 978.167 406.6 843.4 421 771Z" fill="#DADADA" stroke="black"/>
<path d="M580.374 611.967C582.708 601.016 580.858 578.715 579.5 568C565.5 540 578 531 586 530C591.2 530.8 603.167 589.333 608.5 618.5H592.5C584.5 618.5 592 598.5 588 599C585.942 599.257 582.559 606.532 580.374 611.967C580.13 613.11 579.84 614.13 579.5 615C577.316 620.582 578.312 617.093 580.374 611.967Z" fill="#DADADA"/>
<path d="M579.5 568C581 579.833 583.1 605.8 579.5 615C575 626.5 584 599.5 588 599C592 598.5 584.5 618.5 592.5 618.5H608.5C603.167 589.333 591.2 530.8 586 530C578 531 565.5 540 579.5 568Z" stroke="black"/>
<path d="M622 549.5C618.4 522.3 592.5 492.167 580 480.5C573.2 478.5 568.833 481.333 567.5 483C570.333 483.833 577.3 487.1 582.5 493.5C587.7 499.9 600.301 531.167 605.951 546C607.537 553.247 608.693 558.732 609 559.5C610 562 611.5 553.5 615 547.5C617.8 542.7 620.833 546.833 622 549.5Z" fill="#DADADA"/>
<path d="M593.5 504C596.618 504.346 602.376 529.654 605.951 546M605.951 546C607.537 553.247 608.693 558.732 609 559.5C610 562 611.5 553.5 615 547.5C617.8 542.7 620.833 546.833 622 549.5C618.4 522.3 592.5 492.167 580 480.5C573.2 478.5 568.833 481.333 567.5 483C570.333 483.833 577.3 487.1 582.5 493.5C587.7 499.9 600.301 531.167 605.951 546Z" stroke="black"/>
</g>
<defs>
<clipPath id="clip0">
<rect width="1080" height="1080" fill="white"/>
</clipPath>
</defs>
</svg>
