<svg xml:space="preserve" style="enable-background:new 0 0 226.77 226.77;" viewBox="0 0 226.77 226.77" y="0px" x="0px" xmlns:xlink="http://www.w3.org/1999/xlink" xmlns="http://www.w3.org/2000/svg" id="图层_1" version="1.1">
<style type="text/css">
	.st0{fill:#E9A489;stroke:#000000;stroke-width:0.5;stroke-linecap:round;stroke-linejoin:round;stroke-miterlimit:10;}
	.st1{fill:#FFFFFF;stroke:#231815;stroke-width:0.5;stroke-linecap:round;stroke-linejoin:round;stroke-miterlimit:10;}
	.st2{fill:#E19986;stroke:#000000;stroke-width:0.5;stroke-linecap:round;stroke-linejoin:round;stroke-miterlimit:10;}
	.st3{stroke:#000000;stroke-width:0.5;stroke-linecap:round;stroke-linejoin:round;stroke-miterlimit:10;}
	.st4{fill:#D65156;stroke:#231815;stroke-width:0.5;stroke-linecap:round;stroke-linejoin:round;stroke-miterlimit:10;}
	.st5{fill:#FF8FA0;}
	.st6{fill:#FFAAA0;stroke:#EEEFEF;stroke-linecap:round;stroke-linejoin:round;stroke-miterlimit:10;}
	.st7{fill:#B9494C;stroke:#231815;stroke-width:0.5;stroke-linecap:round;stroke-linejoin:round;stroke-miterlimit:10;}
	.st8{fill:#112A53;stroke:#000000;stroke-width:0.5;stroke-linecap:round;stroke-linejoin:round;stroke-miterlimit:10;}
	.st9{fill:none;stroke:#000000;stroke-width:0.5;stroke-linecap:round;stroke-linejoin:round;stroke-miterlimit:10;}
	.st10{fill:#16130C;stroke:#000000;stroke-width:0.5;stroke-linecap:round;stroke-linejoin:round;stroke-miterlimit:10;}
	.st11{fill:#F7F7F7;stroke:#231815;stroke-width:0.5;stroke-linecap:round;stroke-linejoin:round;stroke-miterlimit:10;}
	.st12{fill:#F3C9AD;stroke:#000000;stroke-width:0.5;stroke-linecap:round;stroke-linejoin:round;stroke-miterlimit:10;}
	.st13{fill:#FFB8A0;stroke:#000000;stroke-width:0.5;stroke-linecap:round;stroke-linejoin:round;stroke-miterlimit:10;}
	.st14{fill:#FFAAA0;}
	.st15{fill:#231815;stroke:#000000;stroke-width:0.5;stroke-linecap:round;stroke-linejoin:round;stroke-miterlimit:10;}
	.st16{fill:#DBDBDB;stroke:#231815;stroke-width:0.5;stroke-linecap:round;stroke-linejoin:round;stroke-miterlimit:10;}
	.st17{fill:none;stroke:#231815;stroke-width:0.5;stroke-linecap:round;stroke-linejoin:round;stroke-miterlimit:10;}
	.st18{fill:none;stroke:#5DA69E;stroke-linecap:round;stroke-linejoin:round;stroke-miterlimit:10;}
	.st19{fill:#616161;stroke:#231815;stroke-width:0.5;stroke-linecap:round;stroke-linejoin:round;stroke-miterlimit:10;}
	.st20{fill:#40220F;stroke:#231815;stroke-width:0.5;stroke-linecap:round;stroke-linejoin:round;stroke-miterlimit:10;}
</style>
<g>
	<path d="M217.68,112.22c0.18,0.18,3.53,3.93,3.76,2.74c0.23-1.2-1.99-3.93-4.84-6.27
		c-2.85-2.34-13.17-9.43-13.51-11.07c-0.34-1.64-3.31,2.29-3.31,2.29v3.33c0,0,4.22,3.48,7.12,4.66c2.91,1.18,7.35,2.38,8.26,3.12
		c0.91,0.74,0.68,2.23,1.25,2.74s0.63-0.57,0.51-0.97C216.83,112.39,217.08,111.63,217.68,112.22z" class="st0"></path>
	<path d="M133.57,103.93c4.13-5.59,8.48-8.8,11.41-10.6c12.45-7.65,26.37-6.67,33.24-5.81c0,0,6.46,0.88,6.46,0.88
		c0.25,0.06,4.18,1.07,5.35,4.66c1.17,3.62-1.47,6.75-1.98,7.35c-0.86,1.02-1.8,1.66-2.47,2.04c-3.17-0.49-6.34-0.99-9.51-1.48
		c-4.57-1.33-8.19-2.41-10.62-3.15c-2.53-0.77-3.52-1.08-5.07-1.24c-2.63-0.26-3.69,0.29-9.18,1.45c-6.97,1.47-7.76,1.15-9.32,2.45
		c-2.5,2.09-3.44,5.42-3.96,5.21c-0.42-0.17,0.22-2.46-0.36-2.69c-0.4-0.16-0.87,0.88-2.02,1.17
		C134.79,104.37,134.08,104.16,133.57,103.93z" class="st0"></path>
	<path d="M202.03,100.16c0.01,0.59-0.03,2.07-0.98,3.55c-0.7,1.09-1.58,1.71-2.08,2.01c-2.84,1.15-6.59,3.24-8.4,7.14
		c-0.93,2-0.96,3.63-1.07,4.41c-0.52,3.65-5.58,8.56-26.28,13.75c-1.07-2.53-3.88-10.11-1.49-19.31c1.69-6.48,5.18-10.79,7.13-12.87
		c2.37,0.7,6.43,1.58,10.41,0.64c1.12-0.27,2.1-0.65,2.9-1.48c1.81-1.89,1.35-4.68,1.3-4.94c-0.33-1.82-1.43-2.96-1.73-3.27
		c-1.36-1.39-3.53-2.26-3.53-2.26c1.86-0.23,4.54-0.48,7.79-0.52c2.8-0.03,4.79-0.06,6.22,0.26
		C198.02,88.54,201,96.81,202.03,100.16z" class="st1"></path>
	<path d="M194.48,92.03c-0.66,0.24-0.46,2.46-0.08,6.85c0.28,3.24,0.57,3.83,1.04,4.13c1.84,1.18,5.78-2.31,5.95-2.46
		C197.19,93.17,195.35,91.72,194.48,92.03z" class="st2"></path>
	<path d="M209.31,83.46c-0.68-1.97-2.52-4.39-5.19-4.94c-4.2-0.86-8.33,3.37-9.41,6.89c-0.23,0.74-0.37,2.12-0.64,4.88
		c-0.27,2.67-0.45,4.01-0.25,4.89c0.49,2.15,4.4,5.77,5.01,6.25c0.6,0.48,3.64-1.47,4.55-2.21c0.92-0.74,3.4-5.18,4.46-7.15
		c0,0,0-0.01,0-0.01C208.4,91.07,210.6,87.18,209.31,83.46z" class="st0"></path>
	<path d="M194.51,86.68c-0.14,1.06-0.27,2.14-0.4,3.24c-0.1,0.87-0.19,1.72-0.27,2.57c-0.72-0.27-1.14-0.67-1.37-0.93
		c-1.07-1.24-1.06-3.21-0.25-4.29c0.15-0.19,0.44-0.57,0.96-0.72C193.8,86.36,194.34,86.6,194.51,86.68z" class="st0"></path>
	<g>
		<circle r="0.31" cy="88.7" cx="198.84" class="st3"></circle>
		<circle r="0.31" cy="91.27" cx="205.51" class="st3"></circle>
		<path d="M199.39,94.78c0.88,0.3,1.76,0.6,2.64,0.9c-0.3,1.19-1.26,1.83-1.85,1.69
			C199.55,97.22,198.94,96.08,199.39,94.78z" class="st4"></path>
	</g>
	
		<ellipse ry="1.83" rx="1.04" cy="89.68" cx="196.33" class="st5" transform="matrix(0.3292 -0.9443 0.9443 0.3292 47.0261 245.5522)"></ellipse>
	
		<ellipse ry="1.83" rx="1.04" cy="93.64" cx="206.72" class="st5" transform="matrix(0.3292 -0.9443 0.9443 0.3292 50.2504 258.0118)"></ellipse>
	<g>
		<path d="M201.72,79.74c0,0-0.83,0.23-1.87,0.93" class="st6"></path>
		<line y2="81.77" x2="198.47" y1="81.51" x1="198.67" class="st6"></line>
	</g>
	<g>
		<path d="M196.97,160.08c0,0-5.43,0.8-2.92,7.9c2.52,7.1,6.35,11.7,7.98,12.3c1.63,0.6,6.09-4.5,3.16-10.8
			C202.27,163.18,196.97,160.08,196.97,160.08z" class="st7"></path>
		<path d="M169.86,146.65c0,0-3.62,3.11,1.33,15.98c0,0,1.85,6.8,7.4,5.7s4.71-8.28,4.71-8.28l-1.88-8.36L169.86,146.65
			z" class="st7"></path>
		<path d="M203.4,179.89c0,0-0.79,0.7-1.37,0.38c-0.58-0.32-10.04-14.59-5.66-18.5c4.38-3.91,0.72,1.71,0.72,1.71
			S194.85,167.71,203.4,179.89" class="st1"></path>
		<path d="M171.21,152.17c0,0-0.38,9.13,2.81,15.02c0,0,0.53,0.86,1.93,1.05c0,0-3.42-7.05-2.9-14.02
			C173.58,147.27,171.21,152.17,171.21,152.17z" class="st1"></path>
	</g>
	<g>
		<path d="M196.93,116.6c1.05,0.99,2.67,2.47,4.75,4.14c12.4,10.02,18.89,9.33,21.25,14.79
			c1.94,4.48,0.36,10.34-6.11,20.12c-3.06,4.62-4.91,17.43-11.32,17.23c-3.21-2.23-5.21-4.62-6.39-6.28
			c-1.68-2.37-3.03-4.27-3.08-6.91c-0.06-3.05,1.64-5.33,3.05-7.22c3.84-5.15,7.67-5.47,7.62-7.98c-0.04-2.07-2.7-3.71-5.47-5.42
			c-2.21-1.36-4.24-2.08-5.59-2.47C196.09,129.95,196.51,123.27,196.93,116.6z" class="st8"></path>
		<path d="M176.79,137.27c-0.08-0.42-2.88,0.29-6.19-0.41c-1.18-0.25-6-1.27-7.35-4.47
			c-1.84-4.32,3.18-11.33,3.12-11.35c0,0,0,0,0,0c0,0,2.54-3.28,4.17-4.74c0.87-0.78,3.62-2.95,12.17-2.75
			c8.43,0.2,17.71,0.42,20.33,6.01c2,4.26-0.62,10.07-2.46,14.13c-0.78,1.73-1.69,3.14-3.5,5.96c-6.78,10.55-11.47,13.56-13.4,15.21
			c-1.81,1.54-3.4,1.86-4.27,1.93c-4.29,0.34-9.03-3.81-11.12-10.52c-0.09-1.05-0.07-2.79,0.89-4.4
			C171.35,138.23,176.9,137.85,176.79,137.27z" class="st8"></path>
		<path d="M193.07,129.8c-1.02,0.06-2.58,0.25-4.3,0.95c-3.13,1.27-4.07,3.12-7.45,4.87c-1,0.52-2.51,1.19-4.53,1.65" class="st9"></path>
	</g>
</g>
<g>
	<g>
		<path d="M6.12,104.36C6.12,104.36,6.13,104.36,6.12,104.36c1.48-1.75,4.25-3.38,6.8-3.1c2.58,0.28,4.61,2.5,4.61,2.5
			c0,0-0.16-0.1-0.29-0.19c0,0,0.32,0.51,0.72,1.31c0,0,0.71,1.42,1.18,3.03c0.92,3.13,1.19,8.82,1.19,8.82
			c0.43,9.2,0.69,10.65-0.62,12.83c-1.05,1.75-2.32,2.66-2.7,2.92c-2.57,1.75-5.72,1.89-6.89,1.6
			C3.91,132.51,5.93,106.72,6.12,104.36z" class="st8"></path>
		<path d="M17.59,117.5c0.04,0.49,0.41,6.02-0.98,11.66c-0.25,1.01-0.66,2.46-1.86,3.57
			c-1.22,1.12-2.94,1.63-4.47,1.33c-2.7-0.52-4.1-3.37-4.89-5.01c-0.48-0.99-1.34-3.02-1.68-10.71c-0.35-7.85,0.36-10.02,0.91-11.31
			c0.6-1.41,1.69-3.79,3.98-4.56c2.83-0.94,5.49,1.26,5.71,1.44C16.74,105.99,17.02,109.83,17.59,117.5z" class="st10"></path>
	</g>
	<g>
		<path d="M18.51,107.91c7.37-0.35,11.8-2.6,14.52-4.67c2.4-1.82,7.62-6.66,10.36-5.32c0.22,0.11,0.44,0.26,0.49,0.21
			c0.37-0.39-7.63-8.59-10.91-8.95c-2.31-0.25-5.68-0.04-8.83,1.85c-2.42,1.46-3.64,3.25-5.04,5.32c-2.18,3.21-2.93,6.08-2.4,7.23
			c0,0,0.03,0.06,0.66,1.38l0,0c0.16,0.42,0.33,0.84,0.49,1.26C18.06,106.78,18.29,107.34,18.51,107.91z" class="st11"></path>
		<path d="M42.23,96.77c0,0-4.04-6.58-13.57,2.4s-10.15,8.42-10.15,8.74c0,0.32,2.03,11.41,0.55,21.64
			c0,0,1.33,4.36,19.14-15.78c5.66,1.32,7.93,1.67,8.75,1.65c0.2,0,0.74-0.04,1.41,0.16c0.65,0.2,1.41,0.61,1.41,0.61l0,0
			c0,0,3.21,0.88,5.3,0.5c2.6-0.47,4.86-3.13,5.24-4.98C61.17,107.56,53.82,101.59,42.23,96.77z" class="st11"></path>
		<path d="M38.19,113.77c0,0,1.59-1.94,2.43-4.4" class="st11"></path>
		<path d="M34.8,117.52c0,0,2.2-4.7,2.2-9.25" class="st11"></path>
	</g>
	<path d="M24.28,74.59c0,0-6.77,2.33-10.36,2.25c-3.59-0.08,2.34,4.14,6.33,2.5c0,0-2.34,3.4,0,1.9s4-3.23,5.08-4.32
		C26.41,75.83,24.28,74.59,24.28,74.59z" class="st12"></path>
	<path d="M60.9,126.91c0,0-3.64,2.55-2.69,3.27s2.69-0.6,2.69-0.6s2.62,5.56,6.85,5.2s-2.59-7.53-2.59-7.53
		L60.9,126.91z" class="st12"></path>
	<path d="M24.3,73.71c0,0,7.17-1.57,11.41-3.62c0.76-0.33,2.43-0.92,4.31-0.39c0.92,0.26,1.77,0.76,3.12,2.06
		c2.19,2.12,2.71,3.5,3.89,4.95c3.82,4.71,11.09,5.91,11.09,5.91l0,0c0,0,5.32,4.14,4.43,13.09c-0.89,8.95,3.62,7.85,3.62,7.85
		c0.2,3.55,0.31,7.32,0.29,11.27c-0.02,4.29-0.19,8.36-0.46,12.18c-1.6,0.53-3.79,0.99-5.08-0.09c-1.32-1.11-0.86-3.1-0.96-6.76
		c-0.1-3.96-0.21-8.4-2.39-11.06c-0.86-1.06-3.11-3.12-8.87-3.07c-0.72-1.69-1.86-3.87-3.63-6.15c-1.9-2.44-3.89-4.14-5.44-5.28
		c-0.52-1.16-1.1-2.75-1.39-4.7c-0.43-2.86-0.08-5.25,0.27-6.76c0.54-2.32-0.22-3.97-1.37-4.92c-0.83-0.69-1.76-0.66-4.1-0.65
		c-1.5,0.01-3.88,0.01-6.96-0.04c-0.29-0.19-1.05-0.72-1.49-1.74C24.18,74.88,24.25,74.06,24.3,73.71z" class="st7"></path>
	<g>
		<path d="M47.99,87.14c0,0-0.29,4.4,3.72,4.63c4.01,0.23,3.83-4.59,3.98-5.08C55.84,86.21,47.99,87.14,47.99,87.14z" class="st13"></path>
		<path d="M46.26,81.9c0.24,0.66,0.47,1.37,0.69,2.11c0.12,0.41,0.23,0.82,0.33,1.21c-0.55,0.17-0.94,0.04-1.09-0.01
			c-0.95-0.37-1.27-1.69-0.99-2.5c0.05-0.14,0.15-0.42,0.43-0.62C45.87,81.92,46.14,81.9,46.26,81.9z" class="st12"></path>
		<path d="M57.11,81.9c-0.2,0.61-0.39,1.27-0.57,1.95c-0.1,0.38-0.19,0.76-0.26,1.12c0.51,0.14,0.86,0.01,1-0.04
			c0.86-0.37,1.12-1.59,0.84-2.32c-0.05-0.13-0.14-0.38-0.41-0.56C57.47,81.91,57.22,81.9,57.11,81.9z" class="st12"></path>
		<path d="M57.25,79.62c0-3.06-2.48-5.53-5.53-5.53c-3.06,0-5.53,2.48-5.53,5.53c0,0.14,0.03,0.27,0.04,0.41
			c-0.01,0-0.02,0-0.03,0c0.05,0.86,0.17,1.81,0.38,2.83c0.52,2.47,1.42,4.45,2.24,5.88c0,0,1.96,2.02,3.41,1.58
			c1.45-0.45,2.01-0.89,2.79-1.96c0.78-1.06,2.09-7.54,2.09-7.54c0,0,0,0-0.01,0C57.19,80.44,57.25,80.04,57.25,79.62z" class="st12"></path>
	</g>
	<g>
		<circle r="0.24" cy="82.18" cx="48.93" class="st3"></circle>
		<circle r="0.24" cy="82.18" cx="54.39" class="st3"></circle>
		<path d="M50.99,86.36c0.71-0.03,1.42-0.05,2.13-0.08c0.11,0.93-0.39,1.65-0.85,1.71
			C51.77,88.06,51.02,87.42,50.99,86.36z" class="st4"></path>
		<ellipse ry="0.83" rx="1.49" cy="83.96" cx="47.67" class="st14"></ellipse>
		<ellipse ry="0.83" rx="1.49" cy="83.96" cx="55.3" class="st14"></ellipse>
	</g>
	<path d="M56.68,74.95l2.8-0.4l-3.86-0.86c0,0,1.83-2.58,1.63-2.37c-0.2,0.2-3.1,1.27-3.1,1.27l-1.74-2.35l-1.48,1.74
		l-2.25-1.74v2.71c0,0-2.98-3.65-2.99-3.45c-0.01,0.2,1.97,4.35,1.97,4.35l-2.87,0.43l1.81,1.09c0,0-2.96,1.6-2.62,1.67
		c0.16,0.03,0.59,0.1,1.01,0.16c-0.02,0.32-0.37,2.56-0.19,2.51c0.18-0.05,0.9-0.56,0.9-0.56l-0.47,1.73l0.55-0.32l0.12-3.24
		c0,0,1.42,2.41,1.42,1.74c0.01-0.67,0.8-3.16,0.8-3.16s0.46,1.95,0.57,1.92c0.11-0.03,0.68-1.92,0.68-1.92l0.57,2.49l1.01-2.56
		l0.79,2.96l0.38-2.96l0.94,1.48l0.97-1.48l1.63,2.49l0.58-1.01l1.36,2.49l-0.06,1.44l1.06-0.37l-0.87-0.86l0.87-0.99l-0.87-1.93
		c0,0,1.34,1.17,1.4,0.82C59.14,77.57,56.68,74.95,56.68,74.95z" class="st15"></path>
</g>
<g>
	<path d="M121.36,180.84c0,0,0.99,5.82,0,11.26c-0.69,3.78,0.01,7.7,2.61,9.32c1.67,1.04,3.79,0.72,4.54,0.6
		c0.98-0.16,3.04-0.67,4.59-2.43c0.47-0.53,1.41-1.77,1.82-4.37c0.92-5.87-1.83-12.74-2.68-14.77
		C128.61,180.59,124.98,180.72,121.36,180.84z" class="st16"></path>
	<g>
		<path d="M124.86,186.97c0,0,3.3-0.18,6.99,3.06" class="st17"></path>
		<path d="M131.38,186.97c-0.2,0.37-3.83,0.71-6.02,2.72" class="st17"></path>
		<path d="M125.37,190.52c0,0,5.88,1.24,6.49,2.97" class="st17"></path>
		<path d="M131.86,191.32c0,0-5.54-0.06-6.21,1.95" class="st17"></path>
	</g>
	<path d="M134.45,102.37c0.1,0.3,13.19,6.7,23.04,29.15c0,0,4.04,7.38,3.25,15.07s-19.08,34.07-27.36,39.19
		c0,0-8.77,3.94-12.02-4.92c0,0-1.39-2.72,0.83-9.34C124.41,164.89,134.45,102.37,134.45,102.37z" class="st11"></path>
	<path d="M137.44,117.68c0,0,7.83-1.87,10.36,1.58c2.53,3.45-28.85,39.97-28.78,40.17c0.07,0.21-4.02-4.45-4.2-5.14
		s10.02-32.06,10.02-32.06L137.44,117.68z" class="st16"></path>
	<path d="M146.72,94.04c0.5-0.39,3.23,3.06,7.18,6.23c4.99,3.99,9.05,5.21,8.72,6.29c-0.26,0.87-3.15,0.71-3.51,0.68
		c-2.2-0.13-3.66-1.17-3.98-1.41c-1.21-0.9-1.85-1.98-2.15-2.57c-0.02,0.65-0.15,3.19-1.87,4.35c-0.25,0.17-0.63,0.43-0.91,0.29
		c-0.64-0.32,0.3-2.39,0.01-4.35c-0.19-1.25-0.95-2.85-3.35-4.53c0.15-0.68,0.3-1.71,0.16-2.93
		C146.9,94.76,146.53,94.19,146.72,94.04z" class="st12"></path>
	<path d="M54.99,104.37c0,0-7.04,2.62-9.19,3.84s-4.96,13.01-3.93,16.66c1.03,3.65,7.49-9.08,9.08-10.25
		s7.02-3.88,7.02-3.88s2.43,3.3,4.02,2.72s2.15-0.48,0.47-2.35c-1.68-1.87-2.99-4.72-2.99-4.72L54.99,104.37z" class="st12"></path>
	<g>
		<path d="M114.03,56.5c-1.82,0-5.09,0.13-9.48,1.24C90.91,61.2,80.44,70.54,75.1,76.02c0,0-4.31,4.24-9.32,9.52
			c-2.74,2.88-8.62,8.01-13.56,15.69c-1.14,1.77-2.08,3.43-1.48,4.78c1,2.25,6.23,2.03,9.53,1.05c4.1-1.22,6.59-4.04,7.69-5.48
			c2.26-2.37,4.26-4.21,5.73-5.49c6.09-5.32,5.54-3.32,14.88-9.68c0.74-0.5,1.86-1.28,2.84-0.9c1.71,0.66,1.76,4.39,1.76,6.98
			c0.02,4.88-0.88,7.14-1.3,10.8c-0.29,2.53-0.4,6.21,0.57,10.84c0.66-1.24,1.88-3.11,4.02-4.62c0,0,1.48-1.05,3.44-1.71
			c3.49-1.19,11.65-1.64,22.3-0.83l3.91-19.38c0,0,3.49-1.66,5.07-3.91c0.44,2,1.77,6.77,5.8,10.39c0.17,0.15-0.02-0.02,6.1,3.75
			c1.32,0.81,2.5,1.54,3.81,1.2c0.96-0.25,1.6-0.96,1.95-1.46c0.29-0.58,0.72-1.64,0.49-2.86c-0.16-0.88-0.59-1.48-0.77-1.71
			c-2.33-2.91-5.16-4.33-7.4-8.9c-3.79-7.73-0.67-14.12-6.93-21.24C128.67,56.53,118.25,56.51,114.03,56.5z" class="st8"></path>
		<path d="M90.25,85.5c0.98-0.71,2.4-1.58,4.25-2.25c1.92-0.7,3.63-0.94,4.87-1.01" class="st8"></path>
		<path d="M131.17,83.68c0,0,1.32-1.31,1.99-3.34" class="st8"></path>
	</g>
	<g>
		<path d="M135.84,99.91c-1.71-13.08-4.5-11.99-7.34-12.21c-2.83-0.22-15.15,1.2-19.73,4.91
			c-4.58,3.71-8.72,15.34-8.72,15.34c-1.01,0.08-4.83,0.48-6.68,3.38c-0.63,0.99-0.77,1.86-1.02,3.33
			c-0.69,4.12,0.27,7.58,0.73,9.14c0.7,2.42,1.96,5.33,1.96,5.33c5.67,13.63,14.5,10.03,14.5,10.03c3.16,7.63-1.31,6.76,1.96,16.24
			c3.27,9.48,7.2,14.06,6.43,11.88c-0.76-2.18-0.44-4.03-0.11-11.88c0.33-7.85,5.12-25.4,9.16-29.87
			c4.03-4.47,10.25-7.41,10.47-7.85C137.66,117.24,137.55,112.99,135.84,99.91z" class="st1"></path>
		<path d="M109.53,139.15c0,0-2.51-5.23,0-10.9c2.51-5.67,5.61-16.57,6.78-23.44c0,0,0.85-5.45,2.7-5.45" class="st9"></path>
		<path d="M100.05,107.94c-0.54,1.39-1.15,2.41-1.62,3.11c-0.92,1.36-1.55,1.82-1.72,2.82
			c-0.19,1.11,0.34,2.13,0.83,2.83" class="st9"></path>
		<path d="M118.54,100.79c0.13,0.59,0.3,1.5,0.38,2.63c0.25,3.86-0.98,5.73-1.99,10.3c-0.94,4.23-0.06,4.04-1.16,7.64
			c-1.1,3.61-1.97,4.69-2.67,7.12c-0.71,2.45-1.1,6.17,0.66,11.44c0.53,1.54,1.04,3.83,0.46,6.39c-0.37,1.65-0.88,2.15-1.21,3.34
			c-0.49,1.78-0.38,4.56,2.59,8.8" class="st18"></path>
		<g>
			<path d="M94.69,111.49c-0.26,1.17-1.4,6.91,1.99,10.7c0.67,0.75,1.46,1.64,2.64,1.77c3.42,0.37,6.68-5.96,7.99-8.52
				c4.04-7.87,3.67-14.03,7.55-15.3c0.85-0.28,1.62-0.23,2.07-0.17" class="st18"></path>
		</g>
	</g>
	<path d="M141.8,119.05c1.71-0.45,4.1-1.04,6,0.21c2.61,1.72,2.48,5.78,2.59,7.78c0.15,2.7-0.5,5.79-2.59,9.5
		c-4.37,7.78-9.52,8.88-10.36,14.88c-0.84,6.01,1.82,13.11-6.27,18.98c-1.23,0.89-3.26,2.14-5.93,1.97
		c-4.12-0.26-6.6-3.84-7.03-4.46c-0.3-0.44-0.79-1.21-1.2-2.29c-0.76-2.02-1.63-6.19,2.08-14.68c1.68-3.85,2.09-3.65,4.59-8.38
		c4.79-9.05,3.41-10.7,7.16-15.68C132.67,124.48,136.29,120.5,141.8,119.05z" class="st19"></path>
	<path d="M114.28,62.5c0,0-1.65,7.09,1.31,10.3s9.24,6.05,12.41,1.59c3.17-4.46-9.62-13.35-9.62-13.35L114.28,62.5" class="st13"></path>
	<path d="M134.24,48.57c-1.5-2.38-4.65-5.02-8.34-4.92c-5.79,0.15-9.94,6.98-10.3,11.94c-0.08,1.04,0.16,2.9,0.64,6.62
		c0.46,3.6,0.63,5.42,1.16,6.52c1.3,2.68,7.56,6.26,8.5,6.71c0.94,0.45,4.34-3.04,5.33-4.29c0.98-1.25,2.9-7.86,3.7-10.78
		c0,0,0-0.01,0-0.01C135.37,58.87,137.08,53.08,134.24,48.57z" class="st12"></path>
	<path d="M115.59,58.9c0.28,1.3,0.53,2.68,0.74,4.13c0.12,0.8,0.22,1.59,0.3,2.36c-1.08,0.17-1.77-0.16-2.04-0.3
		c-1.68-0.94-1.95-3.49-1.22-4.95c0.13-0.25,0.38-0.76,0.96-1.05C114.86,58.82,115.36,58.87,115.59,58.9z" class="st12"></path>
	<path d="M115.66,55.58c0,0,0.7,2.67,2.19,0c0,0,1.99,4.08,3.37,0c0,0,4.22,1.54,4.55-1.88c0,0,3.44,5.36,6.45,0
		c0,0,1.44,4.83,4.86,2.59c3.43-2.24,0.42-6.71-1.94-6.01c-2.36,0.7,0,0,0,0s4.22-3.95-1.93-3.12c-6.15,0.83,0,0,0,0
		s2.01-6.72-4.66-3.52c0,0-2.89-5.23-4.47,0c-1.58,5.23,0,0,0,0s-4.91-2.37-3.73,2.44c1.18,4.81,0,0,0,0s-7.85-5.81-5.49,3.28
		c0,0-4.65,1.88,0,3.29C114.87,52.65,110.1,55.58,115.66,55.58" class="st20"></path>
	<g>
		<circle r="0.37" cy="60.67" cx="121.29" class="st3"></circle>
		<circle r="0.37" cy="60.67" cx="129.76" class="st3"></circle>
		<path d="M124.49,67.16c1.1-0.04,2.2-0.08,3.3-0.13c0.17,1.45-0.61,2.56-1.33,2.66
			C125.7,69.79,124.54,68.79,124.49,67.16z" class="st4"></path>
		<ellipse ry="1.28" rx="2.31" cy="63.44" cx="119.35" class="st14"></ellipse>
		<ellipse ry="1.28" rx="2.31" cy="63.44" cx="131.17" class="st14"></ellipse>
	</g>
</g>
</svg>
