<?xml version="1.0" encoding="UTF-8"?>
<svg width="196px" height="366px" viewBox="0 0 196 366" version="1.1" xmlns="http://www.w3.org/2000/svg" xmlns:xlink="http://www.w3.org/1999/xlink">
    <!-- Generator: Sketch 55.2 (78181) - https://sketchapp.com -->
    <title>编组 16</title>
    <desc>Created with Sketch.</desc>
    <g id="页面1" stroke="none" stroke-width="1" fill="none" fill-rule="evenodd">
        <g id="画板" transform="translate(-155.000000, -657.000000)">
            <g id="编组-16" transform="translate(155.000000, 657.000000)">
                <path d="M141.534086,25.251053 C149.92849,23.5042032 156.895621,31.1104503 160.379544,40.696624 C163.863467,50.2827977 163.831162,64.0370366 179.091536,62.7849116 C194.351911,61.5327867 199.832885,77.1853384 193.270486,82.2989636 C186.708087,87.4125889 192.764855,91.9520882 183.961332,99.9354646 C175.157809,107.918841 170.832428,105.335036 165.070263,99.9354646 C159.308097,94.535893 144.925103,96.3826666 133.89164,101.830489 C122.858177,107.278311 113.678574,79.9319969 120.148545,70.644577 C126.618516,61.3571572 123.216286,52.8072484 123.216286,45.7461382 C123.216286,38.685028 133.139682,26.9979028 141.534086,25.251053 Z" id="路径-96" fill="#725D51"></path>
                <path d="M141.990665,62.7106651 C148.979686,61.4966432 152,56.2043736 152,48 C152,39.7956264 150.04617,33 141.990665,33 C137.185658,33 130.584049,33.0676661 127.946734,37.3400589 C126.162639,40.2302526 127.336191,48.1961862 127.946734,52.0200932 C129.459804,61.4966432 135.001644,63.924687 141.990665,62.7106651 Z" id="椭圆形" fill="#FCDBD2"></path>
                <path d="M151.903399,53 C154.059187,53 155,49.3528876 155,47.4892485 C155,45.6256093 154.059187,46.0390507 151.903399,46.0390507 C149.747611,46.0390507 148,47.5973123 148,49.5195253 C148,51.4417384 149.747611,53 151.903399,53 Z" id="椭圆形" fill="#FCDBD2"></path>
                <path d="M44,52.1010167 C35.9241076,44.1980093 21.4006815,30.0300664 19.5111144,21.002391 C17.2711438,20.903122 14.1809766,23.8949575 10.240613,29.9778974 C7.95845422,29.6332021 8.82488936,31.2385359 12.8399184,34.7938989 C16.8549474,38.349262 22.8126813,47.4179623 30.71312,62 C39.57104,59.2424935 44,55.9428324 44,52.1010167 Z" id="路径-118" fill="#FCDBD2"></path>
                <path d="M130.85021,30.8124485 C126.167516,35.2177623 128.802849,40.2884344 134.63731,44.0834313 C138.526951,46.6134293 145.30831,46.2790045 154.981387,43.0801569 C155.695387,34.0858491 153.301803,28.4469182 147.800635,26.1633643 C139.548883,22.7380334 135.532904,26.4071347 130.85021,30.8124485 Z" id="路径-84" fill="#725D51" transform="translate(141.775024, 35.287088) rotate(23.000000) translate(-141.775024, -35.287088) "></path>
                <path d="M129.504811,51.4303226 C131.756301,45.1653385 129.727571,30.0297917 129.728057,26.4130871 C120.947179,26.2568887 122.03292,48.5283977 129.504811,51.4303226 Z" id="路径-85" fill="#725D51" transform="translate(127.042033, 38.921296) rotate(23.000000) translate(-127.042033, -38.921296) "></path>
                <path d="M137.696351,62.7317962 C138.683698,68.7835985 136.124083,71.8094996 130.017507,71.8094996 C120.857642,71.8094996 134.79769,77.5261243 142.036357,76.9606541 C146.862135,76.583674 151.18335,74.4419083 155,70.5353569 C150.585214,70.0249362 148.37782,65.1798173 148.37782,56 C144.841426,57.3889393 141.280936,59.6328713 137.696351,62.7317962 Z" id="路径-102" fill="#FCDBD2"></path>
                <polygon id="路径-122" fill="#FCDBD2" points="130 274 135.094086 345 147.954632 345 149 274"></polygon>
                <path d="M122.45262,126.10078 C104.246043,110.006513 75.6942595,74.4295997 67.647835,67.8222701 C62.2835519,63.4173837 50.9829741,51.8099603 33.7461014,33 L13,60.0868037 C51.8407916,106.133598 77.3407916,137.002218 89.5,152.692664 C107.738813,176.228333 120.585049,171.292387 123.694377,177.210021 C124.942728,197.754242 125.039398,247.017568 123.984389,325 L157.095342,325 C161.805697,246.153694 164.657006,198.176104 165.649267,181.067231 C167.101335,156.030228 164.044631,137.708078 156.479154,126.10078 C143.985537,124.31024 135.322557,123.052067 130.490215,122.326259 C127.534509,121.882319 124.954428,127.156049 122.45262,126.10078 Z" id="路径-117" fill="#838181"></path>
                <path d="M118.187158,76.8668188 C99.7639637,86.0351606 96.4904256,92.1472567 91.3351702,97.5720123 C87.8983332,101.188516 91.0965204,103.997845 100.929732,106 C118.217669,96.8099061 126.683014,90.6875247 126.325766,87.6328557 C125.789894,83.0508522 136.610352,67.6984771 118.187158,76.8668188 Z" id="路径-114" fill="#FF9D7E"></path>
                <path d="M131.475266,71.8695649 C125.063056,71.8695649 118.34692,72.7193994 118.34692,76.9564093 C118.34692,81.1934192 117.021489,82.356072 120.353758,90.9714232 C123.686028,99.5867744 120.353758,102.482258 120.353758,110.073282 C120.353758,117.664305 118.502179,120.516796 117,124.476949 C118.51608,124.476949 128.025573,132 138.659604,132 C145.748957,132 151.657124,130.157747 156.384104,126.473242 C158.409174,105.871099 160.607065,92.3759458 162.977777,85.9877813 C164.678806,81.404157 166.762692,71.948015 162.420808,71.1956668 C158.078923,70.4433185 155.467656,69.8204653 152.619967,69 C148.46617,76.800696 137.441867,77.1121226 131.475266,71.8695649 Z" id="路径-103" fill="#FF9D7E"></path>
                <path d="M91.0029008,95.3182738 C83.4152216,100.501273 81.2230431,105.069579 84.4263652,109.023193 C87.6296873,112.976807 94.7906451,111 105.909239,103.092773 C106.433252,97.0604843 104.688212,93.505227 100.674118,92.4270008 C96.6600243,91.3487746 93.4362852,92.3125323 91.0029008,95.3182738 Z" id="路径-115" fill="#FF9D7E"></path>
                <path d="M88,80.0507696 C88,80.0507696 88.4336488,78.9063796 89.3009464,76.6175996 C95.9323863,75.1514043 101.376218,76.2957943 105.632441,80.0507696 C109.888664,83.8057449 111.536149,85.7782485 110.574895,85.9682805 L113,94 L103.463819,85.9682805 C93.1546064,82.0232732 88,80.0507696 88,80.0507696 Z" id="路径-143" fill="#F0E6D2"></path>
                <path d="M166.758254,71.9266657 C155.822035,64.5289585 154.587163,80.4696966 157.097407,85.4716705 C158.770903,88.8063198 161.568171,97.9824296 165.48921,113 L180,113 C176.722374,100.165989 174.394014,91.5547883 173.014919,87.1663978 C170.333493,78.6338888 169.955027,74.089094 166.758254,71.9266657 Z" id="路径-104" fill="#FF9D7E"></path>
                <path d="M107,82.6972635 C107,82.6972635 109.031627,70.4481952 130.239837,76.8541801 C130.128749,77.3885983 129.61674,77.8740822 129.234729,79.3124078 C130.862218,85.9501619 137,100 137,100 C137,100 119.22027,93.4960116 117.213447,95.7036875 C115.875566,97.1754715 114.584232,95.8784184 113.339447,91.8125283 C109.113149,85.7356851 107,82.6972635 107,82.6972635 Z" id="路径-144" fill="#F0E6D2"></path>
                <path d="M129.814141,75 C135.525384,84.2723086 138.248093,91.8475928 137.982266,97.7258525 C136.229691,98.3019456 134.89379,97.970088 133.974561,96.7302797 L128,78.5735133 L129.814141,75 Z" id="路径-145" fill="#E6D5B3"></path>
                <path d="M82.7976537,87.8062678 C87.7394977,81.795773 94.0742873,79.7897848 101.802022,81.788303 C104.02185,82.3623866 105.875315,81.1708686 108.207348,82.8179246 C116.548025,88.7087367 121.522221,92.8690725 123.129933,95.298932 C110.485245,92.4681958 102.985977,93.6958802 100.632128,98.9819851 C94.3620382,94.3858177 88.4172133,90.6605785 82.7976537,87.8062678 Z" id="路径-107" fill="#D55858" transform="translate(102.963794, 90.011121) rotate(23.000000) translate(-102.963794, -90.011121) "></path>
                <path d="M104.840342,90.7495525 C105.412,81.152846 112.068512,76.458066 124.809878,76.6652124 C130.646332,80.4378973 136.357824,86.7926595 141.944356,95.729499 C131.631231,93.9889401 125.985026,95.4172313 125.00574,100.014372 C124.026454,104.611514 117.304655,101.52324 104.840342,90.7495525 Z" id="路径-113" fill="#D55858" transform="translate(123.392349, 89.367702) rotate(23.000000) translate(-123.392349, -89.367702) "></path>
                <path d="M22.3255857,1.25454396 C19.8592787,3.89011697 3.64301361,24.6796762 0,28.2253243 C3.07721253,31.6016432 5.79753135,31.6016432 12.5002189,35 C13.1669801,28.3893314 15.7667417,25.2015918 20.2995038,25.4367812 C21.2456534,17.5975116 22.4883815,11.7179495 24.027688,7.79809466 C26.3366477,1.91831248 24.027688,-2.18257009 22.3255857,1.25454396 Z" id="路径-119" fill="#D8D8D8"></path>
                <polygon id="路径-120" fill="#D8D8D8" points="160 321.224812 160 331 122 331 122 320"></polygon>
                <polygon id="路径-121" fill="#D8D8D8" points="7 56.6120316 15.1123603 67 42 37.0739793 31.8313567 27"></polygon>
                <path d="M135.705238,345 C135.956468,349.628068 134.885419,353.743494 132.492089,357.34628 C130.098759,360.949065 129.429292,363.833638 130.48369,366 L150.762128,366 C151.237872,362.819877 151,359.935304 150.048513,357.34628 C149.097025,354.757255 148.518481,350.88593 148.31288,345.732305 L135.705238,345 Z" id="路径-123" fill="#D8D8D8"></path>
                <polygon id="路径-124" fill="#725D51" points="148 43.5159474 151.202213 52 153 41"></polygon>
                <polygon id="路径-125" fill="#C44646" points="105 82 114.288447 100 117 100 106.827622 82"></polygon>
                <path d="M157,108.912816 C139.26408,105.298684 129.503524,102.327312 127.718332,99.9987008 C127.018066,99.0852717 124.245096,97.198954 123.89313,96.5267391 C122.683564,94.2166023 123.974996,91.5947137 122.813764,92.0525284 C120.464405,93.0050327 122.281248,97.1734877 121.03053,97.497933 C120.097587,97.7399448 117.752348,97.702419 116.256911,96.5267391 C115.446707,95.8897742 113.999094,94.1720703 112.898582,94.8799758 C111.79807,95.5878813 112.221599,94.4727382 112.009835,95.4997386 C111.79807,96.5267391 115.048728,102.501503 117.654377,104.107624 C119.288688,105.115012 121.829812,105.275331 125.057987,106.055976 C126.726489,106.459458 137.05638,111.440799 156.04766,121 L157,108.912816 Z" id="路径-106" fill="#FCDBD2"></path>
                <path d="M87.64993,100.527363 C94.0158972,98.4306159 97.5589972,96.9837103 98.2792299,96.1866464 C100.862485,93.3278206 98.8203709,94.076697 100.407983,91.990173 C101.995596,89.903649 102.616058,89.3891142 103.123294,87.7351008 C104.736732,88.6510318 102.616058,91.4935557 103.722151,91.4935557 C104.828245,91.4935557 106.811156,86.538406 108.362194,86.1108015 C109.13352,85.8981552 109.284956,85.8981552 109.284956,86.9721266 C109.795296,86.5651467 110.219919,86.9721266 110.219919,87.7351008 C110.575906,87.7757138 111.085224,87.9789749 110.987854,88.8594997 C110.63295,92.0688993 110.63295,92.7119479 108.362194,95.764582 C106.848356,97.7996713 101.445701,102.116113 92.1542274,108.713906 C88.7295866,109.505964 86.4974692,108.653398 85.4578752,106.156209 C84.4182812,103.65902 85.1489661,101.782738 87.64993,100.527363 Z" id="路径-116" fill="#FCDBD2"></path>
                <path d="M158.355008,108.2714 C154.525875,106.796644 152.407539,111.332119 152,121.877824 C154.498083,124.625941 159.622604,126 167.373562,126 C175.124521,126 179,121.253204 179,111.759613 C169.065805,110.908894 162.184141,109.746157 158.355008,108.2714 Z" id="路径-105" fill="#FF9D7E"></path>
            </g>
        </g>
    </g>
</svg>