<svg xmlns:xlink="http://www.w3.org/1999/xlink" xmlns="http://www.w3.org/2000/svg" version="1.1" viewBox="0 0 184 209" height="209px" width="184px">
    <title>13.打卡狂魔</title>
    <defs>
        <linearGradient id="linearGradient-1" y2="17.2876616%" x2="23.6365672%" y1="87.3144849%" x1="74.4510804%">
            <stop offset="0%" stop-color="#FF6952"></stop>
            <stop offset="100%" stop-color="#FF8B8B"></stop>
        </linearGradient>
        <path id="path-2" d="M96.9205726,2.78119319 L178.920573,49.1290193 C182.059262,50.9030612 184,54.2292909 184,57.8346477 L184,150.165352 C184,153.770709 182.059262,157.096939 178.920573,158.870981 L96.9205726,205.218807 C93.8671831,206.944636 90.1328169,206.944636 87.0794274,205.218807 L5.07942743,158.870981 C1.94073784,157.096939 0,153.770709 0,150.165352 L0,57.8346477 C0,54.2292909 1.94073784,50.9030612 5.07942743,49.1290193 L87.0794274,2.78119319 C90.1328169,1.05536437 93.8671831,1.05536437 96.9205726,2.78119319 Z"></path>
        <filter id="filter-4" filterUnits="objectBoundingBox" height="190.0%" width="181.4%" y="-45.0%" x="-40.7%">
            <feGaussianBlur in="SourceGraphic" stdDeviation="22"></feGaussianBlur>
        </filter>
        <linearGradient id="linearGradient-5" y2="15.8518925%" x2="23.5685826%" y1="88.1652425%" x1="73.592004%">
            <stop offset="0%" stop-color="#FFACAC"></stop>
            <stop offset="39.8918969%" stop-color="#FF9342"></stop>
            <stop offset="100%" stop-color="#FF6853"></stop>
        </linearGradient>
        <linearGradient id="linearGradient-6" y2="3.74285867%" x2="50%" y1="120.448444%" x1="52.2108966%">
            <stop offset="0%" stop-color="#FDAF3C"></stop>
            <stop offset="52.1251039%" stop-color="#F05F34"></stop>
            <stop offset="100%" stop-color="#D02A2F"></stop>
        </linearGradient>
        <path id="path-7" d="M92.3270573,4.92302001 L163.321044,45.0500561 C164.579728,45.7614858 165.356524,47.0967833 165.352802,48.5426055 L165.143515,129.834454 C165.14074,130.912401 164.559855,131.905992 163.621874,132.437187 L91.8350102,173.091387 C90.9190438,173.610115 89.7982143,173.61082 88.8815963,173.093244 L16.8837634,132.439064 C15.9415351,131.907027 15.3588283,130.908812 15.3588283,129.82675 L15.3588283,48.5357062 C15.3588283,47.0935635 16.1351235,45.7630716 17.3905993,45.0534548 L88.3905993,4.92302001 C89.6119551,4.23268849 91.1057016,4.23268849 92.3270573,4.92302001 Z"></path>
        <linearGradient id="linearGradient-9" y2="0%" x2="59.8046771%" y1="145.317168%" x1="59.8046771%">
            <stop offset="0%" stop-color="#F74835"></stop>
            <stop offset="100%" stop-color="#FF5941"></stop>
        </linearGradient>
        <polygon points="72.8976734 0.916086921 143 115.018223 2.04636308e-12 115.916087" id="path-10"></polygon>
        <linearGradient id="linearGradient-12" y2="18.327728%" x2="49.256798%" y1="100%" x1="45.2908508%">
            <stop offset="0%" stop-color="#B61594"></stop>
            <stop offset="100%" stop-color="#FF8D86"></stop>
        </linearGradient>
        <linearGradient id="linearGradient-13" y2="45.9601211%" x2="47.4906482%" y1="56.3776273%" x1="34.0999993%">
            <stop offset="0%" stop-color="#F03E1B"></stop>
            <stop offset="100%" stop-color="#FDA406"></stop>
        </linearGradient>
        <linearGradient id="linearGradient-14" y2="11.2679241%" x2="56.3302046%" y1="96.2214936%" x1="27.3200473%">
            <stop offset="0%" stop-color="#FF4075"></stop>
            <stop offset="100%" stop-color="#FFEE33"></stop>
        </linearGradient>
        <polygon points="72.8976734 0.916086921 144 134.916087 2.04636308e-12 134.916087" id="path-15"></polygon>
        <linearGradient id="linearGradient-17" y2="15.9973096%" x2="64.8086445%" y1="110.983072%" x1="50%">
            <stop offset="0%" stop-color="#F84637"></stop>
            <stop offset="100%" stop-color="#FF705F"></stop>
        </linearGradient>
        <linearGradient id="linearGradient-18" y2="65.4124087%" x2="50%" y1="13.1734621%" x1="82.2742769%">
            <stop offset="0%" stop-color="#FFED74"></stop>
            <stop offset="100%" stop-opacity="0" stop-color="#FFD740"></stop>
        </linearGradient>
        <linearGradient id="linearGradient-19" y2="100%" x2="26.3536742%" y1="20.7302389%" x1="100%">
            <stop offset="0%" stop-color="#FFADAA"></stop>
            <stop offset="100%" stop-color="#FF8A79"></stop>
        </linearGradient>
        <path id="path-20" d="M3.59089367,2.1173889 L10.1864736,5.12580747 C10.3182736,5.18592492 10.4696684,5.18592492 10.6014683,5.12580747 L17.1661075,2.13150181 C17.4173484,2.01690418 17.7139192,2.12767545 17.8285168,2.37891636 C17.8890182,2.51155812 17.8886143,2.6639997 17.8274108,2.79631897 L14.6826575,9.59513668 C14.6193528,9.73199877 14.6211962,9.89012109 14.6876746,10.0254701 L17.7819587,16.3253918 C17.9036978,16.573251 17.8014572,16.8728696 17.553598,16.9946088 C17.419884,17.060284 17.2638493,17.062915 17.1279972,17.001785 L10.5991436,14.0639683 C10.4686625,14.0052552 10.3192795,14.0052552 10.1887984,14.0639683 L3.58450648,17.0357303 C3.3326839,17.149044 3.03668245,17.0367604 2.92336874,16.7849378 C2.86511228,16.6554717 2.86463931,16.5073441 2.92206782,16.3775085 L5.84304742,9.77369745 C5.90002602,9.64487906 5.90002602,9.49800251 5.84304742,9.36918412 L2.92613026,2.77455747 C2.81442698,2.52201641 2.92859857,2.22673803 3.18113964,2.11503476 C3.31178872,2.05724641 3.4609172,2.05810319 3.59089367,2.1173889 Z"></path>
        <filter id="filter-22" filterUnits="objectBoundingBox" height="191.6%" width="191.6%" y="-45.8%" x="-45.8%">
            <feGaussianBlur in="SourceGraphic" stdDeviation="20"></feGaussianBlur>
        </filter>
        <linearGradient id="linearGradient-23" y2="64.2636605%" x2="41.476947%" y1="2.06845194%" x1="40.1692165%">
            <stop offset="0%" stop-color="#F9A367"></stop>
            <stop offset="100%" stop-color="#EF2552"></stop>
        </linearGradient>
        <path id="path-24" d="M13.5072544,5.54459927 C13.8823157,6.35029718 14.2554101,7.14197993 14.6265376,7.91964752 L15.3661701,9.4562958 L15.3661701,9.4562958 L16.1005575,10.9555703 C16.3444791,11.4490995 16.5875266,11.9363998 16.8296999,12.4174711 L17.5535972,13.841998 C18.0344471,14.7792248 18.5118002,15.6915356 18.9856567,16.5789307 L19.6938188,17.8913363 C19.9289987,18.3225759 20.1633044,18.7475866 20.3967359,19.1663682 L21.094408,20.4040263 L21.094408,20.4040263 L21.786835,21.6043107 C23.741281,24.9521702 25.6325678,27.8499872 27.4606954,30.2977617 C32.4748281,37.0114429 37.4178153,42.6182094 42.2896571,47.1180611 L30.1811567,82.0010545 L29.0855255,80.8723043 L29.0855255,80.8723043 L27.4913363,79.2135544 L27.4913363,79.2135544 L25.956256,77.5960547 L25.956256,77.5960547 L24.9657075,76.5406385 L24.9657075,76.5406385 L24.0014296,75.5035557 L24.0014296,75.5035557 L23.0634223,74.4848064 L23.0634223,74.4848064 L22.1516857,73.4843906 L22.1516857,73.4843906 L21.2662197,72.5023082 L21.2662197,72.5023082 L20.4070244,71.5385593 L20.4070244,71.5385593 L19.5740997,70.593144 L19.5740997,70.593144 L18.7674457,69.666062 L18.7674457,69.666062 L17.9870623,68.7573136 L17.9870623,68.7573136 L17.2329496,67.8668986 L17.2329496,67.8668986 L16.5051075,66.9948171 L16.5051075,66.9948171 L15.8035361,66.1410691 C15.6887967,66.0003056 15.575152,65.8603059 15.4626019,65.7210701 L14.8004364,64.8948223 L14.8004364,64.8948223 L14.1645416,64.086908 L14.1645416,64.086908 L13.5549174,63.2973272 L13.5549174,63.2973272 L12.9715639,62.5260798 L12.9715639,62.5260798 L12.414481,61.7731659 L12.414481,61.7731659 L11.8836687,61.0385854 L11.8836687,61.0385854 L11.3791271,60.3223385 C11.2153251,60.0866451 11.0559014,59.8540073 10.9008562,59.624425 L10.4488559,58.944845 C10.3025676,58.7213739 10.1606577,58.5009584 10.0231263,58.2835985 L9.62366725,57.6406854 C9.4305054,57.3238123 9.24719506,57.0138142 9.0737362,56.7106911 L8.73995381,56.1136118 L8.73995381,56.1136118 C6.11065029,51.2927327 4.06765067,46.124781 2.62037795,41.3180813 L2.30857183,40.2561602 C2.10724365,39.552561 1.91900574,38.8580421 1.74388872,38.1749067 L1.4910577,37.159029 C1.32906924,36.4878527 1.180217,35.8292115 1.04453161,35.1854084 L0.850882504,34.2311203 C0.820254787,34.074023 0.790450956,33.917925 0.761471489,33.7628625 L0.597490897,32.8451989 C0.135249232,30.1312081 -0.0595880296,27.775988 0.0157711149,25.9894126 C0.361229021,17.7994763 2.45865408,10.9225797 6.30804629,5.35872281 L6.63287672,4.89810196 C7.92224138,3.10426331 10.4216715,2.69530633 12.2155102,3.984671 C12.703123,4.33515444 13.1046558,4.79025552 13.3914506,5.31536635 L13.5072544,5.54459927 Z"></path>
        <linearGradient id="linearGradient-26" y2="55.6861926%" x2="24.6946432%" y1="5.21663215%" x1="35.3973703%">
            <stop offset="0%" stop-color="#FED391"></stop>
            <stop offset="100%" stop-color="#FB7C5F"></stop>
        </linearGradient>
        <linearGradient id="linearGradient-27" y2="62.4228812%" x2="43.5085671%" y1="4.81320149%" x1="39.1069435%">
            <stop offset="0%" stop-color="#FFBB6C"></stop>
            <stop offset="100%" stop-color="#FF7B59"></stop>
        </linearGradient>
        <path id="path-28" d="M13.5072544,5.54459927 C13.8823157,6.35029718 14.2554101,7.14197993 14.6265376,7.91964752 L15.3661701,9.4562958 L15.3661701,9.4562958 L16.1005575,10.9555703 C16.3444791,11.4490995 16.5875266,11.9363998 16.8296999,12.4174711 L17.5535972,13.841998 C18.0344471,14.7792248 18.5118002,15.6915356 18.9856567,16.5789307 L19.6938188,17.8913363 C19.9289987,18.3225759 20.1633044,18.7475866 20.3967359,19.1663682 L21.094408,20.4040263 L21.094408,20.4040263 L21.786835,21.6043107 C23.741281,24.9521702 25.6325678,27.8499872 27.4606954,30.2977617 C32.4748281,37.0114429 37.4178153,42.6182094 42.2896571,47.1180611 L30.1811567,82.0010545 L29.0855255,80.8723043 L29.0855255,80.8723043 L27.4913363,79.2135544 L27.4913363,79.2135544 L25.956256,77.5960547 L25.956256,77.5960547 L24.9657075,76.5406385 L24.9657075,76.5406385 L24.0014296,75.5035557 L24.0014296,75.5035557 L23.0634223,74.4848064 L23.0634223,74.4848064 L22.1516857,73.4843906 L22.1516857,73.4843906 L21.2662197,72.5023082 L21.2662197,72.5023082 L20.4070244,71.5385593 L20.4070244,71.5385593 L19.5740997,70.593144 L19.5740997,70.593144 L18.7674457,69.666062 L18.7674457,69.666062 L17.9870623,68.7573136 L17.9870623,68.7573136 L17.2329496,67.8668986 L17.2329496,67.8668986 L16.5051075,66.9948171 L16.5051075,66.9948171 L15.8035361,66.1410691 C15.6887967,66.0003056 15.575152,65.8603059 15.4626019,65.7210701 L14.8004364,64.8948223 L14.8004364,64.8948223 L14.1645416,64.086908 L14.1645416,64.086908 L13.5549174,63.2973272 L13.5549174,63.2973272 L12.9715639,62.5260798 L12.9715639,62.5260798 L12.414481,61.7731659 L12.414481,61.7731659 L11.8836687,61.0385854 L11.8836687,61.0385854 L11.3791271,60.3223385 C11.2153251,60.0866451 11.0559014,59.8540073 10.9008562,59.624425 L10.4488559,58.944845 C10.3025676,58.7213739 10.1606577,58.5009584 10.0231263,58.2835985 L9.62366725,57.6406854 C9.4305054,57.3238123 9.24719506,57.0138142 9.0737362,56.7106911 L8.73995381,56.1136118 L8.73995381,56.1136118 C6.11065029,51.2927327 4.06765067,46.124781 2.62037795,41.3180813 L2.30857183,40.2561602 C2.10724365,39.552561 1.91900574,38.8580421 1.74388872,38.1749067 L1.4910577,37.159029 C1.32906924,36.4878527 1.180217,35.8292115 1.04453161,35.1854084 L0.850882504,34.2311203 C0.820254787,34.074023 0.790450956,33.917925 0.761471489,33.7628625 L0.597490897,32.8451989 C0.135249232,30.1312081 -0.0595880296,27.775988 0.0157711149,25.9894126 C0.361229021,17.7994763 2.45865408,10.9225797 6.30804629,5.35872281 L6.63287672,4.89810196 C7.92224138,3.10426331 10.4216715,2.69530633 12.2155102,3.984671 C12.703123,4.33515444 13.1046558,4.79025552 13.3914506,5.31536635 L13.5072544,5.54459927 Z"></path>
        <linearGradient id="linearGradient-30" y2="47.9283641%" x2="28.7559119%" y1="5.33848445%" x1="36.9577939%">
            <stop offset="0%" stop-color="#FFF4C1"></stop>
            <stop offset="100%" stop-color="#FFB066"></stop>
        </linearGradient>
        <linearGradient id="linearGradient-31" y2="76.0932585%" x2="52.4325242%" y1="0%" x1="50%">
            <stop offset="0%" stop-color="#FFEDA7"></stop>
            <stop offset="100%" stop-color="#FFA538"></stop>
        </linearGradient>
        <path id="path-32" d="M13.5072544,5.54459927 C18.5080717,16.2872381 23.1592187,24.5382923 27.4606954,30.2977617 C32.4748281,37.0114429 37.4178153,42.6182094 42.2896571,47.1180611 L30.1811567,82.0010545 C19.0934921,70.6218856 11.9464245,61.992738 8.73995381,56.1136118 C2.70229387,45.043445 -0.243799272,32.1431723 0.0157711149,25.9894126 C0.370825074,17.571978 2.57652952,10.541543 6.63288445,4.89810752 L6.63287672,4.89810196 C7.92224138,3.10426331 10.4216715,2.69530633 12.2155102,3.984671 C12.772782,4.38522351 13.2176228,4.92241945 13.5072544,5.54459927 Z"></path>
        <linearGradient id="linearGradient-34" y2="52.3884364%" x2="32.6221683%" y1="1.42108547e-12%" x1="43.2876087%">
            <stop offset="0%" stop-color="#FFFFFF"></stop>
            <stop offset="100%" stop-color="#FFE08A"></stop>
        </linearGradient>
        <path id="path-35" d="M13.5072544,5.54459927 C13.8823157,6.35029718 14.2554101,7.14197993 14.6265376,7.91964752 L15.3661701,9.4562958 L15.3661701,9.4562958 L16.1005575,10.9555703 C16.3444791,11.4490995 16.5875266,11.9363998 16.8296999,12.4174711 L17.5535972,13.841998 C18.0344471,14.7792248 18.5118002,15.6915356 18.9856567,16.5789307 L19.6938188,17.8913363 C19.9289987,18.3225759 20.1633044,18.7475866 20.3967359,19.1663682 L21.094408,20.4040263 L21.094408,20.4040263 L21.786835,21.6043107 C23.741281,24.9521702 25.6325678,27.8499872 27.4606954,30.2977617 C32.4748281,37.0114429 37.4178153,42.6182094 42.2896571,47.1180611 L30.1811567,82.0010545 L29.0855255,80.8723043 L29.0855255,80.8723043 L27.4913363,79.2135544 L27.4913363,79.2135544 L25.956256,77.5960547 L25.956256,77.5960547 L24.9657075,76.5406385 L24.9657075,76.5406385 L24.0014296,75.5035557 L24.0014296,75.5035557 L23.0634223,74.4848064 L23.0634223,74.4848064 L22.1516857,73.4843906 L22.1516857,73.4843906 L21.2662197,72.5023082 L21.2662197,72.5023082 L20.4070244,71.5385593 L20.4070244,71.5385593 L19.5740997,70.593144 L19.5740997,70.593144 L18.7674457,69.666062 L18.7674457,69.666062 L17.9870623,68.7573136 L17.9870623,68.7573136 L17.2329496,67.8668986 L17.2329496,67.8668986 L16.5051075,66.9948171 L16.5051075,66.9948171 L15.8035361,66.1410691 C15.6887967,66.0003056 15.575152,65.8603059 15.4626019,65.7210701 L14.8004364,64.8948223 L14.8004364,64.8948223 L14.1645416,64.086908 L14.1645416,64.086908 L13.5549174,63.2973272 L13.5549174,63.2973272 L12.9715639,62.5260798 L12.9715639,62.5260798 L12.414481,61.7731659 L12.414481,61.7731659 L11.8836687,61.0385854 L11.8836687,61.0385854 L11.3791271,60.3223385 C11.2153251,60.0866451 11.0559014,59.8540073 10.9008562,59.624425 L10.4488559,58.944845 C10.3025676,58.7213739 10.1606577,58.5009584 10.0231263,58.2835985 L9.62366725,57.6406854 C9.4305054,57.3238123 9.24719506,57.0138142 9.0737362,56.7106911 L8.73995381,56.1136118 L8.73995381,56.1136118 C6.11065029,51.2927327 4.06765067,46.124781 2.62037795,41.3180813 L2.30857183,40.2561602 C2.10724365,39.552561 1.91900574,38.8580421 1.74388872,38.1749067 L1.4910577,37.159029 C1.32906924,36.4878527 1.180217,35.8292115 1.04453161,35.1854084 L0.850882504,34.2311203 C0.820254787,34.074023 0.790450956,33.917925 0.761471489,33.7628625 L0.597490897,32.8451989 C0.135249232,30.1312081 -0.0595880296,27.775988 0.0157711149,25.9894126 C0.361229021,17.7994763 2.45865408,10.9225797 6.30804629,5.35872281 L6.63287672,4.89810196 C7.92224138,3.10426331 10.4216715,2.69530633 12.2155102,3.984671 C12.703123,4.33515444 13.1046558,4.79025552 13.3914506,5.31536635 L13.5072544,5.54459927 Z"></path>
        <path id="path-37" d="M13.5072544,5.54459927 C13.8823157,6.35029718 14.2554101,7.14197993 14.6265376,7.91964752 L15.3661701,9.4562958 L15.3661701,9.4562958 L16.1005575,10.9555703 C16.3444791,11.4490995 16.5875266,11.9363998 16.8296999,12.4174711 L17.5535972,13.841998 C18.0344471,14.7792248 18.5118002,15.6915356 18.9856567,16.5789307 L19.6938188,17.8913363 C19.9289987,18.3225759 20.1633044,18.7475866 20.3967359,19.1663682 L21.094408,20.4040263 L21.094408,20.4040263 L21.786835,21.6043107 C23.741281,24.9521702 25.6325678,27.8499872 27.4606954,30.2977617 C32.4748281,37.0114429 37.4178153,42.6182094 42.2896571,47.1180611 L30.1811567,82.0010545 L29.0855255,80.8723043 L29.0855255,80.8723043 L27.4913363,79.2135544 L27.4913363,79.2135544 L25.956256,77.5960547 L25.956256,77.5960547 L24.9657075,76.5406385 L24.9657075,76.5406385 L24.0014296,75.5035557 L24.0014296,75.5035557 L23.0634223,74.4848064 L23.0634223,74.4848064 L22.1516857,73.4843906 L22.1516857,73.4843906 L21.2662197,72.5023082 L21.2662197,72.5023082 L20.4070244,71.5385593 L20.4070244,71.5385593 L19.5740997,70.593144 L19.5740997,70.593144 L18.7674457,69.666062 L18.7674457,69.666062 L17.9870623,68.7573136 L17.9870623,68.7573136 L17.2329496,67.8668986 L17.2329496,67.8668986 L16.5051075,66.9948171 L16.5051075,66.9948171 L15.8035361,66.1410691 C15.6887967,66.0003056 15.575152,65.8603059 15.4626019,65.7210701 L14.8004364,64.8948223 L14.8004364,64.8948223 L14.1645416,64.086908 L14.1645416,64.086908 L13.5549174,63.2973272 L13.5549174,63.2973272 L12.9715639,62.5260798 L12.9715639,62.5260798 L12.414481,61.7731659 L12.414481,61.7731659 L11.8836687,61.0385854 L11.8836687,61.0385854 L11.3791271,60.3223385 C11.2153251,60.0866451 11.0559014,59.8540073 10.9008562,59.624425 L10.4488559,58.944845 C10.3025676,58.7213739 10.1606577,58.5009584 10.0231263,58.2835985 L9.62366725,57.6406854 C9.4305054,57.3238123 9.24719506,57.0138142 9.0737362,56.7106911 L8.73995381,56.1136118 L8.73995381,56.1136118 C6.11065029,51.2927327 4.06765067,46.124781 2.62037795,41.3180813 L2.30857183,40.2561602 C2.10724365,39.552561 1.91900574,38.8580421 1.74388872,38.1749067 L1.4910577,37.159029 C1.32906924,36.4878527 1.180217,35.8292115 1.04453161,35.1854084 L0.850882504,34.2311203 C0.820254787,34.074023 0.790450956,33.917925 0.761471489,33.7628625 L0.597490897,32.8451989 C0.135249232,30.1312081 -0.0595880296,27.775988 0.0157711149,25.9894126 C0.361229021,17.7994763 2.45865408,10.9225797 6.30804629,5.35872281 L6.63287672,4.89810196 C7.92224138,3.10426331 10.4216715,2.69530633 12.2155102,3.984671 C12.703123,4.33515444 13.1046558,4.79025552 13.3914506,5.31536635 L13.5072544,5.54459927 Z"></path>
        <path id="path-39" d="M13.5072544,5.54459927 C18.5080717,16.2872381 23.1592187,24.5382923 27.4606954,30.2977617 C32.4748281,37.0114429 37.4178153,42.6182094 42.2896571,47.1180611 L30.1811567,82.0010545 C19.0934921,70.6218856 11.9464245,61.992738 8.73995381,56.1136118 C2.70229387,45.043445 -0.243799272,32.1431723 0.0157711149,25.9894126 C0.370825074,17.571978 2.57652952,10.541543 6.63288445,4.89810752 L6.63287672,4.89810196 C7.92224138,3.10426331 10.4216715,2.69530633 12.2155102,3.984671 C12.772782,4.38522351 13.2176228,4.92241945 13.5072544,5.54459927 Z"></path>
        <linearGradient id="linearGradient-41" y2="82.2768076%" x2="89.5806133%" y1="15.1488909%" x1="12.762843%">
            <stop offset="0%" stop-color="#FFDAA7"></stop>
            <stop offset="55.6927279%" stop-color="#F93B2E"></stop>
            <stop offset="100%" stop-color="#FC2788"></stop>
        </linearGradient>
        <linearGradient id="linearGradient-42" y2="82.2768076%" x2="89.5806133%" y1="16.601209%" x1="14.8620937%">
            <stop offset="0%" stop-color="#FF6534"></stop>
            <stop offset="100%" stop-color="#FFEB8E"></stop>
        </linearGradient>
        <circle r="48.5" cy="55.5" cx="54.5" id="path-43"></circle>
        <filter id="filter-44" filterUnits="objectBoundingBox" height="103.1%" width="103.1%" y="-1.5%" x="-1.5%">
            <feGaussianBlur result="shadowBlurInner1" in="SourceAlpha" stdDeviation="1"></feGaussianBlur>
            <feOffset result="shadowOffsetInner1" in="shadowBlurInner1" dy="-1" dx="1"></feOffset>
            <feComposite result="shadowInnerInner1" k3="1" k2="-1" operator="arithmetic" in2="SourceAlpha" in="shadowOffsetInner1"></feComposite>
            <feColorMatrix in="shadowInnerInner1" type="matrix" values="0 0 0 0 1   0 0 0 0 0.896634072   0 0 0 0 0.11105302  0 0 0 1 0"></feColorMatrix>
        </filter>
        <linearGradient id="linearGradient-45" y2="72.8265503%" x2="94.5462659%" y1="15.5455647%" x1="20.6922192%">
            <stop offset="0%" stop-color="#FFA711"></stop>
            <stop offset="58.8935955%" stop-color="#FE4D23"></stop>
            <stop offset="100%" stop-color="#E91D4A"></stop>
        </linearGradient>
        <circle r="41.5" cy="54.5" cx="54.5" id="path-46"></circle>
        <filter id="filter-47" filterUnits="objectBoundingBox" height="110.8%" width="110.8%" y="-5.4%" x="-5.4%">
            <feOffset result="shadowOffsetOuter1" in="SourceAlpha" dy="0" dx="0"></feOffset>
            <feGaussianBlur result="shadowBlurOuter1" in="shadowOffsetOuter1" stdDeviation="1.5"></feGaussianBlur>
            <feColorMatrix in="shadowBlurOuter1" type="matrix" values="0 0 0 0 0.783967391   0 0 0 0 0.144986538   0 0 0 0 0.448892066  0 0 0 0.509874891 0"></feColorMatrix>
        </filter>
        <linearGradient id="linearGradient-48" y2="22.8981131%" x2="56.0332741%" y1="84.0446426%" x1="56.0332741%">
            <stop offset="0%" stop-color="#CA1444"></stop>
            <stop offset="100%" stop-color="#F93C2F"></stop>
        </linearGradient>
        <path id="path-49" d="M37.825,82.6 C42.25,82.6 46.375,81.175 48.7,77.575 C50.275,75.175 51.25,72.1 51.25,65.575 C51.25,58.45 50.425,55.225 48.475,52.6 C46.6,50.05 43.825,48.85 40.825,48.85 C40.075,48.85 38.95,48.925 38.2,49.375 L47.05,28.6 L36.55,28.6 L26.725,53.95 C25.525,57.025 24.55,61.45 24.55,65.575 C24.55,71.2 25.225,74.425 27.175,77.575 C29.2,80.725 32.8,82.6 37.825,82.6 Z M37.9,73.6 C36.925,73.6 36.025,73.15 35.5,72.4 C34.45,70.75 34.6,67 34.6,65.425 C34.6,63.925 34.45,59.95 35.5,58.3 C36.025,57.55 36.925,57.1 37.9,57.1 C38.875,57.1 39.7,57.475 40.3,58.3 C41.30625,59.809375 41.2104167,63.5229167 41.2006836,65.2159722 L41.2,65.425 C41.2,67 41.35,70.825 40.3,72.4 C39.775,73.15 38.875,73.6 37.9,73.6 Z M69.7,82.6 C73.3,82.6 76.825,81.475 79.225,79.15 C81.625,76.9 82.9,74.2 82.9,69.55 L82.9,41.05 C82.9,36.4 81.625,33.7 79.225,31.45 C76.825,29.125 73.3,28 69.7,28 C66.1,28 62.575,29.125 60.175,31.45 C57.775,33.7 56.5,36.4 56.5,41.05 L56.5,69.55 C56.5,74.2 57.775,76.9 60.175,79.15 C62.575,81.475 66.1,82.6 69.7,82.6 Z M69.7,73.6 C67.9,73.6 66.55,72.4 66.55,69.925 L66.55,40.675 C66.55,38.2 67.9,37 69.7,37 C71.5,37 72.85,38.2 72.85,40.675 L72.85,69.925 C72.85,72.4 71.5,73.6 69.7,73.6 Z"></path>
        <linearGradient id="linearGradient-50" y2="30.7731268%" x2="8.50248606%" y1="68.7533372%" x1="92.3139834%">
            <stop offset="0%" stop-color="#FFBB50"></stop>
            <stop offset="46.2969761%" stop-color="#FFE18B"></stop>
            <stop offset="100%" stop-color="#FFFFFF"></stop>
        </linearGradient>
        <path id="path-51" d="M37.825,78.6 C42.25,78.6 46.375,77.175 48.7,73.575 C50.275,71.175 51.25,68.1 51.25,61.575 C51.25,54.45 50.425,51.225 48.475,48.6 C46.6,46.05 43.825,44.85 40.825,44.85 C40.075,44.85 38.95,44.925 38.2,45.375 L47.05,24.6 L36.55,24.6 L26.725,49.95 C25.525,53.025 24.55,57.45 24.55,61.575 C24.55,67.2 25.225,70.425 27.175,73.575 C29.2,76.725 32.8,78.6 37.825,78.6 Z M37.9,69.6 C36.925,69.6 36.025,69.15 35.5,68.4 C34.45,66.75 34.6,63 34.6,61.425 C34.6,59.925 34.45,55.95 35.5,54.3 C36.025,53.55 36.925,53.1 37.9,53.1 C38.875,53.1 39.7,53.475 40.3,54.3 C41.30625,55.809375 41.2104167,59.5229167 41.2006836,61.2159722 L41.2,61.425 C41.2,63 41.35,66.825 40.3,68.4 C39.775,69.15 38.875,69.6 37.9,69.6 Z M69.7,78.6 C73.3,78.6 76.825,77.475 79.225,75.15 C81.625,72.9 82.9,70.2 82.9,65.55 L82.9,37.05 C82.9,32.4 81.625,29.7 79.225,27.45 C76.825,25.125 73.3,24 69.7,24 C66.1,24 62.575,25.125 60.175,27.45 C57.775,29.7 56.5,32.4 56.5,37.05 L56.5,65.55 C56.5,70.2 57.775,72.9 60.175,75.15 C62.575,77.475 66.1,78.6 69.7,78.6 Z M69.7,69.6 C67.9,69.6 66.55,68.4 66.55,65.925 L66.55,36.675 C66.55,34.2 67.9,33 69.7,33 C71.5,33 72.85,34.2 72.85,36.675 L72.85,65.925 C72.85,68.4 71.5,69.6 69.7,69.6 Z"></path>
        <filter id="filter-52" filterUnits="objectBoundingBox" height="107.3%" width="106.9%" y="-3.7%" x="-3.4%">
            <feGaussianBlur result="shadowBlurInner1" in="SourceAlpha" stdDeviation="1"></feGaussianBlur>
            <feOffset result="shadowOffsetInner1" in="shadowBlurInner1" dy="-1" dx="2"></feOffset>
            <feComposite result="shadowInnerInner1" k3="1" k2="-1" operator="arithmetic" in2="SourceAlpha" in="shadowOffsetInner1"></feComposite>
            <feColorMatrix in="shadowInnerInner1" type="matrix" values="0 0 0 0 1   0 0 0 0 0.955124659   0 0 0 0 0.396945265  0 0 0 1 0"></feColorMatrix>
        </filter>
        <linearGradient id="linearGradient-53" y2="85.1887625%" x2="50%" y1="3.55273085%" x1="50%">
            <stop offset="0%" stop-opacity="0" stop-color="#FEC319"></stop>
            <stop offset="100%" stop-color="#E41D23"></stop>
        </linearGradient>
    </defs>
    <g fill-rule="evenodd" fill="none" stroke-width="1" stroke="none" id="页面-1">
        <g transform="translate(-930.000000, -1839.000000)" id="勋章">
            <g transform="translate(930.000000, 1839.916087)" id="13.打卡狂魔">
                <g id="矩形">
                    <mask fill="white" id="mask-3">
                        <use xlink:href="#path-2"></use>
                    </mask>
                    <use xlink:href="#path-2" fill="url(#linearGradient-1)" id="蒙版"></use>
                    <polygon points="-21.275089 61.4694852 100.866578 -33.9580435 140.884574 17.2626555 18.7429069 112.690184" mask="url(#mask-3)" filter="url(#filter-4)" opacity="0.5" fill="#FFFFFF"></polygon>
                </g>
                <g transform="translate(1.641172, 15.189457)" id="矩形-+-矩形-+-矩形-+-矩形蒙版">
                    <path fill-rule="nonzero" fill="url(#linearGradient-5)" id="蒙版" d="M94.2952864,1.03549729 L166.295286,41.7311495 C168.806238,43.150383 170.358828,45.8113668 170.358828,48.6956522 L170.358828,129.794999 C170.358828,132.679284 168.806238,135.340268 166.295286,136.759501 L94.2952864,177.455153 C91.8525748,178.835816 88.8650818,178.835816 86.4223703,177.455153 L14.4223703,136.759501 C11.9114186,135.340268 10.3588283,132.679284 10.3588283,129.794999 L10.3588283,48.6956522 C10.3588283,45.8113668 11.9114186,43.150383 14.4223703,41.7311495 L86.4223703,1.03549729 C88.8650818,-0.345165763 91.8525748,-0.345165763 94.2952864,1.03549729 Z M91.8350001,5.38831148 C90.980051,4.90507942 89.9471401,4.87286394 89.0684628,5.29166507 L88.8826565,5.38831148 L16.8826565,46.0839637 C15.9999001,46.582913 15.4330098,47.4911305 15.3655968,48.4939254 L15.3588283,48.6956522 L15.3588283,129.794999 C15.3588283,130.809005 15.8705463,131.749414 16.7103712,132.301534 L16.8826565,132.406687 L88.8826565,173.102339 C89.7376056,173.585571 90.7705166,173.617787 91.6491939,173.198986 L91.8350001,173.102339 L163.835,132.406687 C164.717757,131.907738 165.284647,130.99952 165.35206,129.996725 L165.358828,129.794999 L165.358828,48.6956522 C165.358828,47.6816456 164.84711,46.741237 164.007285,46.1891172 L163.835,46.0839637 L91.8350001,5.38831148 Z"></path>
                    <mask fill="white" id="mask-8">
                        <use xlink:href="#path-7"></use>
                    </mask>
                    <use xlink:href="#path-7" fill="url(#linearGradient-6)" id="蒙版"></use>
                    <g mask="url(#mask-8)" opacity="0.600000024" id="矩形">
                        <g transform="translate(16.358828, 9.894456)">
                            <mask fill="white" id="mask-11">
                                <use xlink:href="#path-10"></use>
                            </mask>
                            <use xlink:href="#path-10" fill-rule="evenodd" fill="url(#linearGradient-9)" stroke="none" id="蒙版"></use>
                            <rect height="147" width="80" y="-4.08391308" x="72" mask="url(#mask-11)" fill-rule="evenodd" fill="url(#linearGradient-12)" stroke="none" id="矩形"></rect>
                            <polygon points="-2 176.114677 71.0966291 127.791885 147 181.006489 60 177.916087" mask="url(#mask-11)" fill-rule="evenodd" fill="url(#linearGradient-13)" stroke="none" id="矩形"></polygon>
                        </g>
                    </g>
                    <g mask="url(#mask-8)" opacity="0.600000024" id="矩形">
                        <g transform="translate(16.358828, 45.894456)">
                            <mask fill="white" id="mask-16">
                                <use xlink:href="#path-15"></use>
                            </mask>
                            <use xlink:href="#path-15" transform="translate(72.000000, 67.916087) scale(1, -1) translate(-72.000000, -67.916087)" fill-rule="evenodd" fill="url(#linearGradient-14)" stroke="none" id="蒙版"></use>
                            <rect height="147" width="80" y="-9.08391308" x="72" mask="url(#mask-16)" fill-rule="evenodd" fill="url(#linearGradient-17)" stroke="none" id="矩形"></rect>
                        </g>
                    </g>
                    <circle r="11.5" cy="149.426898" cx="46.3588283" mask="url(#mask-8)" opacity="0.5" fill="url(#linearGradient-18)" id="椭圆形"></circle>
                    <g mask="url(#mask-8)" id="椭圆形">
                        <g transform="translate(112.358828, 27.103841)">
                            <mask fill="white" id="mask-21">
                                <use xlink:href="#path-20"></use>
                            </mask>
                            <use xlink:href="#path-20" transform="translate(10.393971, 9.571441) rotate(-12.000000) translate(-10.393971, -9.571441)" fill-rule="evenodd" fill="url(#linearGradient-19)" stroke="none" id="蒙版"></use>
                            <circle r="65.5" cy="67.7067015" cx="-22.5" mask="url(#mask-21)" filter="url(#filter-22)" opacity="0.800000012" fill-rule="evenodd" fill="#C91820" stroke="none" id="椭圆形"></circle>
                        </g>
                    </g>
                    <g transform="translate(0.000000, 19.785790)" id="编组-21">
                        <g transform="translate(55.579798, 94.600254) rotate(-80.000000) translate(-55.579798, -94.600254) translate(34.434970, 53.599726)" id="椭圆形">
                            <mask fill="white" id="mask-25">
                                <use xlink:href="#path-24"></use>
                            </mask>
                            <use xlink:href="#path-24" fill="url(#linearGradient-23)" id="蒙版"></use>
                            <path mask="url(#mask-25)" fill="url(#linearGradient-26)" d="M58.9972823,74.642103 C73.8314124,67.0568951 76.7145814,42.901494 65.4370738,20.6894536 C54.1594404,-1.52252267 32.991717,-13.3799026 18.1575676,-5.79473251 C3.32343756,1.79047535 0.440268538,25.9458764 11.7177761,48.1579168 C22.9954095,70.3698931 44.163133,82.227273 58.9972823,74.642103 Z"></path>
                        </g>
                        <g transform="translate(44.999860, 76.262317) rotate(-50.000000) translate(-44.999860, -76.262317) translate(23.855031, 35.261790)" id="椭圆形">
                            <mask fill="white" id="mask-29">
                                <use xlink:href="#path-28"></use>
                            </mask>
                            <use xlink:href="#path-28" fill="url(#linearGradient-27)" id="蒙版"></use>
                            <path mask="url(#mask-29)" fill="url(#linearGradient-30)" d="M58.9972823,74.642103 C73.8314124,67.0568951 76.7145814,42.901494 65.4370738,20.6894536 C54.1594404,-1.52252267 32.991717,-13.3799026 18.1575676,-5.79473251 C3.32343756,1.79047535 0.440268538,25.9458764 11.7177761,48.1579168 C22.9954095,70.3698931 44.163133,82.227273 58.9972823,74.642103 Z"></path>
                        </g>
                        <g transform="translate(42.422092, 45.854919) rotate(-21.000000) translate(-42.422092, -45.854919) translate(21.277263, 4.854391)" id="椭圆形">
                            <mask fill="white" id="mask-33">
                                <use xlink:href="#path-32"></use>
                            </mask>
                            <use xlink:href="#path-32" fill="url(#linearGradient-31)" id="蒙版"></use>
                            <path mask="url(#mask-33)" fill="url(#linearGradient-34)" d="M58.9972823,74.642103 C73.8314124,67.0568951 76.7145814,42.901494 65.4370738,20.6894536 C54.1594404,-1.52252267 32.991717,-13.3799026 18.1575676,-5.79473251 C3.32343756,1.79047535 0.440268538,25.9458764 11.7177761,48.1579168 C22.9954095,70.3698931 44.163133,82.227273 58.9972823,74.642103 Z"></path>
                        </g>
                    </g>
                    <g transform="translate(129.903058, 81.057546) scale(-1, 1) translate(-129.903058, -81.057546) translate(80.088460, 19.785790)" id="编组-21">
                        <g transform="translate(55.579798, 94.600254) rotate(-80.000000) translate(-55.579798, -94.600254) translate(34.434970, 53.599726)" id="椭圆形">
                            <mask fill="white" id="mask-36">
                                <use xlink:href="#path-35"></use>
                            </mask>
                            <use xlink:href="#path-35" fill="url(#linearGradient-23)" id="蒙版"></use>
                            <path mask="url(#mask-36)" fill="url(#linearGradient-26)" d="M58.9972823,74.642103 C73.8314124,67.0568951 76.7145814,42.901494 65.4370738,20.6894536 C54.1594404,-1.52252267 32.991717,-13.3799026 18.1575676,-5.79473251 C3.32343756,1.79047535 0.440268538,25.9458764 11.7177761,48.1579168 C22.9954095,70.3698931 44.163133,82.227273 58.9972823,74.642103 Z"></path>
                        </g>
                        <g transform="translate(44.999860, 76.262317) rotate(-50.000000) translate(-44.999860, -76.262317) translate(23.855031, 35.261790)" id="椭圆形">
                            <mask fill="white" id="mask-38">
                                <use xlink:href="#path-37"></use>
                            </mask>
                            <use xlink:href="#path-37" fill="url(#linearGradient-27)" id="蒙版"></use>
                            <path mask="url(#mask-38)" fill="url(#linearGradient-30)" d="M58.9972823,74.642103 C73.8314124,67.0568951 76.7145814,42.901494 65.4370738,20.6894536 C54.1594404,-1.52252267 32.991717,-13.3799026 18.1575676,-5.79473251 C3.32343756,1.79047535 0.440268538,25.9458764 11.7177761,48.1579168 C22.9954095,70.3698931 44.163133,82.227273 58.9972823,74.642103 Z"></path>
                        </g>
                        <g transform="translate(42.422092, 45.854919) rotate(-21.000000) translate(-42.422092, -45.854919) translate(21.277263, 4.854391)" id="椭圆形">
                            <mask fill="white" id="mask-40">
                                <use xlink:href="#path-39"></use>
                            </mask>
                            <use xlink:href="#path-39" fill="url(#linearGradient-31)" id="蒙版"></use>
                            <path mask="url(#mask-40)" fill="url(#linearGradient-34)" d="M58.9972823,74.642103 C73.8314124,67.0568951 76.7145814,42.901494 65.4370738,20.6894536 C54.1594404,-1.52252267 32.991717,-13.3799026 18.1575676,-5.79473251 C3.32343756,1.79047535 0.440268538,25.9458764 11.7177761,48.1579168 C22.9954095,70.3698931 44.163133,82.227273 58.9972823,74.642103 Z"></path>
                        </g>
                    </g>
                    <g transform="translate(35.025244, 41.875040)" id="编组-19">
                        <circle r="55" cy="55" cx="55" fill="url(#linearGradient-41)" id="椭圆形"></circle>
                        <g id="椭圆形">
                            <use xlink:href="#path-43" fill-rule="evenodd" fill="url(#linearGradient-42)"></use>
                            <use xlink:href="#path-43" filter="url(#filter-44)" fill-opacity="1" fill="black"></use>
                        </g>
                        <g id="椭圆形">
                            <use xlink:href="#path-46" filter="url(#filter-47)" fill-opacity="1" fill="black"></use>
                            <use xlink:href="#path-46" fill-rule="evenodd" fill="url(#linearGradient-45)"></use>
                        </g>
                        <g fill-rule="nonzero" id="60">
                            <use xlink:href="#path-49" fill="#222222"></use>
                            <use xlink:href="#path-49" fill="url(#linearGradient-48)"></use>
                        </g>
                        <g fill-rule="nonzero" id="60">
                            <use xlink:href="#path-51" fill="#222222"></use>
                            <use xlink:href="#path-51" fill="url(#linearGradient-50)"></use>
                            <use xlink:href="#path-51" filter="url(#filter-52)" fill-opacity="1" fill="black"></use>
                        </g>
                    </g>
                    <path opacity="0.600000024" fill="url(#linearGradient-53)" id="路径-3" d="M91.8339976,173.092183 L161.302321,133.761477 L161.302321,133.761477 L18.2465101,133.258864 L88.8822641,173.094651 C89.7985567,173.611404 90.9185706,173.610468 91.8339976,173.092183 Z"></path>
                </g>
            </g>
        </g>
    </g>
</svg>