<?xml version="1.0" standalone="no"?><!DOCTYPE svg PUBLIC "-//W3C//DTD SVG 1.1//EN" "http://www.w3.org/Graphics/SVG/1.1/DTD/svg11.dtd"><svg t="1651368848418" class="icon" viewBox="0 0 1024 1024" version="1.1" xmlns="http://www.w3.org/2000/svg" p-id="6535" xmlns:xlink="http://www.w3.org/1999/xlink" width="48" height="48"><defs><style type="text/css">@font-face { font-family: feedback-iconfont; src: url("//at.alicdn.com/t/font_1031158_u69w8yhxdu.woff2?t=1630033759944") format("woff2"), url("//at.alicdn.com/t/font_1031158_u69w8yhxdu.woff?t=1630033759944") format("woff"), url("//at.alicdn.com/t/font_1031158_u69w8yhxdu.ttf?t=1630033759944") format("truetype"); }
</style></defs><path d="M629.829818 20.992c10.053818 0 19.316364 5.189818 24.622546 13.591273l1.605818 2.909091 42.356363 88.203636a29.090909 29.090909 0 0 1-51.013818 27.787636l-1.419636-2.606545L611.514182 79.127273H315.787636L281.367273 150.877091a29.090909 29.090909 0 0 1-36.072728 14.778182l-2.722909-1.163637a29.090909 29.090909 0 0 1-14.801454-36.072727l1.163636-2.722909 42.333091-88.203636c4.352-9.076364 13.032727-15.173818 22.900364-16.290909l3.328-0.209455h332.334545zM645.934545 873.122909a29.090909 29.090909 0 0 1 53.620364 22.434909l-1.163636 2.746182-42.356364 88.203636a29.090909 29.090909 0 0 1-22.877091 16.290909l-3.328 0.186182H297.495273a29.090909 29.090909 0 0 1-24.622546-13.568l-1.629091-2.932363-42.309818-88.203637a29.090909 29.090909 0 0 1 51.013818-27.787636l1.419637 2.629818 34.420363 71.68h295.726546l34.443636-71.68zM492.8 374.690909c6.865455-27.927273 45.149091-29.579636 55.226182-3.956364l0.977454 2.955637 47.662546 167.261091H658.618182c15.057455 0 27.461818 11.450182 28.951273 26.112l0.139636 2.978909a29.090909 29.090909 0 0 1-26.112 28.951273l-2.978909 0.139636h-83.898182a29.090909 29.090909 0 0 1-27.019636-18.315636l-0.977455-2.792728-23.645091-83.037091-42.589091 172.916364c-6.516364 26.344727-41.797818 29.882182-53.899636 6.818909l-1.303273-2.792727-49.850182-122.042182-20.875636 34.048a29.090909 29.090909 0 0 1-21.457455 13.684364l-3.328 0.209454H267.636364a29.090909 29.090909 0 0 1-2.978909-58.042182L267.636364 539.648l45.847272-0.023273 42.402909-69.096727c11.915636-19.432727 40.122182-18.013091 50.432 1.442909l1.28 2.792727 37.748364 92.416 47.453091-192.465454zM844.8 427.054545c15.057455 0 27.461818 11.450182 28.951273 26.112l0.139636 2.97891v130.327272a29.090909 29.090909 0 0 1-26.112 28.951273l-2.978909 0.139636h-93.090909v-58.181818h63.976727v-72.168727l-63.976727 0.023273v-58.181819h93.090909z" fill="#5AC2EE" p-id="6536"></path><path d="M708.328727 185.018182H217.925818A72.564364 72.564364 0 0 0 145.454545 257.419636v527.755637l0.116364 4.096a72.610909 72.610909 0 0 0 68.258909 68.189091l4.096 0.139636h490.402909a72.564364 72.564364 0 0 0 72.471273-72.401455V257.396364a72.564364 72.564364 0 0 0-72.471273-72.401455z m-490.402909 58.181818h490.402909c7.796364 0 14.289455 6.469818 14.289455 14.219636V785.221818l-0.186182 2.280727a14.429091 14.429091 0 0 1-14.103273 11.93891H217.925818a14.382545 14.382545 0 0 1-14.289454-14.24291V257.419636c0-7.749818 6.493091-14.219636 14.289454-14.219636z" fill="#5AC2EE" p-id="6537"></path></svg>