<svg width="1080" height="1080" viewBox="0 0 1080 1080" fill="none" xmlns="http://www.w3.org/2000/svg">
<rect width="1080" height="1080" fill="white"/>
<path d="M678.5 91.5C679 111.667 675 151.5 643.5 157C634 164 625.5 176 620 187.5C651 195 674 224 733 312V319C751.766 282.277 799 199.5 820.5 171.5C826.5 153 822 126.48 822 108.5C822 98.5001 832.026 114.5 837 131C850 115 868.823 67.5505 873 69.5C880.5 73 863 114 867.5 116C872.547 118.243 891.485 73.6365 897 76C904 79 878 119.5 884.5 120.5C891 121.5 909.5 94 914 97C918.5 100 891.5 133 895 133C898.5 133 914.5 117.5 917.5 124.5C920.5 131.5 895 145 891.5 151.5C888.655 156.783 871.5 177 856 182.5C847.989 185.343 812.472 352.722 758.5 402C747 412.5 661.667 345.333 643.5 296.5C642 309.5 636 325.5 618.5 333.5C612.833 358.667 598.3 411.4 585.5 421C569.5 433 496.5 432.5 463 387C474.5 375 500 359.5 506.5 265L434.5 283.764C413.167 326.509 372.5 409 356.5 428C353 434 369 438.5 335 481.5C301 524.5 300.5 502 327.5 475C312.833 486.833 271.5 514.5 269 514C253.519 510.904 299.5 480 298.5 479C296.5 477 253.5 512 249 507.5C243.901 502.401 288.449 465.265 287.5 464C286 462 242.667 496.5 239 491C235.667 486.001 260.702 464.201 278.43 453.014C268.967 458.391 255.299 464.964 254.5 461.5C251.5 448.5 296 432.5 324 409C335.833 359.333 363.7 256.6 380.5 243C401.5 226 538 174.5 572.5 174.5C577.833 166.833 588.6 150.1 589 144.5C589.5 137.5 604.5 42.4999 678.5 91.5Z" fill="#FFF4EC"/>
<path d="M837 131C839.833 132.667 843.5 140.5 844.5 146M837 131C832.026 114.5 822 98.5001 822 108.5C822 126.48 826.5 153 820.5 171.5C799 199.5 751.766 282.277 733 319V312C674 224 651 195 620 187.5C625.5 176 634 164 643.5 157C675 151.5 679 111.667 678.5 91.5C604.5 42.4999 589.5 137.5 589 144.5C588.6 150.1 577.833 166.833 572.5 174.5C538 174.5 401.5 226 380.5 243C363.7 256.6 335.833 359.333 324 409M837 131C837.354 131.858 836.671 130.193 837 131ZM837 131C850 115 868.823 67.5505 873 69.5C880.5 73 863 114 867.5 116C872.547 118.243 891.485 73.6365 897 76C904 79 878 119.5 884.5 120.5C891 121.5 909.5 94 914 97C918.5 100 891.5 133 895 133C898.5 133 914.5 117.5 917.5 124.5C920.5 131.5 895 145 891.5 151.5C888.655 156.783 871.5 177 856 182.5C847.989 185.343 812.472 352.722 758.5 402C747 412.5 661.667 345.333 643.5 296.5C642 309.5 636 325.5 618.5 333.5C612.833 358.667 598.3 411.4 585.5 421C569.5 433 496.5 432.5 463 387C474.5 375 500 359.5 506.5 265M506.5 265L549.5 255.5M506.5 265L434.5 283.764M424 286.5L434.5 283.764M434.5 283.764C413.167 326.509 372.5 409 356.5 428C353 434 369 438.5 335 481.5C301 524.5 300.5 502 327.5 475C312.833 486.833 271.5 514.5 269 514C253.519 510.904 299.5 480 298.5 479C296.5 477 253.5 512 249 507.5C243.901 502.401 288.449 465.265 287.5 464C286 462 242.667 496.5 239 491C235.333 485.5 266 459.667 283.5 450C275 455.333 255.461 465.663 254.5 461.5C251.5 448.5 296 432.5 324 409M324 409L319.5 421" stroke="black"/>
<path d="M684.5 124.5C683.7 124.1 679.833 114.667 678 110C677.2 119.2 675 125.833 674 128C677.833 127 685.3 124.9 684.5 124.5Z" fill="#FFF4EC" stroke="black" stroke-linejoin="round"/>
<path d="M669 139C667.333 138.833 662.9 137.8 658.5 135" stroke="black" stroke-linecap="round"/>
<circle cx="666.5" cy="105.5" r="2" fill="black" stroke="black"/>
<path d="M402 520C389 458.5 439.833 406.167 463 386.5C511.8 441.7 567.667 431.167 589.5 419C586.7 421 574 443.7 568 454.8C660.642 455.771 734 491 745 508C762 571.5 664.667 702.667 621.5 757C604.023 761.4 586.551 747.333 577.5 739C586.781 696.306 621.474 594.605 648 558.62C597.672 557.327 558.261 554.727 527.5 550.814C506.5 566.814 399.5 713.5 384 741.5C371.6 763.9 271.167 872.833 222.5 924.5C200.9 922.1 186.5 902.833 182 893.5C195.2 851.5 269.167 748 304.5 701.5C315.7 685.9 375 574.5 402 520Z" fill="#504D4D"/>
<path d="M304.5 701.5C315.7 685.9 375 574.5 402 520C389 458.5 439.833 406.167 463 386.5C511.8 441.7 567.667 431.167 589.5 419C586.7 421 574 443.7 568 454.8M304.5 701.5L311.5 699M304.5 701.5C269.167 748 195.2 851.5 182 893.5C186.5 902.833 200.9 922.1 222.5 924.5C271.167 872.833 371.6 763.9 384 741.5C399.5 713.5 506.5 566.814 527.5 550.814M426 455.5C416 518.5 414.493 552.62 648 558.62L654 551.5C627 578.5 587.5 693 577.5 739C586.551 747.333 604.023 761.4 621.5 757C664.667 702.667 762 571.5 745 508C734 491 660.642 455.771 568 454.8M539.5 455.5C549.294 454.922 558.798 454.704 568 454.8" stroke="black"/>
<path d="M556.5 786.5C562.1 781.7 574.5 753.833 580 740.5C598.8 757.3 614.167 758.167 619.5 756.5L599.5 795.5C576.7 802.7 561.333 792.5 556.5 786.5Z" fill="#FFF4EC" stroke="black"/>
<path d="M164.5 925L184 896C189.6 910.4 206.667 919.667 214.5 922.5C202.5 927.3 195.833 946.833 194 956C175.6 954.4 166.667 934.667 164.5 925Z" fill="#FFF4EC" stroke="black"/>
<path d="M539 816C533.8 802.4 548.167 790.667 556 786.5C574.4 802.5 593 798.833 600 795C609.187 799.433 617.325 803.524 624.5 807.297C626.762 808.486 628.927 809.643 631 810.77C633.278 812.008 635.444 813.208 637.5 814.372C709.047 854.874 648.614 851.203 603.5 843C584.167 839.667 544.2 829.6 539 816Z" fill="#ED4F39"/>
<path d="M624.5 807.297C617.325 803.524 609.187 799.433 600 795C593 798.833 574.4 802.5 556 786.5C548.167 790.667 533.8 802.4 539 816C544.2 829.6 584.167 839.667 603.5 843C648.614 851.203 709.047 854.874 637.5 814.372M624.5 807.297C621.5 807.698 614.9 809.4 612.5 813M624.5 807.297C626.762 808.486 628.927 809.643 631 810.77M631 810.77C628.5 811.346 622.9 813.5 620.5 817.5M631 810.77C633.278 812.008 635.444 813.208 637.5 814.372M637.5 814.372C636.167 814.915 632.6 816.7 629 819.5" stroke="black" stroke-linecap="round" stroke-linejoin="round"/>
<path d="M133.382 937.166C137.464 923.189 156.001 922.531 164.76 923.949C169.74 947.819 186.772 956.145 194.665 957.325C199.302 966.41 203.31 974.59 206.744 981.933C207.826 984.248 208.851 986.479 209.821 988.629C210.887 990.993 211.885 993.259 212.819 995.429C245.315 1070.95 199.401 1031.48 168.429 997.672C155.046 983.327 129.3 951.142 133.382 937.166Z" fill="#ED4F39"/>
<path d="M206.744 981.933C203.31 974.59 199.302 966.41 194.665 957.325C186.772 956.145 169.74 947.819 164.76 923.949C156.001 922.531 137.464 923.189 133.382 937.166C129.3 951.142 155.046 983.327 168.429 997.672C199.401 1031.48 245.315 1070.95 212.819 995.429M206.744 981.933C204.112 980.438 197.826 977.803 193.737 979.22M206.744 981.933C207.826 984.248 208.851 986.479 209.821 988.629M209.821 988.629C207.481 987.577 201.718 985.906 197.388 987.641M209.821 988.629C210.887 990.993 211.885 993.259 212.819 995.429M212.819 995.429C211.429 995.055 207.509 994.32 202.949 994.374" stroke="black" stroke-linecap="round" stroke-linejoin="round"/>
<path d="M502 306C558 319 583.5 215.5 561.5 175.5L572.5 174.5C595 203.5 589 256.5 580.5 280C604 287.5 630.5 278 634 266C636.8 256.4 629.167 209.667 624 188.5C625.2 188.1 631.167 191.333 634 193C631.6 203.4 636.667 246 639.5 266C653.1 304.4 631.5 326.667 619 333L613 354.5C572.2 366.5 517 347.5 494.5 336.5C496.1 332.1 500.167 314.333 502 306Z" fill="#ED4F39"/>
<path d="M619 333L613 354.5C572.2 366.5 517 347.5 494.5 336.5C496.1 332.1 500.167 314.333 502 306C558 319 583.5 215.5 561.5 175.5L572.5 174.5C595 203.5 589 256.5 580.5 280C604 287.5 630.5 278 634 266C636.8 256.4 629.167 209.667 624 188.5C625.2 188.1 631.167 191.333 634 193C631.6 203.4 636.667 246 639.5 266C653.1 304.4 631.5 326.667 619 333ZM619 333C617.833 334.167 612 336.5 598 336.5" stroke="black" stroke-linecap="round"/>
<path d="M588 144C594.3 149.321 608.333 126.167 613.5 118C599 105 619.5 95.5 628 105L626.5 93.5C667 98.5 683 90.9999 684 86.9999C650 -26.5 514 81.5 588 144Z" fill="#ED4F39" stroke="#ED4F39" stroke-linecap="round" stroke-linejoin="round"/>
<path d="M502.5 72.5002C562.424 38.8842 580.5 52.5001 586 58.5001C566.8 75.7002 565 95.0001 566.5 102.5C566.833 103.667 563.5 121 556.5 128C550.687 133.813 520 142.988 510 144.5C467 151 485.548 160.948 454.5 168.5C417.5 177.5 404.5 157.333 380.5 162C337.3 170.4 323.5 159.5 318.5 153.5C309.795 143.053 306.329 123.648 331 121C419.5 111.5 412 90.5002 448 79.0002C458.478 75.6529 482 84.0002 502.5 72.5002Z" fill="#ED4F39" stroke="#ED4F39"/>
<path d="M628 105.5C620.5 96 598 106 616 119M622 108.5C620.333 108.667 617.2 109.7 618 112.5" stroke="black" stroke-linecap="round"/>
</svg>
