<svg xmlns:xlink="http://www.w3.org/1999/xlink" xmlns="http://www.w3.org/2000/svg" version="1.1" viewBox="0 0 184 208" height="208px" width="184px">
    <title>12.满勤成就</title>
    <defs>
        <linearGradient id="linearGradient-1" y2="14.0319111%" x2="22.157416%" y1="88.0621668%" x1="76.7823015%">
            <stop offset="0%" stop-color="#FFAA00"></stop>
            <stop offset="100%" stop-color="#FFEC45"></stop>
        </linearGradient>
        <path id="path-2" d="M96.9205726,2.78119319 L178.920573,49.1290193 C182.059262,50.9030612 184,54.2292909 184,57.8346477 L184,150.165352 C184,153.770709 182.059262,157.096939 178.920573,158.870981 L96.9205726,205.218807 C93.8671831,206.944636 90.1328169,206.944636 87.0794274,205.218807 L5.07942743,158.870981 C1.94073784,157.096939 0,153.770709 0,150.165352 L0,57.8346477 C0,54.2292909 1.94073784,50.9030612 5.07942743,49.1290193 L87.0794274,2.78119319 C90.1328169,1.05536437 93.8671831,1.05536437 96.9205726,2.78119319 Z"></path>
        <filter id="filter-4" filterUnits="objectBoundingBox" height="190.0%" width="181.4%" y="-45.0%" x="-40.7%">
            <feGaussianBlur in="SourceGraphic" stdDeviation="22"></feGaussianBlur>
        </filter>
        <linearGradient id="linearGradient-5" y2="18.1691683%" x2="23.9600092%" y1="84.7725295%" x1="85.4955967%">
            <stop offset="0%" stop-color="#FEE464"></stop>
            <stop offset="45.0170647%" stop-color="#FFAA11"></stop>
            <stop offset="100%" stop-color="#FF9413"></stop>
        </linearGradient>
        <linearGradient id="linearGradient-6" y2="2.70498442%" x2="50%" y1="113.506108%" x1="50.3496363%">
            <stop offset="0%" stop-color="#FFE658"></stop>
            <stop offset="50.4971665%" stop-color="#F09715"></stop>
            <stop offset="100%" stop-color="#EA6E14"></stop>
            <stop offset="100%" stop-color="#F46701"></stop>
        </linearGradient>
        <path id="path-7" d="M81.968229,7.11247728 L152.968229,47.2429121 C154.223705,47.9525288 155,49.2830207 155,50.7251634 L155,131.168461 C155,132.610604 154.223705,133.941096 152.968229,134.650713 L81.968229,174.781147 C80.7468732,175.471479 79.2531268,175.471479 78.031771,174.781147 L7.03177097,134.650713 C5.77629514,133.941096 5,132.610604 5,131.168461 L5,50.7251634 C5,49.2830207 5.77629514,47.9525288 7.03177097,47.2429121 L78.031771,7.11247728 C79.2531268,6.42214575 80.7468732,6.42214575 81.968229,7.11247728 Z"></path>
        <linearGradient id="linearGradient-9" y2="2.70498442%" x2="50%" y1="100%" x1="50%">
            <stop offset="0%" stop-color="#FDD13C"></stop>
            <stop offset="50.9753877%" stop-color="#FF8D3A"></stop>
            <stop offset="100%" stop-color="#E04528"></stop>
        </linearGradient>
        <path id="path-10" d="M81.4749577,5.83276735 L153.474958,46.4842727 C154.417246,47.0162928 155,48.0145413 155,49.0966471 L155,131.751926 C155,132.833533 154.417779,133.831402 153.476172,134.363615 L81.4740714,175.060454 C80.5591895,175.577561 79.4404255,175.578243 78.5249137,175.062252 L6.52701406,134.483551 C5.58361882,133.951844 5,132.95298 5,131.870064 L5,49.0966471 C5,48.0145413 5.58275382,47.0162928 6.52504234,46.4842727 L78.5250423,5.83276735 C79.4404343,5.31593319 80.5595657,5.31593319 81.4749577,5.83276735 Z"></path>
        <linearGradient id="linearGradient-12" y2="0%" x2="59.8046771%" y1="145.317168%" x1="59.8046771%">
            <stop offset="0%" stop-color="#FDA406"></stop>
            <stop offset="100%" stop-color="#FF6B16"></stop>
        </linearGradient>
        <polygon points="72.8976734 0.916086921 144 121.916087 1.8933005e-12 121.916087" id="path-13"></polygon>
        <linearGradient id="linearGradient-15" y2="18.327728%" x2="49.256798%" y1="100%" x1="45.2908508%">
            <stop offset="0%" stop-color="#F03E1B"></stop>
            <stop offset="100%" stop-color="#FDA406"></stop>
        </linearGradient>
        <linearGradient id="linearGradient-16" y2="45.9601211%" x2="47.4906482%" y1="56.3776273%" x1="34.0999993%">
            <stop offset="0%" stop-color="#F03E1B"></stop>
            <stop offset="100%" stop-color="#FDA406"></stop>
        </linearGradient>
        <linearGradient id="linearGradient-17" y2="20.3037838%" x2="53.5239591%" y1="78.9742701%" x1="0%">
            <stop offset="0%" stop-color="#F34422"></stop>
            <stop offset="100%" stop-color="#F68818"></stop>
        </linearGradient>
        <polygon points="72.8976734 0.916086921 144 125.916087 1.8933005e-12 125.916087" id="path-18"></polygon>
        <linearGradient id="linearGradient-20" y2="15.9973096%" x2="64.8086445%" y1="100%" x1="45.2908508%">
            <stop offset="0%" stop-color="#F03E1B"></stop>
            <stop offset="100%" stop-color="#F88E1F"></stop>
        </linearGradient>
        <linearGradient id="linearGradient-21" y2="93.0250903%" x2="50%" y1="11.6361679%" x1="50%">
            <stop offset="0%" stop-opacity="0" stop-color="#FEA019"></stop>
            <stop offset="100%" stop-color="#F53611"></stop>
        </linearGradient>
        <linearGradient id="linearGradient-22" y2="76.0932585%" x2="52.6362653%" y1="0%" x1="50%">
            <stop offset="0%" stop-color="#FFEDA7"></stop>
            <stop offset="100%" stop-color="#FFA538"></stop>
        </linearGradient>
        <path id="path-23" d="M13.5072544,5.54459927 C13.8823157,6.35029718 14.2554101,7.14197993 14.6265376,7.91964752 L15.3661701,9.4562958 L15.3661701,9.4562958 L16.1005575,10.9555703 C16.3444791,11.4490995 16.5875266,11.9363998 16.8296999,12.4174711 L17.5535972,13.841998 C18.0344471,14.7792248 18.5118002,15.6915356 18.9856567,16.5789307 L19.6938188,17.8913363 C19.9289987,18.3225759 20.1633044,18.7475866 20.3967359,19.1663682 L21.094408,20.4040263 L21.094408,20.4040263 L21.786835,21.6043107 C23.741281,24.9521702 25.6325678,27.8499872 27.4606954,30.2977617 C32.4748281,37.0114429 37.4178153,42.6182094 42.2896571,47.1180611 L30.1811567,82.0010545 L29.0855255,80.8723043 L29.0855255,80.8723043 L27.4913363,79.2135544 L27.4913363,79.2135544 L25.956256,77.5960547 L25.956256,77.5960547 L24.9657075,76.5406385 L24.9657075,76.5406385 L24.0014296,75.5035557 L24.0014296,75.5035557 L23.0634223,74.4848064 L23.0634223,74.4848064 L22.1516857,73.4843906 L22.1516857,73.4843906 L21.2662197,72.5023082 L21.2662197,72.5023082 L20.4070244,71.5385593 L20.4070244,71.5385593 L19.5740997,70.593144 L19.5740997,70.593144 L18.7674457,69.666062 L18.7674457,69.666062 L17.9870623,68.7573136 L17.9870623,68.7573136 L17.2329496,67.8668986 L17.2329496,67.8668986 L16.5051075,66.9948171 L16.5051075,66.9948171 L15.8035361,66.1410691 C15.6887967,66.0003056 15.575152,65.8603059 15.4626019,65.7210701 L14.8004364,64.8948223 L14.8004364,64.8948223 L14.1645416,64.086908 L14.1645416,64.086908 L13.5549174,63.2973272 L13.5549174,63.2973272 L12.9715639,62.5260798 L12.9715639,62.5260798 L12.414481,61.7731659 L12.414481,61.7731659 L11.8836687,61.0385854 L11.8836687,61.0385854 L11.3791271,60.3223385 C11.2153251,60.0866451 11.0559014,59.8540073 10.9008562,59.624425 L10.4488559,58.944845 C10.3025676,58.7213739 10.1606577,58.5009584 10.0231263,58.2835985 L9.62366725,57.6406854 C9.4305054,57.3238123 9.24719506,57.0138142 9.0737362,56.7106911 L8.73995381,56.1136118 L8.73995381,56.1136118 C6.11065029,51.2927327 4.06765067,46.124781 2.62037795,41.3180813 L2.30857183,40.2561602 C2.10724365,39.552561 1.91900574,38.8580421 1.74388872,38.1749067 L1.4910577,37.159029 C1.32906924,36.4878527 1.180217,35.8292115 1.04453161,35.1854084 L0.850882504,34.2311203 C0.820254787,34.074023 0.790450956,33.917925 0.761471489,33.7628625 L0.597490897,32.8451989 C0.135249232,30.1312081 -0.0595880296,27.775988 0.0157711149,25.9894126 C0.361229021,17.7994763 2.45865408,10.9225797 6.30804629,5.35872281 L6.63287672,4.89810196 C7.92224138,3.10426331 10.4216715,2.69530633 12.2155102,3.984671 C12.703123,4.33515444 13.1046558,4.79025552 13.3914506,5.31536635 L13.5072544,5.54459927 Z"></path>
        <linearGradient id="linearGradient-25" y2="52.3884364%" x2="32.6221683%" y1="1.42108547e-12%" x1="43.2876087%">
            <stop offset="0%" stop-color="#FFF9DD"></stop>
            <stop offset="100%" stop-color="#FFE08A"></stop>
        </linearGradient>
        <linearGradient id="linearGradient-26" y2="67.842374%" x2="50%" y1="7.5801073%" x1="42.5689851%">
            <stop offset="0%" stop-color="#FFF2B5"></stop>
            <stop offset="100%" stop-color="#FFCB50"></stop>
        </linearGradient>
        <path id="path-27" d="M12.5196598,5.7054378 C12.7682775,6.2386473 13.0160297,6.76568993 13.2629165,7.28656569 L14.0009805,8.83069236 L14.0009805,8.83069236 L14.7338517,10.3378178 L14.7338517,10.3378178 L15.4615301,11.807942 C15.5823771,12.0498792 15.7030078,12.2902748 15.823422,12.5291286 L16.5433113,13.943751 C16.6628601,14.1764379 16.7821926,14.4075832 16.9013087,14.6371867 L17.6134088,15.9963072 C17.9681606,16.6666171 18.3209652,17.3230516 18.6718225,17.9656106 L19.3709407,19.2322281 L19.3709407,19.2322281 L20.0648661,20.4618443 C20.2953091,20.8655494 20.5248866,21.2630878 20.7535987,21.6544592 L21.4371386,22.8100729 C21.5506292,22.9995918 21.6639034,23.1875689 21.7769612,23.3740044 L22.452712,24.4741162 C23.7990206,26.6373388 25.1141726,28.5785539 26.398168,30.2977617 C31.4123007,37.0114429 36.3552879,42.6182094 41.2271297,47.1180611 L27.6473367,83.0917279 L26.604995,81.8800068 L26.604995,81.8800068 L25.0877923,80.1021132 L25.0877923,80.1021132 L23.6261615,78.3718455 L23.6261615,78.3718455 L22.6826142,77.2447925 L22.6826142,77.2447925 L21.7637656,76.1389065 L21.7637656,76.1389065 L20.8696156,75.0541875 L20.8696156,75.0541875 L19.5747005,73.4667973 L19.5747005,73.4667973 L18.3353572,71.9270329 L18.3353572,71.9270329 L17.1515859,70.4348942 L17.1515859,70.4348942 L16.3932783,69.466594 L16.3932783,69.466594 L15.6596693,68.5194607 L15.6596693,68.5194607 L14.9507589,67.5934945 L14.9507589,67.5934945 L13.9337033,66.2442333 L13.9337033,66.2442333 L13.2865395,65.3711847 L13.2865395,65.3711847 L12.6640743,64.519303 L12.6640743,64.519303 L12.0663077,63.6885885 L12.0663077,63.6885885 L11.4932397,62.8790409 C11.3997866,62.7458802 11.3073626,62.6136015 11.2159677,62.4822048 L10.6799477,61.7044078 L10.6799477,61.7044078 L10.1686263,60.9477778 L10.1686263,60.9477778 L9.68200349,60.2123148 C9.60295791,60.0915016 9.52494144,59.9715703 9.44795408,59.852521 L8.99837922,59.1488086 L8.99837922,59.1488086 L8.57350298,58.4662632 L8.57350298,58.4662632 L8.17332536,57.8048849 C8.04404925,57.5879533 7.91888958,57.3745495 7.79784635,57.1646736 L7.44706597,56.5456293 C7.39066079,56.4442192 7.33528472,56.343691 7.28093776,56.2440448 C4.49432548,51.1347371 2.67968324,45.4032515 1.5589257,40.107267 L1.34394359,39.0541901 L1.34394359,39.0541901 L1.1469707,38.014607 L1.1469707,38.014607 L0.967512658,36.9903978 C0.796647243,35.9745024 0.651312533,34.9844885 0.529283846,34.0288175 L0.414941438,33.0849075 L0.414941438,33.0849075 L0.315642004,32.1657731 L0.315642004,32.1657731 L0.23089117,31.2732947 C0.21795095,31.126874 0.205596322,30.9816424 0.193816987,30.837639 L0.129962103,29.98867 L0.129962103,29.98867 L0.0794198852,29.1710576 C0.0720781058,29.0375064 0.0652704218,28.9053401 0.0589865339,28.7745978 L0.0274863633,28.0075461 L0.0274863633,28.0075461 L0.00806292362,27.276552 C0.00580461269,27.1578288 0.00402889996,27.0406865 0.00272548599,26.925164 L0.000490191463,26.2517817 C0.00103477466,26.1428956 0.00203105768,26.0357078 0.00346874109,25.9302574 L0.0173092504,25.3187176 C0.0204713375,25.2203736 0.0240542261,25.1238454 0.0280476166,25.0291722 C0.356870267,17.2336158 2.09487453,10.7868203 5.24206039,5.68878547 L5.53205283,5.22904502 C6.72871131,3.37208619 9.20415725,2.83680701 11.0611161,4.03346549 C11.6247756,4.39669809 12.0869188,4.89503251 12.4065559,5.48148103 L12.5196598,5.7054378 Z"></path>
        <linearGradient id="linearGradient-29" y2="58.1711712%" x2="45.4606318%" y1="9.90807472%" x1="42.0971457%">
            <stop offset="0%" stop-color="#FFFAE3"></stop>
            <stop offset="100%" stop-color="#FFEA81"></stop>
        </linearGradient>
        <path id="path-30" d="M13.5072544,5.54459927 C13.8823157,6.35029718 14.2554101,7.14197993 14.6265376,7.91964752 L15.3661701,9.4562958 L15.3661701,9.4562958 L16.1005575,10.9555703 C16.3444791,11.4490995 16.5875266,11.9363998 16.8296999,12.4174711 L17.5535972,13.841998 C18.0344471,14.7792248 18.5118002,15.6915356 18.9856567,16.5789307 L19.6938188,17.8913363 C19.9289987,18.3225759 20.1633044,18.7475866 20.3967359,19.1663682 L21.094408,20.4040263 L21.094408,20.4040263 L21.786835,21.6043107 C23.741281,24.9521702 25.6325678,27.8499872 27.4606954,30.2977617 C32.4748281,37.0114429 37.4178153,42.6182094 42.2896571,47.1180611 L30.1811567,82.0010545 L29.0855255,80.8723043 L29.0855255,80.8723043 L27.4913363,79.2135544 L27.4913363,79.2135544 L25.956256,77.5960547 L25.956256,77.5960547 L24.9657075,76.5406385 L24.9657075,76.5406385 L24.0014296,75.5035557 L24.0014296,75.5035557 L23.0634223,74.4848064 L23.0634223,74.4848064 L22.1516857,73.4843906 L22.1516857,73.4843906 L21.2662197,72.5023082 L21.2662197,72.5023082 L20.4070244,71.5385593 L20.4070244,71.5385593 L19.5740997,70.593144 L19.5740997,70.593144 L18.7674457,69.666062 L18.7674457,69.666062 L17.9870623,68.7573136 L17.9870623,68.7573136 L17.2329496,67.8668986 L17.2329496,67.8668986 L16.5051075,66.9948171 L16.5051075,66.9948171 L15.8035361,66.1410691 C15.6887967,66.0003056 15.575152,65.8603059 15.4626019,65.7210701 L14.8004364,64.8948223 L14.8004364,64.8948223 L14.1645416,64.086908 L14.1645416,64.086908 L13.5549174,63.2973272 L13.5549174,63.2973272 L12.9715639,62.5260798 L12.9715639,62.5260798 L12.414481,61.7731659 L12.414481,61.7731659 L11.8836687,61.0385854 L11.8836687,61.0385854 L11.3791271,60.3223385 C11.2153251,60.0866451 11.0559014,59.8540073 10.9008562,59.624425 L10.4488559,58.944845 C10.3025676,58.7213739 10.1606577,58.5009584 10.0231263,58.2835985 L9.62366725,57.6406854 C9.4305054,57.3238123 9.24719506,57.0138142 9.0737362,56.7106911 L8.73995381,56.1136118 L8.73995381,56.1136118 C6.11065029,51.2927327 4.06765067,46.124781 2.62037795,41.3180813 L2.30857183,40.2561602 C2.10724365,39.552561 1.91900574,38.8580421 1.74388872,38.1749067 L1.4910577,37.159029 C1.32906924,36.4878527 1.180217,35.8292115 1.04453161,35.1854084 L0.850882504,34.2311203 C0.820254787,34.074023 0.790450956,33.917925 0.761471489,33.7628625 L0.597490897,32.8451989 C0.135249232,30.1312081 -0.0595880296,27.775988 0.0157711149,25.9894126 C0.361229021,17.7994763 2.45865408,10.9225797 6.30804629,5.35872281 L6.63287672,4.89810196 C7.92224138,3.10426331 10.4216715,2.69530633 12.2155102,3.984671 C12.703123,4.33515444 13.1046558,4.79025552 13.3914506,5.31536635 L13.5072544,5.54459927 Z"></path>
        <path id="path-32" d="M12.5196598,5.7054378 C12.7682775,6.2386473 13.0160297,6.76568993 13.2629165,7.28656569 L14.0009805,8.83069236 L14.0009805,8.83069236 L14.7338517,10.3378178 L14.7338517,10.3378178 L15.4615301,11.807942 C15.5823771,12.0498792 15.7030078,12.2902748 15.823422,12.5291286 L16.5433113,13.943751 C16.6628601,14.1764379 16.7821926,14.4075832 16.9013087,14.6371867 L17.6134088,15.9963072 C17.9681606,16.6666171 18.3209652,17.3230516 18.6718225,17.9656106 L19.3709407,19.2322281 L19.3709407,19.2322281 L20.0648661,20.4618443 C20.2953091,20.8655494 20.5248866,21.2630878 20.7535987,21.6544592 L21.4371386,22.8100729 C21.5506292,22.9995918 21.6639034,23.1875689 21.7769612,23.3740044 L22.452712,24.4741162 C23.7990206,26.6373388 25.1141726,28.5785539 26.398168,30.2977617 C31.4123007,37.0114429 36.3552879,42.6182094 41.2271297,47.1180611 L27.6473367,83.0917279 L26.604995,81.8800068 L26.604995,81.8800068 L25.0877923,80.1021132 L25.0877923,80.1021132 L23.6261615,78.3718455 L23.6261615,78.3718455 L22.6826142,77.2447925 L22.6826142,77.2447925 L21.7637656,76.1389065 L21.7637656,76.1389065 L20.8696156,75.0541875 L20.8696156,75.0541875 L19.5747005,73.4667973 L19.5747005,73.4667973 L18.3353572,71.9270329 L18.3353572,71.9270329 L17.1515859,70.4348942 L17.1515859,70.4348942 L16.3932783,69.466594 L16.3932783,69.466594 L15.6596693,68.5194607 L15.6596693,68.5194607 L14.9507589,67.5934945 L14.9507589,67.5934945 L13.9337033,66.2442333 L13.9337033,66.2442333 L13.2865395,65.3711847 L13.2865395,65.3711847 L12.6640743,64.519303 L12.6640743,64.519303 L12.0663077,63.6885885 L12.0663077,63.6885885 L11.4932397,62.8790409 C11.3997866,62.7458802 11.3073626,62.6136015 11.2159677,62.4822048 L10.6799477,61.7044078 L10.6799477,61.7044078 L10.1686263,60.9477778 L10.1686263,60.9477778 L9.68200349,60.2123148 C9.60295791,60.0915016 9.52494144,59.9715703 9.44795408,59.852521 L8.99837922,59.1488086 L8.99837922,59.1488086 L8.57350298,58.4662632 L8.57350298,58.4662632 L8.17332536,57.8048849 C8.04404925,57.5879533 7.91888958,57.3745495 7.79784635,57.1646736 L7.44706597,56.5456293 C7.39066079,56.4442192 7.33528472,56.343691 7.28093776,56.2440448 C4.49432548,51.1347371 2.67968324,45.4032515 1.5589257,40.107267 L1.34394359,39.0541901 L1.34394359,39.0541901 L1.1469707,38.014607 L1.1469707,38.014607 L0.967512658,36.9903978 C0.796647243,35.9745024 0.651312533,34.9844885 0.529283846,34.0288175 L0.414941438,33.0849075 L0.414941438,33.0849075 L0.315642004,32.1657731 L0.315642004,32.1657731 L0.23089117,31.2732947 C0.21795095,31.126874 0.205596322,30.9816424 0.193816987,30.837639 L0.129962103,29.98867 L0.129962103,29.98867 L0.0794198852,29.1710576 C0.0720781058,29.0375064 0.0652704218,28.9053401 0.0589865339,28.7745978 L0.0274863633,28.0075461 L0.0274863633,28.0075461 L0.00806292362,27.276552 C0.00580461269,27.1578288 0.00402889996,27.0406865 0.00272548599,26.925164 L0.000490191465,26.2517817 C0.00103477466,26.1428956 0.00203105769,26.0357078 0.00346874109,25.9302574 L0.0173092504,25.3187176 C0.0204713375,25.2203736 0.0240542261,25.1238454 0.0280476166,25.0291722 C0.356870267,17.2336158 2.09487453,10.7868203 5.24206039,5.68878547 L5.53205283,5.22904502 C6.72871131,3.37208619 9.20415725,2.83680701 11.0611161,4.03346549 C11.6247756,4.39669809 12.0869188,4.89503251 12.4065559,5.48148103 L12.5196598,5.7054378 Z"></path>
        <linearGradient id="linearGradient-34" y2="82.2768076%" x2="89.5806133%" y1="15.1488909%" x1="12.762843%">
            <stop offset="0%" stop-color="#FFE58A"></stop>
            <stop offset="55.6927279%" stop-color="#F9742E"></stop>
            <stop offset="100%" stop-color="#FA3D42"></stop>
        </linearGradient>
        <linearGradient id="linearGradient-35" y2="82.2768076%" x2="89.5806133%" y1="16.601209%" x1="14.8620937%">
            <stop offset="0%" stop-color="#FF6534"></stop>
            <stop offset="100%" stop-color="#FFEB8E"></stop>
        </linearGradient>
        <circle r="48.5" cy="55.5" cx="54.5" id="path-36"></circle>
        <filter id="filter-37" filterUnits="objectBoundingBox" height="103.1%" width="103.1%" y="-1.5%" x="-1.5%">
            <feGaussianBlur result="shadowBlurInner1" in="SourceAlpha" stdDeviation="1"></feGaussianBlur>
            <feOffset result="shadowOffsetInner1" in="shadowBlurInner1" dy="-1" dx="1"></feOffset>
            <feComposite result="shadowInnerInner1" k3="1" k2="-1" operator="arithmetic" in2="SourceAlpha" in="shadowOffsetInner1"></feComposite>
            <feColorMatrix in="shadowInnerInner1" type="matrix" values="0 0 0 0 1   0 0 0 0 0.896634072   0 0 0 0 0.11105302  0 0 0 1 0"></feColorMatrix>
        </filter>
        <linearGradient id="linearGradient-38" y2="72.8265503%" x2="94.5462659%" y1="15.5455647%" x1="20.6922192%">
            <stop offset="0%" stop-color="#FFA711"></stop>
            <stop offset="58.8935955%" stop-color="#FF474F"></stop>
            <stop offset="100%" stop-color="#E91D4A"></stop>
        </linearGradient>
        <circle r="41.5" cy="54.5" cx="54.5" id="path-39"></circle>
        <filter id="filter-40" filterUnits="objectBoundingBox" height="110.8%" width="110.8%" y="-5.4%" x="-5.4%">
            <feOffset result="shadowOffsetOuter1" in="SourceAlpha" dy="0" dx="0"></feOffset>
            <feGaussianBlur result="shadowBlurOuter1" in="shadowOffsetOuter1" stdDeviation="1.5"></feGaussianBlur>
            <feColorMatrix in="shadowBlurOuter1" type="matrix" values="0 0 0 0 0.783967391   0 0 0 0 0.144986538   0 0 0 0 0.448892066  0 0 0 0.509874891 0"></feColorMatrix>
        </filter>
        <linearGradient id="linearGradient-41" y2="22.8981131%" x2="56.0332741%" y1="84.0446426%" x1="56.0332741%">
            <stop offset="0%" stop-color="#C41C42"></stop>
            <stop offset="100%" stop-color="#F75D1E"></stop>
        </linearGradient>
        <path id="path-42" d="M37.975,83.6 C41.575,83.6 45.1,82.475 47.5,80.225 C51.2186047,76.7209302 51.3233775,72.6713764 51.3250792,68.1413526 L51.3250792,67.475 L51.3250792,67.475 C51.3250792,64.475 51.3250792,61.325 49.9,58.55 C49.15,57.125 48.1,56 46.75,54.95 C48.025,54.05 49,52.925 49.675,51.575 C50.875,49.025 50.95,46.25 50.95,43.475 C50.95,38.825 49.75,34.85 47.125,32.3 C45.025,30.2 42.025,29 37.975,29 C34.375,29 31.15,30.05 28.75,32.375 C26.35,34.625 25.075,37.55 25.075,41.9 L25.075,44.9 L35.125,44.9 L35.125,41.225 C35.125,39.05 36.4,38 37.975,38 C39.1,38 39.7,38.45 40.15,39.05 C41.05,40.325 40.9,42.725 40.9,44.225 C40.9,45.8 41.05,48.575 40,49.85 C39.55,50.375 38.875,50.75 37.9,50.75 L35.5,50.75 L35.5,59.15 L37.9,59.15 C39.175,59.15 39.925,59.675 40.45,60.425 C41.1863636,61.5909091 41.2700413,63.9115702 41.276127,65.6617017 L41.2760706,66.2215815 C41.2758452,66.3105841 41.2755776,66.3972342 41.2753663,66.4812359 L41.275864,67.1728496 C41.28028,69.01112 41.272,72.152 40.375,73.325 C39.925,73.925 39.175,74.6 37.975,74.6 C36.175,74.6 34.75,73.4 34.75,70.925 L34.75,67.7 L24.7,67.7 L24.7,70.55 C24.7,75.2 25.975,77.9 28.375,80.15 C30.775,82.475 34.375,83.6 37.975,83.6 Z M69.7,83.6 C73.3,83.6 76.825,82.475 79.225,80.15 C81.625,77.9 82.9,75.2 82.9,70.55 L82.9,42.05 C82.9,37.4 81.625,34.7 79.225,32.45 C76.825,30.125 73.3,29 69.7,29 C66.1,29 62.575,30.125 60.175,32.45 C57.775,34.7 56.5,37.4 56.5,42.05 L56.5,70.55 C56.5,75.2 57.775,77.9 60.175,80.15 C62.575,82.475 66.1,83.6 69.7,83.6 Z M69.7,74.6 C67.9,74.6 66.55,73.4 66.55,70.925 L66.55,41.675 C66.55,39.2 67.9,38 69.7,38 C71.5,38 72.85,39.2 72.85,41.675 L72.85,70.925 C72.85,73.4 71.5,74.6 69.7,74.6 Z"></path>
        <linearGradient id="linearGradient-43" y2="30.6738915%" x2="8.50248606%" y1="68.8501285%" x1="92.3139834%">
            <stop offset="0%" stop-color="#FFBB50"></stop>
            <stop offset="46.2969761%" stop-color="#FFE18B"></stop>
            <stop offset="100%" stop-color="#FFFFFF"></stop>
        </linearGradient>
        <path id="path-44" d="M37.975,79.6 C41.575,79.6 45.1,78.475 47.5,76.225 C51.2186047,72.7209302 51.3233775,68.6713764 51.3250792,64.1413526 L51.3250792,63.475 L51.3250792,63.475 C51.3250792,60.475 51.3250792,57.325 49.9,54.55 C49.15,53.125 48.1,52 46.75,50.95 C48.025,50.05 49,48.925 49.675,47.575 C50.875,45.025 50.95,42.25 50.95,39.475 C50.95,34.825 49.75,30.85 47.125,28.3 C45.025,26.2 42.025,25 37.975,25 C34.375,25 31.15,26.05 28.75,28.375 C26.35,30.625 25.075,33.55 25.075,37.9 L25.075,40.9 L35.125,40.9 L35.125,37.225 C35.125,35.05 36.4,34 37.975,34 C39.1,34 39.7,34.45 40.15,35.05 C41.05,36.325 40.9,38.725 40.9,40.225 C40.9,41.8 41.05,44.575 40,45.85 C39.55,46.375 38.875,46.75 37.9,46.75 L35.5,46.75 L35.5,55.15 L37.9,55.15 C39.175,55.15 39.925,55.675 40.45,56.425 C41.1863636,57.5909091 41.2700413,59.9115702 41.276127,61.6617017 L41.2760706,62.2215815 C41.2758452,62.3105841 41.2755776,62.3972342 41.2753663,62.4812359 L41.275864,63.1728496 C41.28028,65.01112 41.272,68.152 40.375,69.325 C39.925,69.925 39.175,70.6 37.975,70.6 C36.175,70.6 34.75,69.4 34.75,66.925 L34.75,63.7 L24.7,63.7 L24.7,66.55 C24.7,71.2 25.975,73.9 28.375,76.15 C30.775,78.475 34.375,79.6 37.975,79.6 Z M69.7,79.6 C73.3,79.6 76.825,78.475 79.225,76.15 C81.625,73.9 82.9,71.2 82.9,66.55 L82.9,38.05 C82.9,33.4 81.625,30.7 79.225,28.45 C76.825,26.125 73.3,25 69.7,25 C66.1,25 62.575,26.125 60.175,28.45 C57.775,30.7 56.5,33.4 56.5,38.05 L56.5,66.55 C56.5,71.2 57.775,73.9 60.175,76.15 C62.575,78.475 66.1,79.6 69.7,79.6 Z M69.7,70.6 C67.9,70.6 66.55,69.4 66.55,66.925 L66.55,37.675 C66.55,35.2 67.9,34 69.7,34 C71.5,34 72.85,35.2 72.85,37.675 L72.85,66.925 C72.85,69.4 71.5,70.6 69.7,70.6 Z"></path>
        <filter id="filter-45" filterUnits="objectBoundingBox" height="107.3%" width="106.9%" y="-3.7%" x="-3.4%">
            <feGaussianBlur result="shadowBlurInner1" in="SourceAlpha" stdDeviation="1"></feGaussianBlur>
            <feOffset result="shadowOffsetInner1" in="shadowBlurInner1" dy="-1" dx="2"></feOffset>
            <feComposite result="shadowInnerInner1" k3="1" k2="-1" operator="arithmetic" in2="SourceAlpha" in="shadowOffsetInner1"></feComposite>
            <feColorMatrix in="shadowInnerInner1" type="matrix" values="0 0 0 0 1   0 0 0 0 0.933928526   0 0 0 0 0.112102229  0 0 0 1 0"></feColorMatrix>
        </filter>
    </defs>
    <g fill-rule="evenodd" fill="none" stroke-width="1" stroke="none" id="页面-1">
        <g transform="translate(-563.000000, -1841.000000)" id="勋章">
            <g transform="translate(563.000000, 1841.000000)" id="12.满勤成就">
                <g id="矩形">
                    <mask fill="white" id="mask-3">
                        <use xlink:href="#path-2"></use>
                    </mask>
                    <use xlink:href="#path-2" fill="url(#linearGradient-1)" id="蒙版"></use>
                    <polygon points="-21.275089 61.4694852 100.866578 -33.9580435 140.884574 17.2626555 18.7429069 112.690184" mask="url(#mask-3)" filter="url(#filter-4)" opacity="0.400000006" fill="#FFFFFF"></polygon>
                </g>
                <g transform="translate(12.000000, 14.000000)" id="矩形-+-矩形-+-矩形-+-矩形蒙版">
                    <path fill-rule="nonzero" fill="url(#linearGradient-5)" id="蒙版" d="M83.9364581,2.22495455 L155.936458,42.9206067 C158.44741,44.3398403 160,47.0008241 160,49.8851094 L160,130.984456 C160,133.868741 158.44741,136.529725 155.936458,137.948958 L83.9364581,178.644611 C81.4937465,180.025274 78.5062535,180.025274 76.0635419,178.644611 L4.06354195,137.948958 C1.55259028,136.529725 0,133.868741 0,130.984456 L0,49.8851094 C0,47.0008241 1.55259028,44.3398403 4.06354195,42.9206067 L76.0635419,2.22495455 C78.5062535,0.844291498 81.4937465,0.844291498 83.9364581,2.22495455 Z M81.4761718,6.57776875 C80.6212227,6.09453668 79.5883117,6.06232121 78.7096344,6.48112233 L78.5238282,6.57776875 L6.52382823,47.2734209 C5.64107178,47.7723702 5.07418152,48.6805878 5.0067685,49.6833827 L5,49.8851094 L5,130.984456 C5,131.998462 5.51171799,132.938871 6.35154289,133.490991 L6.52382823,133.596144 L78.5238282,174.291796 C79.3787773,174.775029 80.4116883,174.807244 81.2903656,174.388443 L81.4761718,174.291796 L153.476172,133.596144 C154.358928,133.097195 154.925818,132.188977 154.993231,131.186183 L155,130.984456 L155,49.8851094 C155,48.8711029 154.488282,47.9306942 153.648457,47.3785744 L153.476172,47.2734209 L81.4761718,6.57776875 Z"></path>
                    <mask fill="white" id="mask-8">
                        <use xlink:href="#path-7"></use>
                    </mask>
                    <use xlink:href="#path-7" fill="url(#linearGradient-6)" id="蒙版"></use>
                    <mask fill="white" id="mask-11">
                        <use xlink:href="#path-10"></use>
                    </mask>
                    <use xlink:href="#path-10" fill="url(#linearGradient-9)" id="蒙版"></use>
                    <g mask="url(#mask-11)" opacity="0.600000024" id="矩形">
                        <g transform="translate(8.000000, 11.083913)">
                            <mask fill="white" id="mask-14">
                                <use xlink:href="#path-13"></use>
                            </mask>
                            <use xlink:href="#path-13" fill-rule="evenodd" fill="url(#linearGradient-12)" stroke="none" id="蒙版"></use>
                            <rect height="147" width="80" y="-4.08391308" x="72" mask="url(#mask-14)" fill-rule="evenodd" fill="url(#linearGradient-15)" stroke="none" id="矩形"></rect>
                            <polygon points="-2 122.114677 71.0966291 73.791885 147 127.006489 60 123.916087" mask="url(#mask-14)" fill-rule="evenodd" fill="url(#linearGradient-16)" stroke="none" id="矩形"></polygon>
                        </g>
                    </g>
                    <g mask="url(#mask-11)" opacity="0.600000024" id="矩形">
                        <g transform="translate(8.000000, 50.083913)">
                            <mask fill="white" id="mask-19">
                                <use xlink:href="#path-18"></use>
                            </mask>
                            <use xlink:href="#path-18" transform="translate(72.000000, 63.416087) scale(1, -1) translate(-72.000000, -63.416087)" fill-rule="evenodd" fill="url(#linearGradient-17)" stroke="none" id="蒙版"></use>
                            <rect height="147" width="80" y="-12.0839131" x="72" mask="url(#mask-19)" fill-rule="evenodd" fill="url(#linearGradient-20)" stroke="none" id="矩形"></rect>
                        </g>
                    </g>
                    <path mask="url(#mask-11)" opacity="0.600000024" fill="url(#linearGradient-21)" id="路径-3" d="M6,134.158003 L78.193368,174.911832 C79.415007,175.601459 80.9086346,175.600709 82.129581,174.909857 L152.193258,135.265503 L152.193258,135.265503 L152.193258,120.945284 L6.75378798,118.806367 L6,134.158003 Z"></path>
                </g>
                <g transform="translate(9.925676, 33.289343)" id="编组-21">
                    <g transform="translate(44.999860, 73.648902) rotate(-50.000000) translate(-44.999860, -73.648902) translate(23.855031, 32.648374)" id="椭圆形">
                        <mask fill="white" id="mask-24">
                            <use xlink:href="#path-23"></use>
                        </mask>
                        <use xlink:href="#path-23" fill="url(#linearGradient-22)" id="蒙版"></use>
                        <path mask="url(#mask-24)" fill="url(#linearGradient-25)" d="M58.9972823,74.642103 C73.8314124,67.0568951 76.7145814,42.901494 65.4370738,20.6894536 C54.1594404,-1.52252267 32.991717,-13.3799026 18.1575676,-5.79473251 C3.32343756,1.79047535 0.440268538,25.9458764 11.7177761,48.1579168 C22.9954095,70.3698931 44.163133,82.227273 58.9972823,74.642103 Z"></path>
                    </g>
                    <g transform="translate(45.272551, 45.465406) rotate(-15.000000) translate(-45.272551, -45.465406) translate(24.658986, 3.919542)" id="椭圆形">
                        <mask fill="white" id="mask-28">
                            <use xlink:href="#path-27"></use>
                        </mask>
                        <use xlink:href="#path-27" fill="url(#linearGradient-26)" id="蒙版"></use>
                        <path mask="url(#mask-28)" fill="url(#linearGradient-29)" d="M58.9322819,75.2147364 C73.4926555,67.1164456 75.9246931,41.565362 63.8791109,19.7602964 C51.8329163,-2.04442971 30.2642711,-13.1558435 15.703836,-5.05766364 C1.14350334,3.04070103 -1.28853425,28.5917846 10.7572924,50.3967147 C22.8032425,72.2015763 44.3718878,83.3129902 58.9322819,75.2147364 Z"></path>
                    </g>
                </g>
                <g transform="translate(129.074465, 91.890048) scale(-1, 1) translate(-129.074465, -91.890048) translate(84.074605, 34.289343)" id="编组-21">
                    <g transform="translate(44.999860, 72.648902) rotate(-50.000000) translate(-44.999860, -72.648902) translate(23.855031, 31.648374)" id="椭圆形">
                        <mask fill="white" id="mask-31">
                            <use xlink:href="#path-30"></use>
                        </mask>
                        <use xlink:href="#path-30" fill="url(#linearGradient-22)" id="蒙版"></use>
                        <path mask="url(#mask-31)" fill="url(#linearGradient-25)" d="M58.9972823,74.642103 C73.8314124,67.0568951 76.7145814,42.901494 65.4370738,20.6894536 C54.1594404,-1.52252267 32.991717,-13.3799026 18.1575676,-5.79473251 C3.32343756,1.79047535 0.440268538,25.9458764 11.7177761,48.1579168 C22.9954095,70.3698931 44.163133,82.227273 58.9972823,74.642103 Z"></path>
                    </g>
                    <g transform="translate(44.272551, 45.465406) rotate(-15.000000) translate(-44.272551, -45.465406) translate(23.658986, 3.919542)" id="椭圆形">
                        <mask fill="white" id="mask-33">
                            <use xlink:href="#path-32"></use>
                        </mask>
                        <use xlink:href="#path-32" fill="url(#linearGradient-26)" id="蒙版"></use>
                        <path mask="url(#mask-33)" fill="url(#linearGradient-29)" d="M58.9322819,75.2147364 C73.4926555,67.1164456 75.9246931,41.565362 63.8791109,19.7602964 C51.8329163,-2.04442971 30.2642711,-13.1558435 15.703836,-5.05766364 C1.14350334,3.04070103 -1.28853425,28.5917846 10.7572924,50.3967147 C22.8032425,72.2015763 44.3718878,83.3129902 58.9322819,75.2147364 Z"></path>
                    </g>
                </g>
                <g transform="translate(38.666416, 58.064498)" id="编组-19">
                    <circle r="55" cy="55" cx="55" fill="url(#linearGradient-34)" id="椭圆形"></circle>
                    <g id="椭圆形">
                        <use xlink:href="#path-36" fill-rule="evenodd" fill="url(#linearGradient-35)"></use>
                        <use xlink:href="#path-36" filter="url(#filter-37)" fill-opacity="1" fill="black"></use>
                    </g>
                    <g id="椭圆形">
                        <use xlink:href="#path-39" filter="url(#filter-40)" fill-opacity="1" fill="black"></use>
                        <use xlink:href="#path-39" fill-rule="evenodd" fill="url(#linearGradient-38)"></use>
                    </g>
                    <g fill-rule="nonzero" id="30">
                        <use xlink:href="#path-42" fill="#222222"></use>
                        <use xlink:href="#path-42" fill="url(#linearGradient-41)"></use>
                    </g>
                    <g fill-rule="nonzero" id="30">
                        <use xlink:href="#path-44" fill="#222222"></use>
                        <use xlink:href="#path-44" fill="url(#linearGradient-43)"></use>
                        <use xlink:href="#path-44" filter="url(#filter-45)" fill-opacity="1" fill="black"></use>
                    </g>
                </g>
            </g>
        </g>
    </g>
</svg>