<?xml version="1.0" standalone="no"?><!DOCTYPE svg PUBLIC "-//W3C//DTD SVG 1.1//EN" "http://www.w3.org/Graphics/SVG/1.1/DTD/svg11.dtd"><svg t="1649754142577" class="icon" viewBox="0 0 1024 1024" version="1.1" xmlns="http://www.w3.org/2000/svg" p-id="12722" width="200" height="200" xmlns:xlink="http://www.w3.org/1999/xlink"><defs><style type="text/css">@font-face { font-family: feedback-iconfont; src: url("//at.alicdn.com/t/font_1031158_u69w8yhxdu.woff2?t=1630033759944") format("woff2"), url("//at.alicdn.com/t/font_1031158_u69w8yhxdu.woff?t=1630033759944") format("woff"), url("//at.alicdn.com/t/font_1031158_u69w8yhxdu.ttf?t=1630033759944") format("truetype"); }
</style></defs><path d="M951.2 483.466667c-5.6-8.533333-18-46.666667-19.466667-56.666667-9.066667-60.933333-42.266667-286.133333-43.733333-320.933333-1.866667-40.266667 3.866667-40.266667-38.4-59.6-36.533333-16.666667-57.2-14.666667-62.133333-13.733334l0.266666-2.4c0-1.333333-1.6-1.733333-2.266666-0.8-118.133333 173.066667-160 266.533333-273.466667 268.666667-113.466667-2.133333-155.333333-95.6-273.2-268.8-0.8-0.933333-2.266667-0.533333-2.266667 0.8l0.266667 2.4c-4.933333-0.8-25.6-2.933333-62.133333 13.733333-42.266667 19.333333-36.533333 19.333333-38.4 59.6-1.6 34.666667-34.666667 259.866667-43.733334 320.933334-1.6 10-13.866667 48.133333-19.466666 56.666666C-70.933333 702.133333 57.333333 899.066667 57.333333 899.066667l15.466667 96.133333c150-13.066667 303.6-16.8 439.2-16.133333 135.6-0.533333 289.2 3.2 439.2 16.133333l15.466667-96.133333s128.266667-196.933333-15.466667-415.6z m-571.466667-26.4c-90.666667-11.733333-124.4-141.6-136.533333-254.666667 16.666667 26.533333 119.6 190.533333 150.4 256.533333l-13.866667-1.866666z m264.533334 0l-13.866667 1.866666c30.666667-66 133.6-230.133333 150.4-256.533333-12.133333 113.066667-45.866667 242.933333-136.533333 254.666667z" fill="#f18d84" p-id="12723"></path></svg>