<svg width="1080" height="1080" viewBox="0 0 1080 1080" fill="none" xmlns="http://www.w3.org/2000/svg">
<g clip-path="url(#clip0)">
<rect width="1080" height="1080" fill="white"/>
<ellipse cx="490.5" cy="657" rx="226.5" ry="219" fill="#DADADA"/>
<path d="M596.556 613.365C487.423 651.84 450.207 579.91 445.24 539.136C445.24 517.5 456.392 511.5 477 501.5C502.76 489 539.444 589.5 568 589C590.845 588.6 596.556 605.077 596.556 613.365Z" fill="#C4C4C4"/>
<path d="M918.5 782.5C913.7 779.7 913.5 767.333 914 761.5H906.5C904.1 771.1 904.5 786.167 905 792.5C920.6 795.3 926.5 790.333 927.5 787.5C926.5 787 923.3 785.3 918.5 782.5Z" fill="#FFF4EC" stroke="black"/>
<path d="M881.687 823C855.287 818.2 866.02 793 874.687 781C879.887 804.6 912.187 793.833 927.687 785.5C1066.19 838.5 914.687 829 881.687 823Z" fill="#504D4D" stroke="black"/>
<path d="M935.187 793C933.02 792.5 927.587 793.5 923.187 801.5" stroke="black" stroke-linecap="round"/>
<path d="M943.187 795.607C941.02 795.107 935.587 796.107 931.187 804.107" stroke="black" stroke-linecap="round"/>
<path d="M949.187 799.607C947.02 799.107 941.587 800.107 937.187 808.107" stroke="black" stroke-linecap="round"/>
<path d="M315 229C325.021 241.713 339.846 270.182 327.753 291.5C329.669 298.333 335.8 313.3 345 318.5C351.333 309 370 289.1 394 285.5C402.167 274.667 426.8 249 460 233C427.002 239.5 354.356 251.1 327.753 245.5L309.5 219C399.167 186.333 589.38 149.703 543 219C500.5 282.5 469.5 309.5 442.5 325L387.5 462C371 453.667 330.5 438.8 300.5 446C232.333 494.333 109.5 563.4 151.5 457C193.5 350.6 207.333 325 210.5 325V274.5C219.833 287.5 242 313.4 256 313C268.493 312.643 253.211 322.479 239.442 328.5C238.994 341.091 229.973 380.54 208 430.5C242 404.5 293.5 372 293.5 372C293.5 372 305.7 350.038 308.5 347.638C294.348 336.562 271.594 319.798 262.5 317C267.667 314.167 275.9 303.4 275.5 287C265.5 291.5 249 260 275.5 260C298.5 249 316 237.5 315 229Z" fill="#FFF4EC"/>
<path d="M322.5 298.5C324.635 296.283 326.37 293.938 327.753 291.5M327.753 291.5C339.846 270.182 325.021 241.713 315 229C316 237.5 298.5 249 275.5 260C249 260 265.5 291.5 275.5 287C275.9 303.4 267.667 314.166 262.5 317C272.9 320.2 301.167 341.666 314 352M327.753 291.5C329.669 298.333 335.8 313.3 345 318.5C351.333 309 370 289.1 394 285.5C402.167 274.667 426.8 249 460 233M460 233L473.5 229M460 233C427.002 239.5 354.356 251.1 327.753 245.5L309.5 219C399.167 186.333 589.38 149.703 543 219C500.5 282.5 469.5 309.5 442.5 325L387.5 462C371 453.667 330.5 438.8 300.5 446M300.5 446L315 434.5M300.5 446C232.333 494.333 109.5 563.4 151.5 457C193.5 350.6 207.333 325 210.5 325V274.5C219.833 287.5 242 313.4 256 313C268.493 312.643 253.211 322.479 239.442 328.5M239.442 328.5C233.923 330.913 228.647 332.714 225.5 333L239.442 328.5ZM239.442 328.5C238.994 341.091 229.973 380.54 208 430.5M208 430.5C206.415 434.104 207.25 434.759 205.5 438.5L208 430.5ZM208 430.5C242 404.5 293.5 372 293.5 372M314 363C305 365 293.5 372 293.5 372M293.5 372C293.5 372 305.7 350.038 308.5 347.638" stroke="black"/>
<path d="M384.5 461.5C402.5 413.1 336 374.333 300.5 361L303.5 353.5C330.3 351.5 387.5 369 387.5 369C387.5 369 399.551 369 402 359C406.8 339.4 378.333 308.667 364 298.5L379 290.5C392.5 297 421.5 316.026 430.5 319C463.693 329.968 469.984 351.402 468.346 369.062C490.477 392.075 510.143 417.059 524.5 423C504.1 475.4 466 506.5 449.5 515.5C439.5 491.5 402 469.5 384.5 461.5Z" fill="#504D4D"/>
<path d="M467.684 368.375C490.084 391.575 510 417 524.5 423C504.1 475.4 466 506.5 449.5 515.5C439.5 491.5 402 469.5 384.5 461.5C402.5 413.1 336 374.333 300.5 361L303.5 353.5C330.3 351.5 387.5 369 387.5 369C387.5 369 399.551 369 402 359C406.8 339.4 378.333 308.667 364 298.5L379 290.5C392.5 297 421.5 316.026 430.5 319C476.5 334.2 470.833 369.5 464 387" stroke="black"/>
<path d="M665 606C510.5 626 466.667 563.833 453.5 513C473.5 498.333 515.7 459.8 524.5 423C627.833 431 845.2 456.7 888 495.5C930.8 534.3 924.833 689.333 916.5 762H907.883C907.267 766.262 906.635 770.275 906 774C890 781.6 873.667 779.167 867.5 777C853.9 749 837.833 636.482 831.5 583.723C804.382 582.462 694.646 600.883 665 606Z" fill="#ED4F39"/>
<path d="M839 584.5C836.942 584.112 834.415 583.859 831.5 583.723M831.5 583.723C804.382 582.462 694.646 600.883 665 606C510.5 626 466.667 563.833 453.5 513C473.5 498.333 515.7 459.8 524.5 423C627.833 431 845.2 456.7 888 495.5C930.8 534.3 924.833 689.333 916.5 762H907.883M831.5 583.723C837.833 636.482 853.9 749 867.5 777C873.667 779.167 890 781.6 906 774C906.635 770.275 907.267 766.262 907.883 762M568 485C568.4 486.6 585.335 494.26 597.5 495.5C725 508.5 839 504.5 882.5 534.5C922.582 582.074 916.971 699.14 907.883 762" stroke="black"/>
<path d="M867.5 800C870.3 793.6 868.666 783.833 867.5 777C884.7 781.4 900 777.167 905.5 774.5C902.7 798.5 908.667 810.167 913 814C899 829.5 857.431 822.843 859.5 812.5C860.5 807.5 864 808 867.5 800Z" fill="#FFF4EC" stroke="black"/>
<path d="M867.5 851.5C841.1 846.7 851.833 821.5 860.5 809.5C865.7 833.1 898 822.333 913.5 814C1052 867 900.5 857.5 867.5 851.5Z" fill="#504D4D" stroke="black"/>
<path d="M921 819.5C918.833 819 913.4 820 909 828" stroke="black" stroke-linecap="round"/>
<path d="M929 822.107C926.833 821.607 921.4 822.607 917 830.607" stroke="black" stroke-linecap="round"/>
<path d="M935 826.107C932.833 825.607 927.4 826.607 923 834.607" stroke="black" stroke-linecap="round"/>
<path d="M343 254C343 251.96 331.333 249.167 325.5 246.5C329.1 252.1 331.333 262.167 332 266.5C337 266.5 343 256.5 343 254Z" fill="#FFF4EC" stroke="black"/>
<path d="M332 280C330 282.667 321.8 287.3 313 284.5" stroke="black" stroke-linecap="round"/>
<circle cx="310.5" cy="254.5" r="2" fill="black" stroke="black"/>
<path d="M276 287.5C250 282.5 261.5 255 276 260C304.8 250.4 314 232.5 319 225.5C313 206.5 286.5 198.5 276 202C176.5 184.5 203.5 324 262.5 318C270.9 309.2 276 294 276 287.5Z" fill="#ED4F39" stroke="#ED4F39"/>
<path d="M278 270.5C275.667 270.667 271.5 272.3 273.5 277.5" stroke="black" stroke-linecap="round"/>
<path d="M168 254C163.381 215.071 205.167 210.667 224 213.5C213.2 220.3 209.833 238 209.5 246C208.5 254.5 216 301.5 213.5 324.5C211 347.5 187.5 361 179.5 382C171.5 403 182 470 126.5 455.5C97.1025 447.82 132 379 143 364.5C152.821 351.555 142 324.5 150.5 310.5C158.711 296.975 171.5 283.5 168 254Z" fill="#ED4F39" stroke="#ED4F39"/>
</g>
<defs>
<clipPath id="clip0">
<rect width="1080" height="1080" fill="white"/>
</clipPath>
</defs>
</svg>
