<svg xml:space="preserve" style="enable-background:new 0 0 500 500;" viewBox="0 0 500 500" y="0px" x="0px" xmlns:xlink="http://www.w3.org/1999/xlink" xmlns="http://www.w3.org/2000/svg" id="图层_1" version="1.1">
<style type="text/css">
	.st0{clip-path:url(#SVGID_2_);}
	.st1{fill:#E7B694;}
	.st2{clip-path:url(#SVGID_4_);}
	.st3{fill:#CB8F1A;}
	.st4{fill:#E4AF97;}
	.st5{fill:#CB8142;}
	.st6{clip-path:url(#SVGID_6_);}
	.st7{fill:#E5AF8C;}
	.st8{fill:#FF9E43;}
	.st9{fill:#9F7B6A;}
	.st10{fill:#FFFBF4;}
	.st11{fill:#FFB968;}
	.st12{clip-path:url(#SVGID_8_);}
	.st13{clip-path:url(#SVGID_10_);}
	.st14{fill:#FDAC70;}
	.st15{clip-path:url(#SVGID_12_);}
	.st16{fill:#FFA96F;}
	.st17{clip-path:url(#SVGID_14_);}
	.st18{clip-path:url(#SVGID_16_);}
	.st19{fill:#F6DFC6;}
	.st20{clip-path:url(#SVGID_18_);}
	.st21{fill:#FDEADF;}
	.st22{fill:#FFCEB3;}
	.st23{clip-path:url(#SVGID_20_);}
	.st24{clip-path:url(#SVGID_22_);}
	.st25{fill:#EDD160;}
	.st26{fill:#FFFFFF;}
	.st27{fill:#FEFFFF;}
	.st28{clip-path:url(#SVGID_24_);}
	.st29{fill:#E5BE8A;}
	.st30{fill:#59544D;}
	.st31{clip-path:url(#SVGID_26_);}
	.st32{clip-path:url(#SVGID_28_);}
</style>
<g>
	<g>
		<g id="身体_1_">
			<defs>
				<polygon points="172.29,282.13 160.43,302.29 221.61,328.37 223.74,315.09" id="SVGID_1_"></polygon>
			</defs>
			<use style="overflow:visible;fill:#FFCFB3;" xlink:href="#SVGID_1_"></use>
			<clipPath id="SVGID_2_">
				<use style="overflow:visible;" xlink:href="#SVGID_1_"></use>
			</clipPath>
			<g class="st0">
				<polygon points="169.05,285.99 166,291.27 222.99,327.15 222.64,322.34" class="st1"></polygon>
			</g>
		</g>
		<g>
			<defs>
				<path d="M206.88,156.9c-12.62,5.08-30.49,7.42-40.43,6.79c-14.49-0.92-19.65,17.73-11.33,24.69
					c0,0-24.9,9.28-14.41,27.32c0,0-18.91,20.03,3.78,39.73c0,0,7.48,14.2,26.95,13.26c0,0,6.37,10.75,26.6,10.97
					s36.7-6.48,42.47-10.24c5.76-3.76,29.39-36.32,29.39-36.32l20.08-22.68l-49.37-33.38L206.88,156.9z" id="SVGID_3_"></path>
			</defs>
			<use style="overflow:visible;fill:#FEAC00;" xlink:href="#SVGID_3_"></use>
			<clipPath id="SVGID_4_">
				<use style="overflow:visible;" xlink:href="#SVGID_3_"></use>
			</clipPath>
			<g class="st2">
				<path d="M176.66,160.74c0,0,11.52,48.85,11.06,55.77s-11.06,47.93-27.19,54.38l17.97,3.69l22.58-52.08l-11.52-67.29
					L176.66,160.74z" class="st3"></path>
			</g>
			<g class="st2">
				<polygon points="222.55,187.93 246.7,196.27 230.45,223.93" class="st3"></polygon>
			</g>
			<g class="st2">
				<polygon points="268.21,210.32 255.92,227.88 274.79,238.86 294.55,210.76 283.14,205.93" class="st3"></polygon>
			</g>
			<g class="st2">
				<path d="M146.93,217.63c-0.46,0-0.89-0.29-1.04-0.75c-0.04-0.12-3.86-12.1,8.64-21.08
					c0.49-0.35,1.18-0.24,1.53,0.25c0.35,0.49,0.24,1.18-0.25,1.53c-11.14,8.01-7.97,18.17-7.83,18.6c0.19,0.58-0.12,1.2-0.7,1.39
					C147.16,217.61,147.05,217.63,146.93,217.63z" class="st3"></path>
			</g>
			<g class="st2">
				<path d="M153.07,212.89c-0.61,0-1.1-0.49-1.1-1.1c0-0.38,0.06-3.7,2.05-4.95c0.52-0.33,1.19-0.17,1.51,0.35
					c0.32,0.52,0.16,1.19-0.35,1.51c-0.76,0.47-1.01,2.32-1.01,3.08C154.17,212.4,153.67,212.89,153.07,212.89z" class="st3"></path>
			</g>
			<g class="st2">
				<path d="M152.88,256.65c-0.39,0-0.77-0.21-0.97-0.58c-8.49-15.99,0.65-26.01,0.74-26.11
					c0.42-0.45,1.11-0.46,1.55-0.05c0.44,0.41,0.47,1.11,0.06,1.55c-0.34,0.36-8.13,9.03-0.41,23.58c0.29,0.54,0.08,1.2-0.46,1.49
					C153.23,256.61,153.05,256.65,152.88,256.65z" class="st3"></path>
			</g>
			<g class="st2">
				<path d="M156.89,253.22c-0.28,0-0.56-0.11-0.78-0.32c-1.28-1.28-1.11-3.67-1.08-3.93c0.06-0.6,0.6-1.06,1.19-0.99
					c0.6,0.05,1.05,0.59,1,1.19c-0.05,0.65,0.05,1.79,0.45,2.19c0.43,0.43,0.43,1.12,0,1.55
					C157.45,253.11,157.17,253.22,156.89,253.22z" class="st3"></path>
			</g>
		</g>
		<g id="脸_1_">
			<g>
				<g id="里耳_2_">
					
						<ellipse ry="8.17" rx="13.38" cy="195.16" cx="301.7" class="st4" transform="matrix(0.8234 -0.5675 0.5675 0.8234 -57.4655 205.6937)"></ellipse>
				</g>
				<g>
					<path d="M302.64,199.39c-0.2,0-0.4-0.05-0.58-0.17c-0.51-0.32-0.67-1-0.35-1.51l3.79-6.06
						c0.32-0.52,1-0.67,1.51-0.35c0.51,0.32,0.67,1,0.35,1.51l-3.79,6.06C303.37,199.21,303.01,199.39,302.64,199.39z" class="st5"></path>
				</g>
			</g>
			<g id="脸_2_">
				<g>
					<defs>
						<path d="M307.18,174.48c0,0-7,27.42-14.98,34.62c-7.97,7.2-17.31,12.25-26.45,7l-23.34,38.51l-11.09-40.65
							c0,0,7.78-12.45,10.11-19.84c2.33-7.39,2.53-20.03,2.53-20.03l35.98-22.17l24.31,5.25L307.18,174.48z" id="SVGID_5_"></path>
					</defs>
					<use style="overflow:visible;fill:#FFCFB3;" xlink:href="#SVGID_5_"></use>
					<clipPath id="SVGID_6_">
						<use style="overflow:visible;" xlink:href="#SVGID_5_"></use>
					</clipPath>
					<g class="st6">
						<path d="M265.75,216.1c-4.29-1.01-10.3-6.43-10.3-6.43c-0.59-0.37-1.36,0.03-1.41,0.72l-1.85,29.78L265.75,216.1" class="st7"></path>
					</g>
				</g>
				<g>
					<g>
						<ellipse ry="9.23" rx="8.18" cy="189.81" cx="256.46" class="st8"></ellipse>
					</g>
					<g>
						
							<ellipse ry="5.96" rx="8.07" cy="195.69" cx="290.26" class="st8" transform="matrix(0.3974 -0.9176 0.9176 0.3974 -4.6719 384.2588)"></ellipse>
					</g>
				</g>
				<g>
					<g>
						<ellipse ry="5.06" rx="4.94" cy="177.23" cx="269.16" class="st9"></ellipse>
					</g>
					<g>
						<ellipse ry="3.98" rx="3.98" cy="180.62" cx="290.76" class="st9"></ellipse>
					</g>
					<g>
						
							<ellipse ry="1.96" rx="1.35" cy="177.53" cx="272.52" class="st10" transform="matrix(0.2649 -0.9643 0.9643 0.2649 29.1478 393.2861)"></ellipse>
					</g>
					<g>
						
							<ellipse ry="1.96" rx="1.35" cy="180.9" cx="293.88" class="st10" transform="matrix(0.2728 -0.9621 0.9621 0.2728 39.6545 414.2734)"></ellipse>
					</g>
				</g>
				<g>
					<g>
						<path d="M277.23,169.1c-0.41,0-0.8-0.23-0.99-0.62c-0.08-0.15-1.9-3.7-7.36-2.1c-0.58,0.17-1.19-0.16-1.36-0.74
							c-0.17-0.58,0.16-1.19,0.74-1.36c5.85-1.72,9.08,1.38,9.97,3.26c0.26,0.55,0.02,1.2-0.52,1.46
							C277.55,169.07,277.39,169.1,277.23,169.1z" class="st5"></path>
					</g>
					<g>
						<path d="M296.98,172.29c-0.28,0-0.56-0.11-0.77-0.32c-0.1-0.1-2.56-2.44-6.18-1.38
							c-0.58,0.17-1.19-0.16-1.36-0.74c-0.17-0.58,0.16-1.19,0.74-1.37c4.9-1.45,8.21,1.79,8.35,1.93c0.43,0.43,0.43,1.12,0,1.55
							C297.55,172.18,297.27,172.29,296.98,172.29z" class="st5"></path>
					</g>
					<g>
						<path d="M275.39,202.84c-6.9,0-11.01-5.83-11.06-5.9c-0.34-0.5-0.22-1.18,0.28-1.53c0.5-0.35,1.18-0.22,1.53,0.27
							c0.2,0.29,4.96,6.95,12.78,4.35c0.58-0.2,1.2,0.12,1.39,0.7c0.19,0.58-0.12,1.2-0.69,1.39
							C278.11,202.62,276.7,202.84,275.39,202.84z" class="st5"></path>
					</g>
					<g>
						<g>
							<path d="M280.19,177.38l-5.15,9.27c-0.44,0.79-0.12,1.78,0.7,2.16l4.72,2.21L280.19,177.38z" class="st11"></path>
						</g>
						<g>
							<path d="M280.85,188.15c-0.59,0-1.08-0.47-1.1-1.07l-0.13-4.63c-0.02-0.61,0.46-1.11,1.07-1.13
								c0.62-0.02,1.11,0.46,1.13,1.07l0.13,4.63c0.02,0.61-0.46,1.11-1.07,1.13C280.88,188.15,280.86,188.15,280.85,188.15z" class="st5"></path>
						</g>
					</g>
				</g>
			</g>
		</g>
		<g id="手掌_2_">
			<defs>
				<path d="M166.98,18.07c-3.17,0.17-5.34,3.69-3.15,7.8c5.95,11.16,9.97,23.72,9.97,23.72s-9.59-20.32-18.82-21.61
					c-1.39-0.19-2.78,0.35-3.8,1.32v0c-1.82,1.74-1.99,4.6-0.37,6.53C156,42,166.31,55.2,166.6,62.63c0,0-0.31,2.61-2.14,1.17
					c-2.81-2.43-8.96-12.66-15.78-11.88c-4.38,0.5-5.71,3.1-5.58,5.51c0.09,1.68,1.01,3.21,2.27,4.32l11.45,10.11
					c1.71,1.51,3.29,3.17,4.72,4.95l20.84,25.96l23.77-8.77l9.16-22.79l5.71-8.57c1.38-2.08,0.9-4.87-1.1-6.36l0,0
					c-1.86-1.38-4.46-1.19-6.1,0.45l-9.41,9.41l-2.34-0.97c0,0-1.36-4.87-3.9-7.01c0,0-2.34-22.21-19.09-33.51
					c0,0-4.54-3.2-6.07-4.25C171.39,19.28,169.59,17.92,166.98,18.07z" id="SVGID_7_"></path>
			</defs>
			<use style="overflow:visible;fill:#FFCFB3;" xlink:href="#SVGID_7_"></use>
			<clipPath id="SVGID_8_">
				<use style="overflow:visible;" xlink:href="#SVGID_7_"></use>
			</clipPath>
			<g class="st12">
				<path d="M193.37,83.22c-0.55,0-1.02-0.41-1.09-0.97c-1.67-13.94,11.63-18.19,11.76-18.23
					c0.58-0.18,1.19,0.15,1.37,0.73c0.18,0.58-0.14,1.19-0.72,1.37c-0.48,0.15-11.67,3.77-10.23,15.87c0.07,0.6-0.36,1.15-0.96,1.22
					C193.45,83.22,193.41,83.22,193.37,83.22z" class="st1"></path>
			</g>
			<g class="st12">
				<path d="M177.12,73.64c-0.27,0-0.55-0.1-0.76-0.31c-0.44-0.42-0.45-1.12-0.03-1.55c1.17-1.22,7.2-7.27,10.66-6.16
					c1.22,0.39,1.53,1.21,1.6,1.67c0.33,2-2.67,4.48-3.98,5.46c-0.49,0.36-1.17,0.26-1.54-0.22c-0.36-0.49-0.26-1.17,0.22-1.54
					c1.59-1.19,3.1-2.82,3.12-3.36c-1.54-0.38-5.58,2.63-8.5,5.67C177.69,73.52,177.4,73.64,177.12,73.64z" class="st1"></path>
			</g>
			<g class="st12">
				<path d="M165.76,67.77c-0.29,0-0.59-0.12-0.8-0.35c-0.41-0.44-0.39-1.14,0.05-1.55l1.44-1.35
					c0.45-0.41,1.14-0.39,1.55,0.05c0.41,0.44,0.39,1.14-0.05,1.55l-1.44,1.35C166.3,67.67,166.03,67.77,165.76,67.77z" class="st1"></path>
			</g>
			<g class="st12">
				<path d="M172.21,62.38c-0.29,0-0.58-0.11-0.79-0.34c-0.42-0.44-0.41-1.13,0.03-1.55c0.2-0.19,4.87-4.62,13.75-7.82
					c-0.68-3.51-3.38-16.38-7.82-25.75c-0.26-0.55-0.03-1.2,0.52-1.46c0.55-0.26,1.2-0.02,1.46,0.52
					c5.3,11.17,8.06,26.58,8.17,27.23c0.09,0.53-0.21,1.06-0.73,1.23c-8.96,3.05-13.79,7.6-13.84,7.64
					C172.75,62.28,172.48,62.38,172.21,62.38z" class="st1"></path>
			</g>
			<g class="st12">
				<path d="M176.44,58.91c-0.53,0-1-0.39-1.09-0.93c-0.45-2.95-1.9-5.79-1.91-5.82c-0.28-0.54-0.07-1.2,0.47-1.48
					c0.54-0.28,1.2-0.07,1.48,0.47c0.07,0.13,1.63,3.18,2.13,6.5c0.09,0.6-0.32,1.16-0.92,1.25
					C176.55,58.91,176.49,58.91,176.44,58.91z" class="st1"></path>
			</g>
		</g>
		<g id="外手臂_1_">
			<defs>
				<path d="M365.61,227.22c-3.8,6.11-7.71,9.52-11.36,11.21l1.36,54.42c0.26,10.99-10.68,18.77-20.97,14.9
					l-49.13-18.53l7.45-45.08l29.48,17.74l1.05-48.99l0.02,0.02c-0.33-8.26,0.53-15.63,0.53-15.63l47.28-4.75
					C371.33,192.54,379.59,204.76,365.61,227.22z" id="SVGID_9_"></path>
			</defs>
			<use style="overflow:visible;fill:#FFCFB3;" xlink:href="#SVGID_9_"></use>
			<clipPath id="SVGID_10_">
				<use style="overflow:visible;" xlink:href="#SVGID_9_"></use>
			</clipPath>
			<g class="st13">
				<path d="M335.45,309.84c0,0-5.91-9.19,3.72-15.97c9.63-6.78,20.13,2.84,16.63,8.1S335.45,309.84,335.45,309.84z" class="st14"></path>
			</g>
			<g class="st13">
				<polyline points="310.22,253.76 286.4,292.9 282.71,291.61 290.46,237.51 310.22,253.76" class="st1"></polyline>
			</g>
			<g class="st13">
				<circle r="1.58" cy="270.64" cx="320.88" class="st1"></circle>
			</g>
			<g class="st13">
				<polygon points="319.3,270.64 314.07,252.91 322.39,253.36 322.47,270.64" class="st1"></polygon>
			</g>
			<g class="st13">
				<polygon points="321.18,251.5 326.84,231.19 322.28,217.65" class="st1"></polygon>
			</g>
			<g class="st13">
				<path d="M329.34,232.86c-0.39,0-0.78-0.14-1.09-0.42c-0.22-0.2-5.48-5.02-7.22-16.24c-0.14-0.9,0.48-1.74,1.38-1.88
					c0.91-0.14,1.74,0.48,1.88,1.38c1.55,9.97,6.12,14.26,6.17,14.3c0.67,0.61,0.72,1.65,0.11,2.32
					C330.24,232.68,329.79,232.86,329.34,232.86z" class="st1"></path>
			</g>
			<g class="st13">
				<path d="M349.34,241.85c-4.56,0-7.23-1.52-7.4-1.62c-0.79-0.46-1.05-1.47-0.59-2.26c0.46-0.78,1.47-1.05,2.25-0.59
					c0.24,0.13,5.72,3.11,14.79-0.94c0.83-0.38,1.81,0,2.18,0.83c0.37,0.83,0,1.81-0.83,2.18
					C355.65,241.27,352.14,241.85,349.34,241.85z" class="st1"></path>
			</g>
		</g>
		<g id="腿_3_">
			<defs>
				<polygon points="146.02,383.19 169.4,467.9 219.19,470.17 189.05,383.87" id="SVGID_11_"></polygon>
			</defs>
			<use style="overflow:visible;fill:#FFCFB3;" xlink:href="#SVGID_11_"></use>
			<clipPath id="SVGID_12_">
				<use style="overflow:visible;" xlink:href="#SVGID_11_"></use>
			</clipPath>
			<g class="st15">
				<polygon points="144.24,382.42 148.94,397.79 197.68,398.1 189.41,382.1" class="st1"></polygon>
			</g>
			<g class="st15">
				<ellipse ry="4.36" rx="11.55" cy="455.13" cx="193.27" class="st16"></ellipse>
			</g>
		</g>
		<g id="腿_1_">
			<defs>
				<path d="M200.5,391.03c0,0,8.33,16.65,8.99,18.98c0.67,2.33,20.31,51.95,26.97,57.61l54.61,0.67l-50.62-89.58
					L200.5,391.03z" id="SVGID_13_"></path>
			</defs>
			<use style="overflow:visible;fill:#FFCFB3;" xlink:href="#SVGID_13_"></use>
			<clipPath id="SVGID_14_">
				<use style="overflow:visible;" xlink:href="#SVGID_13_"></use>
			</clipPath>
			<g class="st17">
				<ellipse ry="4.3" rx="13.92" cy="455.49" cx="261.45" class="st16"></ellipse>
			</g>
			<g class="st17">
				<polygon points="199.07,388.52 202.23,396.8 256.56,396.41 241.18,376.88" class="st1"></polygon>
			</g>
		</g>
		<g id="裙子_1_">
			<defs>
				<path d="M163.45,298.15l-2.61-1.71c-1.3-0.85-2.99-0.77-4.21,0.19L91.1,348.59l18.64,16.27l-2.4,2.27l20.07,9.17
					l-1.53,2.15c0,0,13.47,9.95,24.59,11.12l-1.04,3.12c-0.23,0.7,0.15,1.45,0.86,1.64c4.3,1.2,18.64,4.72,30.92,2.26l-0.18,2.3
					c-0.06,0.8,0.6,1.46,1.39,1.38c4.24-0.42,16.73-2.11,28.64-8.07l0.44,3.71c0.08,0.71,0.72,1.21,1.43,1.13
					c3.98-0.48,16.23-2.31,23.04-7.17l1.29,4.07c0.21,0.65,0.87,1.02,1.53,0.86c2.3-0.55,7.69-2.31,13.5-7.5
					c0.76-0.68,0.95-1.81,0.49-2.72l-28.27-56.09c-0.63-1.25-1.66-2.26-2.93-2.86L163.45,298.15z" id="SVGID_15_"></path>
			</defs>
			<use style="overflow:visible;fill:#FFFFFF;" xlink:href="#SVGID_15_"></use>
			<clipPath id="SVGID_16_">
				<use style="overflow:visible;" xlink:href="#SVGID_15_"></use>
			</clipPath>
			<g class="st18">
				
					<rect height="95.67" width="2.2" class="st19" transform="matrix(0.3834 -0.9236 0.9236 0.3834 -181.4585 372.5793)" y="274.35" x="187.2"></rect>
			</g>
			<g class="st18">
				
					<rect height="63.93" width="2.2" class="st19" transform="matrix(0.9574 -0.2887 0.2887 0.9574 -96.0455 82.0195)" y="334.61" x="228.9"></rect>
			</g>
			<g class="st18">
				
					<rect height="69.41" width="2.2" class="st19" transform="matrix(0.9973 -0.0735 0.0735 0.9973 -26.2557 16.4168)" y="330.29" x="208.86"></rect>
			</g>
			<g class="st18">
				
					<rect height="2.2" width="79.39" class="st19" transform="matrix(0.1309 -0.9914 0.9914 0.1309 -197.8649 501.1212)" y="362.31" x="147.19"></rect>
			</g>
			<g class="st18">
				
					<rect height="2.2" width="84.49" class="st19" transform="matrix(0.3244 -0.9459 0.9459 0.3244 -228.0538 395.1267)" y="356.12" x="120.35"></rect>
			</g>
			<g class="st18">
				
					<rect height="2.2" width="81.23" class="st19" transform="matrix(0.5079 -0.8614 0.8614 0.5079 -228.7321 294.3841)" y="346.28" x="102.67"></rect>
			</g>
			<g class="st18">
				
					<rect height="2.2" width="77.84" class="st19" transform="matrix(0.6175 -0.7866 0.7866 0.6175 -217.3194 230.8522)" y="337.78" x="89.79"></rect>
			</g>
			<g class="st18">
				
					<rect height="15.38" width="5.43" class="st19" transform="matrix(0.9 0.4358 -0.4358 0.9 149.9634 -43.025)" y="297.71" x="166.06"></rect>
			</g>
			<g class="st18">
				
					<rect height="15.38" width="5.43" class="st19" transform="matrix(0.9516 0.3073 -0.3073 0.9516 104.9817 -41.9119)" y="304.77" x="182.89"></rect>
			</g>
			<g class="st18">
				
					<rect height="15.38" width="5.43" class="st19" transform="matrix(0.9738 0.2275 -0.2275 0.9738 77.8186 -37.3527)" y="311.25" x="198.25"></rect>
			</g>
			<g class="st18">
				<rect height="15.38" width="5.43" class="st19" y="318.71" x="213.91"></rect>
			</g>
		</g>
		<g id="刘海_1_">
			<g>
				<defs>
					<path d="M237.13,176.76c0,0,12.1,0.88,37.13-18.38l0.65,2.63c0.38,1.52,1.66,2.65,3.22,2.83l0,0
						c1.92,0.22,3.86-0.32,5.39-1.5l4.26-3.28l0.76,2.06c0.35,0.93,1.09,1.66,2.04,1.97l0,0c1.03,0.34,2.16,0.15,3.03-0.51
						l3.07-2.35c0,0,2.09,21.97,12.03,20.4c5.88-1.05,7.32-4.71,6.28-12.69c0,0,7.45,2.22,10.98-7.98s-9.15-18.31-14.39-19.88
						l3.15-0.24c1.18-0.09,2.08-1.07,2.08-2.25l0,0c0-1.42-1.3-2.49-2.69-2.21l-4.67,0.49l4-7.74c0.67-1.42-0.09-3.1-1.6-3.54l0,0
						c-1.21-0.35-2.49,0.23-3.02,1.37l-3.06,6.5c0,0-11.67-28.22-50.97-23.25c-22.13,3.05-31.67,27.86-38.92,38.92
						c-2.28,3.48-6.93,6.43-12.69,8.81L237.13,176.76z" id="SVGID_17_"></path>
				</defs>
				<use style="overflow:visible;fill:#FEAC00;" xlink:href="#SVGID_17_"></use>
				<clipPath id="SVGID_18_">
					<use style="overflow:visible;" xlink:href="#SVGID_17_"></use>
				</clipPath>
				<g class="st20">
					<path d="M227.01,159.72c-0.09,0-0.18-0.01-0.28-0.03c-0.59-0.15-0.94-0.75-0.79-1.34
						c0.18-0.68,4.49-16.92,16.14-28.57c0.43-0.43,1.12-0.43,1.55,0s0.43,1.12,0,1.55c-11.23,11.23-15.53,27.41-15.57,27.57
						C227.94,159.39,227.5,159.72,227.01,159.72z" class="st3"></path>
				</g>
				<g class="st20">
					<path d="M234.45,153.04c-0.07,0-0.14-0.01-0.22-0.02c-0.59-0.12-0.98-0.7-0.86-1.29c0.09-0.44,0.94-4.39,3.3-6.17
						c0.48-0.36,1.17-0.26,1.54,0.22c0.36,0.49,0.27,1.17-0.22,1.54c-1.44,1.08-2.27,3.86-2.46,4.84
						C235.42,152.68,234.96,153.04,234.45,153.04z" class="st3"></path>
				</g>
				<g class="st20">
					<path d="M240.92,172.41c0,0,30.11-24.91,56.13-20.02s14.25-7.92,7.61-7.57c-6.64,0.35-61.47,2.97-66.54,21.48
						C233.06,184.81,240.92,172.41,240.92,172.41z" class="st3"></path>
				</g>
				<g class="st20">
					<path d="M247.38,165.08c0,0,1.92,8.73,0.52,11.35c-1.4,2.62-5.76,0.87-5.76,0.87l-4.02-12.75L247.38,165.08z" class="st3"></path>
				</g>
				<g class="st20">
					<path d="M275.75,153.04c0,0-5.13,11.34,3.25,12.21c8.38,0.87,2.62-2.1,2.62-2.1s-6.64,1.4-4.02-9.78
						C280.22,142.2,275.75,153.04,275.75,153.04z" class="st3"></path>
				</g>
				<g class="st20">
					<path d="M289.87,152.16c0,0-7.04,13.61,5.01,10.64s-7.68,4.89-3.14-8.73
						C296.28,140.45,289.87,152.16,289.87,152.16z" class="st3"></path>
				</g>
				<g class="st20">
					<path d="M300.47,153.55c0,0-1.91,8.97-11.4,10.78c0,0,11.97,19.89,20.15,18.99c5.74-5.09-0.57-2.15-0.57-2.15
						S299.08,180.27,300.47,153.55z" class="st3"></path>
				</g>
				<g class="st20">
					<path d="M308.87,161.24c0,0,0.74,8.92,6.69,10.53c5.95,1.61,5.33-3.59,5.33-3.59S315.63,172.48,308.87,161.24z" class="st3"></path>
				</g>
				<g class="st20">
					<path d="M315.65,122.74c0,0-6.45,4.56-8.09,11.34c-1.64,6.78,14.66,1.48,14.66,1.48L315.65,122.74z" class="st3"></path>
				</g>
			</g>
			<g>
				<path d="M233.84,174.11c0.88,0.49,1.97,0.25,2.56-0.57c3.22-4.48,14.51-18.07,35.71-22.6
					c20.81-4.44,34.87-0.49,39.36,1.12c0.91,0.33,1.92-0.07,2.38-0.92l0,0c0.4-0.74,0.3-1.64-0.27-2.27
					c-4.01-4.45-20.89-20.94-45.44-14.05c-24.29,6.82-34.3,29.76-36.63,36.06c-0.34,0.92,0.03,1.94,0.89,2.42L233.84,174.11z" class="st21"></path>
			</g>
		</g>
		<g id="耳朵_2_">
			<g id="外耳_2_">
				<path d="M247.11,181.22c1.95,8.31,1.06,15.59-5.14,16.81c-4.84,0.96-10.73-3.56-14.39-12.11
					c-3.36-7.85,1.18-16.55,7.33-18C241.06,166.48,245.16,172.9,247.11,181.22z" class="st22"></path>
			</g>
			<g>
				<path d="M241.34,186.56c-0.53,0-1-0.38-1.08-0.92c-1.03-6.31-4.69-10.07-4.73-10.11c-0.43-0.43-0.43-1.12,0-1.55
					c0.43-0.43,1.12-0.43,1.55,0c0.17,0.17,4.2,4.27,5.35,11.31c0.1,0.6-0.31,1.16-0.91,1.26
					C241.46,186.55,241.4,186.56,241.34,186.56z" class="st5"></path>
			</g>
			<g>
				<path d="M239.12,180c-0.01,0-0.01,0-0.02,0l-5.8-0.09c-0.61-0.01-1.09-0.51-1.08-1.12c0.01-0.6,0.5-1.08,1.1-1.08
					c0.01,0,0.01,0,0.02,0l5.8,0.09c0.61,0.01,1.09,0.51,1.08,1.12C240.21,179.52,239.72,180,239.12,180z" class="st5"></path>
			</g>
		</g>
		<g id="伸手臂_1_">
			<defs>
				<path d="M175.17,85.8c8,43.2,17.5,111.28,17.5,111.28l31.53-17.06c0,0-3.17-31.56-20.89-104.88
					C203.31,75.14,184.22,82.02,175.17,85.8z" id="SVGID_19_"></path>
			</defs>
			<use style="overflow:visible;fill:#FFCEB4;" xlink:href="#SVGID_19_"></use>
			<clipPath id="SVGID_20_">
				<use style="overflow:visible;" xlink:href="#SVGID_19_"></use>
			</clipPath>
			<g class="st23">
				<polygon points="190.71,188.21 224.22,174.1 226.6,182.94 192.03,198.9" class="st1"></polygon>
			</g>
			<g class="st23">
				<path d="M186.96,99.32c-0.85,0-1.57-0.66-1.64-1.52c-0.07-0.91,0.61-1.7,1.51-1.77c0.07-0.01,6.67-0.58,10.4-4.63
					c0.62-0.67,1.66-0.71,2.33-0.1c0.67,0.62,0.71,1.66,0.1,2.33c-4.62,5.02-12.25,5.66-12.57,5.69
					C187.04,99.32,187,99.32,186.96,99.32z" class="st1"></path>
			</g>
			<g class="st23">
				
					<ellipse ry="5.7" rx="8.63" cy="149.86" cx="201.89" class="st16" transform="matrix(0.9801 -0.1985 0.1985 0.9801 -25.7341 43.0662)"></ellipse>
			</g>
		</g>
		<g id="衣服_1_">
			<g>
				<defs>
					<path d="M189.99,192.86l30.72-12.74c3.5-1.45,7.43,0.82,7.93,4.58l3.92,29.9l9.85,39.38
						c0.1,0.38,0.61,0.46,0.81,0.12l17.83-30.01l38.73,22.52c2.56,1.49,3.66,4.62,2.58,7.38l-14.36,36.85l-19.3-4.63
						c-2.27-0.54-4.66,0.17-6.25,1.88l-35.7,38.28l-60.33-41.04l17.8-32.58c1.4-2.57,2.61-5.25,3.6-8l3.33-9.27
						c2.47-6.88,3.18-14.26,2.08-21.48L189.99,192.86z" id="SVGID_21_"></path>
				</defs>
				<use style="overflow:visible;fill:#FFEC76;" xlink:href="#SVGID_21_"></use>
				<clipPath id="SVGID_22_">
					<use style="overflow:visible;" xlink:href="#SVGID_21_"></use>
				</clipPath>
				<g class="st24">
					
						<rect height="27.51" width="5.08" class="st25" transform="matrix(0.9818 -0.1902 0.1902 0.9818 -32.6305 47.0928)" y="179.82" x="226.54"></rect>
				</g>
				<g class="st24">
					<path d="M229.19,291.43c-0.23,0-0.47-0.05-0.7-0.15c-0.83-0.38-1.18-1.37-0.8-2.19l12.81-27.5
						c0.38-0.83,1.36-1.18,2.19-0.8c0.83,0.38,1.18,1.37,0.8,2.19l-12.81,27.5C230.4,291.08,229.81,291.43,229.19,291.43z" class="st26"></path>
				</g>
				<g class="st24">
					<circle r="3.36" cy="273.44" cx="222.75" class="st27"></circle>
				</g>
				<g class="st24">
					<circle r="3.36" cy="298.96" cx="207.68" class="st27"></circle>
				</g>
				<g class="st24">
					<path d="M208.89,316.9c-0.39,0-0.78-0.14-1.09-0.41c-0.68-0.61-0.74-1.65-0.14-2.33l14.74-16.63
						c0.6-0.68,1.64-0.74,2.33-0.14c0.68,0.61,0.74,1.65,0.14,2.33l-14.74,16.63C209.8,316.71,209.35,316.9,208.89,316.9z" class="st26"></path>
				</g>
				<g class="st24">
					
						<ellipse ry="20.72" rx="13.77" cy="217.49" cx="227.9" class="st26" transform="matrix(0.4214 -0.9069 0.9069 0.4214 -65.3737 332.5097)"></ellipse>
				</g>
				<g class="st24">
					<ellipse ry="10.13" rx="9.79" cy="236.4" cx="238.35" class="st26"></ellipse>
				</g>
				<g class="st24">
					<ellipse ry="10.92" rx="12.29" cy="233.27" cx="261.7" class="st26"></ellipse>
				</g>
				<g class="st24">
					<ellipse ry="8.92" rx="8.89" cy="243.67" cx="250.46" class="st26"></ellipse>
				</g>
				<g class="st24">
					<path d="M193.35,218.04l2.52,21.51c0.16,1.41-0.21,2.83-1.04,3.97l-22.77,31.35L193.35,218.04z" class="st25"></path>
				</g>
				<g class="st24">
					<g>
						<path d="M264.44,291.77c-0.33,0-0.67-0.1-0.96-0.31c-0.74-0.53-0.91-1.56-0.38-2.3l8.17-11.41
							c0.53-0.74,1.56-0.91,2.3-0.38c0.74,0.53,0.91,1.56,0.38,2.3l-8.17,11.41C265.46,291.53,264.95,291.77,264.44,291.77z" class="st25"></path>
					</g>
				</g>
				<g class="st24">
					<polygon points="271.63,279.98 291.87,294.59 266.26,289.38" class="st25"></polygon>
				</g>
			</g>
		</g>
		<g>
			<defs>
				<path d="M335.52,216.26l30.03,8.52l19.69-45.51l1.99,0.76c1.21,0.47,2.59-0.14,3.06-1.36l0.8-2.11
					c0.47-1.21-0.12-2.57-1.33-3.04l-43.64-15.27c-1.21-0.47-2.59,0.14-3.04,1.35l-0.82,2.11c-0.47,1.21,0.14,2.57,1.36,3.04
					l2.03,0.78L335.52,216.26z" id="SVGID_23_"></path>
			</defs>
			<use style="overflow:visible;fill:#E5BE8A;" xlink:href="#SVGID_23_"></use>
			<clipPath id="SVGID_24_">
				<use style="overflow:visible;" xlink:href="#SVGID_23_"></use>
			</clipPath>
			<g class="st28">
				<path d="M347.95,166.68l34.44,11.77l-5.76,15.15c0,0-10.64-5.26-19.79-1.5c-9.14,3.76-15.15,2.38-15.15,2.38
					L347.95,166.68z" class="st26"></path>
			</g>
			<g class="st28">
				<path d="M353.22,166.65c-0.09,0-0.19-0.02-0.28-0.05l-7.73-2.8c-0.43-0.15-0.65-0.63-0.49-1.06
					c0.15-0.43,0.63-0.65,1.05-0.49l7.73,2.8c0.43,0.15,0.65,0.63,0.49,1.06C353.87,166.44,353.56,166.65,353.22,166.65z" class="st26"></path>
			</g>
			<g class="st28">
				<path d="M386.94,178.38c-0.09,0-0.18-0.02-0.27-0.05l-29.06-10.13c-0.43-0.15-0.66-0.62-0.51-1.05
					c0.15-0.43,0.62-0.65,1.05-0.51l29.06,10.13c0.43,0.15,0.66,0.62,0.51,1.05C387.6,178.16,387.28,178.38,386.94,178.38z" class="st26"></path>
			</g>
			<g class="st28">
				<path d="M364.45,196.75c-0.1,0-0.2-0.02-0.29-0.05l-5.4-2.03c-0.21-0.08-0.37-0.23-0.46-0.43
					c-0.09-0.2-0.1-0.43-0.02-0.63l8.14-21.31c0.16-0.41,0.61-0.63,1.03-0.49l5.19,1.71c0.21,0.07,0.39,0.22,0.48,0.43
					c0.1,0.2,0.11,0.43,0.03,0.64l-7.94,21.63c-0.08,0.21-0.23,0.37-0.43,0.47C364.69,196.73,364.57,196.75,364.45,196.75z
					 M360.12,193.42l3.84,1.44l7.35-20.05l-3.64-1.2L360.12,193.42z" class="st29"></path>
			</g>
			<g class="st28">
				<circle r="2.18" cy="201.14" cx="353.81" class="st30"></circle>
			</g>
			<g class="st28">
				<circle r="2.18" cy="209.11" cx="353.48" class="st30"></circle>
			</g>
			<g class="st28">
				<circle r="2.18" cy="205.25" cx="361.44" class="st30"></circle>
			</g>
			<g class="st28">
				<circle r="2.18" cy="216.21" cx="359.16" class="st30"></circle>
			</g>
			<g class="st28">
				<circle r="2.18" cy="216.82" cx="349.82" class="st30"></circle>
			</g>
			<g class="st28">
				<circle r="2.18" cy="202.08" cx="345.62" class="st30"></circle>
			</g>
			<g class="st28">
				<circle r="2.18" cy="209.18" cx="346.39" class="st30"></circle>
			</g>
			<g class="st28">
				<circle r="2.18" cy="210.85" cx="362.61" class="st30"></circle>
			</g>
			<g class="st28">
				<circle r="2.18" cy="204.77" cx="365.74" class="st30"></circle>
			</g>
		</g>
		<g id="奶茶手_2_">
			<defs>
				<path d="M374.68,194.75c-5.4,4.39-18.14,16.69-10.71,29.88c0.62,1.1,1.73,1.83,2.99,1.91h0
					c1.28,0.08,2.5-0.51,3.22-1.57c3.31-4.86,12.44-19.02,12.34-27.29c0,0-0.01-0.09-0.04-0.26
					C381.79,193.89,377.48,192.48,374.68,194.75z" id="SVGID_25_"></path>
			</defs>
			<use style="overflow:visible;fill:#FFCFB3;" xlink:href="#SVGID_25_"></use>
			<clipPath id="SVGID_26_">
				<use style="overflow:visible;" xlink:href="#SVGID_25_"></use>
			</clipPath>
			<g class="st31">
				<path d="M363.92,207.68c-0.75,0-1.43-0.51-1.6-1.28c-0.21-0.89,0.34-1.77,1.23-1.98c0.23-0.05,5.6-1.29,9.79-0.73
					c0.9,0.12,1.54,0.95,1.42,1.85c-0.12,0.9-0.95,1.55-1.85,1.41c-3.61-0.48-8.56,0.66-8.61,0.67
					C364.17,207.66,364.04,207.68,363.92,207.68z" class="st1"></path>
			</g>
			<g class="st31">
				<path d="M369.44,215.24c-0.16,0-0.32-0.02-0.48-0.07c-4.71-1.44-7.67-0.14-7.79-0.08c-0.82,0.38-1.8,0.02-2.18-0.8
					c-0.38-0.82-0.04-1.79,0.77-2.18c0.17-0.08,4.15-1.93,10.16-0.09c0.87,0.26,1.36,1.19,1.09,2.06
					C370.8,214.78,370.14,215.24,369.44,215.24z" class="st1"></path>
			</g>
		</g>
		<g id="奶茶拇指_1_">
			<defs>
				<path d="M340.57,170.14l-14.6,12.81c-1.48,1.3-2.33,3.17-2.34,5.13l-0.18,23.62l9.33,20.34
					c0,0,27.24-26.29,4.76-40.95c0,0,11.18-7.8,13.03-15.45c0.59-2.44-0.66-4.96-2.85-6.18l-0.1-0.05
					C345.35,168.12,342.53,168.42,340.57,170.14z" id="SVGID_27_"></path>
			</defs>
			<use style="overflow:visible;fill:#FFCFB3;" xlink:href="#SVGID_27_"></use>
			<clipPath id="SVGID_28_">
				<use style="overflow:visible;" xlink:href="#SVGID_27_"></use>
			</clipPath>
			<g class="st32">
				<path d="M335.3,195.52c-0.67,0-1.3-0.41-1.54-1.07c-0.32-0.85,0.12-1.8,0.97-2.12c0.06-0.02,6.31-2.38,8.93-5.99
					c0.54-0.74,1.57-0.9,2.3-0.36c0.74,0.54,0.9,1.57,0.36,2.3c-3.21,4.42-10.15,7.03-10.45,7.14
					C335.69,195.49,335.49,195.52,335.3,195.52z" class="st1"></path>
			</g>
		</g>
	</g>
	<g>
		<polygon points="369.09,166.85 377.36,145.66 382.91,147.6 374.79,169.11" class="st26"></polygon>
		<path d="M374.79,169.93c-0.1,0-0.21-0.02-0.3-0.06l-5.71-2.26c-0.42-0.17-0.63-0.64-0.46-1.07l8.27-21.19
			c0.16-0.41,0.62-0.62,1.04-0.48l5.56,1.94c0.21,0.08,0.38,0.23,0.48,0.43c0.09,0.2,0.1,0.43,0.02,0.64l-8.12,21.51
			c-0.08,0.21-0.24,0.37-0.44,0.46C375.02,169.91,374.91,169.93,374.79,169.93z M370.15,166.38l4.17,1.65l7.52-19.93l-4.01-1.4
			L370.15,166.38z" class="st29"></path>
	</g>
</g>
</svg>
