<?xml version="1.0" standalone="no"?><!DOCTYPE svg PUBLIC "-//W3C//DTD SVG 1.1//EN" "http://www.w3.org/Graphics/SVG/1.1/DTD/svg11.dtd"><svg t="1651981707571" class="icon" viewBox="0 0 1024 1024" version="1.1" xmlns="http://www.w3.org/2000/svg" p-id="10947" xmlns:xlink="http://www.w3.org/1999/xlink" width="48" height="48"><defs><style type="text/css">@font-face { font-family: feedback-iconfont; src: url("//at.alicdn.com/t/font_1031158_u69w8yhxdu.woff2?t=1630033759944") format("woff2"), url("//at.alicdn.com/t/font_1031158_u69w8yhxdu.woff?t=1630033759944") format("woff"), url("//at.alicdn.com/t/font_1031158_u69w8yhxdu.ttf?t=1630033759944") format("truetype"); }
</style></defs><path d="M665.44938 13.757681c-8.180075-6.273254-30.192363 4.931647-38.894174 10.447141l-152.992861 96.924878a24.596124 24.596124 0 0 0-4.788791 41.887945l0.192546 0.149067 28.558833 21.894277c-97.844127 114.098687-148.179225 258.607127-142.02398401 409.395033C361.941904 752.498541 429.630934 898.646723 546.096066 1005.981476a21.738999 21.738999 0 1 0 29.46566-31.974962c-107.931022-99.465235-170.65735-234.892985-176.632469-381.326879-5.732884-140.489831 41.558754-275.048021 133.241428-381.066012l37.726479 28.91908001a24.583702 24.583702 0 0 0 38.415916-12.19247301l54.856811-176.067255c3.068304-9.844661 10.453353-32.248252 2.279489-38.515294z" p-id="10948" fill="#1296db"></path></svg>