<?xml version="1.0" standalone="no"?><!DOCTYPE svg PUBLIC "-//W3C//DTD SVG 1.1//EN" "http://www.w3.org/Graphics/SVG/1.1/DTD/svg11.dtd"><svg t="1651981474180" class="icon" viewBox="0 0 1433 1024" version="1.1" xmlns="http://www.w3.org/2000/svg" p-id="5399" xmlns:xlink="http://www.w3.org/1999/xlink" width="67.171875" height="48"><defs><style type="text/css">@font-face { font-family: feedback-iconfont; src: url("//at.alicdn.com/t/font_1031158_u69w8yhxdu.woff2?t=1630033759944") format("woff2"), url("//at.alicdn.com/t/font_1031158_u69w8yhxdu.woff?t=1630033759944") format("woff"), url("//at.alicdn.com/t/font_1031158_u69w8yhxdu.ttf?t=1630033759944") format("truetype"); }
</style></defs><path d="M1133.976466 225.690398A765.336835 765.336835 0 0 0 716.492084 102.400922a764.824835 764.824835 0 0 0-575.692225 259.68614l-76.799923-67.891132A867.224733 867.224733 0 0 1 716.389684 0.001024c171.417429 0 334.847665 49.86875 473.394726 139.77586l37.887962-58.367941a20.47998 20.47998 0 0 1 34.815966 0.716799l136.499063 232.242968a20.47998 20.47998 0 0 1-19.96798 30.719969l-267.673332-30.10557a20.47998 20.47998 0 0 1-14.847985-31.539168l37.478362-57.753543zM1126.398874 870.400154a409.59959 409.59959 0 1 0-819.199181 0v102.399897H0v-204.799795h110.899089a614.604185 614.604185 0 0 1 1211.800388 0H1433.598566v204.799795h-307.199692v-102.399897z" p-id="5400" fill="#1296db"></path></svg>