<?xml version="1.0" standalone="no"?><!DOCTYPE svg PUBLIC "-//W3C//DTD SVG 1.1//EN" "http://www.w3.org/Graphics/SVG/1.1/DTD/svg11.dtd"><svg t="1649921938862" class="icon" viewBox="0 0 1117 1024" version="1.1" xmlns="http://www.w3.org/2000/svg" p-id="26686" xmlns:xlink="http://www.w3.org/1999/xlink" width="52.359375" height="48"><defs><style type="text/css">@font-face { font-family: feedback-iconfont; src: url("//at.alicdn.com/t/font_1031158_u69w8yhxdu.woff2?t=1630033759944") format("woff2"), url("//at.alicdn.com/t/font_1031158_u69w8yhxdu.woff?t=1630033759944") format("woff"), url("//at.alicdn.com/t/font_1031158_u69w8yhxdu.ttf?t=1630033759944") format("truetype"); }
</style></defs><path d="M708.42699 947.029333l-389.688889-1.422222L75.538101 624.184889l89.6-398.222222L517.849212 51.029333l351.288889 179.2 85.333333 398.222223z" fill="#9B969F" p-id="26687"></path><path d="M692.782545 910.051556l-356.977777-1.422223L113.938101 615.651556l82.488889-364.088889L517.849212 90.851556l321.422222 163.555555 76.8 364.088889z" fill="#FFFFFF" p-id="26688"></path><path d="M679.982545 897.251556L345.760323 895.829333 139.538101 618.496l75.377778-345.6L517.849212 119.296l300.088889 156.444444 72.533333 345.6z" fill="#ACA8B1" p-id="26689"></path><path d="M438.204768 672.540444c-200.533333-82.488889-167.822222-301.511111-167.822223-304.355555l14.222223 2.844444c-1.422222 8.533333-29.866667 209.066667 159.288889 287.288889l-5.688889 14.222222z" fill="#F9F9F9" p-id="26690"></path><path d="M293.138101 353.962667c-4.266667 12.8-14.222222 21.333333-17.066667 19.911111-2.844444-1.422222-7.111111-14.222222-1.422222-27.022222 2.844444-8.533333 9.955556-15.644444 18.488889-19.911112 2.844444 8.533333 2.844444 18.488889 0 27.022223zM402.649212 649.784889c2.844444 8.533333-17.066667 21.333333-31.288889 24.177778-12.8 2.844444-27.022222-1.422222-36.977778-9.955556 5.688889-12.8 18.488889-21.333333 31.288889-24.177778 14.222222-2.844444 35.555556 0 36.977778 9.955556zM401.22699 641.251556c-2.844444 0-14.222222-12.8-15.644445-24.177778-1.422222-9.955556 1.422222-19.911111 8.533334-27.022222 8.533333 4.266667 14.222222 14.222222 15.644444 24.177777 1.422222 9.955556-1.422222 19.911111-8.533333 27.022223zM357.138101 611.384889c-2.844444 0-12.8-14.222222-14.222222-24.177778-1.422222-9.955556 2.844444-19.911111 9.955555-27.022222 8.533333 5.688889 12.8 14.222222 14.222223 24.177778 0 9.955556-2.844444 19.911111-9.955556 27.022222zM321.582545 570.140444c-2.844444 0-11.377778-14.222222-9.955555-27.022222 0-9.955556 5.688889-19.911111 12.8-25.6 7.111111 7.111111 11.377778 17.066667 9.955555 27.022222 0 11.377778-9.955556 25.6-12.8 25.6zM293.138101 517.518222c-2.844444-1.422222-5.688889-18.488889-1.422222-28.444444 2.844444-9.955556 11.377778-17.066667 19.911111-19.911111 5.688889 8.533333 5.688889 19.911111 2.844444 29.866666-4.266667 8.533333-18.488889 19.911111-21.333333 18.488889zM280.338101 463.473778c-2.844444-1.422222-2.844444-18.488889 1.422222-28.444445 4.266667-8.533333 12.8-15.644444 22.755556-17.066666 4.266667 9.955556 2.844444 19.911111-1.422222 29.866666-5.688889 9.955556-19.911111 17.066667-22.755556 15.644445zM277.493657 408.007111c-1.422222-1.422222 0-14.222222 5.688888-21.333333 4.266667-5.688889 12.8-8.533333 19.911112-8.533334 1.422222 7.111111-1.422222 15.644444-5.688889 21.333334-4.266667 5.688889-12.8 8.533333-19.911111 8.533333zM357.138101 617.073778c2.844444 8.533333-17.066667 19.911111-32.711111 22.755555-12.8 2.844444-27.022222-2.844444-36.977778-11.377777 7.111111-12.8 18.488889-21.333333 32.711111-22.755556 14.222222-2.844444 35.555556 1.422222 36.977778 11.377778z" fill="#FFFFFF" p-id="26691"></path><path d="M321.582545 574.407111c1.422222 9.955556-21.333333 15.644444-35.555555 14.222222-14.222222 0-25.6-8.533333-34.133333-19.911111 8.533333-11.377778 22.755556-15.644444 36.977777-14.222222 14.222222 1.422222 32.711111 9.955556 32.711111 19.911111zM290.293657 523.207111c-1.422222 9.955556-24.177778 8.533333-38.4 1.422222-12.8-5.688889-22.755556-15.644444-25.6-29.866666 11.377778-7.111111 27.022222-8.533333 38.4-1.422223 14.222222 7.111111 29.866667 21.333333 25.6 29.866667zM276.071434 470.584889c-4.266667 7.111111-21.333333 0-29.866666-7.111111s-14.222222-18.488889-14.222223-29.866667c11.377778-2.844444 22.755556 0 31.288889 7.111111 8.533333 8.533333 17.066667 22.755556 12.8 29.866667zM268.960323 417.962667c-4.266667 4.266667-15.644444-5.688889-19.911111-14.222223-4.266667-7.111111-5.688889-17.066667-2.844444-25.6 8.533333 1.422222 17.066667 7.111111 21.333333 14.222223 4.266667 7.111111 7.111111 21.333333 1.422222 25.6z" fill="#FFFFFF" p-id="26692"></path><path d="M588.960323 672.540444l-5.688889-14.222222c190.577778-78.222222 162.133333-278.755556 160.711111-287.288889l14.222223-2.844444c0 2.844444 31.288889 221.866667-169.244445 304.355555z" fill="#EFEEEA" p-id="26693"></path><path d="M735.449212 353.962667c4.266667 12.8 14.222222 21.333333 17.066667 19.911111s7.111111-14.222222 2.844444-27.022222c-2.844444-8.533333-9.955556-15.644444-18.488889-19.911112-4.266667 8.533333-5.688889 18.488889-1.422222 27.022223zM625.938101 649.784889c-2.844444 8.533333 17.066667 21.333333 31.288889 24.177778 12.8 2.844444 27.022222-1.422222 36.977778-9.955556-5.688889-12.8-18.488889-21.333333-31.288889-24.177778-14.222222-2.844444-35.555556 0-36.977778 9.955556zM627.360323 641.251556c2.844444 0 14.222222-12.8 15.644445-24.177778 1.422222-9.955556-1.422222-19.911111-8.533334-27.022222-8.533333 4.266667-14.222222 14.222222-15.644444 24.177777-1.422222 9.955556 1.422222 19.911111 8.533333 27.022223zM671.449212 611.384889c2.844444 0 12.8-14.222222 14.222222-24.177778s-2.844444-19.911111-9.955555-27.022222c-8.533333 5.688889-12.8 14.222222-14.222222 24.177778 0 9.955556 2.844444 19.911111 9.955555 27.022222zM707.004768 570.140444c2.844444 0 11.377778-14.222222 9.955555-27.022222 0-9.955556-5.688889-19.911111-12.8-25.6-7.111111 7.111111-11.377778 17.066667-9.955555 27.022222 0 11.377778 9.955556 25.6 12.8 25.6zM734.02699 517.518222c2.844444-1.422222 5.688889-18.488889 1.422222-28.444444-2.844444-9.955556-9.955556-17.066667-19.911111-19.911111-5.688889 8.533333-5.688889 19.911111-1.422222 29.866666 4.266667 8.533333 18.488889 19.911111 19.911111 18.488889zM748.249212 463.473778c2.844444-1.422222 2.844444-18.488889-1.422222-28.444445-4.266667-8.533333-12.8-15.644444-22.755556-17.066666-4.266667 9.955556-2.844444 19.911111 1.422223 29.866666 5.688889 9.955556 19.911111 17.066667 22.755555 15.644445zM749.671434 408.007111c1.422222-1.422222 0-14.222222-5.688889-21.333333-4.266667-5.688889-11.377778-8.533333-19.911111-8.533334-1.422222 7.111111 1.422222 15.644444 5.688889 21.333334 5.688889 5.688889 12.8 8.533333 19.911111 8.533333zM671.449212 617.073778c-2.844444 8.533333 17.066667 19.911111 32.711111 22.755555 12.8 2.844444 27.022222-2.844444 36.977778-11.377777-7.111111-12.8-18.488889-21.333333-32.711111-22.755556-15.644444-2.844444-35.555556 1.422222-36.977778 11.377778z" fill="#F9F9F7" p-id="26694"></path><path d="M707.004768 574.407111c-1.422222 9.955556 21.333333 15.644444 35.555555 14.222222 14.222222 0 25.6-8.533333 34.133334-19.911111-8.533333-11.377778-22.755556-15.644444-36.977778-14.222222-14.222222 1.422222-34.133333 9.955556-32.711111 19.911111zM736.871434 523.207111c1.422222 9.955556 24.177778 8.533333 38.4 1.422222 12.8-4.266667 22.755556-15.644444 25.6-29.866666-11.377778-7.111111-27.022222-8.533333-38.4-1.422223-12.8 7.111111-28.444444 21.333333-25.6 29.866667zM752.515879 470.584889c4.266667 7.111111 21.333333 0 29.866666-7.111111s14.222222-18.488889 14.222223-29.866667c-11.377778-2.844444-22.755556 0-31.288889 7.111111-8.533333 8.533333-18.488889 22.755556-12.8 29.866667zM759.62699 417.962667c4.266667 4.266667 15.644444-5.688889 19.911111-14.222223 4.266667-7.111111 5.688889-17.066667 2.844444-25.6-8.533333 1.422222-17.066667 7.111111-21.333333 14.222223-4.266667 7.111111-7.111111 21.333333-1.422222 25.6z" fill="#F9F9F7" p-id="26695"></path><path d="M546.293657 884.451556H486.560323l-24.177778-213.333334h122.311112z" fill="#A5A4A4" p-id="26696"></path><path d="M584.693657 671.118222H443.893657c-7.111111 0-14.222222-4.266667-17.066667-9.955555L396.960323 597.162667h237.511111l-29.866666 64c-5.688889 5.688889-12.8 9.955556-19.911111 9.955555z" fill="#CBCBCB" p-id="26697"></path><path d="M543.449212 884.451556h-76.8l-25.6-213.333334h123.733333z" fill="#BCBCBC" p-id="26698"></path><path d="M795.182545 883.029333s7.111111 7.111111-105.244444-35.555555c-17.066667-7.111111-36.977778 55.466667 32.711111 78.222222h98.133333s45.511111-8.533333 83.911112 46.933333c15.644444-34.133333 15.644444-73.955556 2.844444-109.511111 0 0-8.533333-14.222222 69.688889-17.066666 0 0-31.288889-64-119.466667-73.955556-35.555556 58.311111-62.577778 110.933333-62.577778 110.933333zM234.82699 870.229333s-7.111111 7.111111 105.244444-35.555555c17.066667-7.111111 36.977778 55.466667-32.711111 78.222222h-98.133333s-45.511111-8.533333-83.911111 46.933333c-15.644444-34.133333-15.644444-73.955556-2.844445-109.511111 0 0 8.533333-14.222222-69.688889-17.066666 0 0 31.288889-64 119.466667-73.955556 34.133333 58.311111 62.577778 110.933333 62.577778 110.933333z" fill="#98929D" p-id="26699"></path><path d="M231.982545 888.718222L145.22699 777.784889c119.466667-49.777778 247.466667-73.955556 375.466667-75.377778 109.511111 0 248.888889 24.177778 345.6 85.333333-44.088889 81.066667-72.533333 100.977778-72.533334 100.977778s-291.555556-56.888889-561.777778 0z" fill="#98929D" p-id="26700"></path><path d="M419.715879 534.584889h190.577778c12.8 0 22.755556 11.377778 22.755555 24.177778V597.162667H395.538101v-38.4c0-7.111111 2.844444-12.8 7.111111-17.066667 4.266667-5.688889 9.955556-7.111111 17.066667-7.111111zM496.515879 463.473778l-11.377778-9.955556c22.755556-29.866667 24.177778-83.911111 24.177778-85.333333h14.222222c0 2.844444-1.422222 61.155556-27.022222 95.288889z" fill="#FFFFFF" p-id="26701"></path><path d="M506.471434 473.429333l-9.955555-9.955555c28.444444-32.711111 82.488889-42.666667 85.333333-44.088889l2.844445 14.222222c-1.422222 1.422222-54.044444 11.377778-78.222223 39.822222z" fill="#FFFFFF" p-id="26702"></path><path d="M443.893657 507.562667l12.8 12.8c1.422222 1.422222 2.844444 5.688889 0 7.111111l-2.844445 4.266666c-1.422222 2.844444-5.688889 2.844444-7.111111 0l-12.8-12.8c-1.422222-1.422222-2.844444-5.688889 0-7.111111l2.844444-4.266666c1.422222-1.422222 4.266667-1.422222 7.111112 0z" fill="#8A888C" p-id="26703"></path><path d="M456.693657 527.473778l-19.911112-19.911111 49.777778-55.466667 19.911111 21.333333z" fill="#808080" p-id="26704"></path><path d="M482.293657 326.940444c0 18.488889-11.377778 34.133333-28.444445 38.4-2.844444 1.422222-7.111111 1.422222-9.955555 1.422223-19.911111 0-36.977778-17.066667-38.4-38.4-1.422222-21.333333 14.222222-39.822222 34.133333-42.666667 19.911111-2.844444 38.4 12.8 42.666667 32.711111v8.533333z" fill="#9A989E" p-id="26705"></path><path d="M443.893657 371.029333c-22.755556 0-41.244444-18.488889-42.666667-41.244444-1.422222-22.755556 15.644444-44.088889 36.977778-46.933333s42.666667 12.8 45.511111 36.977777v7.111111c0 19.911111-12.8 36.977778-29.866667 41.244445-1.422222 1.422222-5.688889 2.844444-9.955555 2.844444z m0-81.066666c-19.911111 0-35.555556 17.066667-35.555556 36.977777s15.644444 36.977778 35.555556 36.977778c2.844444 0 7.111111 0 9.955555-1.422222 14.222222-4.266667 25.6-18.488889 25.6-35.555556v-5.688888c-2.844444-18.488889-18.488889-31.288889-35.555555-31.288889z" fill="#FFFFFF" p-id="26706"></path><path d="M455.271434 369.607111c-8.533333-5.688889-14.222222-12.8-18.488889-21.333333-4.266667-9.955556-4.266667-19.911111-1.422222-29.866667 2.844444-7.111111 7.111111-11.377778 12.8-14.222222 14.222222-4.266667 28.444444 1.422222 35.555556 14.222222v1.422222c5.688889 19.911111-7.111111 41.244444-28.444445 49.777778z m2.844445-61.155555c-1.422222 0-4.266667 0-5.688889 1.422222-4.266667 1.422222-7.111111 5.688889-9.955556 9.955555-2.844444 8.533333-2.844444 17.066667 1.422223 25.6 2.844444 7.111111 7.111111 11.377778 12.8 15.644445 14.222222-5.688889 24.177778-18.488889 22.755555-34.133334v-5.688888c-4.266667-7.111111-12.8-12.8-21.333333-12.8zM351.449212 770.673778c-7.111111 2.844444-12.8 7.111111-19.911111 9.955555l-4.266667-12.8c8.533333-4.266667 15.644444-8.533333 24.177778-12.8l14.222222-4.266666c7.111111 25.6 14.222222 52.622222 19.911111 78.222222l-17.066666 4.266667c-5.688889-19.911111-11.377778-41.244444-17.066667-62.577778zM460.960323 725.162667c2.844444 29.866667 7.111111 58.311111 9.955556 88.177777-5.688889 0-9.955556 1.422222-15.644445 1.422223-1.422222-2.844444-1.422222-5.688889-2.844444-8.533334-1.422222 5.688889-5.688889 11.377778-17.066667 12.8-19.911111 2.844444-27.022222-7.111111-31.288889-27.022222-4.266667-17.066667-1.422222-32.711111 19.911111-36.977778 12.8-2.844444 18.488889 0 21.333334 5.688889l-4.266667-32.711111c7.111111-1.422222 12.8-2.844444 19.911111-2.844444z m-11.377778 58.311111c-1.422222-11.377778-5.688889-19.911111-18.488888-17.066667-12.8 1.422222-12.8 11.377778-9.955556 22.755556 1.422222 9.955556 5.688889 18.488889 17.066667 17.066666 11.377778-2.844444 14.222222-9.955556 11.377777-22.755555zM542.02699 766.407111V810.496h-15.644445l-1.422222-7.111111c-4.266667 5.688889-12.8 9.955556-19.911111 8.533333-14.222222 0-21.333333-4.266667-22.755555-17.066666-1.422222-12.8 7.111111-21.333333 25.6-21.333334h17.066666v-1.422222c0-7.111111-2.844444-9.955556-14.222222-9.955556-4.266667 0-9.955556 1.422222-14.222222 1.422223l-1.422222-14.222223c5.688889-1.422222 11.377778-1.422222 17.066666-1.422222 22.755556-2.844444 29.866667 5.688889 29.866667 18.488889z m-17.066667 24.177778v-7.111111h-14.222222c-8.533333 0-12.8 1.422222-11.377778 8.533333 0 5.688889 2.844444 7.111111 9.955556 7.111111 5.688889 0 11.377778-2.844444 15.644444-8.533333zM556.249212 819.029333c9.955556 0 14.222222-1.422222 17.066667-8.533333-7.111111-21.333333-14.222222-42.666667-22.755556-64 7.111111 0 14.222222 0 21.333334 1.422222 4.266667 14.222222 8.533333 29.866667 12.8 45.511111 5.688889-14.222222 12.8-29.866667 18.488888-42.666666 7.111111 0 14.222222 1.422222 19.911112 2.844444-9.955556 17.066667-19.911111 35.555556-28.444445 54.044445-9.955556 21.333333-17.066667 27.022222-38.4 25.6v-14.222223zM621.671434 816.184889l1.422223-14.222222c5.688889 2.844444 12.8 5.688889 18.488888 7.111111 7.111111 1.422222 11.377778 1.422222 11.377778-4.266667 1.422222-4.266667-1.422222-7.111111-11.377778-11.377778-14.222222-5.688889-17.066667-9.955556-14.222222-21.333333 1.422222-9.955556 9.955556-17.066667 29.866667-12.8 5.688889 1.422222 12.8 2.844444 18.488889 7.111111l-1.422222 12.8c-5.688889-2.844444-11.377778-4.266667-17.066667-5.688889-8.533333-1.422222-11.377778 0-11.377778 2.844445s1.422222 4.266667 11.377778 9.955555c14.222222 7.111111 17.066667 11.377778 14.222222 22.755556-2.844444 14.222222-14.222222 17.066667-29.866667 12.8-7.111111-1.422222-12.8-2.844444-19.911111-5.688889zM571.893657 435.029333c-14.222222 0-28.444444-5.688889-39.822223-14.222222-15.644444-12.8-24.177778-32.711111-24.177777-54.044444 0-45.511111 31.288889-85.333333 73.955555-95.288889 19.911111-4.266667 39.822222 0 55.466667 12.8 29.866667 25.6 31.288889 76.8 2.844444 115.2-15.644444 21.333333-41.244444 35.555556-68.266666 35.555555zM597.493657 284.273778c-4.266667 0-8.533333 0-12.8 1.422222-17.066667 4.266667-34.133333 14.222222-44.088889 29.866667-11.377778 14.222222-18.488889 32.711111-18.488889 52.622222 0 15.644444 7.111111 31.288889 18.488889 42.666667 24.177778 21.333333 64 11.377778 88.177777-19.911112s24.177778-73.955556 0-93.866666c-8.533333-8.533333-19.911111-12.8-31.288888-12.8z" fill="#FFFFFF" p-id="26707"></path><path d="M2.620768 0h1024v1024h-1024z" fill="#D8D8D8" fill-opacity="0" p-id="26708"></path></svg>