<?xml version="1.0" standalone="no"?><!DOCTYPE svg PUBLIC "-//W3C//DTD SVG 1.1//EN" "http://www.w3.org/Graphics/SVG/1.1/DTD/svg11.dtd"><svg t="1649921922047" class="icon" viewBox="0 0 1117 1024" version="1.1" xmlns="http://www.w3.org/2000/svg" p-id="26518" xmlns:xlink="http://www.w3.org/1999/xlink" width="52.359375" height="48"><defs><style type="text/css">@font-face { font-family: feedback-iconfont; src: url("//at.alicdn.com/t/font_1031158_u69w8yhxdu.woff2?t=1630033759944") format("woff2"), url("//at.alicdn.com/t/font_1031158_u69w8yhxdu.woff?t=1630033759944") format("woff"), url("//at.alicdn.com/t/font_1031158_u69w8yhxdu.ttf?t=1630033759944") format("truetype"); }
</style></defs><path d="M709.30101 955.733333l-389.688889-1.422222L76.412121 628.622222l89.6-405.333333L518.723232 45.511111 870.012121 227.555556l85.333334 405.333333z" fill="#847CD8" p-id="26519"></path><path d="M692.234343 915.911111l-356.977777-1.422222L114.812121 617.244444l81.066667-369.777777L518.723232 83.911111l321.422223 166.4 76.8 369.777778z" fill="#FFFFFF" p-id="26520"></path><path d="M680.856566 900.266667l-332.8-1.422223L140.412121 621.511111 217.212121 275.911111 518.723232 123.733333l300.088889 155.022223 72.533334 345.6z" fill="#FEF7E7" p-id="26521"></path><path d="M680.998788 887.765333l-332.8-1.422222-207.644445-277.333333 76.8-345.6 301.511112-153.6 300.088888 155.022222 72.533334 347.022222z" fill="#6352A4" opacity=".93" p-id="26522"></path><path d="M440.50101 672.711111c-200.533333-83.911111-167.822222-305.777778-167.822222-308.622222l14.222222 2.844444c-1.422222 8.533333-29.866667 213.333333 159.288889 292.977778l-5.688889 12.8z" fill="#FFCB39" p-id="26523"></path><path d="M294.012121 349.866667c-4.266667 12.8-14.222222 21.333333-17.066666 19.911111-2.844444-1.422222-7.111111-14.222222-1.422223-27.022222 2.844444-8.533333 9.955556-17.066667 18.488889-19.911112 2.844444 8.533333 2.844444 18.488889 0 27.022223zM403.523232 651.377778c2.844444 8.533333-17.066667 21.333333-31.288889 24.177778-12.8 2.844444-27.022222 0-36.977777-9.955556 5.688889-12.8 18.488889-22.755556 31.288889-24.177778 14.222222-4.266667 35.555556-1.422222 36.977777 9.955556zM402.10101 642.844444c-2.844444 1.422222-14.222222-12.8-15.644444-24.177777-1.422222-9.955556 1.422222-19.911111 7.111111-28.444445 8.533333 4.266667 14.222222 14.222222 15.644444 24.177778 2.844444 9.955556 0 19.911111-7.111111 28.444444zM358.012121 611.555556c-2.844444 0-12.8-14.222222-14.222222-25.6-1.422222-9.955556 2.844444-19.911111 9.955556-27.022223 8.533333 5.688889 12.8 14.222222 14.222222 25.6 0 9.955556-2.844444 19.911111-9.955556 27.022223zM322.456566 570.311111c-2.844444 0-11.377778-15.644444-9.955556-27.022222 0-9.955556 5.688889-19.911111 12.8-25.6 7.111111 7.111111 11.377778 17.066667 9.955556 27.022222 0 11.377778-9.955556 25.6-12.8 25.6zM295.434343 516.266667c-2.844444-1.422222-5.688889-18.488889-2.844444-28.444445s11.377778-17.066667 19.911111-19.911111c5.688889 8.533333 5.688889 19.911111 2.844445 29.866667-4.266667 8.533333-18.488889 19.911111-19.911112 18.488889zM281.212121 462.222222c-2.844444-1.422222-2.844444-19.911111 1.422222-29.866666 4.266667-8.533333 12.8-15.644444 22.755556-17.066667 4.266667 9.955556 2.844444 21.333333-1.422222 29.866667-4.266667 9.955556-19.911111 18.488889-22.755556 17.066666zM278.367677 405.333333c-1.422222-1.422222 1.422222-14.222222 5.688889-21.333333 4.266667-5.688889 12.8-8.533333 19.911111-8.533333 1.422222 7.111111-1.422222 15.644444-5.688889 21.333333-4.266667 5.688889-11.377778 8.533333-19.911111 8.533333zM358.012121 617.244444c2.844444 8.533333-17.066667 19.911111-32.711111 22.755556-12.8 2.844444-27.022222-2.844444-36.977778-12.8 7.111111-12.8 18.488889-21.333333 32.711111-22.755556 15.644444-1.422222 35.555556 2.844444 36.977778 12.8z" fill="#FFDE39" p-id="26524"></path><path d="M322.456566 574.577778c1.422222 9.955556-21.333333 15.644444-35.555556 14.222222-14.222222 0-25.6-8.533333-34.133333-19.911111 8.533333-11.377778 22.755556-15.644444 36.977778-14.222222 14.222222 0 34.133333 8.533333 32.711111 19.911111zM291.167677 521.955556c-1.422222 9.955556-24.177778 8.533333-38.4 1.422222-12.8-5.688889-22.755556-15.644444-25.6-29.866667 11.377778-7.111111 27.022222-8.533333 38.4-1.422222 14.222222 5.688889 29.866667 21.333333 25.6 29.866667zM276.945455 467.911111c-4.266667 7.111111-21.333333 0-29.866667-8.533333-8.533333-7.111111-14.222222-18.488889-14.222222-29.866667 11.377778-2.844444 22.755556 0 31.288889 8.533333 8.533333 8.533333 18.488889 22.755556 12.8 29.866667zM269.834343 413.866667c-4.266667 4.266667-15.644444-5.688889-19.911111-14.222223-4.266667-8.533333-5.688889-17.066667-2.844444-27.022222 8.533333 1.422222 17.066667 7.111111 21.333333 14.222222 4.266667 9.955556 7.111111 24.177778 1.422222 27.022223z" fill="#FFDE39" p-id="26525"></path><path d="M589.834343 672.711111l-5.688888-14.222222C776.145455 580.266667 744.856566 369.777778 744.856566 366.933333l14.222222-2.844444c0 2.844444 32.711111 224.711111-169.244445 308.622222z" fill="#FFCB39" p-id="26526"></path><path d="M736.323232 349.866667c4.266667 12.8 14.222222 21.333333 17.066667 19.911111 2.844444-1.422222 7.111111-14.222222 2.844444-27.022222-2.844444-8.533333-9.955556-17.066667-18.488888-19.911112-4.266667 7.111111-4.266667 18.488889-1.422223 27.022223zM626.812121 651.377778c-2.844444 8.533333 17.066667 21.333333 31.288889 24.177778 12.8 2.844444 27.022222 0 36.977778-9.955556-5.688889-12.8-18.488889-22.755556-31.288889-24.177778-14.222222-4.266667-35.555556-1.422222-36.977778 9.955556zM628.234343 642.844444c2.844444 1.422222 14.222222-12.8 15.644445-24.177777 1.422222-9.955556-1.422222-19.911111-8.533333-28.444445-8.533333 5.688889-14.222222 14.222222-15.644445 24.177778-1.422222 9.955556 1.422222 19.911111 8.533333 28.444444zM672.323232 611.555556c2.844444 0 12.8-14.222222 14.222223-25.6 1.422222-9.955556-2.844444-19.911111-9.955556-27.022223-8.533333 5.688889-12.8 14.222222-14.222222 25.6 0 9.955556 2.844444 19.911111 9.955555 27.022223zM707.878788 570.311111c2.844444 0 11.377778-15.644444 9.955555-27.022222 0-9.955556-5.688889-19.911111-12.8-25.6-7.111111 7.111111-11.377778 17.066667-9.955555 27.022222 0 11.377778 9.955556 25.6 12.8 25.6zM736.323232 516.266667c2.844444-1.422222 5.688889-18.488889 1.422223-28.444445-2.844444-9.955556-9.955556-17.066667-19.911112-19.911111-5.688889 8.533333-5.688889 19.911111-1.422222 29.866667 2.844444 8.533333 17.066667 19.911111 19.911111 18.488889zM749.123232 462.222222c2.844444-1.422222 2.844444-19.911111-1.422222-29.866666-4.266667-8.533333-12.8-15.644444-22.755555-17.066667-4.266667 9.955556-2.844444 21.333333 1.422222 29.866667 5.688889 9.955556 19.911111 18.488889 22.755555 17.066666zM751.967677 405.333333c1.422222-1.422222 0-14.222222-5.688889-21.333333-4.266667-5.688889-11.377778-8.533333-19.911111-8.533333-1.422222 7.111111 1.422222 15.644444 5.688889 21.333333 5.688889 5.688889 12.8 8.533333 19.911111 8.533333zM672.323232 617.244444c-2.844444 8.533333 17.066667 19.911111 32.711111 22.755556 12.8 2.844444 27.022222-2.844444 36.977778-12.8-7.111111-12.8-18.488889-21.333333-32.711111-22.755556-14.222222-1.422222-35.555556 2.844444-36.977778 12.8z" fill="#FFDE39" p-id="26527"></path><path d="M707.878788 574.577778c-1.422222 9.955556 21.333333 15.644444 35.555555 14.222222 14.222222 0 27.022222-8.533333 34.133334-19.911111-8.533333-11.377778-22.755556-15.644444-35.555556-14.222222-15.644444 0-35.555556 8.533333-34.133333 19.911111zM739.167677 521.955556c1.422222 9.955556 24.177778 8.533333 38.4 1.422222 12.8-5.688889 22.755556-15.644444 25.6-29.866667-11.377778-7.111111-27.022222-8.533333-38.4-1.422222-14.222222 5.688889-29.866667 21.333333-25.6 29.866667zM753.389899 467.911111c4.266667 7.111111 21.333333 0 29.866667-8.533333 8.533333-7.111111 14.222222-18.488889 14.222222-29.866667-11.377778-2.844444-22.755556 0-31.288889 8.533333-8.533333 8.533333-17.066667 22.755556-12.8 29.866667zM760.50101 413.866667c4.266667 4.266667 15.644444-5.688889 19.911111-14.222223 4.266667-8.533333 5.688889-17.066667 2.844445-27.022222-8.533333 1.422222-15.644444 7.111111-19.911111 14.222222-5.688889 9.955556-8.533333 24.177778-2.844445 27.022223z" fill="#FFDE39" p-id="26528"></path><path d="M548.120566 888.888889h-59.733334l-25.6-217.6h123.733334z" fill="#EAAA2A" opacity=".8" p-id="26529"></path><path d="M585.567677 671.288889H444.767677c-7.111111 0-14.222222-4.266667-17.066667-11.377778l-31.288889-65.422222h237.511111l-29.866666 65.422222c-4.266667 8.533333-11.377778 12.8-18.488889 11.377778z" fill="#FFE339" p-id="26530"></path><path d="M548.589899 888.888889h-81.066667l-24.177777-217.6h122.311111z" fill="#FFC139" p-id="26531"></path><path d="M796.056566 887.466667s7.111111 7.111111-105.244445-35.555556c-17.066667-7.111111-36.977778 56.888889 32.711111 79.644445h98.133334s45.511111-9.955556 83.911111 46.933333c15.644444-35.555556 15.644444-75.377778 2.844444-110.933333 0 0-8.533333-14.222222 69.688889-17.066667-31.288889-46.933333-79.644444-76.8-133.688889-83.911111-21.333333 36.977778-36.977778 78.222222-48.355555 120.888889zM235.70101 887.466667s-7.111111 7.111111 105.244445-35.555556c17.066667-7.111111 36.977778 56.888889-32.711112 79.644445h-98.133333s-45.511111-9.955556-83.911111 46.933333c-15.644444-35.555556-15.644444-75.377778-2.844444-110.933333 0 0 8.533333-14.222222-69.688889-17.066667 0 0 31.288889-65.422222 119.466666-73.955556 34.133333 56.888889 62.577778 110.933333 62.577778 110.933334z" fill="#FE8626" p-id="26532"></path><path d="M232.856566 893.155556l-86.755556-113.777778c119.466667-49.777778 247.466667-75.377778 375.466667-76.8 109.511111 0 248.888889 24.177778 345.6 86.755555-44.088889 82.488889-72.533333 102.4-72.533334 102.4s-291.555556-56.888889-561.777777 1.422223z" fill="#FF9D28" p-id="26533"></path><path d="M330.989899 780.8c-7.111111 2.844444-12.8 7.111111-19.911111 9.955556l-4.266667-14.222223c8.533333-4.266667 15.644444-8.533333 24.177778-12.8l14.222222-4.266666c5.688889 27.022222 12.8 52.622222 19.911111 79.644444l-17.066666 4.266667c-5.688889-19.911111-11.377778-41.244444-17.066667-62.577778zM393.567677 832l-2.844445-14.222222c5.688889 0 11.377778 0 15.644445-1.422222 9.955556-2.844444 18.488889-5.688889 15.644444-15.644445s-7.111111-11.377778-19.911111-8.533333c-5.688889 1.422222-11.377778 2.844444-17.066667 5.688889-1.422222-14.222222-2.844444-29.866667-2.844444-45.511111 15.644444-2.844444 29.866667-5.688889 45.511111-8.533334l1.422222 14.222222c-9.955556 1.422222-19.911111 2.844444-29.866666 5.688889v17.066667c2.844444-1.422222 5.688889-1.422222 8.533333-2.844444 18.488889-4.266667 29.866667 2.844444 31.288889 19.911111 2.844444 17.066667-8.533333 28.444444-29.866667 32.711111-4.266667 1.422222-9.955556 1.422222-15.644444 1.422222zM513.034343 725.333333c1.422222 29.866667 2.844444 59.733333 2.844445 89.6h-14.222222l-1.422223-8.533333c-1.422222 5.688889-7.111111 9.955556-18.488888 11.377778-19.911111 1.422222-25.6-9.955556-28.444445-29.866667-2.844444-18.488889 1.422222-34.133333 22.755556-35.555555 12.8-1.422222 18.488889 2.844444 21.333333 7.111111l-2.844444-32.711111 18.488888-1.422223z m-14.222222 59.733334c0-11.377778-4.266667-19.911111-17.066666-18.488889-12.8 1.422222-12.8 9.955556-11.377778 21.333333 1.422222 11.377778 2.844444 19.911111 15.644444 18.488889 11.377778 0 14.222222-8.533333 12.8-21.333333zM591.256566 773.688889c-1.422222 14.222222-1.422222 29.866667-2.844445 44.088889H572.767677c0-2.844444-1.422222-4.266667-1.422222-7.111111-5.688889 5.688889-12.8 8.533333-19.911112 8.533333-14.222222 0-21.333333-5.688889-21.333333-19.911111 0-12.8 8.533333-19.911111 27.022222-19.911111l15.644445 1.422222v-2.844444c0-7.111111-1.422222-11.377778-14.222222-11.377778-4.266667 0-9.955556 0-14.222223 1.422222v-14.222222h17.066667c22.755556-1.422222 29.866667 7.111111 29.866667 19.911111z m-19.911111 24.177778v-7.111111h-14.222223c-8.533333 0-11.377778 1.422222-11.377777 7.111111 0 7.111111 2.844444 7.111111 9.955555 7.111111 5.688889 0 12.8-1.422222 15.644445-7.111111zM602.634343 827.733333c9.955556 1.422222 14.222222-1.422222 17.066667-7.111111-5.688889-21.333333-12.8-44.088889-19.911111-65.422222l19.911111 1.422222c4.266667 15.644444 7.111111 31.288889 9.955556 46.933334 7.111111-14.222222 14.222222-28.444444 19.911111-42.666667l19.911111 2.844444c-9.955556 17.066667-21.333333 35.555556-29.866667 54.044445-9.955556 21.333333-17.066667 27.022222-38.4 24.177778l1.422222-14.222223zM668.056566 827.733333l2.844444-14.222222c5.688889 2.844444 11.377778 5.688889 18.488889 7.111111 7.111111 1.422222 9.955556 1.422222 11.377778-4.266666 1.422222-5.688889 0-7.111111-9.955556-11.377778-12.8-5.688889-15.644444-11.377778-14.222222-21.333334s9.955556-17.066667 29.866667-12.8c5.688889 1.422222 12.8 4.266667 18.488889 7.111112l-4.266667 12.8c-5.688889-2.844444-9.955556-5.688889-15.644445-7.111112-8.533333-1.422222-9.955556-1.422222-11.377777 2.844445s1.422222 5.688889 9.955555 9.955555c14.222222 7.111111 15.644444 12.8 14.222222 24.177778-2.844444 14.222222-14.222222 17.066667-29.866666 12.8-7.111111-1.422222-14.222222-2.844444-19.911111-5.688889z" fill="#FFFFFF" p-id="26534"></path><path d="M574.189899 443.733333l19.911111 19.911111c12.8 14.222222 12.8 35.555556 0 49.777778l-5.688889 5.688889c-12.8 14.222222-34.133333 14.222222-46.933333 0l-18.488889-19.911111-1.422222-1.422222 52.622222-54.044445z" fill="#FF5F1B" p-id="26535"></path><path d="M564.234343 537.6c-9.955556 0-19.911111-4.266667-28.444444-12.8L515.878788 504.888889l-1.422222-2.844445-4.266667-4.266666 61.155556-64 4.266666 4.266666c1.422222 0 1.422222 1.422222 2.844445 1.422223l-4.266667 5.688889 4.266667-5.688889 18.488889 19.911111c15.644444 17.066667 15.644444 44.088889 0 61.155555l-4.266667 5.688889c-8.533333 7.111111-18.488889 11.377778-28.444445 11.377778zM530.10101 499.2l15.644445 15.644444c4.266667 5.688889 11.377778 8.533333 18.488888 8.533334s14.222222-2.844444 18.488889-8.533334l5.688889-5.688888c5.688889-5.688889 7.111111-12.8 7.111111-19.911112 0-7.111111-2.844444-14.222222-7.111111-19.911111L572.767677 453.688889l-42.666667 45.511111z" fill="#FFFFFF" p-id="26536"></path><path d="M400.678788 372.622222l-2.844445-45.511111 25.6-25.6 44.088889 8.533333L558.545455 457.955556l-25.6 27.022222" fill="#FF5F1B" p-id="26537"></path><path d="M538.634343 489.244444l-9.955555-9.955555 21.333333-22.755556-86.755555-139.377777-36.977778-7.111112-21.333333 19.911112 2.844444 42.666666h-14.222222l-2.844445-49.777778 29.866667-28.444444 51.2 8.533333 95.288889 156.444445z" fill="#FFFFFF" p-id="26538"></path><path d="M467.523232 310.044444L473.212121 270.222222l21.333334-14.222222 24.177777 8.533333L572.767677 443.733333l-14.222222 14.222223z" fill="#FF5F1B" p-id="26539"></path><path d="M557.123232 469.333333L458.989899 311.466667l7.111111-45.511111 25.6-18.488889 31.288889 9.955555 55.466667 187.733334-21.333334 24.177777z m-82.488889-160.711111l85.333334 137.955556 4.266666-4.266667L513.034343 270.222222l-18.488888-5.688889-15.644445 11.377778-4.266667 32.711111z" fill="#FFFFFF" p-id="26540"></path><path d="M520.145455 499.2l-162.133334-75.377778-11.377778-29.866666 18.488889-18.488889 35.555556-2.844445 132.266667 112.355556z" fill="#FF5F1B" p-id="26541"></path><path d="M521.567677 507.733333l-169.244445-78.222222-12.8-35.555555 22.755556-24.177778 41.244444-2.844445 140.8 119.466667-22.755555 21.333333z m-159.288889-89.6l155.022222 72.533334 4.266667-4.266667-123.733334-103.822222-28.444444 1.422222-12.8 14.222222 5.688889 19.911111zM420.589899 531.911111h190.577778c12.8 0 22.755556 11.377778 22.755555 24.177778v39.822222H397.834343v-38.4c0-7.111111 2.844444-12.8 7.111112-18.488889s9.955556-7.111111 15.644444-7.111111z" fill="#FFFFFF" p-id="26542"></path><path d="M3.878788 0h1024v1024H3.878788z" fill="#D8D8D8" fill-opacity="0" p-id="26543"></path></svg>