<?xml version="1.0" standalone="no"?><!DOCTYPE svg PUBLIC "-//W3C//DTD SVG 1.1//EN" "http://www.w3.org/Graphics/SVG/1.1/DTD/svg11.dtd"><svg t="1649921960696" class="icon" viewBox="0 0 1117 1024" version="1.1" xmlns="http://www.w3.org/2000/svg" p-id="27023" xmlns:xlink="http://www.w3.org/1999/xlink" width="52.359375" height="48"><defs><style type="text/css">@font-face { font-family: feedback-iconfont; src: url("//at.alicdn.com/t/font_1031158_u69w8yhxdu.woff2?t=1630033759944") format("woff2"), url("//at.alicdn.com/t/font_1031158_u69w8yhxdu.woff?t=1630033759944") format("woff"), url("//at.alicdn.com/t/font_1031158_u69w8yhxdu.ttf?t=1630033759944") format("truetype"); }
</style></defs><path d="M703.612121 940.088889L323.878788 938.666667 89.212121 617.244444l86.755556-398.222222L518.723232 44.088889l339.911111 179.2 82.488889 398.222222z" fill="#9B969F" p-id="27024"></path><path d="M687.967677 900.266667l-347.022222-1.422223L126.189899 607.288889l78.222222-364.088889L518.723232 82.488889l311.466667 163.555555 75.377778 364.088889z" fill="#FFFFFF" p-id="27025"></path><path d="M676.589899 874.666667l-324.266667-1.422223L151.789899 600.177778l73.955556-339.911111L518.723232 109.511111l290.133334 152.177778 71.111111 341.333333z" fill="#ACA8B1" p-id="27026"></path><path d="M441.923232 661.333333c-194.844444-82.488889-163.555556-301.511111-163.555555-304.355555l14.222222 2.844444c-1.422222 8.533333-29.866667 209.066667 155.022222 287.288889l-5.688889 14.222222z" fill="#FFFFFF" p-id="27027"></path><path d="M299.70101 342.755556c-4.266667 12.8-14.222222 21.333333-17.066667 19.911111s-7.111111-14.222222-1.422222-27.022223c2.844444-8.533333 9.955556-15.644444 18.488889-19.911111 2.844444 8.533333 4.266667 18.488889 0 27.022223zM406.367677 640c2.844444 8.533333-15.644444 21.333333-29.866667 24.177778-12.8 2.844444-27.022222-1.422222-36.977778-9.955556 5.688889-12.8 17.066667-21.333333 29.866667-24.177778 15.644444-2.844444 35.555556-1.422222 36.977778 9.955556zM404.945455 631.466667c-2.844444 0-14.222222-12.8-14.222223-24.177778-1.422222-9.955556 1.422222-19.911111 7.111111-27.022222 8.533333 4.266667 14.222222 14.222222 15.644445 24.177777 1.422222 9.955556-1.422222 19.911111-8.533333 27.022223zM362.278788 601.6c-2.844444 0-12.8-14.222222-14.222222-24.177778s2.844444-19.911111 8.533333-27.022222c8.533333 5.688889 12.8 14.222222 14.222222 24.177778 1.422222 9.955556-1.422222 19.911111-8.533333 27.022222zM328.145455 560.355556c-2.844444 0-9.955556-14.222222-9.955556-27.022223 0-9.955556 4.266667-19.911111 12.8-25.6 7.111111 7.111111 11.377778 17.066667 9.955556 27.022223-1.422222 11.377778-9.955556 25.6-12.8 25.6zM301.123232 506.311111c-2.844444-1.422222-5.688889-18.488889-1.422222-28.444444 2.844444-9.955556 9.955556-17.066667 19.911111-19.911111 5.688889 8.533333 5.688889 19.911111 2.844445 29.866666-5.688889 9.955556-18.488889 19.911111-21.333334 18.488889zM288.323232 453.688889c-2.844444-1.422222-2.844444-18.488889 1.422223-29.866667 4.266667-8.533333 12.8-15.644444 21.333333-17.066666 4.266667 9.955556 2.844444 19.911111-1.422222 29.866666-4.266667 9.955556-19.911111 18.488889-21.333334 17.066667zM285.478788 396.8c-1.422222-1.422222 0-14.222222 5.688889-21.333333 4.266667-5.688889 11.377778-8.533333 18.488889-8.533334 1.422222 7.111111-1.422222 15.644444-5.688889 21.333334-4.266667 7.111111-11.377778 9.955556-18.488889 8.533333zM362.278788 607.288889c2.844444 8.533333-17.066667 19.911111-31.288889 22.755555-12.8 2.844444-27.022222-2.844444-35.555556-11.377777 7.111111-12.8 18.488889-21.333333 31.288889-22.755556 14.222222-2.844444 34.133333 1.422222 35.555556 11.377778z" fill="#FFFFFF" p-id="27028"></path><path d="M328.145455 564.622222c1.422222 9.955556-19.911111 15.644444-35.555556 14.222222-12.8 0-25.6-8.533333-32.711111-19.911111 8.533333-11.377778 21.333333-15.644444 35.555555-14.222222 14.222222 1.422222 32.711111 9.955556 32.711112 19.911111zM298.278788 513.422222c-1.422222 9.955556-24.177778 8.533333-36.977778 1.422222-12.8-5.688889-21.333333-15.644444-25.6-29.866666 11.377778-7.111111 25.6-8.533333 38.4-1.422222 11.377778 5.688889 27.022222 19.911111 24.177778 29.866666zM284.056566 459.377778c-2.844444 7.111111-19.911111 0-29.866667-7.111111-8.533333-7.111111-14.222222-18.488889-14.222222-29.866667 9.955556-2.844444 21.333333 0 29.866666 7.111111 9.955556 8.533333 18.488889 24.177778 14.222223 29.866667zM276.945455 406.755556c-4.266667 4.266667-15.644444-5.688889-19.911112-14.222223-4.266667-7.111111-5.688889-17.066667-2.844444-25.6 8.533333 1.422222 15.644444 7.111111 19.911111 14.222223 5.688889 8.533333 8.533333 22.755556 2.844445 25.6zM588.412121 661.333333l-5.688889-14.222222c184.888889-78.222222 155.022222-285.866667 155.022223-287.288889l14.222222-2.844444c0 2.844444 31.288889 221.866667-163.555556 304.355555z" fill="#FFFFFF" p-id="27029"></path><path d="M729.212121 342.755556c4.266667 12.8 14.222222 21.333333 17.066667 19.911111s7.111111-14.222222 2.844444-27.022223c-2.844444-8.533333-9.955556-15.644444-18.488889-19.911111-4.266667 8.533333-4.266667 18.488889-1.422222 27.022223zM622.545455 640c-2.844444 8.533333 15.644444 21.333333 29.866666 24.177778 12.8 2.844444 27.022222-1.422222 36.977778-9.955556-5.688889-12.8-17.066667-21.333333-29.866667-24.177778-14.222222-2.844444-34.133333-1.422222-36.977777 9.955556zM623.967677 631.466667c2.844444 0 14.222222-12.8 14.222222-24.177778 1.422222-9.955556-1.422222-19.911111-7.111111-27.022222-8.533333 4.266667-14.222222 14.222222-15.644445 24.177777 0 9.955556 2.844444 19.911111 8.533334 27.022223zM666.634343 601.6c2.844444 0 12.8-14.222222 14.222223-24.177778s-2.844444-19.911111-8.533334-27.022222c-8.533333 5.688889-12.8 14.222222-14.222222 24.177778 0 9.955556 2.844444 19.911111 8.533333 27.022222zM702.189899 560.355556c2.844444 0 9.955556-14.222222 9.955556-27.022223 0-9.955556-4.266667-19.911111-12.8-25.6-7.111111 7.111111-11.377778 17.066667-9.955556 27.022223 0 11.377778 9.955556 25.6 12.8 25.6zM729.212121 506.311111c2.844444-1.422222 5.688889-18.488889 1.422222-28.444444-2.844444-9.955556-9.955556-17.066667-18.488888-19.911111-5.688889 8.533333-5.688889 19.911111-1.422223 29.866666 2.844444 9.955556 15.644444 19.911111 18.488889 18.488889zM742.012121 453.688889c2.844444-1.422222 2.844444-18.488889-1.422222-29.866667-4.266667-8.533333-12.8-15.644444-21.333333-17.066666-4.266667 9.955556-2.844444 19.911111 1.422222 29.866666s18.488889 18.488889 21.333333 17.066667zM744.856566 396.8c1.422222-1.422222 0-14.222222-5.688889-21.333333-4.266667-5.688889-11.377778-8.533333-18.488889-8.533334-1.422222 7.111111 1.422222 15.644444 5.688889 21.333334 4.266667 7.111111 11.377778 9.955556 18.488889 8.533333zM668.056566 607.288889c-2.844444 8.533333 17.066667 19.911111 31.288889 22.755555 12.8 2.844444 27.022222-2.844444 35.555555-11.377777-7.111111-12.8-18.488889-21.333333-31.288889-22.755556-14.222222-2.844444-34.133333 1.422222-35.555555 11.377778z" fill="#FFFFFF" p-id="27030"></path><path d="M702.189899 564.622222c-1.422222 9.955556 19.911111 15.644444 35.555556 14.222222 12.8 0 25.6-8.533333 32.711111-19.911111-8.533333-11.377778-21.333333-15.644444-35.555556-14.222222-15.644444 1.422222-34.133333 9.955556-32.711111 19.911111zM732.056566 513.422222c1.422222 9.955556 24.177778 8.533333 36.977777 1.422222 12.8-4.266667 21.333333-15.644444 25.6-29.866666-11.377778-7.111111-25.6-8.533333-38.4-1.422222-12.8 5.688889-28.444444 19.911111-24.177777 29.866666zM746.278788 459.377778c2.844444 7.111111 19.911111 0 29.866667-7.111111 8.533333-7.111111 14.222222-18.488889 14.222222-29.866667-9.955556-2.844444-21.333333 0-29.866667 7.111111-9.955556 8.533333-18.488889 24.177778-14.222222 29.866667zM753.389899 406.755556c4.266667 4.266667 15.644444-5.688889 19.911111-14.222223 4.266667-7.111111 5.688889-17.066667 2.844445-25.6-8.533333 1.422222-15.644444 7.111111-19.911112 14.222223-5.688889 8.533333-8.533333 22.755556-2.844444 25.6z" fill="#FFFFFF" p-id="27031"></path><path d="M544.323232 874.666667h-55.466666l-24.177778-214.755556h119.466667z" fill="#7E7C82" p-id="27032"></path><path d="M584.145455 659.911111h-136.533334c-7.111111 0-14.222222-4.266667-17.066666-9.955555l-29.866667-64H629.656566l-28.444445 64c-4.266667 7.111111-9.955556 11.377778-17.066666 9.955555z" fill="#CBCBCB" p-id="27033"></path><path d="M544.323232 874.666667h-75.377777L444.767677 659.911111h119.466666z" fill="#BCBCBC" p-id="27034"></path><path d="M787.523232 873.244444s5.688889 7.111111-100.977777-35.555555c-17.066667-7.111111-35.555556 55.466667 31.288888 78.222222h95.288889s44.088889-8.533333 81.066667 46.933333c14.222222-34.133333 15.644444-73.955556 2.844444-109.511111 0 0-8.533333-14.222222 68.266667-17.066666 0 0-29.866667-64-116.622222-73.955556-34.133333 58.311111-61.155556 110.933333-61.155556 110.933333z" fill="#98929D" p-id="27035"></path><path d="M895.612121 975.644444l-7.111111-8.533333c-34.133333-51.2-73.955556-44.088889-75.377778-44.088889H714.989899c-38.4-12.8-48.355556-36.977778-51.2-49.777778-4.266667-12.8 0-28.444444 8.533333-38.4 4.266667-4.266667 9.955556-5.688889 15.644445-4.266666 65.422222 25.6 88.177778 32.711111 95.288889 34.133333 7.111111-12.8 31.288889-58.311111 59.733333-106.666667l2.844444-4.266666h4.266667c89.6 9.955556 120.888889 73.955556 122.311111 76.8l4.266667 9.955555h-9.955556c-44.088889 1.422222-56.888889 7.111111-61.155555 9.955556 12.8 36.977778 11.377778 78.222222-4.266667 113.777778l-5.688889 11.377777z m-75.377778-68.266666c28.444444 1.422222 55.466667 15.644444 72.533334 39.822222 8.533333-29.866667 8.533333-62.577778-1.422222-92.444444-1.422222-2.844444-1.422222-5.688889 0-8.533334 2.844444-7.111111 14.222222-14.222222 61.155555-17.066666-24.177778-34.133333-61.155556-55.466667-100.977778-58.311112-27.022222 45.511111-48.355556 86.755556-56.888889 100.977778l-2.844444 5.688889c-2.844444 5.688889-4.266667 8.533333-109.511111-32.711111 0 0-1.422222 0-1.422222 1.422222-5.688889 7.111111-7.111111 15.644444-4.266667 24.177778 1.422222 9.955556 9.955556 28.444444 41.244444 38.4h93.866667c2.844444-1.422222 5.688889-1.422222 8.533333-1.422222z" fill="#808080" p-id="27036"></path><path d="M242.812121 873.244444s-5.688889 7.111111 100.977778-35.555555c17.066667-7.111111 35.555556 55.466667-31.288889 78.222222H217.212121s-44.088889-8.533333-81.066666 46.933333c-14.222222-34.133333-15.644444-73.955556-2.844445-109.511111 0 0 8.533333-14.222222-68.266667-17.066666 0 0 29.866667-64 116.622223-73.955556 34.133333 58.311111 61.155556 110.933333 61.155555 110.933333z" fill="#98929D" p-id="27037"></path><path d="M136.145455 975.644444l-5.688889-8.533333c-15.644444-35.555556-17.066667-76.8-4.266667-113.777778-2.844444-2.844444-17.066667-7.111111-61.155556-9.955555H55.078788l4.266667-9.955556c1.422222-2.844444 32.711111-66.844444 122.311111-76.8h4.266666l2.844445 4.266667c28.444444 48.355556 52.622222 92.444444 59.733333 106.666667 7.111111-1.422222 29.866667-8.533333 95.288889-34.133334 5.688889-1.422222 11.377778 0 15.644444 4.266667 8.533333 9.955556 12.8 24.177778 8.533334 38.4-2.844444 12.8-14.222222 36.977778-51.2 49.777778h-96.711111c-2.844444 0-41.244444-7.111111-76.8 44.088889l-7.111111 5.688888z m4.266666-119.466666c-9.955556 29.866667-9.955556 62.577778-1.422222 92.444444 38.4-48.355556 79.644444-39.822222 81.066667-39.822222h92.444444c31.288889-9.955556 38.4-29.866667 41.244445-38.4 2.844444-8.533333 0-17.066667-4.266667-24.177778l-1.422222-1.422222c-105.244444 39.822222-106.666667 38.4-109.511111 32.711111l-2.844445-5.688889c-7.111111-14.222222-29.866667-55.466667-56.888889-100.977778-39.822222 4.266667-76.8 24.177778-100.977778 58.311112 48.355556 2.844444 58.311111 11.377778 61.155556 17.066666 1.422222 4.266667 1.422222 7.111111 1.422222 9.955556z" fill="#808080" p-id="27038"></path><path d="M241.389899 878.933333L157.478788 768c116.622222-49.777778 240.355556-73.955556 365.511111-75.377778 106.666667 0 241.777778 24.177778 335.644444 85.333334-42.666667 81.066667-69.688889 100.977778-69.688888 100.977777s-285.866667-56.888889-547.555556 0z" fill="#98929D" p-id="27039"></path><path d="M238.545455 886.044444L146.10101 763.733333l8.533333-4.266666c116.622222-48.355556 240.355556-73.955556 364.088889-75.377778h2.844445c130.844444 0 257.422222 32.711111 338.488889 86.755555l5.688889 4.266667-2.844445 5.688889c-44.088889 81.066667-71.111111 102.4-72.533333 102.4l-2.844445 1.422222h-2.844444c-2.844444 0-285.866667-55.466667-544.711111 0l-1.422222 1.422222z m260.266666-39.822222c96.711111 0 192 8.533333 287.288889 24.177778 7.111111-5.688889 29.866667-29.866667 62.577778-91.022222-79.644444-49.777778-200.533333-81.066667-327.111111-81.066667-120.888889 1.422222-240.355556 24.177778-352.711111 71.111111l75.377777 100.977778c83.911111-17.066667 169.244444-25.6 254.577778-24.177778z" fill="#808080" p-id="27040"></path><path d="M423.434343 523.377778h184.888889c12.8 0 22.755556 11.377778 22.755556 24.177778v38.4H400.678788v-38.4c0-7.111111 2.844444-12.8 7.111111-17.066667 2.844444-4.266667 9.955556-7.111111 15.644444-7.111111zM382.189899 760.888889c-14.222222 2.844444-27.022222 7.111111-39.822222 11.377778l-4.266667-12.8c18.488889-7.111111 38.4-12.8 56.888889-17.066667 1.422222 5.688889 2.844444 11.377778 2.844444 15.644444-5.688889 22.755556-9.955556 46.933333-14.222222 69.688889l-17.066666 5.688889c7.111111-24.177778 9.955556-48.355556 15.644444-72.533333zM476.056566 722.488889c2.844444 29.866667 5.688889 58.311111 7.111111 88.177778l-15.644445 1.422222c-1.422222-2.844444-1.422222-5.688889-2.844444-8.533333-1.422222 5.688889-5.688889 11.377778-17.066667 12.8-19.911111 2.844444-25.6-7.111111-29.866666-27.022223s-1.422222-32.711111 19.911111-36.977777c12.8-1.422222 18.488889 1.422222 21.333333 5.688888-1.422222-11.377778-2.844444-22.755556-4.266667-32.711111l21.333334-2.844444z m-11.377778 58.311111c-1.422222-11.377778-5.688889-19.911111-17.066667-17.066667-12.8 1.422222-12.8 11.377778-9.955555 21.333334 1.422222 9.955556 4.266667 18.488889 15.644444 17.066666s12.8-8.533333 11.377778-21.333333zM554.278788 765.155556c0 14.222222 0 29.866667-1.422222 44.088888h-14.222223c0-2.844444-1.422222-5.688889-1.422222-7.111111-4.266667 5.688889-11.377778 9.955556-19.911111 8.533334-14.222222 0-21.333333-5.688889-21.333333-18.488889-1.422222-12.8 8.533333-19.911111 25.6-21.333334h15.644444v-1.422222c0-7.111111-2.844444-9.955556-14.222222-9.955555-4.266667 0-8.533333 0-14.222222 1.422222v-14.222222c5.688889-1.422222 11.377778-1.422222 15.644444-1.422223 22.755556-1.422222 29.866667 7.111111 29.866667 19.911112z m-18.488889 24.177777V782.222222h-14.222222c-8.533333 0-11.377778 1.422222-11.377778 8.533334s2.844444 7.111111 9.955556 7.111111c7.111111-1.422222 12.8-4.266667 15.644444-8.533334zM567.078788 817.777778c9.955556 1.422222 14.222222-1.422222 15.644444-8.533334-5.688889-21.333333-14.222222-42.666667-21.333333-64l19.911111 1.422223c4.266667 14.222222 8.533333 31.288889 11.377778 45.511111 5.688889-14.222222 12.8-28.444444 18.488889-42.666667 5.688889 1.422222 14.222222 1.422222 19.911111 2.844445-9.955556 17.066667-18.488889 35.555556-28.444445 52.622222-11.377778 21.333333-17.066667 27.022222-38.4 25.6l2.844445-12.8zM631.078788 816.355556c1.422222-4.266667 1.422222-8.533333 2.844444-14.222223 5.688889 2.844444 11.377778 5.688889 18.488889 7.111111s9.955556 1.422222 11.377778-4.266666 0-7.111111-9.955556-11.377778c-14.222222-5.688889-15.644444-9.955556-14.222222-21.333333s9.955556-17.066667 29.866667-12.8c5.688889 1.422222 12.8 2.844444 18.488889 7.111111-1.422222 4.266667-2.844444 8.533333-2.844445 12.8-5.688889-2.844444-9.955556-5.688889-15.644444-7.111111-8.533333-1.422222-9.955556-1.422222-11.377778 2.844444s1.422222 4.266667 9.955556 9.955556c14.222222 7.111111 15.644444 12.8 14.222222 22.755555-2.844444 14.222222-14.222222 17.066667-28.444445 12.8-9.955556 0-15.644444-1.422222-22.755555-4.266666z" fill="#FFFFFF" p-id="27041"></path><path d="M387.878788 376.888889a137.955556 128 90 1 0 256 0 137.955556 128 90 1 0-256 0Z" fill="#959399" p-id="27042"></path><path d="M403.523232 453.688889c-2.844444-4.266667-5.688889-9.955556-7.111111-14.222222-25.6-61.155556-9.955556-133.688889 38.4-174.933334 4.266667-2.844444 8.533333-7.111111 14.222222-9.955555 18.488889-11.377778 38.4-19.911111 58.311112-21.333334h2.844444l1.422222 1.422223c7.111111 8.533333 14.222222 18.488889 19.911111 28.444444 24.177778 41.244444 29.866667 92.444444 15.644445 139.377778s-45.511111 83.911111-86.755556 103.822222l-2.844444 1.422222-2.844445-1.422222c-21.333333-12.8-39.822222-31.288889-51.2-52.622222z m100.977778-209.066667c-18.488889 1.422222-36.977778 8.533333-52.622222 18.488889-4.266667 2.844444-8.533333 5.688889-11.377778 8.533333-45.511111 38.4-59.733333 103.822222-35.555555 160.711112 11.377778 25.6 28.444444 46.933333 52.622222 59.733333 5.688889-2.844444 11.377778-5.688889 17.066666-9.955556 24.177778-15.644444 44.088889-39.822222 55.466667-68.266666 19.911111-46.933333 17.066667-102.4-8.533333-146.488889-4.266667-5.688889-9.955556-14.222222-17.066667-22.755556z" fill="#FFFFFF" p-id="27043"></path><path d="M440.50101 285.866667c-2.844444-4.266667-5.688889-9.955556-7.111111-14.222223l9.955556-4.266666c1.422222 4.266667 4.266667 9.955556 7.111111 14.222222 35.555556 62.577778 112.355556 82.488889 169.244444 44.088889 4.266667-2.844444 8.533333-5.688889 11.377778-8.533333l7.111111 8.533333c-4.266667 4.266667-8.533333 7.111111-12.8 9.955555-64 41.244444-146.488889 19.911111-184.888889-49.777777z m-36.977778 167.822222c-2.844444-4.266667-5.688889-9.955556-7.111111-14.222222l-1.422222-4.266667 2.844444-2.844444c4.266667-4.266667 8.533333-7.111111 14.222223-9.955556 62.577778-41.244444 145.066667-19.911111 183.466666 46.933333 2.844444 4.266667 5.688889 9.955556 7.111111 14.222223l1.422223 4.266666-2.844445 2.844445c-4.266667 2.844444-8.533333 7.111111-14.222222 9.955555-39.822222 27.022222-91.022222 28.444444-133.688889 4.266667-19.911111-11.377778-38.4-29.866667-49.777778-51.2z m4.266667-15.644445c1.422222 2.844444 2.844444 7.111111 5.688889 9.955556 11.377778 19.911111 28.444444 36.977778 46.933333 48.355556 38.4 22.755556 85.333333 19.911111 122.311111-4.266667l8.533334-5.688889c-1.422222-2.844444-2.844444-7.111111-5.688889-9.955556-12.8-22.755556-31.288889-39.822222-52.622222-51.2-36.977778-18.488889-81.066667-17.066667-116.622223 7.111112l-8.533333 5.688888z" fill="#FFFFFF" p-id="27044"></path><path d="M386.456566 344.177778l4.266666-17.066667c21.333333-62.577778 79.644444-102.4 142.222223-93.866667 5.688889 1.422222 9.955556 1.422222 15.644444 2.844445 21.333333 5.688889 39.822222 15.644444 55.466667 29.866667 38.4 35.555556 55.466667 91.022222 44.088889 143.644444L643.878788 426.666667c-21.333333 62.577778-79.644444 100.977778-142.222222 93.866666-5.688889 0-9.955556-1.422222-15.644445-2.844444-72.533333-17.066667-116.622222-95.288889-99.555555-173.511111z m251.733333 65.422222c7.111111-34.133333 2.844444-71.111111-14.222222-100.977778s-44.088889-52.622222-76.8-59.733333c-4.266667-1.422222-9.955556-1.422222-14.222222-2.844445-41.244444-5.688889-82.488889 12.8-109.511112 46.933334-27.022222 34.133333-35.555556 81.066667-22.755555 123.733333 12.8 45.511111 46.933333 79.644444 89.6 91.022222 4.266667 1.422222 8.533333 1.422222 14.222222 2.844445 56.888889 8.533333 110.933333-27.022222 130.844445-85.333334 0-5.688889 1.422222-11.377778 2.844444-15.644444z" fill="#FFFFFF" p-id="27045"></path><path d="M3.878788 0h1024v1024H3.878788z" fill="#D8D8D8" fill-opacity="0" p-id="27046"></path></svg>