<?xml version="1.0" standalone="no"?><!DOCTYPE svg PUBLIC "-//W3C//DTD SVG 1.1//EN" "http://www.w3.org/Graphics/SVG/1.1/DTD/svg11.dtd"><svg t="1649921947862" class="icon" viewBox="0 0 1117 1024" version="1.1" xmlns="http://www.w3.org/2000/svg" p-id="26851" xmlns:xlink="http://www.w3.org/1999/xlink" width="52.359375" height="48"><defs><style type="text/css">@font-face { font-family: feedback-iconfont; src: url("//at.alicdn.com/t/font_1031158_u69w8yhxdu.woff2?t=1630033759944") format("woff2"), url("//at.alicdn.com/t/font_1031158_u69w8yhxdu.woff?t=1630033759944") format("woff"), url("//at.alicdn.com/t/font_1031158_u69w8yhxdu.ttf?t=1630033759944") format("truetype"); }
</style></defs><path d="M703.612121 942.762667l-379.733333-2.844445L89.212121 619.918222l86.755556-398.222222L518.723232 45.340444l339.911111 179.2 82.488889 399.644445z" fill="#9B969F" p-id="26852"></path><path d="M687.967677 902.940444l-347.022222-1.422222L126.189899 608.540444l78.222222-364.088888L518.723232 83.740444l311.466667 163.555556L905.567677 611.384889z" fill="#FFFFFF" p-id="26853"></path><path d="M676.589899 875.918222l-324.266667-1.422222L151.789899 601.429333l73.955556-339.911111L518.723232 110.762667l290.133334 153.6 71.111111 339.911111z" fill="#ACA8B1" p-id="26854"></path><path d="M441.923232 664.007111c-194.844444-82.488889-163.555556-301.511111-163.555555-304.355555l14.222222 2.844444c-1.422222 8.533333-29.866667 209.066667 155.022222 287.288889l-5.688889 14.222222z" fill="#FFFFFF" p-id="26855"></path><path d="M299.70101 345.429333c-4.266667 12.8-14.222222 21.333333-17.066667 19.911111s-7.111111-14.222222-1.422222-27.022222c2.844444-8.533333 9.955556-15.644444 18.488889-19.911111 2.844444 8.533333 4.266667 18.488889 0 27.022222zM406.367677 642.673778c2.844444 8.533333-15.644444 21.333333-29.866667 24.177778-12.8 2.844444-27.022222 0-36.977778-9.955556 5.688889-12.8 17.066667-21.333333 29.866667-24.177778 15.644444-4.266667 35.555556-1.422222 36.977778 9.955556zM404.945455 632.718222c-2.844444 1.422222-14.222222-12.8-14.222223-24.177778-1.422222-9.955556 1.422222-19.911111 7.111111-27.022222 8.533333 4.266667 14.222222 14.222222 15.644445 24.177778 1.422222 9.955556-1.422222 19.911111-8.533333 27.022222zM362.278788 602.851556c-2.844444 0-12.8-12.8-14.222222-24.177778-1.422222-9.955556 2.844444-19.911111 8.533333-27.022222 8.533333 5.688889 12.8 14.222222 14.222222 24.177777 1.422222 9.955556-1.422222 19.911111-8.533333 27.022223zM328.145455 561.607111c-2.844444 0-9.955556-15.644444-9.955556-27.022222 0-9.955556 4.266667-19.911111 12.8-25.6 7.111111 7.111111 11.377778 17.066667 9.955556 27.022222-1.422222 11.377778-9.955556 25.6-12.8 25.6zM301.123232 508.984889c-2.844444-1.422222-5.688889-18.488889-2.844444-28.444445s9.955556-17.066667 19.911111-19.911111c5.688889 8.533333 5.688889 19.911111 2.844444 29.866667-4.266667 8.533333-17.066667 19.911111-19.911111 18.488889zM288.323232 454.940444c-2.844444-1.422222-2.844444-18.488889 1.422223-29.866666 4.266667-8.533333 12.8-15.644444 21.333333-17.066667 4.266667 9.955556 2.844444 19.911111-1.422222 29.866667-4.266667 11.377778-18.488889 18.488889-21.333334 17.066666zM285.478788 399.473778c-1.422222-1.422222 1.422222-14.222222 5.688889-21.333334 4.266667-5.688889 11.377778-8.533333 18.488889-8.533333 1.422222 7.111111-1.422222 15.644444-5.688889 21.333333s-11.377778 8.533333-18.488889 8.533334zM362.278788 608.540444c2.844444 8.533333-17.066667 19.911111-31.288889 22.755556-12.8 2.844444-27.022222-2.844444-35.555556-11.377778 7.111111-12.8 18.488889-21.333333 31.288889-22.755555 14.222222-2.844444 34.133333 1.422222 35.555556 11.377777z" fill="#FFFFFF" p-id="26856"></path><path d="M328.145455 565.873778c1.422222 9.955556-19.911111 15.644444-35.555556 14.222222-12.8 0-25.6-8.533333-32.711111-19.911111 8.533333-9.955556 21.333333-15.644444 35.555555-14.222222s32.711111 9.955556 32.711112 19.911111zM298.278788 516.096c-2.844444 8.533333-24.177778 7.111111-38.4 1.422222-12.8-5.688889-21.333333-15.644444-25.6-29.866666 11.377778-7.111111 25.6-8.533333 38.4-1.422223 14.222222 5.688889 28.444444 19.911111 25.6 29.866667zM284.056566 462.051556c-2.844444 7.111111-19.911111 0-29.866667-7.111112-8.533333-7.111111-14.222222-18.488889-14.222222-29.866666 9.955556-2.844444 21.333333 0 29.866666 7.111111 9.955556 7.111111 18.488889 22.755556 14.222223 29.866667zM276.945455 409.429333c-4.266667 4.266667-15.644444-5.688889-19.911112-14.222222-4.266667-7.111111-5.688889-17.066667-2.844444-25.6 8.533333 1.422222 15.644444 7.111111 19.911111 14.222222 5.688889 7.111111 8.533333 21.333333 2.844445 25.6zM588.412121 664.007111l-5.688889-14.222222c184.888889-78.222222 155.022222-285.866667 155.022223-287.288889l14.222222-2.844444c0 2.844444 31.288889 221.866667-163.555556 304.355555z" fill="#FFFFFF" p-id="26857"></path><path d="M729.212121 345.429333c4.266667 12.8 14.222222 21.333333 17.066667 19.911111s7.111111-14.222222 2.844444-27.022222c-2.844444-8.533333-9.955556-15.644444-18.488889-19.911111-4.266667 8.533333-4.266667 18.488889-1.422222 27.022222zM622.545455 642.673778c-2.844444 8.533333 15.644444 21.333333 29.866666 24.177778 12.8 2.844444 27.022222 0 36.977778-9.955556-5.688889-12.8-17.066667-21.333333-29.866667-24.177778-14.222222-4.266667-34.133333-1.422222-36.977777 9.955556zM623.967677 632.718222c2.844444 1.422222 14.222222-12.8 14.222222-24.177778 1.422222-9.955556-1.422222-19.911111-7.111111-27.022222-8.533333 4.266667-14.222222 14.222222-15.644445 24.177778 0 9.955556 2.844444 19.911111 8.533334 27.022222zM666.634343 602.851556c2.844444 0 12.8-12.8 14.222223-24.177778 1.422222-9.955556-2.844444-19.911111-8.533334-27.022222-8.533333 5.688889-12.8 14.222222-14.222222 24.177777 0 9.955556 2.844444 19.911111 8.533333 27.022223zM702.189899 561.607111c2.844444 0 9.955556-15.644444 9.955556-27.022222 0-9.955556-5.688889-19.911111-12.8-25.6-7.111111 7.111111-11.377778 17.066667-9.955556 27.022222 0 11.377778 9.955556 25.6 12.8 25.6zM729.212121 508.984889c2.844444-1.422222 5.688889-18.488889 1.422222-28.444445-2.844444-9.955556-9.955556-17.066667-18.488888-19.911111-5.688889 8.533333-5.688889 19.911111-1.422223 29.866667 2.844444 8.533333 15.644444 19.911111 18.488889 18.488889zM742.012121 454.940444c2.844444-1.422222 2.844444-18.488889-1.422222-29.866666-4.266667-8.533333-12.8-15.644444-21.333333-17.066667-4.266667 11.377778-4.266667 22.755556 1.422222 31.288889 4.266667 9.955556 18.488889 17.066667 21.333333 15.644444zM744.856566 399.473778c1.422222-1.422222 0-14.222222-5.688889-21.333334-4.266667-5.688889-11.377778-8.533333-18.488889-8.533333-1.422222 7.111111 1.422222 15.644444 5.688889 21.333333 4.266667 5.688889 11.377778 8.533333 18.488889 8.533334zM668.056566 608.540444c-2.844444 8.533333 17.066667 19.911111 31.288889 22.755556 12.8 2.844444 27.022222-2.844444 35.555555-11.377778-7.111111-12.8-18.488889-21.333333-31.288889-22.755555-14.222222-2.844444-34.133333 1.422222-35.555555 11.377777z" fill="#FFFFFF" p-id="26858"></path><path d="M702.189899 565.873778c-1.422222 9.955556 19.911111 15.644444 35.555556 14.222222 12.8 0 25.6-7.111111 32.711111-19.911111-8.533333-9.955556-21.333333-15.644444-35.555556-14.222222-15.644444 1.422222-34.133333 9.955556-32.711111 19.911111zM732.056566 516.096c1.422222 9.955556 24.177778 8.533333 36.977777 1.422222 12.8-4.266667 21.333333-15.644444 25.6-29.866666-11.377778-7.111111-25.6-8.533333-36.977777-1.422223-14.222222 5.688889-29.866667 19.911111-25.6 29.866667zM746.278788 462.051556c2.844444 7.111111 19.911111 0 29.866667-7.111112 8.533333-7.111111 14.222222-18.488889 14.222222-29.866666-9.955556-2.844444-21.333333 0-29.866667 7.111111-9.955556 7.111111-18.488889 22.755556-14.222222 29.866667zM753.389899 409.429333c4.266667 4.266667 15.644444-5.688889 19.911111-14.222222 4.266667-7.111111 5.688889-17.066667 2.844445-25.6-8.533333 1.422222-15.644444 7.111111-19.911112 14.222222-5.688889 7.111111-8.533333 21.333333-2.844444 25.6z" fill="#FFFFFF" p-id="26859"></path><path d="M547.167677 875.918222h-58.311111l-24.177778-213.333333h119.466667z" fill="#909091" p-id="26860"></path><path d="M584.145455 662.584889h-136.533334c-7.111111 0-14.222222-4.266667-17.066666-9.955556l-29.866667-64H629.656566l-28.444445 64c-4.266667 5.688889-9.955556 9.955556-17.066666 9.955556z" fill="#CBCBCB" p-id="26861"></path><path d="M544.323232 875.918222h-75.377777l-24.177778-213.333333h119.466666z" fill="#BCBCBC" p-id="26862"></path><path d="M787.523232 874.496s5.688889 7.111111-100.977777-35.555556c-17.066667-7.111111-35.555556 55.466667 31.288888 78.222223h95.288889s44.088889-8.533333 81.066667 46.933333c14.222222-34.133333 15.644444-73.955556 2.844444-109.511111 0 0-8.533333-14.222222 68.266667-17.066667 0 0-29.866667-64-116.622222-73.955555-34.133333 58.311111-61.155556 110.933333-61.155556 110.933333z" fill="#98929D" p-id="26863"></path><path d="M895.612121 978.318222l-5.688889-8.533333c-34.133333-51.2-73.955556-44.088889-75.377777-44.088889h-99.555556c-38.4-12.8-48.355556-36.977778-51.2-49.777778-2.844444-12.8 0-28.444444 8.533333-38.4 4.266667-4.266667 9.955556-5.688889 15.644445-4.266666 65.422222 25.6 88.177778 32.711111 95.288889 34.133333 7.111111-12.8 31.288889-58.311111 59.733333-106.666667l2.844444-4.266666h4.266667c89.6 9.955556 120.888889 73.955556 122.311111 76.8l4.266667 9.955555h-9.955556c-44.088889 1.422222-56.888889 7.111111-61.155555 9.955556 12.8 36.977778 11.377778 78.222222-4.266667 113.777777l-5.688889 11.377778zM820.234343 910.051556c28.444444 1.422222 55.466667 15.644444 72.533334 41.244444 8.533333-29.866667 8.533333-62.577778-1.422222-92.444444-1.422222-2.844444-1.422222-5.688889 0-8.533334 2.844444-7.111111 14.222222-14.222222 61.155555-17.066666-24.177778-34.133333-61.155556-55.466667-100.977778-58.311112-27.022222 45.511111-48.355556 86.755556-56.888889 100.977778l-2.844444 5.688889c-2.844444 5.688889-4.266667 8.533333-109.511111-32.711111 0 0-1.422222 0-1.422222 1.422222-5.688889 7.111111-7.111111 15.644444-4.266667 24.177778 1.422222 9.955556 9.955556 28.444444 41.244444 38.4h93.866667c2.844444-2.844444 5.688889-2.844444 8.533333-2.844444z" fill="#808080" p-id="26864"></path><path d="M242.812121 874.496s-5.688889 7.111111 100.977778-35.555556c17.066667-7.111111 35.555556 55.466667-31.288889 78.222223H217.212121s-44.088889-8.533333-81.066666 46.933333c-14.222222-34.133333-15.644444-73.955556-2.844445-109.511111 0 0 8.533333-14.222222-68.266667-17.066667 0 0 29.866667-64 116.622223-73.955555 34.133333 58.311111 61.155556 110.933333 61.155555 110.933333z" fill="#98929D" p-id="26865"></path><path d="M136.145455 978.318222l-5.688889-9.955555c-15.644444-35.555556-17.066667-76.8-4.266667-113.777778-2.844444-2.844444-17.066667-7.111111-61.155556-9.955556H55.078788l4.266667-9.955555c1.422222-2.844444 32.711111-68.266667 122.311111-76.8h4.266666l2.844445 4.266666c28.444444 48.355556 52.622222 92.444444 59.733333 106.666667 7.111111-1.422222 29.866667-8.533333 95.288889-34.133333 5.688889-1.422222 11.377778 0 15.644444 4.266666 8.533333 9.955556 12.8 24.177778 8.533334 38.4-2.844444 12.8-14.222222 36.977778-51.2 49.777778h-96.711111c-2.844444 0-41.244444-7.111111-76.8 44.088889l-7.111111 7.111111z m4.266666-120.888889c-9.955556 29.866667-9.955556 62.577778-1.422222 92.444445 38.4-48.355556 79.644444-39.822222 81.066667-39.822222h92.444444c31.288889-9.955556 38.4-29.866667 41.244445-38.4 2.844444-8.533333 0-17.066667-4.266667-24.177778l-1.422222-1.422222c-105.244444 39.822222-106.666667 38.4-109.511111 32.711111l-2.844445-5.688889c-7.111111-14.222222-29.866667-55.466667-56.888889-100.977778-39.822222 2.844444-76.8 24.177778-100.977778 58.311111 48.355556 2.844444 58.311111 11.377778 61.155556 17.066667 1.422222 4.266667 1.422222 7.111111 1.422222 9.955555z" fill="#808080" p-id="26866"></path><path d="M241.389899 880.184889l-83.911111-110.933333c116.622222-49.777778 240.355556-73.955556 365.511111-75.377778 106.666667 0 241.777778 24.177778 335.644444 85.333333-42.666667 81.066667-69.688889 100.977778-69.688888 100.977778s-285.866667-56.888889-547.555556 0z" fill="#98929D" p-id="26867"></path><path d="M238.545455 888.718222L146.10101 766.407111l8.533333-4.266667c116.622222-49.777778 240.355556-75.377778 364.088889-75.377777h2.844445c130.844444 0 257.422222 32.711111 338.488889 86.755555l5.688889 4.266667-2.844445 5.688889c-44.088889 81.066667-71.111111 102.4-72.533333 102.4l-2.844445 1.422222h-2.844444c-2.844444 0-285.866667-55.466667-544.711111 0l-1.422222 1.422222z m260.266666-41.244444c96.711111 0 192 8.533333 287.288889 24.177778 7.111111-5.688889 29.866667-29.866667 62.577778-91.022223-79.644444-49.777778-200.533333-79.644444-325.688889-81.066666-120.888889 1.422222-240.355556 24.177778-354.133333 71.111111l75.377777 100.977778c83.911111-15.644444 169.244444-24.177778 254.577778-24.177778z" fill="#808080" p-id="26868"></path><path d="M363.70101 831.829333c-1.422222-4.266667-2.844444-8.533333-4.266667-14.222222 5.688889-1.422222 11.377778-1.422222 17.066667-4.266667 8.533333-2.844444 15.644444-7.111111 14.222222-15.644444-2.844444-8.533333-9.955556-8.533333-22.755555-4.266667l-5.688889 1.422223-4.266667-12.8 5.688889-1.422223c11.377778-4.266667 18.488889-8.533333 15.644445-15.644444-1.422222-8.533333-8.533333-7.111111-17.066667-4.266667-5.688889 1.422222-11.377778 4.266667-15.644445 7.111111l-4.266666-12.8c5.688889-4.266667 11.377778-7.111111 18.488889-8.533333 18.488889-5.688889 32.711111-4.266667 36.977777 12.8 2.844444 8.533333-1.422222 17.066667-8.533333 19.911111 8.533333-1.422222 17.066667 4.266667 18.488889 14.222222 2.844444 15.644444-5.688889 25.6-27.022222 32.711111-5.688889 2.844444-11.377778 4.266667-17.066667 5.688889zM474.634343 716.629333c2.844444 29.866667 5.688889 58.311111 9.955556 88.177778l-14.222222 1.422222c-1.422222-2.844444-1.422222-5.688889-2.844445-8.533333-1.422222 5.688889-5.688889 11.377778-17.066666 12.8-19.911111 4.266667-25.6-7.111111-29.866667-27.022222-4.266667-19.911111-1.422222-32.711111 19.911111-36.977778 12.8-2.844444 18.488889 0 21.333333 5.688889-1.422222-11.377778-2.844444-22.755556-4.266666-32.711111l17.066666-2.844445z m-9.955555 58.311111c-1.422222-11.377778-5.688889-19.911111-17.066667-17.066666s-11.377778 11.377778-9.955555 21.333333c1.422222 9.955556 4.266667 18.488889 15.644444 17.066667s12.8-8.533333 11.377778-21.333334zM554.278788 757.873778v44.088889h-15.644445c0-2.844444-1.422222-4.266667-1.422222-7.111111-4.266667 5.688889-11.377778 9.955556-18.488889 8.533333-14.222222 0-21.333333-4.266667-22.755555-17.066667s7.111111-21.333333 25.6-21.333333h15.644444v-1.422222c0-7.111111-2.844444-9.955556-14.222222-9.955556-4.266667 0-8.533333 1.422222-14.222222 1.422222 0-4.266667 0-9.955556-1.422222-14.222222 5.688889-1.422222 11.377778-1.422222 17.066666-1.422222 21.333333-2.844444 29.866667 5.688889 29.866667 18.488889zM535.789899 782.051556v-7.111112h-14.222222c-8.533333 0-11.377778 1.422222-11.377778 8.533334 0 5.688889 2.844444 7.111111 9.955556 7.111111 7.111111 0 12.8-2.844444 15.644444-8.533333zM568.50101 810.496c9.955556 0 14.222222-1.422222 15.644445-8.533333-7.111111-21.333333-14.222222-42.666667-22.755556-64l19.911111 1.422222c4.266667 14.222222 8.533333 31.288889 12.8 45.511111 5.688889-14.222222 11.377778-29.866667 18.488889-42.666667 7.111111 1.422222 14.222222 1.422222 19.911111 2.844445-9.955556 17.066667-18.488889 35.555556-27.022222 54.044444-9.955556 21.333333-17.066667 27.022222-36.977778 25.6-1.422222-4.266667 0-9.955556 0-14.222222zM631.078788 807.651556c0-4.266667 1.422222-8.533333 1.422222-14.222223 5.688889 2.844444 11.377778 5.688889 18.488889 7.111111s9.955556 1.422222 11.377778-4.266666c1.422222-5.688889-1.422222-7.111111-9.955556-11.377778-14.222222-5.688889-15.644444-9.955556-14.222222-21.333333 1.422222-9.955556 9.955556-17.066667 29.866667-12.8 5.688889 1.422222 12.8 2.844444 18.488889 7.111111-1.422222 4.266667-2.844444 8.533333-2.844445 12.8-5.688889-2.844444-9.955556-4.266667-15.644444-5.688889-8.533333-1.422222-9.955556 0-11.377778 2.844444 0 2.844444 1.422222 4.266667 11.377778 9.955556 14.222222 7.111111 15.644444 11.377778 14.222222 22.755555-2.844444 14.222222-14.222222 17.066667-28.444445 12.8-9.955556-1.422222-15.644444-4.266667-22.755555-5.688888zM481.745455 489.073778l-44.088889-42.666667-34.133334-1.422222c17.066667 35.555556 46.933333 62.577778 82.488889 73.955555l-4.266666-29.866666zM621.123232 463.473778c-18.488889 28.444444-46.933333 48.355556-78.222222 54.044444l8.533333-25.6 51.2-32.711111 18.488889 4.266667zM625.389899 389.518222l-11.377778-62.577778 5.688889-12.8c17.066667 24.177778 24.177778 55.466667 19.911111 86.755556l-14.222222-11.377778zM559.967677 282.851556l-58.311111-7.111112-19.911111-17.066666c31.288889-9.955556 65.422222-7.111111 95.288888 8.533333l-17.066666 15.644445zM419.167677 375.296l24.177778-59.733333-8.533334-29.866667s-49.777778 44.088889-42.666666 109.511111l27.022222-19.911111z" fill="#FFFFFF" p-id="26869"></path><path d="M481.745455 489.073778l-44.088889-42.666667 15.644444-42.666667 31.288889-4.266666 35.555556 24.177778-2.844445 39.822222zM605.478788 457.784889l-54.044445 35.555555-34.133333-29.866666 2.844445-39.822222 34.133333-28.444445 36.977778 21.333333z" fill="#FFFFFF" p-id="26870"></path><path d="M614.012121 326.940444l11.377778 62.577778-34.133333 27.022222-36.977778-21.333333-15.644445-42.666667 35.555556-29.866666zM443.345455 315.562667l42.666666 2.844444 9.955556 35.555556-11.377778 45.511111-31.288889 4.266666-34.133333-28.444444z" fill="#FFFFFF" p-id="26871"></path><path d="M558.545455 284.273778l11.377777 44.088889-28.444444 21.333333-44.088889 2.844444-12.8-31.288888 14.222222-44.088889z" fill="#FFFFFF" p-id="26872"></path><path d="M487.434343 398.051556c0 1.422222-1.422222 2.844444-2.844444 2.844444l-31.288889 4.266667c-1.422222 0-1.422222 0-2.844444-1.422223 0-1.422222-1.422222-1.422222 0-2.844444 0-1.422222 1.422222-1.422222 2.844444-1.422222l31.288889-5.688889c1.422222 1.422222 2.844444 2.844444 2.844444 4.266667zM446.189899 316.984889l-24.177778 58.311111c0 1.422222-1.422222 1.422222-1.422222 1.422222h-1.422222l-1.422222-1.422222v-2.844444l24.177777-58.311112c0-1.422222 2.844444-2.844444 4.266667-1.422222v4.266667zM498.812121 353.962667v2.844444c0 1.422222-1.422222 1.422222-1.422222 1.422222h-2.844444l-1.422223-1.422222-9.955555-36.977778v-2.844444c0-1.422222 1.422222-1.422222 1.422222-1.422222h2.844444c1.422222 0 1.422222 1.422222 1.422223 1.422222l9.955555 36.977778z" fill="#959399" p-id="26873"></path><path d="M538.634343 352.540444l14.222223 42.666667-32.711111 28.444445-35.555556-24.177778 11.377778-44.088889zM419.167677 375.296l34.133333 28.444444-14.222222 44.088889-34.133333-1.422222c-4.266667-8.533333-7.111111-17.066667-8.533334-25.6l-4.266666-25.6 27.022222-19.911111z m81.066666-100.977778l-14.222222 42.666667-42.666666-1.422222v-1.422223l-8.533334-29.866666c12.8-12.8 28.444444-21.333333 45.511111-27.022222l19.911111 17.066666z m119.466667 36.977778l-5.688889 17.066667-42.666666-1.422223-12.8-44.088888 18.488888-12.8c17.066667 8.533333 31.288889 22.755556 42.666667 41.244444z m-28.444444 105.244444l35.555555-25.6 14.222222 12.8c-2.844444 21.333333-8.533333 41.244444-19.911111 58.311112h-18.488889l-11.377777-45.511112z m-73.955556 46.933334l34.133333 28.444444v1.422222l-8.533333 25.6c-17.066667 4.266667-35.555556 4.266667-52.622222 0l-8.533333-29.866666 35.555555-25.6z" fill="#ACA8B1" p-id="26874"></path><path d="M439.078788 449.251556l-35.555556-1.422223c-1.422222 0-1.422222 0-2.844444-1.422222-4.266667-8.533333-7.111111-17.066667-8.533333-25.6l-4.266667-25.6c0-1.422222 0-2.844444 1.422222-2.844444l27.022222-19.911111h2.844445l34.133333 28.444444c1.422222 1.422222 1.422222 2.844444 1.422222 2.844444l-14.222222 44.088889c1.422222 1.422222 0 1.422222-1.422222 1.422223z m-32.711111-7.111112l29.866666 1.422223 12.8-39.822223-29.866666-25.6-24.177778 18.488889c0 7.111111 1.422222 15.644444 2.844444 22.755556 2.844444 8.533333 5.688889 15.644444 8.533334 22.755555z m81.066666-120.888888l-44.088888-1.422223c-1.422222 0-2.844444-1.422222-2.844445-2.844444l-8.533333-31.288889c0-1.422222 0-2.844444 1.422222-2.844444 14.222222-12.8 29.866667-22.755556 46.933333-27.022223h2.844445l19.911111 17.066667c1.422222 1.422222 1.422222 2.844444 1.422222 2.844444l-14.222222 44.088889c-1.422222 0-1.422222 1.422222-2.844445 1.422223z m-41.244444-7.111112l38.4 1.422223 12.8-39.822223-17.066667-14.222222c-15.644444 5.688889-28.444444 14.222222-41.244444 24.177778l7.111111 28.444444zM615.434343 331.207111l-44.088888-1.422222c-1.422222 0-2.844444-1.422222-2.844445-2.844445l-11.377778-44.088888c0-1.422222 0-2.844444 1.422223-2.844445l18.488888-12.8h2.844445c17.066667 9.955556 32.711111 25.6 44.088889 42.666667v2.844444l-5.688889 17.066667c-1.422222 0-2.844444 0-2.844445 1.422222z m-41.244444-8.533333l38.4 1.422222 4.266667-12.8c-9.955556-15.644444-24.177778-28.444444-39.822223-38.4l-14.222222 11.377778 11.377778 38.4z m48.355556 140.8h-18.488889c-1.422222 0-2.844444-1.422222-2.844445-2.844445l-12.8-44.088889c0-1.422222 0-2.844444 1.422222-2.844444l35.555556-25.6c1.422222-1.422222 2.844444-1.422222 2.844444 0l14.222223 12.8c1.422222 0 1.422222 1.422222 1.422222 2.844444-2.844444 21.333333-9.955556 41.244444-21.333333 59.733334 1.422222 0 0 1.422222 0 0z m-17.066667-5.688889h14.222222c9.955556-15.644444 15.644444-34.133333 18.488889-54.044445l-11.377778-9.955555-31.288889 24.177778 9.955556 39.822222zM544.323232 521.784889c-18.488889 4.266667-36.977778 4.266667-54.044444 0-1.422222 0-1.422222-1.422222-2.844445-2.844445l-8.533333-28.444444c0-1.422222 0-2.844444 1.422222-2.844444l35.555556-25.6c1.422222-1.422222 2.844444-1.422222 2.844444 0l34.133334 28.444444c1.422222 1.422222 1.422222 2.844444 1.422222 4.266667v1.422222l-8.533333 25.6c0-1.422222-1.422222 0-1.422223 0z m-51.2-5.688889c15.644444 2.844444 32.711111 2.844444 48.355556 0l7.111111-22.755556-31.288889-25.6-31.288889 24.177778 7.111111 24.177778z" fill="#959399" p-id="26875"></path><path d="M548.589899 520.362667l-5.688889 1.422222c-18.488889 4.266667-36.977778 4.266667-54.044444 0-38.4-8.533333-71.111111-36.977778-88.177778-73.955556-7.111111-15.644444-11.377778-34.133333-12.8-51.2-1.422222-21.333333 2.844444-42.666667 9.955555-62.577777s19.911111-36.977778 34.133334-49.777778 29.866667-22.755556 46.933333-27.022222l5.688889-1.422223c31.288889-8.533333 65.422222-4.266667 93.866667 12.8 17.066667 9.955556 32.711111 25.6 44.088889 42.666667 17.066667 27.022222 25.6 61.155556 21.333333 93.866667-7.111111 54.044444-45.511111 100.977778-95.288889 115.2z m-62.577778-260.266667l-5.688889 1.422222c-17.066667 5.688889-31.288889 14.222222-44.088889 27.022222-28.444444 27.022222-44.088889 66.844444-41.244444 106.666667 0 8.533333 1.422222 17.066667 4.266667 25.6 1.422222 8.533333 4.266667 17.066667 8.533333 24.177778 15.644444 36.977778 46.933333 62.577778 83.911111 71.111111 17.066667 4.266667 34.133333 4.266667 51.2 0l5.688889-1.422222c28.444444-8.533333 54.044444-27.022222 71.111111-54.044445 18.488889-31.288889 24.177778-69.688889 15.644445-105.244444-18.488889-71.111111-83.911111-113.777778-149.333334-95.288889z" fill="#808080" p-id="26876"></path><path d="M521.567677 427.918222h-2.844445l-35.555555-25.6c-1.422222 0-1.422222-1.422222-1.422222-2.844444l11.377777-44.088889c0-1.422222 1.422222-2.844444 2.844445-2.844445l42.666666-2.844444c1.422222 0 2.844444 1.422222 2.844445 1.422222l15.644444 42.666667v2.844444L522.989899 426.496c0 1.422222-1.422222 1.422222-1.422222 1.422222zM487.434343 398.051556l32.711112 22.755555 29.866666-27.022222-14.222222-38.4-38.4 1.422222L487.434343 398.051556z" fill="#959399" p-id="26877"></path><path d="M574.189899 324.096c-1.422222-1.422222-2.844444-1.422222-4.266667 0l-32.711111 24.177778-1.422222 1.422222v2.844444c0 1.422222 1.422222 1.422222 2.844444 1.422223h1.422223l32.711111-25.6c1.422222 0 1.422222-1.422222 1.422222-1.422223v-2.844444z m39.822222 0c-1.422222 0-2.844444 1.422222-2.844444 4.266667l11.377778 62.577777c0 1.422222 1.422222 2.844444 2.844444 2.844445s2.844444-1.422222 2.844444-4.266667l-11.377777-62.577778c0-1.422222 0-1.422222-1.422223-2.844444h-1.422222z m-8.533333 135.111111c-1.422222-1.422222-2.844444-1.422222-4.266667-1.422222l-52.622222 32.711111-1.422222 1.422222v2.844445c0 1.422222 1.422222 1.422222 2.844444 1.422222h1.422222l51.2-32.711111c1.422222 0 1.422222-1.422222 1.422223-1.422222 2.844444-1.422222 2.844444-2.844444 1.422222-2.844445z m-12.8-45.511111l-36.977778-21.333333c-1.422222-1.422222-2.844444 0-4.266667 1.422222v2.844444c0 1.422222 1.422222 1.422222 1.422223 1.422223l36.977777 21.333333h2.844445c1.422222 0 1.422222-1.422222 1.422222-1.422222v-2.844445l-1.422222-1.422222z m-72.533333 7.111111c-1.422222 0-1.422222 0-2.844445 1.422222 0 0-1.422222 1.422222-1.422222 2.844445l-2.844445 38.4v2.844444l1.422223 1.422222h1.422222c1.422222 0 1.422222-1.422222 2.844444-2.844444l2.844445-39.822222c1.422222-2.844444 0-4.266667-1.422222-4.266667z m38.4-142.222222l-58.311112-7.111111c-1.422222 0-2.844444 1.422222-2.844444 2.844444s1.422222 2.844444 2.844444 2.844445l58.311112 7.111111h1.422222c1.422222 0 2.844444-1.422222 2.844444-2.844445s-1.422222-1.422222-4.266666-2.844444z m-73.955556 209.066667l-44.088889-42.666667c-1.422222-1.422222-1.422222-1.422222-2.844444-1.422222s-1.422222 1.422222-2.844445 2.844444c0 1.422222 0 2.844444 1.422222 2.844445l44.088889 42.666666h2.844445s1.422222 0 1.422222-1.422222v-2.844444z" fill="#959399" p-id="26878"></path><path d="M423.434343 524.629333h184.888889c12.8 0 22.755556 11.377778 22.755556 24.177778v38.4H400.678788v-38.4c0-7.111111 2.844444-12.8 7.111111-17.066667 2.844444-4.266667 8.533333-7.111111 15.644444-7.111111z" fill="#FFFFFF" p-id="26879"></path><path d="M3.878788 0h1024v1024H3.878788z" fill="#D8D8D8" fill-opacity="0" p-id="26880"></path></svg>