<?xml version="1.0" standalone="no"?><!DOCTYPE svg PUBLIC "-//W3C//DTD SVG 1.1//EN" "http://www.w3.org/Graphics/SVG/1.1/DTD/svg11.dtd"><svg t="1649921819505" class="icon" viewBox="0 0 1117 1024" version="1.1" xmlns="http://www.w3.org/2000/svg" p-id="25697" xmlns:xlink="http://www.w3.org/1999/xlink" width="52.359375" height="48"><defs><style type="text/css">@font-face { font-family: feedback-iconfont; src: url("//at.alicdn.com/t/font_1031158_u69w8yhxdu.woff2?t=1630033759944") format("woff2"), url("//at.alicdn.com/t/font_1031158_u69w8yhxdu.woff?t=1630033759944") format("woff"), url("//at.alicdn.com/t/font_1031158_u69w8yhxdu.ttf?t=1630033759944") format("truetype"); }
</style></defs><path d="M709.30101 955.733333l-389.688889-1.422222L76.412121 628.622222 166.012121 223.288889 518.723232 45.511111 870.012121 227.555556l85.333334 405.333333z" fill="#22C8F4" p-id="25698"></path><path d="M692.234343 915.911111l-356.977777-1.422222L114.812121 617.244444l81.066667-369.777777L518.723232 83.911111 840.145455 250.311111l76.8 369.777778z" fill="#FFFFFF" p-id="25699"></path><path d="M680.856566 888.888889l-332.8-1.422222L140.412121 610.133333 217.212121 264.533333 518.723232 112.355556l300.088889 155.022222 72.533334 345.6z" fill="#4FBCFF" p-id="25700"></path><path d="M440.50101 672.711111c-200.533333-83.911111-167.822222-305.777778-167.822222-308.622222l14.222222 2.844444c-1.422222 8.533333-29.866667 213.333333 159.288889 292.977778l-5.688889 12.8z" fill="#FFCB39" p-id="25701"></path><path d="M294.012121 349.866667c-4.266667 12.8-14.222222 21.333333-17.066666 19.911111-2.844444-1.422222-7.111111-14.222222-1.422223-27.022222 2.844444-8.533333 9.955556-17.066667 18.488889-19.911112 2.844444 8.533333 2.844444 18.488889 0 27.022223zM403.523232 651.377778c2.844444 8.533333-17.066667 21.333333-31.288889 24.177778-12.8 2.844444-27.022222-1.422222-36.977777-9.955556 5.688889-12.8 17.066667-22.755556 31.288889-24.177778 14.222222-4.266667 35.555556-1.422222 36.977777 9.955556zM402.10101 642.844444c-2.844444 0-14.222222-12.8-15.644444-24.177777-1.422222-9.955556 1.422222-19.911111 8.533333-28.444445 8.533333 4.266667 14.222222 14.222222 15.644444 24.177778 1.422222 9.955556-1.422222 19.911111-8.533333 28.444444zM358.012121 611.555556c-2.844444 0-12.8-14.222222-14.222222-25.6-1.422222-9.955556 2.844444-19.911111 9.955556-27.022223 8.533333 5.688889 12.8 14.222222 14.222222 25.6 0 9.955556-2.844444 19.911111-9.955556 27.022223zM322.456566 570.311111c-2.844444 0-11.377778-14.222222-9.955556-27.022222 0-9.955556 5.688889-19.911111 12.8-25.6 7.111111 7.111111 11.377778 17.066667 9.955556 27.022222 0 11.377778-9.955556 25.6-12.8 25.6zM295.434343 516.266667c-2.844444-1.422222-5.688889-18.488889-1.422222-28.444445 2.844444-9.955556 11.377778-17.066667 19.911111-19.911111 5.688889 8.533333 5.688889 19.911111 2.844445 29.866667-5.688889 8.533333-19.911111 18.488889-21.333334 18.488889zM281.212121 460.8c-2.844444-1.422222-2.844444-19.911111 1.422222-29.866667 4.266667-8.533333 12.8-15.644444 22.755556-17.066666 4.266667 9.955556 2.844444 21.333333-1.422222 29.866666-4.266667 11.377778-19.911111 19.911111-22.755556 17.066667zM278.367677 405.333333c-1.422222-1.422222 0-14.222222 5.688889-21.333333 4.266667-5.688889 12.8-8.533333 19.911111-8.533333 1.422222 7.111111-1.422222 15.644444-5.688889 21.333333-4.266667 5.688889-11.377778 8.533333-19.911111 8.533333zM358.012121 617.244444c2.844444 8.533333-17.066667 19.911111-32.711111 22.755556-12.8 2.844444-27.022222-2.844444-36.977778-12.8 7.111111-12.8 18.488889-21.333333 32.711111-22.755556 15.644444-1.422222 35.555556 2.844444 36.977778 12.8z" fill="#FFDE39" p-id="25702"></path><path d="M322.456566 574.577778c1.422222 9.955556-21.333333 15.644444-35.555556 14.222222-14.222222 0-25.6-8.533333-34.133333-19.911111 8.533333-11.377778 22.755556-17.066667 36.977778-14.222222 14.222222 0 34.133333 8.533333 32.711111 19.911111zM291.167677 521.955556c-1.422222 9.955556-24.177778 8.533333-38.4 1.422222-12.8-5.688889-22.755556-15.644444-25.6-29.866667 11.377778-7.111111 27.022222-8.533333 38.4-1.422222 14.222222 5.688889 29.866667 21.333333 25.6 29.866667zM276.945455 467.911111c-4.266667 7.111111-21.333333 0-29.866667-8.533333-8.533333-7.111111-14.222222-18.488889-14.222222-29.866667 11.377778-2.844444 22.755556 0 31.288889 8.533333 8.533333 8.533333 18.488889 22.755556 12.8 29.866667zM269.834343 413.866667c-4.266667 4.266667-15.644444-5.688889-19.911111-14.222223-4.266667-8.533333-5.688889-17.066667-2.844444-27.022222 8.533333 1.422222 17.066667 7.111111 21.333333 14.222222 4.266667 9.955556 7.111111 24.177778 1.422222 27.022223z" fill="#FFDE39" p-id="25703"></path><path d="M589.834343 672.711111l-5.688888-14.222222C774.723232 578.844444 744.856566 375.466667 743.434343 365.511111l14.222223-2.844444c1.422222 4.266667 34.133333 226.133333-167.822223 310.044444z" fill="#FFCB39" p-id="25704"></path><path d="M736.323232 349.866667c4.266667 12.8 14.222222 21.333333 17.066667 19.911111 2.844444-1.422222 7.111111-14.222222 2.844444-27.022222-2.844444-8.533333-9.955556-17.066667-18.488888-19.911112-4.266667 8.533333-4.266667 18.488889-1.422223 27.022223zM626.812121 651.377778c-2.844444 8.533333 17.066667 21.333333 31.288889 24.177778 12.8 2.844444 27.022222-1.422222 36.977778-9.955556-5.688889-12.8-17.066667-22.755556-31.288889-24.177778-14.222222-4.266667-35.555556-1.422222-36.977778 9.955556zM628.234343 642.844444c2.844444 0 14.222222-12.8 15.644445-24.177777 1.422222-9.955556-1.422222-19.911111-8.533333-28.444445-8.533333 5.688889-14.222222 14.222222-15.644445 24.177778-1.422222 9.955556 1.422222 19.911111 8.533333 28.444444zM672.323232 611.555556c2.844444 0 12.8-14.222222 14.222223-25.6 1.422222-9.955556-2.844444-19.911111-9.955556-27.022223-8.533333 5.688889-12.8 14.222222-14.222222 25.6 0 9.955556 2.844444 19.911111 9.955555 27.022223zM707.878788 570.311111c2.844444 0 11.377778-14.222222 9.955555-27.022222 0-9.955556-5.688889-19.911111-12.8-25.6-7.111111 7.111111-11.377778 17.066667-9.955555 27.022222 0 11.377778 9.955556 25.6 12.8 25.6zM736.323232 516.266667c2.844444-1.422222 5.688889-18.488889 1.422223-28.444445-2.844444-9.955556-9.955556-17.066667-19.911112-19.911111-5.688889 8.533333-5.688889 19.911111-1.422222 29.866667 2.844444 8.533333 17.066667 18.488889 19.911111 18.488889zM749.123232 460.8c2.844444-1.422222 2.844444-19.911111-1.422222-29.866667-4.266667-8.533333-12.8-15.644444-22.755555-17.066666-4.266667 9.955556-2.844444 21.333333 1.422222 29.866666 5.688889 11.377778 19.911111 19.911111 22.755555 17.066667zM751.967677 405.333333c1.422222-1.422222 0-14.222222-5.688889-21.333333-4.266667-5.688889-11.377778-8.533333-19.911111-8.533333-1.422222 7.111111 1.422222 15.644444 5.688889 21.333333 5.688889 5.688889 12.8 8.533333 19.911111 8.533333zM672.323232 617.244444c-2.844444 8.533333 17.066667 19.911111 32.711111 22.755556 12.8 2.844444 27.022222-2.844444 36.977778-12.8-7.111111-12.8-18.488889-21.333333-32.711111-22.755556-14.222222-1.422222-35.555556 2.844444-36.977778 12.8z" fill="#FFDE39" p-id="25705"></path><path d="M707.878788 574.577778c-1.422222 9.955556 21.333333 15.644444 35.555555 14.222222 14.222222 0 25.6-8.533333 34.133334-19.911111-8.533333-11.377778-22.755556-17.066667-36.977778-14.222222-14.222222 0-34.133333 8.533333-32.711111 19.911111zM739.167677 521.955556c1.422222 9.955556 24.177778 8.533333 38.4 1.422222 12.8-5.688889 22.755556-15.644444 25.6-29.866667-11.377778-7.111111-27.022222-8.533333-38.4-1.422222-14.222222 5.688889-29.866667 21.333333-25.6 29.866667zM753.389899 467.911111c4.266667 7.111111 21.333333 0 29.866667-8.533333 8.533333-7.111111 14.222222-18.488889 14.222222-29.866667-11.377778-2.844444-22.755556 0-31.288889 8.533333-8.533333 8.533333-17.066667 22.755556-12.8 29.866667zM760.50101 413.866667c4.266667 4.266667 15.644444-5.688889 19.911111-14.222223 4.266667-8.533333 5.688889-17.066667 2.844445-27.022222-8.533333 1.422222-17.066667 7.111111-21.333334 14.222222-4.266667 9.955556-7.111111 24.177778-1.422222 27.022223z" fill="#FFDE39" p-id="25706"></path><path d="M548.120566 888.888889h-59.733334l-25.6-217.6h123.733334z" fill="#FF7439" opacity=".8" p-id="25707"></path><path d="M585.567677 671.288889H444.767677c-7.111111 0-14.222222-4.266667-17.066667-11.377778l-29.866667-65.422222h237.511112l-29.866667 65.422222c-5.688889 8.533333-12.8 12.8-19.911111 11.377778z" fill="#FFE339" p-id="25708"></path><path d="M545.745455 888.888889h-78.222223l-24.177777-217.6h122.311111z" fill="#FFC139" p-id="25709"></path><path d="M796.056566 887.466667s7.111111 7.111111-105.244445-35.555556c-17.066667-7.111111-36.977778 56.888889 32.711111 79.644445h98.133334s45.511111-9.955556 83.911111 46.933333c15.644444-35.555556 15.644444-75.377778 2.844444-110.933333 0 0-8.533333-14.222222 69.688889-17.066667-31.288889-45.511111-79.644444-75.377778-133.688889-81.066667-19.911111 36.977778-36.977778 76.8-48.355555 118.044445zM235.70101 887.466667s-7.111111 7.111111 105.244445-35.555556c17.066667-7.111111 36.977778 56.888889-32.711112 79.644445H210.10101s-45.511111-9.955556-83.911111 46.933333c-15.644444-35.555556-15.644444-75.377778-2.844444-110.933333 0 0 8.533333-14.222222-69.688889-17.066667 0 0 31.288889-65.422222 119.466666-73.955556 34.133333 56.888889 62.577778 110.933333 62.577778 110.933334z" fill="#FE8626" p-id="25710"></path><path d="M232.856566 893.155556l-86.755556-113.777778c119.466667-49.777778 247.466667-75.377778 375.466667-76.8 109.511111 0 248.888889 24.177778 345.6 86.755555-44.088889 82.488889-72.533333 102.4-72.533334 102.4s-291.555556-56.888889-561.777777 1.422223z" fill="#FE942D" p-id="25711"></path><path d="M420.589899 533.333333h190.577778c12.8 0 22.755556 11.377778 22.755555 24.177778V597.333333H397.834343v-38.4c0-7.111111 2.844444-12.8 7.111112-17.066666 2.844444-7.111111 9.955556-8.533333 15.644444-8.533334zM379.345455 773.688889c-14.222222 4.266667-28.444444 7.111111-41.244445 12.8l-4.266667-14.222222c19.911111-7.111111 39.822222-12.8 59.733334-17.066667l4.266666 17.066667c-5.688889 24.177778-11.377778 46.933333-14.222222 71.111111l-17.066666 5.688889c1.422222-25.6 7.111111-49.777778 12.8-75.377778zM474.634343 735.288889l8.533334 89.6h-15.644445c-1.422222-2.844444-1.422222-5.688889-2.844444-8.533333-1.422222 5.688889-7.111111 11.377778-18.488889 12.8-19.911111 2.844444-27.022222-8.533333-31.288889-28.444445-4.266667-19.911111-1.422222-34.133333 21.333333-36.977778 12.8-1.422222 18.488889 1.422222 21.333334 5.688889l-4.266667-34.133333h21.333333z m-11.377777 58.311111c-1.422222-11.377778-5.688889-19.911111-18.488889-18.488889-12.8 1.422222-12.8 11.377778-11.377778 22.755556 1.422222 11.377778 4.266667 19.911111 17.066667 17.066666 12.8 0 14.222222-8.533333 12.8-21.333333zM555.70101 777.955556c0 14.222222 0 29.866667-1.422222 44.088888h-15.644445c0-2.844444-1.422222-5.688889-1.422222-7.111111-5.688889 5.688889-12.8 9.955556-19.911111 8.533334-14.222222 0-21.333333-5.688889-22.755555-18.488889s8.533333-21.333333 25.6-21.333334h17.066666V782.222222c0-7.111111-2.844444-9.955556-14.222222-9.955555-4.266667 0-9.955556 0-14.222222 1.422222v-14.222222c5.688889-1.422222 11.377778-1.422222 17.066666-1.422223 22.755556-1.422222 29.866667 7.111111 29.866667 19.911112z m-18.488889 24.177777v-7.111111h-14.222222c-8.533333 0-12.8 1.422222-11.377778 8.533334s2.844444 7.111111 9.955556 7.111111c5.688889 0 11.377778-2.844444 15.644444-8.533334zM569.923232 832c9.955556 1.422222 14.222222-1.422222 17.066667-8.533333-7.111111-21.333333-14.222222-42.666667-21.333333-65.422223l19.911111 1.422223c4.266667 14.222222 8.533333 31.288889 11.377778 46.933333 5.688889-14.222222 12.8-28.444444 19.911111-42.666667 7.111111 1.422222 14.222222 1.422222 19.911111 2.844445-9.955556 18.488889-19.911111 35.555556-29.866667 54.044444-11.377778 21.333333-18.488889 27.022222-38.4 25.6l1.422222-14.222222zM635.345455 829.155556c1.422222-4.266667 1.422222-8.533333 2.844444-14.222223 5.688889 2.844444 12.8 5.688889 18.488889 7.111111 7.111111 1.422222 11.377778 1.422222 11.377778-4.266666 1.422222-4.266667 0-7.111111-9.955556-11.377778-14.222222-5.688889-15.644444-9.955556-14.222222-21.333333 1.422222-11.377778 9.955556-17.066667 29.866667-12.8 7.111111 1.422222 12.8 4.266667 18.488888 7.111111l-4.266666 12.8c-5.688889-2.844444-11.377778-5.688889-17.066667-7.111111-8.533333-1.422222-11.377778-1.422222-11.377778 2.844444-1.422222 4.266667 1.422222 4.266667 11.377778 9.955556 14.222222 7.111111 17.066667 12.8 14.222222 24.177777-2.844444 14.222222-14.222222 17.066667-29.866666 12.8-7.111111 0-12.8-2.844444-19.911111-5.688888z" fill="#FFFFFF" p-id="25712"></path><path d="M383.612121 384a140.8 132.266667 90 1 0 264.533334 0 140.8 132.266667 90 1 0-264.533334 0Z" fill="#FF9501" p-id="25713"></path><path d="M400.678788 460.8c-2.844444-4.266667-5.688889-9.955556-7.111111-14.222222-27.022222-61.155556-9.955556-135.111111 39.822222-177.777778 4.266667-4.266667 8.533333-7.111111 14.222222-9.955556 18.488889-12.8 39.822222-19.911111 61.155556-21.333333h2.844444l1.422222 1.422222c8.533333 8.533333 14.222222 18.488889 21.333334 28.444445 24.177778 42.666667 29.866667 93.866667 15.644444 140.8-14.222222 46.933333-46.933333 85.333333-89.6 105.244444l-2.844444 1.422222-2.844445-1.422222c-22.755556-11.377778-41.244444-29.866667-54.044444-52.622222z m103.822222-210.488889c-18.488889 1.422222-36.977778 8.533333-54.044444 19.911111l-12.8 8.533334C392.145455 317.155556 377.923232 384 402.10101 440.888889c11.377778 25.6 29.866667 46.933333 54.044445 61.155555 5.688889-2.844444 11.377778-5.688889 17.066666-9.955555 25.6-15.644444 45.511111-39.822222 56.888889-68.266667 21.333333-48.355556 17.066667-103.822222-8.533333-149.333333-4.266667-8.533333-9.955556-17.066667-17.066667-24.177778z" fill="#FFFFFF" p-id="25714"></path><path d="M437.656566 291.555556c-2.844444-4.266667-5.688889-9.955556-7.111111-14.222223l9.955555-4.266666c1.422222 4.266667 4.266667 9.955556 7.111111 14.222222 36.977778 64 115.2 83.911111 174.933334 44.088889l12.8-8.533334 7.111111 8.533334c-4.266667 4.266667-8.533333 7.111111-12.8 9.955555-66.844444 41.244444-150.755556 19.911111-192-49.777777z m-36.977778 169.244444c-2.844444-4.266667-5.688889-9.955556-7.111111-14.222222l-1.422222-4.266667 2.844444-2.844444c4.266667-4.266667 8.533333-7.111111 14.222222-9.955556 65.422222-42.666667 149.333333-19.911111 189.155556 48.355556 2.844444 4.266667 5.688889 9.955556 7.111111 14.222222l1.422222 4.266667-2.844444 2.844444c-4.266667 4.266667-8.533333 7.111111-14.222223 9.955556-41.244444 27.022222-93.866667 28.444444-136.533333 4.266666-22.755556-11.377778-39.822222-29.866667-52.622222-52.622222z m4.266667-15.644444c1.422222 2.844444 2.844444 7.111111 5.688888 9.955555 11.377778 21.333333 28.444444 36.977778 48.355556 48.355556 39.822222 22.755556 88.177778 21.333333 126.577778-4.266667l8.533333-5.688889c-1.422222-2.844444-2.844444-7.111111-5.688889-9.955555-12.8-22.755556-31.288889-41.244444-54.044444-52.622223-38.4-19.911111-83.911111-17.066667-120.888889 7.111111l-8.533333 7.111112z" fill="#FFFFFF" p-id="25715"></path><path d="M383.612121 349.866667l4.266667-17.066667c21.333333-64 82.488889-103.822222 146.488889-95.288889 4.266667 1.422222 9.955556 2.844444 15.644444 4.266667 21.333333 5.688889 41.244444 15.644444 56.888889 31.288889 39.822222 35.555556 56.888889 92.444444 45.511111 146.488889l-4.266666 17.066666c-21.333333 64-82.488889 103.822222-146.488889 95.288889-5.688889 0-11.377778-1.422222-15.644445-2.844444-75.377778-19.911111-120.888889-99.555556-102.4-179.2z m257.422222 66.844444c8.533333-35.555556 2.844444-72.533333-15.644444-102.4-17.066667-31.288889-45.511111-52.622222-79.644444-61.155555-4.266667-1.422222-9.955556-1.422222-14.222223-2.844445-42.666667-5.688889-85.333333 12.8-112.355555 48.355556s-36.977778 82.488889-24.177778 126.577777c12.8 45.511111 48.355556 81.066667 92.444444 92.444445 4.266667 1.422222 9.955556 1.422222 14.222223 2.844444 58.311111 8.533333 115.2-28.444444 135.111111-86.755555 2.844444-7.111111 4.266667-12.8 4.266666-17.066667z" fill="#FFFFFF" p-id="25716"></path><path d="M3.878788 0h1024v1024H3.878788z" fill="#D8D8D8" fill-opacity="0" p-id="25717"></path></svg>