<?xml version="1.0" standalone="no"?><!DOCTYPE svg PUBLIC "-//W3C//DTD SVG 1.1//EN" "http://www.w3.org/Graphics/SVG/1.1/DTD/svg11.dtd"><svg t="1649940009024" class="icon" viewBox="0 0 1117 1024" version="1.1" xmlns="http://www.w3.org/2000/svg" p-id="5377" xmlns:xlink="http://www.w3.org/1999/xlink" width="52.359375" height="48"><defs><style type="text/css">@font-face { font-family: feedback-iconfont; src: url("//at.alicdn.com/t/font_1031158_u69w8yhxdu.woff2?t=1630033759944") format("woff2"), url("//at.alicdn.com/t/font_1031158_u69w8yhxdu.woff?t=1630033759944") format("woff"), url("//at.alicdn.com/t/font_1031158_u69w8yhxdu.ttf?t=1630033759944") format("truetype"); }
</style></defs><path d="M709.30101 969.955556l-389.688889-1.422223L76.412121 642.844444l89.6-405.333333L518.723232 59.733333 870.012121 241.777778l85.333334 405.333333z" fill="#17CEAB" p-id="5378"></path><path d="M692.234343 930.133333l-356.977777-1.422222L114.812121 631.466667l81.066667-369.777778L518.723232 98.133333l321.422223 166.4 76.8 369.777778z" fill="#FFFFFF" p-id="5379"></path><path d="M348.198788 901.546667l-207.644445-277.333334 76.8-345.6 301.511112-152.177777 300.088888 155.022222 72.533334 345.6-210.488889 275.911111z" fill="#21BDA0" opacity=".85" p-id="5380"></path><path d="M440.50101 686.933333c-200.533333-83.911111-167.822222-305.777778-167.822222-308.622222l14.222222 2.844445c-1.422222 8.533333-29.866667 213.333333 159.288889 292.977777l-5.688889 12.8z" fill="#FFCB39" p-id="5381"></path><path d="M294.012121 364.088889c-4.266667 12.8-14.222222 21.333333-17.066666 19.911111-2.844444-1.422222-7.111111-14.222222-1.422223-27.022222 2.844444-8.533333 9.955556-17.066667 18.488889-19.911111 2.844444 8.533333 2.844444 18.488889 0 27.022222zM403.523232 665.6c2.844444 8.533333-17.066667 21.333333-31.288889 24.177778-12.8 2.844444-27.022222-1.422222-36.977777-9.955556 5.688889-12.8 17.066667-22.755556 31.288889-24.177778 14.222222-4.266667 35.555556-1.422222 36.977777 9.955556zM402.10101 657.066667c-2.844444 0-14.222222-12.8-15.644444-24.177778-1.422222-9.955556 1.422222-19.911111 8.533333-28.444445 8.533333 4.266667 14.222222 14.222222 15.644444 24.177778 1.422222 9.955556-1.422222 19.911111-8.533333 28.444445zM358.012121 625.777778c-2.844444 0-12.8-14.222222-14.222222-25.6-1.422222-9.955556 2.844444-19.911111 9.955556-27.022222 8.533333 5.688889 12.8 14.222222 14.222222 25.6 0 9.955556-2.844444 19.911111-9.955556 27.022222zM322.456566 584.533333c-2.844444 0-11.377778-14.222222-9.955556-27.022222 0-9.955556 5.688889-19.911111 12.8-25.6 7.111111 7.111111 11.377778 17.066667 9.955556 27.022222 0 11.377778-9.955556 25.6-12.8 25.6zM295.434343 530.488889c-2.844444-1.422222-5.688889-18.488889-1.422222-28.444445 2.844444-9.955556 11.377778-17.066667 19.911111-19.911111 5.688889 8.533333 5.688889 19.911111 2.844445 29.866667-5.688889 8.533333-19.911111 18.488889-21.333334 18.488889zM281.212121 475.022222c-2.844444-1.422222-2.844444-19.911111 1.422222-29.866666 4.266667-8.533333 12.8-15.644444 22.755556-17.066667 4.266667 9.955556 2.844444 21.333333-1.422222 29.866667-4.266667 11.377778-19.911111 19.911111-22.755556 17.066666zM278.367677 419.555556c-1.422222-1.422222 0-14.222222 5.688889-21.333334 4.266667-5.688889 12.8-8.533333 19.911111-8.533333 1.422222 7.111111-1.422222 15.644444-5.688889 21.333333-4.266667 5.688889-11.377778 8.533333-19.911111 8.533334zM358.012121 631.466667c2.844444 8.533333-17.066667 19.911111-32.711111 22.755555-12.8 2.844444-27.022222-2.844444-36.977778-12.8 7.111111-12.8 18.488889-21.333333 32.711111-22.755555 15.644444-1.422222 35.555556 2.844444 36.977778 12.8z" fill="#FFDE39" p-id="5382"></path><path d="M322.456566 588.8c1.422222 9.955556-21.333333 15.644444-35.555556 14.222222-14.222222 0-25.6-8.533333-34.133333-19.911111 8.533333-11.377778 22.755556-17.066667 36.977778-14.222222 14.222222 0 34.133333 8.533333 32.711111 19.911111zM291.167677 536.177778c-1.422222 9.955556-24.177778 8.533333-38.4 1.422222-12.8-5.688889-22.755556-15.644444-25.6-29.866667 11.377778-7.111111 27.022222-8.533333 38.4-1.422222 14.222222 5.688889 29.866667 21.333333 25.6 29.866667zM276.945455 482.133333c-4.266667 7.111111-21.333333 0-29.866667-8.533333-8.533333-7.111111-14.222222-18.488889-14.222222-29.866667 11.377778-2.844444 22.755556 0 31.288889 8.533334 8.533333 8.533333 18.488889 22.755556 12.8 29.866666zM269.834343 428.088889c-4.266667 4.266667-15.644444-5.688889-19.911111-14.222222-4.266667-8.533333-5.688889-17.066667-2.844444-27.022223 8.533333 1.422222 17.066667 7.111111 21.333333 14.222223 4.266667 9.955556 7.111111 24.177778 1.422222 27.022222z" fill="#FFDE39" p-id="5383"></path><path d="M589.834343 686.933333l-5.688888-14.222222C774.723232 593.066667 744.856566 389.688889 743.434343 379.733333l14.222223-2.844444c1.422222 4.266667 34.133333 226.133333-167.822223 310.044444z" fill="#FFCB39" p-id="5384"></path><path d="M736.323232 364.088889c4.266667 12.8 14.222222 21.333333 17.066667 19.911111 2.844444-1.422222 7.111111-14.222222 2.844444-27.022222-2.844444-8.533333-9.955556-17.066667-18.488888-19.911111-4.266667 8.533333-4.266667 18.488889-1.422223 27.022222zM626.812121 665.6c-2.844444 8.533333 17.066667 21.333333 31.288889 24.177778 12.8 2.844444 27.022222-1.422222 36.977778-9.955556-5.688889-12.8-17.066667-22.755556-31.288889-24.177778-14.222222-4.266667-35.555556-1.422222-36.977778 9.955556zM628.234343 657.066667c2.844444 0 14.222222-12.8 15.644445-24.177778 1.422222-9.955556-1.422222-19.911111-8.533333-28.444445-8.533333 5.688889-14.222222 14.222222-15.644445 24.177778-1.422222 9.955556 1.422222 19.911111 8.533333 28.444445zM672.323232 625.777778c2.844444 0 12.8-14.222222 14.222223-25.6 1.422222-9.955556-2.844444-19.911111-9.955556-27.022222-8.533333 5.688889-12.8 14.222222-14.222222 25.6 0 9.955556 2.844444 19.911111 9.955555 27.022222zM707.878788 584.533333c2.844444 0 11.377778-14.222222 9.955555-27.022222 0-9.955556-5.688889-19.911111-12.8-25.6-7.111111 7.111111-11.377778 17.066667-9.955555 27.022222 0 11.377778 9.955556 25.6 12.8 25.6zM736.323232 530.488889c2.844444-1.422222 5.688889-18.488889 1.422223-28.444445-2.844444-9.955556-9.955556-17.066667-19.911112-19.911111-5.688889 8.533333-5.688889 19.911111-1.422222 29.866667 2.844444 8.533333 17.066667 18.488889 19.911111 18.488889zM749.123232 475.022222c2.844444-1.422222 2.844444-19.911111-1.422222-29.866666-4.266667-8.533333-12.8-15.644444-22.755555-17.066667-4.266667 9.955556-2.844444 21.333333 1.422222 29.866667 5.688889 11.377778 19.911111 19.911111 22.755555 17.066666zM751.967677 419.555556c1.422222-1.422222 0-14.222222-5.688889-21.333334-4.266667-5.688889-11.377778-8.533333-19.911111-8.533333-1.422222 7.111111 1.422222 15.644444 5.688889 21.333333 5.688889 5.688889 12.8 8.533333 19.911111 8.533334zM672.323232 631.466667c-2.844444 8.533333 17.066667 19.911111 32.711111 22.755555 12.8 2.844444 27.022222-2.844444 36.977778-12.8-7.111111-12.8-18.488889-21.333333-32.711111-22.755555-14.222222-1.422222-35.555556 2.844444-36.977778 12.8z" fill="#FFDE39" p-id="5385"></path><path d="M707.878788 588.8c-1.422222 9.955556 21.333333 15.644444 35.555555 14.222222 14.222222 0 25.6-8.533333 34.133334-19.911111-8.533333-11.377778-22.755556-17.066667-36.977778-14.222222-14.222222 0-34.133333 8.533333-32.711111 19.911111zM739.167677 536.177778c1.422222 9.955556 24.177778 8.533333 38.4 1.422222 12.8-5.688889 22.755556-15.644444 25.6-29.866667-11.377778-7.111111-27.022222-8.533333-38.4-1.422222-14.222222 5.688889-29.866667 21.333333-25.6 29.866667zM753.389899 482.133333c4.266667 7.111111 21.333333 0 29.866667-8.533333 8.533333-7.111111 14.222222-18.488889 14.222222-29.866667-11.377778-2.844444-22.755556 0-31.288889 8.533334-8.533333 8.533333-17.066667 22.755556-12.8 29.866666zM760.50101 428.088889c4.266667 4.266667 15.644444-5.688889 19.911111-14.222222 4.266667-8.533333 5.688889-17.066667 2.844445-27.022223-8.533333 1.422222-17.066667 7.111111-21.333334 14.222223-4.266667 9.955556-7.111111 24.177778-1.422222 27.022222z" fill="#FFDE39" p-id="5386"></path><path d="M548.120566 903.111111h-59.733334l-25.6-217.6h123.733334z" fill="#FF7439" opacity=".8" p-id="5387"></path><path d="M585.567677 685.511111H444.767677c-7.111111 0-14.222222-4.266667-17.066667-11.377778l-29.866667-65.422222h237.511112l-29.866667 65.422222c-5.688889 8.533333-12.8 12.8-19.911111 11.377778z" fill="#FFE339" p-id="5388"></path><path d="M545.745455 903.111111h-78.222223l-24.177777-217.6h122.311111z" fill="#FFC139" p-id="5389"></path><path d="M796.056566 901.688889s7.111111 7.111111-105.244445-35.555556c-17.066667-7.111111-36.977778 56.888889 32.711111 79.644445h98.133334s45.511111-9.955556 83.911111 46.933333c15.644444-35.555556 15.644444-75.377778 2.844444-110.933333 0 0-8.533333-14.222222 69.688889-17.066667-32.711111-45.511111-81.066667-73.955556-133.688889-79.644444-19.911111 35.555556-36.977778 75.377778-48.355555 116.622222zM235.70101 901.688889s-7.111111 7.111111 105.244445-35.555556c17.066667-7.111111 36.977778 56.888889-32.711112 79.644445h-98.133333s-45.511111-9.955556-83.911111 46.933333c-15.644444-35.555556-15.644444-75.377778-2.844444-110.933333 0 0 8.533333-14.222222-69.688889-17.066667 0 0 31.288889-65.422222 119.466666-73.955555 34.133333 56.888889 62.577778 110.933333 62.577778 110.933333z" fill="#FE8626" p-id="5390"></path><path d="M232.856566 907.377778l-86.755556-113.777778c119.466667-49.777778 247.466667-75.377778 375.466667-76.8 109.511111 0 248.888889 24.177778 345.6 86.755556-44.088889 82.488889-72.533333 102.4-72.533334 102.4s-291.555556-56.888889-561.777777 1.422222z" fill="#FF9D28" p-id="5391"></path><path d="M360.856566 857.6l-5.688889-14.222222c5.688889 0 11.377778-1.422222 17.066666-4.266667 9.955556-2.844444 17.066667-7.111111 14.222223-17.066667-2.844444-8.533333-9.955556-8.533333-22.755556-4.266666l-5.688889 1.422222-4.266666-12.8 5.688888-1.422222c11.377778-4.266667 18.488889-8.533333 15.644445-17.066667-1.422222-8.533333-8.533333-7.111111-18.488889-4.266667-5.688889 1.422222-11.377778 4.266667-15.644444 7.111112l-4.266667-12.8c5.688889-4.266667 11.377778-7.111111 18.488889-8.533334 19.911111-5.688889 34.133333-4.266667 36.977778 12.8 2.844444 8.533333-1.422222 17.066667-9.955556 21.333334 4.266667-1.422222 8.533333 0 12.8 2.844444 4.266667 2.844444 5.688889 7.111111 7.111111 11.377778 4.266667 15.644444-5.688889 25.6-27.022222 32.711111-4.266667 4.266667-8.533333 7.111111-14.222222 7.111111zM473.212121 740.977778c2.844444 29.866667 7.111111 59.733333 9.955556 89.6l-15.644445 1.422222c-1.422222-2.844444-1.422222-5.688889-2.844444-8.533333-1.422222 5.688889-5.688889 11.377778-17.066667 12.8-19.911111 4.266667-27.022222-7.111111-31.288889-27.022223-4.266667-19.911111-1.422222-34.133333 19.911111-38.4 12.8-2.844444 18.488889 0 21.333334 5.688889l-4.266667-34.133333 19.911111-1.422222z m-9.955555 59.733333c-1.422222-11.377778-5.688889-19.911111-18.488889-17.066667-12.8 1.422222-12.8 11.377778-9.955556 22.755556 1.422222 11.377778 5.688889 19.911111 17.066667 17.066667 11.377778-2.844444 12.8-9.955556 11.377778-22.755556zM555.70101 782.222222v44.088889h-15.644444c0-2.844444-1.422222-4.266667-1.422223-7.111111-4.266667 5.688889-12.8 9.955556-19.911111 8.533333-14.222222 0-21.333333-4.266667-22.755555-18.488889s7.111111-21.333333 25.6-21.333333h17.066666v-1.422222c0-7.111111-2.844444-9.955556-14.222222-9.955556-4.266667 0-9.955556 1.422222-14.222222 1.422223 0-4.266667 0-9.955556-1.422222-14.222223 5.688889-1.422222 11.377778-1.422222 17.066666-1.422222 21.333333 0 29.866667 7.111111 29.866667 19.911111z m-18.488889 25.6v-7.111111h-14.222222c-8.533333 0-11.377778 1.422222-11.377778 8.533333s2.844444 7.111111 9.955556 7.111112c5.688889 0 11.377778-2.844444 15.644444-8.533334zM569.923232 836.266667c9.955556 0 14.222222-1.422222 17.066667-8.533334-7.111111-21.333333-14.222222-42.666667-22.755556-64l21.333334 1.422223c4.266667 14.222222 8.533333 31.288889 12.8 46.933333 5.688889-14.222222 12.8-29.866667 18.488889-44.088889 7.111111 0 14.222222 1.422222 19.911111 2.844444-9.955556 18.488889-19.911111 35.555556-28.444445 54.044445-9.955556 21.333333-17.066667 27.022222-38.4 25.6v-14.222222zM635.345455 833.422222c0-4.266667 1.422222-9.955556 1.422222-14.222222 5.688889 2.844444 12.8 5.688889 18.488889 7.111111 7.111111 1.422222 11.377778 1.422222 11.377777-4.266667 1.422222-5.688889-1.422222-7.111111-11.377777-11.377777-14.222222-5.688889-15.644444-9.955556-14.222223-21.333334 1.422222-9.955556 9.955556-17.066667 29.866667-12.8 7.111111 1.422222 12.8 2.844444 18.488889 7.111111-1.422222 4.266667-2.844444 8.533333-2.844444 12.8-5.688889-2.844444-11.377778-4.266667-17.066667-5.688888-8.533333-1.422222-11.377778 0-11.377778 4.266666s1.422222 4.266667 11.377778 9.955556c14.222222 7.111111 17.066667 11.377778 14.222222 22.755555-2.844444 14.222222-14.222222 17.066667-29.866667 14.222223-5.688889-4.266667-12.8-5.688889-18.488888-8.533334zM481.745455 510.577778l-45.511112-44.088889-35.555555-1.422222c17.066667 36.977778 48.355556 64 85.333333 73.955555l-4.266666-28.444444zM623.967677 484.977778c-18.488889 29.866667-48.355556 49.777778-81.066667 55.466666l8.533333-25.6 54.044445-32.711111 18.488889 2.844445zM629.656566 409.6l-11.377778-64 5.688889-14.222222c17.066667 25.6 24.177778 56.888889 21.333333 86.755555l-15.644444-8.533333zM561.389899 300.088889l-61.155556-7.111111-21.333333-17.066667c32.711111-11.377778 68.266667-7.111111 98.133333 8.533333l-15.644444 15.644445zM416.323232 393.955556l25.6-59.733334-8.533333-31.288889s-51.2 44.088889-44.088889 110.933334l27.022222-19.911111z" fill="#FFFFFF" p-id="5392"></path><path d="M481.745455 510.577778l-45.511112-44.088889 15.644445-44.088889 32.711111-4.266667 35.555556 25.6-2.844445 41.244445zM608.323232 479.288889l-55.466666 34.133333-35.555556-28.444444 2.844445-41.244445 35.555555-28.444444 36.977778 21.333333z" fill="#FFFFFF" p-id="5393"></path><path d="M616.856566 345.6l12.8 64-36.977778 27.022222-36.977778-21.333333-15.644444-44.088889 35.555555-29.866667zM441.923232 334.222222l44.088889 2.844445 9.955556 35.555555-11.377778 45.511111-32.711111 4.266667-35.555556-28.444444z" fill="#FFFFFF" p-id="5394"></path><path d="M559.967677 301.511111l11.377778 45.511111-29.866667 21.333334-44.088889 2.844444-14.222222-32.711111 15.644444-44.088889z" fill="#FFFFFF" p-id="5395"></path><path d="M487.434343 418.133333c0 1.422222 0 2.844444-1.422222 4.266667l-32.711111 4.266667c-1.422222 0-1.422222 0-2.844444-1.422223 0-1.422222-1.422222-1.422222 0-2.844444 0-1.422222 1.422222-1.422222 2.844444-1.422222l32.711111-5.688889s1.422222 1.422222 1.422222 2.844444zM444.767677 335.644444l-24.177778 59.733334c0 1.422222-1.422222 1.422222-1.422222 1.422222h-1.422222c-1.422222 0-1.422222-1.422222-1.422223-1.422222v-2.844445l24.177778-59.733333c0-1.422222 1.422222-1.422222 2.844445-1.422222s1.422222 0 2.844444 1.422222-1.422222 1.422222-1.422222 2.844444zM498.812121 372.622222c0 1.422222 0 2.844444-1.422222 4.266667h-2.844444l-1.422223-1.422222-9.955555-36.977778c0-1.422222 0-2.844444 1.422222-4.266667h2.844444c1.422222 0 1.422222 1.422222 1.422223 1.422222l9.955555 36.977778z" fill="#292338" p-id="5396"></path><path d="M540.056566 371.2l15.644444 44.088889-35.555555 29.866667-35.555556-27.022223 11.377778-44.088889zM416.323232 393.955556l35.555556 28.444444-14.222222 44.088889H402.10101c-4.266667-8.533333-7.111111-17.066667-8.533333-25.6l-4.266667-25.6 27.022222-21.333333z m83.911111-100.977778l-14.222222 44.088889-44.088889-1.422223v-1.422222l-8.533333-31.288889c14.222222-12.8 29.866667-21.333333 46.933333-27.022222l19.911111 17.066667z m123.733334 35.555555l-5.688889 17.066667-44.088889-1.422222-12.8-44.088889 18.488889-12.8c17.066667 9.955556 31.288889 24.177778 44.088889 41.244444z m-31.288889 106.666667l35.555555-27.022222 15.644445 12.8c-2.844444 21.333333-9.955556 41.244444-19.911111 59.733333h-18.488889l-12.8-45.511111z m-75.377778 49.777778l35.555556 28.444444v1.422222L544.323232 540.444444c-18.488889 4.266667-35.555556 4.266667-54.044444 0l-8.533333-29.866666 35.555555-25.6z" fill="#292338" p-id="5397"></path><path d="M437.656566 469.333333h-36.977778c-1.422222 0-1.422222-1.422222-2.844445-1.422222-4.266667-8.533333-7.111111-17.066667-8.533333-25.6-1.422222-8.533333-2.844444-17.066667-4.266667-27.022222 0-1.422222 0-2.844444 1.422223-2.844445l28.444444-19.911111h2.844445l35.555555 28.444445c1.422222 1.422222 1.422222 2.844444 1.422222 4.266666l-14.222222 44.088889c-1.422222 0-1.422222 1.422222-2.844444 0z m-34.133334-7.111111l31.288889 1.422222 12.8-39.822222L416.323232 398.222222l-24.177777 18.488889c0 8.533333 1.422222 15.644444 4.266666 22.755556 1.422222 8.533333 4.266667 15.644444 7.111111 22.755555z m82.488889-122.311111l-45.511111-1.422222c-1.422222 0-2.844444-1.422222-2.844444-2.844445l-8.533334-32.711111c0-1.422222 0-2.844444 1.422223-2.844444 14.222222-12.8 29.866667-22.755556 48.355555-28.444445h2.844445l21.333333 17.066667c1.422222 1.422222 1.422222 2.844444 1.422222 4.266667l-14.222222 44.088889c-1.422222 1.422222-2.844444 2.844444-4.266667 2.844444z m-41.244444-7.111111l39.822222 1.422222 12.8-39.822222-18.488889-14.222222c-15.644444 5.688889-29.866667 14.222222-42.666667 25.6l8.533334 27.022222z m173.511111 15.644444H572.767677c-1.422222 0-2.844444-1.422222-2.844445-2.844444l-11.377777-45.511111c0-1.422222 0-2.844444 1.422222-4.266667l18.488889-12.8h2.844444c18.488889 9.955556 32.711111 25.6 45.511111 42.666667v2.844444l-5.688889 17.066667c-1.422222 1.422222-1.422222 2.844444-2.844444 2.844444z m-42.666667-7.111111l39.822222 1.422223 4.266667-12.8c-11.377778-15.644444-24.177778-29.866667-41.244444-38.4l-15.644445 11.377777 12.8 38.4z m49.777778 143.644445h-19.911111c-1.422222 0-2.844444-1.422222-2.844445-2.844445l-12.8-44.088889c0-1.422222 0-2.844444 1.422223-4.266666l35.555555-27.022222c1.422222-1.422222 2.844444-1.422222 4.266667 0l15.644444 12.8c1.422222 0 1.422222 1.422222 1.422223 2.844444-2.844444 21.333333-9.955556 42.666667-22.755556 62.577778 1.422222-1.422222 0-1.422222 0 0z m-17.066667-7.111111h14.222223c9.955556-17.066667 17.066667-35.555556 18.488888-55.466667L629.656566 412.444444l-32.711111 24.177778 11.377777 41.244445zM544.323232 543.288889c-18.488889 4.266667-36.977778 4.266667-55.466666 0-1.422222 0-1.422222-1.422222-2.844445-2.844445l-8.533333-29.866666c0-1.422222 0-2.844444 1.422222-4.266667l35.555556-27.022222c1.422222-1.422222 2.844444-1.422222 2.844444 0l35.555556 28.444444c1.422222 1.422222 1.422222 2.844444 1.422222 4.266667v1.422222l-7.111111 27.022222-2.844445 2.844445z m-52.622222-5.688889c15.644444 4.266667 32.711111 4.266667 49.777778 0l8.533333-22.755556-31.288889-25.6-34.133333 22.755556 7.111111 25.6z" fill="#292338" p-id="5398"></path><path d="M550.012121 541.866667l-5.688889 1.422222c-18.488889 4.266667-36.977778 4.266667-55.466666 0-19.911111-4.266667-36.977778-14.222222-52.622223-27.022222-15.644444-12.8-28.444444-29.866667-36.977777-48.355556-7.111111-17.066667-11.377778-34.133333-12.8-52.622222-1.422222-21.333333 2.844444-42.666667 9.955555-62.577778 8.533333-19.911111 19.911111-36.977778 35.555556-51.2 14.222222-12.8 29.866667-22.755556 48.355555-28.444444l5.688889-1.422223a128 128 0 0 1 96.711111 12.8c18.488889 9.955556 34.133333 25.6 45.511111 42.666667 18.488889 28.444444 25.6 61.155556 22.755556 95.288889-9.955556 56.888889-48.355556 103.822222-100.977778 119.466667z m-64-264.533334l-5.688889 1.422223c-17.066667 5.688889-32.711111 14.222222-45.511111 27.022222-29.866667 27.022222-45.511111 66.844444-42.666666 109.511111 0 8.533333 1.422222 17.066667 4.266666 25.6 1.422222 8.533333 4.266667 17.066667 8.533334 24.177778 8.533333 18.488889 19.911111 34.133333 35.555555 46.933333 14.222222 12.8 32.711111 21.333333 51.2 25.6 17.066667 4.266667 35.555556 4.266667 52.622222 0l5.688889-1.422222c29.866667-8.533333 55.466667-28.444444 72.533334-55.466667 11.377778-17.066667 17.066667-36.977778 19.911111-58.311111 1.422222-17.066667 0-32.711111-2.844445-48.355556s-8.533333-29.866667-17.066666-42.666666c-31.288889-46.933333-85.333333-68.266667-136.533334-54.044445z" fill="#292338" p-id="5399"></path><path d="M521.567677 446.577778h-2.844445l-36.977777-25.6c-1.422222-1.422222-1.422222-2.844444-1.422223-4.266667l11.377778-44.088889c0-1.422222 1.422222-2.844444 2.844445-2.844444l44.088888-1.422222c1.422222 0 2.844444 1.422222 2.844445 1.422222l15.644444 44.088889v2.844444l-34.133333 29.866667h-1.422222zM487.434343 416.711111l32.711112 22.755556 31.288888-27.022223-14.222222-39.822222-39.822222 1.422222-9.955556 42.666667z" fill="#292338" p-id="5400"></path><path d="M575.612121 342.755556c-1.422222-1.422222-2.844444-1.422222-4.266666 0l-34.133334 25.6-1.422222 1.422222v2.844444c0 1.422222 1.422222 1.422222 2.844444 1.422222h1.422223l34.133333-27.022222c1.422222 0 1.422222-1.422222 1.422222-1.422222s1.422222-1.422222 0-2.844444z m41.244445 0c-1.422222 0-2.844444 1.422222-2.844445 4.266666l11.377778 64c0 1.422222 1.422222 2.844444 2.844444 2.844445s2.844444-1.422222 2.844445-4.266667l-11.377778-64c0-1.422222 0-1.422222-1.422222-2.844444h-1.422222z m-8.533334 136.533333c0-1.422222-1.422222-1.422222-1.422222-1.422222h-2.844444l-54.044445 32.711111-1.422222 1.422222v2.844444c0 1.422222 1.422222 1.422222 2.844444 1.422223h1.422223l52.622222-34.133334c1.422222 0 1.422222-1.422222 1.422222-1.422222s2.844444-1.422222 1.422222-1.422222z m-12.8-45.511111L557.123232 412.444444c-1.422222-1.422222-2.844444 0-4.266666 1.422223v2.844444c0 1.422222 1.422222 1.422222 1.422222 1.422222l38.4 21.333334h2.844444c1.422222 0 1.422222-1.422222 1.422223-1.422223v-2.844444c0-1.422222-1.422222-1.422222-1.422223-1.422222z m-75.377777 7.111111c-1.422222 0-1.422222 0-2.844445 1.422222 0 0-1.422222 1.422222-1.422222 2.844445l-1.422222 38.4v2.844444l1.422222 1.422222h1.422222c1.422222 0 2.844444-1.422222 2.844445-2.844444l2.844444-39.822222c0-2.844444 0-4.266667-2.844444-4.266667z m41.244444-143.644445l-59.733333-8.533333c-1.422222 0-2.844444 1.422222-2.844445 2.844445s1.422222 2.844444 2.844445 4.266666l59.733333 7.111111h1.422222c1.422222 0 2.844444-1.422222 2.844445-2.844444-1.422222-1.422222-2.844444-2.844444-4.266667-2.844445z m-78.222222 210.488889l-45.511111-42.666666c-1.422222-1.422222-1.422222-1.422222-2.844445-1.422223s-1.422222 1.422222-2.844444 2.844445c0 1.422222 0 2.844444 1.422222 2.844444l45.511111 42.666667h2.844445s1.422222 0 1.422222-1.422222c1.422222 0 1.422222-1.422222 0-2.844445z" fill="#292338" p-id="5401"></path><path d="M420.589899 547.555556h190.577778c12.8 0 22.755556 11.377778 22.755555 24.177777V611.555556H397.834343v-38.4c0-7.111111 2.844444-12.8 7.111112-17.066667 2.844444-7.111111 9.955556-8.533333 15.644444-8.533333z" fill="#FFFFFF" p-id="5402"></path><path d="M3.878788 0h1024v1024H3.878788z" fill="#D8D8D8" fill-opacity="0" p-id="5403"></path></svg>