<?xml version="1.0" standalone="no"?><!DOCTYPE svg PUBLIC "-//W3C//DTD SVG 1.1//EN" "http://www.w3.org/Graphics/SVG/1.1/DTD/svg11.dtd"><svg t="1649921844710" class="icon" viewBox="0 0 1117 1024" version="1.1" xmlns="http://www.w3.org/2000/svg" p-id="25860" xmlns:xlink="http://www.w3.org/1999/xlink" width="52.359375" height="48"><defs><style type="text/css">@font-face { font-family: feedback-iconfont; src: url("//at.alicdn.com/t/font_1031158_u69w8yhxdu.woff2?t=1630033759944") format("woff2"), url("//at.alicdn.com/t/font_1031158_u69w8yhxdu.woff?t=1630033759944") format("woff"), url("//at.alicdn.com/t/font_1031158_u69w8yhxdu.ttf?t=1630033759944") format("truetype"); }
</style></defs><path d="M709.30101 957.155556l-391.111111-1.422223-241.777778-327.111111 89.6-403.911111L518.723232 45.511111 868.589899 227.555556l85.333333 405.333333z" fill="#847CD8" p-id="25861"></path><path d="M692.234343 917.333333l-356.977777-1.422222L114.812121 618.666667l81.066667-369.777778L518.723232 85.333333l320 166.4 78.222223 369.777778z" fill="#FFFFFF" p-id="25862"></path><path d="M677.770343 898.062222l-332.8-1.422222-207.644444-278.755556 76.8-348.444444 301.511111-153.6 300.088889 156.444444 72.533333 348.444445z" fill="#6C5AC1" opacity=".79" p-id="25863"></path><path d="M439.078788 674.133333c-200.533333-83.911111-167.822222-305.777778-167.822222-308.622222l14.222222 2.844445c-1.422222 8.533333-29.866667 213.333333 159.288889 291.555555l-5.688889 14.222222z" fill="#FFCB39" p-id="25864"></path><path d="M294.012121 349.866667c-4.266667 12.8-14.222222 21.333333-17.066666 19.911111-2.844444-1.422222-7.111111-14.222222-1.422223-27.022222 2.844444-8.533333 9.955556-17.066667 18.488889-19.911112 2.844444 8.533333 2.844444 18.488889 0 27.022223zM403.523232 651.377778c2.844444 8.533333-17.066667 21.333333-31.288889 24.177778-12.8 2.844444-27.022222 0-36.977777-9.955556 5.688889-12.8 18.488889-22.755556 31.288889-24.177778 14.222222-2.844444 35.555556 0 36.977777 9.955556zM402.10101 642.844444c-2.844444 0-14.222222-12.8-15.644444-24.177777-1.422222-9.955556 1.422222-19.911111 8.533333-28.444445 8.533333 4.266667 14.222222 14.222222 15.644444 24.177778 1.422222 11.377778-1.422222 21.333333-8.533333 28.444444zM358.012121 612.977778c-2.844444 0-12.8-14.222222-14.222222-25.6-1.422222-9.955556 2.844444-19.911111 9.955556-27.022222 8.533333 5.688889 12.8 14.222222 14.222222 25.6 0 8.533333-2.844444 18.488889-9.955556 27.022222zM322.456566 570.311111c-2.844444 0-11.377778-14.222222-9.955556-27.022222 0-9.955556 5.688889-19.911111 12.8-25.6 7.111111 7.111111 11.377778 17.066667 9.955556 27.022222 0 11.377778-9.955556 25.6-12.8 25.6zM294.012121 516.266667c-2.844444-1.422222-5.688889-18.488889-1.422222-28.444445 2.844444-9.955556 11.377778-17.066667 19.911111-19.911111 5.688889 8.533333 5.688889 19.911111 2.844445 29.866667-4.266667 9.955556-18.488889 19.911111-21.333334 18.488889zM281.212121 462.222222c-2.844444-1.422222-2.844444-19.911111 1.422222-28.444444 4.266667-8.533333 12.8-15.644444 22.755556-17.066667 4.266667 9.955556 2.844444 21.333333-1.422222 29.866667-5.688889 9.955556-19.911111 17.066667-22.755556 15.644444zM278.367677 405.333333c-1.422222-1.422222 0-14.222222 5.688889-21.333333 4.266667-5.688889 12.8-8.533333 19.911111-8.533333 1.422222 7.111111-1.422222 15.644444-5.688889 21.333333-4.266667 5.688889-12.8 8.533333-19.911111 8.533333z" fill="#FFDE39" p-id="25865"></path><path d="M358.012121 618.666667c2.844444 8.533333-17.066667 19.911111-32.711111 22.755555-12.8 2.844444-27.022222-2.844444-36.977778-12.8 7.111111-12.8 18.488889-21.333333 32.711111-22.755555 14.222222-1.422222 35.555556 1.422222 36.977778 12.8zM322.456566 576c1.422222 9.955556-21.333333 15.644444-35.555556 14.222222-14.222222 0-25.6-8.533333-34.133333-19.911111 8.533333-11.377778 22.755556-17.066667 36.977778-14.222222 14.222222 0 32.711111 8.533333 32.711111 19.911111zM291.167677 523.377778c-1.422222 9.955556-24.177778 8.533333-38.4 1.422222-12.8-5.688889-22.755556-15.644444-25.6-29.866667 11.377778-7.111111 27.022222-8.533333 38.4-1.422222 14.222222 5.688889 29.866667 19.911111 25.6 29.866667zM276.945455 469.333333c-4.266667 7.111111-21.333333 0-29.866667-8.533333-8.533333-7.111111-14.222222-18.488889-14.222222-29.866667 11.377778-2.844444 22.755556 0 31.288889 8.533334 8.533333 7.111111 17.066667 22.755556 12.8 29.866666zM269.834343 415.288889c-4.266667 4.266667-15.644444-5.688889-19.911111-14.222222-4.266667-8.533333-5.688889-17.066667-2.844444-25.6 8.533333 1.422222 17.066667 7.111111 21.333333 14.222222 4.266667 8.533333 7.111111 21.333333 1.422222 25.6z" fill="#FFDE39" p-id="25866"></path><path d="M589.834343 674.133333l-5.688888-14.222222C774.723232 580.266667 744.856566 376.888889 743.434343 368.355556l14.222223-2.844445c1.422222 2.844444 32.711111 224.711111-167.822223 308.622222z" fill="#FFCB39" p-id="25867"></path><path d="M736.323232 349.866667c4.266667 12.8 14.222222 21.333333 17.066667 19.911111 2.844444-1.422222 7.111111-14.222222 2.844444-27.022222-2.844444-8.533333-9.955556-17.066667-18.488888-19.911112-4.266667 8.533333-5.688889 18.488889-1.422223 27.022223zM626.812121 651.377778c-2.844444 8.533333 17.066667 21.333333 31.288889 24.177778 12.8 2.844444 27.022222 0 36.977778-9.955556-5.688889-12.8-18.488889-22.755556-31.288889-24.177778-14.222222-2.844444-35.555556 0-36.977778 9.955556zM628.234343 642.844444c2.844444 0 14.222222-12.8 15.644445-24.177777 1.422222-9.955556-1.422222-19.911111-8.533333-28.444445-8.533333 5.688889-14.222222 14.222222-15.644445 24.177778-1.422222 11.377778 1.422222 21.333333 8.533333 28.444444zM672.323232 612.977778c2.844444 0 12.8-14.222222 14.222223-25.6 1.422222-9.955556-2.844444-19.911111-9.955556-27.022222-8.533333 5.688889-12.8 14.222222-14.222222 25.6 0 8.533333 2.844444 18.488889 9.955555 27.022222zM707.878788 570.311111c2.844444 0 11.377778-14.222222 9.955555-27.022222 0-9.955556-5.688889-19.911111-12.8-25.6-7.111111 7.111111-11.377778 17.066667-9.955555 27.022222 0 11.377778 9.955556 25.6 12.8 25.6zM734.90101 516.266667c2.844444-1.422222 5.688889-18.488889 1.422222-28.444445-2.844444-9.955556-9.955556-17.066667-19.911111-19.911111-5.688889 8.533333-5.688889 19.911111-1.422222 29.866667 4.266667 9.955556 18.488889 19.911111 19.911111 18.488889zM749.123232 462.222222c2.844444-1.422222 2.844444-19.911111-1.422222-28.444444-4.266667-8.533333-12.8-15.644444-22.755555-17.066667-4.266667 9.955556-2.844444 21.333333 1.422222 29.866667 5.688889 9.955556 19.911111 17.066667 22.755555 15.644444zM750.545455 405.333333c1.422222-1.422222 0-14.222222-5.688889-21.333333-4.266667-5.688889-11.377778-8.533333-19.911111-8.533333-1.422222 7.111111 1.422222 15.644444 5.688888 21.333333 5.688889 5.688889 12.8 8.533333 19.911112 8.533333z" fill="#FFDE39" p-id="25868"></path><path d="M672.323232 618.666667c-2.844444 8.533333 17.066667 19.911111 32.711111 22.755555 12.8 2.844444 27.022222-2.844444 36.977778-12.8-7.111111-12.8-18.488889-21.333333-32.711111-22.755555-15.644444-1.422222-35.555556 1.422222-36.977778 12.8zM707.878788 576c-1.422222 9.955556 21.333333 15.644444 35.555555 14.222222 14.222222 0 25.6-8.533333 34.133334-19.911111-8.533333-11.377778-22.755556-17.066667-36.977778-14.222222-14.222222 0-34.133333 8.533333-32.711111 19.911111zM737.745455 523.377778c1.422222 9.955556 24.177778 8.533333 38.4 1.422222 12.8-5.688889 22.755556-15.644444 25.6-29.866667-11.377778-7.111111-27.022222-8.533333-38.4-1.422222-12.8 5.688889-28.444444 19.911111-25.6 29.866667zM753.389899 469.333333c4.266667 7.111111 21.333333 0 29.866667-8.533333 8.533333-7.111111 14.222222-18.488889 14.222222-29.866667-11.377778-2.844444-22.755556 0-31.288889 8.533334-8.533333 7.111111-18.488889 22.755556-12.8 29.866666zM760.50101 415.288889c4.266667 4.266667 15.644444-5.688889 19.911111-14.222222 4.266667-7.111111 5.688889-17.066667 2.844445-25.6-8.533333 1.422222-17.066667 7.111111-21.333334 14.222222-4.266667 8.533333-7.111111 21.333333-1.422222 25.6z" fill="#FFDE39" p-id="25869"></path><path d="M548.120566 894.577778h-59.733334l-25.6-221.866667h122.311111z" fill="#FF5339" opacity=".8" p-id="25870"></path><path d="M585.567677 672.711111H444.767677c-7.111111 0-14.222222-4.266667-17.066667-11.377778L397.834343 597.333333h237.511112l-29.866667 65.422223c-5.688889 5.688889-12.8 9.955556-19.911111 9.955555z" fill="#FFE339" p-id="25871"></path><path d="M544.323232 894.577778h-76.8l-25.6-221.866667h123.733334z" fill="#FFC139" p-id="25872"></path><path d="M796.056566 888.888889s7.111111 7.111111-105.244445-35.555556c-17.066667-7.111111-36.977778 56.888889 32.711111 79.644445h98.133334s45.511111-9.955556 83.911111 48.355555c15.644444-35.555556 15.644444-75.377778 2.844444-110.933333 0 0-8.533333-14.222222 69.688889-17.066667 0 0-31.288889-65.422222-119.466667-73.955555-35.555556 55.466667-62.577778 109.511111-62.577777 109.511111zM235.70101 876.088889s-7.111111 7.111111 105.244445-35.555556c17.066667-7.111111 36.977778 56.888889-32.711112 79.644445h-98.133333S164.589899 910.222222 126.189899 967.111111c-15.644444-35.555556-15.644444-75.377778-2.844444-110.933333 0 0 8.533333-14.222222-69.688889-17.066667 0 0 31.288889-65.422222 119.466666-73.955555 34.133333 56.888889 62.577778 110.933333 62.577778 110.933333z" fill="#FE8626" p-id="25873"></path><path d="M232.856566 894.577778l-86.755556-113.777778c119.466667-49.777778 247.466667-75.377778 375.466667-76.8 109.511111 0 248.888889 24.177778 345.6 86.755556-44.088889 82.488889-72.533333 102.4-72.533334 102.4s-291.555556-56.888889-561.777777 1.422222z" fill="#FF9D28" p-id="25874"></path><path d="M420.589899 534.755556h190.577778c12.8 0 22.755556 11.377778 22.755555 24.177777v39.822223H397.834343v-39.822223c0-7.111111 2.844444-12.8 7.111112-17.066666s9.955556-7.111111 15.644444-7.111111z" fill="#FFFFFF" p-id="25875"></path><path d="M497.389899 460.8l-11.377778-9.955556c22.755556-29.866667 24.177778-85.333333 24.177778-85.333333h14.222222c0 2.844444-1.422222 61.155556-27.022222 95.288889zM507.345455 472.177778l-9.955556-9.955556c28.444444-32.711111 82.488889-44.088889 85.333333-44.088889l2.844445 14.222223c-1.422222 0-54.044444 9.955556-78.222222 39.822222z" fill="#FFE339" p-id="25876"></path><path d="M444.767677 507.733333l12.8 12.8c2.844444 2.844444 2.844444 5.688889 0 8.533334l-2.844445 2.844444c-2.844444 2.844444-5.688889 2.844444-8.533333 0l-12.8-12.8c-2.844444-2.844444-2.844444-5.688889 0-8.533333l2.844444-2.844445c1.422222-2.844444 5.688889-2.844444 8.533334 0z" fill="#25CC0D" p-id="25877"></path><path d="M457.567677 526.222222l-19.911111-19.911111 49.777777-55.466667 19.911112 21.333334z" fill="#0A89E8" p-id="25878"></path><path d="M483.167677 322.844444c0 18.488889-11.377778 34.133333-28.444445 38.4-2.844444 1.422222-7.111111 1.422222-11.377777 1.422223-19.911111 0-36.977778-17.066667-38.4-38.4s14.222222-41.244444 34.133333-42.666667c19.911111-2.844444 38.4 12.8 42.666667 34.133333 1.422222 2.844444 1.422222 5.688889 1.422222 7.111111z" fill="#FF5F1B" p-id="25879"></path><path d="M444.767677 366.933333c-22.755556 0-41.244444-18.488889-42.666667-42.666666s15.644444-44.088889 36.977778-46.933334 42.666667 14.222222 45.511111 36.977778v7.111111c0 19.911111-12.8 36.977778-29.866667 42.666667-1.422222 2.844444-5.688889 2.844444-9.955555 2.844444z m0-81.066666c-19.911111 0-35.555556 17.066667-35.555556 36.977777 0 19.911111 15.644444 36.977778 35.555556 36.977778 2.844444 0 7.111111 0 9.955555-1.422222 14.222222-4.266667 25.6-18.488889 25.6-35.555556v-5.688888c-2.844444-18.488889-18.488889-31.288889-35.555555-31.288889z" fill="#FFFFFF" p-id="25880"></path><path d="M456.145455 365.511111c-8.533333-5.688889-14.222222-12.8-18.488889-21.333333-4.266667-9.955556-4.266667-21.333333-1.422223-31.288889 2.844444-7.111111 7.111111-11.377778 12.8-14.222222 14.222222-4.266667 28.444444 1.422222 35.555556 14.222222v1.422222c5.688889 22.755556-7.111111 44.088889-28.444444 51.2z m2.844444-61.155555c-1.422222 0-4.266667 0-5.688889 1.422222-4.266667 1.422222-7.111111 5.688889-9.955555 9.955555-2.844444 8.533333-2.844444 17.066667 1.422222 25.6 2.844444 7.111111 7.111111 12.8 12.8 15.644445 14.222222-5.688889 24.177778-18.488889 22.755555-35.555556v-5.688889c-4.266667-5.688889-12.8-11.377778-21.333333-11.377777zM352.323232 775.111111c-7.111111 2.844444-12.8 7.111111-19.911111 11.377778l-4.266666-14.222222c8.533333-4.266667 15.644444-8.533333 24.177777-12.8l14.222223-4.266667c7.111111 27.022222 14.222222 52.622222 19.911111 79.644444l-17.066667 4.266667c-5.688889-21.333333-11.377778-44.088889-17.066667-64zM461.834343 728.177778c2.844444 29.866667 7.111111 59.733333 9.955556 89.6-5.688889 0-9.955556 1.422222-15.644444 1.422222-1.422222-2.844444-1.422222-5.688889-2.844445-8.533333-1.422222 5.688889-5.688889 11.377778-17.066667 12.8-19.911111 4.266667-27.022222-7.111111-31.288888-27.022223-4.266667-18.488889-1.422222-34.133333 19.911111-38.4 12.8-2.844444 18.488889 0 21.333333 5.688889l-4.266667-34.133333c7.111111 0 12.8-1.422222 19.911111-1.422222z m-11.377777 59.733333c-1.422222-11.377778-5.688889-19.911111-18.488889-17.066667-12.8 1.422222-12.8 11.377778-9.955556 22.755556 1.422222 9.955556 5.688889 19.911111 17.066667 17.066667 11.377778-2.844444 14.222222-9.955556 11.377778-22.755556zM542.90101 769.422222v44.088889h-15.644444l-1.422223-7.111111c-4.266667 5.688889-12.8 9.955556-19.911111 8.533333-14.222222 0-21.333333-4.266667-22.755555-18.488889-1.422222-12.8 7.111111-21.333333 25.6-21.333333h17.066666v-1.422222c0-7.111111-2.844444-9.955556-14.222222-9.955556-4.266667 0-9.955556 1.422222-14.222222 1.422223l-1.422222-14.222223c5.688889-1.422222 11.377778-1.422222 17.066666-1.422222 22.755556-1.422222 29.866667 7.111111 29.866667 19.911111z m-17.066667 25.6v-7.111111h-14.222222c-8.533333 0-12.8 1.422222-11.377778 8.533333 0 7.111111 2.844444 7.111111 9.955556 7.111112 5.688889-1.422222 11.377778-4.266667 15.644444-8.533334zM557.123232 823.466667c9.955556 0 14.222222-1.422222 17.066667-8.533334-7.111111-21.333333-14.222222-42.666667-22.755556-64 7.111111 0 14.222222 0 21.333334 1.422223 4.266667 14.222222 8.533333 31.288889 12.8 46.933333 5.688889-14.222222 12.8-29.866667 18.488889-44.088889 7.111111 0 14.222222 1.422222 19.911111 2.844444-9.955556 18.488889-19.911111 35.555556-28.444445 54.044445-9.955556 21.333333-17.066667 27.022222-38.4 25.6v-14.222222zM622.545455 820.622222l1.422222-14.222222c5.688889 2.844444 12.8 5.688889 18.488889 7.111111 7.111111 1.422222 11.377778 1.422222 11.377777-4.266667s-1.422222-7.111111-11.377777-11.377777c-14.222222-5.688889-17.066667-9.955556-14.222223-21.333334 1.422222-11.377778 9.955556-17.066667 29.866667-12.8 5.688889 1.422222 12.8 2.844444 18.488889 7.111111l-2.844444 12.8c-5.688889-2.844444-11.377778-4.266667-17.066667-7.111111-8.533333-1.422222-11.377778 0-11.377778 4.266667s1.422222 4.266667 11.377778 9.955556c14.222222 7.111111 17.066667 11.377778 14.222222 22.755555-2.844444 14.222222-14.222222 17.066667-29.866667 14.222222-5.688889-2.844444-11.377778-4.266667-18.488888-7.111111z" fill="#FFFFFF" p-id="25881"></path><path d="M572.767677 433.777778c-14.222222 0-28.444444-5.688889-39.822222-14.222222-15.644444-12.8-24.177778-34.133333-24.177778-54.044445 0-46.933333 31.288889-86.755556 73.955555-98.133333 19.911111-4.266667 39.822222 0 55.466667 12.8 29.866667 25.6 31.288889 78.222222 2.844444 116.622222-15.644444 22.755556-41.244444 35.555556-68.266666 36.977778z m25.6-152.177778c-4.266667 0-8.533333 0-12.8 1.422222-17.066667 4.266667-34.133333 14.222222-44.088889 29.866667-11.377778 14.222222-18.488889 34.133333-18.488889 52.622222 0 17.066667 7.111111 32.711111 18.488889 42.666667 24.177778 21.333333 64 11.377778 88.177778-19.911111 24.177778-31.288889 24.177778-73.955556 0-95.288889-8.533333-8.533333-19.911111-12.8-31.288889-11.377778z" fill="#FFE339" p-id="25882"></path><path d="M3.878788 0h1024v1024H3.878788z" fill="#D8D8D8" fill-opacity="0" p-id="25883"></path></svg>