<?xml version="1.0" standalone="no"?><!DOCTYPE svg PUBLIC "-//W3C//DTD SVG 1.1//EN" "http://www.w3.org/Graphics/SVG/1.1/DTD/svg11.dtd"><svg t="1649921852870" class="icon" viewBox="0 0 1117 1024" version="1.1" xmlns="http://www.w3.org/2000/svg" p-id="26026" xmlns:xlink="http://www.w3.org/1999/xlink" width="52.359375" height="48"><defs><style type="text/css">@font-face { font-family: feedback-iconfont; src: url("//at.alicdn.com/t/font_1031158_u69w8yhxdu.woff2?t=1630033759944") format("woff2"), url("//at.alicdn.com/t/font_1031158_u69w8yhxdu.woff?t=1630033759944") format("woff"), url("//at.alicdn.com/t/font_1031158_u69w8yhxdu.ttf?t=1630033759944") format("truetype"); }
</style></defs><path d="M709.30101 955.733333l-389.688889-1.422222L76.412121 628.622222l89.6-405.333333L518.723232 45.511111 870.012121 227.555556l85.333334 405.333333z" fill="#17CEAB" p-id="26027"></path><path d="M692.234343 915.911111l-356.977777-1.422222L114.812121 617.244444l81.066667-369.777777L518.723232 83.911111l321.422223 166.4 76.8 369.777778z" fill="#FFFFFF" p-id="26028"></path><path d="M680.856566 888.888889l-332.8-1.422222L140.412121 610.133333 217.212121 264.533333 518.723232 112.355556l300.088889 155.022222 72.533334 345.6z" fill="#42C7AE" p-id="26029"></path><path d="M440.50101 672.711111c-200.533333-83.911111-167.822222-305.777778-167.822222-308.622222l14.222222 2.844444c-1.422222 8.533333-29.866667 213.333333 159.288889 292.977778l-5.688889 12.8z" fill="#FFCB39" p-id="26030"></path><path d="M294.012121 349.866667c-4.266667 12.8-14.222222 21.333333-17.066666 19.911111-2.844444-1.422222-7.111111-14.222222-1.422223-27.022222 2.844444-8.533333 9.955556-17.066667 18.488889-19.911112 2.844444 8.533333 2.844444 18.488889 0 27.022223zM403.523232 651.377778c2.844444 8.533333-17.066667 21.333333-31.288889 24.177778-12.8 2.844444-27.022222-1.422222-36.977777-9.955556 5.688889-12.8 17.066667-22.755556 31.288889-24.177778 14.222222-4.266667 35.555556-1.422222 36.977777 9.955556zM402.10101 642.844444c-2.844444 0-14.222222-12.8-15.644444-24.177777-1.422222-9.955556 1.422222-19.911111 8.533333-28.444445 8.533333 4.266667 14.222222 14.222222 15.644444 24.177778 1.422222 9.955556-1.422222 19.911111-8.533333 28.444444zM358.012121 611.555556c-2.844444 0-12.8-14.222222-14.222222-25.6-1.422222-9.955556 2.844444-19.911111 9.955556-27.022223 8.533333 5.688889 12.8 14.222222 14.222222 25.6 0 9.955556-2.844444 19.911111-9.955556 27.022223zM322.456566 570.311111c-2.844444 0-11.377778-14.222222-9.955556-27.022222 0-9.955556 5.688889-19.911111 12.8-25.6 7.111111 7.111111 11.377778 17.066667 9.955556 27.022222 0 11.377778-9.955556 25.6-12.8 25.6zM295.434343 516.266667c-2.844444-1.422222-5.688889-18.488889-1.422222-28.444445 2.844444-9.955556 11.377778-17.066667 19.911111-19.911111 5.688889 8.533333 5.688889 19.911111 2.844445 29.866667-5.688889 8.533333-19.911111 18.488889-21.333334 18.488889zM281.212121 460.8c-2.844444-1.422222-2.844444-19.911111 1.422222-29.866667 4.266667-8.533333 12.8-15.644444 22.755556-17.066666 4.266667 9.955556 2.844444 21.333333-1.422222 29.866666-4.266667 11.377778-19.911111 19.911111-22.755556 17.066667zM278.367677 405.333333c-1.422222-1.422222 0-14.222222 5.688889-21.333333 4.266667-5.688889 12.8-8.533333 19.911111-8.533333 1.422222 7.111111-1.422222 15.644444-5.688889 21.333333-4.266667 5.688889-11.377778 8.533333-19.911111 8.533333zM358.012121 617.244444c2.844444 8.533333-17.066667 19.911111-32.711111 22.755556-12.8 2.844444-27.022222-2.844444-36.977778-12.8 7.111111-12.8 18.488889-21.333333 32.711111-22.755556 15.644444-1.422222 35.555556 2.844444 36.977778 12.8z" fill="#FFDE39" p-id="26031"></path><path d="M322.456566 574.577778c1.422222 9.955556-21.333333 15.644444-35.555556 14.222222-14.222222 0-25.6-8.533333-34.133333-19.911111 8.533333-11.377778 22.755556-17.066667 36.977778-14.222222 14.222222 0 34.133333 8.533333 32.711111 19.911111zM291.167677 521.955556c-1.422222 9.955556-24.177778 8.533333-38.4 1.422222-12.8-5.688889-22.755556-15.644444-25.6-29.866667 11.377778-7.111111 27.022222-8.533333 38.4-1.422222 14.222222 5.688889 29.866667 21.333333 25.6 29.866667zM276.945455 467.911111c-4.266667 7.111111-21.333333 0-29.866667-8.533333-8.533333-7.111111-14.222222-18.488889-14.222222-29.866667 11.377778-2.844444 22.755556 0 31.288889 8.533333 8.533333 8.533333 18.488889 22.755556 12.8 29.866667zM269.834343 413.866667c-4.266667 4.266667-15.644444-5.688889-19.911111-14.222223-4.266667-8.533333-5.688889-17.066667-2.844444-27.022222 8.533333 1.422222 17.066667 7.111111 21.333333 14.222222 4.266667 9.955556 7.111111 24.177778 1.422222 27.022223z" fill="#FFDE39" p-id="26032"></path><path d="M589.834343 672.711111l-5.688888-14.222222C774.723232 580.266667 744.856566 369.777778 744.856566 366.933333l14.222222-2.844444c0 2.844444 32.711111 224.711111-169.244445 308.622222z" fill="#FFCB39" p-id="26033"></path><path d="M736.323232 349.866667c4.266667 12.8 14.222222 21.333333 17.066667 19.911111 2.844444-1.422222 7.111111-14.222222 2.844444-27.022222-2.844444-8.533333-9.955556-17.066667-18.488888-19.911112-4.266667 8.533333-4.266667 18.488889-1.422223 27.022223zM626.812121 651.377778c-2.844444 8.533333 17.066667 21.333333 31.288889 24.177778 12.8 2.844444 27.022222-1.422222 36.977778-9.955556-5.688889-12.8-17.066667-22.755556-31.288889-24.177778-14.222222-4.266667-35.555556-1.422222-36.977778 9.955556zM628.234343 642.844444c2.844444 0 14.222222-12.8 15.644445-24.177777 1.422222-9.955556-1.422222-19.911111-8.533333-28.444445-8.533333 5.688889-14.222222 14.222222-15.644445 24.177778-1.422222 9.955556 1.422222 19.911111 8.533333 28.444444zM672.323232 611.555556c2.844444 0 12.8-14.222222 14.222223-25.6 1.422222-9.955556-2.844444-19.911111-9.955556-27.022223-8.533333 5.688889-12.8 14.222222-14.222222 25.6 0 9.955556 2.844444 19.911111 9.955555 27.022223zM707.878788 570.311111c2.844444 0 11.377778-14.222222 9.955555-27.022222 0-9.955556-5.688889-19.911111-12.8-25.6-7.111111 7.111111-11.377778 17.066667-9.955555 27.022222 0 11.377778 9.955556 25.6 12.8 25.6zM736.323232 516.266667c2.844444-1.422222 5.688889-18.488889 1.422223-28.444445-2.844444-9.955556-9.955556-17.066667-19.911112-19.911111-5.688889 8.533333-5.688889 19.911111-1.422222 29.866667 2.844444 8.533333 17.066667 18.488889 19.911111 18.488889zM749.123232 460.8c2.844444-1.422222 2.844444-19.911111-1.422222-29.866667-4.266667-8.533333-12.8-15.644444-22.755555-17.066666-4.266667 9.955556-2.844444 21.333333 1.422222 29.866666 5.688889 11.377778 19.911111 19.911111 22.755555 17.066667zM751.967677 405.333333c1.422222-1.422222 0-14.222222-5.688889-21.333333-4.266667-5.688889-11.377778-8.533333-19.911111-8.533333-1.422222 7.111111 1.422222 15.644444 5.688889 21.333333 5.688889 5.688889 12.8 8.533333 19.911111 8.533333zM672.323232 617.244444c-2.844444 8.533333 17.066667 19.911111 32.711111 22.755556 12.8 2.844444 27.022222-2.844444 36.977778-12.8-7.111111-12.8-18.488889-21.333333-32.711111-22.755556-14.222222-1.422222-35.555556 2.844444-36.977778 12.8z" fill="#FFDE39" p-id="26034"></path><path d="M707.878788 574.577778c-1.422222 9.955556 21.333333 15.644444 35.555555 14.222222 14.222222 0 25.6-8.533333 34.133334-19.911111-8.533333-11.377778-22.755556-17.066667-36.977778-14.222222-14.222222 0-34.133333 8.533333-32.711111 19.911111zM739.167677 521.955556c1.422222 9.955556 24.177778 8.533333 38.4 1.422222 12.8-5.688889 22.755556-15.644444 25.6-29.866667-11.377778-7.111111-27.022222-8.533333-38.4-1.422222-14.222222 5.688889-29.866667 21.333333-25.6 29.866667zM753.389899 467.911111c4.266667 7.111111 21.333333 0 29.866667-8.533333 8.533333-7.111111 14.222222-18.488889 14.222222-29.866667-11.377778-2.844444-22.755556 0-31.288889 8.533333-8.533333 8.533333-17.066667 22.755556-12.8 29.866667zM760.50101 413.866667c4.266667 4.266667 15.644444-5.688889 19.911111-14.222223 4.266667-8.533333 5.688889-17.066667 2.844445-27.022222-8.533333 1.422222-17.066667 7.111111-21.333334 14.222222-4.266667 9.955556-7.111111 24.177778-1.422222 27.022223z" fill="#FFDE39" p-id="26035"></path><path d="M548.120566 888.888889h-59.733334l-25.6-217.6h123.733334z" fill="#FF6822" opacity=".8" p-id="26036"></path><path d="M585.567677 671.288889H444.767677c-7.111111 0-14.222222-4.266667-17.066667-11.377778l-29.866667-65.422222h237.511112l-29.866667 65.422222c-5.688889 8.533333-12.8 12.8-19.911111 11.377778z" fill="#FFE339" p-id="26037"></path><path d="M545.745455 888.888889h-78.222223l-24.177777-217.6h122.311111z" fill="#FFC139" p-id="26038"></path><path d="M796.056566 887.466667s7.111111 7.111111-105.244445-35.555556c-17.066667-7.111111-36.977778 56.888889 32.711111 79.644445h98.133334s45.511111-9.955556 83.911111 46.933333c15.644444-35.555556 15.644444-75.377778 2.844444-110.933333 0 0-8.533333-14.222222 69.688889-17.066667-31.288889-46.933333-79.644444-76.8-133.688889-82.488889-21.333333 36.977778-36.977778 76.8-48.355555 119.466667zM235.70101 887.466667s-7.111111 7.111111 105.244445-35.555556c17.066667-7.111111 36.977778 56.888889-32.711112 79.644445h-98.133333s-45.511111-9.955556-83.911111 46.933333c-15.644444-35.555556-15.644444-75.377778-2.844444-110.933333 0 0 8.533333-14.222222-69.688889-17.066667 0 0 31.288889-65.422222 119.466666-73.955556 34.133333 56.888889 62.577778 110.933333 62.577778 110.933334z" fill="#FE8626" p-id="26039"></path><path d="M232.856566 893.155556l-86.755556-113.777778c119.466667-49.777778 247.466667-75.377778 375.466667-76.8 109.511111 0 248.888889 24.177778 345.6 86.755555-44.088889 82.488889-72.533333 102.4-72.533334 102.4s-291.555556-56.888889-561.777777 1.422223z" fill="#FE942D" p-id="26040"></path><path d="M326.723232 850.488889l-4.266666-14.222222c5.688889 0 11.377778-1.422222 17.066666-2.844445 9.955556-2.844444 17.066667-7.111111 14.222223-15.644444-2.844444-8.533333-9.955556-8.533333-22.755556-4.266667l-5.688889 1.422222-4.266667-12.8 5.688889-1.422222c11.377778-4.266667 18.488889-8.533333 15.644445-15.644444-1.422222-8.533333-8.533333-7.111111-17.066667-4.266667-5.688889 1.422222-11.377778 4.266667-15.644444 7.111111l-4.266667-12.8c5.688889-4.266667 11.377778-7.111111 18.488889-8.533333 19.911111-5.688889 32.711111-2.844444 36.977778 12.8 2.844444 8.533333-1.422222 17.066667-8.533334 19.911111 9.955556-1.422222 18.488889 5.688889 19.911111 14.222222 4.266667 15.644444-5.688889 25.6-27.022222 32.711111-7.111111 2.844444-12.8 4.266667-18.488889 4.266667zM380.767677 793.6c-7.111111-32.711111 4.266667-44.088889 22.755555-48.355556 19.911111-2.844444 32.711111 2.844444 36.977778 36.977778 4.266667 32.711111-5.688889 42.666667-22.755555 46.933334s-29.866667-2.844444-36.977778-35.555556z m44.088889-9.955556c-2.844444-21.333333-8.533333-27.022222-17.066667-24.177777-9.955556 1.422222-12.8 8.533333-8.533333 29.866666s8.533333 25.6 17.066666 24.177778 11.377778-7.111111 8.533334-29.866667zM513.034343 726.755556c1.422222 29.866667 2.844444 59.733333 2.844445 89.6h-14.222222l-1.422223-8.533334c-1.422222 5.688889-7.111111 9.955556-18.488888 11.377778-19.911111 1.422222-25.6-9.955556-28.444445-29.866667-1.422222-18.488889 1.422222-34.133333 22.755556-35.555555 12.8-1.422222 18.488889 2.844444 21.333333 7.111111 0-11.377778-1.422222-22.755556-1.422222-34.133333h17.066666z m-12.8 58.311111c0-12.8-4.266667-19.911111-17.066666-19.911111-12.8 1.422222-12.8 9.955556-11.377778 21.333333 1.422222 11.377778 2.844444 19.911111 15.644444 18.488889s12.8-7.111111 12.8-19.911111zM591.256566 773.688889c-1.422222 14.222222-1.422222 29.866667-2.844445 44.088889H572.767677l-1.422222-7.111111c-5.688889 5.688889-12.8 8.533333-19.911112 8.533333-14.222222 0-21.333333-7.111111-21.333333-19.911111 0-12.8 8.533333-19.911111 27.022222-19.911111H572.767677v-1.422222c0-7.111111-1.422222-9.955556-14.222222-11.377778-4.266667 0-9.955556 0-14.222223 1.422222v-14.222222h17.066667c22.755556-1.422222 29.866667 7.111111 29.866667 19.911111z m-19.911111 24.177778v-7.111111h-14.222223c-8.533333 0-12.8 1.422222-12.8 7.111111s2.844444 7.111111 9.955556 7.111111c7.111111 1.422222 14.222222-1.422222 17.066667-7.111111zM602.634343 827.733333c9.955556 1.422222 14.222222-1.422222 17.066667-7.111111-5.688889-21.333333-12.8-44.088889-19.911111-65.422222l19.911111 1.422222c4.266667 15.644444 7.111111 31.288889 9.955556 46.933334h1.422222c7.111111-14.222222 14.222222-28.444444 19.911111-42.666667l19.911111 2.844444c-9.955556 17.066667-21.333333 35.555556-29.866667 54.044445-11.377778 21.333333-18.488889 27.022222-39.822222 24.177778l1.422222-14.222223zM668.056566 827.733333l2.844444-14.222222c5.688889 2.844444 11.377778 5.688889 18.488889 7.111111 7.111111 1.422222 9.955556 1.422222 11.377778-4.266666 1.422222-5.688889 0-7.111111-9.955556-11.377778-12.8-5.688889-15.644444-11.377778-14.222222-21.333334 1.422222-9.955556 9.955556-17.066667 29.866667-12.8 5.688889 1.422222 12.8 4.266667 18.488889 7.111112l-4.266667 12.8c-5.688889-2.844444-9.955556-5.688889-15.644445-7.111112-8.533333-1.422222-9.955556-1.422222-11.377777 2.844445s1.422222 5.688889 9.955555 9.955555c14.222222 7.111111 15.644444 12.8 14.222222 24.177778-2.844444 14.222222-14.222222 17.066667-29.866666 12.8-7.111111-1.422222-14.222222-2.844444-19.911111-5.688889z" fill="#FFFFFF" p-id="26041"></path><path d="M641.034343 416.711111c0 75.377778-56.888889 135.111111-126.577777 135.111111S387.878788 490.666667 387.878788 416.711111c0-76.8 72.533333-126.577778 91.022222-209.066667 15.644444 14.222222 88.177778 38.4 86.755556 147.911112 21.333333-14.222222 25.6-51.2 25.6-51.2s51.2 65.422222 49.777777 112.355555z" fill="#FF5F1B" p-id="26042"></path><path d="M514.456566 563.2c-75.377778-1.422222-135.111111-66.844444-133.688889-146.488889 0-44.088889 21.333333-78.222222 44.088889-113.777778 21.333333-28.444444 36.977778-61.155556 45.511111-96.711111l2.844444-12.8 8.533334 8.533334c4.266667 2.844444 7.111111 5.688889 11.377777 8.533333 45.511111 24.177778 75.377778 73.955556 76.8 128 5.688889-11.377778 9.955556-22.755556 11.377778-35.555556l1.422222-17.066666 9.955556 12.8c2.844444 2.844444 55.466667 69.688889 54.044444 118.044444 1.422222 79.644444-58.311111 145.066667-132.266666 146.488889z m-32.711111-344.177778c-9.955556 32.711111-25.6 64-45.511112 91.022222-21.333333 34.133333-42.666667 66.844444-42.666666 105.244445 0 71.111111 54.044444 128 120.888889 128s120.888889-56.888889 120.888889-128c0-32.711111-27.022222-75.377778-42.666667-96.711111-4.266667 17.066667-12.8 31.288889-25.6 41.244444l-11.377778 7.111111v-14.222222c1.422222-86.755556-45.511111-116.622222-69.688889-132.266667l-4.266666-1.422222z" fill="#FFFFFF" p-id="26043"></path><path d="M582.723232 482.133333c0 18.488889-7.111111 36.977778-19.911111 49.777778-12.8 12.8-29.866667 19.911111-48.355555 19.911111-36.977778 0-76.8-32.711111-68.266667-71.111111s27.022222-38.4 29.866667-91.022222c0-1.422222 0-1.422222 1.422222-2.844445s1.422222-1.422222 2.844444-1.422222c36.977778 9.955556 102.4 58.311111 102.4 96.711111z" fill="#FEAD04" p-id="26044"></path><path d="M551.434343 517.688889c0 14.222222-17.066667 28.444444-38.4 28.444444-21.333333 0-38.4-12.8-38.4-28.444444s36.977778-46.933333 44.088889-54.044445h2.844445c5.688889 7.111111 29.866667 39.822222 29.866666 54.044445z" fill="#F97C4E" p-id="26045"></path><path d="M420.589899 533.333333h190.577778c12.8 0 22.755556 11.377778 22.755555 24.177778V597.333333H397.834343v-38.4c0-7.111111 2.844444-12.8 7.111112-17.066666 2.844444-7.111111 9.955556-8.533333 15.644444-8.533334z" fill="#FFFFFF" p-id="26046"></path><path d="M3.878788 0h1024v1024H3.878788z" fill="#D8D8D8" fill-opacity="0" p-id="26047"></path></svg>