<?xml version="1.0" standalone="no"?><!DOCTYPE svg PUBLIC "-//W3C//DTD SVG 1.1//EN" "http://www.w3.org/Graphics/SVG/1.1/DTD/svg11.dtd"><svg t="1649922010664" class="icon" viewBox="0 0 1134 1024" version="1.1" xmlns="http://www.w3.org/2000/svg" p-id="27853" xmlns:xlink="http://www.w3.org/1999/xlink" width="53.15625" height="48"><defs><style type="text/css">@font-face { font-family: feedback-iconfont; src: url("//at.alicdn.com/t/font_1031158_u69w8yhxdu.woff2?t=1630033759944") format("woff2"), url("//at.alicdn.com/t/font_1031158_u69w8yhxdu.woff?t=1630033759944") format("woff"), url("//at.alicdn.com/t/font_1031158_u69w8yhxdu.ttf?t=1630033759944") format("truetype"); }
</style></defs><path d="M701.666462 936.661333l-374.044445-1.422222-231.822222-317.155555 83.911111-392.533334 338.488889-173.511111 335.644444 176.355556 82.488889 393.955555z" fill="#9B969F" p-id="27854"></path><path d="M684.599795 896.839111l-341.333333-1.422222-211.911112-287.288889 78.222223-359.822222 308.622222-157.866667 307.2 160.711111 73.955555 359.822222z" fill="#FFFFFF" p-id="27855"></path><path d="M674.644239 868.394667l-320-1.422223-197.688889-268.8 72.533334-335.644444 288.711111-147.911111 287.288889 149.333333 69.688889 337.066667z" fill="#ACA8B1" p-id="27856"></path><path d="M442.822017 662.172444c-192-81.066667-160.711111-297.244444-160.711111-300.088888l12.8 2.844444c-1.422222 8.533333-29.866667 206.222222 153.6 284.444444l-5.688889 12.8z" fill="#FFFFFF" p-id="27857"></path><path d="M303.444239 347.861333c-4.266667 12.8-12.8 21.333333-17.066666 19.911111-2.844444-1.422222-7.111111-14.222222-1.422223-27.022222 2.844444-8.533333 9.955556-15.644444 18.488889-19.911111 2.844444 8.533333 2.844444 18.488889 0 27.022222zM408.688684 640.839111c2.844444 8.533333-15.644444 19.911111-29.866667 22.755556-12.8 2.844444-25.6 0-35.555555-9.955556 5.688889-12.8 17.066667-21.333333 29.866666-24.177778 12.8-2.844444 32.711111 0 35.555556 11.377778zM407.266462 632.305778c-2.844444 1.422222-12.8-12.8-14.222223-22.755556-1.422222-9.955556 1.422222-19.911111 7.111111-27.022222 8.533333 4.266667 14.222222 12.8 15.644445 24.177778 0 8.533333-2.844444 18.488889-8.533333 25.6zM364.599795 602.439111c-2.844444 0-12.8-12.8-12.8-24.177778-1.422222-9.955556 2.844444-19.911111 8.533333-27.022222 8.533333 5.688889 12.8 14.222222 12.8 24.177778 1.422222 9.955556-1.422222 19.911111-8.533333 27.022222zM330.466462 561.194667c-2.844444 0-9.955556-15.644444-9.955556-25.6s4.266667-18.488889 12.8-24.177778c7.111111 7.111111 11.377778 15.644444 9.955556 25.6-1.422222 9.955556-9.955556 24.177778-12.8 24.177778zM303.444239 508.572444c-2.844444-1.422222-5.688889-18.488889-2.844444-28.444444s9.955556-17.066667 19.911111-19.911111c5.688889 8.533333 5.688889 19.911111 2.844444 28.444444-4.266667 11.377778-17.066667 21.333333-19.911111 19.911111zM290.644239 455.950222c-2.844444-1.422222-2.844444-18.488889 1.422223-28.444444 4.266667-8.533333 12.8-14.222222 21.333333-15.644445 4.266667 9.955556 2.844444 19.911111-1.422222 28.444445-4.266667 9.955556-18.488889 17.066667-21.333334 15.644444zM289.222017 400.483556c-1.422222-1.422222 1.422222-14.222222 5.688889-21.333334 4.266667-5.688889 11.377778-8.533333 18.488889-8.533333 1.422222 7.111111-1.422222 15.644444-5.688889 21.333333-4.266667 7.111111-11.377778 9.955556-18.488889 8.533334zM364.599795 608.128c2.844444 8.533333-17.066667 19.911111-31.288889 21.333333-12.8 2.844444-25.6-2.844444-35.555556-11.377777 5.688889-12.8 18.488889-21.333333 31.288889-22.755556 14.222222-1.422222 34.133333 2.844444 35.555556 12.8z" fill="#FFFFFF" p-id="27858"></path><path d="M330.466462 565.461333c1.422222 9.955556-19.911111 15.644444-34.133334 14.222223-12.8 0-25.6-7.111111-32.711111-19.911112 8.533333-9.955556 21.333333-15.644444 34.133333-14.222222 15.644444 1.422222 34.133333 9.955556 32.711112 19.911111zM300.599795 515.683556c-1.422222 9.955556-24.177778 7.111111-36.977778 1.422222-11.377778-4.266667-21.333333-15.644444-25.6-28.444445 11.377778-7.111111 25.6-8.533333 36.977778-1.422222 14.222222 4.266667 29.866667 18.488889 25.6 28.444445zM286.377573 463.061333c-2.844444 7.111111-19.911111 0-28.444445-7.111111s-12.8-17.066667-12.8-28.444444c9.955556-2.844444 21.333333 0 29.866667 7.111111s17.066667 21.333333 11.377778 28.444444zM280.688684 410.439111c-4.266667 4.266667-14.222222-5.688889-19.911111-14.222222-4.266667-7.111111-5.688889-17.066667-2.844445-25.6 8.533333 1.422222 15.644444 7.111111 19.911111 14.222222 5.688889 8.533333 7.111111 22.755556 2.844445 25.6zM586.466462 662.172444l-4.266667-12.8c182.044444-78.222222 153.6-283.022222 153.6-284.444444l12.8-2.844444c0 2.844444 31.288889 219.022222-162.133333 300.088888z" fill="#FFFFFF" p-id="27859"></path><path d="M727.266462 347.861333c4.266667 12.8 12.8 21.333333 17.066666 19.911111s7.111111-14.222222 2.844445-27.022222c-2.844444-8.533333-9.955556-15.644444-18.488889-19.911111-4.266667 8.533333-5.688889 18.488889-1.422222 27.022222zM622.022017 640.839111c-2.844444 8.533333 15.644444 19.911111 29.866667 22.755556 12.8 2.844444 25.6 0 35.555555-9.955556-5.688889-12.8-17.066667-21.333333-29.866666-24.177778-14.222222-2.844444-34.133333 0-35.555556 11.377778zM623.444239 632.305778c2.844444 1.422222 12.8-12.8 14.222223-22.755556 1.422222-9.955556-1.422222-19.911111-7.111112-27.022222-8.533333 4.266667-14.222222 14.222222-14.222222 24.177778-1.422222 8.533333 1.422222 17.066667 7.111111 25.6zM664.688684 602.439111c2.844444 0 12.8-12.8 12.8-24.177778 1.422222-9.955556-2.844444-19.911111-8.533334-27.022222-8.533333 5.688889-12.8 14.222222-12.8 24.177778s2.844444 19.911111 8.533334 27.022222zM700.244239 561.194667c2.844444 0 9.955556-15.644444 9.955556-25.6s-4.266667-18.488889-12.8-24.177778c-7.111111 7.111111-11.377778 15.644444-9.955556 25.6 0 9.955556 9.955556 24.177778 12.8 24.177778zM725.844239 508.572444c2.844444-1.422222 5.688889-18.488889 1.422223-28.444444-2.844444-9.955556-9.955556-17.066667-18.488889-19.911111-5.688889 8.533333-5.688889 19.911111-1.422223 28.444444 2.844444 11.377778 17.066667 21.333333 18.488889 19.911111zM738.644239 455.950222c2.844444-1.422222 2.844444-18.488889-1.422222-28.444444-4.266667-8.533333-12.8-14.222222-21.333333-15.644445-4.266667 9.955556-2.844444 19.911111 1.422222 28.444445 5.688889 9.955556 19.911111 17.066667 21.333333 15.644444zM741.488684 400.483556c1.422222-1.422222 0-14.222222-5.688889-21.333334-4.266667-5.688889-11.377778-8.533333-18.488889-8.533333-1.422222 7.111111 1.422222 15.644444 5.688889 21.333333 4.266667 7.111111 11.377778 9.955556 18.488889 8.533334zM666.110906 608.128c-2.844444 8.533333 17.066667 19.911111 31.288889 21.333333 12.8 2.844444 25.6-2.844444 35.555555-11.377777-5.688889-12.8-18.488889-21.333333-31.288888-22.755556-15.644444-1.422222-34.133333 2.844444-35.555556 12.8z" fill="#FFFFFF" p-id="27860"></path><path d="M698.822017 565.461333c-1.422222 9.955556 19.911111 15.644444 34.133333 14.222223 12.8 0 25.6-7.111111 32.711112-19.911112-8.533333-9.955556-21.333333-15.644444-34.133334-14.222222-14.222222 1.422222-32.711111 9.955556-32.711111 19.911111zM728.688684 515.683556c1.422222 9.955556 24.177778 7.111111 36.977778 1.422222 11.377778-4.266667 21.333333-15.644444 25.6-28.444445-11.377778-7.111111-25.6-8.533333-36.977778-1.422222-12.8 4.266667-28.444444 18.488889-25.6 28.444445zM742.910906 463.061333c2.844444 7.111111 19.911111 0 28.444444-7.111111s12.8-17.066667 12.8-28.444444c-9.955556-2.844444-21.333333 0-29.866666 7.111111-7.111111 7.111111-15.644444 21.333333-11.377778 28.444444zM750.022017 410.439111c4.266667 4.266667 14.222222-5.688889 19.911111-14.222222 4.266667-7.111111 5.688889-17.066667 2.844445-25.6-8.533333 1.422222-15.644444 7.111111-19.911111 14.222222-5.688889 8.533333-8.533333 22.755556-2.844445 25.6z" fill="#FFFFFF" p-id="27861"></path><path d="M543.799795 871.239111h-54.044445l-24.177777-210.488889h116.622222z" fill="#7E7C82" p-id="27862"></path><path d="M582.199795 660.750222h-133.688889c-7.111111 0-14.222222-4.266667-17.066667-9.955555l-29.866666-62.577778h227.555555l-29.866666 62.577778c-2.844444 5.688889-9.955556 9.955556-17.066667 9.955555z" fill="#CBCBCB" p-id="27863"></path><path d="M543.799795 871.239111h-73.955556l-24.177777-210.488889h118.044444z" fill="#BCBCBC" p-id="27864"></path><path d="M784.15535 869.816889s5.688889 7.111111-99.555555-34.133333c-17.066667-7.111111-35.555556 55.466667 31.288889 76.8h93.866666s44.088889-8.533333 81.066667 45.511111c14.222222-34.133333 15.644444-72.533333 2.844445-108.088889 0 0-8.533333-14.222222 66.844444-17.066667 0 0-29.866667-62.577778-115.2-72.533333-34.133333 58.311111-61.155556 109.511111-61.155556 109.511111z" fill="#98929D" p-id="27865"></path><path d="M889.399795 972.216889l-5.688889-8.533333c-34.133333-51.2-72.533333-44.088889-73.955556-44.088889h-96.711111c-38.4-12.8-48.355556-35.555556-49.777777-49.777778-2.844444-12.8 0-27.022222 8.533333-36.977778 4.266667-4.266667 9.955556-5.688889 15.644444-4.266667 65.422222 25.6 86.755556 31.288889 93.866667 34.133334 7.111111-12.8 29.866667-58.311111 58.311111-105.244445l2.844445-4.266666h4.266666c88.177778 9.955556 118.044444 73.955556 120.888889 76.8l4.266667 9.955555h-9.955556c-44.088889 1.422222-56.888889 7.111111-59.733333 9.955556 12.8 36.977778 11.377778 76.8-4.266667 112.355555l-8.533333 9.955556z m-73.955556-66.844445c28.444444 1.422222 54.044444 15.644444 71.111111 39.822223 8.533333-29.866667 8.533333-61.155556-1.422222-91.022223-1.422222-2.844444-1.422222-5.688889 0-8.533333 2.844444-7.111111 12.8-14.222222 61.155556-17.066667-24.177778-32.711111-59.733333-54.044444-99.555556-58.311111-27.022222 44.088889-48.355556 85.333333-55.466666 99.555556l-2.844445 5.688889c-2.844444 5.688889-4.266667 8.533333-108.088889-31.288889 0 0-1.422222 0-1.422222 1.422222-5.688889 7.111111-7.111111 15.644444-4.266667 24.177778 1.422222 9.955556 9.955556 28.444444 39.822223 38.4h92.444444c2.844444-4.266667 5.688889-4.266667 8.533333-2.844445z" fill="#808080" p-id="27866"></path><path d="M247.977573 869.816889s-5.688889 7.111111 99.555555-34.133333c17.066667-7.111111 35.555556 55.466667-31.288889 76.8h-93.866666s-44.088889-8.533333-81.066667 45.511111c-14.222222-34.133333-15.644444-72.533333-2.844444-108.088889 0 0 8.533333-14.222222-66.844445-17.066667 0 0 29.866667-62.577778 115.2-72.533333 34.133333 58.311111 61.155556 109.511111 61.155556 109.511111z" fill="#98929D" p-id="27867"></path><path d="M141.310906 972.216889l-5.688889-9.955556c-15.644444-35.555556-17.066667-75.377778-4.266667-112.355555-2.844444-2.844444-15.644444-7.111111-59.733333-9.955556h-9.955555l4.266666-9.955555c1.422222-2.844444 32.711111-66.844444 120.888889-76.8h4.266667l1.422222 5.688889c28.444444 46.933333 51.2 91.022222 58.311111 105.244444 7.111111-1.422222 28.444444-8.533333 93.866667-34.133333 5.688889-1.422222 11.377778 0 15.644444 4.266666 8.533333 9.955556 11.377778 24.177778 8.533334 36.977778-2.844444 12.8-12.8 36.977778-49.777778 49.777778H223.799795c-2.844444 0-41.244444-7.111111-75.377778 44.088889l-7.111111 7.111111z m4.266667-118.044445c-9.955556 29.866667-9.955556 61.155556-1.422223 91.022223 38.4-46.933333 78.222222-39.822222 81.066667-39.822223h91.022222c29.866667-9.955556 38.4-28.444444 39.822223-38.4 2.844444-8.533333 0-17.066667-4.266667-24.177777l-1.422222-1.422223c-103.822222 39.822222-105.244444 38.4-108.088889 31.288889l-4.266667-2.844444c-7.111111-14.222222-28.444444-55.466667-55.466667-99.555556-39.822222 4.266667-75.377778 24.177778-99.555555 58.311111 48.355556 1.422222 58.311111 9.955556 61.155555 15.644445 1.422222 2.844444 1.422222 7.111111 1.422223 9.955555z" fill="#808080" p-id="27868"></path><path d="M245.133128 875.505778l-82.488889-109.511111c115.2-48.355556 237.511111-73.955556 359.822223-73.955556 105.244444 0 238.933333 22.755556 331.377777 83.911111-42.666667 79.644444-68.266667 99.555556-68.266666 99.555556s-281.6-55.466667-540.444445 0z" fill="#98929D" p-id="27869"></path><path d="M242.288684 884.039111l-91.022222-120.888889 8.533333-4.266666c115.2-48.355556 236.088889-73.955556 359.822222-75.377778h2.844445c129.422222 0 254.577778 32.711111 334.222222 85.333333l5.688889 4.266667-2.844445 5.688889c-42.666667 79.644444-69.688889 100.977778-71.111111 100.977777l-2.844444 1.422223h-2.844445c-2.844444 0-281.6-55.466667-536.177778 0l-4.266666 2.844444z m256-41.244444c95.288889 0 189.155556 8.533333 283.022222 24.177777 7.111111-5.688889 28.444444-28.444444 61.155556-89.6-78.222222-49.777778-197.688889-79.644444-321.422223-79.644444h-2.844444c-118.044444 1.422222-236.088889 24.177778-347.022222 69.688889l73.955555 99.555555c85.333333-15.644444 169.244444-24.177778 253.155556-24.177777z" fill="#808080" p-id="27870"></path><path d="M424.333128 525.639111h182.044445c12.8 0 21.333333 9.955556 21.333333 24.177778v38.4h-227.555556v-38.4c0-7.111111 2.844444-12.8 7.111112-17.066667s11.377778-7.111111 17.066666-7.111111zM338.999795 765.994667c-5.688889 2.844444-12.8 7.111111-18.488889 9.955555l-4.266667-12.8c7.111111-4.266667 15.644444-8.533333 22.755556-12.8l12.8-4.266666c7.111111 25.6 12.8 51.2 18.488889 76.8l-15.644445 4.266666c-4.266667-19.911111-9.955556-39.822222-15.644444-61.155555zM398.733128 815.772444l-2.844444-14.222222c5.688889 0 9.955556 0 15.644444-1.422222 9.955556-2.844444 17.066667-5.688889 15.644445-15.644444-1.422222-9.955556-7.111111-11.377778-19.911111-8.533334-5.688889 1.422222-11.377778 2.844444-15.644445 5.688889-1.422222-14.222222-2.844444-28.444444-2.844444-44.088889l42.666666-8.533333 1.422223 14.222222c-9.955556 1.422222-18.488889 2.844444-28.444445 5.688889v17.066667c2.844444-1.422222 5.688889-1.422222 8.533333-2.844445 18.488889-2.844444 28.444444 2.844444 29.866667 19.911111s-8.533333 27.022222-28.444444 32.711111h-15.644445zM513.933128 713.372444c1.422222 28.444444 2.844444 58.311111 2.844445 86.755556h-14.222223l-1.422222-8.533333c-1.422222 5.688889-7.111111 9.955556-17.066666 11.377777-19.911111 1.422222-25.6-9.955556-27.022223-28.444444-2.844444-17.066667 1.422222-32.711111 21.333334-34.133333 11.377778-1.422222 17.066667 2.844444 19.911111 7.111111l-2.844445-31.288889 18.488889-2.844445z m-14.222222 58.311112c0-11.377778-4.266667-19.911111-15.644444-18.488889-11.377778 1.422222-12.8 9.955556-11.377778 21.333333 1.422222 9.955556 2.844444 18.488889 14.222222 18.488889s14.222222-9.955556 12.8-21.333333zM587.888684 758.883556c-1.422222 14.222222-1.422222 28.444444-2.844445 44.088888l-14.222222-1.422222c0-2.844444-1.422222-4.266667-1.422222-7.111111-4.266667 5.688889-12.8 8.533333-19.911111 7.111111-12.8 0-19.911111-5.688889-21.333334-18.488889s8.533333-19.911111 25.6-19.911111h15.644445v-1.422222c0-7.111111-1.422222-9.955556-12.8-11.377778-4.266667 0-8.533333 0-12.8 1.422222v-14.222222h15.644444c21.333333 1.422222 28.444444 8.533333 28.444445 21.333334z m-18.488889 22.755555v-7.111111h-12.8c-8.533333 0-11.377778 1.422222-11.377778 7.111111s2.844444 7.111111 8.533333 7.111111c5.688889 1.422222 11.377778-1.422222 15.644445-7.111111zM599.266462 811.505778c9.955556 1.422222 12.8-1.422222 15.644444-7.111111-5.688889-21.333333-11.377778-42.666667-18.488889-64 7.111111 0 12.8 1.422222 19.911111 1.422222 4.266667 15.644444 7.111111 29.866667 9.955556 45.511111 5.688889-14.222222 12.8-28.444444 19.911111-41.244444l18.488889 2.844444c-9.955556 17.066667-19.911111 34.133333-28.444445 51.2-11.377778 21.333333-17.066667 25.6-38.4 24.177778l1.422223-12.8zM660.422017 811.505778l2.844445-14.222222c5.688889 2.844444 11.377778 5.688889 17.066666 7.111111 7.111111 1.422222 9.955556 1.422222 11.377778-4.266667 1.422222-4.266667 0-7.111111-9.955556-11.377778-12.8-5.688889-15.644444-9.955556-12.8-21.333333 1.422222-9.955556 9.955556-17.066667 28.444445-12.8 5.688889 1.422222 11.377778 4.266667 17.066667 7.111111-1.422222 4.266667-2.844444 8.533333-2.844445 12.8-4.266667-2.844444-9.955556-4.266667-15.644444-5.688889-7.111111-1.422222-9.955556-1.422222-11.377778 2.844445s1.422222 4.266667 9.955555 9.955555c12.8 7.111111 15.644444 11.377778 12.8 22.755556-2.844444 14.222222-12.8 15.644444-28.444444 12.8-5.688889-1.422222-11.377778-2.844444-18.488889-5.688889zM576.510906 438.883556l17.066667 18.488888c5.688889 5.688889 8.533333 14.222222 8.533333 22.755556s-2.844444 17.066667-8.533333 22.755556l-4.266667 7.111111c-11.377778 12.8-31.288889 12.8-44.088889 0l-17.066667-18.488889-1.422222-1.422222 49.777778-51.2z" fill="#FFFFFF" p-id="27871"></path><path d="M567.977573 527.061333c-9.955556 0-19.911111-4.266667-27.022223-11.377777l-17.066666-18.488889s-1.422222-1.422222-1.422222-2.844445l-2.844445-5.688889 56.888889-61.155555 2.844444 4.266666 1.422223 1.422223 17.066666 18.488889c7.111111 7.111111 11.377778 18.488889 11.377778 28.444444s-4.266667 21.333333-11.377778 28.444444l-4.266666 5.688889c-5.688889 8.533333-15.644444 12.8-25.6 12.8z m-31.288889-36.977777l12.8 14.222222c9.955556 9.955556 24.177778 9.955556 34.133333 0l4.266667-5.688889c9.955556-9.955556 9.955556-27.022222 0-36.977778l-12.8-14.222222-38.4 42.666667z" fill="#818182" p-id="27872"></path><path d="M418.644239 372.039111l-2.844444-44.088889 22.755555-22.755555 41.244445 8.533333 83.911111 137.955556-22.755556 24.177777" fill="#FFFFFF" p-id="27873"></path><path d="M545.222017 481.550222l-9.955555-9.955555 19.911111-21.333334-79.644445-130.844444-34.133333-5.688889-18.488889 18.488889 1.422222 38.4-12.8 1.422222-2.844444-46.933333 28.444444-27.022222 46.933334 8.533333 88.177777 145.066667z" fill="#818182" p-id="27874"></path><path d="M479.799795 313.728l5.688889-36.977778 18.488889-14.222222 22.755555 7.111111 49.777778 167.822222-12.8 14.222223z" fill="#FFFFFF" p-id="27875"></path><path d="M562.288684 463.061333l-91.022222-147.911111 7.111111-44.088889 24.177777-17.066666 28.444445 9.955555 51.2 174.933334-19.911111 24.177777z m-75.377778-150.755555l78.222222 128 4.266667-4.266667-46.933333-159.288889-15.644445-5.688889-12.8 9.955556-7.111111 31.288889z" fill="#818182" p-id="27876"></path><path d="M528.15535 490.083556l-150.755555-71.111112-8.533333-27.022222 17.066666-17.066666 32.711111-2.844445 122.311111 103.822222z" fill="#FFFFFF" p-id="27877"></path><path d="M529.577573 498.616889l-156.444445-73.955556-11.377778-34.133333 21.333334-22.755556 38.4-2.844444 129.422222 110.933333-21.333333 22.755556z m-146.488889-85.333333l142.222222 68.266666 4.266667-4.266666-113.777778-98.133334-27.022222 1.422222-11.377778 12.8 5.688889 19.911112z" fill="#818182" p-id="27878"></path><path d="M5.360684 0h1024v1024h-1024z" fill="#D8D8D8" fill-opacity="0" p-id="27879"></path></svg>